<?xml version="1.0" ?>
<svg xmlns="http://www.w3.org/2000/svg" xmlns:ns1="http://sodipodi.sourceforge.net/DTD/sodipodi-0.dtd" xmlns:ns2="http://www.inkscape.org/namespaces/inkscape" viewBox="0 0 224 64" version="1.1" height="64" width="224" id="svg10" ns1:docname="005cf069ef36aae1c27334236bc89ba0.svg" ns2:version="1.4.2 (f4327f4, 2025-05-13)">
  <defs id="defs10"/>
  <ns1:namedview id="namedview10" pagecolor="#505050" bordercolor="#eeeeee" borderopacity="1" ns2:showpageshadow="0" ns2:pageopacity="0" ns2:pagecheckerboard="0" ns2:deskcolor="#505050" ns2:zoom="11.193753" ns2:cx="76.694565" ns2:cy="37.29759" ns2:window-width="1920" ns2:window-height="945" ns2:window-x="-9" ns2:window-y="40" ns2:window-maximized="1" ns2:current-layer="svg10"/>
  <path stop-color="#000000" fill-rule="evenodd" fill="#ed291b" d="m46 31h158c5.54 0 10 4.46 10 10v7c0 5.54-4.46 10-10 10h-158c-5.54 0-10-4.46-10-10v-7c0-5.54 4.46-10 10-10z" id="path1"/>
  <path d="m 125.02,44.46 q -0.34,0 -0.82,-0.48 0,0 0,-0.37 0,-0.39 0.48,-0.88 0,0 0.34,0 0.36,0 0.83,0.49 0,0 0,0.39 0,0.37 -0.47,0.85 z m 0,4.21 q -0.34,0 -0.82,-0.51 0,0 0,-0.36 0,-0.38 0.48,-0.87 0,0 0.34,0 0.36,0 0.83,0.49 0,0 0,0.38 0,0.36 -0.47,0.87 z" xml:space="preserve" style="font-style:normal;font-variant:normal;font-weight:666;font-stretch:normal;font-size:10.6667px;line-height:1.2;font-family:'Dream Han Sans SC';-inkscape-font-specification:'Dream Han Sans SC weight=666';text-align:start;writing-mode:lr-tb;direction:ltr;text-anchor:start;fill:#ffffff" id="text9" data-original-text=":" data-original-element="text"/>
  <g stroke-width="1.3" stroke="#fff" fill="none" transform="translate(765 1716.6)" id="g10">
    <path d="m-567-1677 4-3 4 3" id="path7"/>
    <path d="m-567-1673 4-3 4 3" id="path8"/>
    <path d="m-567-1669 4-3 4 3" id="path9"/>
    <path d="m-567-1665 4-3 4 3" id="path10"/>
  </g>
  <path d="M 0.0 0.0 L 224.0 0.0 L 224.0 64.0 L 0.0 64.0 Z" stop-color="#000000" fill-rule="evenodd" fill="none" id="rect1" data-original-element="rect"/>
  <path d="M 42.95 43.37 L 52.60 43.37 L 52.60 44.17 L 47.53 44.17 L 47.53 47.29 Q 47.79 47.26 48.06 47.23 L 48.07 48.04 Q 47.79 48.07 47.53 48.10 L 47.53 49.19 L 46.55 49.19 L 46.55 48.22 Q 46.41 48.24 46.27 48.25 Q 45.36 48.36 43.69 48.55 Q 43.69 48.55 43.02 48.62 L 42.93 47.75 Q 43.39 47.70 43.93 47.65 L 43.93 44.17 L 42.95 44.17 Z M 44.28 39.63 L 51.30 39.63 L 51.30 42.86 L 44.28 42.86 Z M 47.91 44.73 L 51.61 44.73 L 51.78 44.70 L 52.36 44.93 Q 52.03 46.02 51.42 46.86 Q 51.15 47.20 50.86 47.51 Q 51.70 48.09 52.79 48.36 Q 52.63 48.50 52.28 48.97 Q 52.28 48.97 52.18 49.15 Q 51.04 48.80 50.16 48.13 Q 50.08 48.19 50.00 48.25 Q 49.19 48.81 48.27 49.16 Q 48.20 49.00 47.90 48.56 Q 47.90 48.56 47.76 48.42 Q 48.59 48.16 49.33 47.66 Q 49.42 47.60 49.51 47.54 Q 48.73 46.73 48.27 45.63 L 48.62 45.53 L 47.91 45.53 Z M 45.25 41.56 L 45.25 42.18 L 50.30 42.18 L 50.30 41.56 Z M 45.25 40.31 L 45.25 40.91 L 50.30 40.91 L 50.30 40.31 Z M 50.17 46.97 Q 50.42 46.74 50.63 46.46 Q 50.97 46.03 51.19 45.53 L 49.14 45.53 Q 49.51 46.34 50.17 46.97 Z M 46.55 47.39 L 46.55 46.83 L 44.85 46.83 L 44.85 47.57 Q 45.50 47.50 46.21 47.43 Q 46.39 47.41 46.55 47.39 Z M 46.55 46.12 L 46.55 45.50 L 44.85 45.50 L 44.85 46.12 Z M 46.55 44.77 L 46.55 44.17 L 44.85 44.17 L 44.85 44.77 Z M 54.08 44.47 L 62.84 44.47 L 62.84 48.20 Q 62.84 48.55 62.64 48.89 Q 62.64 48.89 62.38 48.99 Q 62.13 49.07 61.37 49.12 Q 61.37 49.12 60.83 49.11 Q 60.80 48.93 60.62 48.52 Q 60.62 48.52 60.52 48.36 Q 60.74 48.37 61.21 48.38 Q 61.21 48.38 61.56 48.38 Q 61.56 48.38 61.63 48.38 Q 61.82 48.37 61.82 48.20 L 61.82 45.30 L 55.06 45.30 L 55.06 49.19 L 54.08 49.19 Z M 55.26 41.73 L 61.74 41.73 L 61.74 43.94 L 55.26 43.94 Z M 56.09 45.83 L 60.67 45.83 L 60.67 48.10 L 57.03 48.10 L 57.03 48.59 L 56.09 48.59 Z M 53.73 40.35 L 58.00 40.35 Q 57.98 40.30 57.97 40.25 Q 57.83 39.83 57.72 39.47 L 58.72 39.24 Q 58.87 39.57 59.02 39.99 Q 59.09 40.19 59.14 40.35 L 63.13 40.35 L 63.13 41.21 L 53.73 41.21 Z M 56.26 42.44 L 56.26 43.24 L 60.68 43.24 L 60.68 42.44 Z M 57.03 46.54 L 57.03 47.39 L 59.78 47.39 L 59.78 46.54 Z M 70.08 39.28 L 71.07 39.28 L 71.07 40.77 L 73.15 40.77 L 73.32 40.73 L 74.05 40.91 Q 73.86 41.51 73.38 42.73 Q 73.38 42.73 73.16 43.14 L 72.29 42.89 Q 72.48 42.51 72.67 41.95 Q 72.71 41.83 72.75 41.71 L 71.07 41.71 L 71.07 43.42 L 72.52 43.42 L 72.71 43.39 L 73.33 43.66 Q 72.96 45.14 72.24 46.24 Q 71.94 46.68 71.60 47.06 Q 71.81 47.24 72.04 47.39 Q 72.97 48.01 74.13 48.32 Q 74.01 48.43 73.77 48.73 Q 73.77 48.73 73.54 49.05 Q 73.54 49.05 73.47 49.19 Q 71.99 48.71 70.91 47.77 Q 70.74 47.92 70.55 48.06 Q 69.60 48.79 68.46 49.21 Q 68.40 49.10 68.17 48.76 Q 68.17 48.76 67.92 48.47 Q 67.92 48.47 67.81 48.37 Q 68.91 48.01 69.82 47.38 Q 70.02 47.23 70.22 47.08 Q 69.19 45.90 68.61 44.31 L 68.49 44.31 Q 68.48 44.58 68.46 44.87 Q 68.41 45.61 68.13 47.14 Q 68.13 47.14 67.59 48.58 Q 67.59 48.58 67.15 49.18 Q 67.07 49.10 66.76 48.89 Q 66.76 48.89 66.43 48.72 Q 66.43 48.72 66.30 48.68 Q 66.73 48.11 67.22 46.80 Q 67.22 46.80 67.48 45.40 Q 67.48 45.40 67.54 44.07 Q 67.54 44.07 67.54 43.48 L 67.54 40.77 L 70.08 40.77 Z M 64.38 48.45 Q 64.64 48.04 65.25 46.91 Q 65.25 46.91 65.86 45.63 Q 65.86 45.63 66.13 45.02 L 66.92 45.63 Q 66.68 46.19 66.12 47.39 Q 66.12 47.39 65.54 48.55 Q 65.54 48.55 65.27 49.06 Z M 70.90 46.42 Q 71.15 46.13 71.37 45.81 Q 71.83 45.15 72.11 44.31 L 69.56 44.31 Q 69.92 45.17 70.46 45.89 Q 70.66 46.16 70.90 46.42 Z M 68.51 43.42 L 70.08 43.42 L 70.08 41.71 L 68.51 41.71 Z M 64.14 42.99 L 64.70 42.25 Q 65.01 42.38 65.75 42.76 Q 65.75 42.76 66.41 43.14 Q 66.41 43.14 66.62 43.30 L 66.03 44.13 Q 65.84 43.97 65.18 43.56 Q 65.18 43.56 64.46 43.15 Q 64.46 43.15 64.14 42.99 Z M 64.74 40.10 L 65.31 39.38 Q 65.62 39.53 66.33 39.92 Q 66.33 39.92 66.98 40.32 Q 66.98 40.32 67.18 40.49 L 66.60 41.31 Q 66.40 41.13 65.76 40.70 Q 65.76 40.70 65.05 40.26 Q 65.05 40.26 64.74 40.10 Z" xml:space="preserve" style="font-weight:613;font-size:10.6667px;line-height:1.2;font-family:'Dream Han Sans SC';-inkscape-font-specification:'Dream Han Sans SC weight=613';text-align:start;writing-mode:lr-tb;direction:ltr;text-anchor:start;fill:#ffffff;fill-opacity:0.984314" id="text1" data-original-text="最高波" data-original-element="text"/>
  <path d="M 97.43 40.44 L 104.61 40.44 L 104.61 49.49 L 103.54 49.49 L 103.54 48.83 L 98.46 48.83 L 98.46 49.54 L 97.43 49.54 Z M 103.54 47.82 L 103.54 45.09 L 98.46 45.09 L 98.46 47.82 Z M 103.54 44.09 L 103.54 41.46 L 98.46 41.46 L 98.46 44.09 Z" xml:space="preserve" style="font-weight:613;font-size:10.6667px;line-height:1.2;font-family:'Dream Han Sans SC';-inkscape-font-specification:'Dream Han Sans SC weight=613';text-align:start;writing-mode:lr-tb;direction:ltr;text-anchor:start;fill:#ffffff;fill-opacity:0.984314" id="text2" data-original-text="日" data-original-element="text"/>
</svg>