<?xml version="1.0" ?>
<svg xmlns="http://www.w3.org/2000/svg" xmlns:ns1="http://sodipodi.sourceforge.net/DTD/sodipodi-0.dtd" xmlns:ns2="http://www.inkscape.org/namespaces/inkscape" version="1.1" width="208" height="32" viewBox="0,0,208,32" id="svg7" ns1:docname="00c95ac94003e3d169a1ff0f27044c52.svg" ns2:version="1.4.2 (f4327f4, 2025-05-13)">
  <defs id="defs7"/>
  <ns1:namedview id="namedview7" pagecolor="#505050" bordercolor="#eeeeee" borderopacity="1" ns2:showpageshadow="0" ns2:pageopacity="0" ns2:pagecheckerboard="0" ns2:deskcolor="#505050" ns2:zoom="6.0274054" ns2:cx="121.86006" ns2:cy="18.498839" ns2:window-width="1920" ns2:window-height="945" ns2:window-x="-9" ns2:window-y="40" ns2:window-maximized="1" ns2:current-layer="svg7"/>
  <g transform="translate(-240,-164)" id="g7">
    <g data-paper-data="{&quot;isPaintingLayer&quot;:true}" fill-rule="nonzero" stroke="none" stroke-linecap="butt" stroke-linejoin="miter" stroke-miterlimit="10" stroke-dasharray="" stroke-dashoffset="0" style="mix-blend-mode: normal" id="g6">
      <path d="M240,196v-32h208v32z" fill="none" stroke-width="0" id="path1"/>
    </g>
  </g>
  <path d="M 1.65 9.47 L 9.23 9.47 L 9.23 5.71 L 11.33 5.71 L 11.33 9.47 L 19.02 9.47 L 19.02 19.82 L 16.93 19.82 L 16.93 18.65 L 11.33 18.65 L 11.33 25.50 L 9.23 25.50 L 9.23 18.65 L 3.66 18.65 L 3.66 19.92 L 1.65 19.92 Z M 11.33 11.45 L 11.33 16.66 L 16.93 16.66 L 16.93 11.45 Z M 9.23 11.45 L 3.66 11.45 L 3.66 16.66 L 9.23 16.66 Z M 22.75 6.64 L 40.56 6.64 L 40.56 25.52 L 38.43 25.52 L 38.43 24.45 L 24.77 24.45 L 24.77 25.52 L 22.75 25.52 Z M 38.43 22.57 L 38.43 8.50 L 24.77 8.50 L 24.77 22.57 Z M 26.23 10.03 L 37.00 10.03 L 37.00 11.80 L 32.48 11.80 L 32.48 14.40 L 36.51 14.40 L 36.51 16.11 L 32.48 16.11 L 32.48 19.27 L 35.44 19.27 Q 35.17 18.80 34.62 18.13 Q 34.07 17.47 33.54 16.94 L 34.82 16.26 Q 35.38 16.75 36.53 18.01 Q 36.53 18.01 36.83 18.50 L 35.51 19.27 L 37.41 19.27 L 37.41 20.93 L 25.95 20.93 L 25.95 19.27 L 30.61 19.27 L 30.61 16.11 L 26.80 16.11 L 26.80 14.40 L 30.61 14.40 L 30.61 11.80 L 26.23 11.80 Z M 46.00 16.96 Q 45.96 16.75 45.71 16.01 Q 45.71 16.01 45.41 15.19 Q 45.41 15.19 45.28 14.91 Q 45.69 14.79 46.45 13.95 Q 46.45 13.95 46.96 13.27 Q 47.22 12.93 47.73 12.16 Q 48.20 11.43 48.77 10.43 L 43.94 10.43 L 43.94 8.50 L 49.82 8.50 Q 49.93 8.28 50.05 8.05 Q 50.68 6.83 51.17 5.57 L 53.35 6.40 Q 52.86 7.44 52.31 8.50 L 62.02 8.50 L 62.02 10.43 L 51.23 10.43 Q 50.44 11.80 49.61 13.04 Q 49.03 13.91 48.46 14.68 L 52.98 14.68 L 52.98 11.74 L 55.03 11.74 L 55.03 14.68 L 61.08 14.68 L 61.08 16.64 L 55.03 16.64 L 55.03 22.93 Q 55.03 23.77 54.63 24.70 Q 54.63 24.70 54.04 24.96 Q 53.49 25.21 51.78 25.35 Q 51.78 25.35 50.62 25.35 Q 50.57 25.05 50.31 24.30 Q 50.31 24.30 50.03 23.56 Q 50.03 23.56 49.87 23.28 Q 50.74 23.30 52.27 23.32 Q 52.27 23.32 52.55 23.30 Q 52.81 23.30 52.98 23.13 Q 52.98 23.13 52.98 22.91 L 52.98 16.64 L 48.42 16.64 Q 47.79 16.64 46.79 16.70 Q 46.79 16.70 46.14 16.86 Q 46.14 16.86 46.00 16.96 Z M 47.58 18.15 L 49.61 18.71 Q 49.10 19.84 47.73 22.06 Q 47.73 22.06 46.22 24.01 Q 46.22 24.01 45.43 24.72 Q 45.24 24.56 44.62 24.05 Q 44.62 24.05 43.98 23.58 Q 43.98 23.58 43.72 23.42 Q 44.92 22.46 46.96 19.65 Q 46.96 19.65 47.58 18.15 Z M 56.52 18.96 L 58.21 18.13 Q 58.99 18.94 60.70 20.85 Q 60.70 20.85 62.16 22.72 Q 62.16 22.72 62.58 23.46 L 60.76 24.43 Q 60.37 23.70 58.95 21.79 Q 58.95 21.79 57.33 19.80 Q 57.33 19.80 56.52 18.96 Z M 75.53 6.10 L 77.64 6.10 L 77.64 12.93 Q 77.98 12.69 78.35 12.46 Q 79.54 11.69 81.72 10.07 Q 81.72 10.07 82.52 9.33 L 84.00 11.12 Q 82.97 11.86 80.54 13.38 Q 80.54 13.38 79.28 14.10 Q 78.45 14.57 77.64 15.02 L 77.64 21.75 Q 77.64 22.59 78.00 23.09 Q 78.00 23.09 78.65 23.09 L 81.38 23.09 Q 81.85 23.09 82.31 22.36 Q 82.31 22.36 82.52 20.42 Q 82.52 20.42 82.60 18.69 Q 82.85 18.88 83.53 19.27 Q 83.53 19.27 84.25 19.55 Q 84.25 19.55 84.53 19.61 Q 84.43 21.59 83.90 24.01 Q 83.90 24.01 82.70 25.07 Q 82.70 25.07 81.56 25.07 L 78.37 25.07 Q 77.28 25.07 76.04 24.47 Q 76.04 24.47 75.53 23.00 Q 75.53 23.00 75.53 21.71 Z M 64.97 10.99 L 70.26 10.99 L 70.26 6.08 L 72.36 6.08 L 72.36 25.33 L 70.26 25.33 L 70.26 20.67 Q 69.28 21.10 68.25 21.53 Q 66.57 22.26 65.18 22.83 L 64.26 20.78 Q 65.14 20.51 67.40 19.69 Q 67.40 19.69 68.68 19.22 Q 69.47 18.92 70.26 18.63 L 70.26 13.00 L 64.97 13.00 Z M 98.21 6.81 L 103.73 6.81 L 104.03 6.72 L 105.42 7.60 Q 104.87 9.11 103.52 12.55 Q 103.52 12.55 102.88 13.97 Q 104.24 15.46 105.10 18.01 Q 105.10 18.01 105.10 19.10 Q 105.10 20.12 104.63 21.63 Q 104.63 21.63 104.07 22.02 Q 103.79 22.19 103.10 22.42 Q 103.10 22.42 102.69 22.49 Q 102.32 22.53 101.41 22.53 Q 101.41 22.53 100.94 22.51 Q 100.92 22.12 100.68 21.04 Q 100.68 21.04 100.43 20.63 Q 100.86 20.67 101.60 20.69 Q 101.60 20.69 101.90 20.67 Q 102.14 20.67 102.56 20.57 Q 102.56 20.57 102.73 20.46 Q 103.01 20.27 103.26 19.41 Q 103.26 19.41 103.24 18.88 Q 103.24 17.92 102.30 15.60 Q 102.30 15.60 100.96 14.21 Q 101.28 13.40 101.98 11.55 Q 101.98 11.55 102.63 9.68 Q 102.63 9.68 102.90 8.86 Q 102.94 8.75 102.98 8.62 L 100.00 8.62 L 100.00 25.45 L 98.21 25.45 Z M 87.14 17.52 L 96.32 17.52 L 96.32 25.29 L 94.35 25.29 L 94.35 24.43 L 89.03 24.43 L 89.03 25.43 L 87.14 25.43 Z M 86.61 8.15 L 90.87 8.15 Q 90.78 7.91 90.70 7.64 Q 90.40 6.81 90.05 6.10 L 91.87 5.59 Q 92.23 6.28 92.55 7.09 Q 92.81 7.68 92.96 8.15 L 96.77 8.15 L 96.77 9.99 L 93.96 9.99 L 95.93 10.41 Q 95.63 11.16 94.98 12.69 Q 94.98 12.69 94.67 13.42 Q 94.53 13.67 94.43 13.91 L 97.25 13.91 L 97.25 15.75 L 86.00 15.75 L 86.00 13.91 L 89.05 13.91 Q 88.93 13.20 88.58 12.29 Q 88.22 11.31 87.81 10.47 L 89.54 10.03 Q 89.99 10.84 90.74 12.76 Q 90.74 12.76 90.89 13.49 L 89.31 13.91 L 92.51 13.91 Q 92.72 13.46 92.94 12.91 Q 93.24 12.16 93.49 11.39 Q 93.75 10.63 93.92 9.99 L 86.61 9.99 Z M 94.35 22.66 L 94.35 19.33 L 89.03 19.33 L 89.03 22.66 Z" xml:space="preserve" style="font-weight:613;font-size:21.3333px;line-height:1.2;font-family:'Dream Han Sans SC';-inkscape-font-specification:'Dream Han Sans SC weight=613';text-align:start;writing-mode:lr-tb;direction:ltr;text-anchor:start;fill:#ffffff" id="text7" data-original-text="中国东北部" data-original-element="text"/>
</svg>