<?xml version="1.0" ?>
<svg xmlns="http://www.w3.org/2000/svg" xmlns:ns1="http://sodipodi.sourceforge.net/DTD/sodipodi-0.dtd" xmlns:ns2="http://www.inkscape.org/namespaces/inkscape" version="1.1" width="100" height="100" viewBox="0,0,100,100" id="svg4" ns1:docname="01551dc929573a27d4716075c3a09c94.svg" ns2:version="1.4.2 (f4327f4, 2025-05-13)">
  <defs id="defs4"/>
  <ns1:namedview id="namedview4" pagecolor="#505050" bordercolor="#eeeeee" borderopacity="1" ns2:showpageshadow="0" ns2:pageopacity="0" ns2:pagecheckerboard="0" ns2:deskcolor="#505050" ns2:zoom="7.31" ns2:cx="84.199726" ns2:cy="50" ns2:window-width="1920" ns2:window-height="945" ns2:window-x="-9" ns2:window-y="40" ns2:window-maximized="1" ns2:current-layer="svg4"/>
  <g transform="translate(-190,-130)" id="g4">
    <g data-paper-data="{&quot;isPaintingLayer&quot;:true}" fill-rule="nonzero" stroke-linecap="butt" stroke-linejoin="miter" stroke-miterlimit="10" stroke-dasharray="" stroke-dashoffset="0" style="mix-blend-mode: normal" id="g3">
      <path d="M190,230v-100h100v100z" fill="none" stroke="#959196" stroke-width="0" id="path1"/>
      <path d="M211.551,184.926l7.28,-19.04h3.64l-7.28,19.04zM211.551,188.166v-3.24h16.48v3.24zM221.551,194.086v-15.96h3.4v15.96z" fill="#ff0000" stroke="none" stroke-width="1" id="path3"/>
    </g>
  </g>
  <path d="M 49.16 34.38 L 72.68 34.38 L 72.68 62.34 Q 72.68 64.06 71.71 65.88 Q 71.71 65.88 70.54 66.34 Q 69.36 66.83 65.42 67.05 Q 65.42 67.05 62.45 67.05 Q 62.38 66.48 61.85 65.13 Q 61.85 65.13 61.28 63.80 Q 61.28 63.80 60.99 63.31 Q 62.45 63.38 65.24 63.42 Q 65.24 63.42 67.37 63.38 Q 67.37 63.38 67.83 63.38 Q 68.45 63.38 68.98 62.91 Q 68.98 62.91 68.98 62.31 L 68.98 55.69 L 51.80 55.69 Q 51.66 56.40 51.48 57.11 Q 50.73 59.96 47.81 65.13 Q 47.81 65.13 45.39 67.19 Q 45.11 66.83 44.15 65.81 Q 44.15 65.81 43.11 64.88 Q 43.11 64.88 42.69 64.66 Q 44.90 62.71 47.47 58.15 Q 47.47 58.15 48.74 53.30 Q 48.74 53.30 49.16 48.45 Q 49.16 48.45 49.16 46.25 Z M 52.73 46.70 Q 52.70 48.95 52.48 51.48 Q 52.44 51.88 52.41 52.30 L 68.98 52.30 L 68.98 46.70 Z M 52.73 37.81 L 52.73 43.33 L 68.98 43.33 L 68.98 37.81 Z" xml:space="preserve" style="font-weight:613;font-size:37.3333px;line-height:1.2;font-family:'Dream Han Sans SC';-inkscape-font-specification:'Dream Han Sans SC weight=613';text-align:start;writing-mode:lr-tb;direction:ltr;text-anchor:start;fill:#ff0000;fill-opacity:0.984314" id="text4" data-original-text="月" data-original-element="text"/>
</svg>