<?xml version="1.0" encoding="UTF-8" standalone="no"?>
<svg
   version="1.1"
   width="70"
   height="40"
   viewBox="0,0,70,40"
   id="svg7"
   sodipodi:docname="0225f6218ce2723552403e4f8364c45f.svg"
   inkscape:version="1.4.2 (f4327f4, 2025-05-13)"
   xmlns:inkscape="http://www.inkscape.org/namespaces/inkscape"
   xmlns:sodipodi="http://sodipodi.sourceforge.net/DTD/sodipodi-0.dtd"
   xmlns="http://www.w3.org/2000/svg"
   xmlns:svg="http://www.w3.org/2000/svg">
  <defs
     id="defs7" />
  <sodipodi:namedview
     id="namedview7"
     pagecolor="#505050"
     bordercolor="#eeeeee"
     borderopacity="1"
     inkscape:showpageshadow="0"
     inkscape:pageopacity="0"
     inkscape:pagecheckerboard="0"
     inkscape:deskcolor="#505050"
     inkscape:zoom="12.922376"
     inkscape:cx="29.445049"
     inkscape:cy="26.040103"
     inkscape:window-width="1920"
     inkscape:window-height="945"
     inkscape:window-x="-9"
     inkscape:window-y="40"
     inkscape:window-maximized="1"
     inkscape:current-layer="svg7" />
  <g
     transform="translate(-145,-340)"
     id="g7">
    <g
       data-paper-data="{&quot;isPaintingLayer&quot;:true}"
       stroke="none"
       stroke-miterlimit="10"
       stroke-dasharray=""
       stroke-dashoffset="0"
       style="mix-blend-mode: normal"
       id="g6">
      <path
         d="M145,380v-40h70v40z"
         fill-opacity="0.00392"
         fill="#282c33"
         fill-rule="evenodd"
         stroke-width="0.25"
         stroke-linecap="square"
         stroke-linejoin="round"
         id="path1" />
      <path
         d="M164,376v-32h32v32z"
         fill-opacity="0"
         fill="#000000"
         fill-rule="nonzero"
         stroke-width="1"
         stroke-linecap="butt"
         stroke-linejoin="miter"
         id="path2" />
      <path
         d="M187.32,356.016c0.152,0.112 0.192,0.312 0.096,0.488l-1.536,2.656c-0.096,0.176 -0.296,0.24 -0.472,0.176l-1.912,-0.768c-0.392,0.304 -0.824,0.56 -1.296,0.752l-0.288,2.032c-0.024,0.192 -0.184,0.328 -0.376,0.328h-3.072c-0.192,0 -0.344,-0.136 -0.384,-0.328l-0.288,-2.032c-0.472,-0.192 -0.896,-0.448 -1.296,-0.752l-1.912,0.768c-0.176,0.056 -0.376,0 -0.472,-0.176l-1.536,-2.656c-0.088,-0.16 -0.048,-0.376 0.096,-0.488l1.624,-1.264c-0.04,-0.24 -0.056,-0.504 -0.056,-0.752c0,-0.248 0.032,-0.512 0.072,-0.752l-1.624,-1.264c-0.16,-0.112 -0.192,-0.32 -0.096,-0.488l1.528,-2.656c0.096,-0.176 0.296,-0.24 0.472,-0.176l1.912,0.768c0.392,-0.296 0.824,-0.56 1.296,-0.752l0.288,-2.032c0.032,-0.192 0.184,-0.328 0.376,-0.328h3.072c0.192,0 0.352,0.136 0.384,0.328l0.288,2.032c0.472,0.192 0.896,0.448 1.296,0.752l1.912,-0.768c0.176,-0.056 0.376,0 0.472,0.176l1.536,2.656c0.088,0.16 0.048,0.376 -0.096,0.488l-1.624,1.264c0.04,0.24 0.056,0.496 0.056,0.752c0,0.264 -0.016,0.512 -0.048,0.752zM182.88,354c0,-1.584 -1.296,-2.88 -2.88,-2.88c-1.584,0 -2.88,1.296 -2.88,2.88c0,1.584 1.296,2.88 2.88,2.88c1.584,0 2.88,-1.296 2.88,-2.88z"
         fill="#ffffff"
         fill-rule="nonzero"
         stroke-width="1"
         stroke-linecap="butt"
         stroke-linejoin="miter"
         id="path3" />
    </g>
  </g>
  <path
     d="M 30.13 29.62 L 34.42 29.62 L 34.57 29.58 L 35.13 29.83 Q 34.83 30.79 34.34 31.53 Q 33.90 32.15 33.37 32.63 Q 33.55 32.74 33.75 32.84 Q 34.63 33.29 35.70 33.50 Q 35.61 33.60 35.40 33.88 Q 35.40 33.88 35.21 34.18 Q 35.21 34.18 35.15 34.30 Q 33.70 33.95 32.63 33.19 Q 32.19 33.47 31.71 33.69 Q 30.91 34.06 30.04 34.28 Q 29.98 34.10 29.73 33.64 Q 29.73 33.64 29.62 33.49 Q 30.42 33.33 31.16 33.02 Q 31.57 32.84 31.94 32.63 Q 31.03 31.76 30.46 30.55 L 30.70 30.46 L 30.13 30.46 Z M 31.08 25.76 L 34.28 25.76 L 34.28 27.93 Q 34.28 28.14 34.34 28.30 Q 34.34 28.30 34.45 28.30 L 35.03 28.30 Q 35.14 28.30 35.42 28.27 Q 35.42 28.27 35.50 28.24 Q 35.53 28.41 35.56 28.85 Q 35.56 28.85 35.58 29.00 Q 35.48 29.04 35.19 29.06 Q 35.19 29.06 35.05 29.06 L 34.37 29.06 Q 33.98 29.06 33.57 28.83 Q 33.57 28.83 33.43 28.32 Q 33.43 28.32 33.43 27.91 L 33.43 26.60 L 31.91 26.60 L 31.91 26.84 Q 31.91 27.30 31.65 28.26 Q 31.65 28.26 30.93 29.13 Q 30.93 29.13 30.25 29.45 Q 30.19 29.36 29.97 29.11 Q 29.97 29.11 29.74 28.85 Q 29.74 28.85 29.66 28.79 Q 30.27 28.52 30.88 27.86 Q 30.88 27.86 31.08 27.16 Q 31.08 27.16 31.08 26.81 Z M 28.10 34.12 Q 28.07 34.01 27.91 33.72 Q 27.91 33.72 27.72 33.44 Q 27.72 33.44 27.65 33.36 Q 27.74 33.29 27.96 33.03 Q 27.96 33.03 28.12 32.68 Q 28.12 32.68 28.12 32.46 L 28.12 29.27 L 26.87 29.27 L 26.87 28.40 L 28.99 28.40 L 28.99 32.32 L 29.94 31.57 Q 30.00 31.76 30.20 32.20 Q 30.20 32.20 30.27 32.32 Q 29.63 32.83 28.83 33.47 Q 28.83 33.47 28.38 33.84 Q 28.38 33.84 28.17 34.04 Q 28.17 34.04 28.10 34.12 Z M 31.29 30.46 Q 31.66 31.16 32.23 31.75 Q 32.43 31.95 32.66 32.13 Q 33.17 31.71 33.57 31.16 Q 33.81 30.83 33.98 30.46 Z M 27.55 26.14 L 28.13 25.59 Q 28.39 25.80 28.97 26.32 Q 28.97 26.32 29.48 26.82 Q 29.48 26.82 29.64 27.02 L 29.02 27.66 Q 28.87 27.44 28.38 26.92 Q 28.38 26.92 27.82 26.36 Q 27.82 26.36 27.55 26.14 Z M 37.08 25.79 L 44.56 25.79 L 44.56 27.76 L 41.16 27.76 Q 41.14 28.00 41.09 28.25 L 44.80 28.25 L 44.80 28.93 L 40.96 28.93 Q 40.91 29.18 40.86 29.42 L 43.79 29.42 L 43.79 33.36 L 45.05 33.36 L 45.05 34.02 L 36.54 34.02 L 36.54 33.36 L 37.74 33.36 L 37.74 29.42 L 40.01 29.42 Q 40.05 29.23 40.08 29.03 Q 40.09 28.97 40.10 28.93 L 36.65 28.93 L 36.65 28.25 L 40.19 28.25 Q 40.22 27.99 40.25 27.76 L 37.08 27.76 Z M 38.58 33.36 L 42.91 33.36 L 42.91 32.87 L 38.58 32.87 Z M 42.91 32.37 L 42.91 31.89 L 38.58 31.89 L 38.58 32.37 Z M 42.91 31.41 L 42.91 30.93 L 38.58 30.93 L 38.58 31.41 Z M 42.91 30.44 L 42.91 29.98 L 38.58 29.98 L 38.58 30.44 Z M 42.27 26.41 L 42.27 27.14 L 43.66 27.14 L 43.66 26.41 Z M 40.08 26.41 L 40.08 27.14 L 41.44 27.14 L 41.44 26.41 Z M 37.94 26.41 L 37.94 27.14 L 39.26 27.14 L 39.26 26.41 Z"
     xml:space="preserve"
     style="font-weight:613;font-size:9.52686px;line-height:1.2;font-family:'Dream Han Sans SC';-inkscape-font-specification:'Dream Han Sans SC weight=613';text-align:start;writing-mode:lr-tb;direction:ltr;text-anchor:start;fill:#ffffff;fill-opacity:0.984314;stroke-width:0.893139"
     id="text7"
     transform="scale(0.97523888,1.0253898)"
     data-original-text="设置"
     data-original-element="text" />
</svg>
