<?xml version="1.0" ?>
<svg xmlns="http://www.w3.org/2000/svg" xmlns:ns1="http://sodipodi.sourceforge.net/DTD/sodipodi-0.dtd" xmlns:ns2="http://www.inkscape.org/namespaces/inkscape" viewBox="0 0 224 344" version="1.1" height="344" width="224" id="svg9" ns1:docname="0430ace5b91c0558587ea7409930c435.svg" ns2:version="1.4.2 (f4327f4, 2025-05-13)">
  <defs id="defs9">
    <path d="M 190.11765 196.70588 L 203.294121 196.70588 L 203.294121 213.176468 L 190.11765 213.176468 Z" id="rect12" data-original-element="rect"/>
  </defs>
  <ns1:namedview id="namedview9" pagecolor="#505050" bordercolor="#eeeeee" borderopacity="1" ns2:showpageshadow="0" ns2:pageopacity="0" ns2:pagecheckerboard="0" ns2:deskcolor="#505050" ns2:zoom="2.125" ns2:cx="111.76471" ns2:cy="172" ns2:window-width="1920" ns2:window-height="945" ns2:window-x="-9" ns2:window-y="40" ns2:window-maximized="1" ns2:current-layer="svg9"/>
  <path style="paint-order:stroke markers fill" stroke-width="12" stroke-linejoin="round" stroke-linecap="round" stop-color="#000000" fill-rule="evenodd" fill-opacity=".8" fill="#1d2a41" d="m10 0h204c5.54 0 10 4.46 10 10v324c0 5.54-4.46 10-10 10h-204c-5.54 0-10-4.46-10-10v-324c0-5.54 4.46-10 10-10z" id="path1"/>
  <g fill="#fff" transform="translate(0 -1.999118)" id="g9"/>
  <g id="svg9-4" transform="translate(41.628839,32.00035)">
    <path d="M 40.51 100.92 L 55.10 100.92 L 55.10 103.64 L 52.96 103.64 L 52.96 120.22 Q 54.27 120.01 55.59 119.83 L 55.74 122.36 Q 54.34 122.61 52.96 122.87 L 52.96 129.14 L 49.98 129.14 L 49.98 123.40 Q 47.56 123.86 45.31 124.22 Q 42.85 124.62 40.81 124.98 L 40.17 122.09 Q 41.24 121.94 42.49 121.78 L 42.49 103.64 L 40.51 103.64 Z M 55.26 103.00 L 66.59 103.00 L 67.10 102.90 L 68.96 103.37 Q 68.26 109.87 66.49 114.87 Q 65.48 117.87 64.10 120.37 Q 64.45 120.95 64.84 121.53 Q 66.98 124.75 70.12 126.61 Q 69.79 126.87 69.02 127.70 Q 69.02 127.70 68.29 128.59 Q 68.29 128.59 68.07 128.98 Q 64.74 126.76 62.49 123.31 Q 62.43 123.22 62.37 123.12 Q 62.27 123.25 62.18 123.37 Q 59.59 126.94 56.26 129.23 Q 55.90 128.69 54.79 127.34 Q 54.79 127.34 54.31 126.97 Q 57.35 125.08 59.74 121.75 Q 60.29 121.04 60.77 120.25 Q 59.65 117.97 58.85 115.37 Q 57.48 111.00 56.60 105.84 L 55.26 105.84 Z M 62.43 117.17 Q 63.20 115.61 63.81 113.84 Q 65.12 110.15 65.79 105.84 L 59.32 105.84 Q 60.04 110.23 61.27 114.09 Q 61.82 115.70 62.43 117.17 Z M 49.98 114.33 L 49.98 110.20 L 45.38 110.20 L 45.38 114.33 Z M 49.98 120.65 L 49.98 116.92 L 45.38 116.92 L 45.38 121.36 Q 47.56 121.04 49.95 120.69 Q 49.98 120.69 49.98 120.65 Z M 49.98 107.58 L 49.98 103.64 L 45.38 103.64 L 45.38 107.58 Z M 83.07 108.56 L 90.12 108.56 L 90.12 99.47 L 93.12 99.47 L 93.12 108.56 L 99.90 108.56 L 99.90 125.72 Q 99.90 126.83 99.37 128.22 Q 99.37 128.22 98.52 128.56 Q 97.73 128.92 95.20 129.08 Q 95.20 129.08 93.38 129.08 Q 93.31 128.47 92.77 126.79 Q 92.77 126.79 92.45 126.20 Q 93.70 126.26 95.93 126.29 Q 95.93 126.29 96.32 126.26 Q 96.96 126.23 96.96 125.65 L 96.96 122.51 L 86.06 122.51 L 86.06 129.17 L 83.07 129.17 Z M 73.06 127.00 Q 73.85 125.78 75.74 122.36 Q 75.74 122.36 77.70 118.51 Q 77.70 118.51 78.52 116.69 L 80.77 118.51 Q 80.04 120.22 78.34 123.86 Q 78.34 123.86 76.54 127.37 Q 76.54 127.37 75.68 128.95 Z M 96.96 116.92 L 86.06 116.92 L 86.06 119.92 L 96.96 119.92 Z M 96.96 111.37 L 86.06 111.37 L 86.06 114.33 L 96.96 114.33 Z M 98.31 100.31 L 101.24 101.42 Q 100.45 103.06 98.59 106.29 Q 98.59 106.29 97.76 107.47 L 95.17 106.42 Q 95.71 105.59 96.87 103.50 Q 96.87 103.50 97.98 101.26 Q 97.98 101.26 98.31 100.31 Z M 72.10 110.45 L 73.82 108.31 Q 74.82 108.75 77.02 110.03 Q 77.02 110.03 79.01 111.37 Q 79.01 111.37 79.62 111.95 L 77.79 114.33 Q 77.21 113.75 75.29 112.31 Q 75.29 112.31 73.12 110.97 Q 73.12 110.97 72.10 110.45 Z M 82.15 101.65 L 84.71 100.53 Q 85.35 101.39 86.65 103.50 Q 86.65 103.50 87.71 105.53 Q 87.71 105.53 87.93 106.36 L 85.21 107.67 Q 85.02 106.83 84.04 104.75 Q 84.04 104.75 82.82 102.58 Q 82.82 102.58 82.15 101.65 Z M 73.60 101.90 L 75.37 99.83 Q 76.35 100.28 78.52 101.56 Q 78.52 101.56 80.42 102.90 Q 80.42 102.90 81.02 103.50 L 79.13 105.84 Q 78.59 105.23 76.74 103.83 Q 76.74 103.83 74.59 102.42 Q 74.59 102.42 73.60 101.90 Z" xml:space="preserve" style="font-weight:613;font-size:32px;line-height:1.2;font-family:'Dream Han Sans SC';-inkscape-font-specification:'Dream Han Sans SC weight=613';text-align:start;writing-mode:lr-tb;direction:ltr;text-anchor:start;fill:#ffffff" id="text9" data-original-text="取消" data-original-element="text"/>
    <path d="M 31.30 144.27 L 36.33 144.27 Q 36.25 144.02 36.13 143.70 Q 35.84 142.97 35.52 142.33 L 37.25 141.90 Q 37.62 142.50 37.91 143.22 Q 38.18 143.81 38.29 144.27 L 42.24 144.27 L 42.24 145.88 L 37.13 145.88 Q 37.02 146.05 36.91 146.21 Q 36.48 146.85 35.54 148.16 Q 35.54 148.16 35.11 148.78 Q 35.02 148.88 34.95 148.99 L 38.12 148.85 Q 38.75 148.03 39.21 147.17 L 40.92 147.76 Q 40.03 149.29 37.39 152.11 Q 37.39 152.11 34.18 154.43 Q 34.18 154.43 32.33 155.23 Q 32.23 155.03 31.87 154.53 Q 31.87 154.53 31.48 154.02 Q 31.48 154.02 31.32 153.85 Q 33.06 153.14 34.60 152.07 Q 35.73 151.31 36.68 150.42 Q 35.86 150.47 35.24 150.51 Q 34.15 150.61 32.95 150.74 Q 32.95 150.74 32.37 150.84 Q 32.37 150.84 32.21 150.92 Q 32.17 150.70 31.96 150.06 Q 31.96 150.06 31.73 149.40 Q 31.73 149.40 31.66 149.22 Q 31.98 149.15 32.85 148.87 Q 32.85 148.87 33.10 148.62 Q 33.28 148.44 33.96 147.56 Q 33.96 147.56 34.74 146.46 Q 34.74 146.46 35.10 145.94 Q 35.11 145.92 35.11 145.88 L 31.30 145.88 Z M 40.47 150.68 L 42.29 151.37 Q 41.17 153.12 39.56 154.65 Q 39.26 154.92 38.96 155.17 Q 39.30 155.44 39.65 155.72 Q 40.44 156.33 41.85 157.53 Q 41.85 157.53 42.32 158.00 L 40.94 159.14 Q 40.53 158.65 39.14 157.42 Q 39.14 157.42 38.36 156.76 Q 38.03 156.47 37.69 156.20 Q 36.86 156.82 35.92 157.38 Q 33.92 158.59 31.62 159.39 Q 31.51 159.18 31.12 158.63 Q 31.12 158.63 30.73 158.07 Q 30.73 158.07 30.56 157.90 Q 32.76 157.20 36.61 154.97 Q 36.61 154.97 39.60 152.21 Q 39.60 152.21 40.47 150.68 Z M 28.21 159.18 Q 28.13 158.98 27.78 158.50 Q 27.78 158.50 27.42 158.04 Q 27.42 158.04 27.28 157.90 Q 27.46 157.74 27.90 157.22 Q 27.90 157.22 28.21 156.45 Q 28.21 156.45 28.21 155.96 L 28.21 149.49 L 25.37 149.49 L 25.37 147.78 L 29.91 147.78 L 29.91 155.76 L 31.55 154.62 Q 31.64 154.97 31.94 155.87 Q 31.94 155.87 32.05 156.13 Q 30.93 156.99 29.52 158.04 Q 29.52 158.04 28.72 158.66 Q 28.72 158.66 28.32 159.04 Q 28.32 159.04 28.21 159.18 Z M 26.55 143.13 L 27.81 142.17 Q 28.29 142.65 29.27 143.81 Q 29.27 143.81 30.13 144.93 Q 30.13 144.93 30.39 145.36 L 29.03 146.46 Q 28.79 146.01 27.95 144.86 Q 27.95 144.86 26.99 143.64 Q 26.99 143.64 26.55 143.13 Z M 54.96 142.01 L 56.62 142.01 L 56.62 146.52 L 58.68 145.64 L 58.99 145.38 L 59.30 145.14 L 60.56 145.60 L 60.48 145.90 Q 60.48 147.23 60.46 149.49 Q 60.46 149.49 60.43 151.25 Q 60.43 151.25 60.37 152.47 Q 60.37 152.47 60.32 152.75 Q 60.26 153.35 59.75 153.98 Q 59.75 153.98 59.32 154.12 Q 58.93 154.26 57.91 154.32 Q 57.91 154.32 57.50 154.32 Q 57.46 153.96 57.24 153.09 Q 57.24 153.09 57.11 152.80 Q 57.38 152.82 58.06 152.84 Q 58.06 152.84 58.18 152.84 Q 58.39 152.84 58.64 152.66 Q 58.64 152.66 58.69 152.38 Q 58.73 152.21 58.77 151.16 Q 58.77 151.16 58.79 149.47 Q 58.79 149.47 58.79 148.29 Q 58.79 147.84 58.79 147.37 L 56.62 148.31 L 56.62 155.08 L 54.96 155.08 L 54.96 149.01 L 52.87 149.91 L 52.87 156.11 Q 52.87 156.63 53.05 157.17 Q 53.05 157.17 53.67 157.36 Q 53.67 157.36 54.26 157.36 L 58.39 157.36 Q 58.93 157.36 59.46 156.95 Q 59.46 156.95 59.71 155.87 Q 59.71 155.87 59.78 154.84 Q 60.07 155.05 60.99 155.42 Q 60.99 155.42 61.35 155.49 Q 61.23 156.81 60.67 158.29 Q 60.67 158.29 59.53 158.95 Q 59.53 158.95 58.50 158.95 L 54.16 158.95 Q 53.02 158.95 51.69 158.46 Q 51.69 158.46 51.17 157.22 Q 51.17 157.22 51.17 156.09 L 51.17 150.64 L 49.90 151.18 L 49.22 149.63 L 51.17 148.81 L 51.17 143.79 L 52.87 143.79 L 52.87 148.10 L 54.96 147.21 Z M 43.95 146.44 L 46.26 146.44 L 46.26 142.24 L 47.92 142.24 L 47.92 146.44 L 49.99 146.44 L 49.99 148.10 L 47.92 148.10 L 47.92 153.09 Q 48.90 152.68 49.88 152.27 L 50.27 153.83 Q 48.78 154.54 45.71 155.96 Q 45.71 155.96 44.45 156.52 L 43.76 154.75 Q 44.50 154.47 45.51 154.07 Q 45.89 153.93 46.26 153.76 L 46.26 148.10 L 43.95 148.10 Z M 64.31 150.13 L 78.98 150.13 L 78.98 151.37 L 65.97 151.37 L 65.97 152.75 Q 65.97 153.29 65.91 153.91 L 79.69 153.91 L 79.69 155.10 L 77.40 155.10 L 78.59 155.72 Q 77.90 156.19 77.11 156.60 Q 76.69 156.81 76.29 156.99 Q 76.52 157.06 76.78 157.13 Q 78.24 157.51 80.01 157.64 Q 79.77 157.88 79.27 158.66 Q 79.27 158.66 79.11 159.00 Q 77.21 158.78 74.17 157.74 Q 74.17 157.74 73.07 156.88 Q 72.09 156.13 71.42 155.10 L 68.90 155.10 L 68.90 157.49 L 72.88 156.93 Q 72.80 157.22 72.73 158.00 Q 72.73 158.00 72.73 158.24 Q 70.95 158.54 68.79 158.91 Q 68.79 158.91 67.64 159.14 Q 67.64 159.14 67.11 159.27 Q 67.11 159.27 66.96 159.34 Q 66.91 159.14 66.64 158.61 Q 66.64 158.61 66.32 158.11 Q 66.32 158.11 66.18 157.94 Q 66.48 157.77 67.19 157.04 Q 67.19 157.04 67.19 156.43 L 67.19 155.10 L 65.79 155.10 Q 65.69 155.62 65.54 156.19 Q 65.30 157.08 64.40 158.77 Q 64.40 158.77 63.70 159.45 Q 63.56 159.28 63.10 158.86 Q 63.10 158.86 62.58 158.43 Q 62.58 158.43 62.39 158.35 Q 63.27 157.51 64.07 155.55 Q 64.07 155.55 64.31 153.57 Q 64.31 153.57 64.31 152.71 Z M 64.36 142.63 L 78.09 142.63 L 78.09 143.92 L 72.04 143.92 L 72.04 144.80 L 79.27 144.80 L 79.27 148.03 L 77.54 148.03 L 77.54 145.88 L 72.04 145.88 L 72.04 149.72 L 70.32 149.72 L 70.32 145.88 L 64.86 145.88 L 64.86 148.03 L 63.21 148.03 L 63.21 144.80 L 70.32 144.80 L 70.32 143.92 L 64.36 143.92 Z M 66.80 152.06 L 77.92 152.06 L 77.92 153.16 L 66.80 153.16 Z M 72.84 148.40 L 77.34 148.40 L 77.34 149.35 L 72.84 149.35 Z M 65.15 148.40 L 69.56 148.40 L 69.56 149.35 L 65.15 149.35 Z M 72.84 146.68 L 76.90 146.68 L 76.90 147.64 L 72.84 147.64 Z M 65.54 146.68 L 69.54 146.68 L 69.54 147.64 L 65.54 147.64 Z M 77.21 155.10 L 73.07 155.10 Q 73.57 155.67 74.28 156.09 Q 74.60 156.29 74.95 156.47 Q 75.23 156.31 75.53 156.15 Q 76.01 155.87 76.48 155.57 Q 76.90 155.31 77.21 155.10 Z M 87.46 153.20 L 97.15 153.20 L 97.15 159.27 L 95.58 159.27 L 95.58 158.65 L 88.97 158.65 L 88.97 159.32 L 87.46 159.32 Z M 85.18 142.09 L 86.75 142.56 Q 86.20 144.13 85.46 145.68 Q 85.36 145.90 85.25 146.10 L 85.25 159.39 L 83.63 159.39 L 83.63 148.92 Q 82.87 150.10 82.05 151.05 Q 81.95 150.84 81.64 150.20 Q 81.64 150.20 81.26 149.54 Q 81.26 149.54 81.09 149.35 Q 81.91 148.46 83.44 146.12 Q 83.44 146.12 84.73 143.45 Q 84.73 143.45 85.18 142.09 Z M 86.38 145.02 L 91.92 145.02 Q 91.73 144.54 91.40 143.90 Q 91.02 143.17 90.65 142.58 L 92.16 141.99 Q 92.55 142.56 93.34 143.94 Q 93.34 143.94 93.52 144.45 L 92.22 145.02 L 98.36 145.02 L 98.36 146.48 L 86.38 146.48 Z M 95.58 157.23 L 95.58 154.64 L 88.97 154.64 L 88.97 157.23 Z M 87.72 147.76 L 96.94 147.76 L 96.94 149.17 L 87.72 149.17 Z M 87.72 150.43 L 96.94 150.43 L 96.94 151.86 L 87.72 151.86 Z M 102.74 143.72 L 107.09 143.72 Q 107.25 143.34 107.39 142.90 Q 107.60 142.29 107.69 141.81 L 109.80 142.13 Q 109.50 142.74 109.19 143.32 Q 109.05 143.53 108.96 143.72 L 114.36 143.72 L 114.36 152.73 L 108.57 152.73 Q 108.94 153.07 109.32 153.46 Q 109.80 153.96 110.60 154.99 Q 110.60 154.99 110.85 155.40 L 109.41 156.28 Q 109.19 155.85 108.41 154.80 Q 108.41 154.80 107.47 153.74 Q 107.47 153.74 107.02 153.31 L 108.03 152.73 L 102.74 152.73 Z M 104.05 153.96 L 105.83 153.96 L 105.83 156.78 Q 105.83 157.17 106.31 157.40 Q 106.31 157.40 107.17 157.40 L 110.90 157.40 Q 111.39 157.40 111.85 157.12 Q 111.85 157.12 112.04 156.20 Q 112.04 156.20 112.10 155.29 Q 112.31 155.44 112.86 155.70 Q 112.86 155.70 113.48 155.88 Q 113.48 155.88 113.72 155.94 Q 113.63 157.17 113.09 158.52 Q 113.09 158.52 111.99 159.02 Q 111.99 159.02 111.01 159.02 L 107.04 159.02 Q 105.86 159.02 104.56 158.63 Q 104.56 158.63 104.05 157.66 Q 104.05 157.66 104.05 156.81 Z M 104.44 150.12 L 104.44 151.37 L 112.58 151.37 L 112.58 150.12 Z M 104.44 147.60 L 104.44 148.83 L 112.58 148.83 L 112.58 147.60 Z M 104.44 145.09 L 104.44 146.31 L 112.58 146.31 L 112.58 145.09 Z M 113.31 154.15 L 114.88 153.50 Q 115.30 154.07 116.17 155.46 Q 116.17 155.46 116.82 156.78 Q 116.82 156.78 116.99 157.34 L 115.32 158.07 Q 115.18 157.53 114.54 156.17 Q 114.54 156.17 113.74 154.75 Q 113.74 154.75 113.31 154.15 Z M 101.82 153.82 L 103.36 154.47 Q 103.12 155.06 102.54 156.52 Q 102.54 156.52 101.91 157.88 Q 101.91 157.88 101.59 158.45 L 99.97 157.68 Q 100.32 157.13 101.01 155.81 Q 101.01 155.81 101.61 154.41 Q 101.61 154.41 101.82 153.82 Z" xml:space="preserve" style="font-weight:613;font-size:18.6667px;line-height:1.2;font-family:'Dream Han Sans SC';-inkscape-font-specification:'Dream Han Sans SC weight=613';text-align:start;writing-mode:lr-tb;direction:ltr;text-anchor:start;fill:#ffffff" id="text10" data-original-text="该地震信息" data-original-element="text"/>
    <path d="M 35.92 167.73 L 37.73 167.73 L 37.73 170.56 L 46.99 170.56 L 46.99 166.05 L 35.04 166.05 L 35.04 164.31 L 48.82 164.31 L 48.82 173.20 L 46.99 173.20 L 46.99 172.30 L 37.73 172.30 L 37.73 176.84 Q 37.73 177.42 38.08 178.04 Q 38.08 178.04 39.15 178.24 Q 39.15 178.24 40.18 178.24 L 46.88 178.24 Q 47.63 178.24 48.54 177.98 Q 48.54 177.98 49.06 177.23 Q 49.06 177.23 49.32 175.87 Q 49.32 175.87 49.43 174.78 Q 49.68 174.94 50.31 175.21 Q 50.31 175.21 50.96 175.44 Q 50.96 175.44 51.23 175.49 Q 51.08 176.78 50.59 178.54 Q 50.59 178.54 49.66 179.55 Q 49.66 179.55 48.11 179.99 Q 48.11 179.99 46.90 179.99 L 40.23 179.99 Q 38.59 179.99 36.71 179.45 Q 36.71 179.45 35.92 178.09 Q 35.92 178.09 35.92 176.82 Z M 63.79 163.19 L 65.45 163.19 L 65.45 165.84 L 68.42 165.84 L 68.66 165.79 L 69.91 166.07 Q 69.65 167.10 69.02 169.22 Q 69.02 169.22 68.72 169.97 L 67.22 169.61 Q 67.47 168.94 67.72 167.95 Q 67.79 167.71 67.84 167.49 L 65.45 167.49 L 65.45 170.47 L 67.84 170.47 L 68.14 170.40 L 69.18 170.81 Q 68.61 173.41 67.43 175.29 Q 66.88 176.15 66.26 176.90 Q 66.53 177.11 66.81 177.32 Q 68.27 178.39 70.16 178.95 Q 69.96 179.11 69.55 179.64 Q 69.55 179.64 69.18 180.21 Q 69.18 180.21 69.05 180.44 Q 66.74 179.64 65.08 178.09 Q 64.85 178.27 64.62 178.46 Q 63.02 179.73 61.08 180.50 Q 60.93 180.18 60.39 179.32 Q 60.39 179.32 60.15 179.06 Q 61.88 178.48 63.39 177.34 Q 63.68 177.11 63.94 176.90 Q 62.35 174.90 61.42 172.16 Q 61.38 172.64 61.34 173.14 Q 61.25 174.39 60.72 176.99 Q 60.72 176.99 59.72 179.41 Q 59.72 179.41 58.90 180.41 Q 58.76 180.23 58.28 179.79 Q 58.28 179.79 57.80 179.38 Q 57.80 179.38 57.61 179.28 Q 58.37 178.37 59.26 176.22 Q 59.26 176.22 59.70 173.96 Q 59.70 173.96 59.83 171.76 Q 59.83 171.76 59.83 170.79 L 59.83 165.84 L 63.79 165.84 Z M 58.54 170.02 L 59.59 171.00 Q 59.08 171.50 58.58 172.02 Q 58.21 172.39 57.87 172.68 Q 58.32 173.18 58.67 173.62 Q 59.03 174.05 59.17 174.26 L 58.26 175.62 Q 58.08 175.27 57.40 174.24 Q 57.40 174.24 57.03 173.71 Q 56.89 173.50 56.73 173.29 L 56.73 180.50 L 55.09 180.50 L 55.09 173.53 Q 54.14 174.69 53.20 175.51 Q 53.13 175.27 52.87 174.62 Q 52.87 174.62 52.57 173.98 Q 52.57 173.98 52.44 173.83 Q 53.41 173.05 55.32 170.75 Q 55.32 170.75 56.10 169.40 Q 56.51 168.72 56.82 168.03 L 52.74 168.03 L 52.74 166.44 L 55.86 166.44 Q 55.65 165.94 55.27 165.27 Q 54.84 164.52 54.47 163.90 L 55.82 163.23 Q 56.23 163.81 57.07 165.21 Q 57.07 165.21 57.31 165.71 L 56.10 166.44 L 57.65 166.44 L 57.91 166.37 L 58.78 167.05 Q 58.21 168.70 57.30 170.29 Q 57.01 170.77 56.73 171.22 L 56.73 171.35 Q 56.89 171.50 57.07 171.72 Q 57.12 171.78 57.16 171.84 Q 57.44 171.52 57.76 171.11 Q 58.24 170.49 58.54 170.02 Z M 65.08 175.74 Q 65.56 175.17 65.97 174.54 Q 66.72 173.41 67.17 172.02 L 62.93 172.02 Q 63.49 173.50 64.33 174.74 Q 64.69 175.27 65.08 175.74 Z M 61.45 170.47 L 63.79 170.47 L 63.79 167.49 L 61.45 167.49 Z M 71.53 164.02 L 80.05 164.02 L 80.05 165.60 L 78.80 165.60 L 78.80 175.27 Q 79.56 175.16 80.33 175.05 L 80.42 176.52 Q 79.60 176.67 78.80 176.82 L 78.80 180.48 L 77.06 180.48 L 77.06 177.13 Q 75.64 177.40 74.33 177.61 Q 72.90 177.84 71.71 178.05 L 71.33 176.37 Q 71.96 176.28 72.69 176.18 L 72.69 165.60 L 71.53 165.60 Z M 80.14 165.23 L 86.74 165.23 L 87.05 165.17 L 88.13 165.45 Q 87.72 169.24 86.69 172.16 Q 86.10 173.91 85.30 175.36 Q 85.50 175.70 85.72 176.04 Q 86.97 177.92 88.80 179.00 Q 88.61 179.16 88.17 179.64 Q 88.17 179.64 87.74 180.16 Q 87.74 180.16 87.61 180.39 Q 85.67 179.09 84.36 177.08 Q 84.32 177.02 84.28 176.97 Q 84.23 177.04 84.17 177.11 Q 82.66 179.19 80.72 180.53 Q 80.51 180.21 79.86 179.43 Q 79.86 179.43 79.58 179.21 Q 81.36 178.11 82.75 176.17 Q 83.07 175.76 83.35 175.29 Q 82.70 173.96 82.23 172.45 Q 81.43 169.90 80.92 166.89 L 80.14 166.89 Z M 84.32 173.50 Q 84.77 172.58 85.12 171.55 Q 85.89 169.40 86.28 166.89 L 82.51 166.89 Q 82.93 169.45 83.65 171.70 Q 83.96 172.64 84.32 173.50 Z M 77.06 171.84 L 77.06 169.43 L 74.38 169.43 L 74.38 171.84 Z M 77.06 175.53 L 77.06 173.35 L 74.38 173.35 L 74.38 175.94 Q 75.64 175.76 77.04 175.55 Q 77.06 175.55 77.06 175.53 Z M 77.06 167.90 L 77.06 165.60 L 74.38 165.60 L 74.38 167.90 Z M 96.36 168.47 L 100.47 168.47 L 100.47 163.17 L 102.22 163.17 L 102.22 168.47 L 106.18 168.47 L 106.18 178.48 Q 106.18 179.13 105.87 179.94 Q 105.87 179.94 105.38 180.14 Q 104.91 180.35 103.43 180.44 Q 103.43 180.44 102.38 180.44 Q 102.33 180.09 102.02 179.11 Q 102.02 179.11 101.83 178.76 Q 102.56 178.80 103.86 178.82 Q 103.86 178.82 104.09 178.80 Q 104.46 178.78 104.46 178.45 L 104.46 176.61 L 98.10 176.61 L 98.10 180.50 L 96.36 180.50 Z M 90.52 179.23 Q 90.98 178.52 92.09 176.52 Q 92.09 176.52 93.23 174.28 Q 93.23 174.28 93.71 173.21 L 95.02 174.28 Q 94.59 175.27 93.60 177.40 Q 93.60 177.40 92.55 179.45 Q 92.55 179.45 92.05 180.37 Z M 104.46 173.35 L 98.10 173.35 L 98.10 175.10 L 104.46 175.10 Z M 104.46 170.11 L 98.10 170.11 L 98.10 171.84 L 104.46 171.84 Z M 105.25 163.66 L 106.96 164.31 Q 106.50 165.27 105.41 167.15 Q 105.41 167.15 104.93 167.84 L 103.42 167.23 Q 103.73 166.74 104.41 165.52 Q 104.41 165.52 105.06 164.22 Q 105.06 164.22 105.25 163.66 Z M 89.96 169.58 L 90.96 168.33 Q 91.55 168.58 92.83 169.33 Q 92.83 169.33 93.99 170.11 Q 93.99 170.11 94.35 170.45 L 93.28 171.84 Q 92.94 171.50 91.82 170.66 Q 91.82 170.66 90.55 169.88 Q 90.55 169.88 89.96 169.58 Z M 95.82 164.45 L 97.32 163.79 Q 97.69 164.29 98.45 165.52 Q 98.45 165.52 99.07 166.71 Q 99.07 166.71 99.20 167.19 L 97.61 167.95 Q 97.50 167.46 96.93 166.25 Q 96.93 166.25 96.21 164.98 Q 96.21 164.98 95.82 164.45 Z M 90.84 164.59 L 91.87 163.38 Q 92.44 163.64 93.71 164.39 Q 93.71 164.39 94.81 165.17 Q 94.81 165.17 95.17 165.52 L 94.06 166.89 Q 93.74 166.53 92.67 165.71 Q 92.67 165.71 91.41 164.89 Q 91.41 164.89 90.84 164.59 Z" xml:space="preserve" style="font-weight:613;font-size:18.6667px;line-height:1.2;font-family:'Dream Han Sans SC';-inkscape-font-specification:'Dream Han Sans SC weight=613';text-align:start;writing-mode:lr-tb;direction:ltr;text-anchor:start;fill:#ffffff" id="text11" data-original-text="已被取消" data-original-element="text"/>
  </g>
  <text xml:space="preserve" id="text12" style="fill:#ffffff;text-orientation:auto;-inkscape-font-specification:'Dream Han Sans SC weight=613';font-family:'Dream Han Sans SC';font-weight:613;font-size:10.66666667px;line-height:1.2;fill-opacity:0.98431373;text-align:start;writing-mode:lr-tb;direction:ltr;white-space:pre;shape-inside:url(#rect12)"/>
</svg>