<?xml version="1.0" ?>
<svg xmlns="http://www.w3.org/2000/svg" xmlns:ns1="http://sodipodi.sourceforge.net/DTD/sodipodi-0.dtd" xmlns:ns2="http://www.inkscape.org/namespaces/inkscape" viewBox="0 0 192 36" version="1.1" height="36" width="192" id="svg3" ns1:docname="050bc32e3c000b962c3caeaae5d6e5fa.svg" ns2:version="1.4.2 (f4327f4, 2025-05-13)">
  <defs id="defs3"/>
  <ns1:namedview id="namedview3" pagecolor="#505050" bordercolor="#eeeeee" borderopacity="1" ns2:showpageshadow="0" ns2:pageopacity="0" ns2:pagecheckerboard="0" ns2:deskcolor="#505050" ns2:zoom="1.1542969" ns2:cx="41.150592" ns2:cy="111.32318" ns2:window-width="1920" ns2:window-height="945" ns2:window-x="-9" ns2:window-y="40" ns2:window-maximized="1" ns2:current-layer="svg3"/>
  <path style="-inkscape-stroke:none;paint-order:stroke markers fill" stroke-linejoin="round" stroke-linecap="round" fill-rule="evenodd" fill="#7d97b4" color="#000000" d="m19 2c-9.31184 0-17 7.09393-17 16 0 8.90606 7.68816 16 17 16h154c9.31184 0 17-7.09394 17-16 0-8.90607-7.68816-16-17-16z" id="path1"/>
  <path style="-inkscape-stroke:none;paint-order:stroke markers fill" stroke-linejoin="round" stroke-linecap="round" fill-rule="evenodd" fill="#31476d" color="#000000" d="m19 4h154c8.31 0 15 6.244 15 14 0 7.75599-6.69 13.99999-15 13.99999h-154c-8.31 0-15-6.244-15-13.99999 0-7.756 6.69-14 15-14z" id="path2"/>
  <path d="M 0.0 0.0 L 192.0 0.0 L 192.0 36.0 L 0.0 36.0 Z" style="paint-order:stroke markers fill" fill="none" id="rect1" data-original-element="rect"/>
  <path d="M 35.97 12.87 L 45.91 12.87 L 45.91 22.73 Q 45.91 23.28 45.61 23.88 Q 45.61 23.88 45.26 24.04 Q 44.89 24.19 43.67 24.25 Q 43.67 24.25 42.72 24.24 Q 42.69 24.00 42.44 23.28 Q 42.44 23.28 42.31 23.04 Q 42.74 23.05 43.56 23.07 Q 43.56 23.07 44.19 23.05 Q 44.19 23.05 44.32 23.05 Q 44.51 23.05 44.65 22.91 Q 44.65 22.91 44.65 22.72 L 44.65 20.31 L 41.40 20.31 L 41.40 24.18 L 40.13 24.18 L 40.13 20.31 L 37.04 20.31 Q 36.99 20.73 36.89 21.15 Q 36.71 22.07 35.97 23.73 Q 35.97 23.73 35.36 24.40 Q 35.27 24.27 34.90 23.95 Q 34.90 23.95 34.52 23.65 Q 34.52 23.65 34.37 23.57 Q 34.93 22.94 35.58 21.49 Q 35.58 21.49 35.88 19.93 Q 35.88 19.93 35.97 18.39 Q 35.97 18.39 35.97 17.68 Z M 41.40 19.12 L 44.65 19.12 L 44.65 17.13 L 41.40 17.13 Z M 44.65 15.96 L 44.65 14.06 L 41.40 14.06 L 41.40 15.96 Z M 37.22 17.13 L 37.22 17.68 Q 37.22 18.36 37.17 19.12 L 40.13 19.12 L 40.13 17.13 Z M 37.22 14.06 L 37.22 15.96 L 40.13 15.96 L 40.13 14.06 Z M 49.44 13.99 L 53.79 13.99 Q 53.68 13.64 53.51 13.20 Q 53.29 12.65 53.08 12.18 L 54.32 11.86 Q 54.56 12.32 55.00 13.39 Q 55.00 13.39 55.12 13.77 L 54.41 13.99 L 58.73 13.99 L 58.73 19.56 L 57.44 19.56 L 57.44 18.76 L 50.69 18.76 Q 50.61 19.74 50.41 20.72 Q 50.21 21.73 49.46 23.63 Q 49.46 23.63 48.84 24.41 Q 48.72 24.29 48.32 23.99 Q 48.32 23.99 47.89 23.71 Q 47.89 23.71 47.73 23.65 Q 48.32 22.92 49.01 21.21 Q 49.01 21.21 49.34 19.41 Q 49.34 19.41 49.44 17.69 Q 49.44 17.69 49.44 16.94 Z M 50.76 15.16 L 50.76 16.94 Q 50.76 17.25 50.74 17.59 L 57.44 17.59 L 57.44 15.16 Z M 65.63 14.46 L 67.84 14.46 L 67.84 12.04 L 69.04 12.04 L 69.04 14.46 L 71.84 14.46 L 71.84 14.57 Q 71.84 14.68 71.83 14.96 Q 71.83 14.96 71.83 15.05 Q 71.80 16.16 71.77 17.09 L 72.78 16.89 Q 72.96 17.51 73.35 18.92 Q 73.35 18.92 73.64 20.22 Q 73.64 20.22 73.71 20.71 L 72.59 20.99 Q 72.53 20.50 72.27 19.16 Q 72.27 19.16 72.09 18.45 Q 71.94 17.80 71.77 17.22 Q 71.75 18.08 71.72 18.77 Q 71.67 20.29 71.52 22.24 Q 71.52 22.24 71.29 23.30 Q 71.29 23.30 71.12 23.53 Q 70.91 23.85 70.43 24.09 Q 70.43 24.09 70.09 24.14 Q 69.77 24.19 68.78 24.19 Q 68.78 24.19 68.25 24.16 Q 68.24 23.89 68.04 23.20 Q 68.04 23.20 67.88 22.94 Q 68.43 23.00 69.33 23.01 Q 69.33 23.01 69.53 23.01 Q 69.72 23.01 69.94 22.92 Q 69.94 22.92 70.04 22.80 Q 70.17 22.64 70.36 21.64 Q 70.36 21.64 70.49 19.76 Q 70.49 19.76 70.55 18.29 Q 70.59 17.17 70.61 15.67 L 69.01 15.67 Q 68.99 16.30 68.93 16.99 Q 68.82 18.24 68.11 20.81 Q 68.11 20.81 66.62 23.26 Q 66.62 23.26 65.35 24.33 Q 65.26 24.20 64.90 23.86 Q 64.90 23.86 64.53 23.56 Q 64.53 23.56 64.38 23.48 Q 65.60 22.49 66.99 20.25 Q 66.99 20.25 67.65 17.89 Q 67.65 17.89 67.74 16.76 Q 67.80 16.20 67.81 15.67 L 65.63 15.67 Z M 61.25 15.08 L 62.67 15.08 L 62.67 11.94 L 63.88 11.94 L 63.88 15.08 L 65.24 15.08 L 65.24 16.24 L 63.88 16.24 L 63.88 24.31 L 62.67 24.31 L 62.67 16.24 L 61.25 16.24 Z M 65.67 16.86 L 66.79 17.08 Q 66.58 18.13 65.86 20.11 Q 65.86 20.11 65.39 20.78 Q 65.30 20.69 64.94 20.45 Q 64.94 20.45 64.57 20.21 Q 64.57 20.21 64.44 20.15 Q 64.88 19.53 65.50 17.79 Q 65.50 17.79 65.67 16.86 Z M 80.04 12.94 Q 80.46 15.46 81.29 17.52 Q 81.81 18.80 82.55 19.84 Q 82.79 19.48 83.00 19.10 Q 83.76 17.73 84.66 14.56 Q 84.66 14.56 84.93 12.81 L 86.21 13.01 Q 85.89 14.89 84.88 18.30 Q 84.88 18.30 84.05 19.77 Q 83.75 20.33 83.36 20.85 Q 83.45 20.95 83.53 21.04 Q 84.93 22.51 87.07 23.26 Q 86.92 23.40 86.58 23.78 Q 86.58 23.78 86.28 24.20 Q 86.28 24.20 86.19 24.37 Q 84.51 23.71 83.29 22.65 Q 82.88 22.29 82.51 21.89 Q 82.25 22.17 81.98 22.42 Q 80.72 23.61 78.90 24.44 Q 78.81 24.28 78.54 23.91 Q 78.54 23.91 78.28 23.53 Q 78.28 23.53 78.16 23.40 Q 79.88 22.66 81.05 21.57 Q 81.40 21.25 81.71 20.91 Q 81.45 20.56 81.23 20.17 Q 80.37 18.75 79.24 15.22 Q 79.24 15.22 78.87 13.13 Z M 76.42 24.03 Q 76.34 23.89 76.10 23.54 Q 76.10 23.54 75.82 23.22 Q 75.82 23.22 75.69 23.15 Q 75.89 22.97 76.33 22.24 Q 76.33 22.24 76.33 21.69 L 76.33 17.31 L 74.57 17.31 L 74.57 16.09 L 77.55 16.09 L 77.55 21.65 L 79.06 20.60 Q 79.13 20.85 79.37 21.48 Q 79.37 21.48 79.46 21.68 Q 78.54 22.33 77.41 23.16 Q 77.41 23.16 76.79 23.64 Q 76.79 23.64 76.49 23.91 Q 76.49 23.91 76.42 24.03 Z M 81.14 12.57 L 82.20 12.13 Q 82.48 12.59 82.98 13.61 Q 82.98 13.61 83.40 14.59 Q 83.40 14.59 83.49 14.97 L 82.35 15.46 Q 82.27 15.08 81.88 14.09 Q 81.88 14.09 81.40 13.02 Q 81.40 13.02 81.14 12.57 Z M 75.37 12.92 L 76.28 12.25 Q 76.58 12.57 77.23 13.32 Q 77.23 13.32 77.79 14.04 Q 77.79 14.04 77.95 14.32 L 76.99 15.09 Q 76.83 14.79 76.29 14.03 Q 76.29 14.03 75.67 13.25 Q 75.67 13.25 75.37 12.92 Z M 94.00 16.58 Q 94.43 16.58 95.12 17.01 Q 95.12 17.01 95.55 17.69 Q 95.55 17.69 95.55 18.13 Q 95.55 18.54 95.12 19.25 Q 95.12 19.25 94.44 19.68 Q 94.44 19.68 94.00 19.68 Q 93.59 19.68 92.88 19.25 Q 92.88 19.25 92.45 18.54 Q 92.45 18.54 92.45 18.13 Q 92.45 17.70 92.88 17.01 Q 92.88 17.01 93.59 16.58 Q 93.59 16.58 94.00 16.58 Z M 107.95 20.48 L 108.59 19.94 L 106.04 19.94 L 106.04 18.99 L 111.56 18.99 L 111.56 18.00 L 106.42 18.00 L 106.42 17.09 L 111.56 17.09 L 111.56 16.16 L 106.10 16.16 L 106.10 15.45 Q 106.05 15.40 106.00 15.35 Q 105.86 15.18 105.55 14.93 Q 105.55 14.93 105.41 14.85 Q 106.24 14.23 107.42 12.70 Q 107.42 12.70 107.78 12.05 L 108.93 12.27 Q 108.73 12.64 108.48 13.02 L 110.93 13.02 L 111.11 12.97 L 111.86 13.47 Q 111.62 13.86 110.99 14.74 Q 110.99 14.74 110.65 15.12 Q 110.61 15.17 110.58 15.21 L 112.74 15.21 L 112.74 19.94 L 108.88 19.94 Q 109.16 20.15 109.46 20.39 Q 109.84 20.69 110.55 21.28 Q 110.55 21.28 110.77 21.52 L 109.98 22.27 Q 109.76 22.01 109.06 21.38 Q 109.06 21.38 108.31 20.74 Q 108.31 20.74 107.95 20.48 Z M 101.70 12.52 L 104.71 12.52 L 104.89 12.46 L 105.72 12.94 Q 105.54 13.50 105.11 14.77 Q 105.11 14.77 104.66 16.00 Q 104.66 16.00 104.46 16.53 Q 105.13 17.33 105.56 18.72 Q 105.56 18.72 105.56 19.33 Q 105.56 19.90 105.31 20.73 Q 105.31 20.73 105.00 20.95 Q 104.85 21.05 104.49 21.17 Q 104.49 21.17 104.28 21.20 Q 103.90 21.24 103.39 21.23 Q 103.37 21.00 103.24 20.37 Q 103.24 20.37 103.11 20.15 Q 103.31 20.16 103.65 20.16 Q 103.65 20.16 103.80 20.16 Q 104.05 20.15 104.20 20.04 Q 104.33 19.93 104.44 19.48 Q 104.44 19.48 104.44 19.19 Q 104.44 18.68 104.01 17.40 Q 104.01 17.40 103.36 16.66 Q 103.53 16.21 103.85 15.17 Q 103.85 15.17 104.16 14.12 Q 104.16 14.12 104.29 13.67 Q 104.29 13.65 104.29 13.65 L 102.80 13.65 L 102.80 24.33 L 101.70 24.33 Z M 107.04 20.95 L 108.15 20.95 L 108.15 22.77 Q 108.15 23.00 108.36 23.13 Q 108.36 23.13 108.73 23.13 L 110.30 23.13 Q 110.49 23.13 110.69 22.98 Q 110.69 22.98 110.78 22.55 Q 110.78 22.55 110.82 22.10 Q 110.97 22.24 111.58 22.46 Q 111.58 22.46 111.83 22.52 Q 111.76 23.19 111.47 23.89 Q 111.47 23.89 110.89 24.18 Q 110.89 24.18 110.41 24.18 L 108.60 24.18 Q 107.97 24.18 107.29 23.93 Q 107.29 23.93 107.04 23.32 Q 107.04 23.32 107.04 22.79 Z M 111.17 21.12 L 112.14 20.74 Q 112.42 21.15 112.97 22.09 Q 112.97 22.09 113.41 23.00 Q 113.41 23.00 113.53 23.36 L 112.51 23.78 Q 112.40 23.41 111.97 22.48 Q 111.97 22.48 111.44 21.52 Q 111.44 21.52 111.17 21.12 Z M 106.68 15.21 L 109.28 15.21 Q 109.51 14.97 109.75 14.65 Q 110.02 14.32 110.26 13.96 L 107.81 13.96 Q 107.80 13.97 107.80 13.99 Q 107.29 14.62 106.68 15.21 Z M 105.77 20.88 L 106.75 21.28 Q 106.64 21.69 106.32 22.64 Q 106.32 22.64 105.93 23.56 Q 105.93 23.56 105.71 23.92 L 104.76 23.32 Q 104.98 23.00 105.36 22.16 Q 105.36 22.16 105.68 21.27 Q 105.68 21.27 105.77 20.88 Z M 114.74 15.69 L 117.00 15.69 L 117.00 13.95 Q 116.94 13.96 116.85 13.97 Q 115.92 14.12 115.04 14.24 Q 115.02 14.03 114.80 13.45 Q 114.80 13.45 114.69 13.25 Q 115.56 13.12 117.35 12.77 Q 117.35 12.77 118.99 12.33 Q 118.99 12.33 119.57 12.09 L 120.27 13.13 Q 119.56 13.39 118.67 13.60 Q 118.45 13.65 118.22 13.71 L 118.22 15.69 L 120.33 15.69 L 120.33 16.88 L 118.22 16.88 L 118.22 16.99 Q 118.35 17.09 118.53 17.28 Q 118.75 17.51 119.28 18.05 Q 119.28 18.05 119.79 18.60 Q 119.79 18.60 120.18 19.05 Q 120.18 19.05 120.28 19.16 L 119.53 20.20 Q 119.40 19.94 118.91 19.21 Q 118.91 19.21 118.62 18.81 Q 118.41 18.53 118.22 18.28 L 118.22 24.31 L 117.00 24.31 L 117.00 18.68 Q 116.81 19.10 116.58 19.52 Q 116.21 20.26 115.37 21.56 Q 115.37 21.56 114.94 22.03 Q 114.85 21.76 114.47 21.06 Q 114.47 21.06 114.31 20.82 Q 114.71 20.43 115.50 19.32 Q 115.50 19.32 116.27 18.07 Q 116.27 18.07 116.57 17.41 Q 116.70 17.13 116.80 16.88 L 114.74 16.88 Z M 123.50 17.88 L 124.66 17.46 Q 125.00 18.19 125.67 19.80 Q 125.67 19.80 126.28 21.41 Q 126.28 21.41 126.75 22.88 Q 126.75 22.88 126.88 23.47 L 125.60 23.99 Q 125.48 23.40 125.26 22.66 Q 125.24 22.60 125.22 22.55 Q 124.15 22.70 123.36 22.84 Q 122.35 23.01 121.06 23.22 Q 121.06 23.22 120.32 23.37 Q 120.32 23.37 119.93 23.50 Q 119.93 23.50 119.80 23.57 Q 119.77 23.44 119.62 22.98 Q 119.62 22.98 119.46 22.51 Q 119.46 22.51 119.37 22.32 Q 119.64 22.22 120.09 21.28 Q 120.09 21.28 120.37 20.49 Q 120.49 20.20 120.87 18.99 Q 120.87 18.99 121.33 17.33 Q 121.33 17.33 121.81 15.40 Q 121.81 15.40 122.25 13.32 Q 122.25 13.32 122.40 12.31 L 123.75 12.56 Q 123.50 13.91 122.89 16.65 Q 122.89 16.65 122.16 19.31 Q 122.16 19.31 121.77 20.52 Q 121.53 21.25 121.29 21.92 L 124.85 21.41 Q 124.80 21.25 124.75 21.09 Q 124.46 20.26 123.82 18.63 Q 123.82 18.63 123.50 17.88 Z M 127.97 12.81 L 134.10 12.81 L 134.10 14.03 L 131.96 14.03 L 131.96 16.71 L 133.65 16.71 L 133.65 17.12 Q 133.96 16.66 134.21 16.12 Q 134.62 15.21 135.26 13.07 Q 135.26 13.07 135.44 11.93 L 136.69 12.14 Q 136.47 13.30 136.15 14.41 L 140.18 14.41 L 140.18 15.57 L 139.31 15.57 Q 138.99 17.63 138.41 19.23 Q 138.08 20.13 137.63 20.92 Q 137.83 21.20 138.02 21.45 Q 138.96 22.61 140.31 23.24 Q 140.17 23.36 139.83 23.75 Q 139.83 23.75 139.53 24.14 Q 139.53 24.14 139.44 24.32 Q 138.01 23.56 137.05 22.29 Q 136.96 22.17 136.86 22.04 Q 136.80 22.13 136.72 22.22 Q 135.65 23.48 133.97 24.36 Q 133.92 24.20 133.67 23.78 Q 133.67 23.78 133.37 23.37 Q 133.37 23.37 133.25 23.24 Q 134.80 22.52 135.77 21.40 Q 135.99 21.16 136.17 20.91 Q 135.77 20.16 135.48 19.32 Q 135.16 18.45 134.92 17.49 Q 134.59 18.09 134.21 18.57 Q 134.12 18.45 133.76 18.13 Q 133.76 18.13 133.56 17.97 Q 133.52 17.93 133.47 17.89 L 131.96 17.89 L 131.96 21.00 Q 133.04 20.77 134.09 20.54 L 134.20 21.69 Q 133.09 21.94 130.86 22.46 Q 130.86 22.46 128.77 22.93 Q 128.77 22.93 127.93 23.13 L 127.70 21.86 Q 128.06 21.80 128.47 21.72 L 128.47 15.87 L 129.60 15.87 L 129.60 21.49 Q 130.15 21.38 130.73 21.27 L 130.73 14.03 L 127.97 14.03 Z M 135.77 15.57 Q 135.73 15.68 135.69 15.78 Q 136.00 17.36 136.52 18.75 Q 136.69 19.23 136.90 19.66 Q 137.13 19.20 137.31 18.69 Q 137.79 17.32 138.04 15.57 Z M 141.55 15.77 L 146.76 15.77 L 146.76 15.13 Q 146.73 15.11 146.69 15.08 Q 146.49 14.94 146.33 14.87 Q 146.73 14.55 147.09 14.12 L 145.04 14.12 Q 145.12 14.27 145.20 14.40 Q 145.45 14.89 145.58 15.24 L 144.47 15.65 Q 144.37 15.29 144.13 14.80 Q 143.96 14.44 143.77 14.12 L 143.31 14.12 Q 142.72 14.98 142.11 15.59 Q 142.00 15.48 141.61 15.21 Q 141.61 15.21 141.21 14.97 Q 141.21 14.97 141.05 14.89 Q 141.71 14.33 142.81 12.72 Q 142.81 12.72 143.15 11.88 L 144.34 12.20 Q 144.16 12.64 143.93 13.07 L 147.14 13.07 L 147.14 14.06 Q 147.35 13.81 147.55 13.53 Q 148.09 12.74 148.40 11.88 L 149.62 12.17 Q 149.47 12.63 149.25 13.07 L 153.29 13.07 L 153.29 14.12 L 150.78 14.12 Q 150.87 14.24 150.93 14.36 Q 151.23 14.85 151.36 15.22 L 150.24 15.60 Q 150.12 15.22 149.84 14.74 Q 149.66 14.41 149.48 14.12 L 148.63 14.12 Q 148.31 14.60 147.97 14.98 L 148.11 14.98 L 148.11 15.77 L 153.11 15.77 L 153.11 16.86 L 148.11 16.86 L 148.11 17.74 L 152.39 17.74 L 152.39 20.13 Q 152.39 20.54 152.17 20.99 Q 152.17 20.99 151.85 21.12 Q 151.56 21.24 150.71 21.29 Q 150.71 21.29 150.12 21.29 Q 150.07 21.04 149.81 20.50 Q 149.81 20.50 149.71 20.31 Q 150.08 20.32 150.77 20.32 Q 150.77 20.32 150.89 20.32 Q 151.00 20.32 151.10 20.24 Q 151.10 20.24 151.10 20.13 L 151.10 18.82 L 148.11 18.82 L 148.11 20.04 Q 148.53 20.48 149.16 20.91 Q 150.04 21.51 152.32 22.49 Q 152.32 22.49 153.63 22.74 Q 153.49 22.88 153.20 23.28 Q 153.20 23.28 152.92 23.68 Q 152.92 23.68 152.83 23.85 Q 151.55 23.52 149.32 22.36 Q 149.32 22.36 148.48 21.68 Q 148.28 21.52 148.11 21.37 L 148.11 24.32 L 146.76 24.32 L 146.76 21.33 Q 146.53 21.54 146.29 21.75 Q 145.37 22.49 143.17 23.60 Q 143.17 23.60 142.00 23.92 Q 141.92 23.76 141.66 23.37 Q 141.66 23.37 141.34 23.00 Q 141.34 23.00 141.21 22.87 Q 142.36 22.61 144.55 21.69 Q 144.55 21.69 145.44 21.08 Q 146.23 20.52 146.76 19.89 L 146.76 18.82 L 143.78 18.82 L 143.78 21.30 L 142.45 21.30 L 142.45 17.74 L 146.76 17.74 L 146.76 16.86 L 141.55 16.86 Z" xml:space="preserve" style="font-weight:613;font-size:13.3333px;line-height:1.2;font-family:'Dream Han Sans SC';-inkscape-font-specification:'Dream Han Sans SC weight=613';text-align:start;writing-mode:lr-tb;direction:ltr;text-anchor:start;fill:#ffffff;fill-opacity:0.984314" id="text3" data-original-text="用户协议・隐私政策" data-original-element="text"/>
</svg>