<?xml version="1.0" ?>
<svg xmlns="http://www.w3.org/2000/svg" xmlns:ns1="http://sodipodi.sourceforge.net/DTD/sodipodi-0.dtd" xmlns:ns2="http://www.inkscape.org/namespaces/inkscape" version="1.1" width="180" height="100" viewBox="0,0,180,100" id="svg6" ns1:docname="0611aac0b180736c6fa7a69bac4393b4.svg" ns2:version="1.4.2 (f4327f4, 2025-05-13)">
  <defs id="defs6"/>
  <ns1:namedview id="namedview6" pagecolor="#505050" bordercolor="#eeeeee" borderopacity="1" ns2:showpageshadow="0" ns2:pageopacity="0" ns2:pagecheckerboard="0" ns2:deskcolor="#505050" ns2:zoom="7.31" ns2:cx="89.94528" ns2:cy="50" ns2:window-width="1920" ns2:window-height="945" ns2:window-x="-9" ns2:window-y="40" ns2:window-maximized="1" ns2:current-layer="svg6"/>
  <g transform="translate(-150,-130)" id="g6">
    <g data-paper-data="{&quot;isPaintingLayer&quot;:true}" fill-rule="nonzero" stroke-linecap="butt" stroke-linejoin="miter" stroke-miterlimit="10" stroke-dasharray="" stroke-dashoffset="0" style="mix-blend-mode: normal" id="g5">
      <path d="M150,230v-100h180v100z" fill="none" stroke="#959196" stroke-width="0" id="path5"/>
    </g>
  </g>
  <path d="M 38.30 32.97 L 55.18 32.97 Q 54.71 35.12 53.47 39.90 Q 53.47 39.90 52.87 42.10 Q 52.76 42.52 52.65 42.89 L 56.07 42.89 L 56.71 42.78 L 58.84 43.64 Q 57.75 49.09 55.67 53.32 Q 54.47 55.70 53.05 57.67 Q 53.21 57.78 53.36 57.95 Q 56.38 60.73 60.23 62.27 Q 59.85 62.61 58.95 63.61 Q 58.95 63.61 58.13 64.69 Q 58.13 64.69 57.88 65.15 Q 53.90 63.36 50.86 60.37 Q 50.77 60.44 50.70 60.52 Q 47.87 63.47 44.46 65.29 Q 44.24 64.89 43.39 63.83 Q 43.39 63.83 42.42 62.87 Q 42.42 62.87 42.00 62.65 Q 45.32 61.01 48.02 58.35 Q 48.31 58.09 48.58 57.82 Q 46.85 55.70 45.48 53.21 Q 44.73 51.86 44.06 50.44 Q 43.88 51.51 43.60 52.57 Q 42.75 56.41 39.79 62.79 Q 39.79 62.79 37.55 65.29 Q 37.30 65.00 36.22 64.25 Q 36.22 64.25 35.06 63.47 Q 35.06 63.47 34.65 63.23 Q 37.61 60.30 40.78 51.71 Q 40.78 51.71 41.44 46.26 Q 42.04 41.59 42.27 36.22 L 38.30 36.22 Z M 26.07 37.71 L 30.77 37.71 L 30.77 30.60 L 33.98 30.60 L 33.98 37.71 L 37.83 37.71 L 37.83 40.99 L 33.98 40.99 L 33.98 41.85 Q 34.31 42.21 34.87 43.03 Q 35.51 44.02 36.97 46.30 Q 36.97 46.30 38.19 48.19 Q 38.19 48.19 38.46 48.65 L 36.37 51.07 Q 36.08 50.33 34.98 48.08 Q 34.98 48.08 34.38 46.88 Q 34.20 46.52 33.98 46.13 L 33.98 65.22 L 30.77 65.22 L 30.77 48.76 Q 30.53 49.51 30.28 50.22 Q 29.50 52.57 27.67 56.60 Q 27.67 56.60 26.71 58.02 Q 26.51 57.53 25.90 56.21 Q 25.90 56.21 25.21 54.99 Q 25.21 54.99 24.94 54.54 Q 25.87 53.32 27.64 49.91 Q 27.64 49.91 29.20 45.99 Q 29.20 45.99 29.79 43.95 Q 30.24 42.41 30.57 40.99 L 26.07 40.99 Z M 45.59 36.22 Q 45.37 40.39 44.99 44.16 Q 46.19 48.01 48.16 51.40 Q 49.33 53.42 50.73 55.17 Q 51.79 53.72 52.65 52.04 Q 54.07 49.27 54.92 45.99 L 48.38 45.99 Q 48.98 44.27 50.19 39.79 Q 50.19 39.79 50.77 37.40 Q 50.90 36.80 51.04 36.22 Z M 73.17 39.75 L 80.04 38.93 Q 79.75 34.90 79.72 30.69 L 83.36 30.69 Q 83.33 34.72 83.60 38.53 L 94.87 37.18 L 95.32 40.35 L 83.89 41.74 Q 84.15 44.06 84.49 46.19 L 96.32 44.60 L 96.85 47.79 L 85.09 49.40 Q 85.84 52.68 86.81 55.25 Q 87.52 54.77 88.19 54.28 Q 91.51 51.82 93.72 48.83 L 96.71 50.40 Q 94.26 53.72 90.80 56.41 Q 89.52 57.38 88.19 58.27 Q 88.78 59.35 89.45 60.13 Q 90.87 61.76 92.44 61.76 Q 93.30 61.76 94.12 58.84 Q 94.12 58.84 94.34 55.32 Q 94.90 55.92 96.58 56.96 Q 96.58 56.96 97.29 57.23 Q 96.96 60.41 95.79 63.91 Q 95.79 63.91 93.83 65.29 Q 93.83 65.29 92.26 65.29 Q 90.05 65.29 86.53 62.69 Q 86.53 62.69 85.17 60.30 Q 85.13 60.22 85.06 60.13 Q 84.15 60.66 83.18 61.12 Q 79.04 63.12 74.48 64.51 Q 74.16 63.80 72.99 62.05 Q 72.99 62.05 72.35 61.45 Q 76.76 60.33 80.79 58.49 Q 82.25 57.87 83.64 57.13 Q 83.14 56.00 82.74 54.68 Q 82.03 52.46 81.50 49.87 L 73.03 51.04 L 72.53 47.76 L 80.90 46.63 Q 80.57 44.46 80.34 42.18 L 73.63 43.00 Z M 63.44 62.69 Q 64.29 61.19 66.39 57.16 Q 66.39 57.16 68.47 52.60 Q 68.47 52.60 69.36 50.44 L 72.17 52.46 Q 71.35 54.46 69.44 58.77 Q 69.44 58.77 67.50 62.90 Q 67.50 62.90 66.57 64.73 Z M 62.54 43.45 L 64.55 41.03 Q 65.68 41.56 68.18 42.92 Q 68.18 42.92 70.38 44.38 Q 70.38 44.38 71.09 45.02 L 69.00 47.70 Q 68.32 47.04 66.15 45.51 Q 66.15 45.51 63.69 44.02 Q 63.69 44.02 62.54 43.45 Z M 64.66 33.26 L 66.65 30.95 Q 67.76 31.48 70.22 32.92 Q 70.22 32.92 72.39 34.45 Q 72.39 34.45 73.06 35.12 L 70.97 37.75 Q 70.31 37.04 68.21 35.47 Q 68.21 35.47 65.79 33.87 Q 65.79 33.87 64.66 33.26 Z M 85.20 33.04 L 87.25 30.95 Q 88.19 31.55 90.27 32.97 Q 90.27 32.97 92.19 34.41 Q 92.19 34.41 92.82 35.01 L 90.65 37.33 Q 90.09 36.73 88.23 35.20 Q 88.23 35.20 86.17 33.66 Q 86.17 33.66 85.20 33.04 Z" xml:space="preserve" style="font-weight:613;font-size:37.3333px;line-height:1.2;font-family:'Dream Han Sans SC';-inkscape-font-specification:'Dream Han Sans SC weight=613';text-align:start;writing-mode:lr-tb;direction:ltr;text-anchor:start;fill:#ff0000;fill-opacity:1" id="text6" data-original-text="极浅" data-original-element="text"/>
</svg>