<?xml version="1.0" ?>
<svg xmlns="http://www.w3.org/2000/svg" xmlns:ns1="http://sodipodi.sourceforge.net/DTD/sodipodi-0.dtd" xmlns:ns2="http://www.inkscape.org/namespaces/inkscape" version="1.1" width="168.1" height="32.667" viewBox="0,0,168.1,32.667" id="svg35" ns1:docname="0965d52731c9965976280e213862062a.svg" ns2:version="1.4.2 (f4327f4, 2025-05-13)">
  <defs id="defs35"/>
  <ns1:namedview id="namedview35" pagecolor="#505050" bordercolor="#eeeeee" borderopacity="1" ns2:showpageshadow="0" ns2:pageopacity="0" ns2:pagecheckerboard="0" ns2:deskcolor="#505050" ns2:zoom="7.4580623" ns2:cx="81.589557" ns2:cy="16.827427" ns2:window-width="1920" ns2:window-height="945" ns2:window-x="-9" ns2:window-y="40" ns2:window-maximized="1" ns2:current-layer="g34"/>
  <g transform="translate(-240,-180)" id="g35">
    <g data-paper-data="{&quot;isPaintingLayer&quot;:true}" stroke="none" stroke-linecap="butt" stroke-linejoin="miter" stroke-miterlimit="10" stroke-dasharray="" stroke-dashoffset="0" style="mix-blend-mode: normal" id="g34">
      <path d="M248,180h152.1c4.432,0 8,3.568 8,8v16.667c0,4.432 -3.568,8 -8,8h-152.1c-4.432,0 -8,-3.568 -8,-8v-16.667c0,-4.432 3.568,-8 8,-8z" fill-opacity="0.7" fill="#000000" fill-rule="evenodd" stroke-width="0" id="path1"/>
    </g>
  </g>
  <path d="M 8.58 7.09 L 9.31 7.09 L 9.31 14.52 L 8.58 14.52 L 8.58 11.81 Q 8.41 11.96 8.25 12.11 Q 7.85 12.47 7.50 12.77 L 7.11 12.13 Q 7.41 11.89 7.85 11.53 Q 8.21 11.23 8.58 10.91 L 8.58 9.57 L 8.16 9.91 Q 8.07 9.73 7.72 9.27 Q 7.72 9.27 7.32 8.79 Q 7.32 8.79 7.12 8.59 L 7.64 8.18 Q 7.84 8.37 8.25 8.83 Q 8.25 8.83 8.44 9.05 Q 8.52 9.15 8.58 9.23 Z M 11.77 7.08 L 12.53 7.30 Q 12.37 7.52 12.17 7.72 L 13.75 7.72 L 13.87 7.70 L 14.37 7.96 Q 14.09 8.57 13.17 9.54 Q 13.17 9.54 12.03 10.25 Q 12.03 10.25 10.72 10.75 Q 10.72 10.75 10.03 10.90 Q 9.98 10.77 9.77 10.41 Q 9.77 10.41 9.67 10.31 Q 10.29 10.19 10.90 9.97 Q 11.20 9.87 11.48 9.73 Q 11.39 9.61 11.27 9.46 Q 11.04 9.21 10.82 9.03 L 11.37 8.70 Q 11.61 8.88 11.84 9.12 Q 11.99 9.28 12.09 9.41 Q 12.58 9.13 12.96 8.74 Q 13.16 8.55 13.32 8.33 L 11.52 8.33 Q 11.28 8.52 11.01 8.70 Q 10.56 9.00 10.10 9.23 Q 10.04 9.16 9.87 8.97 Q 9.87 8.97 9.68 8.79 Q 9.68 8.79 9.61 8.73 Q 10.05 8.55 10.87 8.01 Q 10.87 8.01 11.55 7.40 Q 11.55 7.40 11.77 7.08 Z M 9.64 10.99 L 12.79 10.99 L 12.79 10.09 L 13.54 10.09 L 13.54 10.99 L 14.47 10.99 L 14.47 11.69 L 13.54 11.69 L 13.54 13.67 Q 13.54 13.97 13.39 14.30 Q 13.39 14.30 13.16 14.38 Q 12.96 14.47 12.29 14.50 Q 12.29 14.50 11.81 14.50 Q 11.80 14.36 11.66 13.94 Q 11.66 13.94 11.58 13.80 Q 11.93 13.81 12.52 13.81 Q 12.52 13.81 12.63 13.81 Q 12.72 13.81 12.79 13.74 Q 12.79 13.74 12.79 13.66 L 12.79 11.69 L 9.64 11.69 Z M 10.15 12.14 L 10.77 11.81 Q 10.96 12.02 11.36 12.52 Q 11.36 12.52 11.71 13.00 Q 11.71 13.00 11.80 13.20 L 11.14 13.57 Q 11.06 13.37 10.74 12.87 Q 10.74 12.87 10.34 12.36 Q 10.34 12.36 10.15 12.14 Z M 15.18 8.58 L 16.18 8.58 L 16.18 7.09 L 16.87 7.09 L 16.87 8.58 L 17.62 8.58 L 17.62 9.28 L 16.87 9.28 L 16.87 9.58 Q 16.93 9.67 17.03 9.83 Q 17.17 10.03 17.48 10.50 Q 17.48 10.50 17.73 10.90 Q 17.73 10.90 17.78 10.99 L 17.33 11.51 Q 17.28 11.35 17.05 10.88 Q 17.05 10.88 16.93 10.64 Q 16.90 10.58 16.87 10.52 L 16.87 14.51 L 16.18 14.51 L 16.18 11.00 Q 16.16 11.09 16.12 11.19 Q 15.97 11.67 15.62 12.51 Q 15.62 12.51 15.43 12.81 Q 15.39 12.69 15.27 12.42 Q 15.27 12.42 15.13 12.16 Q 15.13 12.16 15.07 12.06 Q 15.24 11.81 15.57 11.10 Q 15.57 11.10 15.87 10.29 Q 15.87 10.29 15.98 9.87 Q 16.06 9.56 16.12 9.28 L 15.18 9.28 Z M 19.77 7.02 L 20.42 7.26 Q 20.35 7.41 20.26 7.56 Q 20.41 7.75 20.60 7.94 Q 20.88 8.24 21.55 8.84 Q 21.55 8.84 22.28 9.34 Q 22.28 9.34 22.61 9.52 Q 22.54 9.61 22.39 9.87 Q 22.39 9.87 22.28 10.13 Q 22.28 10.13 22.23 10.23 Q 21.80 9.95 21.33 9.56 L 21.33 10.20 L 18.56 10.20 L 18.56 9.64 Q 18.14 10.04 17.71 10.34 Q 17.66 10.26 17.51 10.03 Q 17.51 10.03 17.33 9.79 Q 17.33 9.79 17.27 9.72 Q 17.77 9.41 18.70 8.56 Q 18.70 8.56 19.49 7.56 Q 19.49 7.56 19.77 7.02 Z M 21.50 10.72 L 22.16 10.88 Q 21.97 11.36 21.52 12.42 Q 21.52 12.42 21.28 12.91 Q 21.13 13.23 20.99 13.49 L 22.34 13.49 L 22.34 14.16 L 17.58 14.16 L 17.58 13.49 L 20.35 13.49 Q 20.48 13.25 20.62 12.96 Q 20.79 12.61 21.12 11.82 Q 21.12 11.82 21.40 11.05 Q 21.40 11.05 21.50 10.72 Z M 21.32 9.56 Q 21.29 9.53 21.26 9.51 Q 20.76 9.08 20.32 8.61 Q 20.09 8.37 19.89 8.14 Q 19.78 8.29 19.67 8.44 Q 19.23 9.01 18.73 9.49 Q 18.69 9.52 18.66 9.56 Z M 17.99 11.03 L 18.57 10.88 Q 18.68 11.18 18.88 11.87 Q 18.88 11.87 19.05 12.53 Q 19.05 12.53 19.09 12.79 L 18.47 12.96 Q 18.44 12.69 18.28 12.04 Q 18.28 12.04 18.09 11.33 Q 18.09 11.33 17.99 11.03 Z M 19.52 10.81 L 20.12 10.72 Q 20.19 11.02 20.33 11.71 Q 20.33 11.71 20.44 12.36 Q 20.44 12.36 20.46 12.62 L 19.84 12.72 Q 19.82 12.46 19.73 11.80 Q 19.73 11.80 19.60 11.10 Q 19.60 11.10 19.52 10.81 Z M 26.71 13.16 L 27.17 12.88 Q 27.36 13.07 27.78 13.52 Q 27.78 13.52 28.14 13.97 Q 28.14 13.97 28.24 14.14 L 27.76 14.46 Q 27.66 14.29 27.31 13.83 Q 27.31 13.83 26.90 13.35 Q 26.90 13.35 26.71 13.16 Z M 25.30 7.54 L 28.07 7.54 L 28.07 12.63 L 27.47 12.63 L 27.47 8.09 L 25.87 8.09 L 25.87 12.66 L 25.30 12.66 Z M 29.69 7.20 L 30.30 7.20 L 30.30 13.70 Q 30.30 13.98 30.16 14.29 Q 30.16 14.29 30.00 14.36 Q 29.83 14.45 29.26 14.49 Q 29.26 14.49 28.83 14.49 Q 28.81 14.36 28.69 14.00 Q 28.69 14.00 28.63 13.86 Q 28.94 13.87 29.44 13.87 Q 29.44 13.87 29.53 13.87 Q 29.69 13.87 29.69 13.71 Z M 28.60 7.82 L 29.18 7.82 L 29.18 12.67 L 28.60 12.67 Z M 26.36 8.61 L 26.93 8.61 L 26.93 11.55 Q 26.93 11.95 26.80 12.77 Q 26.80 12.77 26.46 13.56 Q 26.46 13.56 25.80 14.24 Q 25.80 14.24 25.26 14.51 Q 25.23 14.45 25.10 14.27 Q 25.10 14.27 24.96 14.09 Q 24.96 14.09 24.92 14.04 Q 25.40 13.81 25.98 13.23 Q 25.98 13.23 26.27 12.58 Q 26.27 12.58 26.36 11.89 Q 26.36 11.89 26.36 11.54 Z M 23.43 7.72 L 23.87 7.17 Q 24.09 7.28 24.59 7.56 Q 24.59 7.56 25.05 7.85 Q 25.05 7.85 25.19 7.98 L 24.73 8.59 Q 24.60 8.46 24.15 8.15 Q 24.15 8.15 23.65 7.84 Q 23.65 7.84 23.43 7.72 Z M 23.09 9.86 L 23.52 9.32 Q 23.75 9.43 24.24 9.70 Q 24.24 9.70 24.71 9.98 Q 24.71 9.98 24.86 10.10 L 24.41 10.70 Q 24.27 10.58 23.81 10.29 Q 23.81 10.29 23.32 9.98 Q 23.32 9.98 23.09 9.86 Z M 23.24 14.03 Q 23.40 13.72 23.77 12.87 Q 23.77 12.87 24.16 11.91 Q 24.16 11.91 24.32 11.46 L 24.93 11.86 Q 24.78 12.28 24.44 13.17 Q 24.44 13.17 24.10 14.04 Q 24.10 14.04 23.93 14.42 Z M 31.36 7.60 L 35.51 7.60 L 35.51 8.25 L 33.35 8.25 Q 33.23 8.50 33.07 8.75 Q 32.87 9.11 32.65 9.43 Q 32.59 9.51 32.53 9.60 L 34.31 9.46 Q 34.27 9.39 34.22 9.32 Q 34.00 9.00 33.78 8.72 L 34.32 8.39 Q 34.54 8.66 35.00 9.29 Q 35.00 9.29 35.39 9.88 Q 35.39 9.88 35.50 10.12 L 34.93 10.50 Q 34.84 10.30 34.68 10.04 Q 34.10 10.10 33.67 10.14 Q 33.12 10.19 32.44 10.26 Q 32.44 10.26 32.04 10.31 Q 32.04 10.31 31.84 10.36 Q 31.84 10.36 31.77 10.38 Q 31.76 10.31 31.67 10.05 Q 31.67 10.05 31.58 9.78 Q 31.58 9.78 31.53 9.69 Q 31.62 9.67 31.81 9.48 Q 31.81 9.48 31.92 9.34 Q 31.98 9.24 32.28 8.77 Q 32.28 8.77 32.44 8.44 Q 32.48 8.35 32.52 8.25 L 31.36 8.25 Z M 31.56 11.25 L 33.09 11.25 L 33.09 10.46 L 33.80 10.46 L 33.80 11.25 L 35.34 11.25 L 35.34 11.91 L 33.80 11.91 L 33.80 13.03 Q 33.86 13.02 33.92 13.01 Q 34.67 12.88 35.42 12.74 L 35.47 13.40 Q 34.76 13.53 33.32 13.81 Q 33.32 13.81 32.00 14.06 Q 32.00 14.06 31.45 14.16 L 31.28 13.45 Q 31.80 13.37 32.48 13.26 Q 32.78 13.21 33.09 13.16 L 33.09 11.91 L 31.56 11.91 Z M 37.45 7.20 L 38.19 7.20 L 38.19 13.47 Q 38.19 13.79 38.03 14.13 Q 38.03 14.13 37.84 14.23 Q 37.63 14.31 36.97 14.36 Q 36.97 14.36 36.52 14.36 Q 36.49 14.21 36.33 13.78 Q 36.33 13.78 36.25 13.63 Q 36.59 13.64 37.17 13.64 Q 37.17 13.64 37.28 13.64 Q 37.38 13.64 37.45 13.56 Q 37.45 13.56 37.45 13.46 Z M 35.89 7.81 L 36.60 7.81 L 36.60 12.66 L 35.89 12.66 Z M 41.93 8.58 L 42.50 8.36 Q 42.64 8.58 42.92 9.10 Q 42.92 9.10 42.97 9.29 L 42.56 9.45 L 43.16 9.61 Q 43.11 9.73 43.04 9.86 L 46.20 9.86 L 46.20 10.48 L 44.35 10.48 L 44.35 11.35 L 46.48 11.35 L 46.48 11.98 L 44.35 11.98 L 44.35 13.52 L 45.44 13.52 L 45.44 12.29 L 46.13 12.29 L 46.13 14.53 L 45.44 14.53 L 45.44 14.15 L 41.80 14.15 L 41.80 12.34 L 42.49 12.34 L 42.49 13.52 L 43.63 13.52 L 43.63 11.98 L 41.52 11.98 L 41.52 11.35 L 43.63 11.35 L 43.63 10.48 L 42.67 10.48 Q 42.38 10.89 42.06 11.16 Q 42.00 11.11 41.81 10.95 Q 41.81 10.95 41.61 10.80 Q 41.61 10.80 41.52 10.75 Q 41.84 10.51 42.10 10.16 Q 42.34 9.84 42.48 9.48 L 42.38 9.53 Q 42.32 9.33 42.07 8.80 Q 42.07 8.80 41.93 8.58 Z M 39.07 11.26 Q 39.51 11.16 40.12 10.98 L 40.12 9.36 L 39.19 9.36 L 39.19 8.66 L 40.12 8.66 L 40.12 7.10 L 40.81 7.10 L 40.81 8.66 L 41.53 8.66 L 41.53 9.36 L 40.81 9.36 L 40.81 10.78 Q 41.12 10.68 41.44 10.59 L 41.53 11.28 Q 41.17 11.39 40.81 11.51 L 40.81 13.61 Q 40.81 13.89 40.68 14.20 Q 40.68 14.20 40.52 14.30 Q 40.36 14.39 39.85 14.45 Q 39.85 14.45 39.47 14.44 Q 39.45 14.30 39.34 13.89 Q 39.34 13.89 39.27 13.74 Q 39.51 13.75 39.91 13.75 Q 39.91 13.75 39.98 13.75 Q 40.05 13.75 40.12 13.68 Q 40.12 13.68 40.12 13.61 L 40.12 11.72 Q 39.65 11.87 39.25 11.99 Z M 45.78 7.16 L 46.21 7.75 Q 45.77 7.85 44.70 8.03 Q 44.70 8.03 43.53 8.16 Q 43.53 8.16 42.36 8.25 Q 42.36 8.25 41.80 8.28 Q 41.79 8.16 41.68 7.81 Q 41.68 7.81 41.62 7.69 Q 42.16 7.66 43.32 7.56 Q 43.32 7.56 44.42 7.43 Q 44.42 7.43 45.40 7.26 Q 45.40 7.26 45.78 7.16 Z M 45.47 8.10 L 46.15 8.36 Q 45.96 8.74 45.55 9.52 Q 45.55 9.52 45.37 9.79 L 44.84 9.56 Q 44.96 9.36 45.19 8.84 Q 45.19 8.84 45.40 8.32 Q 45.40 8.32 45.47 8.10 Z M 43.43 8.41 L 43.99 8.22 Q 44.12 8.48 44.36 9.07 Q 44.36 9.07 44.40 9.29 L 43.80 9.51 Q 43.77 9.29 43.55 8.68 Q 43.55 8.68 43.43 8.41 Z M 48.09 10.49 L 48.71 10.23 Q 48.96 10.48 49.39 11.12 Q 49.39 11.12 49.50 11.36 L 49.07 11.54 L 50.42 11.54 L 50.42 10.20 L 47.93 10.20 L 47.93 7.35 L 53.72 7.35 L 53.72 10.20 L 53.00 10.20 L 53.63 10.49 Q 53.40 10.81 53.16 11.12 Q 52.96 11.36 52.80 11.54 L 54.36 11.54 L 54.36 12.22 L 52.07 12.22 L 52.07 13.53 Q 52.07 13.68 52.21 13.77 Q 52.21 13.77 52.46 13.77 L 53.49 13.77 Q 53.64 13.77 53.78 13.66 Q 53.78 13.66 53.84 13.30 Q 53.84 13.30 53.85 12.95 Q 53.93 13.00 54.17 13.12 Q 54.17 13.12 54.44 13.20 Q 54.44 13.20 54.54 13.23 Q 54.49 13.72 54.29 14.24 Q 54.29 14.24 53.90 14.45 Q 53.90 14.45 53.56 14.45 L 52.36 14.45 Q 51.94 14.45 51.48 14.29 Q 51.48 14.29 51.31 13.88 Q 51.31 13.88 51.31 13.54 L 51.31 12.22 L 50.16 12.22 Q 50.09 12.64 49.96 12.98 Q 49.80 13.36 49.21 13.95 Q 49.21 13.95 48.24 14.38 Q 48.24 14.38 47.50 14.52 Q 47.47 14.43 47.33 14.19 Q 47.33 14.19 47.17 13.96 Q 47.17 13.96 47.10 13.88 Q 47.76 13.77 48.61 13.46 Q 48.61 13.46 49.09 13.04 Q 49.09 13.04 49.22 12.77 Q 49.33 12.52 49.39 12.22 L 47.32 12.22 L 47.32 11.54 L 48.77 11.54 Q 48.68 11.33 48.52 11.07 Q 48.31 10.75 48.09 10.49 Z M 48.66 9.04 L 48.66 9.63 L 52.96 9.63 L 52.96 9.04 Z M 48.66 7.92 L 48.66 8.50 L 52.96 8.50 L 52.96 7.92 Z M 52.44 11.54 L 52.09 11.37 Q 52.23 11.21 52.55 10.80 Q 52.55 10.80 52.69 10.57 Q 52.83 10.37 52.93 10.20 L 51.18 10.20 L 51.18 11.54 Z M 55.48 8.38 L 56.38 8.38 Q 56.43 8.23 56.47 8.06 Q 56.53 7.81 56.64 7.29 Q 56.64 7.29 56.66 7.07 L 57.48 7.21 Q 57.36 7.60 57.21 7.99 Q 57.13 8.20 57.07 8.38 L 58.36 8.38 L 58.36 9.91 Q 58.61 9.57 58.84 9.14 Q 59.07 8.68 59.44 7.61 Q 59.44 7.61 59.57 7.07 L 60.30 7.24 Q 60.16 7.80 59.96 8.34 L 62.31 8.34 L 62.31 8.56 Q 62.31 8.65 62.31 8.70 Q 62.26 10.07 62.17 11.97 Q 62.17 11.97 62.05 13.18 Q 62.05 13.18 61.88 13.85 Q 61.88 13.85 61.77 14.00 Q 61.61 14.20 61.29 14.36 Q 61.29 14.36 61.06 14.39 Q 60.85 14.41 60.19 14.40 Q 60.19 14.40 59.84 14.39 Q 59.84 14.23 59.70 13.81 Q 59.70 13.81 59.59 13.66 Q 59.98 13.69 60.64 13.71 Q 60.64 13.71 60.79 13.71 Q 60.91 13.71 61.06 13.65 Q 61.06 13.65 61.13 13.57 Q 61.23 13.46 61.38 12.81 Q 61.38 12.81 61.48 11.62 Q 61.48 11.62 61.52 10.70 Q 61.56 9.98 61.59 9.04 L 59.69 9.04 Q 59.59 9.28 59.48 9.50 Q 59.23 10.00 58.95 10.39 Q 58.88 10.32 58.65 10.16 Q 58.65 10.16 58.53 10.07 Q 58.44 10.01 58.36 9.97 L 58.36 13.68 L 56.16 13.68 L 56.16 14.30 L 55.48 14.30 Z M 56.16 13.01 L 57.67 13.01 L 57.67 11.23 L 56.16 11.23 Z M 57.67 10.57 L 57.67 9.04 L 56.16 9.04 L 56.16 10.57 Z M 59.19 10.52 L 59.78 10.19 Q 60.00 10.46 60.47 11.13 Q 60.47 11.13 60.87 11.75 Q 60.87 11.75 61.00 11.99 L 60.36 12.39 Q 60.25 12.14 59.85 11.49 Q 59.85 11.49 59.40 10.81 Q 59.40 10.81 59.19 10.52 Z M 66.09 9.48 L 69.85 9.48 L 69.85 11.49 Q 69.85 11.77 69.69 12.12 Q 69.69 12.12 69.46 12.20 Q 69.23 12.29 68.54 12.32 Q 68.54 12.32 68.05 12.32 Q 68.02 12.16 67.85 11.75 Q 67.85 11.75 67.77 11.61 Q 68.02 11.62 68.49 11.63 Q 68.49 11.63 68.84 11.62 Q 68.84 11.62 68.92 11.62 Q 69.02 11.61 69.09 11.56 Q 69.09 11.56 69.09 11.48 L 69.09 10.20 L 66.87 10.20 L 66.87 13.21 Q 66.87 13.40 66.96 13.60 Q 66.96 13.60 67.23 13.67 Q 67.23 13.67 67.48 13.67 L 69.24 13.67 Q 69.48 13.67 69.70 13.51 Q 69.70 13.51 69.81 13.06 Q 69.81 13.06 69.84 12.62 Q 69.98 12.72 70.39 12.88 Q 70.39 12.88 70.55 12.92 Q 70.51 13.48 70.26 14.13 Q 70.26 14.13 69.76 14.38 Q 69.76 14.38 69.29 14.38 L 67.43 14.38 Q 66.92 14.38 66.32 14.19 Q 66.32 14.19 66.09 13.68 Q 66.09 13.68 66.09 13.22 Z M 63.26 7.74 L 64.99 7.74 L 64.99 7.09 L 65.77 7.09 L 65.77 7.74 L 67.87 7.74 L 67.87 7.09 L 68.65 7.09 L 68.65 7.74 L 70.41 7.74 L 70.41 8.45 L 68.65 8.45 L 68.65 9.16 L 67.87 9.16 L 67.87 8.45 L 65.77 8.45 L 65.77 9.16 L 64.99 9.16 L 64.99 8.45 L 63.26 8.45 Z M 63.39 13.88 Q 63.66 13.64 64.32 12.99 Q 64.32 12.99 65.03 12.23 Q 65.03 12.23 65.36 11.87 L 65.77 12.45 Q 65.49 12.78 64.86 13.50 Q 64.86 13.50 64.23 14.19 Q 64.23 14.19 63.92 14.50 Z M 63.71 9.68 L 64.15 9.20 Q 64.37 9.32 64.93 9.62 Q 64.93 9.62 65.44 9.91 Q 65.44 9.91 65.61 10.03 L 65.16 10.60 Q 65.00 10.48 64.50 10.16 Q 64.50 10.16 63.96 9.82 Q 63.96 9.82 63.71 9.68 Z M 63.23 11.18 L 63.65 10.68 Q 63.88 10.78 64.44 11.05 Q 64.44 11.05 64.96 11.32 Q 64.96 11.32 65.14 11.44 L 64.71 12.00 Q 64.55 11.89 64.04 11.61 Q 64.04 11.61 63.48 11.30 Q 63.48 11.30 63.23 11.18 Z M 71.44 7.40 L 78.23 7.40 L 78.23 14.51 L 77.49 14.51 L 77.49 14.13 L 72.15 14.13 L 72.15 14.51 L 71.44 14.51 Z M 77.49 13.50 L 77.49 8.05 L 72.15 8.05 L 72.15 13.50 Z M 72.54 11.15 L 74.42 11.15 L 74.42 10.58 L 72.97 10.58 L 72.97 9.99 L 74.42 9.99 L 74.42 9.44 L 72.64 9.44 L 72.64 8.82 L 74.42 8.82 L 74.42 8.25 L 75.12 8.25 L 75.12 8.82 L 77.00 8.82 L 77.00 9.44 L 75.12 9.44 L 75.12 9.99 L 76.70 9.99 L 76.70 10.58 L 75.12 10.58 L 75.12 11.15 L 77.12 11.15 L 77.11 11.24 Q 77.11 11.33 77.09 11.39 Q 77.03 12.01 76.90 12.64 Q 76.90 12.64 76.78 12.77 Q 76.69 12.86 76.49 12.94 Q 76.49 12.94 76.36 12.96 Q 76.24 12.97 75.84 12.97 Q 75.84 12.97 75.62 12.97 Q 75.61 12.82 75.52 12.49 Q 75.52 12.49 75.46 12.37 Q 75.65 12.39 75.96 12.40 Q 75.96 12.40 76.10 12.40 Q 76.10 12.40 76.20 12.38 Q 76.20 12.38 76.23 12.34 Q 76.30 12.27 76.36 12.02 Q 76.37 11.92 76.39 11.77 L 75.12 11.77 L 75.12 13.29 L 74.42 13.29 L 74.42 11.77 L 72.54 11.77 Z" xml:space="preserve" style="font-weight:613;font-size:7.99999px;line-height:1.2;font-family:'Dream Han Sans SC';-inkscape-font-specification:'Dream Han Sans SC weight=613';text-align:start;writing-mode:lr-tb;direction:ltr;text-anchor:start;fill:#ff0000;stroke-width:0.999999" id="text35" data-original-text="将检测到摇晃的范围" data-original-element="text"/>
  <path d="M 9.98 20.99 L 11.37 20.99 Q 11.45 20.81 11.51 20.61 Q 11.66 20.18 11.77 19.79 L 12.54 19.90 Q 12.39 20.43 12.18 20.99 L 14.86 20.99 L 14.86 21.66 L 14.06 21.66 Q 13.86 22.65 13.46 23.33 Q 13.34 23.52 13.21 23.69 Q 13.66 23.94 14.04 24.18 Q 14.50 24.47 14.83 24.72 L 14.29 25.30 Q 13.98 25.06 13.53 24.76 Q 13.14 24.49 12.69 24.22 Q 12.48 24.41 12.23 24.56 Q 11.47 25.03 10.35 25.30 Q 10.33 25.22 10.20 24.97 Q 10.20 24.97 10.05 24.73 Q 10.05 24.73 9.98 24.65 Q 11.01 24.44 11.69 24.06 Q 11.87 23.95 12.03 23.83 Q 11.76 23.68 11.48 23.52 Q 10.94 23.22 10.45 22.98 Q 10.62 22.68 10.81 22.29 Q 10.95 21.99 11.10 21.66 L 10.10 21.66 L 10.18 22.22 Q 9.70 22.38 9.22 22.52 L 9.22 24.46 Q 9.22 24.75 9.08 25.07 Q 9.08 25.07 8.91 25.15 Q 8.74 25.24 8.19 25.29 Q 8.19 25.29 7.78 25.29 Q 7.77 25.14 7.64 24.75 Q 7.64 24.75 7.57 24.60 Q 7.82 24.61 8.27 24.61 Q 8.27 24.61 8.34 24.61 Q 8.43 24.61 8.49 24.54 Q 8.49 24.54 8.49 24.46 L 8.49 22.75 Q 7.97 22.90 7.53 23.04 L 7.36 22.31 Q 7.71 22.22 8.15 22.10 Q 8.32 22.06 8.49 22.01 L 8.49 20.13 L 7.46 20.13 L 7.46 19.43 L 8.49 19.43 L 8.49 17.86 L 9.22 17.86 L 9.22 19.43 L 10.04 19.43 L 10.04 20.13 L 9.22 20.13 L 9.22 21.80 Q 9.60 21.69 9.98 21.58 Z M 11.85 17.94 L 12.61 17.81 Q 12.71 18.11 12.82 18.45 Q 12.88 18.67 12.92 18.85 L 14.75 18.85 L 14.75 20.46 L 14.02 20.46 L 14.02 19.51 L 10.93 19.51 L 10.93 20.46 L 10.22 20.46 L 10.22 18.85 L 12.11 18.85 Q 12.08 18.73 12.04 18.59 Q 11.94 18.23 11.85 17.94 Z M 11.44 22.74 Q 11.69 22.86 11.96 23.00 Q 12.27 23.16 12.56 23.32 Q 12.67 23.17 12.77 23.01 Q 13.11 22.46 13.25 21.66 L 11.91 21.66 Q 11.78 21.97 11.66 22.27 Q 11.54 22.52 11.44 22.74 Z M 18.13 24.38 L 20.13 24.38 L 20.13 22.63 L 18.61 22.63 L 18.61 21.94 L 22.48 21.94 L 22.48 22.63 L 20.89 22.63 L 20.89 24.38 L 22.87 24.38 L 22.87 25.09 L 18.13 25.09 Z M 18.53 18.27 L 21.72 18.27 L 21.86 18.24 L 22.40 18.52 Q 22.12 19.11 21.69 19.61 Q 21.43 19.93 21.11 20.22 Q 21.26 20.28 21.41 20.35 Q 21.86 20.55 22.67 20.96 Q 22.67 20.96 22.94 21.13 L 22.50 21.75 Q 22.24 21.57 21.45 21.13 Q 21.45 21.13 21.01 20.92 Q 20.75 20.79 20.51 20.68 Q 20.10 20.97 19.65 21.22 Q 19.06 21.52 18.46 21.74 Q 18.42 21.64 18.26 21.41 Q 18.26 21.41 18.09 21.17 Q 18.09 21.17 18.01 21.10 Q 18.56 20.93 19.64 20.38 Q 19.64 20.38 20.60 19.69 Q 20.60 19.69 20.98 19.27 Q 21.12 19.12 21.23 18.96 L 18.53 18.96 Z M 15.66 23.20 Q 15.65 23.13 15.57 22.86 Q 15.57 22.86 15.46 22.58 Q 15.46 22.58 15.42 22.49 Q 15.57 22.45 15.87 22.19 Q 15.87 22.19 16.07 21.97 Q 16.18 21.86 16.59 21.38 Q 16.59 21.38 16.83 21.04 Q 16.84 21.04 16.84 21.04 Q 16.69 21.06 16.57 21.07 Q 16.23 21.12 15.86 21.18 Q 15.86 21.18 15.67 21.24 Q 15.67 21.24 15.61 21.26 Q 15.59 21.19 15.51 20.93 Q 15.51 20.93 15.41 20.65 Q 15.41 20.65 15.36 20.55 Q 15.48 20.52 15.71 20.27 Q 15.71 20.27 15.84 20.06 Q 15.91 19.97 16.18 19.52 Q 16.18 19.52 16.49 18.91 Q 16.49 18.91 16.81 18.20 Q 16.81 18.20 16.93 17.85 L 17.64 18.17 Q 17.43 18.65 16.91 19.63 Q 16.91 19.63 16.62 20.07 Q 16.49 20.26 16.37 20.45 L 17.31 20.36 Q 17.33 20.33 17.34 20.31 Q 17.60 19.92 17.82 19.51 L 18.47 19.94 Q 17.98 20.73 17.37 21.49 Q 17.08 21.86 16.78 22.19 L 18.21 21.94 Q 18.19 22.10 18.18 22.49 Q 18.18 22.49 18.19 22.61 Q 17.43 22.75 16.50 22.95 Q 16.50 22.95 15.98 23.08 Q 15.98 23.08 15.74 23.16 Q 15.74 23.16 15.66 23.20 Z M 15.44 24.10 Q 15.78 24.02 16.66 23.82 Q 16.66 23.82 17.64 23.59 Q 17.64 23.59 18.14 23.47 L 18.22 24.13 Q 17.53 24.32 16.14 24.69 Q 16.14 24.69 15.59 24.85 Z M 26.41 18.93 L 27.99 18.93 L 27.99 17.85 L 28.78 17.85 L 28.78 18.93 L 30.54 18.93 L 30.54 19.62 L 28.78 19.62 L 28.78 20.37 L 30.28 20.37 L 30.28 21.07 L 28.78 21.07 L 28.78 21.85 L 30.77 21.85 L 30.77 21.94 Q 30.77 22.05 30.75 22.11 Q 30.71 22.82 30.61 23.73 Q 30.61 23.73 30.48 24.22 Q 30.48 24.22 30.38 24.32 Q 30.30 24.43 30.09 24.52 Q 30.09 24.52 29.95 24.54 Q 29.84 24.56 29.48 24.56 Q 29.48 24.56 29.27 24.56 Q 29.27 24.42 29.18 24.06 Q 29.18 24.06 29.11 23.93 Q 29.28 23.94 29.56 23.96 Q 29.56 23.96 29.63 23.96 Q 29.70 23.96 29.80 23.93 Q 29.80 23.93 29.84 23.87 Q 29.91 23.81 29.99 23.40 Q 29.99 23.40 30.04 23.00 Q 30.05 22.81 30.08 22.55 L 28.78 22.55 L 28.78 25.28 L 27.99 25.28 L 27.99 22.55 L 26.28 22.55 L 26.28 21.85 L 27.99 21.85 L 27.99 21.07 L 26.57 21.07 L 26.57 20.37 L 27.99 20.37 L 27.99 19.62 L 26.41 19.62 Z M 23.69 23.20 Q 23.67 23.13 23.60 22.90 Q 23.60 22.90 23.51 22.65 Q 23.51 22.65 23.47 22.57 Q 23.61 22.54 23.89 22.26 Q 23.89 22.26 24.07 22.04 Q 24.17 21.94 24.53 21.44 Q 24.53 21.44 24.76 21.10 Q 24.78 21.07 24.80 21.04 Q 24.61 21.06 24.46 21.09 Q 24.18 21.13 23.85 21.19 Q 23.85 21.19 23.68 21.24 Q 23.68 21.24 23.62 21.26 Q 23.61 21.19 23.53 20.94 Q 23.53 20.94 23.44 20.67 Q 23.44 20.67 23.40 20.58 Q 23.51 20.55 23.72 20.29 Q 23.72 20.29 23.85 20.10 Q 23.92 20.00 24.16 19.54 Q 24.16 19.54 24.47 18.92 Q 24.47 18.92 24.77 18.21 Q 24.77 18.21 24.89 17.85 L 25.53 18.17 Q 25.34 18.65 24.84 19.63 Q 24.84 19.63 24.57 20.08 Q 24.44 20.29 24.30 20.49 L 25.20 20.40 Q 25.21 20.38 25.22 20.36 Q 25.46 19.96 25.65 19.55 L 26.21 19.92 Q 25.76 20.73 25.21 21.49 Q 24.93 21.90 24.64 22.26 L 26.09 21.99 Q 26.07 22.13 26.06 22.49 Q 26.06 22.49 26.07 22.61 Q 25.35 22.76 24.46 22.96 Q 24.46 22.96 23.98 23.08 Q 23.98 23.08 23.75 23.16 Q 23.75 23.16 23.69 23.20 Z M 23.46 24.13 Q 23.82 24.06 24.75 23.85 Q 24.75 23.85 25.78 23.61 Q 25.78 23.61 26.30 23.48 L 26.36 24.11 Q 25.63 24.31 24.18 24.69 Q 24.18 24.69 23.59 24.85 Z M 33.13 22.47 L 37.59 22.47 L 37.72 22.44 L 38.19 22.69 Q 37.86 23.31 37.33 23.75 Q 37.00 24.01 36.63 24.23 Q 36.82 24.29 37.02 24.34 Q 37.89 24.55 38.88 24.63 Q 38.80 24.71 38.63 24.94 Q 38.63 24.94 38.49 25.18 Q 38.49 25.18 38.44 25.29 Q 37.42 25.17 36.53 24.91 Q 36.13 24.79 35.76 24.64 Q 35.24 24.83 34.66 24.97 Q 33.89 25.14 33.05 25.24 Q 33.02 25.10 32.83 24.73 Q 32.83 24.73 32.75 24.60 Q 33.51 24.54 34.24 24.40 Q 34.61 24.32 34.95 24.22 Q 34.27 23.80 33.79 23.20 L 34.10 23.08 L 33.13 23.08 Z M 32.11 18.61 L 35.17 18.61 Q 35.15 18.58 35.14 18.55 Q 35.03 18.24 34.91 17.99 L 35.66 17.81 Q 35.80 18.06 35.92 18.36 Q 35.98 18.49 36.02 18.61 L 38.76 18.61 L 38.76 19.32 L 32.86 19.32 L 32.86 20.77 Q 32.86 21.26 32.80 22.42 Q 32.80 22.42 32.64 23.65 Q 32.64 23.65 32.34 24.80 Q 32.34 24.80 32.09 25.28 Q 32.02 25.22 31.76 25.10 Q 31.76 25.10 31.50 24.97 Q 31.50 24.97 31.40 24.94 Q 31.65 24.49 31.93 23.42 Q 31.93 23.42 32.07 22.29 Q 32.07 22.29 32.11 21.23 Q 32.11 21.23 32.11 20.77 Z M 33.04 20.14 L 34.24 20.14 L 34.24 19.52 L 34.96 19.52 L 34.96 20.14 L 36.69 20.14 L 36.69 19.52 L 37.44 19.52 L 37.44 20.14 L 38.67 20.14 L 38.67 20.75 L 37.44 20.75 L 37.44 22.05 L 34.24 22.05 L 34.24 20.75 L 33.04 20.75 Z M 34.96 20.75 L 34.96 21.46 L 36.69 21.46 L 36.69 20.75 Z M 34.56 23.08 Q 34.94 23.48 35.50 23.78 Q 35.65 23.85 35.80 23.93 Q 36.30 23.71 36.69 23.42 Q 36.89 23.26 37.06 23.08 Z M 39.84 24.61 L 39.84 23.85 L 41.13 23.85 L 41.13 19.76 L 40.07 19.76 L 40.07 19.17 Q 40.49 19.10 41.11 18.88 Q 41.11 18.88 41.35 18.72 L 42.05 18.72 L 42.05 23.85 L 43.20 23.85 L 43.20 24.61 Z M 45.69 22.47 L 50.14 22.47 L 50.28 22.44 L 50.75 22.69 Q 50.41 23.31 49.89 23.75 Q 49.56 24.01 49.19 24.23 Q 49.38 24.29 49.58 24.34 Q 50.44 24.55 51.44 24.63 Q 51.36 24.71 51.19 24.94 Q 51.19 24.94 51.05 25.18 Q 51.05 25.18 51.00 25.29 Q 49.98 25.17 49.09 24.91 Q 48.69 24.79 48.32 24.64 Q 47.80 24.83 47.22 24.97 Q 46.44 25.14 45.61 25.24 Q 45.57 25.10 45.39 24.73 Q 45.39 24.73 45.30 24.60 Q 46.07 24.54 46.80 24.40 Q 47.17 24.32 47.51 24.22 Q 46.82 23.80 46.35 23.20 L 46.66 23.08 L 45.69 23.08 Z M 44.67 18.61 L 47.73 18.61 Q 47.71 18.58 47.70 18.55 Q 47.59 18.24 47.46 17.99 L 48.22 17.81 Q 48.36 18.06 48.48 18.36 Q 48.53 18.49 48.58 18.61 L 51.32 18.61 L 51.32 19.32 L 45.41 19.32 L 45.41 20.77 Q 45.41 21.26 45.36 22.42 Q 45.36 22.42 45.20 23.65 Q 45.20 23.65 44.89 24.80 Q 44.89 24.80 44.65 25.28 Q 44.57 25.22 44.32 25.10 Q 44.32 25.10 44.06 24.97 Q 44.06 24.97 43.96 24.94 Q 44.21 24.49 44.49 23.42 Q 44.49 23.42 44.63 22.29 Q 44.63 22.29 44.67 21.23 Q 44.67 21.23 44.67 20.77 Z M 45.60 20.14 L 46.80 20.14 L 46.80 19.52 L 47.52 19.52 L 47.52 20.14 L 49.25 20.14 L 49.25 19.52 L 50.00 19.52 L 50.00 20.14 L 51.23 20.14 L 51.23 20.75 L 50.00 20.75 L 50.00 22.05 L 46.80 22.05 L 46.80 20.75 L 45.60 20.75 Z M 47.52 20.75 L 47.52 21.46 L 49.25 21.46 L 49.25 20.75 Z M 47.12 23.08 Q 47.50 23.48 48.06 23.78 Q 48.21 23.85 48.36 23.93 Q 48.86 23.71 49.25 23.42 Q 49.45 23.26 49.62 23.08 Z M 54.85 19.50 L 55.53 19.58 Q 55.36 20.74 55.05 21.73 Q 55.25 21.97 55.41 22.22 Q 55.66 22.56 55.82 22.84 L 55.35 23.35 Q 55.19 23.07 54.95 22.71 Q 54.87 22.60 54.80 22.49 Q 54.37 23.57 53.68 24.31 Q 53.62 24.26 53.41 24.10 Q 53.41 24.10 53.30 24.02 Q 53.21 23.96 53.14 23.92 L 53.14 25.27 L 52.37 25.27 L 52.37 18.33 L 59.07 18.33 L 59.07 24.33 Q 59.07 24.67 58.88 25.04 Q 58.88 25.04 58.66 25.13 Q 58.43 25.22 57.71 25.27 Q 57.71 25.27 57.15 25.27 Q 57.14 25.16 57.04 24.89 Q 57.04 24.89 56.93 24.61 Q 56.93 24.61 56.86 24.51 Q 57.12 24.52 57.63 24.54 Q 57.63 24.54 58.02 24.52 Q 58.02 24.52 58.09 24.52 Q 58.21 24.52 58.31 24.44 Q 58.31 24.44 58.31 24.33 L 58.31 19.05 L 53.14 19.05 L 53.14 23.85 Q 53.61 23.39 53.94 22.75 Q 54.16 22.32 54.33 21.83 Q 54.09 21.50 53.83 21.17 Q 53.53 20.79 53.25 20.46 L 53.69 20.02 Q 53.98 20.35 54.28 20.74 Q 54.42 20.90 54.55 21.06 Q 54.74 20.33 54.85 19.50 Z M 57.09 19.52 L 57.77 19.59 Q 57.61 20.75 57.31 21.74 Q 57.54 22.08 57.74 22.41 Q 57.98 22.79 58.12 23.11 L 57.61 23.58 Q 57.46 23.26 57.24 22.86 Q 57.14 22.69 57.04 22.52 Q 56.60 23.63 55.88 24.38 Q 55.82 24.32 55.60 24.16 Q 55.60 24.16 55.37 24.01 Q 55.37 24.01 55.28 23.96 Q 55.81 23.49 56.17 22.81 Q 56.41 22.36 56.58 21.83 Q 56.37 21.52 56.14 21.22 Q 55.84 20.81 55.53 20.45 L 56.00 20.06 Q 56.32 20.41 56.63 20.81 Q 56.73 20.93 56.82 21.04 Q 56.99 20.32 57.09 19.52 Z M 64.34 17.85 L 65.05 18.05 Q 64.92 18.39 64.75 18.72 L 66.28 18.72 L 66.42 18.69 L 66.89 18.91 Q 66.64 19.66 66.22 20.28 Q 65.95 20.69 65.63 21.04 Q 65.82 21.18 66.02 21.32 Q 66.69 21.77 67.55 22.03 Q 67.48 22.10 67.30 22.33 Q 67.30 22.33 67.14 22.57 Q 67.14 22.57 67.09 22.66 Q 66.95 22.61 66.82 22.56 L 66.82 25.26 L 66.09 25.26 L 66.09 24.97 L 64.09 24.97 L 64.09 25.29 L 63.39 25.29 L 63.39 22.62 Q 63.12 22.74 62.86 22.84 Q 62.79 22.70 62.54 22.33 Q 62.54 22.33 62.43 22.23 Q 62.44 22.22 62.47 22.22 Q 62.41 22.10 62.32 21.96 Q 62.20 21.76 62.05 21.54 Q 62.01 21.46 61.96 21.39 L 61.96 25.28 L 61.24 25.28 L 61.24 21.80 Q 61.18 21.98 61.11 22.17 Q 60.93 22.67 60.50 23.52 Q 60.50 23.52 60.28 23.82 Q 60.23 23.67 60.01 23.28 Q 60.01 23.28 59.91 23.14 Q 60.12 22.88 60.52 22.15 Q 60.52 22.15 60.86 21.30 Q 60.86 21.30 61.00 20.86 Q 61.09 20.55 61.17 20.26 L 60.10 20.26 L 60.10 19.55 L 61.24 19.55 L 61.24 17.86 L 61.96 17.86 L 61.96 19.55 L 62.93 19.55 L 62.93 19.99 Q 63.28 19.65 63.60 19.22 Q 64.06 18.57 64.34 17.85 Z M 66.09 24.32 L 66.09 22.97 L 64.09 22.97 L 64.09 24.32 Z M 62.61 22.17 Q 63.12 21.99 63.61 21.72 Q 64.15 21.42 64.62 21.03 Q 64.48 20.88 64.36 20.72 Q 64.09 20.38 63.89 20.05 Q 63.53 20.48 63.18 20.80 Q 63.11 20.73 62.90 20.54 Q 62.90 20.54 62.67 20.34 Q 62.67 20.34 62.58 20.29 Q 62.61 20.27 62.63 20.26 L 61.96 20.26 L 61.96 20.54 Q 62.02 20.61 62.14 20.74 Q 62.28 20.91 62.61 21.31 Q 62.61 21.31 62.89 21.65 Q 62.89 21.65 62.94 21.73 Z M 65.11 20.57 Q 65.36 20.29 65.57 19.99 Q 65.78 19.69 65.94 19.37 L 64.37 19.37 Q 64.34 19.42 64.30 19.48 Q 64.53 19.89 64.87 20.30 Q 64.98 20.44 65.11 20.57 Z M 63.98 22.33 L 66.30 22.33 Q 65.89 22.11 65.53 21.84 Q 65.32 21.69 65.12 21.52 Q 64.66 21.93 64.12 22.24 Q 64.05 22.28 63.98 22.33 Z M 67.96 20.17 L 69.16 20.04 Q 69.14 19.87 69.12 19.70 Q 69.05 18.80 69.04 17.87 L 69.81 17.87 Q 69.80 18.92 69.89 19.90 Q 69.90 19.93 69.90 19.96 L 72.37 19.68 L 72.44 20.39 L 69.98 20.67 Q 70.06 21.21 70.16 21.70 Q 70.25 22.12 70.34 22.49 Q 70.41 22.40 70.47 22.31 Q 70.98 21.61 71.30 20.80 L 72.02 21.01 Q 71.64 21.90 71.10 22.67 Q 70.86 23.01 70.61 23.32 Q 70.80 23.83 71.01 24.14 Q 71.25 24.49 71.50 24.49 Q 71.64 24.49 71.79 23.89 Q 71.79 23.89 71.82 23.18 Q 71.94 23.31 72.30 23.54 Q 72.30 23.54 72.44 23.59 Q 72.39 24.24 72.16 24.96 Q 72.16 24.96 71.76 25.24 Q 71.76 25.24 71.44 25.24 Q 71.06 25.24 70.41 24.67 Q 70.41 24.67 70.15 24.16 Q 70.09 24.05 70.04 23.93 Q 69.98 23.99 69.91 24.05 Q 69.25 24.66 68.50 25.12 Q 68.45 25.04 68.26 24.81 Q 68.26 24.81 68.05 24.59 Q 68.05 24.59 67.98 24.52 Q 68.71 24.13 69.34 23.57 Q 69.56 23.38 69.75 23.17 Q 69.72 23.06 69.69 22.95 Q 69.48 22.26 69.34 21.43 Q 69.28 21.10 69.24 20.75 L 68.04 20.89 Z M 74.33 17.94 L 75.07 17.94 L 75.07 24.36 Q 75.07 24.69 74.90 25.05 Q 74.90 25.05 74.69 25.14 Q 74.50 25.23 73.82 25.29 Q 73.82 25.29 73.30 25.29 Q 73.28 25.13 73.14 24.69 Q 73.14 24.69 73.05 24.54 Q 73.41 24.54 74.03 24.55 Q 74.03 24.55 74.14 24.55 Q 74.25 24.54 74.33 24.47 Q 74.33 24.47 74.33 24.37 Z M 72.79 18.73 L 73.52 18.73 L 73.52 23.13 L 72.79 23.13 Z M 70.14 18.40 L 70.64 17.99 Q 70.85 18.14 71.30 18.52 Q 71.30 18.52 71.68 18.92 Q 71.68 18.92 71.80 19.08 L 71.26 19.54 Q 71.15 19.38 70.78 18.97 Q 70.78 18.97 70.34 18.57 Q 70.34 18.57 70.14 18.40 Z M 78.25 18.00 L 79.05 18.22 Q 78.78 18.90 78.02 20.16 Q 78.02 20.16 77.58 20.69 Q 77.51 20.77 77.44 20.85 L 82.17 20.85 Q 81.85 20.48 81.53 20.06 Q 81.22 19.62 80.66 18.71 Q 80.66 18.71 80.44 18.26 L 81.15 17.98 Q 81.34 18.38 81.86 19.21 Q 81.86 19.21 82.47 19.98 Q 82.47 19.98 83.12 20.65 Q 83.12 20.65 83.44 20.90 Q 83.34 20.97 83.11 21.19 Q 83.11 21.19 82.90 21.43 Q 82.90 21.43 82.83 21.54 Q 82.54 21.27 82.24 20.94 Q 82.24 20.99 82.24 21.06 Q 82.24 21.14 82.23 21.19 Q 82.19 22.10 82.10 23.39 Q 82.10 23.39 82.00 24.25 Q 82.00 24.25 81.86 24.74 Q 81.86 24.74 81.74 24.86 Q 81.61 25.03 81.30 25.17 Q 81.30 25.17 81.08 25.18 Q 80.87 25.21 80.20 25.21 Q 80.20 25.21 79.83 25.19 Q 79.82 25.02 79.69 24.59 Q 79.69 24.59 79.58 24.43 Q 79.95 24.46 80.58 24.48 Q 80.58 24.48 80.73 24.48 Q 80.95 24.48 81.05 24.38 Q 81.16 24.27 81.30 23.54 Q 81.30 23.54 81.36 22.84 Q 81.40 22.33 81.43 21.60 L 79.45 21.60 Q 79.40 21.98 79.32 22.35 Q 79.18 22.97 78.59 24.10 Q 78.59 24.10 77.53 25.00 Q 77.53 25.00 76.68 25.31 Q 76.63 25.21 76.47 24.97 Q 76.47 24.97 76.28 24.74 Q 76.28 24.74 76.20 24.65 Q 76.99 24.40 77.95 23.62 Q 77.95 23.62 78.45 22.67 Q 78.45 22.67 78.56 22.14 Q 78.61 21.87 78.66 21.60 L 77.24 21.60 L 77.24 21.08 Q 76.96 21.37 76.66 21.61 Q 76.60 21.52 76.36 21.30 Q 76.36 21.30 76.12 21.08 Q 76.12 21.08 76.02 21.01 Q 76.50 20.67 77.34 19.73 Q 77.34 19.73 78.02 18.60 Q 78.02 18.60 78.25 18.00 Z M 85.04 18.24 L 90.41 18.24 L 90.41 21.40 L 85.04 21.40 Z M 84.00 24.20 L 86.44 24.20 L 86.44 21.69 L 87.15 21.69 L 87.15 24.20 L 88.22 24.20 L 88.22 21.69 L 88.94 21.69 L 88.94 24.20 L 91.42 24.20 L 91.42 24.92 L 84.00 24.92 Z M 85.77 20.10 L 85.77 20.80 L 89.63 20.80 L 89.63 20.10 Z M 85.77 18.83 L 85.77 19.54 L 89.63 19.54 L 89.63 18.83 Z M 90.21 21.91 L 90.86 22.20 Q 90.61 22.61 90.02 23.47 Q 90.02 23.47 89.77 23.79 L 89.18 23.51 Q 89.36 23.30 89.74 22.74 Q 89.74 22.74 90.09 22.17 Q 90.09 22.17 90.21 21.91 Z M 84.63 22.22 L 85.21 21.97 Q 85.37 22.22 85.70 22.79 Q 85.70 22.79 86.00 23.33 Q 86.00 23.33 86.08 23.54 L 85.46 23.82 Q 85.38 23.61 85.10 23.06 Q 85.10 23.06 84.79 22.47 Q 84.79 22.47 84.63 22.22 Z M 92.17 20.36 L 99.26 20.36 L 99.26 21.11 L 96.14 21.11 L 96.14 24.36 Q 96.14 24.69 95.96 25.06 Q 95.96 25.06 95.71 25.15 Q 95.47 25.24 94.72 25.29 Q 94.72 25.29 94.19 25.29 Q 94.17 25.11 94.01 24.65 Q 94.01 24.65 93.92 24.49 Q 94.18 24.49 94.67 24.50 Q 94.67 24.50 95.05 24.50 Q 95.05 24.50 95.12 24.50 Q 95.23 24.50 95.32 24.43 Q 95.32 24.43 95.32 24.34 L 95.32 21.11 L 92.17 21.11 Z M 92.89 18.42 L 98.53 18.42 L 98.53 19.17 L 92.89 19.17 Z M 93.45 21.81 L 94.25 22.01 Q 94.06 22.49 93.53 23.43 Q 93.53 23.43 92.94 24.25 Q 92.94 24.25 92.64 24.56 Q 92.57 24.49 92.31 24.32 Q 92.31 24.32 92.05 24.15 Q 92.05 24.15 91.94 24.10 Q 92.41 23.69 93.21 22.45 Q 93.21 22.45 93.45 21.81 Z M 97.14 22.10 L 97.84 21.80 Q 98.12 22.17 98.68 23.04 Q 98.68 23.04 99.12 23.89 Q 99.12 23.89 99.24 24.23 L 98.47 24.57 Q 98.37 24.24 97.95 23.38 Q 97.95 23.38 97.41 22.48 Q 97.41 22.48 97.14 22.10 Z" xml:space="preserve" style="font-weight:613;font-size:7.99999px;line-height:1.2;font-family:'Dream Han Sans SC';-inkscape-font-specification:'Dream Han Sans SC weight=613';text-align:start;writing-mode:lr-tb;direction:ltr;text-anchor:start;fill:#ffffff;stroke-width:0.999998" id="text36" data-original-text="按经纬度1度网格划分显示" data-original-element="text"/>
</svg>