<?xml version="1.0" ?>
<svg xmlns="http://www.w3.org/2000/svg" xmlns:ns1="http://sodipodi.sourceforge.net/DTD/sodipodi-0.dtd" xmlns:ns2="http://www.inkscape.org/namespaces/inkscape" xml:space="preserve" viewBox="0 0 224 76" version="1.1" height="76" width="224" id="svg2" ns1:docname="098101a1abc05147e0c628dc8675a6a1.svg" ns2:version="1.4.2 (f4327f4, 2025-05-13)">
  <defs id="defs2"/>
  <ns1:namedview id="namedview2" pagecolor="#505050" bordercolor="#eeeeee" borderopacity="1" ns2:showpageshadow="0" ns2:pageopacity="0" ns2:pagecheckerboard="0" ns2:deskcolor="#505050" ns2:zoom="3.9575893" ns2:cx="63.296108" ns2:cy="40.554992" ns2:window-width="1920" ns2:window-height="945" ns2:window-x="-9" ns2:window-y="40" ns2:window-maximized="1" ns2:current-layer="svg2"/>
  <path d="M -6.1035e-05 0.0 L 223.999938965 0.0 L 223.999938965 76.0 L -6.1035e-05 76.0 Z" stroke-linejoin="round" stroke-linecap="round" stop-color="#000000" fill-rule="evenodd" fill-opacity=".8" fill="#1d2a41" id="rect1" data-original-element="rect"/>
  <path d="M 89.35 15.53 L 100.30 15.53 L 100.30 17.57 L 98.69 17.57 L 98.69 30.00 Q 99.68 29.85 100.66 29.71 L 100.78 31.61 Q 99.72 31.79 98.69 31.99 L 98.69 36.69 L 96.45 36.69 L 96.45 32.39 Q 94.64 32.73 92.95 33.00 Q 91.11 33.31 89.58 33.58 L 89.09 31.41 Q 89.90 31.29 90.84 31.17 L 90.84 17.57 L 89.35 17.57 Z M 100.41 17.09 L 108.91 17.09 L 109.30 17.02 L 110.69 17.37 Q 110.17 22.24 108.84 25.99 Q 108.08 28.24 107.05 30.12 Q 107.31 30.55 107.60 30.99 Q 109.20 33.40 111.56 34.79 Q 111.31 34.99 110.74 35.61 Q 110.74 35.61 110.19 36.28 Q 110.19 36.28 110.02 36.58 Q 107.53 34.91 105.84 32.32 Q 105.79 32.25 105.75 32.18 Q 105.68 32.28 105.61 32.37 Q 103.66 35.04 101.16 36.76 Q 100.90 36.35 100.06 35.35 Q 100.06 35.35 99.70 35.06 Q 101.99 33.65 103.78 31.15 Q 104.19 30.62 104.55 30.03 Q 103.71 28.31 103.11 26.37 Q 102.08 23.09 101.42 19.22 L 100.41 19.22 Z M 105.79 27.72 Q 106.37 26.54 106.83 25.22 Q 107.81 22.45 108.31 19.22 L 103.46 19.22 Q 104.00 22.51 104.93 25.41 Q 105.34 26.61 105.79 27.72 Z M 96.45 25.58 L 96.45 22.49 L 93.01 22.49 L 93.01 25.58 Z M 96.45 30.33 L 96.45 27.53 L 93.01 27.53 L 93.01 30.86 Q 94.64 30.62 96.43 30.35 Q 96.45 30.35 96.45 30.33 Z M 96.45 20.52 L 96.45 17.57 L 93.01 17.57 L 93.01 20.52 Z M 121.27 21.26 L 126.56 21.26 L 126.56 14.44 L 128.81 14.44 L 128.81 21.26 L 133.90 21.26 L 133.90 34.13 Q 133.90 34.96 133.50 36.00 Q 133.50 36.00 132.86 36.26 Q 132.27 36.53 130.37 36.65 Q 130.37 36.65 129.01 36.65 Q 128.95 36.19 128.55 34.94 Q 128.55 34.94 128.31 34.49 Q 129.24 34.54 130.92 34.56 Q 130.92 34.56 131.21 34.54 Q 131.69 34.51 131.69 34.08 L 131.69 31.72 L 123.51 31.72 L 123.51 36.72 L 121.27 36.72 Z M 113.76 35.09 Q 114.36 34.17 115.78 31.61 Q 115.78 31.61 117.24 28.72 Q 117.24 28.72 117.86 27.35 L 119.55 28.72 Q 119.00 30.00 117.72 32.73 Q 117.72 32.73 116.38 35.37 Q 116.38 35.37 115.73 36.55 Z M 131.69 27.53 L 123.51 27.53 L 123.51 29.78 L 131.69 29.78 Z M 131.69 23.37 L 123.51 23.37 L 123.51 25.58 L 131.69 25.58 Z M 132.70 15.07 L 134.90 15.90 Q 134.31 17.13 132.91 19.56 Q 132.91 19.56 132.29 20.44 L 130.34 19.65 Q 130.75 19.03 131.62 17.46 Q 131.62 17.46 132.45 15.79 Q 132.45 15.79 132.70 15.07 Z M 113.05 22.68 L 114.34 21.07 Q 115.09 21.40 116.74 22.36 Q 116.74 22.36 118.23 23.37 Q 118.23 23.37 118.68 23.80 L 117.31 25.58 Q 116.88 25.15 115.44 24.07 Q 115.44 24.07 113.81 23.06 Q 113.81 23.06 113.05 22.68 Z M 120.58 16.08 L 122.50 15.24 Q 122.99 15.88 123.96 17.46 Q 123.96 17.46 124.75 18.99 Q 124.75 18.99 124.92 19.61 L 122.88 20.59 Q 122.74 19.96 122.00 18.40 Q 122.00 18.40 121.09 16.77 Q 121.09 16.77 120.58 16.08 Z M 114.17 16.27 L 115.50 14.71 Q 116.24 15.05 117.86 16.01 Q 117.86 16.01 119.28 17.02 Q 119.28 17.02 119.74 17.46 L 118.32 19.22 Q 117.91 18.76 116.53 17.71 Q 116.53 17.71 114.91 16.65 Q 114.91 16.65 114.17 16.27 Z" xml:space="preserve" style="font-weight:613;font-size:24.0001px;line-height:1.2;font-family:'Dream Han Sans SC';-inkscape-font-specification:'Dream Han Sans SC weight=613';text-align:start;writing-mode:lr-tb;direction:ltr;text-anchor:start;fill:#ffffff;stroke-width:1" id="text2" data-original-text="取消" data-original-element="text"/>
  <path d="M 37.02 48.08 L 38.55 48.08 L 38.55 52.93 L 40.65 52.93 L 40.65 54.38 L 38.55 54.38 L 38.55 60.21 Q 39.59 60.02 40.60 59.83 L 40.71 61.33 Q 39.37 61.59 36.58 62.10 Q 36.58 62.10 34.04 62.58 Q 34.04 62.58 33.02 62.77 L 32.76 61.17 Q 33.34 61.09 34.01 60.98 L 34.01 51.36 L 35.48 51.36 L 35.48 60.74 Q 36.21 60.61 37.02 60.47 Z M 46.03 51.56 L 47.24 52.81 Q 46.57 53.28 44.93 54.26 Q 44.93 54.26 44.07 54.70 Q 43.50 54.99 42.93 55.27 L 42.93 60.02 Q 42.93 60.66 43.18 61.02 Q 43.18 61.02 43.64 61.02 L 45.51 61.02 Q 45.82 61.02 46.12 60.56 Q 46.12 60.56 46.25 59.36 Q 46.25 59.36 46.28 58.26 Q 46.57 58.47 47.40 58.84 Q 47.40 58.84 47.72 58.93 Q 47.64 60.23 47.24 61.80 Q 47.24 61.80 46.41 62.50 Q 46.41 62.50 45.64 62.50 L 43.42 62.50 Q 42.61 62.50 41.72 62.06 Q 41.72 62.06 41.35 60.96 Q 41.35 60.96 41.35 59.99 L 41.35 48.08 L 42.93 48.08 L 42.93 53.73 Q 43.14 53.62 43.35 53.49 Q 44.14 53.01 45.51 52.02 Q 45.51 52.02 46.03 51.56 Z M 54.03 48.05 L 55.69 48.35 Q 55.34 48.93 54.90 49.48 L 59.60 49.48 L 59.88 49.41 L 60.90 50.02 Q 60.10 51.43 58.87 52.50 Q 58.32 52.99 57.66 53.43 Q 58.44 53.74 59.32 54.00 Q 61.31 54.61 63.60 54.88 Q 63.45 55.04 63.10 55.52 Q 63.10 55.52 62.79 56.03 Q 62.79 56.03 62.70 56.24 Q 60.38 55.91 58.36 55.20 Q 57.21 54.81 56.18 54.27 Q 56.14 54.31 56.10 54.32 Q 54.55 55.09 51.10 56.10 Q 51.10 56.10 49.32 56.38 Q 49.22 56.08 48.84 55.28 Q 48.84 55.28 48.64 55.02 Q 50.30 54.81 51.93 54.38 Q 53.42 53.99 54.75 53.41 Q 53.64 52.66 52.78 51.70 Q 51.69 52.58 50.30 53.33 Q 50.17 53.16 49.80 52.72 Q 49.80 52.72 49.40 52.32 Q 49.40 52.32 49.22 52.21 Q 50.41 51.65 52.26 50.27 Q 52.26 50.27 53.63 48.77 Q 53.63 48.77 54.03 48.05 Z M 50.44 56.91 L 55.34 56.91 L 55.34 55.39 L 56.87 55.39 L 56.87 56.91 L 61.88 56.91 L 61.88 58.23 L 56.87 58.23 L 56.87 61.36 Q 56.87 61.89 56.60 62.50 Q 56.60 62.50 56.23 62.66 Q 55.86 62.82 54.81 62.88 Q 54.81 62.88 54.09 62.88 Q 54.04 62.58 53.78 61.84 Q 53.78 61.84 53.64 61.56 Q 54.07 61.57 54.93 61.59 Q 54.93 61.59 55.08 61.57 Q 55.22 61.57 55.34 61.48 Q 55.34 61.48 55.34 61.34 L 55.34 58.23 L 50.44 58.23 Z M 52.70 58.69 L 53.91 59.24 Q 53.50 59.80 52.30 60.98 Q 52.30 60.98 51.03 62.00 Q 51.03 62.00 50.47 62.35 Q 50.36 62.20 50.01 61.80 Q 50.01 61.80 49.64 61.41 Q 49.64 61.41 49.46 61.30 Q 50.01 60.99 51.21 60.15 Q 51.21 60.15 52.33 59.16 Q 52.33 59.16 52.70 58.69 Z M 58.17 59.46 L 59.24 58.69 Q 59.78 59.11 60.93 60.15 Q 60.93 60.15 61.94 61.19 Q 61.94 61.19 62.25 61.60 L 61.10 62.47 Q 60.82 62.03 59.85 60.98 Q 59.85 60.98 58.71 59.89 Q 58.71 59.89 58.17 59.46 Z M 56.17 52.69 Q 56.92 52.26 57.56 51.74 Q 58.12 51.28 58.57 50.77 L 53.78 50.77 Q 53.77 50.77 53.75 50.79 Q 54.58 51.73 55.78 52.47 Q 55.98 52.58 56.17 52.69 Z M 74.17 48.08 L 75.59 48.08 L 75.59 51.94 L 77.35 51.19 L 77.63 50.96 L 77.89 50.76 L 78.97 51.16 L 78.90 51.41 Q 78.90 52.55 78.89 54.49 Q 78.89 54.49 78.85 56.00 Q 78.85 56.00 78.81 57.04 Q 78.81 57.04 78.76 57.28 Q 78.71 57.80 78.28 58.34 Q 78.28 58.34 77.91 58.45 Q 77.57 58.58 76.70 58.63 Q 76.70 58.63 76.35 58.63 Q 76.32 58.32 76.12 57.57 Q 76.12 57.57 76.01 57.33 Q 76.25 57.34 76.82 57.36 Q 76.82 57.36 76.93 57.36 Q 77.11 57.36 77.32 57.20 Q 77.32 57.20 77.37 56.96 Q 77.40 56.82 77.43 55.92 Q 77.43 55.92 77.45 54.47 Q 77.45 54.47 77.45 53.46 Q 77.45 53.07 77.45 52.67 L 75.59 53.48 L 75.59 59.28 L 74.17 59.28 L 74.17 54.08 L 72.38 54.85 L 72.38 60.16 Q 72.38 60.61 72.53 61.07 Q 72.53 61.07 73.07 61.24 Q 73.07 61.24 73.57 61.24 L 77.11 61.24 Q 77.57 61.24 78.03 60.88 Q 78.03 60.88 78.25 59.95 Q 78.25 59.95 78.30 59.07 Q 78.55 59.25 79.34 59.57 Q 79.34 59.57 79.64 59.63 Q 79.54 60.76 79.07 62.03 Q 79.07 62.03 78.09 62.59 Q 78.09 62.59 77.21 62.59 L 73.48 62.59 Q 72.50 62.59 71.37 62.18 Q 71.37 62.18 70.92 61.11 Q 70.92 61.11 70.92 60.15 L 70.92 55.48 L 69.83 55.94 L 69.25 54.61 L 70.92 53.91 L 70.92 49.60 L 72.38 49.60 L 72.38 53.30 L 74.17 52.53 Z M 64.73 51.88 L 66.71 51.88 L 66.71 48.27 L 68.14 48.27 L 68.14 51.88 L 69.91 51.88 L 69.91 53.30 L 68.14 53.30 L 68.14 57.57 Q 68.97 57.22 69.82 56.87 L 70.15 58.21 Q 68.87 58.82 66.25 60.03 Q 66.25 60.03 65.16 60.52 L 64.57 58.99 Q 65.21 58.76 66.07 58.41 Q 66.39 58.29 66.71 58.15 L 66.71 53.30 L 64.73 53.30 Z M 82.18 55.04 L 94.76 55.04 L 94.76 56.10 L 83.60 56.10 L 83.60 57.28 Q 83.60 57.74 83.56 58.27 L 95.37 58.27 L 95.37 59.30 L 93.40 59.30 L 94.43 59.83 Q 93.83 60.23 93.16 60.58 Q 92.79 60.76 92.46 60.91 Q 92.65 60.98 92.87 61.04 Q 94.12 61.36 95.64 61.48 Q 95.43 61.68 95.00 62.35 Q 95.00 62.35 94.87 62.64 Q 93.24 62.45 90.64 61.56 Q 90.64 61.56 89.69 60.82 Q 88.85 60.18 88.28 59.30 L 86.12 59.30 L 86.12 61.34 L 89.53 60.87 Q 89.46 61.11 89.40 61.78 Q 89.40 61.78 89.40 61.99 Q 87.88 62.24 86.03 62.56 Q 86.03 62.56 85.03 62.76 Q 85.03 62.76 84.58 62.87 Q 84.58 62.87 84.46 62.93 Q 84.41 62.76 84.18 62.31 Q 84.18 62.31 83.91 61.88 Q 83.91 61.88 83.78 61.73 Q 84.04 61.59 84.65 60.96 Q 84.65 60.96 84.65 60.44 L 84.65 59.30 L 83.45 59.30 Q 83.37 59.74 83.24 60.23 Q 83.03 60.99 82.26 62.44 Q 82.26 62.44 81.66 63.02 Q 81.54 62.88 81.14 62.52 Q 81.14 62.52 80.70 62.15 Q 80.70 62.15 80.53 62.08 Q 81.29 61.36 81.98 59.68 Q 81.98 59.68 82.18 57.99 Q 82.18 57.99 82.18 57.25 Z M 82.23 48.61 L 94.00 48.61 L 94.00 49.71 L 88.81 49.71 L 88.81 50.47 L 95.00 50.47 L 95.00 53.24 L 93.53 53.24 L 93.53 51.39 L 88.81 51.39 L 88.81 54.69 L 87.34 54.69 L 87.34 51.39 L 82.65 51.39 L 82.65 53.24 L 81.24 53.24 L 81.24 50.47 L 87.34 50.47 L 87.34 49.71 L 82.23 49.71 Z M 84.32 56.69 L 93.85 56.69 L 93.85 57.63 L 84.32 57.63 Z M 89.50 53.56 L 93.35 53.56 L 93.35 54.37 L 89.50 54.37 Z M 82.90 53.56 L 86.68 53.56 L 86.68 54.37 L 82.90 54.37 Z M 89.50 52.08 L 92.97 52.08 L 92.97 52.90 L 89.50 52.90 Z M 83.24 52.08 L 86.67 52.08 L 86.67 52.90 L 83.24 52.90 Z M 93.24 59.30 L 89.69 59.30 Q 90.12 59.78 90.73 60.15 Q 91.00 60.32 91.31 60.47 Q 91.54 60.34 91.80 60.20 Q 92.21 59.95 92.61 59.70 Q 92.97 59.48 93.24 59.30 Z M 102.03 57.66 L 110.33 57.66 L 110.33 62.87 L 108.99 62.87 L 108.99 62.34 L 103.32 62.34 L 103.32 62.91 L 102.03 62.91 Z M 100.07 48.15 L 101.42 48.55 Q 100.95 49.89 100.32 51.22 Q 100.23 51.41 100.14 51.59 L 100.14 62.98 L 98.75 62.98 L 98.75 54.00 Q 98.09 55.01 97.39 55.83 Q 97.31 55.65 97.03 55.09 Q 97.03 55.09 96.71 54.53 Q 96.71 54.53 96.57 54.37 Q 97.27 53.60 98.58 51.60 Q 98.58 51.60 99.69 49.31 Q 99.69 49.31 100.07 48.15 Z M 101.10 50.66 L 105.85 50.66 Q 105.69 50.24 105.40 49.70 Q 105.08 49.07 104.76 48.56 L 106.06 48.06 Q 106.39 48.55 107.07 49.73 Q 107.07 49.73 107.22 50.16 L 106.10 50.66 L 111.37 50.66 L 111.37 51.91 L 101.10 51.91 Z M 108.99 61.13 L 108.99 58.90 L 103.32 58.90 L 103.32 61.13 Z M 102.25 53.01 L 110.15 53.01 L 110.15 54.21 L 102.25 54.21 Z M 102.25 55.30 L 110.15 55.30 L 110.15 56.52 L 102.25 56.52 Z M 115.13 49.54 L 118.85 49.54 Q 118.99 49.22 119.11 48.84 Q 119.29 48.32 119.37 47.91 L 121.18 48.18 Q 120.92 48.70 120.65 49.20 Q 120.53 49.38 120.46 49.54 L 125.08 49.54 L 125.08 57.27 L 120.12 57.27 Q 120.44 57.56 120.76 57.89 Q 121.18 58.32 121.86 59.20 Q 121.86 59.20 122.07 59.56 L 120.84 60.31 Q 120.65 59.94 119.98 59.04 Q 119.98 59.04 119.18 58.13 Q 119.18 58.13 118.79 57.77 L 119.66 57.27 L 115.13 57.27 Z M 116.25 58.32 L 117.77 58.32 L 117.77 60.74 Q 117.77 61.07 118.18 61.27 Q 118.18 61.27 118.92 61.27 L 122.12 61.27 Q 122.53 61.27 122.93 61.02 Q 122.93 61.02 123.10 60.24 Q 123.10 60.24 123.14 59.46 Q 123.32 59.59 123.80 59.81 Q 123.80 59.81 124.33 59.97 Q 124.33 59.97 124.53 60.02 Q 124.46 61.07 124.00 62.23 Q 124.00 62.23 123.05 62.66 Q 123.05 62.66 122.21 62.66 L 118.81 62.66 Q 117.80 62.66 116.68 62.32 Q 116.68 62.32 116.25 61.49 Q 116.25 61.49 116.25 60.76 Z M 116.58 55.02 L 116.58 56.10 L 123.56 56.10 L 123.56 55.02 Z M 116.58 52.87 L 116.58 53.92 L 123.56 53.92 L 123.56 52.87 Z M 116.58 50.72 L 116.58 51.77 L 123.56 51.77 L 123.56 50.72 Z M 124.18 58.49 L 125.53 57.92 Q 125.89 58.41 126.64 59.60 Q 126.64 59.60 127.19 60.74 Q 127.19 60.74 127.34 61.22 L 125.91 61.84 Q 125.78 61.38 125.24 60.21 Q 125.24 60.21 124.55 58.99 Q 124.55 58.99 124.18 58.49 Z M 114.33 58.20 L 115.66 58.76 Q 115.45 59.27 114.95 60.52 Q 114.95 60.52 114.41 61.68 Q 114.41 61.68 114.14 62.16 L 112.75 61.51 Q 113.05 61.04 113.64 59.91 Q 113.64 59.91 114.15 58.70 Q 114.15 58.70 114.33 58.20 Z M 130.35 51.97 L 131.89 51.97 L 131.89 54.40 L 139.83 54.40 L 139.83 50.53 L 129.59 50.53 L 129.59 49.04 L 141.40 49.04 L 141.40 56.66 L 139.83 56.66 L 139.83 55.89 L 131.89 55.89 L 131.89 59.78 Q 131.89 60.27 132.20 60.81 Q 132.20 60.81 133.11 60.98 Q 133.11 60.98 134.00 60.98 L 139.74 60.98 Q 140.38 60.98 141.16 60.76 Q 141.16 60.76 141.60 60.12 Q 141.60 60.12 141.83 58.95 Q 141.83 58.95 141.93 58.02 Q 142.14 58.15 142.68 58.38 Q 142.68 58.38 143.24 58.58 Q 143.24 58.58 143.46 58.63 Q 143.34 59.73 142.92 61.24 Q 142.92 61.24 142.12 62.10 Q 142.12 62.10 140.79 62.49 Q 140.79 62.49 139.75 62.49 L 134.04 62.49 Q 132.64 62.49 131.02 62.02 Q 131.02 62.02 130.35 60.85 Q 130.35 60.85 130.35 59.77 Z M 154.23 48.08 L 155.66 48.08 L 155.66 50.35 L 158.20 50.35 L 158.41 50.31 L 159.48 50.55 Q 159.25 51.43 158.71 53.25 Q 158.71 53.25 158.46 53.89 L 157.18 53.59 Q 157.39 53.01 157.60 52.16 Q 157.66 51.95 157.71 51.77 L 155.66 51.77 L 155.66 54.32 L 157.71 54.32 L 157.96 54.26 L 158.85 54.61 Q 158.36 56.84 157.35 58.45 Q 156.89 59.19 156.35 59.83 Q 156.58 60.02 156.82 60.20 Q 158.07 61.11 159.69 61.59 Q 159.53 61.73 159.18 62.18 Q 159.18 62.18 158.85 62.67 Q 158.85 62.67 158.75 62.87 Q 156.76 62.18 155.34 60.85 Q 155.14 61.01 154.95 61.17 Q 153.57 62.26 151.91 62.91 Q 151.78 62.64 151.32 61.91 Q 151.32 61.91 151.11 61.68 Q 152.60 61.19 153.89 60.21 Q 154.14 60.02 154.36 59.83 Q 153.00 58.12 152.20 55.77 Q 152.17 56.18 152.14 56.61 Q 152.06 57.68 151.60 59.91 Q 151.60 59.91 150.75 61.99 Q 150.75 61.99 150.04 62.84 Q 149.93 62.69 149.51 62.31 Q 149.51 62.31 149.10 61.95 Q 149.10 61.95 148.93 61.88 Q 149.59 61.09 150.35 59.25 Q 150.35 59.25 150.73 57.31 Q 150.73 57.31 150.84 55.43 Q 150.84 55.43 150.84 54.59 L 150.84 50.35 L 154.23 50.35 Z M 149.74 53.94 L 150.64 54.77 Q 150.20 55.20 149.77 55.65 Q 149.45 55.97 149.16 56.21 Q 149.54 56.64 149.85 57.02 Q 150.15 57.39 150.28 57.57 L 149.50 58.74 Q 149.34 58.44 148.76 57.56 Q 148.76 57.56 148.44 57.09 Q 148.32 56.91 148.18 56.74 L 148.18 62.91 L 146.78 62.91 L 146.78 56.95 Q 145.96 57.94 145.16 58.64 Q 145.10 58.44 144.87 57.88 Q 144.87 57.88 144.61 57.33 Q 144.61 57.33 144.50 57.20 Q 145.34 56.53 146.97 54.56 Q 146.97 54.56 147.64 53.41 Q 148.00 52.82 148.26 52.23 L 144.76 52.23 L 144.76 50.87 L 147.43 50.87 Q 147.25 50.44 146.93 49.86 Q 146.57 49.22 146.25 48.69 L 147.40 48.12 Q 147.75 48.61 148.47 49.81 Q 148.47 49.81 148.68 50.24 L 147.64 50.87 L 148.97 50.87 L 149.19 50.81 L 149.94 51.39 Q 149.45 52.81 148.67 54.16 Q 148.43 54.58 148.18 54.96 L 148.18 55.07 Q 148.32 55.20 148.47 55.39 Q 148.52 55.45 148.55 55.49 Q 148.79 55.22 149.07 54.87 Q 149.48 54.34 149.74 53.94 Z M 155.34 58.84 Q 155.75 58.35 156.10 57.81 Q 156.75 56.84 157.13 55.65 L 153.50 55.65 Q 153.98 56.91 154.70 57.99 Q 155.00 58.44 155.34 58.84 Z M 152.23 54.32 L 154.23 54.32 L 154.23 51.77 L 152.23 51.77 Z M 160.87 48.79 L 168.17 48.79 L 168.17 50.15 L 167.10 50.15 L 167.10 58.44 Q 167.75 58.34 168.41 58.24 L 168.49 59.51 Q 167.78 59.63 167.10 59.77 L 167.10 62.90 L 165.60 62.90 L 165.60 60.03 Q 164.39 60.26 163.27 60.44 Q 162.04 60.64 161.02 60.82 L 160.70 59.38 Q 161.24 59.30 161.86 59.22 L 161.86 50.15 L 160.87 50.15 Z M 168.25 49.83 L 173.91 49.83 L 174.17 49.78 L 175.10 50.02 Q 174.75 53.27 173.86 55.77 Q 173.35 57.27 172.67 58.52 Q 172.84 58.81 173.03 59.09 Q 174.10 60.70 175.68 61.63 Q 175.51 61.77 175.13 62.18 Q 175.13 62.18 174.76 62.63 Q 174.76 62.63 174.65 62.82 Q 172.99 61.71 171.86 59.99 Q 171.83 59.94 171.80 59.89 Q 171.75 59.95 171.71 60.02 Q 170.41 61.80 168.75 62.95 Q 168.57 62.67 168.01 62.00 Q 168.01 62.00 167.77 61.81 Q 169.29 60.87 170.49 59.20 Q 170.76 58.85 171.00 58.45 Q 170.44 57.31 170.04 56.02 Q 169.35 53.83 168.92 51.25 L 168.25 51.25 Z M 171.83 56.91 Q 172.21 56.13 172.52 55.25 Q 173.18 53.41 173.51 51.25 L 170.28 51.25 Q 170.64 53.45 171.25 55.38 Q 171.53 56.18 171.83 56.91 Z M 165.60 55.49 L 165.60 53.43 L 163.31 53.43 L 163.31 55.49 Z M 165.60 58.66 L 165.60 56.79 L 163.31 56.79 L 163.31 59.01 Q 164.39 58.85 165.59 58.67 Q 165.60 58.67 165.60 58.66 Z M 165.60 52.12 L 165.60 50.15 L 163.31 50.15 L 163.31 52.12 Z M 182.15 52.61 L 185.68 52.61 L 185.68 48.06 L 187.18 48.06 L 187.18 52.61 L 190.57 52.61 L 190.57 61.19 Q 190.57 61.74 190.30 62.44 Q 190.30 62.44 189.88 62.61 Q 189.48 62.79 188.21 62.87 Q 188.21 62.87 187.31 62.87 Q 187.27 62.56 187.00 61.73 Q 187.00 61.73 186.84 61.43 Q 187.46 61.46 188.58 61.48 Q 188.58 61.48 188.78 61.46 Q 189.10 61.45 189.10 61.16 L 189.10 59.59 L 183.64 59.59 L 183.64 62.91 L 182.15 62.91 Z M 177.14 61.83 Q 177.54 61.22 178.49 59.51 Q 178.49 59.51 179.46 57.59 Q 179.46 57.59 179.88 56.67 L 181.00 57.59 Q 180.64 58.44 179.78 60.26 Q 179.78 60.26 178.89 62.02 Q 178.89 62.02 178.46 62.81 Z M 189.10 56.79 L 183.64 56.79 L 183.64 58.29 L 189.10 58.29 Z M 189.10 54.02 L 183.64 54.02 L 183.64 55.49 L 189.10 55.49 Z M 189.77 48.49 L 191.24 49.04 Q 190.84 49.86 189.91 51.48 Q 189.91 51.48 189.50 52.06 L 188.20 51.54 Q 188.47 51.13 189.05 50.08 Q 189.05 50.08 189.60 48.96 Q 189.60 48.96 189.77 48.49 Z M 176.67 53.56 L 177.53 52.49 Q 178.03 52.70 179.13 53.34 Q 179.13 53.34 180.12 54.02 Q 180.12 54.02 180.43 54.31 L 179.51 55.49 Q 179.22 55.20 178.26 54.49 Q 178.26 54.49 177.18 53.81 Q 177.18 53.81 176.67 53.56 Z M 181.69 49.16 L 182.97 48.59 Q 183.29 49.02 183.94 50.08 Q 183.94 50.08 184.47 51.09 Q 184.47 51.09 184.58 51.51 L 183.22 52.16 Q 183.13 51.74 182.64 50.70 Q 182.64 50.70 182.03 49.62 Q 182.03 49.62 181.69 49.16 Z M 177.42 49.28 L 178.30 48.24 Q 178.79 48.47 179.88 49.11 Q 179.88 49.11 180.82 49.78 Q 180.82 49.78 181.13 50.08 L 180.18 51.25 Q 179.91 50.95 178.99 50.24 Q 178.99 50.24 177.91 49.54 Q 177.91 49.54 177.42 49.28 Z" xml:space="preserve" style="font-weight:613;font-size:16px;line-height:1.2;font-family:'Dream Han Sans SC';-inkscape-font-specification:'Dream Han Sans SC weight=613';text-align:start;writing-mode:lr-tb;direction:ltr;text-anchor:start;fill:#ffffff" id="text3" data-original-text="此条地震信息已被取消" data-original-element="text"/>
</svg>