<?xml version="1.0" ?>
<svg xmlns="http://www.w3.org/2000/svg" xmlns:ns1="http://sodipodi.sourceforge.net/DTD/sodipodi-0.dtd" xmlns:ns2="http://www.inkscape.org/namespaces/inkscape" viewBox="0 0 180 40" version="1.1" height="40" width="180" id="svg6" ns1:docname="09ae855603644817cc4a8d0e5c41e9d0.svg" ns2:version="1.4.2 (f4327f4, 2025-05-13)">
  <defs id="defs6"/>
  <ns1:namedview id="namedview6" pagecolor="#505050" bordercolor="#eeeeee" borderopacity="1" ns2:showpageshadow="0" ns2:pageopacity="0" ns2:pagecheckerboard="0" ns2:deskcolor="#505050" ns2:zoom="9.85" ns2:cx="39.746193" ns2:cy="20.050761" ns2:window-width="1920" ns2:window-height="945" ns2:window-x="-9" ns2:window-y="40" ns2:window-maximized="1" ns2:current-layer="svg6"/>
  <path style="paint-order:stroke markers fill" stroke-width=".2" stroke-linejoin="round" stroke-linecap="round" stop-color="#000000" fill-opacity="0" fill="#fff" d="m0 0h180v40h-180z" id="path1"/>
  <path d="M 21.78 19.81 L 33.31 19.81 L 33.31 20.79 L 23.08 20.79 L 23.08 21.87 Q 23.08 22.29 23.04 22.78 L 33.87 22.78 L 33.87 23.72 L 32.06 23.72 L 33.00 24.20 Q 32.46 24.57 31.84 24.89 Q 31.50 25.06 31.20 25.20 Q 31.37 25.26 31.57 25.31 Q 32.72 25.61 34.12 25.72 Q 33.92 25.90 33.53 26.52 Q 33.53 26.52 33.41 26.78 Q 31.91 26.61 29.53 25.79 Q 29.53 25.79 28.66 25.11 Q 27.89 24.53 27.36 23.72 L 25.39 23.72 L 25.39 25.59 L 28.51 25.16 Q 28.45 25.38 28.40 26.00 Q 28.40 26.00 28.40 26.18 Q 27.00 26.42 25.30 26.71 Q 25.30 26.71 24.39 26.89 Q 24.39 26.89 23.98 26.99 Q 23.98 26.99 23.86 27.05 Q 23.82 26.89 23.61 26.47 Q 23.61 26.47 23.36 26.08 Q 23.36 26.08 23.25 25.95 Q 23.48 25.82 24.04 25.24 Q 24.04 25.24 24.04 24.76 L 24.04 23.72 L 22.94 23.72 Q 22.87 24.13 22.74 24.57 Q 22.56 25.27 21.85 26.60 Q 21.85 26.60 21.30 27.13 Q 21.19 27.00 20.83 26.67 Q 20.83 26.67 20.42 26.33 Q 20.42 26.33 20.27 26.27 Q 20.96 25.61 21.59 24.07 Q 21.59 24.07 21.78 22.51 Q 21.78 22.51 21.78 21.84 Z M 21.82 13.92 L 32.61 13.92 L 32.61 14.93 L 27.85 14.93 L 27.85 15.63 L 33.53 15.63 L 33.53 18.16 L 32.18 18.16 L 32.18 16.47 L 27.85 16.47 L 27.85 19.49 L 26.50 19.49 L 26.50 16.47 L 22.21 16.47 L 22.21 18.16 L 20.91 18.16 L 20.91 15.63 L 26.50 15.63 L 26.50 14.93 L 21.82 14.93 Z M 23.73 21.33 L 32.47 21.33 L 32.47 22.19 L 23.73 22.19 Z M 28.48 18.45 L 32.02 18.45 L 32.02 19.20 L 28.48 19.20 Z M 22.44 18.45 L 25.90 18.45 L 25.90 19.20 L 22.44 19.20 Z M 28.48 17.10 L 31.67 17.10 L 31.67 17.85 L 28.48 17.85 Z M 22.74 17.10 L 25.89 17.10 L 25.89 17.85 L 22.74 17.85 Z M 31.91 23.72 L 28.66 23.72 Q 29.05 24.16 29.61 24.50 Q 29.86 24.66 30.14 24.79 Q 30.36 24.67 30.59 24.54 Q 30.97 24.32 31.34 24.08 Q 31.67 23.88 31.91 23.72 Z M 38.18 21.88 L 46.35 21.88 L 46.59 21.83 L 47.46 22.28 Q 46.84 23.42 45.88 24.23 Q 45.27 24.71 44.60 25.11 Q 44.95 25.21 45.32 25.31 Q 46.90 25.70 48.72 25.84 Q 48.58 26.00 48.27 26.42 Q 48.27 26.42 48.00 26.85 Q 48.00 26.85 47.92 27.05 Q 46.04 26.84 44.42 26.36 Q 43.68 26.14 43.00 25.86 Q 42.05 26.21 40.99 26.46 Q 39.57 26.78 38.04 26.96 Q 37.97 26.71 37.63 26.02 Q 37.63 26.02 37.48 25.79 Q 38.88 25.69 40.22 25.42 Q 40.89 25.27 41.52 25.10 Q 40.26 24.32 39.40 23.22 L 39.95 23.00 L 38.18 23.00 Z M 36.32 14.82 L 41.92 14.82 Q 41.89 14.76 41.87 14.70 Q 41.67 14.13 41.44 13.67 L 42.83 13.35 Q 43.08 13.81 43.30 14.34 Q 43.40 14.59 43.48 14.82 L 48.50 14.82 L 48.50 16.11 L 37.68 16.11 L 37.68 18.76 Q 37.68 19.66 37.58 21.80 Q 37.58 21.80 37.28 24.04 Q 37.28 24.04 36.72 26.15 Q 36.72 26.15 36.27 27.03 Q 36.14 26.93 35.67 26.70 Q 35.67 26.70 35.20 26.47 Q 35.20 26.47 35.01 26.42 Q 35.46 25.58 35.98 23.62 Q 35.98 23.62 36.24 21.56 Q 36.24 21.56 36.32 19.61 Q 36.32 19.61 36.32 18.78 Z M 38.01 17.62 L 40.22 17.62 L 40.22 16.47 L 41.54 16.47 L 41.54 17.62 L 44.72 17.62 L 44.72 16.47 L 46.08 16.47 L 46.08 17.62 L 48.34 17.62 L 48.34 18.73 L 46.08 18.73 L 46.08 21.11 L 40.22 21.11 L 40.22 18.73 L 38.01 18.73 Z M 41.54 18.73 L 41.54 20.04 L 44.72 20.04 L 44.72 18.73 Z M 40.80 23.00 Q 41.49 23.73 42.53 24.29 Q 42.80 24.42 43.08 24.56 Q 43.99 24.16 44.70 23.62 Q 45.08 23.32 45.39 23.00 Z M 54.19 25.82 L 54.19 22.91 L 49.51 22.91 L 49.51 21.78 L 53.81 15.01 L 55.77 15.01 L 55.77 21.61 L 57.14 21.61 L 57.14 22.91 L 55.77 22.91 L 55.77 25.82 Z M 54.19 21.61 L 54.19 18.78 Q 54.19 18.34 54.25 17.12 Q 54.25 17.12 54.27 16.68 L 54.21 16.68 Q 54.00 17.09 53.58 17.92 Q 53.58 17.92 53.34 18.35 L 51.22 21.61 Z M 68.62 14.02 L 70.09 14.10 Q 69.96 16.69 69.25 20.79 Q 69.25 20.79 68.56 22.37 Q 68.55 22.39 68.55 22.41 Q 69.00 22.85 69.49 23.34 Q 70.20 24.07 71.46 25.52 Q 71.46 25.52 71.85 26.10 L 70.62 27.00 Q 70.27 26.43 69.07 24.95 Q 69.07 24.95 68.37 24.19 Q 68.13 23.91 67.88 23.66 Q 67.36 24.46 66.70 25.13 Q 65.53 26.29 63.75 27.12 Q 63.67 26.98 63.30 26.52 Q 63.30 26.52 62.87 26.07 Q 62.87 26.07 62.71 25.92 Q 64.42 25.23 66.64 23.13 Q 66.64 23.13 67.92 20.23 Q 67.92 20.23 68.52 16.41 Q 68.52 16.41 68.62 14.02 Z M 59.62 25.70 Q 59.54 25.52 59.28 25.10 Q 59.28 25.10 58.97 24.68 Q 58.97 24.68 58.84 24.57 Q 59.02 24.46 59.47 24.03 Q 59.47 24.03 59.82 23.44 Q 59.82 23.44 59.82 23.07 L 59.82 14.51 L 61.32 14.51 L 61.32 23.04 L 64.46 21.52 Q 64.52 21.83 64.75 22.60 Q 64.75 22.60 64.83 22.84 Q 63.57 23.47 61.83 24.35 Q 61.83 24.35 60.72 24.95 Q 60.72 24.95 60.07 25.33 Q 60.07 25.33 59.72 25.58 Q 59.72 25.58 59.62 25.70 Z M 62.96 15.50 L 64.15 14.87 Q 64.59 15.39 65.44 16.62 Q 65.44 16.62 66.16 17.80 Q 66.16 17.80 66.38 18.26 L 65.13 19.01 Q 64.93 18.54 64.24 17.31 Q 64.24 17.31 63.39 16.03 Q 63.39 16.03 62.96 15.50 Z M 72.95 24.95 L 78.36 24.95 L 78.36 13.64 L 79.83 13.64 L 79.83 18.05 L 85.21 18.05 L 85.21 19.42 L 79.83 19.42 L 79.83 24.95 L 86.22 24.95 L 86.22 26.35 L 72.95 26.35 Z" xml:space="preserve" style="font-weight:613;font-size:14.6667px;line-height:1.2;font-family:'Dream Han Sans SC';-inkscape-font-specification:'Dream Han Sans SC weight=613';text-align:start;writing-mode:lr-tb;direction:ltr;text-anchor:start;fill:#ffffff" id="text6" data-original-text="震度4以上" data-original-element="text"/>
</svg>