<?xml version="1.0" ?>
<svg xmlns="http://www.w3.org/2000/svg" xmlns:ns1="http://sodipodi.sourceforge.net/DTD/sodipodi-0.dtd" xmlns:ns2="http://www.inkscape.org/namespaces/inkscape" version="1.1" width="163.1" height="53.534" viewBox="0,0,163.1,53.534" id="svg7" ns1:docname="09ee4374804bd3e31c0aabb7e02c545b.svg" ns2:version="1.4.2 (f4327f4, 2025-05-13)">
  <defs id="defs7"/>
  <ns1:namedview id="namedview7" pagecolor="#505050" bordercolor="#eeeeee" borderopacity="1" ns2:showpageshadow="0" ns2:pageopacity="0" ns2:pagecheckerboard="0" ns2:deskcolor="#505050" ns2:zoom="3.8433485" ns2:cx="17.30262" ns2:cy="-4.0329416" ns2:window-width="1920" ns2:window-height="945" ns2:window-x="-9" ns2:window-y="40" ns2:window-maximized="1" ns2:current-layer="svg7"/>
  <g transform="matrix(1,0,0,1.0768814,-240,-193.83864)" id="g7">
    <g data-paper-data="{&quot;isPaintingLayer&quot;:true}" stroke="none" stroke-linecap="butt" stroke-linejoin="miter" stroke-miterlimit="10" stroke-dasharray="none" stroke-dashoffset="0" style="mix-blend-mode:normal" id="g6">
      <path d="m 248,180 h 147.1 c 4.432,0 8,2.69226 8,6.03645 v 28.32152 c 0,3.34419 -3.568,6.03645 -8,6.03645 H 248 c -4.432,0 -8,-2.69226 -8,-6.03645 V 186.03645 C 240,182.69226 243.568,180 248,180 Z" fill-opacity="0.7" fill="#000000" fill-rule="evenodd" stroke-width="0" id="path1"/>
    </g>
  </g>
  <path d="M 9.81 11.10 L 10.15 10.73 Q 10.36 10.83 10.81 11.11 Q 10.81 11.11 11.22 11.40 Q 11.22 11.40 11.34 11.53 L 11.05 11.89 L 11.83 11.89 Q 11.85 11.82 11.86 11.76 Q 11.93 11.34 11.93 10.98 L 11.93 10.08 L 12.66 10.08 L 12.66 11.00 Q 12.66 11.35 12.61 11.74 Q 12.59 11.81 12.58 11.89 L 14.49 11.89 L 14.49 12.54 L 12.39 12.54 Q 12.24 12.94 11.95 13.31 Q 11.66 13.69 10.68 14.40 Q 10.68 14.40 9.96 14.69 Q 9.91 14.59 9.76 14.37 Q 9.76 14.37 9.58 14.17 Q 9.58 14.17 9.50 14.10 Q 10.33 13.79 11.30 13.01 Q 11.30 13.01 11.54 12.59 Q 11.55 12.57 11.57 12.54 L 9.65 12.54 Q 9.70 12.65 9.74 12.78 Q 9.82 12.97 9.90 13.07 Q 9.41 13.47 8.82 13.98 Q 8.82 13.98 8.50 14.29 Q 8.50 14.29 8.41 14.37 Q 8.34 14.46 8.29 14.52 Q 8.29 14.53 8.29 14.53 Q 8.25 14.45 8.12 14.26 Q 8.12 14.26 7.97 14.06 Q 7.97 14.06 7.91 14.01 Q 7.99 13.95 8.17 13.72 Q 8.17 13.72 8.29 13.40 Q 8.29 13.40 8.29 13.20 L 8.29 10.42 L 7.20 10.42 L 7.20 9.70 L 8.98 9.70 L 8.98 12.94 L 9.61 12.44 Q 9.62 12.48 9.65 12.53 L 9.65 11.89 L 10.93 11.89 Q 10.82 11.79 10.67 11.67 Q 10.47 11.52 10.02 11.22 Q 10.02 11.22 9.81 11.10 Z M 10.09 7.90 L 11.72 7.90 L 11.72 7.21 L 12.46 7.21 L 12.46 7.90 L 14.09 7.90 L 14.09 8.54 L 12.46 8.54 L 12.46 9.17 L 13.86 9.17 L 13.97 9.13 L 14.45 9.25 Q 14.34 9.67 14.06 10.54 Q 14.06 10.54 13.91 10.85 L 13.32 10.70 Q 13.43 10.43 13.55 10.03 Q 13.59 9.92 13.62 9.81 L 9.81 9.81 L 9.81 9.17 L 11.72 9.17 L 11.72 8.54 L 10.09 8.54 Z M 12.35 13.17 L 12.80 12.75 Q 13.12 12.95 13.82 13.46 Q 13.82 13.46 14.44 13.97 Q 14.44 13.97 14.63 14.18 L 14.15 14.66 Q 13.97 14.46 13.37 13.93 Q 13.37 13.93 12.67 13.39 Q 12.67 13.39 12.35 13.17 Z M 7.66 7.85 L 8.13 7.36 Q 8.35 7.53 8.86 7.95 Q 8.86 7.95 9.29 8.37 Q 9.29 8.37 9.43 8.53 L 8.92 9.09 Q 8.78 8.92 8.36 8.48 Q 8.36 8.48 7.87 8.03 Q 7.87 8.03 7.66 7.85 Z M 10.40 10.39 L 10.72 10.03 Q 10.93 10.13 11.38 10.39 Q 11.38 10.39 11.77 10.65 Q 11.77 10.65 11.90 10.78 L 11.56 11.19 Q 11.38 11.01 10.71 10.56 Q 10.71 10.56 10.40 10.39 Z M 15.28 7.57 L 18.93 7.57 L 18.93 8.25 L 18.39 8.25 L 18.39 12.39 Q 18.72 12.34 19.05 12.29 L 19.09 12.93 Q 18.74 12.99 18.39 13.06 L 18.39 14.62 L 17.65 14.62 L 17.65 13.19 Q 17.04 13.30 16.48 13.39 Q 15.86 13.49 15.35 13.58 L 15.19 12.86 Q 15.46 12.82 15.77 12.78 L 15.77 8.25 L 15.28 8.25 Z M 18.97 8.09 L 21.80 8.09 L 21.93 8.06 L 22.39 8.18 Q 22.22 9.81 21.77 11.06 Q 21.52 11.81 21.18 12.43 Q 21.26 12.58 21.36 12.72 Q 21.90 13.53 22.68 13.99 Q 22.60 14.06 22.41 14.26 Q 22.41 14.26 22.22 14.49 Q 22.22 14.49 22.17 14.58 Q 21.34 14.03 20.77 13.17 Q 20.76 13.14 20.74 13.12 Q 20.72 13.15 20.70 13.18 Q 20.05 14.07 19.22 14.65 Q 19.13 14.51 18.85 14.17 Q 18.85 14.17 18.73 14.08 Q 19.49 13.61 20.09 12.78 Q 20.22 12.60 20.34 12.40 Q 20.06 11.83 19.86 11.18 Q 19.52 10.09 19.30 8.80 L 18.97 8.80 Z M 20.76 11.63 Q 20.95 11.24 21.10 10.80 Q 21.43 9.88 21.60 8.80 L 19.98 8.80 Q 20.16 9.90 20.47 10.86 Q 20.61 11.26 20.76 11.63 Z M 17.65 10.92 L 17.65 9.89 L 16.50 9.89 L 16.50 10.92 Z M 17.65 12.50 L 17.65 11.57 L 16.50 11.57 L 16.50 12.68 Q 17.04 12.60 17.64 12.51 Q 17.65 12.51 17.65 12.50 Z M 17.65 9.23 L 17.65 8.25 L 16.50 8.25 L 16.50 9.23 Z M 25.96 13.72 Q 26.48 13.69 27.15 13.65 Q 27.50 13.64 27.87 13.62 L 27.87 12.58 L 26.32 12.58 L 26.32 10.35 L 27.87 10.35 L 27.87 9.72 L 26.50 9.72 L 26.50 7.64 L 29.97 7.64 L 29.97 9.72 L 28.59 9.72 L 28.59 10.35 L 30.20 10.35 L 30.20 12.58 L 28.59 12.58 L 28.59 13.58 Q 29.04 13.54 29.49 13.52 Q 29.49 13.51 29.48 13.50 Q 29.29 13.17 29.11 12.89 L 29.73 12.65 Q 29.92 12.92 30.29 13.57 Q 30.29 13.57 30.60 14.18 Q 30.60 14.18 30.67 14.43 L 30.02 14.71 Q 29.95 14.48 29.81 14.17 Q 29.23 14.21 28.64 14.26 Q 27.92 14.32 26.60 14.42 Q 26.60 14.42 26.06 14.46 Z M 23.54 9.41 L 25.18 9.41 L 25.18 8.32 L 23.35 8.32 L 23.35 7.63 L 25.89 7.63 L 25.89 10.10 L 24.15 10.10 Q 24.14 10.19 24.13 10.29 Q 24.08 10.75 24.03 11.18 Q 24.02 11.21 24.02 11.26 L 25.88 11.26 L 25.87 11.31 Q 25.87 11.37 25.86 11.51 Q 25.86 11.51 25.86 11.56 Q 25.81 12.46 25.69 13.58 Q 25.69 13.58 25.53 14.19 Q 25.53 14.19 25.41 14.32 Q 25.29 14.45 25.02 14.57 Q 25.02 14.57 24.84 14.58 Q 24.69 14.61 24.18 14.60 Q 24.18 14.60 23.90 14.59 Q 23.89 14.43 23.77 14.04 Q 23.77 14.04 23.68 13.90 Q 23.94 13.92 24.41 13.93 Q 24.41 13.93 24.51 13.93 Q 24.61 13.93 24.74 13.90 Q 24.74 13.90 24.78 13.84 Q 24.86 13.76 24.99 13.23 Q 24.99 13.23 25.04 12.71 Q 25.08 12.39 25.10 11.94 L 23.65 11.94 L 23.65 11.94 L 23.23 11.94 Q 23.29 11.60 23.41 10.74 Q 23.41 10.74 23.51 9.81 Q 23.51 9.81 23.54 9.41 Z M 27.18 8.26 L 27.18 9.10 L 29.25 9.10 L 29.25 8.26 Z M 28.59 10.97 L 28.59 11.97 L 29.51 11.97 L 29.51 10.97 Z M 26.98 10.97 L 26.98 11.97 L 27.87 11.97 L 27.87 10.97 Z M 31.93 10.69 L 38.22 10.69 L 38.22 11.22 L 32.65 11.22 L 32.65 11.81 Q 32.65 12.04 32.62 12.31 L 38.53 12.31 L 38.53 12.82 L 37.54 12.82 L 38.06 13.09 Q 37.76 13.29 37.42 13.46 Q 37.24 13.55 37.07 13.63 Q 37.17 13.66 37.28 13.69 Q 37.90 13.85 38.66 13.91 Q 38.56 14.01 38.34 14.35 Q 38.34 14.35 38.28 14.49 Q 37.46 14.40 36.16 13.95 Q 36.16 13.95 35.69 13.58 Q 35.27 13.26 34.98 12.82 L 33.90 12.82 L 33.90 13.85 L 35.61 13.61 Q 35.57 13.73 35.54 14.06 Q 35.54 14.06 35.54 14.17 Q 34.78 14.29 33.86 14.46 Q 33.86 14.46 33.36 14.55 Q 33.36 14.55 33.13 14.61 Q 33.13 14.61 33.07 14.64 Q 33.05 14.55 32.93 14.33 Q 32.93 14.33 32.80 14.11 Q 32.80 14.11 32.74 14.04 Q 32.86 13.97 33.17 13.65 Q 33.17 13.65 33.17 13.39 L 33.17 12.82 L 32.57 12.82 Q 32.53 13.04 32.46 13.29 Q 32.36 13.67 31.97 14.39 Q 31.97 14.39 31.67 14.69 Q 31.61 14.62 31.41 14.43 Q 31.41 14.43 31.19 14.25 Q 31.19 14.25 31.11 14.21 Q 31.49 13.85 31.83 13.01 Q 31.83 13.01 31.93 12.17 Q 31.93 12.17 31.93 11.80 Z M 31.96 7.48 L 37.84 7.48 L 37.84 8.03 L 35.25 8.03 L 35.25 8.41 L 38.34 8.41 L 38.34 9.79 L 37.61 9.79 L 37.61 8.87 L 35.25 8.87 L 35.25 10.52 L 34.51 10.52 L 34.51 8.87 L 32.17 8.87 L 32.17 9.79 L 31.46 9.79 L 31.46 8.41 L 34.51 8.41 L 34.51 8.03 L 31.96 8.03 Z M 33.00 11.52 L 37.77 11.52 L 37.77 11.99 L 33.00 11.99 Z M 35.59 9.95 L 37.52 9.95 L 37.52 10.36 L 35.59 10.36 Z M 32.29 9.95 L 34.18 9.95 L 34.18 10.36 L 32.29 10.36 Z M 35.59 9.21 L 37.33 9.21 L 37.33 9.62 L 35.59 9.62 Z M 32.46 9.21 L 34.18 9.21 L 34.18 9.62 L 32.46 9.62 Z M 37.46 12.82 L 35.69 12.82 Q 35.90 13.06 36.21 13.25 Q 36.34 13.33 36.50 13.41 Q 36.61 13.34 36.74 13.27 Q 36.95 13.15 37.15 13.02 Q 37.33 12.91 37.46 12.82 Z M 39.26 13.76 L 40.13 13.76 L 40.13 11.50 L 45.75 11.50 L 45.75 13.76 L 46.57 13.76 L 46.57 14.44 L 39.26 14.44 Z M 43.76 7.23 L 44.49 7.37 Q 44.37 7.85 44.21 8.32 L 46.48 8.32 L 46.48 9.00 L 43.93 9.00 Q 43.77 9.38 43.57 9.73 Q 43.29 10.25 42.94 10.64 Q 42.89 10.58 42.66 10.41 Q 42.66 10.41 42.41 10.24 Q 42.41 10.24 42.33 10.18 Q 42.82 9.66 43.55 8.10 Q 43.55 8.10 43.76 7.23 Z M 41.40 7.23 L 42.15 7.23 L 42.15 11.08 L 41.40 11.08 Z M 39.82 7.50 L 40.56 7.50 L 40.56 10.84 L 39.82 10.84 Z M 44.07 13.76 L 45.02 13.76 L 45.02 12.14 L 44.07 12.14 Z M 42.45 13.76 L 43.38 13.76 L 43.38 12.14 L 42.45 12.14 Z M 40.84 13.76 L 41.76 13.76 L 41.76 12.14 L 40.84 12.14 Z M 43.97 9.80 L 44.55 9.41 Q 44.82 9.59 45.41 10.06 Q 45.41 10.06 45.92 10.52 Q 45.92 10.52 46.08 10.71 L 45.47 11.16 Q 45.32 10.97 44.82 10.49 Q 44.82 10.49 44.25 10.00 Q 44.25 10.00 43.97 9.80 Z M 50.78 13.28 L 51.25 13.00 Q 51.44 13.19 51.86 13.65 Q 51.86 13.65 52.22 14.09 Q 52.22 14.09 52.32 14.26 L 51.83 14.58 Q 51.74 14.41 51.38 13.95 Q 51.38 13.95 50.97 13.47 Q 50.97 13.47 50.78 13.28 Z M 49.38 7.66 L 52.14 7.66 L 52.14 12.75 L 51.54 12.75 L 51.54 8.21 L 49.95 8.21 L 49.95 12.78 L 49.38 12.78 Z M 53.77 7.33 L 54.38 7.33 L 54.38 13.82 Q 54.38 14.10 54.23 14.41 Q 54.23 14.41 54.07 14.49 Q 53.90 14.57 53.34 14.62 Q 53.34 14.62 52.90 14.62 Q 52.89 14.49 52.77 14.12 Q 52.77 14.12 52.70 13.98 Q 53.02 13.99 53.52 13.99 Q 53.52 13.99 53.61 13.99 Q 53.77 13.99 53.77 13.83 Z M 52.67 7.94 L 53.25 7.94 L 53.25 12.79 L 52.67 12.79 Z M 50.44 8.74 L 51.00 8.74 L 51.00 11.67 Q 51.00 12.07 50.88 12.90 Q 50.88 12.90 50.54 13.69 Q 50.54 13.69 49.87 14.37 Q 49.87 14.37 49.34 14.63 Q 49.30 14.57 49.18 14.39 Q 49.18 14.39 49.04 14.21 Q 49.04 14.21 48.99 14.17 Q 49.48 13.94 50.06 13.36 Q 50.06 13.36 50.34 12.70 Q 50.34 12.70 50.44 12.01 Q 50.44 12.01 50.44 11.66 Z M 47.50 7.84 L 47.95 7.29 Q 48.17 7.40 48.66 7.69 Q 48.66 7.69 49.13 7.97 Q 49.13 7.97 49.27 8.10 L 48.81 8.71 Q 48.67 8.58 48.22 8.27 Q 48.22 8.27 47.73 7.96 Q 47.73 7.96 47.50 7.84 Z M 47.17 9.98 L 47.60 9.44 Q 47.82 9.55 48.32 9.82 Q 48.32 9.82 48.78 10.10 Q 48.78 10.10 48.93 10.22 L 48.49 10.82 Q 48.34 10.70 47.89 10.41 Q 47.89 10.41 47.39 10.10 Q 47.39 10.10 47.17 9.98 Z M 47.32 14.15 Q 47.48 13.84 47.85 12.99 Q 47.85 12.99 48.23 12.04 Q 48.23 12.04 48.39 11.58 L 49.00 11.98 Q 48.86 12.40 48.52 13.29 Q 48.52 13.29 48.18 14.16 Q 48.18 14.16 48.01 14.54 Z M 55.55 8.50 L 56.45 8.50 Q 56.50 8.36 56.54 8.18 Q 56.61 7.93 56.71 7.42 Q 56.71 7.42 56.74 7.20 L 57.56 7.33 Q 57.43 7.72 57.29 8.11 Q 57.21 8.33 57.14 8.50 L 58.44 8.50 L 58.44 10.03 Q 58.69 9.69 58.91 9.26 Q 59.14 8.80 59.52 7.74 Q 59.52 7.74 59.65 7.20 L 60.38 7.37 Q 60.23 7.92 60.04 8.46 L 62.38 8.46 L 62.38 8.69 Q 62.38 8.78 62.38 8.82 Q 62.34 10.19 62.25 12.09 Q 62.25 12.09 62.13 13.30 Q 62.13 13.30 61.96 13.97 Q 61.96 13.97 61.84 14.13 Q 61.69 14.33 61.37 14.48 Q 61.37 14.48 61.13 14.51 Q 60.93 14.53 60.26 14.53 Q 60.26 14.53 59.92 14.51 Q 59.91 14.35 59.77 13.93 Q 59.77 13.93 59.66 13.78 Q 60.06 13.81 60.71 13.83 Q 60.71 13.83 60.86 13.83 Q 60.98 13.83 61.13 13.78 Q 61.13 13.78 61.21 13.69 Q 61.30 13.58 61.45 12.94 Q 61.45 12.94 61.56 11.74 Q 61.56 11.74 61.60 10.82 Q 61.64 10.10 61.66 9.16 L 59.77 9.16 Q 59.66 9.40 59.55 9.62 Q 59.30 10.13 59.02 10.51 Q 58.96 10.45 58.73 10.28 Q 58.73 10.28 58.61 10.20 Q 58.51 10.13 58.44 10.10 L 58.44 13.81 L 56.24 13.81 L 56.24 14.42 L 55.55 14.42 Z M 56.24 13.13 L 57.74 13.13 L 57.74 11.35 L 56.24 11.35 Z M 57.74 10.69 L 57.74 9.17 L 56.24 9.17 L 56.24 10.69 Z M 59.26 10.64 L 59.86 10.31 Q 60.07 10.58 60.54 11.25 Q 60.54 11.25 60.95 11.87 Q 60.95 11.87 61.08 12.11 L 60.44 12.51 Q 60.33 12.26 59.93 11.62 Q 59.93 11.62 59.48 10.94 Q 59.48 10.94 59.26 10.64 Z M 63.34 7.58 L 65.86 7.58 L 65.99 7.54 L 66.45 7.85 Q 66.25 8.17 65.77 8.81 Q 65.77 8.81 65.50 9.11 Q 65.32 9.31 65.14 9.48 Q 65.21 9.52 65.27 9.56 Q 65.60 9.78 65.81 9.94 L 65.63 10.17 L 66.10 10.17 L 66.21 10.15 L 66.67 10.27 Q 66.53 10.75 66.19 11.75 Q 66.19 11.75 66.05 12.09 L 65.48 11.95 Q 65.57 11.74 65.75 11.17 Q 65.75 11.17 65.84 10.86 Q 65.84 10.85 65.85 10.85 L 65.16 10.85 L 65.16 13.79 Q 65.16 14.08 65.02 14.41 Q 65.02 14.41 64.82 14.49 Q 64.63 14.58 64.06 14.62 Q 64.06 14.62 63.66 14.62 Q 63.63 14.46 63.50 14.06 Q 63.50 14.06 63.41 13.90 Q 63.70 13.91 64.20 13.91 Q 64.20 13.91 64.28 13.91 Q 64.37 13.90 64.43 13.85 Q 64.43 13.85 64.43 13.78 L 64.43 10.85 L 63.17 10.85 L 63.17 10.17 L 64.97 10.17 Q 64.92 10.14 64.86 10.10 Q 64.54 9.87 63.84 9.39 Q 63.84 9.39 63.54 9.20 L 63.94 8.71 Q 64.24 8.90 64.59 9.12 Q 64.61 9.13 64.62 9.13 Q 64.80 8.96 64.99 8.74 Q 65.20 8.49 65.38 8.24 L 63.34 8.24 Z M 66.58 7.55 L 70.61 7.55 L 70.61 8.21 L 69.04 8.21 Q 68.96 8.46 68.88 8.70 Q 68.84 8.82 68.80 8.93 L 70.30 8.93 L 70.30 12.74 L 69.57 12.74 L 69.57 9.61 L 67.56 9.61 L 67.56 12.76 L 66.86 12.76 L 66.86 8.93 L 68.07 8.93 Q 68.12 8.74 68.16 8.54 Q 68.20 8.37 68.23 8.21 L 66.58 8.21 Z M 68.20 10.07 L 68.91 10.07 L 68.91 11.62 Q 68.91 12.00 68.75 12.81 Q 68.75 12.81 68.28 13.61 Q 68.28 13.61 67.38 14.31 Q 67.38 14.31 66.61 14.60 Q 66.55 14.48 66.28 14.17 Q 66.28 14.17 66.15 14.06 Q 66.85 13.83 67.66 13.23 Q 67.66 13.23 68.06 12.57 Q 68.06 12.57 68.20 11.90 Q 68.20 11.90 68.20 11.61 Z M 68.70 13.33 L 69.19 12.88 Q 69.43 13.06 69.98 13.52 Q 69.98 13.52 70.49 13.96 Q 70.49 13.96 70.64 14.13 L 70.12 14.65 Q 69.97 14.47 69.49 14.01 Q 69.49 14.01 68.94 13.53 Q 68.94 13.53 68.70 13.33 Z M 74.78 13.28 L 75.25 13.00 Q 75.44 13.19 75.86 13.65 Q 75.86 13.65 76.22 14.09 Q 76.22 14.09 76.32 14.26 L 75.83 14.58 Q 75.74 14.41 75.38 13.95 Q 75.38 13.95 74.97 13.47 Q 74.97 13.47 74.78 13.28 Z M 73.38 7.66 L 76.14 7.66 L 76.14 12.75 L 75.54 12.75 L 75.54 8.21 L 73.95 8.21 L 73.95 12.78 L 73.38 12.78 Z M 77.77 7.33 L 78.38 7.33 L 78.38 13.82 Q 78.38 14.10 78.23 14.41 Q 78.23 14.41 78.07 14.49 Q 77.90 14.57 77.34 14.62 Q 77.34 14.62 76.90 14.62 Q 76.89 14.49 76.77 14.12 Q 76.77 14.12 76.70 13.98 Q 77.02 13.99 77.52 13.99 Q 77.52 13.99 77.61 13.99 Q 77.77 13.99 77.77 13.83 Z M 76.67 7.94 L 77.25 7.94 L 77.25 12.79 L 76.67 12.79 Z M 74.44 8.74 L 75.00 8.74 L 75.00 11.67 Q 75.00 12.07 74.88 12.90 Q 74.88 12.90 74.54 13.69 Q 74.54 13.69 73.87 14.37 Q 73.87 14.37 73.34 14.63 Q 73.30 14.57 73.18 14.39 Q 73.18 14.39 73.04 14.21 Q 73.04 14.21 72.99 14.17 Q 73.48 13.94 74.06 13.36 Q 74.06 13.36 74.34 12.70 Q 74.34 12.70 74.44 12.01 Q 74.44 12.01 74.44 11.66 Z M 71.50 7.84 L 71.95 7.29 Q 72.17 7.40 72.66 7.69 Q 72.66 7.69 73.13 7.97 Q 73.13 7.97 73.27 8.10 L 72.81 8.71 Q 72.67 8.58 72.22 8.27 Q 72.22 8.27 71.73 7.96 Q 71.73 7.96 71.50 7.84 Z M 71.17 9.98 L 71.60 9.44 Q 71.82 9.55 72.32 9.82 Q 72.32 9.82 72.78 10.10 Q 72.78 10.10 72.93 10.22 L 72.49 10.82 Q 72.34 10.70 71.89 10.41 Q 71.89 10.41 71.39 10.10 Q 71.39 10.10 71.17 9.98 Z M 71.32 14.15 Q 71.48 13.84 71.85 12.99 Q 71.85 12.99 72.23 12.04 Q 72.23 12.04 72.39 11.58 L 73.00 11.98 Q 72.86 12.40 72.52 13.29 Q 72.52 13.29 72.18 14.16 Q 72.18 14.16 72.01 14.54 Z M 79.93 10.69 L 86.22 10.69 L 86.22 11.22 L 80.65 11.22 L 80.65 11.81 Q 80.65 12.04 80.62 12.31 L 86.53 12.31 L 86.53 12.82 L 85.54 12.82 L 86.06 13.09 Q 85.76 13.29 85.42 13.46 Q 85.24 13.55 85.07 13.63 Q 85.17 13.66 85.28 13.69 Q 85.90 13.85 86.66 13.91 Q 86.56 14.01 86.34 14.35 Q 86.34 14.35 86.28 14.49 Q 85.46 14.40 84.16 13.95 Q 84.16 13.95 83.69 13.58 Q 83.27 13.26 82.98 12.82 L 81.90 12.82 L 81.90 13.85 L 83.61 13.61 Q 83.57 13.73 83.54 14.06 Q 83.54 14.06 83.54 14.17 Q 82.78 14.29 81.86 14.46 Q 81.86 14.46 81.36 14.55 Q 81.36 14.55 81.13 14.61 Q 81.13 14.61 81.07 14.64 Q 81.05 14.55 80.93 14.33 Q 80.93 14.33 80.80 14.11 Q 80.80 14.11 80.74 14.04 Q 80.86 13.97 81.17 13.65 Q 81.17 13.65 81.17 13.39 L 81.17 12.82 L 80.57 12.82 Q 80.53 13.04 80.46 13.29 Q 80.36 13.67 79.97 14.39 Q 79.97 14.39 79.67 14.69 Q 79.61 14.62 79.41 14.43 Q 79.41 14.43 79.19 14.25 Q 79.19 14.25 79.11 14.21 Q 79.49 13.85 79.83 13.01 Q 79.83 13.01 79.93 12.17 Q 79.93 12.17 79.93 11.80 Z M 79.96 7.48 L 85.84 7.48 L 85.84 8.03 L 83.25 8.03 L 83.25 8.41 L 86.34 8.41 L 86.34 9.79 L 85.61 9.79 L 85.61 8.87 L 83.25 8.87 L 83.25 10.52 L 82.51 10.52 L 82.51 8.87 L 80.17 8.87 L 80.17 9.79 L 79.46 9.79 L 79.46 8.41 L 82.51 8.41 L 82.51 8.03 L 79.96 8.03 Z M 81.00 11.52 L 85.77 11.52 L 85.77 11.99 L 81.00 11.99 Z M 83.59 9.95 L 85.52 9.95 L 85.52 10.36 L 83.59 10.36 Z M 80.29 9.95 L 82.18 9.95 L 82.18 10.36 L 80.29 10.36 Z M 83.59 9.21 L 85.33 9.21 L 85.33 9.62 L 83.59 9.62 Z M 80.46 9.21 L 82.18 9.21 L 82.18 9.62 L 80.46 9.62 Z M 85.46 12.82 L 83.69 12.82 Q 83.90 13.06 84.21 13.25 Q 84.34 13.33 84.50 13.41 Q 84.61 13.34 84.74 13.27 Q 84.95 13.15 85.15 13.02 Q 85.33 12.91 85.46 12.82 Z M 88.88 11.82 L 93.34 11.82 L 93.47 11.79 L 93.94 12.04 Q 93.61 12.66 93.08 13.10 Q 92.75 13.37 92.38 13.58 Q 92.57 13.64 92.77 13.69 Q 93.64 13.90 94.63 13.98 Q 94.55 14.06 94.38 14.29 Q 94.38 14.29 94.24 14.53 Q 94.24 14.53 94.19 14.64 Q 93.17 14.53 92.29 14.26 Q 91.88 14.14 91.51 13.99 Q 90.99 14.18 90.41 14.32 Q 89.64 14.49 88.81 14.59 Q 88.77 14.46 88.58 14.08 Q 88.58 14.08 88.50 13.95 Q 89.26 13.90 89.99 13.75 Q 90.36 13.67 90.70 13.58 Q 90.02 13.15 89.54 12.55 L 89.85 12.43 L 88.88 12.43 Z M 87.86 7.97 L 90.92 7.97 Q 90.90 7.94 90.90 7.90 Q 90.78 7.59 90.66 7.34 L 91.41 7.17 Q 91.55 7.42 91.67 7.71 Q 91.73 7.85 91.77 7.97 L 94.51 7.97 L 94.51 8.67 L 88.61 8.67 L 88.61 10.12 Q 88.61 10.61 88.55 11.78 Q 88.55 11.78 88.39 13.00 Q 88.39 13.00 88.09 14.15 Q 88.09 14.15 87.84 14.63 Q 87.77 14.58 87.51 14.45 Q 87.51 14.45 87.25 14.33 Q 87.25 14.33 87.15 14.29 Q 87.40 13.84 87.68 12.77 Q 87.68 12.77 87.82 11.65 Q 87.82 11.65 87.86 10.58 Q 87.86 10.58 87.86 10.13 Z M 88.79 9.49 L 89.99 9.49 L 89.99 8.87 L 90.71 8.87 L 90.71 9.49 L 92.45 9.49 L 92.45 8.87 L 93.19 8.87 L 93.19 9.49 L 94.42 9.49 L 94.42 10.10 L 93.19 10.10 L 93.19 11.40 L 89.99 11.40 L 89.99 10.10 L 88.79 10.10 Z M 90.71 10.10 L 90.71 10.81 L 92.45 10.81 L 92.45 10.10 Z M 90.31 12.43 Q 90.69 12.83 91.25 13.13 Q 91.40 13.21 91.55 13.28 Q 92.05 13.06 92.44 12.77 Q 92.65 12.61 92.81 12.43 Z M 95.54 7.54 L 102.28 7.54 L 102.28 14.65 L 101.53 14.65 L 101.53 14.33 L 96.26 14.33 L 96.26 14.65 L 95.54 14.65 Z M 101.53 13.65 L 101.53 8.23 L 96.26 8.23 L 96.26 13.65 Z M 98.19 8.31 L 98.81 8.52 Q 98.67 8.74 98.51 8.94 L 100.45 8.94 L 100.56 8.91 L 100.98 9.17 Q 100.67 9.66 100.19 10.07 Q 99.90 10.31 99.58 10.53 Q 99.83 10.63 100.09 10.72 Q 100.77 10.96 101.49 11.09 Q 101.38 11.18 101.13 11.52 Q 101.13 11.52 101.06 11.65 Q 100.34 11.49 99.65 11.21 Q 99.29 11.06 98.96 10.90 Q 98.45 11.16 97.90 11.36 Q 97.27 11.60 96.65 11.75 Q 96.61 11.65 96.50 11.42 Q 96.50 11.42 96.37 11.20 Q 96.37 11.20 96.30 11.13 Q 96.90 11.01 97.50 10.82 Q 97.92 10.69 98.32 10.51 Q 97.90 10.23 97.57 9.90 Q 97.26 10.17 96.95 10.38 Q 96.90 10.32 96.71 10.15 Q 96.71 10.15 96.51 9.98 Q 96.51 9.98 96.44 9.94 Q 96.94 9.64 97.90 8.78 Q 97.90 8.78 98.19 8.31 Z M 97.07 12.80 L 97.42 12.29 Q 97.82 12.33 98.72 12.49 Q 98.72 12.49 99.59 12.68 Q 99.59 12.68 100.38 12.88 Q 100.38 12.88 100.67 12.98 L 100.34 13.53 Q 99.95 13.38 98.85 13.10 Q 98.85 13.10 97.63 12.86 Q 97.63 12.86 97.07 12.80 Z M 97.84 11.78 L 98.15 11.33 Q 98.48 11.40 99.21 11.60 Q 99.21 11.60 99.86 11.82 Q 99.86 11.82 100.09 11.94 L 99.78 12.42 Q 99.56 12.30 98.90 12.06 Q 98.90 12.06 98.18 11.85 Q 98.18 11.85 97.84 11.78 Z M 98.93 10.21 Q 99.32 10.00 99.64 9.76 Q 99.79 9.64 99.92 9.52 L 98.00 9.52 Q 98.34 9.86 98.84 10.15 Q 98.89 10.18 98.93 10.21 Z M 109.76 10.97 L 110.26 11.44 Q 109.97 11.62 109.66 11.79 Q 109.54 11.85 109.43 11.90 Q 109.54 12.20 109.68 12.47 Q 109.87 12.85 110.39 13.44 Q 110.39 13.44 110.70 13.62 Q 110.58 13.71 110.30 14.04 Q 110.30 14.04 110.22 14.18 Q 109.70 13.84 109.34 13.21 Q 109.06 12.72 108.89 12.17 Q 108.70 12.25 108.54 12.32 Q 108.54 12.32 108.54 12.32 Q 108.66 12.74 108.68 13.53 Q 108.68 13.53 108.51 14.16 Q 108.51 14.16 108.34 14.33 Q 108.18 14.51 107.83 14.63 Q 107.83 14.63 107.61 14.64 Q 107.38 14.65 107.11 14.62 Q 107.10 14.49 107.02 14.12 Q 107.02 14.12 106.93 13.97 Q 107.09 13.99 107.36 14.01 Q 107.36 14.01 107.45 14.01 Q 107.57 14.01 107.74 13.95 Q 107.74 13.95 107.81 13.85 Q 107.92 13.74 108.02 13.28 Q 108.02 13.28 107.99 12.97 Q 107.99 12.97 107.99 12.96 Q 107.83 13.10 107.65 13.23 Q 107.16 13.58 106.09 14.15 Q 106.09 14.15 105.57 14.33 Q 105.50 14.21 105.24 13.90 Q 105.24 13.90 105.13 13.80 Q 105.65 13.65 106.71 13.17 Q 106.71 13.17 107.18 12.87 Q 107.58 12.61 107.87 12.33 Q 107.81 12.14 107.72 11.96 Q 107.53 12.12 107.29 12.27 Q 106.90 12.54 106.02 13.00 Q 106.02 13.00 105.63 13.14 Q 105.56 13.03 105.32 12.75 Q 105.32 12.75 105.22 12.66 Q 105.61 12.55 106.47 12.18 Q 106.47 12.18 106.86 11.96 Q 107.22 11.75 107.45 11.53 Q 107.34 11.38 107.19 11.25 Q 107.02 11.36 106.83 11.47 Q 106.34 11.77 105.60 12.00 Q 105.54 11.90 105.29 11.63 Q 105.29 11.63 105.18 11.53 Q 105.87 11.33 106.34 11.07 Q 106.67 10.89 106.90 10.69 L 105.77 10.69 L 105.77 9.50 Q 105.60 9.64 105.42 9.78 Q 105.38 9.70 105.21 9.51 Q 105.21 9.51 105.02 9.34 Q 105.02 9.34 104.94 9.29 Q 105.38 8.99 106.06 8.28 Q 106.06 8.28 106.58 7.55 Q 106.58 7.55 106.74 7.22 L 107.46 7.35 Q 107.34 7.57 107.22 7.78 L 108.57 7.78 L 108.71 7.74 L 109.14 8.07 Q 108.93 8.42 108.63 8.78 Q 108.58 8.85 108.54 8.90 L 110.13 8.90 L 110.13 10.69 L 107.78 10.69 Q 107.71 10.78 107.63 10.87 Q 107.62 10.87 107.62 10.88 Q 107.96 11.15 108.18 11.50 Q 108.27 11.65 108.35 11.81 Q 108.47 11.75 108.61 11.69 Q 108.93 11.51 109.54 11.13 Q 109.54 11.13 109.76 10.97 Z M 104.90 7.25 L 105.61 7.46 Q 105.38 8.14 105.04 8.81 Q 104.93 9.02 104.82 9.23 L 104.82 14.62 L 104.10 14.62 L 104.10 10.39 Q 103.81 10.79 103.51 11.13 Q 103.47 11.03 103.33 10.74 Q 103.33 10.74 103.16 10.45 Q 103.16 10.45 103.09 10.36 Q 103.45 9.97 104.13 8.97 Q 104.13 8.97 104.70 7.83 Q 104.70 7.83 104.90 7.25 Z M 108.30 9.46 Q 108.29 9.55 108.27 9.65 Q 108.23 9.88 108.12 10.13 L 109.43 10.13 L 109.43 9.46 Z M 106.44 9.46 L 106.44 10.13 L 107.41 10.13 Q 107.45 10.07 107.49 10.01 Q 107.63 9.75 107.67 9.53 Q 107.68 9.49 107.69 9.46 Z M 107.75 8.90 Q 107.85 8.79 107.95 8.65 Q 108.06 8.51 108.16 8.36 L 106.81 8.36 Q 106.73 8.49 106.62 8.61 Q 106.50 8.76 106.38 8.90 Z M 113.96 8.66 L 114.57 8.81 Q 114.43 9.11 114.28 9.42 Q 114.21 9.56 114.13 9.69 L 114.87 9.69 L 114.87 10.30 L 112.25 10.30 L 112.25 11.24 Q 112.55 11.14 112.87 11.01 Q 113.22 10.88 113.86 10.54 Q 113.86 10.54 114.06 10.36 L 114.67 10.62 Q 114.41 10.86 113.74 11.28 Q 113.74 11.28 113.02 11.62 Q 113.02 11.62 112.66 11.74 Q 112.57 11.62 112.45 11.49 Q 112.34 11.37 112.25 11.29 L 112.25 11.34 Q 112.25 11.69 112.22 12.13 Q 112.22 12.33 112.20 12.53 Q 112.53 12.42 112.86 12.27 Q 113.25 12.10 113.95 11.66 Q 113.95 11.66 114.18 11.42 L 114.78 11.68 Q 114.51 11.98 113.77 12.50 Q 113.77 12.50 112.95 12.94 Q 112.95 12.94 112.54 13.09 Q 112.46 12.97 112.34 12.81 Q 112.26 12.73 112.19 12.65 Q 112.18 12.82 112.15 13.00 Q 112.10 13.44 111.99 13.86 Q 111.99 13.88 111.98 13.90 Q 112.44 13.77 112.88 13.56 Q 113.32 13.36 114.06 12.85 Q 114.06 12.85 114.29 12.56 L 114.95 12.84 Q 114.66 13.19 113.87 13.79 Q 113.87 13.79 112.93 14.26 Q 112.93 14.26 112.45 14.43 Q 112.37 14.31 112.24 14.15 Q 112.11 14.00 111.98 13.90 Q 111.88 14.30 111.72 14.64 Q 111.66 14.58 111.44 14.45 Q 111.44 14.45 111.22 14.32 Q 111.22 14.32 111.13 14.29 Q 111.34 13.85 111.53 12.81 Q 111.53 12.81 111.58 11.77 Q 111.58 11.77 111.58 11.33 L 111.58 9.69 L 112.33 9.69 Q 112.28 9.52 112.19 9.29 Q 112.08 9.03 111.95 8.81 L 112.54 8.63 Q 112.67 8.84 112.90 9.34 Q 112.90 9.34 112.94 9.53 L 112.51 9.69 L 113.49 9.69 Q 113.55 9.57 113.61 9.43 Q 113.72 9.24 113.90 8.82 Q 113.90 8.82 113.96 8.66 Z M 115.02 7.71 L 118.50 7.71 L 118.50 8.29 L 117.10 8.29 Q 117.00 8.57 116.90 8.84 Q 116.84 8.98 116.78 9.11 L 118.25 9.11 L 118.25 12.86 L 117.64 12.86 L 117.64 9.66 L 115.75 9.66 L 115.75 12.89 L 115.16 12.89 L 115.16 9.11 L 116.19 9.11 Q 116.27 8.92 116.36 8.67 Q 116.43 8.46 116.48 8.29 L 115.02 8.29 Z M 116.43 9.99 L 117.01 9.99 Q 117.01 10.90 116.93 12.27 Q 116.93 12.27 116.68 13.28 Q 116.68 13.28 116.18 13.99 Q 116.18 13.99 115.32 14.49 Q 115.32 14.49 114.66 14.66 Q 114.62 14.54 114.41 14.23 Q 114.41 14.23 114.33 14.14 Q 114.93 14.00 115.71 13.58 Q 115.71 13.58 116.17 12.97 Q 116.17 12.97 116.37 12.09 Q 116.37 12.09 116.43 10.83 Q 116.43 10.83 116.43 9.99 Z M 111.42 8.00 L 112.94 8.00 Q 112.92 7.92 112.89 7.83 Q 112.80 7.58 112.70 7.37 L 113.32 7.19 Q 113.43 7.39 113.53 7.64 Q 113.61 7.84 113.65 8.00 L 114.88 8.00 L 114.88 8.62 L 111.42 8.62 Z M 116.82 13.43 L 117.22 13.02 Q 117.48 13.19 118.02 13.61 Q 118.02 13.61 118.49 14.02 Q 118.49 14.02 118.63 14.20 L 118.21 14.66 Q 118.07 14.48 117.61 14.04 Q 117.61 14.04 117.08 13.60 Q 117.08 13.60 116.82 13.43 Z M 121.66 7.17 L 122.35 7.43 Q 122.23 7.66 122.09 7.88 L 124.09 7.88 L 124.24 7.84 L 124.73 8.20 Q 124.52 8.50 124.25 8.84 Q 123.99 9.15 123.73 9.44 L 125.82 9.44 L 125.82 12.37 L 125.07 12.37 L 125.07 12.06 L 120.92 12.06 L 120.92 13.22 Q 120.92 13.46 121.07 13.72 Q 121.07 13.72 121.51 13.81 Q 121.51 13.81 121.95 13.81 L 124.90 13.81 Q 125.29 13.81 125.69 13.62 Q 125.69 13.62 125.86 13.09 Q 125.86 13.09 125.90 12.58 Q 126.05 12.66 126.47 12.81 Q 126.47 12.81 126.62 12.85 Q 126.57 13.33 126.38 13.97 Q 126.38 13.97 126.02 14.34 Q 126.02 14.34 125.40 14.50 Q 125.40 14.50 124.93 14.50 L 121.98 14.50 Q 121.30 14.50 120.51 14.29 Q 120.51 14.29 120.19 13.74 Q 120.19 13.74 120.19 13.22 L 120.19 10.01 Q 119.89 10.26 119.58 10.47 Q 119.55 10.39 119.41 10.12 Q 119.41 10.12 119.24 9.84 Q 119.24 9.84 119.18 9.76 Q 119.66 9.46 120.59 8.65 Q 120.59 8.65 121.39 7.69 Q 121.39 7.69 121.66 7.17 Z M 125.07 11.34 L 125.07 10.13 L 123.36 10.13 L 123.36 11.34 Z M 120.92 10.13 L 120.92 11.34 L 122.61 11.34 L 122.61 10.13 Z M 120.83 9.44 L 122.81 9.44 Q 122.98 9.28 123.15 9.09 Q 123.38 8.82 123.57 8.55 L 121.61 8.55 Q 121.60 8.58 121.58 8.59 Q 121.22 9.04 120.83 9.44 Z" xml:space="preserve" style="font-weight:613;font-size:8px;line-height:1.2;font-family:'Dream Han Sans SC';-inkscape-font-specification:'Dream Han Sans SC weight=613';text-align:start;writing-mode:lr-tb;direction:ltr;text-anchor:start;fill:#ffffff" id="text7" data-original-text="读取强震监测的预测震度图像颜色" data-original-element="text"/>
  <path d="M 8.19 18.42 L 13.56 18.42 L 13.56 21.58 L 8.19 21.58 Z M 7.15 24.38 L 9.59 24.38 L 9.59 21.87 L 10.31 21.87 L 10.31 24.38 L 11.38 24.38 L 11.38 21.87 L 12.09 21.87 L 12.09 24.38 L 14.57 24.38 L 14.57 25.10 L 7.15 25.10 Z M 8.93 20.28 L 8.93 20.98 L 12.79 20.98 L 12.79 20.28 Z M 8.93 19.01 L 8.93 19.72 L 12.79 19.72 L 12.79 19.01 Z M 13.37 22.10 L 14.01 22.38 Q 13.77 22.80 13.18 23.65 Q 13.18 23.65 12.92 23.97 L 12.34 23.69 Q 12.51 23.49 12.90 22.93 Q 12.90 22.93 13.25 22.35 Q 13.25 22.35 13.37 22.10 Z M 7.79 22.40 L 8.37 22.15 Q 8.53 22.40 8.86 22.97 Q 8.86 22.97 9.15 23.51 Q 9.15 23.51 9.23 23.72 L 8.62 24.01 Q 8.54 23.80 8.25 23.25 Q 8.25 23.25 7.94 22.65 Q 7.94 22.65 7.79 22.40 Z M 15.32 20.54 L 22.41 20.54 L 22.41 21.29 L 19.30 21.29 L 19.30 24.54 Q 19.30 24.88 19.11 25.25 Q 19.11 25.25 18.86 25.33 Q 18.63 25.42 17.87 25.47 Q 17.87 25.47 17.34 25.47 Q 17.32 25.29 17.16 24.84 Q 17.16 24.84 17.07 24.67 Q 17.33 24.68 17.82 24.69 Q 17.82 24.69 18.20 24.69 Q 18.20 24.69 18.27 24.69 Q 18.38 24.69 18.47 24.62 Q 18.47 24.62 18.47 24.53 L 18.47 21.29 L 15.32 21.29 Z M 16.04 18.61 L 21.69 18.61 L 21.69 19.35 L 16.04 19.35 Z M 16.61 21.99 L 17.40 22.20 Q 17.22 22.68 16.69 23.62 Q 16.69 23.62 16.09 24.43 Q 16.09 24.43 15.79 24.74 Q 15.72 24.67 15.47 24.50 Q 15.47 24.50 15.20 24.33 Q 15.20 24.33 15.09 24.29 Q 15.57 23.87 16.37 22.64 Q 16.37 22.64 16.61 21.99 Z M 20.29 22.28 L 20.99 21.98 Q 21.28 22.36 21.83 23.22 Q 21.83 23.22 22.28 24.07 Q 22.28 24.07 22.39 24.42 L 21.63 24.75 Q 21.52 24.42 21.10 23.56 Q 21.10 23.56 20.57 22.66 Q 20.57 22.66 20.29 22.28 Z M 23.90 21.53 L 30.18 21.53 L 30.18 22.06 L 24.61 22.06 L 24.61 22.65 Q 24.61 22.88 24.58 23.14 L 30.49 23.14 L 30.49 23.65 L 29.50 23.65 L 30.02 23.92 Q 29.72 24.12 29.38 24.29 Q 29.20 24.38 29.03 24.46 Q 29.13 24.49 29.24 24.53 Q 29.86 24.69 30.63 24.74 Q 30.52 24.85 30.31 25.18 Q 30.31 25.18 30.24 25.33 Q 29.42 25.23 28.12 24.78 Q 28.12 24.78 27.65 24.42 Q 27.23 24.10 26.94 23.65 L 25.86 23.65 L 25.86 24.68 L 27.57 24.44 Q 27.54 24.56 27.50 24.90 Q 27.50 24.90 27.50 25.00 Q 26.74 25.13 25.82 25.29 Q 25.82 25.29 25.32 25.38 Q 25.32 25.38 25.09 25.44 Q 25.09 25.44 25.03 25.47 Q 25.01 25.38 24.90 25.16 Q 24.90 25.16 24.76 24.94 Q 24.76 24.94 24.70 24.87 Q 24.82 24.80 25.13 24.49 Q 25.13 24.49 25.13 24.22 L 25.13 23.65 L 24.53 23.65 Q 24.49 23.88 24.42 24.12 Q 24.32 24.50 23.93 25.22 Q 23.93 25.22 23.63 25.52 Q 23.57 25.45 23.38 25.26 Q 23.38 25.26 23.15 25.08 Q 23.15 25.08 23.07 25.04 Q 23.45 24.69 23.79 23.85 Q 23.79 23.85 23.90 23.00 Q 23.90 23.00 23.90 22.63 Z M 23.92 18.31 L 29.80 18.31 L 29.80 18.86 L 27.21 18.86 L 27.21 19.24 L 30.31 19.24 L 30.31 20.62 L 29.57 20.62 L 29.57 19.70 L 27.21 19.70 L 27.21 21.35 L 26.47 21.35 L 26.47 19.70 L 24.13 19.70 L 24.13 20.62 L 23.42 20.62 L 23.42 19.24 L 26.47 19.24 L 26.47 18.86 L 23.92 18.86 Z M 24.96 22.35 L 29.73 22.35 L 29.73 22.82 L 24.96 22.82 Z M 27.55 20.78 L 29.48 20.78 L 29.48 21.19 L 27.55 21.19 Z M 24.25 20.78 L 26.15 20.78 L 26.15 21.19 L 24.25 21.19 Z M 27.55 20.04 L 29.29 20.04 L 29.29 20.46 L 27.55 20.46 Z M 24.42 20.04 L 26.14 20.04 L 26.14 20.46 L 24.42 20.46 Z M 29.42 23.65 L 27.65 23.65 Q 27.86 23.90 28.17 24.08 Q 28.31 24.17 28.46 24.24 Q 28.57 24.17 28.70 24.10 Q 28.91 23.98 29.11 23.85 Q 29.29 23.74 29.42 23.65 Z M 32.84 22.65 L 37.30 22.65 L 37.43 22.62 L 37.90 22.87 Q 37.57 23.49 37.04 23.94 Q 36.71 24.20 36.34 24.42 Q 36.54 24.47 36.74 24.53 Q 37.60 24.74 38.59 24.81 Q 38.51 24.90 38.34 25.13 Q 38.34 25.13 38.20 25.37 Q 38.20 25.37 38.15 25.47 Q 37.13 25.36 36.25 25.10 Q 35.84 24.97 35.47 24.82 Q 34.95 25.01 34.38 25.15 Q 33.60 25.33 32.77 25.42 Q 32.73 25.29 32.54 24.91 Q 32.54 24.91 32.46 24.78 Q 33.22 24.73 33.95 24.58 Q 34.32 24.50 34.66 24.41 Q 33.98 23.98 33.50 23.38 L 33.81 23.26 L 32.84 23.26 Z M 31.82 18.80 L 34.88 18.80 Q 34.86 18.77 34.86 18.74 Q 34.74 18.42 34.62 18.17 L 35.38 18.00 Q 35.51 18.25 35.63 18.54 Q 35.69 18.68 35.74 18.80 L 38.47 18.80 L 38.47 19.50 L 32.57 19.50 L 32.57 20.95 Q 32.57 21.44 32.51 22.61 Q 32.51 22.61 32.35 23.83 Q 32.35 23.83 32.05 24.98 Q 32.05 24.98 31.80 25.46 Q 31.73 25.41 31.47 25.28 Q 31.47 25.28 31.22 25.16 Q 31.22 25.16 31.11 25.13 Q 31.36 24.67 31.64 23.60 Q 31.64 23.60 31.79 22.48 Q 31.79 22.48 31.82 21.42 Q 31.82 21.42 31.82 20.96 Z M 32.75 20.33 L 33.95 20.33 L 33.95 19.70 L 34.67 19.70 L 34.67 20.33 L 36.41 20.33 L 36.41 19.70 L 37.15 19.70 L 37.15 20.33 L 38.38 20.33 L 38.38 20.94 L 37.15 20.94 L 37.15 22.23 L 33.95 22.23 L 33.95 20.94 L 32.75 20.94 Z M 34.67 20.94 L 34.67 21.65 L 36.41 21.65 L 36.41 20.94 Z M 34.27 23.26 Q 34.65 23.66 35.22 23.97 Q 35.36 24.04 35.51 24.11 Q 36.01 23.90 36.40 23.60 Q 36.61 23.44 36.77 23.26 Z M 41.01 24.91 Q 40.54 24.91 39.83 24.69 Q 39.83 24.69 39.29 24.31 Q 39.29 24.31 39.09 24.10 L 39.54 23.50 Q 39.80 23.76 40.47 24.15 Q 40.47 24.15 40.93 24.15 Q 41.26 24.15 41.76 23.91 Q 41.76 23.91 42.05 23.48 Q 42.05 23.48 42.05 23.17 Q 42.05 22.85 41.73 22.36 Q 41.73 22.36 40.97 22.10 Q 40.97 22.10 40.31 22.10 L 40.31 21.41 Q 40.89 21.41 41.55 21.14 Q 41.55 21.14 41.85 20.68 Q 41.85 20.68 41.85 20.38 Q 41.85 19.99 41.37 19.54 Q 41.37 19.54 40.94 19.54 Q 40.61 19.54 40.02 19.84 Q 40.02 19.84 39.77 20.09 L 39.29 19.51 Q 39.64 19.19 40.47 18.80 Q 40.47 18.80 40.98 18.80 Q 41.50 18.80 42.32 19.16 Q 42.32 19.16 42.77 19.83 Q 42.77 19.83 42.77 20.32 Q 42.77 20.82 42.23 21.53 Q 42.23 21.53 41.76 21.70 L 41.76 21.74 Q 42.10 21.82 42.66 22.21 Q 42.66 22.21 42.98 22.82 Q 42.98 22.82 42.98 23.21 Q 42.98 23.74 42.44 24.50 Q 42.44 24.50 41.54 24.91 Q 41.54 24.91 41.01 24.91 Z M 46.63 18.55 L 50.22 18.55 Q 50.11 19.01 49.83 20.04 Q 49.83 20.04 49.70 20.51 Q 49.67 20.60 49.65 20.68 L 50.30 20.68 L 50.44 20.65 L 50.90 20.84 Q 50.67 22.01 50.21 22.92 Q 49.98 23.37 49.71 23.76 Q 49.77 23.82 49.83 23.88 Q 50.45 24.49 51.20 24.84 Q 51.12 24.91 50.92 25.13 Q 50.92 25.13 50.75 25.36 Q 50.75 25.36 50.70 25.46 Q 49.91 25.04 49.29 24.37 Q 49.26 24.35 49.25 24.33 Q 49.19 24.40 49.13 24.46 Q 48.51 25.10 47.77 25.48 Q 47.72 25.40 47.53 25.17 Q 47.53 25.17 47.32 24.97 Q 47.32 24.97 47.24 24.91 Q 47.96 24.57 48.55 24.00 Q 48.67 23.89 48.77 23.77 Q 48.45 23.33 48.19 22.84 Q 48.05 22.56 47.91 22.27 Q 47.77 23.08 47.55 23.76 Q 47.23 24.75 46.65 25.49 Q 46.60 25.43 46.35 25.26 Q 46.35 25.26 46.09 25.08 Q 46.09 25.08 46.00 25.03 Q 46.57 24.37 47.18 22.51 Q 47.18 22.51 47.32 21.34 Q 47.43 20.37 47.47 19.26 L 46.63 19.26 Z M 43.92 23.44 Q 43.90 23.37 43.81 23.13 Q 43.81 23.13 43.72 22.86 Q 43.72 22.86 43.68 22.77 Q 43.83 22.74 44.13 22.46 Q 44.13 22.46 44.32 22.24 Q 44.42 22.13 44.81 21.62 Q 44.81 21.62 45.06 21.27 Q 45.07 21.25 45.09 21.22 Q 44.90 21.25 44.75 21.27 Q 44.45 21.31 44.09 21.37 Q 44.09 21.37 43.92 21.42 Q 43.92 21.42 43.87 21.45 Q 43.85 21.37 43.77 21.12 Q 43.77 21.12 43.67 20.85 Q 43.67 20.85 43.63 20.75 Q 43.74 20.73 43.97 20.46 Q 43.97 20.46 44.10 20.27 Q 44.18 20.17 44.44 19.72 Q 44.44 19.72 44.76 19.10 Q 44.76 19.10 45.08 18.37 Q 45.08 18.37 45.20 18.01 L 45.90 18.34 Q 45.68 18.83 45.16 19.81 Q 45.16 19.81 44.87 20.26 Q 44.74 20.46 44.61 20.65 L 45.52 20.56 Q 45.54 20.53 45.55 20.51 Q 45.80 20.10 46.01 19.69 L 46.62 20.07 Q 46.14 20.90 45.57 21.69 Q 45.32 22.01 45.08 22.31 L 46.46 21.94 Q 46.46 22.08 46.49 22.46 Q 46.49 22.46 46.50 22.58 Q 45.72 22.81 44.76 23.10 Q 44.76 23.10 44.23 23.28 Q 44.23 23.28 43.98 23.38 Q 43.98 23.38 43.92 23.44 Z M 48.22 19.26 Q 48.18 20.13 48.09 20.92 Q 48.36 21.74 48.77 22.47 Q 48.98 22.85 49.23 23.18 Q 49.41 22.93 49.55 22.64 Q 49.86 22.06 50.05 21.34 L 48.70 21.34 Q 48.82 20.97 49.10 20.01 Q 49.10 20.01 49.23 19.50 Q 49.26 19.38 49.29 19.26 Z M 43.75 24.29 Q 44.09 24.17 44.98 23.85 Q 44.98 23.85 45.98 23.49 Q 45.98 23.49 46.48 23.29 L 46.62 23.94 Q 45.93 24.24 44.50 24.81 Q 44.50 24.81 43.93 25.03 Z M 52.13 18.46 L 57.14 18.46 Q 57.06 18.90 56.85 19.87 Q 56.85 19.87 56.74 20.32 Q 56.74 20.35 56.73 20.39 L 58.07 20.39 L 58.21 20.36 L 58.73 20.56 Q 58.49 21.61 57.61 23.21 Q 57.61 23.21 57.01 23.81 Q 57.00 23.81 57.00 23.81 Q 57.91 24.41 59.18 24.70 Q 59.09 24.78 58.90 25.03 Q 58.90 25.03 58.73 25.29 Q 58.73 25.29 58.66 25.41 Q 57.54 25.11 56.70 24.59 Q 56.53 24.48 56.36 24.36 Q 56.03 24.60 55.67 24.80 Q 54.93 25.21 54.09 25.46 Q 54.05 25.36 53.90 25.12 Q 53.90 25.12 53.74 24.88 Q 53.74 24.88 53.65 24.80 Q 54.42 24.60 55.11 24.24 Q 55.45 24.06 55.75 23.85 Q 55.49 23.60 55.26 23.32 Q 54.66 22.58 54.25 21.62 Q 54.21 21.53 54.18 21.45 Q 54.13 21.71 54.09 21.97 Q 53.97 22.56 53.53 23.74 Q 53.53 23.74 52.78 24.87 Q 52.78 24.87 52.22 25.38 Q 52.16 25.28 51.97 25.03 Q 51.97 25.03 51.76 24.80 Q 51.76 24.80 51.67 24.73 Q 52.29 24.17 53.02 22.90 Q 53.02 22.90 53.38 21.58 Q 53.38 21.58 53.48 20.34 Q 53.48 20.34 53.48 19.82 L 53.48 19.22 L 52.13 19.22 Z M 56.37 23.33 Q 56.92 22.81 57.32 22.12 Q 57.58 21.65 57.77 21.10 L 55.73 21.10 Q 55.84 20.75 56.07 19.84 Q 56.07 19.84 56.18 19.37 Q 56.19 19.29 56.21 19.22 L 54.26 19.22 L 54.26 19.62 Q 54.59 20.85 55.14 21.82 Q 55.63 22.69 56.37 23.33 Z M 65.45 18.37 L 66.25 18.41 Q 66.18 19.82 65.79 22.06 Q 65.79 22.06 65.41 22.92 Q 65.41 22.93 65.41 22.94 Q 65.65 23.18 65.92 23.45 Q 66.31 23.85 67.00 24.64 Q 67.00 24.64 67.21 24.95 L 66.54 25.45 Q 66.34 25.13 65.69 24.33 Q 65.69 24.33 65.31 23.91 Q 65.18 23.76 65.04 23.62 Q 64.76 24.06 64.40 24.42 Q 63.76 25.06 62.79 25.51 Q 62.74 25.43 62.54 25.18 Q 62.54 25.18 62.31 24.94 Q 62.31 24.94 62.22 24.85 Q 63.16 24.48 64.37 23.33 Q 64.37 23.33 65.06 21.75 Q 65.06 21.75 65.39 19.67 Q 65.39 19.67 65.45 18.37 Z M 60.54 24.74 Q 60.49 24.64 60.35 24.41 Q 60.35 24.41 60.18 24.18 Q 60.18 24.18 60.11 24.12 Q 60.21 24.06 60.45 23.82 Q 60.45 23.82 60.65 23.50 Q 60.65 23.50 60.65 23.30 L 60.65 18.63 L 61.46 18.63 L 61.46 23.29 L 63.18 22.46 Q 63.21 22.62 63.33 23.04 Q 63.33 23.04 63.38 23.17 Q 62.69 23.52 61.74 24.00 Q 61.74 24.00 61.13 24.33 Q 61.13 24.33 60.78 24.53 Q 60.78 24.53 60.59 24.67 Q 60.59 24.67 60.54 24.74 Z M 62.36 19.17 L 63.01 18.83 Q 63.25 19.11 63.71 19.78 Q 63.71 19.78 64.10 20.42 Q 64.10 20.42 64.22 20.68 L 63.54 21.09 Q 63.43 20.83 63.06 20.16 Q 63.06 20.16 62.59 19.46 Q 62.59 19.46 62.36 19.17 Z M 67.86 18.63 L 75.00 18.63 L 75.00 19.40 L 71.66 19.40 L 71.66 20.76 L 71.80 20.60 Q 72.15 20.77 72.93 21.19 Q 72.93 21.19 73.70 21.64 Q 73.70 21.64 74.38 22.07 Q 74.38 22.07 74.61 22.26 L 74.06 22.94 Q 73.84 22.76 73.19 22.30 Q 73.19 22.30 72.43 21.83 Q 72.43 21.83 72.04 21.61 Q 71.85 21.49 71.66 21.39 L 71.66 25.46 L 70.86 25.46 L 70.86 19.40 L 67.86 19.40 Z M 76.07 19.33 L 76.97 19.33 Q 77.02 19.19 77.06 19.01 Q 77.13 18.76 77.23 18.25 Q 77.23 18.25 77.25 18.03 L 78.08 18.17 Q 77.95 18.55 77.81 18.94 Q 77.73 19.16 77.66 19.33 L 78.96 19.33 L 78.96 20.86 Q 79.21 20.53 79.43 20.10 Q 79.66 19.63 80.04 18.57 Q 80.04 18.57 80.16 18.03 L 80.90 18.20 Q 80.75 18.75 80.56 19.29 L 82.90 19.29 L 82.90 19.52 Q 82.90 19.61 82.90 19.65 Q 82.86 21.02 82.77 22.92 Q 82.77 22.92 82.65 24.13 Q 82.65 24.13 82.48 24.81 Q 82.48 24.81 82.36 24.96 Q 82.21 25.16 81.89 25.31 Q 81.89 25.31 81.65 25.34 Q 81.45 25.37 80.78 25.36 Q 80.78 25.36 80.44 25.34 Q 80.43 25.18 80.29 24.76 Q 80.29 24.76 80.18 24.62 Q 80.57 24.65 81.23 24.66 Q 81.23 24.66 81.38 24.66 Q 81.50 24.66 81.65 24.61 Q 81.65 24.61 81.73 24.53 Q 81.82 24.42 81.97 23.77 Q 81.97 23.77 82.08 22.58 Q 82.08 22.58 82.12 21.65 Q 82.16 20.94 82.18 19.99 L 80.29 19.99 Q 80.18 20.23 80.07 20.46 Q 79.82 20.96 79.54 21.34 Q 79.48 21.28 79.25 21.11 Q 79.25 21.11 79.13 21.03 Q 79.03 20.97 78.96 20.93 L 78.96 24.64 L 76.76 24.64 L 76.76 25.26 L 76.07 25.26 Z M 76.76 23.97 L 78.26 23.97 L 78.26 22.18 L 76.76 22.18 Z M 78.26 21.53 L 78.26 20.00 L 76.76 20.00 L 76.76 21.53 Z M 79.78 21.47 L 80.38 21.14 Q 80.59 21.42 81.06 22.08 Q 81.06 22.08 81.47 22.70 Q 81.47 22.70 81.60 22.94 L 80.96 23.34 Q 80.85 23.10 80.45 22.45 Q 80.45 22.45 80.00 21.77 Q 80.00 21.77 79.78 21.47 Z M 83.86 18.42 L 86.38 18.42 L 86.51 18.37 L 86.97 18.69 Q 86.77 19.00 86.29 19.65 Q 86.29 19.65 86.02 19.94 Q 85.84 20.14 85.66 20.31 Q 85.73 20.35 85.79 20.39 Q 86.12 20.61 86.33 20.78 L 86.15 21.01 L 86.62 21.01 L 86.73 20.98 L 87.19 21.10 Q 87.05 21.58 86.71 22.58 Q 86.71 22.58 86.57 22.92 L 86.00 22.78 Q 86.09 22.58 86.27 22.01 Q 86.27 22.01 86.36 21.69 Q 86.36 21.69 86.37 21.69 L 85.68 21.69 L 85.68 24.62 Q 85.68 24.91 85.54 25.24 Q 85.54 25.24 85.34 25.33 Q 85.15 25.41 84.58 25.46 Q 84.58 25.46 84.18 25.46 Q 84.15 25.29 84.02 24.89 Q 84.02 24.89 83.93 24.74 Q 84.22 24.74 84.72 24.74 Q 84.72 24.74 84.80 24.74 Q 84.89 24.74 84.95 24.69 Q 84.95 24.69 84.95 24.62 L 84.95 21.69 L 83.69 21.69 L 83.69 21.01 L 85.49 21.01 Q 85.44 20.97 85.38 20.94 Q 85.06 20.70 84.36 20.22 Q 84.36 20.22 84.06 20.03 L 84.46 19.54 Q 84.76 19.73 85.11 19.95 Q 85.13 19.96 85.14 19.97 Q 85.32 19.79 85.51 19.58 Q 85.72 19.33 85.90 19.07 L 83.86 19.07 Z M 87.10 18.38 L 91.13 18.38 L 91.13 19.04 L 89.56 19.04 Q 89.48 19.29 89.40 19.53 Q 89.36 19.65 89.32 19.76 L 90.82 19.76 L 90.82 23.57 L 90.09 23.57 L 90.09 20.44 L 88.08 20.44 L 88.08 23.59 L 87.38 23.59 L 87.38 19.76 L 88.59 19.76 Q 88.64 19.58 88.68 19.37 Q 88.72 19.21 88.75 19.04 L 87.10 19.04 Z M 88.72 20.90 L 89.43 20.90 L 89.43 22.45 Q 89.43 22.83 89.27 23.65 Q 89.27 23.65 88.80 24.44 Q 88.80 24.44 87.90 25.14 Q 87.90 25.14 87.13 25.43 Q 87.07 25.31 86.80 25.00 Q 86.80 25.00 86.67 24.90 Q 87.37 24.66 88.18 24.06 Q 88.18 24.06 88.58 23.40 Q 88.58 23.40 88.72 22.74 Q 88.72 22.74 88.72 22.44 Z M 89.22 24.17 L 89.71 23.71 Q 89.95 23.90 90.50 24.35 Q 90.50 24.35 91.01 24.79 Q 91.01 24.79 91.16 24.96 L 90.64 25.48 Q 90.49 25.30 90.01 24.85 Q 90.01 24.85 89.46 24.37 Q 89.46 24.37 89.22 24.17 Z M 95.30 24.11 L 95.77 23.83 Q 95.96 24.02 96.38 24.48 Q 96.38 24.48 96.74 24.92 Q 96.74 24.92 96.84 25.10 L 96.35 25.42 Q 96.25 25.24 95.90 24.78 Q 95.90 24.78 95.49 24.30 Q 95.49 24.30 95.30 24.11 Z M 93.90 18.49 L 96.66 18.49 L 96.66 23.58 L 96.06 23.58 L 96.06 19.04 L 94.47 19.04 L 94.47 23.62 L 93.90 23.62 Z M 98.29 18.16 L 98.90 18.16 L 98.90 24.65 Q 98.90 24.94 98.75 25.24 Q 98.75 25.24 98.59 25.32 Q 98.42 25.40 97.86 25.45 Q 97.86 25.45 97.42 25.45 Q 97.41 25.32 97.29 24.95 Q 97.29 24.95 97.22 24.81 Q 97.54 24.82 98.04 24.82 Q 98.04 24.82 98.13 24.82 Q 98.29 24.82 98.29 24.66 Z M 97.19 18.78 L 97.77 18.78 L 97.77 23.62 L 97.19 23.62 Z M 94.96 19.57 L 95.52 19.57 L 95.52 22.50 Q 95.52 22.90 95.40 23.73 Q 95.40 23.73 95.06 24.52 Q 95.06 24.52 94.39 25.20 Q 94.39 25.20 93.86 25.46 Q 93.82 25.40 93.70 25.22 Q 93.70 25.22 93.56 25.04 Q 93.56 25.04 93.51 25.00 Q 94.00 24.77 94.57 24.19 Q 94.57 24.19 94.86 23.53 Q 94.86 23.53 94.96 22.85 Q 94.96 22.85 94.96 22.49 Z M 92.02 18.67 L 92.47 18.13 Q 92.69 18.23 93.18 18.52 Q 93.18 18.52 93.65 18.81 Q 93.65 18.81 93.79 18.94 L 93.32 19.54 Q 93.19 19.42 92.74 19.10 Q 92.74 19.10 92.25 18.79 Q 92.25 18.79 92.02 18.67 Z M 91.69 20.81 L 92.12 20.27 Q 92.34 20.38 92.84 20.65 Q 92.84 20.65 93.30 20.94 Q 93.30 20.94 93.45 21.06 L 93.01 21.65 Q 92.86 21.53 92.41 21.24 Q 92.41 21.24 91.91 20.94 Q 91.91 20.94 91.69 20.81 Z M 91.84 24.98 Q 92.00 24.67 92.37 23.82 Q 92.37 23.82 92.75 22.87 Q 92.75 22.87 92.91 22.42 L 93.52 22.81 Q 93.38 23.23 93.04 24.13 Q 93.04 24.13 92.70 24.99 Q 92.70 24.99 92.53 25.37 Z M 100.45 21.53 L 106.74 21.53 L 106.74 22.06 L 101.16 22.06 L 101.16 22.65 Q 101.16 22.88 101.14 23.14 L 107.05 23.14 L 107.05 23.65 L 106.06 23.65 L 106.57 23.92 Q 106.28 24.12 105.94 24.29 Q 105.76 24.38 105.59 24.46 Q 105.69 24.49 105.80 24.53 Q 106.42 24.69 107.18 24.74 Q 107.08 24.85 106.86 25.18 Q 106.86 25.18 106.80 25.33 Q 105.98 25.23 104.68 24.78 Q 104.68 24.78 104.21 24.42 Q 103.79 24.10 103.50 23.65 L 102.42 23.65 L 102.42 24.68 L 104.13 24.44 Q 104.09 24.56 104.06 24.90 Q 104.06 24.90 104.06 25.00 Q 103.30 25.13 102.38 25.29 Q 102.38 25.29 101.88 25.38 Q 101.88 25.38 101.65 25.44 Q 101.65 25.44 101.59 25.47 Q 101.57 25.38 101.45 25.16 Q 101.45 25.16 101.32 24.94 Q 101.32 24.94 101.25 24.87 Q 101.38 24.80 101.69 24.49 Q 101.69 24.49 101.69 24.22 L 101.69 23.65 L 101.09 23.65 Q 101.05 23.88 100.98 24.12 Q 100.88 24.50 100.49 25.22 Q 100.49 25.22 100.19 25.52 Q 100.13 25.45 99.93 25.26 Q 99.93 25.26 99.71 25.08 Q 99.71 25.08 99.63 25.04 Q 100.01 24.69 100.35 23.85 Q 100.35 23.85 100.45 23.00 Q 100.45 23.00 100.45 22.63 Z M 100.48 18.31 L 106.36 18.31 L 106.36 18.86 L 103.77 18.86 L 103.77 19.24 L 106.86 19.24 L 106.86 20.62 L 106.13 20.62 L 106.13 19.70 L 103.77 19.70 L 103.77 21.35 L 103.03 21.35 L 103.03 19.70 L 100.69 19.70 L 100.69 20.62 L 99.98 20.62 L 99.98 19.24 L 103.03 19.24 L 103.03 18.86 L 100.48 18.86 Z M 101.52 22.35 L 106.29 22.35 L 106.29 22.82 L 101.52 22.82 Z M 104.11 20.78 L 106.04 20.78 L 106.04 21.19 L 104.11 21.19 Z M 100.81 20.78 L 102.70 20.78 L 102.70 21.19 L 100.81 21.19 Z M 104.11 20.04 L 105.85 20.04 L 105.85 20.46 L 104.11 20.46 Z M 100.98 20.04 L 102.70 20.04 L 102.70 20.46 L 100.98 20.46 Z M 105.98 23.65 L 104.21 23.65 Q 104.42 23.90 104.73 24.08 Q 104.86 24.17 105.02 24.24 Q 105.13 24.17 105.26 24.10 Q 105.47 23.98 105.67 23.85 Q 105.85 23.74 105.98 23.65 Z M 109.40 22.65 L 113.86 22.65 L 113.99 22.62 L 114.46 22.87 Q 114.13 23.49 113.60 23.94 Q 113.27 24.20 112.90 24.42 Q 113.09 24.47 113.29 24.53 Q 114.16 24.74 115.15 24.81 Q 115.07 24.90 114.90 25.13 Q 114.90 25.13 114.76 25.37 Q 114.76 25.37 114.71 25.47 Q 113.69 25.36 112.81 25.10 Q 112.40 24.97 112.03 24.82 Q 111.51 25.01 110.93 25.15 Q 110.16 25.33 109.32 25.42 Q 109.29 25.29 109.10 24.91 Q 109.10 24.91 109.02 24.78 Q 109.78 24.73 110.51 24.58 Q 110.88 24.50 111.22 24.41 Q 110.54 23.98 110.06 23.38 L 110.37 23.26 L 109.40 23.26 Z M 108.38 18.80 L 111.44 18.80 Q 111.42 18.77 111.41 18.74 Q 111.30 18.42 111.18 18.17 L 111.93 18.00 Q 112.07 18.25 112.19 18.54 Q 112.25 18.68 112.29 18.80 L 115.03 18.80 L 115.03 19.50 L 109.13 19.50 L 109.13 20.95 Q 109.13 21.44 109.07 22.61 Q 109.07 22.61 108.91 23.83 Q 108.91 23.83 108.61 24.98 Q 108.61 24.98 108.36 25.46 Q 108.29 25.41 108.03 25.28 Q 108.03 25.28 107.77 25.16 Q 107.77 25.16 107.67 25.13 Q 107.92 24.67 108.20 23.60 Q 108.20 23.60 108.34 22.48 Q 108.34 22.48 108.38 21.42 Q 108.38 21.42 108.38 20.96 Z M 109.31 20.33 L 110.51 20.33 L 110.51 19.70 L 111.23 19.70 L 111.23 20.33 L 112.97 20.33 L 112.97 19.70 L 113.71 19.70 L 113.71 20.33 L 114.94 20.33 L 114.94 20.94 L 113.71 20.94 L 113.71 22.23 L 110.51 22.23 L 110.51 20.94 L 109.31 20.94 Z M 111.23 20.94 L 111.23 21.65 L 112.97 21.65 L 112.97 20.94 Z M 110.83 23.26 Q 111.21 23.66 111.77 23.97 Q 111.92 24.04 112.07 24.11 Q 112.57 23.90 112.96 23.60 Q 113.16 23.44 113.33 23.26 Z" xml:space="preserve" style="font-weight:613;font-size:8px;line-height:1.2;font-family:'Dream Han Sans SC';-inkscape-font-specification:'Dream Han Sans SC weight=613';text-align:start;writing-mode:lr-tb;direction:ltr;text-anchor:start;fill:#ffffff" id="text8" data-original-text="显示震度3级及以下的预测震度" data-original-element="text"/>
  <path d="M 7.98 32.51 Q 7.98 31.69 8.39 30.31 Q 8.39 30.31 9.11 29.15 Q 9.11 29.15 9.57 28.68 L 10.18 28.97 Q 9.73 29.42 9.08 30.51 Q 9.08 30.51 8.70 31.77 Q 8.70 31.77 8.70 32.51 Q 8.70 33.23 9.08 34.51 Q 9.08 34.51 9.73 35.58 Q 9.73 35.58 10.18 36.04 L 9.57 36.33 Q 9.11 35.86 8.39 34.70 Q 8.39 34.70 7.98 33.31 Q 7.98 33.31 7.98 32.51 Z M 11.16 29.10 L 17.93 29.10 L 17.93 36.21 L 17.20 36.21 L 17.20 35.83 L 11.86 35.83 L 11.86 36.21 L 11.16 36.21 Z M 17.20 35.20 L 17.20 29.77 L 11.86 29.77 L 11.86 35.20 Z M 12.30 31.30 L 14.17 31.30 Q 14.22 30.73 14.23 30.10 L 14.97 30.10 Q 14.95 30.72 14.90 31.30 L 16.77 31.30 L 16.77 31.98 L 14.82 31.98 Q 14.80 32.17 14.76 32.35 Q 15.12 32.65 15.49 32.99 Q 15.90 33.38 16.59 34.15 Q 16.59 34.15 16.81 34.44 L 16.27 34.90 Q 16.11 34.67 15.64 34.10 Q 15.64 34.10 15.06 33.51 Q 15.06 33.51 14.76 33.21 Q 14.67 33.12 14.57 33.03 Q 14.57 33.05 14.56 33.06 Q 14.34 33.68 13.47 34.66 Q 13.47 34.66 12.73 34.99 Q 12.69 34.90 12.53 34.67 Q 12.53 34.67 12.35 34.45 Q 12.35 34.45 12.26 34.39 Q 12.93 34.10 13.71 33.26 Q 13.71 33.26 13.90 32.71 Q 14.02 32.37 14.09 31.98 L 12.30 31.98 Z M 21.49 33.58 L 25.64 33.58 L 25.64 36.18 L 24.97 36.18 L 24.97 35.92 L 22.14 35.92 L 22.14 36.21 L 21.49 36.21 Z M 20.51 28.83 L 21.18 29.02 Q 20.95 29.70 20.63 30.36 Q 20.59 30.45 20.54 30.54 L 20.54 36.24 L 19.85 36.24 L 19.85 31.75 Q 19.52 32.26 19.17 32.67 Q 19.13 32.58 18.99 32.30 Q 18.99 32.30 18.83 32.02 Q 18.83 32.02 18.76 31.93 Q 19.11 31.55 19.77 30.55 Q 19.77 30.55 20.32 29.41 Q 20.32 29.41 20.51 28.83 Z M 21.02 30.08 L 23.40 30.08 Q 23.32 29.87 23.18 29.60 Q 23.02 29.29 22.86 29.03 L 23.50 28.78 Q 23.67 29.02 24.01 29.61 Q 24.01 29.61 24.09 29.83 L 23.53 30.08 L 26.16 30.08 L 26.16 30.70 L 21.02 30.70 Z M 24.97 35.31 L 24.97 34.20 L 22.14 34.20 L 22.14 35.31 Z M 21.60 31.26 L 25.55 31.26 L 25.55 31.86 L 21.60 31.86 Z M 21.60 32.40 L 25.55 32.40 L 25.55 33.01 L 21.60 33.01 Z M 28.04 29.52 L 29.90 29.52 Q 29.97 29.36 30.03 29.17 Q 30.12 28.91 30.16 28.70 L 31.06 28.84 Q 30.93 29.10 30.80 29.35 Q 30.74 29.44 30.70 29.52 L 33.02 29.52 L 33.02 33.38 L 30.54 33.38 Q 30.70 33.53 30.86 33.70 Q 31.06 33.91 31.41 34.35 Q 31.41 34.35 31.51 34.53 L 30.90 34.90 Q 30.80 34.72 30.47 34.27 Q 30.47 34.27 30.06 33.82 Q 30.06 33.82 29.87 33.63 L 30.31 33.38 L 28.04 33.38 Z M 28.60 33.91 L 29.36 33.91 L 29.36 35.12 Q 29.36 35.29 29.57 35.38 Q 29.57 35.38 29.93 35.38 L 31.54 35.38 Q 31.74 35.38 31.94 35.26 Q 31.94 35.26 32.02 34.87 Q 32.02 34.87 32.05 34.48 Q 32.14 34.54 32.38 34.66 Q 32.38 34.66 32.64 34.74 Q 32.64 34.74 32.74 34.76 Q 32.70 35.29 32.47 35.86 Q 32.47 35.86 32.00 36.08 Q 32.00 36.08 31.58 36.08 L 29.88 36.08 Q 29.38 36.08 28.82 35.91 Q 28.82 35.91 28.60 35.50 Q 28.60 35.50 28.60 35.13 Z M 28.77 32.26 L 28.77 32.80 L 32.25 32.80 L 32.25 32.26 Z M 28.77 31.18 L 28.77 31.71 L 32.25 31.71 L 32.25 31.18 Z M 28.77 30.11 L 28.77 30.63 L 32.25 30.63 L 32.25 30.11 Z M 32.57 33.99 L 33.24 33.71 Q 33.42 33.96 33.79 34.55 Q 33.79 34.55 34.07 35.12 Q 34.07 35.12 34.15 35.36 L 33.43 35.67 Q 33.37 35.44 33.09 34.86 Q 33.09 34.86 32.75 34.25 Q 32.75 34.25 32.57 33.99 Z M 27.64 33.85 L 28.31 34.13 Q 28.20 34.38 27.95 35.01 Q 27.95 35.01 27.68 35.59 Q 27.68 35.59 27.54 35.83 L 26.85 35.51 Q 27.00 35.27 27.30 34.70 Q 27.30 34.70 27.55 34.10 Q 27.55 34.10 27.64 33.85 Z M 38.34 30.70 L 39.49 30.70 Q 39.54 30.56 39.58 30.41 Q 39.66 30.14 39.71 29.93 L 40.55 30.09 Q 40.41 30.35 40.28 30.61 Q 40.25 30.66 40.23 30.70 L 41.90 30.70 L 41.90 33.52 L 40.42 33.52 L 40.42 35.47 Q 40.42 35.73 40.31 36.02 Q 40.31 36.02 40.12 36.10 Q 39.93 36.18 39.38 36.22 Q 39.38 36.22 39.00 36.21 Q 38.98 36.07 38.86 35.70 Q 38.86 35.70 38.80 35.56 Q 39.05 35.57 39.27 35.57 L 39.57 35.57 Q 39.70 35.57 39.70 35.45 L 39.70 33.52 L 38.34 33.52 Z M 37.22 29.19 L 42.17 29.19 L 42.17 29.87 L 37.95 29.87 L 37.95 31.40 Q 37.95 31.93 37.87 33.18 Q 37.87 33.18 37.65 34.48 Q 37.65 34.48 37.22 35.70 Q 37.22 35.70 36.86 36.20 Q 36.79 36.14 36.56 35.99 Q 36.56 35.99 36.32 35.83 Q 36.32 35.83 36.22 35.80 Q 36.57 35.33 36.97 34.21 Q 36.97 34.21 37.15 33.02 Q 37.15 33.02 37.22 31.89 Q 37.22 31.89 37.22 31.40 Z M 34.94 35.70 Q 35.12 35.38 35.53 34.52 Q 35.53 34.52 35.94 33.57 Q 35.94 33.57 36.12 33.10 L 36.74 33.52 Q 36.57 33.94 36.20 34.86 Q 36.20 34.86 35.82 35.73 Q 35.82 35.73 35.63 36.11 Z M 39.01 32.37 L 39.01 32.96 L 41.20 32.96 L 41.20 32.37 Z M 40.82 34.10 L 41.48 33.84 Q 41.63 34.08 41.95 34.65 Q 41.95 34.65 42.24 35.18 Q 42.24 35.18 42.33 35.38 L 41.63 35.68 Q 41.56 35.48 41.28 34.93 Q 41.28 34.93 40.97 34.35 Q 40.97 34.35 40.82 34.10 Z M 39.01 31.26 L 39.01 31.84 L 41.20 31.84 L 41.20 31.26 Z M 38.55 33.91 L 39.22 34.10 Q 39.10 34.39 38.77 35.00 Q 38.77 35.00 38.41 35.55 Q 38.41 35.55 38.25 35.76 Q 38.18 35.70 37.97 35.56 Q 37.97 35.56 37.74 35.42 Q 37.74 35.42 37.66 35.38 Q 37.90 35.10 38.39 34.31 Q 38.39 34.31 38.55 33.91 Z M 35.19 29.40 L 35.63 28.87 Q 35.84 28.99 36.35 29.29 Q 36.35 29.29 36.82 29.58 Q 36.82 29.58 36.97 29.69 L 36.51 30.30 Q 36.37 30.18 35.90 29.86 Q 35.90 29.86 35.41 29.53 Q 35.41 29.53 35.19 29.40 Z M 34.80 31.56 L 35.24 31.02 Q 35.45 31.13 35.96 31.42 Q 35.96 31.42 36.43 31.68 Q 36.43 31.68 36.58 31.79 L 36.14 32.40 Q 35.99 32.29 35.53 31.99 Q 35.53 31.99 35.02 31.68 Q 35.02 31.68 34.80 31.56 Z M 45.15 29.63 L 47.27 29.63 L 47.27 28.83 L 48.02 28.83 L 48.02 29.63 L 50.25 29.63 L 50.25 30.33 L 48.02 30.33 L 48.02 31.01 L 50.02 31.01 L 50.02 33.29 L 47.97 33.29 Q 47.97 33.32 47.97 33.35 Q 47.91 33.81 47.75 34.24 Q 47.65 34.51 47.48 34.77 Q 47.93 35.00 48.46 35.17 Q 49.32 35.43 50.35 35.54 Q 50.28 35.62 50.10 35.86 Q 50.10 35.86 49.95 36.11 Q 49.95 36.11 49.90 36.22 Q 48.84 36.07 47.96 35.74 Q 47.47 35.55 47.04 35.31 Q 46.81 35.52 46.50 35.71 Q 46.02 36.02 45.30 36.23 Q 45.25 36.15 45.09 35.91 Q 45.09 35.91 44.91 35.68 Q 44.91 35.68 44.83 35.60 Q 45.52 35.44 45.97 35.19 Q 46.22 35.05 46.42 34.88 Q 45.77 34.35 45.34 33.61 L 45.96 33.42 Q 46.30 33.97 46.86 34.38 Q 46.99 34.18 47.07 33.95 Q 47.18 33.63 47.22 33.29 L 45.34 33.29 L 45.34 31.01 L 47.27 31.01 L 47.27 30.33 L 45.15 30.33 Z M 44.68 28.77 L 45.38 29.00 Q 45.11 29.67 44.74 30.34 Q 44.67 30.48 44.59 30.61 L 44.59 36.25 L 43.86 36.25 L 43.86 31.71 Q 43.49 32.23 43.08 32.63 Q 43.05 32.54 42.90 32.25 Q 42.90 32.25 42.74 31.96 Q 42.74 31.96 42.67 31.86 Q 43.07 31.49 43.82 30.51 Q 43.82 30.51 44.46 29.36 Q 44.46 29.36 44.68 28.77 Z M 48.02 31.64 L 48.02 32.42 Q 48.02 32.54 48.02 32.66 L 49.29 32.66 L 49.29 31.64 Z M 46.04 31.64 L 46.04 32.66 L 47.27 32.66 Q 47.27 32.54 47.27 32.41 L 47.27 31.64 Z M 51.72 29.35 L 57.68 29.35 L 57.68 35.26 Q 57.68 35.59 57.50 35.95 Q 57.50 35.95 57.29 36.05 Q 57.07 36.14 56.34 36.18 Q 56.34 36.18 55.77 36.17 Q 55.75 36.02 55.60 35.59 Q 55.60 35.59 55.52 35.45 Q 55.78 35.45 56.27 35.47 Q 56.27 35.47 56.65 35.45 Q 56.65 35.45 56.73 35.45 Q 56.84 35.45 56.93 35.37 Q 56.93 35.37 56.93 35.26 L 56.93 33.81 L 54.98 33.81 L 54.98 36.13 L 54.22 36.13 L 54.22 33.81 L 52.36 33.81 Q 52.33 34.06 52.27 34.31 Q 52.16 34.86 51.72 35.86 Q 51.72 35.86 51.35 36.26 Q 51.30 36.18 51.08 35.99 Q 51.08 35.99 50.85 35.82 Q 50.85 35.82 50.76 35.77 Q 51.09 35.39 51.48 34.52 Q 51.48 34.52 51.66 33.58 Q 51.66 33.58 51.72 32.66 Q 51.72 32.66 51.72 32.23 Z M 54.98 33.10 L 56.93 33.10 L 56.93 31.90 L 54.98 31.90 Z M 56.93 31.20 L 56.93 30.06 L 54.98 30.06 L 54.98 31.20 Z M 52.47 31.90 L 52.47 32.23 Q 52.47 32.64 52.44 33.10 L 54.22 33.10 L 54.22 31.90 Z M 52.47 30.06 L 52.47 31.20 L 54.22 31.20 L 54.22 30.06 Z M 61.49 28.77 L 62.32 28.93 Q 62.15 29.22 61.93 29.49 L 64.28 29.49 L 64.41 29.45 L 64.93 29.76 Q 64.53 30.47 63.91 31.00 Q 63.63 31.25 63.31 31.47 Q 63.70 31.62 64.14 31.75 Q 65.13 32.06 66.28 32.19 Q 66.20 32.27 66.02 32.51 Q 66.02 32.51 65.87 32.77 Q 65.87 32.77 65.82 32.87 Q 64.66 32.70 63.66 32.35 Q 63.08 32.15 62.57 31.89 Q 62.54 31.90 62.53 31.91 Q 61.75 32.30 60.02 32.80 Q 60.02 32.80 59.14 32.94 Q 59.09 32.79 58.90 32.39 Q 58.90 32.39 58.79 32.26 Q 59.63 32.15 60.44 31.94 Q 61.18 31.74 61.85 31.45 Q 61.30 31.08 60.86 30.60 Q 60.32 31.04 59.63 31.42 Q 59.56 31.33 59.38 31.11 Q 59.38 31.11 59.18 30.91 Q 59.18 30.91 59.09 30.86 Q 59.68 30.58 60.61 29.89 Q 60.61 29.89 61.29 29.14 Q 61.29 29.14 61.49 28.77 Z M 59.70 33.21 L 62.15 33.21 L 62.15 32.45 L 62.91 32.45 L 62.91 33.21 L 65.41 33.21 L 65.41 33.86 L 62.91 33.86 L 62.91 35.43 Q 62.91 35.70 62.77 36.00 Q 62.77 36.00 62.59 36.08 Q 62.41 36.16 61.88 36.19 Q 61.88 36.19 61.52 36.19 Q 61.50 36.04 61.37 35.67 Q 61.37 35.67 61.30 35.53 Q 61.51 35.54 61.94 35.54 Q 61.94 35.54 62.02 35.54 Q 62.09 35.54 62.15 35.49 Q 62.15 35.49 62.15 35.42 L 62.15 33.86 L 59.70 33.86 Z M 60.82 34.10 L 61.43 34.37 Q 61.22 34.65 60.63 35.24 Q 60.63 35.24 59.99 35.75 Q 59.99 35.75 59.71 35.93 Q 59.66 35.85 59.48 35.65 Q 59.48 35.65 59.30 35.45 Q 59.30 35.45 59.21 35.40 Q 59.48 35.25 60.08 34.83 Q 60.08 34.83 60.64 34.33 Q 60.64 34.33 60.82 34.10 Z M 63.56 34.48 L 64.09 34.10 Q 64.37 34.31 64.94 34.83 Q 64.94 34.83 65.45 35.35 Q 65.45 35.35 65.60 35.55 L 65.02 35.99 Q 64.89 35.77 64.40 35.24 Q 64.40 35.24 63.83 34.70 Q 63.83 34.70 63.56 34.48 Z M 62.56 31.10 Q 62.93 30.88 63.25 30.62 Q 63.54 30.39 63.76 30.14 L 61.37 30.14 Q 61.36 30.14 61.35 30.15 Q 61.77 30.61 62.37 30.99 Q 62.47 31.04 62.56 31.10 Z M 71.31 28.89 L 72.07 28.89 L 72.07 30.39 L 73.84 30.39 L 73.84 31.13 L 72.07 31.13 L 72.07 32.73 L 74.21 32.73 L 74.21 33.47 L 72.07 33.47 L 72.07 36.22 L 71.31 36.22 L 71.31 33.47 L 69.06 33.47 L 69.06 32.73 L 71.31 32.73 L 71.31 31.13 L 70.17 31.13 Q 70.11 31.30 70.05 31.45 Q 69.85 31.91 69.63 32.27 Q 69.55 32.22 69.31 32.08 Q 69.31 32.08 69.06 31.94 Q 69.06 31.94 68.97 31.90 Q 69.20 31.58 69.57 30.71 Q 69.57 30.71 69.85 29.72 Q 69.85 29.72 69.93 29.21 L 70.66 29.36 Q 70.56 29.88 70.41 30.39 L 71.31 30.39 Z M 68.59 28.83 L 69.31 29.04 Q 69.05 29.72 68.71 30.38 Q 68.61 30.58 68.51 30.77 L 68.51 36.21 L 67.79 36.21 L 67.79 31.93 Q 67.48 32.35 67.16 32.70 Q 67.13 32.61 66.98 32.32 Q 66.98 32.32 66.81 32.02 Q 66.81 32.02 66.74 31.93 Q 67.11 31.55 67.80 30.55 Q 67.80 30.55 68.38 29.41 Q 68.38 29.41 68.59 28.83 Z M 75.04 29.19 L 82.04 29.19 L 82.04 29.87 L 78.99 29.87 L 78.99 30.45 L 81.54 30.45 L 81.54 33.65 L 78.89 33.65 Q 78.80 34.03 78.60 34.39 Q 78.45 34.67 78.22 34.91 Q 78.50 35.02 78.81 35.10 Q 79.51 35.28 81.27 35.41 Q 81.27 35.41 82.33 35.42 Q 82.23 35.55 82.04 35.98 Q 82.04 35.98 82.01 36.17 Q 80.93 36.13 79.08 35.93 Q 79.08 35.93 78.33 35.70 Q 77.94 35.58 77.60 35.41 Q 77.31 35.59 76.92 35.75 Q 76.27 36.02 75.34 36.22 Q 75.30 36.14 75.15 35.89 Q 75.15 35.89 74.97 35.64 Q 74.97 35.64 74.88 35.55 Q 75.78 35.40 76.39 35.18 Q 76.66 35.08 76.88 34.97 Q 76.34 34.56 75.95 33.93 L 76.60 33.67 Q 76.99 34.21 77.51 34.55 Q 77.76 34.33 77.90 34.07 Q 78.02 33.86 78.08 33.65 L 75.75 33.65 L 75.75 30.45 L 78.20 30.45 L 78.20 29.87 L 75.04 29.87 Z M 78.99 32.34 L 78.99 32.64 Q 78.99 32.83 78.98 33.02 L 80.78 33.02 L 80.78 32.34 Z M 78.99 31.75 L 80.78 31.75 L 80.78 31.07 L 78.99 31.07 Z M 76.47 32.34 L 76.47 33.02 L 78.18 33.02 Q 78.20 32.83 78.20 32.63 L 78.20 32.34 Z M 76.47 31.07 L 76.47 31.75 L 78.20 31.75 L 78.20 31.07 Z M 89.41 28.90 L 90.02 29.47 Q 89.61 29.61 88.66 29.86 Q 88.66 29.86 88.15 29.96 Q 87.90 30.01 87.64 30.06 L 87.64 31.47 L 90.23 31.47 L 90.23 32.17 L 89.41 32.17 L 89.41 36.18 L 88.68 36.18 L 88.68 32.17 L 87.64 32.17 L 87.64 32.35 Q 87.64 32.77 87.58 33.77 Q 87.58 33.77 87.42 34.80 Q 87.42 34.80 87.09 35.74 Q 87.09 35.74 86.82 36.13 Q 86.77 36.06 86.55 35.88 Q 86.55 35.88 86.33 35.72 Q 86.33 35.72 86.25 35.68 Q 86.57 35.21 86.86 34.06 Q 86.86 34.06 86.94 32.86 Q 86.94 32.86 86.94 32.35 L 86.94 29.56 Q 87.39 29.48 88.31 29.27 Q 88.31 29.27 89.13 29.03 Q 89.13 29.03 89.41 28.90 Z M 82.92 32.78 L 84.47 32.78 L 84.47 32.05 L 82.87 32.05 L 82.87 31.42 L 83.76 31.42 Q 83.74 31.22 83.66 30.95 Q 83.59 30.65 83.48 30.40 L 84.08 30.26 Q 84.20 30.49 84.38 31.08 Q 84.38 31.08 84.40 31.30 L 83.93 31.42 L 85.06 31.42 Q 85.13 31.28 85.18 31.11 Q 85.26 30.89 85.41 30.42 Q 85.41 30.42 85.47 30.24 L 86.16 30.38 Q 86.03 30.72 85.90 31.06 Q 85.82 31.26 85.74 31.42 L 86.69 31.42 L 86.69 32.05 L 85.15 32.05 L 85.15 32.78 L 86.57 32.78 L 86.57 33.43 L 85.15 33.43 L 85.15 35.35 Q 85.15 35.58 85.04 35.86 Q 85.04 35.86 84.89 35.94 Q 84.73 36.02 84.28 36.06 Q 84.28 36.06 83.98 36.06 Q 83.96 35.92 83.83 35.57 Q 83.83 35.57 83.77 35.43 Q 83.96 35.44 84.31 35.44 Q 84.31 35.44 84.37 35.44 Q 84.47 35.44 84.47 35.33 L 84.47 33.43 L 82.92 33.43 Z M 83.00 29.61 L 84.49 29.61 Q 84.47 29.55 84.44 29.49 Q 84.31 29.18 84.18 28.92 L 84.86 28.75 Q 84.99 29.00 85.13 29.31 Q 85.20 29.47 85.25 29.61 L 86.56 29.61 L 86.56 30.23 L 83.00 30.23 Z M 83.54 33.70 L 84.14 33.85 Q 84.00 34.26 83.56 35.06 Q 83.56 35.06 83.32 35.35 Q 83.23 35.26 82.93 35.04 Q 82.93 35.04 82.82 34.98 Q 83.05 34.72 83.42 34.05 Q 83.42 34.05 83.54 33.70 Z M 85.39 33.91 L 85.90 33.64 Q 86.09 33.93 86.47 34.61 Q 86.47 34.61 86.56 34.86 L 86.04 35.17 Q 85.94 34.91 85.57 34.20 Q 85.57 34.20 85.39 33.91 Z M 91.92 36.51 L 91.71 35.99 Q 92.21 35.80 92.47 35.51 Q 92.70 35.25 92.73 34.90 Q 92.67 34.91 92.61 34.91 Q 92.34 34.91 91.94 34.58 Q 91.94 34.58 91.94 34.28 Q 91.94 33.97 92.35 33.64 Q 92.35 33.64 92.63 33.64 Q 93.00 33.64 93.39 34.18 Q 93.39 34.18 93.39 34.64 Q 93.39 35.30 92.60 36.29 Q 92.60 36.29 91.92 36.51 Z M 99.03 30.42 L 102.13 30.42 L 102.13 28.79 L 102.93 28.79 L 102.93 30.42 L 106.06 30.42 L 106.06 31.18 L 103.77 31.18 Q 103.98 31.67 104.25 32.12 Q 104.66 32.81 105.70 33.93 Q 105.70 33.93 106.28 34.30 Q 106.18 34.37 105.96 34.60 Q 105.96 34.60 105.75 34.85 Q 105.75 34.85 105.69 34.95 Q 105.17 34.59 104.71 34.07 L 104.71 34.78 L 102.93 34.78 L 102.93 36.22 L 102.13 36.22 L 102.13 34.78 L 100.34 34.78 L 100.34 34.06 Q 99.87 34.59 99.34 34.98 Q 99.28 34.89 99.09 34.66 Q 99.09 34.66 98.88 34.44 Q 98.88 34.44 98.78 34.37 Q 99.36 34.00 100.38 32.83 Q 100.38 32.83 100.79 32.13 Q 101.06 31.67 101.26 31.18 L 99.03 31.18 Z M 102.13 34.02 L 102.13 31.18 L 102.03 31.18 Q 101.77 31.87 101.42 32.51 Q 101.00 33.27 100.47 33.90 Q 100.42 33.96 100.38 34.02 Z M 103.01 31.18 L 102.93 31.18 L 102.93 34.02 L 104.66 34.02 Q 104.61 33.96 104.56 33.90 Q 104.04 33.27 103.61 32.51 Q 103.27 31.86 103.01 31.18 Z M 109.97 30.57 L 111.21 30.57 Q 111.22 29.77 111.23 28.92 L 111.99 28.92 Q 111.99 29.77 111.96 30.57 L 114.06 30.57 L 114.06 30.79 Q 114.06 30.87 114.06 30.93 Q 114.02 32.15 113.93 33.87 Q 113.93 33.87 113.82 34.99 Q 113.82 34.99 113.66 35.61 Q 113.66 35.61 113.55 35.75 Q 113.41 35.94 113.10 36.09 Q 113.10 36.09 112.90 36.11 Q 112.70 36.14 112.06 36.14 Q 112.06 36.14 111.73 36.12 Q 111.72 35.95 111.59 35.53 Q 111.59 35.53 111.49 35.38 Q 111.84 35.40 112.42 35.42 Q 112.42 35.42 112.55 35.42 Q 112.67 35.42 112.82 35.36 Q 112.82 35.36 112.88 35.29 Q 112.97 35.19 113.10 34.61 Q 113.10 34.61 113.21 33.54 Q 113.21 33.54 113.25 32.72 Q 113.28 32.10 113.31 31.29 L 111.93 31.29 Q 111.90 31.90 111.82 32.47 Q 111.70 33.27 111.18 34.67 Q 111.18 34.67 110.26 35.80 Q 110.26 35.80 109.54 36.22 Q 109.48 36.13 109.30 35.90 Q 109.30 35.90 109.09 35.69 Q 109.09 35.69 109.00 35.62 Q 109.68 35.25 110.54 34.22 Q 110.54 34.22 111.00 32.95 Q 111.00 32.95 111.09 32.22 Q 111.15 31.77 111.18 31.29 L 109.97 31.29 Z M 106.90 29.70 L 109.88 29.70 L 109.88 30.42 L 108.77 30.42 L 108.77 33.52 Q 108.80 33.51 108.82 33.51 Q 109.41 33.35 109.99 33.20 L 110.08 33.91 Q 109.27 34.15 107.63 34.61 Q 107.63 34.61 106.99 34.79 L 106.80 34.01 Q 107.20 33.92 107.72 33.79 Q 107.87 33.75 108.03 33.71 L 108.03 30.42 L 106.90 30.42 Z M 115.31 31.66 L 118.23 31.66 L 118.23 35.40 Q 118.23 35.67 118.10 35.99 Q 118.10 35.99 117.92 36.07 Q 117.74 36.16 117.20 36.20 Q 117.20 36.20 116.83 36.20 Q 116.80 36.05 116.66 35.65 Q 116.66 35.65 116.58 35.51 Q 116.83 35.52 117.27 35.53 Q 117.27 35.53 117.36 35.52 Q 117.44 35.52 117.49 35.47 Q 117.49 35.47 117.49 35.39 L 117.49 34.62 L 116.01 34.62 L 116.01 36.21 L 115.31 36.21 Z M 118.93 32.54 L 119.68 32.54 L 119.68 33.74 Q 119.84 33.69 120.00 33.62 Q 120.42 33.47 121.18 33.10 Q 121.18 33.10 121.44 32.93 L 121.94 33.49 Q 121.60 33.69 120.74 34.03 Q 120.74 34.03 120.28 34.18 Q 119.98 34.28 119.68 34.37 L 119.68 35.17 Q 119.68 35.38 119.84 35.49 Q 119.84 35.49 120.09 35.49 L 121.22 35.49 Q 121.38 35.49 121.53 35.35 Q 121.53 35.35 121.60 34.90 Q 121.60 34.90 121.61 34.47 Q 121.74 34.55 122.14 34.71 Q 122.14 34.71 122.29 34.75 Q 122.25 35.31 122.05 35.91 Q 122.05 35.91 121.64 36.15 Q 121.64 36.15 121.28 36.15 L 120.00 36.15 Q 119.58 36.15 119.12 35.98 Q 119.12 35.98 118.93 35.55 Q 118.93 35.55 118.93 35.17 Z M 118.93 28.81 L 119.67 28.81 L 119.67 30.07 Q 119.82 30.02 119.97 29.97 Q 120.37 29.82 121.09 29.50 Q 121.09 29.50 121.36 29.35 L 121.86 29.90 Q 121.50 30.06 120.67 30.38 Q 120.67 30.38 120.24 30.51 Q 119.95 30.61 119.67 30.69 L 119.67 31.35 Q 119.67 31.56 119.82 31.67 Q 119.82 31.67 120.07 31.67 L 121.17 31.67 Q 121.32 31.67 121.47 31.54 Q 121.47 31.54 121.54 31.16 Q 121.54 31.16 121.55 30.78 Q 121.66 30.87 122.06 31.03 Q 122.06 31.03 122.22 31.06 Q 122.18 31.57 121.98 32.12 Q 121.98 32.12 121.57 32.34 Q 121.57 32.34 121.24 32.34 L 119.99 32.34 Q 119.57 32.34 119.10 32.17 Q 119.10 32.17 118.93 31.74 Q 118.93 31.74 118.93 31.36 Z M 117.00 29.52 L 117.63 29.27 Q 117.83 29.54 118.22 30.18 Q 118.22 30.18 118.54 30.78 Q 118.54 30.78 118.61 31.02 L 117.94 31.31 Q 117.89 31.12 117.78 30.90 Q 117.25 30.93 116.87 30.97 Q 116.40 31.01 115.80 31.07 Q 115.80 31.07 115.46 31.11 Q 115.46 31.11 115.27 31.15 Q 115.27 31.15 115.22 31.18 Q 115.20 31.10 115.11 30.84 Q 115.11 30.84 115.01 30.56 Q 115.01 30.56 114.96 30.47 Q 115.06 30.44 115.24 30.28 Q 115.24 30.28 115.34 30.15 Q 115.41 30.06 115.69 29.64 Q 115.69 29.64 116.01 29.07 Q 116.01 29.07 116.13 28.77 L 116.93 28.99 Q 116.75 29.32 116.34 29.98 Q 116.34 29.98 116.11 30.27 Q 116.05 30.35 115.99 30.42 L 117.50 30.33 Q 117.45 30.22 117.38 30.12 Q 117.20 29.79 117.00 29.52 Z M 117.49 33.44 L 116.01 33.44 L 116.01 34.05 L 117.49 34.05 Z M 117.49 32.29 L 116.01 32.29 L 116.01 32.86 L 117.49 32.86 Z M 122.95 29.35 L 130.14 29.35 L 130.14 30.10 L 129.18 30.10 L 129.18 35.20 Q 129.18 35.57 128.98 35.97 Q 128.98 35.97 128.72 36.06 Q 128.46 36.16 127.59 36.21 Q 127.59 36.21 126.99 36.21 Q 126.97 36.09 126.86 35.79 Q 126.86 35.79 126.74 35.50 Q 126.74 35.50 126.67 35.40 Q 126.99 35.41 127.59 35.42 Q 127.59 35.42 128.06 35.42 Q 128.06 35.42 128.15 35.42 Q 128.29 35.41 128.39 35.32 Q 128.39 35.32 128.39 35.19 L 128.39 30.10 L 122.95 30.10 Z M 123.74 31.16 L 127.08 31.16 L 127.08 34.20 L 124.47 34.20 L 124.47 34.83 L 123.74 34.83 Z M 124.47 31.88 L 124.47 33.48 L 126.33 33.48 L 126.33 31.88 Z M 131.31 31.66 L 134.23 31.66 L 134.23 35.40 Q 134.23 35.67 134.10 35.99 Q 134.10 35.99 133.92 36.07 Q 133.74 36.16 133.20 36.20 Q 133.20 36.20 132.83 36.20 Q 132.80 36.05 132.66 35.65 Q 132.66 35.65 132.58 35.51 Q 132.83 35.52 133.27 35.53 Q 133.27 35.53 133.36 35.52 Q 133.44 35.52 133.49 35.47 Q 133.49 35.47 133.49 35.39 L 133.49 34.62 L 132.01 34.62 L 132.01 36.21 L 131.31 36.21 Z M 134.93 32.54 L 135.68 32.54 L 135.68 33.74 Q 135.84 33.69 136.00 33.62 Q 136.42 33.47 137.18 33.10 Q 137.18 33.10 137.44 32.93 L 137.94 33.49 Q 137.60 33.69 136.74 34.03 Q 136.74 34.03 136.28 34.18 Q 135.98 34.28 135.68 34.37 L 135.68 35.17 Q 135.68 35.38 135.84 35.49 Q 135.84 35.49 136.09 35.49 L 137.22 35.49 Q 137.38 35.49 137.53 35.35 Q 137.53 35.35 137.60 34.90 Q 137.60 34.90 137.61 34.47 Q 137.74 34.55 138.14 34.71 Q 138.14 34.71 138.29 34.75 Q 138.25 35.31 138.05 35.91 Q 138.05 35.91 137.64 36.15 Q 137.64 36.15 137.28 36.15 L 136.00 36.15 Q 135.58 36.15 135.12 35.98 Q 135.12 35.98 134.93 35.55 Q 134.93 35.55 134.93 35.17 Z M 134.93 28.81 L 135.67 28.81 L 135.67 30.07 Q 135.82 30.02 135.97 29.97 Q 136.37 29.82 137.09 29.50 Q 137.09 29.50 137.36 29.35 L 137.86 29.90 Q 137.50 30.06 136.67 30.38 Q 136.67 30.38 136.24 30.51 Q 135.95 30.61 135.67 30.69 L 135.67 31.35 Q 135.67 31.56 135.82 31.67 Q 135.82 31.67 136.07 31.67 L 137.17 31.67 Q 137.32 31.67 137.47 31.54 Q 137.47 31.54 137.54 31.16 Q 137.54 31.16 137.55 30.78 Q 137.66 30.87 138.06 31.03 Q 138.06 31.03 138.22 31.06 Q 138.18 31.57 137.98 32.12 Q 137.98 32.12 137.57 32.34 Q 137.57 32.34 137.24 32.34 L 135.99 32.34 Q 135.57 32.34 135.10 32.17 Q 135.10 32.17 134.93 31.74 Q 134.93 31.74 134.93 31.36 Z M 133.00 29.52 L 133.63 29.27 Q 133.83 29.54 134.22 30.18 Q 134.22 30.18 134.54 30.78 Q 134.54 30.78 134.61 31.02 L 133.94 31.31 Q 133.89 31.12 133.78 30.90 Q 133.25 30.93 132.87 30.97 Q 132.40 31.01 131.80 31.07 Q 131.80 31.07 131.46 31.11 Q 131.46 31.11 131.27 31.15 Q 131.27 31.15 131.22 31.18 Q 131.20 31.10 131.11 30.84 Q 131.11 30.84 131.01 30.56 Q 131.01 30.56 130.96 30.47 Q 131.06 30.44 131.24 30.28 Q 131.24 30.28 131.34 30.15 Q 131.41 30.06 131.69 29.64 Q 131.69 29.64 132.01 29.07 Q 132.01 29.07 132.13 28.77 L 132.93 28.99 Q 132.75 29.32 132.34 29.98 Q 132.34 29.98 132.11 30.27 Q 132.05 30.35 131.99 30.42 L 133.50 30.33 Q 133.45 30.22 133.38 30.12 Q 133.20 29.79 133.00 29.52 Z M 133.49 33.44 L 132.01 33.44 L 132.01 34.05 L 133.49 34.05 Z M 133.49 32.29 L 132.01 32.29 L 132.01 32.86 L 133.49 32.86 Z M 138.94 32.35 L 142.03 32.35 Q 142.04 32.31 142.04 32.26 Q 142.10 31.77 142.10 31.31 L 142.10 30.90 L 140.41 30.90 Q 140.33 31.07 140.24 31.23 Q 139.97 31.70 139.68 32.07 Q 139.60 32.01 139.33 31.86 Q 139.33 31.86 139.05 31.70 Q 139.05 31.70 138.95 31.67 Q 139.25 31.34 139.77 30.45 Q 139.77 30.45 140.18 29.42 Q 140.18 29.42 140.31 28.90 L 141.11 29.06 Q 140.96 29.61 140.75 30.14 L 142.10 30.14 L 142.10 28.79 L 142.90 28.79 L 142.90 30.14 L 145.45 30.14 L 145.45 30.90 L 142.90 30.90 L 142.90 31.31 Q 142.90 31.83 142.83 32.35 L 146.13 32.35 L 146.13 33.11 L 143.18 33.11 Q 143.54 33.89 144.15 34.45 Q 144.99 35.22 146.34 35.51 Q 146.26 35.59 146.06 35.85 Q 146.06 35.85 145.90 36.11 Q 145.90 36.11 145.84 36.22 Q 144.87 35.97 143.49 35.02 Q 143.49 35.02 143.02 34.31 Q 142.77 33.93 142.56 33.50 Q 142.56 33.51 142.55 33.53 Q 142.34 34.07 141.55 35.06 Q 141.55 35.06 140.26 35.90 Q 140.26 35.90 139.31 36.22 Q 139.26 36.12 139.09 35.87 Q 139.09 35.87 138.91 35.63 Q 138.91 35.63 138.82 35.55 Q 139.71 35.27 140.90 34.54 Q 140.90 34.54 141.61 33.68 Q 141.61 33.68 141.80 33.22 Q 141.82 33.17 141.84 33.11 L 138.94 33.11 Z M 149.15 30.99 L 149.71 30.69 Q 149.90 30.91 150.27 31.43 Q 150.27 31.43 150.42 31.69 Q 150.55 31.90 150.63 32.09 Q 150.81 31.78 150.96 31.43 Q 151.20 30.86 151.54 29.50 Q 151.54 29.50 151.65 28.78 L 152.35 28.90 Q 152.24 29.58 152.07 30.22 L 154.18 30.22 L 154.18 30.93 L 153.77 30.93 Q 153.57 32.20 153.21 33.19 Q 153.02 33.70 152.77 34.14 Q 152.93 34.38 153.10 34.59 Q 153.63 35.24 154.31 35.61 Q 154.22 35.68 154.02 35.90 Q 154.02 35.90 153.84 36.12 Q 153.84 36.12 153.78 36.22 Q 153.06 35.77 152.54 35.07 Q 152.43 34.93 152.34 34.79 Q 152.25 34.90 152.17 34.99 Q 151.52 35.74 150.54 36.25 Q 150.50 36.18 150.31 35.97 Q 150.31 35.97 150.10 35.75 Q 150.10 35.75 150.02 35.69 Q 150.98 35.26 151.59 34.57 Q 151.78 34.36 151.94 34.13 Q 151.77 33.81 151.64 33.47 Q 151.43 32.96 151.26 32.42 Q 151.08 32.75 150.87 33.04 Q 150.83 32.96 150.65 32.74 Q 150.65 32.74 150.46 32.52 Q 150.46 32.52 150.38 32.45 Q 150.47 32.34 150.55 32.21 L 150.06 32.50 Q 149.99 32.29 149.70 31.76 Q 149.70 31.76 149.34 31.22 Q 149.34 31.22 149.15 30.99 Z M 149.17 32.02 L 149.89 32.15 Q 149.67 32.93 149.35 33.59 Q 149.37 33.61 149.39 33.64 Q 149.69 33.99 150.18 34.66 Q 150.18 34.66 150.34 34.93 L 149.74 35.41 Q 149.60 35.13 149.36 34.79 Q 149.18 34.54 148.98 34.28 Q 148.93 34.35 148.89 34.42 Q 148.24 35.41 147.31 36.04 Q 147.26 35.97 147.08 35.75 Q 147.08 35.75 146.87 35.54 Q 146.87 35.54 146.79 35.49 Q 147.69 34.94 148.29 34.06 Q 148.40 33.89 148.50 33.70 Q 148.36 33.54 148.21 33.37 Q 147.90 33.02 147.59 32.71 L 148.15 32.31 Q 148.45 32.60 148.77 32.94 Q 148.81 32.99 148.84 33.02 Q 149.04 32.54 149.17 32.02 Z M 146.96 29.93 L 148.63 29.93 Q 148.56 29.75 148.43 29.52 Q 148.28 29.24 148.12 29.01 L 148.75 28.77 Q 148.93 28.99 149.25 29.53 Q 149.25 29.53 149.32 29.73 L 148.84 29.93 L 150.68 29.93 L 150.68 30.61 L 146.96 30.61 Z M 151.88 30.93 Q 151.79 31.20 151.69 31.47 Q 151.89 32.34 152.23 33.12 Q 152.29 33.26 152.36 33.41 Q 152.47 33.17 152.56 32.92 Q 152.87 32.05 153.04 30.93 Z M 147.83 30.74 L 148.47 30.93 Q 148.33 31.29 147.93 32.03 Q 147.93 32.03 147.50 32.70 Q 147.50 32.70 147.28 32.96 Q 147.23 32.90 147.03 32.72 Q 147.03 32.72 146.83 32.54 Q 146.83 32.54 146.76 32.49 Q 147.06 32.15 147.63 31.20 Q 147.63 31.20 147.83 30.74 Z M 157.09 32.51 Q 157.09 33.31 156.68 34.70 Q 156.68 34.70 155.96 35.86 Q 155.96 35.86 155.50 36.33 L 154.90 36.04 Q 155.34 35.58 155.99 34.51 Q 155.99 34.51 156.37 33.23 Q 156.37 33.23 156.37 32.51 Q 156.37 31.77 155.99 30.51 Q 155.99 30.51 155.34 29.42 Q 155.34 29.42 154.90 28.97 L 155.50 28.68 Q 155.96 29.15 156.68 30.31 Q 156.68 30.31 157.09 31.69 Q 157.09 31.69 157.09 32.51 Z" xml:space="preserve" style="font-weight:613;font-size:8.00001px;line-height:1.2;font-family:'Dream Han Sans SC';-inkscape-font-specification:'Dream Han Sans SC weight=613';text-align:start;writing-mode:lr-tb;direction:ltr;text-anchor:start;fill:#ffffff;stroke-width:1" id="text9" data-original-text="（因信息源使用条件更新，本功能可能失效）" data-original-element="text"/>
</svg>