<?xml version="1.0" ?>
<svg xmlns="http://www.w3.org/2000/svg" xmlns:ns1="http://sodipodi.sourceforge.net/DTD/sodipodi-0.dtd" xmlns:ns2="http://www.inkscape.org/namespaces/inkscape" version="1.1" width="208" height="32" viewBox="0,0,208,32" id="svg6" ns1:docname="0a62d1deaf02c8c4f33bedd35d6cca52.svg" ns2:version="1.4.2 (f4327f4, 2025-05-13)">
  <defs id="defs6"/>
  <ns1:namedview id="namedview6" pagecolor="#505050" bordercolor="#eeeeee" borderopacity="1" ns2:showpageshadow="0" ns2:pageopacity="0" ns2:pagecheckerboard="0" ns2:deskcolor="#505050" ns2:zoom="8.5240385" ns2:cx="43.230682" ns2:cy="16.013536" ns2:window-width="1920" ns2:window-height="945" ns2:window-x="-9" ns2:window-y="40" ns2:window-maximized="1" ns2:current-layer="g5"/>
  <g transform="translate(-240,-164)" id="g6">
    <g data-paper-data="{&quot;isPaintingLayer&quot;:true}" fill-rule="nonzero" stroke="none" stroke-linecap="butt" stroke-linejoin="miter" stroke-miterlimit="10" stroke-dasharray="" stroke-dashoffset="0" style="mix-blend-mode: normal" id="g5">
      <path d="M240,196v-32h208v32z" fill="none" stroke-width="0" id="path1"/>
      <path d="M 240.54 172.35 L 248.88 172.35 L 248.88 170.46 L 251.07 170.46 L 251.07 172.35 L 259.39 172.35 L 259.39 174.25 L 251.07 174.25 L 251.07 176.24 L 258.41 176.24 L 258.41 187.99 Q 258.41 188.80 257.98 189.66 Q 257.98 189.66 256.81 190.08 Q 256.81 190.08 254.95 190.17 Q 254.95 190.17 253.65 190.17 Q 253.59 189.78 253.18 188.78 Q 253.18 188.78 252.97 188.42 Q 253.59 188.44 254.76 188.46 Q 254.76 188.46 255.70 188.44 Q 255.70 188.44 255.87 188.44 Q 256.17 188.44 256.36 188.25 Q 256.36 188.25 256.36 187.99 L 256.36 178.09 L 243.57 178.09 L 243.57 190.15 L 241.54 190.15 L 241.54 176.24 L 248.88 176.24 L 248.88 174.25 L 240.54 174.25 Z M 245.06 181.19 L 247.21 181.19 Q 247.09 180.70 246.74 180.01 Q 246.40 179.31 246.04 178.73 L 247.62 178.24 Q 248.05 178.79 248.74 180.16 Q 248.74 180.16 248.92 180.68 L 247.44 181.19 L 250.92 181.19 Q 251.16 180.78 251.41 180.29 Q 251.67 179.76 252.16 178.69 Q 252.16 178.69 252.33 178.24 L 254.04 178.75 Q 253.63 179.54 253.18 180.33 Q 252.91 180.80 252.65 181.19 L 254.93 181.19 L 254.93 182.78 L 250.86 182.78 L 250.86 184.63 L 255.34 184.63 L 255.34 186.28 L 250.86 186.28 L 250.86 189.70 L 248.94 189.70 L 248.94 186.28 L 244.61 186.28 L 244.61 184.63 L 248.94 184.63 L 248.94 182.78 L 245.06 182.78 Z M 268.82 171.74 L 278.46 171.74 Q 278.19 172.97 277.48 175.70 Q 277.48 175.70 277.14 176.96 Q 277.08 177.20 277.01 177.41 L 278.97 177.41 L 279.34 177.34 L 280.56 177.83 Q 279.93 180.95 278.74 183.36 Q 278.06 184.73 277.24 185.85 Q 277.34 185.92 277.42 186.01 Q 279.15 187.60 281.35 188.48 Q 281.13 188.68 280.62 189.25 Q 280.62 189.25 280.15 189.86 Q 280.15 189.86 280.00 190.13 Q 277.73 189.10 275.99 187.40 Q 275.94 187.44 275.90 187.48 Q 274.29 189.17 272.34 190.21 Q 272.21 189.98 271.72 189.38 Q 271.72 189.38 271.17 188.82 Q 271.17 188.82 270.93 188.70 Q 272.83 187.76 274.37 186.24 Q 274.54 186.09 274.69 185.94 Q 273.70 184.73 272.92 183.30 Q 272.49 182.53 272.11 181.72 Q 272.00 182.33 271.85 182.94 Q 271.36 185.14 269.67 188.78 Q 269.67 188.78 268.39 190.21 Q 268.24 190.04 267.63 189.61 Q 267.63 189.61 266.96 189.17 Q 266.96 189.17 266.73 189.03 Q 268.42 187.35 270.23 182.45 Q 270.23 182.45 270.61 179.33 Q 270.95 176.67 271.09 173.59 L 268.82 173.59 Z M 261.83 174.45 L 264.51 174.45 L 264.51 170.39 L 266.35 170.39 L 266.35 174.45 L 268.55 174.45 L 268.55 176.32 L 266.35 176.32 L 266.35 176.81 Q 266.54 177.02 266.86 177.49 Q 267.22 178.05 268.06 179.35 Q 268.06 179.35 268.75 180.44 Q 268.75 180.44 268.91 180.70 L 267.71 182.08 Q 267.55 181.66 266.92 180.38 Q 266.92 180.38 266.58 179.69 Q 266.47 179.48 266.35 179.26 L 266.35 190.17 L 264.51 190.17 L 264.51 180.76 Q 264.38 181.19 264.23 181.59 Q 263.79 182.94 262.74 185.24 Q 262.74 185.24 262.19 186.05 Q 262.08 185.77 261.73 185.02 Q 261.73 185.02 261.34 184.32 Q 261.34 184.32 261.18 184.06 Q 261.71 183.36 262.72 181.42 Q 262.72 181.42 263.62 179.18 Q 263.62 179.18 263.95 178.01 Q 264.21 177.14 264.40 176.32 L 261.83 176.32 Z M 272.98 173.59 Q 272.86 175.98 272.64 178.14 Q 273.33 180.33 274.45 182.27 Q 275.12 183.43 275.92 184.43 Q 276.53 183.59 277.01 182.64 Q 277.83 181.05 278.32 179.18 L 274.58 179.18 Q 274.92 178.20 275.61 175.64 Q 275.61 175.64 275.94 174.27 Q 276.01 173.93 276.10 173.59 Z M 283.65 171.31 L 288.23 171.31 L 288.54 171.22 L 289.84 171.97 Q 289.43 173.35 288.43 176.49 Q 288.43 176.49 287.95 177.79 Q 288.96 179.14 289.58 181.50 Q 289.58 181.50 289.58 182.49 Q 289.58 183.47 289.17 184.83 Q 289.17 184.83 288.72 185.18 Q 288.28 185.52 287.62 185.60 Q 287.01 185.71 286.30 185.65 Q 286.28 185.28 286.08 184.26 Q 286.08 184.26 285.87 183.90 Q 286.16 183.92 286.64 183.94 Q 286.64 183.94 286.85 183.92 Q 287.19 183.90 287.42 183.72 Q 287.64 183.55 287.79 182.76 Q 287.79 182.76 287.79 182.27 Q 287.79 181.44 287.21 179.24 Q 287.21 179.24 286.25 177.99 Q 286.48 177.26 286.97 175.57 Q 286.97 175.57 287.40 173.89 Q 287.40 173.89 287.60 173.15 Q 287.60 173.13 287.60 173.10 L 285.42 173.10 L 285.42 190.19 L 283.65 190.19 Z M 293.99 175.21 L 298.94 175.21 L 298.94 170.73 L 300.87 170.73 L 300.87 175.21 L 302.61 175.21 L 302.61 177.07 L 300.87 177.07 L 300.87 187.74 Q 300.87 188.54 300.48 189.48 Q 300.48 189.48 299.99 189.74 Q 299.49 190.00 297.96 190.15 Q 297.96 190.15 296.79 190.15 Q 296.72 189.74 296.34 188.56 Q 296.34 188.56 296.15 188.16 Q 296.94 188.19 298.26 188.19 Q 298.26 188.19 298.49 188.19 Q 298.73 188.16 298.94 187.97 Q 298.94 187.97 298.94 187.74 L 298.94 177.07 L 293.99 177.07 Z M 292.97 170.42 L 294.79 170.91 Q 294.25 172.64 293.50 174.31 Q 293.32 174.76 293.10 175.21 L 293.10 190.10 L 291.31 190.10 L 291.31 178.39 Q 290.69 179.31 290.03 180.07 Q 289.92 179.86 289.49 179.20 Q 289.49 179.20 289.00 178.56 Q 289.00 178.56 288.81 178.36 Q 290.13 176.92 292.31 172.70 Q 292.31 172.70 292.97 170.42 Z M 294.23 179.60 L 295.79 178.93 Q 296.19 179.67 297.00 181.38 Q 297.00 181.38 297.70 183.02 Q 297.70 183.02 297.92 183.66 L 296.25 184.45 Q 296.07 183.79 295.40 182.13 Q 295.40 182.13 294.61 180.35 Q 294.61 180.35 294.23 179.60 Z M 312.03 171.65 Q 313.31 171.58 315.99 171.38 Q 315.99 171.38 318.57 171.07 Q 318.57 171.07 320.79 170.67 Q 320.79 170.67 321.62 170.42 L 323.29 171.91 Q 321.86 172.35 318.23 172.95 Q 318.23 172.95 316.31 173.13 Q 315.16 173.21 314.07 173.27 L 314.07 176.39 Q 314.07 176.47 314.07 176.53 L 323.67 176.53 L 323.67 178.42 L 319.87 178.42 L 319.87 186.63 L 317.89 186.63 L 317.89 178.42 L 314.00 178.42 Q 313.98 178.65 313.98 178.86 Q 313.90 180.23 313.41 183.02 Q 313.41 183.02 312.49 185.65 Q 312.49 185.65 311.74 186.73 Q 311.58 186.54 310.93 186.07 Q 310.93 186.07 310.25 185.65 Q 310.25 185.65 310.04 185.54 Q 310.95 184.20 311.79 180.97 Q 311.79 180.97 312.03 177.73 Q 312.03 177.73 312.03 176.36 Z M 309.01 178.07 L 309.01 185.83 Q 309.20 185.97 309.44 186.11 Q 309.85 186.42 310.44 186.77 Q 311.50 187.42 314.35 187.76 Q 314.35 187.76 316.14 187.76 Q 317.04 187.76 319.13 187.71 Q 319.13 187.71 321.23 187.58 Q 321.23 187.58 323.18 187.42 Q 323.18 187.42 323.99 187.31 Q 323.86 187.58 323.61 188.35 Q 323.61 188.35 323.41 189.15 Q 323.41 189.15 323.39 189.42 Q 322.82 189.46 321.03 189.55 Q 321.03 189.55 318.89 189.61 Q 318.89 189.61 316.87 189.66 Q 316.87 189.66 316.08 189.66 Q 314.07 189.66 311.21 189.17 Q 311.21 189.17 310.08 188.50 Q 309.38 188.09 308.33 187.26 Q 308.33 187.26 307.97 187.26 Q 307.61 187.26 306.75 188.03 Q 306.75 188.03 305.82 189.27 Q 305.82 189.27 305.35 189.96 L 303.98 188.07 Q 305.07 186.91 306.13 186.18 Q 306.62 185.83 307.05 185.67 L 307.05 180.05 L 304.36 180.05 L 304.36 178.07 Z M 304.83 171.78 L 306.39 170.79 Q 306.96 171.33 308.20 172.66 Q 308.20 172.66 309.32 173.96 Q 309.32 173.96 309.65 174.47 L 308.01 175.61 Q 307.71 175.08 306.65 173.76 Q 306.65 173.76 305.41 172.38 Q 305.41 172.38 304.83 171.78 Z" xml:space="preserve" style="font-style:normal;font-variant:normal;font-weight:613;font-stretch:normal;font-size:21.3333px;line-height:1.2;font-family:'Dream Han Sans SC';-inkscape-font-specification:'Dream Han Sans SC weight=613';text-align:start;writing-mode:lr-tb;direction:ltr;text-anchor:start;fill:#000000" id="text6" data-original-text="南极附近" data-original-element="text"/>
    </g>
  </g>
</svg>