<?xml version="1.0" ?>
<svg xmlns="http://www.w3.org/2000/svg" xmlns:ns1="http://sodipodi.sourceforge.net/DTD/sodipodi-0.dtd" xmlns:ns2="http://www.inkscape.org/namespaces/inkscape" version="1.1" width="208" height="32" viewBox="0,0,208,32" id="svg5" ns1:docname="0b2d64e9244b08581f759e528ef04930.svg" ns2:version="1.4.2 (f4327f4, 2025-05-13)">
  <defs id="defs5"/>
  <ns1:namedview id="namedview5" pagecolor="#505050" bordercolor="#eeeeee" borderopacity="1" ns2:showpageshadow="0" ns2:pageopacity="0" ns2:pagecheckerboard="0" ns2:deskcolor="#505050" ns2:zoom="8.5240385" ns2:cx="35.370558" ns2:cy="16.013536" ns2:window-width="1920" ns2:window-height="945" ns2:window-x="-9" ns2:window-y="40" ns2:window-maximized="1" ns2:current-layer="svg5"/>
  <g transform="translate(-240,-164)" id="g5">
    <g data-paper-data="{&quot;isPaintingLayer&quot;:true}" fill-rule="nonzero" stroke="none" stroke-linecap="butt" stroke-linejoin="miter" stroke-miterlimit="10" stroke-dasharray="" stroke-dashoffset="0" style="mix-blend-mode: normal" id="g4">
      <path d="M240,196v-32h208v32z" fill="none" stroke-width="0" id="path1"/>
    </g>
  </g>
  <path d="M 1.13 8.22 L 7.62 8.22 Q 8.32 6.89 8.68 5.55 L 10.88 5.85 Q 10.49 7.05 9.92 8.22 L 19.75 8.22 L 19.75 10.04 L 14.14 10.04 Q 14.66 10.67 15.28 11.29 Q 16.38 12.38 19.12 14.11 Q 19.12 14.11 20.53 14.64 Q 20.31 14.83 19.78 15.41 Q 19.78 15.41 19.31 16.03 Q 19.31 16.03 19.16 16.29 Q 17.70 15.64 16.32 14.62 Q 15.53 14.05 14.83 13.38 L 14.83 14.85 L 6.04 14.85 L 6.04 13.47 Q 6.02 13.47 5.99 13.49 Q 4.16 15.17 1.58 16.46 Q 1.45 16.19 0.96 15.60 Q 0.96 15.60 0.42 15.05 Q 0.42 15.05 0.19 14.89 Q 2.69 13.81 4.39 12.28 Q 5.61 11.21 6.48 10.04 L 1.13 10.04 Z M 2.78 16.99 L 18.13 16.99 L 18.13 18.76 L 11.45 18.76 L 11.45 23.37 Q 11.45 24.09 11.05 24.88 Q 11.05 24.88 10.47 25.09 Q 9.92 25.31 8.28 25.37 Q 8.28 25.37 7.08 25.37 Q 6.99 24.99 6.57 23.99 Q 6.57 23.99 6.36 23.62 Q 6.93 23.64 8.03 23.68 Q 8.03 23.68 8.85 23.66 Q 8.85 23.66 9.00 23.66 Q 9.25 23.64 9.43 23.52 Q 9.43 23.52 9.43 23.30 L 9.43 18.76 L 2.78 18.76 Z M 12.02 10.04 L 8.90 10.04 Q 7.87 11.65 6.40 13.10 L 14.53 13.10 Q 14.14 12.73 13.79 12.34 Q 12.78 11.23 12.02 10.04 Z M 4.93 19.76 L 6.85 20.36 Q 6.08 21.62 3.80 23.99 Q 3.80 23.99 2.67 24.80 Q 2.49 24.62 1.90 24.13 Q 1.90 24.13 1.30 23.66 Q 1.30 23.66 1.07 23.54 Q 2.17 22.83 4.27 20.83 Q 4.27 20.83 4.93 19.76 Z M 13.55 20.67 L 15.17 19.74 Q 15.89 20.34 17.47 21.79 Q 17.47 21.79 18.88 23.19 Q 18.88 23.19 19.31 23.77 L 17.56 24.84 Q 17.17 24.27 15.83 22.79 Q 15.83 22.79 14.28 21.30 Q 14.28 21.30 13.55 20.67 Z M 38.70 17.21 L 40.36 18.49 Q 39.56 19.10 37.65 20.38 Q 37.65 20.38 36.69 20.93 Q 36.39 21.10 36.12 21.26 Q 36.59 21.55 37.10 21.81 Q 39.08 22.83 41.54 23.32 Q 41.33 23.54 40.81 24.17 Q 40.81 24.17 40.38 24.86 Q 40.38 24.86 40.23 25.14 Q 37.65 24.50 33.58 22.17 Q 33.58 22.17 32.07 20.47 Q 30.72 18.96 29.79 17.03 L 26.82 17.03 L 26.82 22.79 L 31.81 21.62 Q 31.81 22.07 31.93 23.17 Q 31.93 23.17 32.03 23.50 Q 29.81 24.05 27.07 24.74 Q 27.07 24.74 25.56 25.14 Q 25.56 25.14 24.85 25.37 Q 24.85 25.37 24.66 25.50 Q 24.58 25.27 24.17 24.68 Q 24.17 24.68 23.72 24.09 Q 23.72 24.09 23.56 23.94 Q 23.79 23.77 24.34 23.19 Q 24.34 23.19 24.70 22.38 Q 24.70 22.38 24.70 21.85 L 24.70 7.58 L 30.93 7.58 Q 30.89 7.43 30.85 7.28 Q 30.59 6.50 30.34 5.83 L 32.36 5.38 Q 32.68 6.02 32.94 6.79 Q 33.09 7.22 33.19 7.58 L 38.83 7.58 L 38.83 17.03 L 31.91 17.03 Q 32.64 18.29 33.68 19.33 Q 34.09 19.76 34.54 20.12 Q 34.90 19.93 35.27 19.69 Q 36.22 19.08 38.04 17.78 Q 38.04 17.78 38.70 17.21 Z M 26.82 13.06 L 26.82 15.26 L 36.75 15.26 L 36.75 13.06 Z M 26.82 9.35 L 26.82 11.44 L 36.75 11.44 L 36.75 9.35 Z M 43.59 17.41 L 46.89 17.41 L 46.89 6.58 L 59.75 6.58 L 59.75 17.41 L 62.66 17.41 L 62.66 19.23 L 51.92 19.23 Q 50.80 20.51 49.54 21.64 Q 48.94 22.19 48.36 22.66 L 57.72 22.28 Q 57.49 22.05 57.23 21.81 Q 56.28 20.87 55.36 20.12 L 57.07 19.35 Q 57.98 20.10 59.94 21.93 Q 59.94 21.93 61.65 23.71 Q 61.65 23.71 62.18 24.39 L 60.44 25.33 Q 59.94 24.66 59.20 23.84 Q 56.45 23.97 54.42 24.07 Q 52.24 24.19 49.28 24.35 Q 49.28 24.35 47.40 24.48 Q 47.40 24.48 46.28 24.60 Q 46.28 24.60 45.65 24.72 Q 45.65 24.72 45.44 24.80 Q 45.38 24.58 45.16 23.90 Q 45.16 23.90 44.91 23.15 Q 44.91 23.15 44.80 22.89 Q 45.12 22.81 45.87 22.38 Q 45.87 22.38 46.28 22.05 Q 46.59 21.83 47.89 20.67 Q 47.89 20.67 48.68 19.85 Q 48.96 19.55 49.23 19.23 L 43.59 19.23 Z M 48.83 17.41 L 57.72 17.41 L 57.72 15.43 L 48.83 15.43 Z M 57.72 10.23 L 57.72 8.29 L 48.83 8.29 L 48.83 10.23 Z M 57.72 13.77 L 57.72 11.89 L 48.83 11.89 L 48.83 13.77 Z" xml:space="preserve" style="font-weight:613;font-size:21.3333px;line-height:1.2;font-family:'Dream Han Sans SC';-inkscape-font-specification:'Dream Han Sans SC weight=613';text-align:start;writing-mode:lr-tb;direction:ltr;text-anchor:start;fill:#ffffff" id="text5" data-original-text="奈良县" data-original-element="text"/>
</svg>