<?xml version="1.0" ?>
<svg xmlns="http://www.w3.org/2000/svg" xmlns:ns1="http://sodipodi.sourceforge.net/DTD/sodipodi-0.dtd" xmlns:ns2="http://www.inkscape.org/namespaces/inkscape" version="1.1" width="208" height="32" viewBox="0,0,208,32" id="svg7" ns1:docname="0b49df6b3ee7150fc42dc2dbb91734f7.svg" ns2:version="1.4.2 (f4327f4, 2025-05-13)">
  <defs id="defs7"/>
  <ns1:namedview id="namedview7" pagecolor="#505050" bordercolor="#eeeeee" borderopacity="1" ns2:showpageshadow="0" ns2:pageopacity="0" ns2:pagecheckerboard="0" ns2:deskcolor="#505050" ns2:zoom="8.5240385" ns2:cx="45.811619" ns2:cy="16.013536" ns2:window-width="1920" ns2:window-height="945" ns2:window-x="-9" ns2:window-y="40" ns2:window-maximized="1" ns2:current-layer="svg7"/>
  <g transform="translate(-240,-164)" id="g7">
    <g data-paper-data="{&quot;isPaintingLayer&quot;:true}" fill-rule="nonzero" stroke="none" stroke-linecap="butt" stroke-linejoin="miter" stroke-miterlimit="10" stroke-dasharray="" stroke-dashoffset="0" style="mix-blend-mode: normal" id="g6">
      <path d="M240,196v-32h208v32z" fill="none" stroke-width="0" id="path1"/>
    </g>
  </g>
  <path d="M 8.44 15.91 L 19.68 15.91 L 19.68 25.43 L 17.74 25.43 L 17.74 24.53 L 10.29 24.53 L 10.29 25.47 L 8.44 25.47 L 8.44 17.49 L 7.48 18.79 Q 7.24 18.47 6.47 17.59 Q 6.47 17.59 6.04 17.12 Q 5.77 16.80 5.51 16.53 L 5.51 25.47 L 3.55 25.47 L 3.55 17.77 Q 2.27 19.07 0.97 19.97 Q 0.89 19.69 0.52 18.96 Q 0.52 18.96 0.16 18.28 Q 0.16 18.28 -0.01 18.10 Q 1.34 17.26 3.85 14.70 Q 3.85 14.70 4.90 13.18 Q 5.45 12.34 5.86 11.50 L 0.78 11.50 L 0.78 9.68 L 6.86 9.68 L 7.22 9.59 L 8.34 10.32 Q 7.61 12.30 6.43 14.14 Q 6.20 14.46 5.98 14.80 Q 6.14 14.91 6.35 15.08 Q 6.75 15.44 7.71 16.29 Q 7.71 16.29 8.12 16.64 Q 8.30 16.83 8.44 16.96 Z M 9.52 9.59 L 18.72 9.59 L 18.72 14.72 L 9.52 14.72 Z M 8.34 6.68 L 19.78 6.68 L 19.78 8.39 L 8.34 8.39 Z M 11.31 11.16 L 11.31 13.16 L 16.87 13.16 L 16.87 11.16 Z M 2.29 6.48 L 3.90 5.80 Q 4.37 6.52 5.33 8.23 Q 5.33 8.23 5.58 8.83 L 3.96 9.64 Q 3.70 9.02 2.72 7.23 Q 2.72 7.23 2.29 6.48 Z M 17.74 22.89 L 17.74 20.97 L 14.86 20.97 L 14.86 22.89 Z M 17.74 19.43 L 17.74 17.55 L 14.86 17.55 L 14.86 19.43 Z M 10.29 22.89 L 13.04 22.89 L 13.04 20.97 L 10.29 20.97 Z M 13.04 19.43 L 13.04 17.55 L 10.29 17.55 L 10.29 19.43 Z M 22.88 6.76 L 40.44 6.76 L 40.44 22.89 Q 40.44 23.82 39.91 24.78 Q 39.91 24.78 39.28 25.04 Q 38.65 25.30 36.58 25.43 Q 36.58 25.43 35.00 25.41 Q 34.95 25.12 34.68 24.39 Q 34.68 24.39 34.36 23.66 Q 34.36 23.66 34.19 23.40 Q 34.91 23.42 36.39 23.46 Q 36.39 23.46 37.49 23.44 Q 37.49 23.44 37.71 23.44 Q 38.04 23.42 38.33 23.19 Q 38.33 23.19 38.33 22.86 L 38.33 8.74 L 24.93 8.74 L 24.93 25.49 L 22.88 25.49 Z M 26.13 12.05 L 27.55 10.90 Q 28.90 12.01 30.26 13.29 Q 31.12 14.07 31.93 14.89 Q 32.14 14.59 32.34 14.29 Q 33.74 12.09 34.76 9.75 L 36.70 10.34 Q 35.55 12.82 34.05 15.12 Q 33.70 15.72 33.31 16.27 Q 34.36 17.39 35.27 18.41 Q 36.35 19.65 37.06 20.67 L 35.53 22.11 Q 34.83 21.07 33.78 19.79 Q 33.01 18.87 32.12 17.90 Q 31.52 18.67 30.90 19.41 Q 29.22 21.37 27.42 22.84 Q 27.23 22.66 26.60 22.19 Q 26.60 22.19 25.93 21.74 Q 25.93 21.74 25.68 21.58 Q 27.53 20.22 29.22 18.36 Q 30.04 17.45 30.79 16.47 Q 29.84 15.46 28.81 14.48 Q 27.45 13.16 26.13 12.05 Z M 43.47 17.53 L 46.77 17.53 L 46.77 6.70 L 59.64 6.70 L 59.64 17.53 L 62.54 17.53 L 62.54 19.34 L 51.80 19.34 Q 50.68 20.62 49.42 21.76 Q 48.83 22.31 48.24 22.78 L 57.61 22.40 Q 57.38 22.17 57.12 21.93 Q 56.16 20.99 55.24 20.24 L 56.95 19.47 Q 57.87 20.22 59.83 22.05 Q 59.83 22.05 61.53 23.82 Q 61.53 23.82 62.06 24.51 L 60.33 25.45 Q 59.83 24.78 59.09 23.96 Q 56.34 24.08 54.30 24.19 Q 52.13 24.31 49.16 24.47 Q 49.16 24.47 47.28 24.59 Q 47.28 24.59 46.16 24.72 Q 46.16 24.72 45.53 24.83 Q 45.53 24.83 45.33 24.92 Q 45.26 24.70 45.04 24.02 Q 45.04 24.02 44.79 23.27 Q 44.79 23.27 44.68 23.01 Q 45.00 22.93 45.75 22.50 Q 45.75 22.50 46.16 22.17 Q 46.47 21.95 47.77 20.79 Q 47.77 20.79 48.56 19.97 Q 48.85 19.67 49.12 19.34 L 43.47 19.34 Z M 48.71 17.53 L 57.61 17.53 L 57.61 15.55 L 48.71 15.55 Z M 57.61 10.34 L 57.61 8.41 L 48.71 8.41 L 48.71 10.34 Z M 57.61 13.89 L 57.61 12.01 L 48.71 12.01 L 48.71 13.89 Z M 73.36 12.84 L 81.44 12.84 L 81.44 22.48 Q 81.44 22.80 81.48 23.23 Q 81.48 23.23 81.52 23.29 Q 81.66 23.37 81.85 23.37 L 82.31 23.37 Q 82.42 23.37 82.66 23.33 Q 82.66 23.33 82.70 23.31 Q 82.74 23.27 82.87 23.10 Q 82.87 23.10 82.89 22.91 Q 82.93 22.72 82.95 21.95 Q 82.95 21.95 82.97 21.44 Q 83.27 21.65 84.11 22.07 Q 84.11 22.07 84.49 22.21 Q 84.47 22.78 84.35 23.89 Q 84.35 23.89 84.23 24.15 Q 84.13 24.41 83.78 24.76 Q 83.78 24.76 83.55 24.90 Q 83.34 25.00 82.74 25.10 Q 82.74 25.10 82.44 25.10 L 81.31 25.10 Q 80.97 25.10 80.24 24.90 Q 80.24 24.90 79.99 24.66 Q 79.71 24.41 79.50 23.53 Q 79.50 23.53 79.50 22.40 L 79.50 20.37 L 78.09 21.37 Q 77.81 20.84 76.84 19.54 Q 76.84 19.54 76.25 18.83 Q 75.78 18.28 75.31 17.77 Q 75.29 18.73 75.15 19.73 Q 75.00 20.79 74.13 22.86 Q 74.13 22.86 72.48 24.72 Q 72.48 24.72 71.16 25.45 Q 71.03 25.26 70.51 24.70 Q 70.51 24.70 69.96 24.15 Q 69.96 24.15 69.77 24.02 Q 70.99 23.37 72.42 21.84 Q 72.42 21.84 73.14 20.16 Q 73.14 20.16 73.36 18.43 Q 73.36 18.43 73.36 17.61 Z M 64.97 13.07 L 72.46 13.07 L 72.46 14.84 L 69.67 14.84 L 69.67 19.73 Q 71.03 19.45 72.40 19.18 L 72.56 20.89 Q 70.54 21.37 66.48 22.31 Q 66.48 22.31 64.87 22.68 L 64.46 20.77 Q 65.46 20.58 66.74 20.32 Q 67.23 20.22 67.72 20.14 L 67.72 14.84 L 64.97 14.84 Z M 76.29 5.62 L 78.24 6.07 Q 78.00 6.97 77.67 7.84 L 83.85 7.84 L 83.85 9.55 L 80.36 9.55 Q 80.59 9.90 80.83 10.26 Q 81.40 11.14 81.68 11.81 L 79.89 12.50 Q 79.63 11.85 79.10 10.92 Q 78.65 10.20 78.20 9.55 L 76.94 9.55 Q 76.90 9.61 76.88 9.68 Q 76.02 11.41 75.02 12.60 Q 74.85 12.44 74.21 12.01 Q 74.21 12.01 73.56 11.60 Q 73.56 11.60 73.34 11.47 Q 74.34 10.41 75.88 7.31 Q 75.88 7.31 76.29 5.62 Z M 67.83 5.54 L 69.77 6.03 Q 69.47 6.95 69.06 7.84 L 74.19 7.84 L 74.19 9.55 L 71.14 9.55 Q 71.30 9.90 71.48 10.26 Q 71.91 11.18 72.10 11.83 L 70.35 12.56 Q 70.18 11.93 69.79 10.96 Q 69.47 10.20 69.13 9.55 L 68.21 9.55 Q 67.83 10.24 67.42 10.87 Q 66.72 11.95 65.95 12.75 Q 65.78 12.58 65.16 12.16 Q 65.16 12.16 64.50 11.77 Q 64.50 11.77 64.26 11.65 Q 65.42 10.55 67.29 7.31 Q 67.29 7.31 67.83 5.54 Z M 75.31 14.61 L 75.31 17.45 L 76.60 16.59 Q 77.17 17.12 78.37 18.45 Q 78.37 18.45 78.86 19.09 Q 79.24 19.56 79.50 19.97 L 79.50 14.61 Z M 91.68 16.27 L 103.95 16.27 L 103.95 25.45 L 101.84 25.45 L 101.84 24.47 L 93.71 24.47 L 93.71 25.49 L 91.68 25.49 Z M 102.37 5.82 L 104.05 7.46 Q 102.47 7.84 98.72 8.45 Q 98.72 8.45 94.67 8.92 Q 94.67 8.92 92.60 9.06 Q 91.36 9.17 90.17 9.23 L 90.17 11.58 L 105.46 11.58 L 105.46 13.52 L 90.17 13.52 Q 90.15 14.74 90.05 16.19 Q 89.95 17.79 89.36 21.11 Q 89.36 21.11 88.18 24.25 Q 88.18 24.25 87.24 25.53 Q 87.08 25.32 86.45 24.78 Q 86.45 24.78 85.81 24.27 Q 85.81 24.27 85.55 24.15 Q 86.43 22.97 87.44 20.20 Q 87.44 20.20 87.93 17.28 Q 87.93 17.28 88.07 14.46 Q 88.07 14.46 88.07 13.24 L 88.07 7.57 Q 89.99 7.46 93.96 7.12 Q 93.96 7.12 97.78 6.68 Q 97.78 6.68 101.13 6.11 Q 101.13 6.11 102.37 5.82 Z M 101.84 22.59 L 101.84 18.12 L 93.71 18.12 L 93.71 22.59 Z" xml:space="preserve" style="font-weight:613;font-size:21.3333px;line-height:1.2;font-family:'Dream Han Sans SC';-inkscape-font-specification:'Dream Han Sans SC weight=613';text-align:start;writing-mode:lr-tb;direction:ltr;text-anchor:start;fill:#ffffff" id="text7" data-original-text="福冈县筑后" data-original-element="text"/>
</svg>