<?xml version="1.0" ?>
<svg xmlns="http://www.w3.org/2000/svg" xmlns:ns1="http://sodipodi.sourceforge.net/DTD/sodipodi-0.dtd" xmlns:ns2="http://www.inkscape.org/namespaces/inkscape" viewBox="0 0 224 400" version="1.1" height="400" width="224" id="svg9" ns1:docname="0b8444aa121c41788eacce42ccebb139.svg" ns2:version="1.4.2 (f4327f4, 2025-05-13)">
  <defs id="defs9"/>
  <ns1:namedview id="namedview9" pagecolor="#505050" bordercolor="#eeeeee" borderopacity="1" ns2:showpageshadow="0" ns2:pageopacity="0" ns2:pagecheckerboard="0" ns2:deskcolor="#505050" ns2:zoom="1.8275" ns2:cx="111.9015" ns2:cy="200" ns2:window-width="1920" ns2:window-height="945" ns2:window-x="-9" ns2:window-y="40" ns2:window-maximized="1" ns2:current-layer="svg9"/>
  <path style="paint-order:stroke markers fill" stroke-width="12" stroke-linejoin="round" stroke-linecap="round" stop-color="#000000" fill-rule="evenodd" fill-opacity=".8" fill="#1d2a41" d="m10 0h204c5.54 0 10 4.46 10 10v380c0 5.54-4.46 10-10 10h-204c-5.54 0-10-4.46-10-10v-380c0-5.54 4.46-10 10-10z" id="path1"/>
  <g fill="#fff" transform="translate(0 26.00088)" id="g9"/>
  <path d="M 79.75 160.45 L 94.34 160.45 L 94.34 163.17 L 92.20 163.17 L 92.20 179.75 Q 93.51 179.55 94.83 179.36 L 94.98 181.89 Q 93.58 182.14 92.20 182.41 L 92.20 188.67 L 89.22 188.67 L 89.22 182.94 Q 86.80 183.39 84.55 183.75 Q 82.09 184.16 80.05 184.52 L 79.41 181.62 Q 80.48 181.47 81.73 181.31 L 81.73 163.17 L 79.75 163.17 Z M 94.50 162.53 L 105.83 162.53 L 106.34 162.44 L 108.20 162.91 Q 107.50 169.41 105.73 174.41 Q 104.72 177.41 103.34 179.91 Q 103.69 180.48 104.08 181.06 Q 106.22 184.28 109.36 186.14 Q 109.03 186.41 108.26 187.23 Q 108.26 187.23 107.53 188.12 Q 107.53 188.12 107.31 188.52 Q 103.98 186.30 101.73 182.84 Q 101.67 182.75 101.61 182.66 Q 101.51 182.78 101.42 182.91 Q 98.83 186.47 95.50 188.77 Q 95.14 188.22 94.03 186.87 Q 94.03 186.87 93.55 186.50 Q 96.59 184.61 98.98 181.28 Q 99.53 180.58 100.01 179.78 Q 98.89 177.50 98.09 174.91 Q 96.72 170.53 95.84 165.37 L 94.50 165.37 Z M 101.67 176.70 Q 102.44 175.14 103.05 173.37 Q 104.36 169.69 105.03 165.37 L 98.56 165.37 Q 99.28 169.77 100.51 173.62 Q 101.06 175.23 101.67 176.70 Z M 89.22 173.86 L 89.22 169.73 L 84.62 169.73 L 84.62 173.86 Z M 89.22 180.19 L 89.22 176.45 L 84.62 176.45 L 84.62 180.89 Q 86.80 180.58 89.19 180.22 Q 89.22 180.22 89.22 180.19 Z M 89.22 167.11 L 89.22 163.17 L 84.62 163.17 L 84.62 167.11 Z M 122.31 168.09 L 129.36 168.09 L 129.36 159.00 L 132.36 159.00 L 132.36 168.09 L 139.14 168.09 L 139.14 185.25 Q 139.14 186.36 138.61 187.75 Q 138.61 187.75 137.76 188.09 Q 136.97 188.45 134.44 188.61 Q 134.44 188.61 132.62 188.61 Q 132.55 188.00 132.01 186.33 Q 132.01 186.33 131.69 185.73 Q 132.94 185.80 135.17 185.83 Q 135.17 185.83 135.56 185.80 Q 136.20 185.77 136.20 185.19 L 136.20 182.05 L 125.30 182.05 L 125.30 188.70 L 122.31 188.70 Z M 112.30 186.53 Q 113.09 185.31 114.98 181.89 Q 114.98 181.89 116.94 178.05 Q 116.94 178.05 117.76 176.22 L 120.01 178.05 Q 119.28 179.75 117.58 183.39 Q 117.58 183.39 115.78 186.91 Q 115.78 186.91 114.92 188.48 Z M 136.20 176.45 L 125.30 176.45 L 125.30 179.45 L 136.20 179.45 Z M 136.20 170.91 L 125.30 170.91 L 125.30 173.86 L 136.20 173.86 Z M 137.55 159.84 L 140.48 160.95 Q 139.69 162.59 137.83 165.83 Q 137.83 165.83 137.00 167.00 L 134.41 165.95 Q 134.95 165.12 136.11 163.03 Q 136.11 163.03 137.22 160.80 Q 137.22 160.80 137.55 159.84 Z M 111.34 169.98 L 113.06 167.84 Q 114.06 168.28 116.26 169.56 Q 116.26 169.56 118.25 170.91 Q 118.25 170.91 118.86 171.48 L 117.03 173.86 Q 116.45 173.28 114.53 171.84 Q 114.53 171.84 112.36 170.50 Q 112.36 170.50 111.34 169.98 Z M 121.39 161.19 L 123.95 160.06 Q 124.59 160.92 125.89 163.03 Q 125.89 163.03 126.95 165.06 Q 126.95 165.06 127.17 165.89 L 124.45 167.20 Q 124.26 166.36 123.28 164.28 Q 123.28 164.28 122.06 162.11 Q 122.06 162.11 121.39 161.19 Z M 112.84 161.44 L 114.61 159.36 Q 115.59 159.81 117.76 161.09 Q 117.76 161.09 119.66 162.44 Q 119.66 162.44 120.26 163.03 L 118.37 165.37 Q 117.83 164.77 115.98 163.36 Q 115.98 163.36 113.83 161.95 Q 113.83 161.95 112.84 161.44 Z" xml:space="preserve" style="font-weight:613;font-size:32px;line-height:1.2;font-family:'Dream Han Sans SC';-inkscape-font-specification:'Dream Han Sans SC weight=613';text-align:start;writing-mode:lr-tb;direction:ltr;text-anchor:start;fill:#ffffff" id="text9" data-original-text="取消" data-original-element="text"/>
  <path d="M 71.30 204.29 L 76.33 204.29 Q 76.25 204.03 76.13 203.71 Q 75.84 202.98 75.52 202.34 L 77.25 201.92 Q 77.62 202.52 77.91 203.23 Q 78.18 203.82 78.29 204.29 L 82.24 204.29 L 82.24 205.89 L 77.13 205.89 Q 77.02 206.06 76.91 206.23 Q 76.48 206.86 75.54 208.17 Q 75.54 208.17 75.11 208.79 Q 75.02 208.90 74.95 209.01 L 78.12 208.86 Q 78.75 208.04 79.21 207.18 L 80.92 207.78 Q 80.03 209.31 77.39 212.12 Q 77.39 212.12 74.18 214.44 Q 74.18 214.44 72.33 215.24 Q 72.23 215.04 71.87 214.54 Q 71.87 214.54 71.48 214.03 Q 71.48 214.03 71.32 213.86 Q 73.06 213.15 74.60 212.09 Q 75.73 211.32 76.68 210.43 Q 75.86 210.48 75.24 210.52 Q 74.15 210.62 72.95 210.75 Q 72.95 210.75 72.37 210.86 Q 72.37 210.86 72.21 210.93 Q 72.17 210.71 71.96 210.07 Q 71.96 210.07 71.73 209.42 Q 71.73 209.42 71.66 209.23 Q 71.98 209.16 72.85 208.88 Q 72.85 208.88 73.10 208.63 Q 73.28 208.45 73.96 207.58 Q 73.96 207.58 74.74 206.47 Q 74.74 206.47 75.10 205.95 Q 75.11 205.93 75.11 205.89 L 71.30 205.89 Z M 80.47 210.69 L 82.29 211.39 Q 81.17 213.14 79.56 214.67 Q 79.26 214.93 78.96 215.19 Q 79.30 215.45 79.65 215.73 Q 80.44 216.34 81.85 217.54 Q 81.85 217.54 82.32 218.01 L 80.94 219.15 Q 80.53 218.66 79.14 217.43 Q 79.14 217.43 78.36 216.77 Q 78.03 216.48 77.69 216.22 Q 76.86 216.84 75.92 217.39 Q 73.92 218.60 71.62 219.41 Q 71.51 219.19 71.12 218.64 Q 71.12 218.64 70.73 218.08 Q 70.73 218.08 70.56 217.91 Q 72.76 217.21 76.61 214.99 Q 76.61 214.99 79.60 212.22 Q 79.60 212.22 80.47 210.69 Z M 68.21 219.19 Q 68.13 219.00 67.78 218.51 Q 67.78 218.51 67.42 218.05 Q 67.42 218.05 67.28 217.91 Q 67.46 217.75 67.90 217.23 Q 67.90 217.23 68.21 216.46 Q 68.21 216.46 68.21 215.97 L 68.21 209.50 L 65.37 209.50 L 65.37 207.79 L 69.91 207.79 L 69.91 215.77 L 71.55 214.63 Q 71.64 214.99 71.94 215.88 Q 71.94 215.88 72.05 216.14 Q 70.93 217.00 69.52 218.05 Q 69.52 218.05 68.72 218.68 Q 68.72 218.68 68.32 219.05 Q 68.32 219.05 68.21 219.19 Z M 66.55 203.15 L 67.81 202.18 Q 68.29 202.66 69.27 203.82 Q 69.27 203.82 70.13 204.94 Q 70.13 204.94 70.39 205.37 L 69.03 206.47 Q 68.79 206.03 67.95 204.87 Q 67.95 204.87 66.99 203.66 Q 66.99 203.66 66.55 203.15 Z M 94.96 202.02 L 96.62 202.02 L 96.62 206.53 L 98.68 205.65 L 98.99 205.39 L 99.30 205.15 L 100.56 205.62 L 100.48 205.91 Q 100.48 207.24 100.46 209.50 Q 100.46 209.50 100.43 211.27 Q 100.43 211.27 100.37 212.48 Q 100.37 212.48 100.32 212.76 Q 100.26 213.36 99.75 213.99 Q 99.75 213.99 99.32 214.13 Q 98.93 214.27 97.91 214.33 Q 97.91 214.33 97.50 214.33 Q 97.46 213.97 97.24 213.10 Q 97.24 213.10 97.11 212.82 Q 97.38 212.83 98.06 212.85 Q 98.06 212.85 98.18 212.85 Q 98.39 212.85 98.64 212.67 Q 98.64 212.67 98.69 212.39 Q 98.73 212.22 98.77 211.18 Q 98.77 211.18 98.79 209.48 Q 98.79 209.48 98.79 208.30 Q 98.79 207.85 98.79 207.38 L 96.62 208.32 L 96.62 215.10 L 94.96 215.10 L 94.96 209.02 L 92.87 209.93 L 92.87 216.13 Q 92.87 216.64 93.05 217.18 Q 93.05 217.18 93.67 217.37 Q 93.67 217.37 94.26 217.37 L 98.39 217.37 Q 98.93 217.37 99.46 216.96 Q 99.46 216.96 99.71 215.88 Q 99.71 215.88 99.78 214.85 Q 100.07 215.06 100.99 215.43 Q 100.99 215.43 101.35 215.51 Q 101.23 216.82 100.67 218.30 Q 100.67 218.30 99.53 218.96 Q 99.53 218.96 98.50 218.96 L 94.16 218.96 Q 93.02 218.96 91.69 218.48 Q 91.69 218.48 91.17 217.23 Q 91.17 217.23 91.17 216.11 L 91.17 210.66 L 89.90 211.19 L 89.22 209.64 L 91.17 208.82 L 91.17 203.80 L 92.87 203.80 L 92.87 208.11 L 94.96 207.22 Z M 83.95 206.45 L 86.26 206.45 L 86.26 202.25 L 87.92 202.25 L 87.92 206.45 L 89.99 206.45 L 89.99 208.11 L 87.92 208.11 L 87.92 213.10 Q 88.90 212.69 89.88 212.28 L 90.27 213.85 Q 88.78 214.56 85.71 215.97 Q 85.71 215.97 84.45 216.54 L 83.76 214.76 Q 84.50 214.48 85.51 214.08 Q 85.89 213.94 86.26 213.77 L 86.26 208.11 L 83.95 208.11 Z M 104.31 210.15 L 118.98 210.15 L 118.98 211.39 L 105.97 211.39 L 105.97 212.76 Q 105.97 213.30 105.91 213.92 L 119.69 213.92 L 119.69 215.11 L 117.40 215.11 L 118.59 215.73 Q 117.90 216.20 117.11 216.61 Q 116.69 216.82 116.29 217.00 Q 116.52 217.07 116.78 217.15 Q 118.24 217.52 120.01 217.66 Q 119.77 217.89 119.27 218.68 Q 119.27 218.68 119.11 219.01 Q 117.21 218.80 114.17 217.75 Q 114.17 217.75 113.07 216.89 Q 112.09 216.14 111.42 215.11 L 108.90 215.11 L 108.90 217.50 L 112.88 216.95 Q 112.80 217.23 112.73 218.01 Q 112.73 218.01 112.73 218.25 Q 110.95 218.55 108.79 218.92 Q 108.79 218.92 107.64 219.15 Q 107.64 219.15 107.11 219.28 Q 107.11 219.28 106.96 219.35 Q 106.91 219.15 106.64 218.62 Q 106.64 218.62 106.32 218.12 Q 106.32 218.12 106.18 217.95 Q 106.48 217.78 107.19 217.05 Q 107.19 217.05 107.19 216.44 L 107.19 215.11 L 105.79 215.11 Q 105.69 215.63 105.54 216.20 Q 105.30 217.09 104.40 218.78 Q 104.40 218.78 103.70 219.46 Q 103.56 219.30 103.10 218.87 Q 103.10 218.87 102.58 218.44 Q 102.58 218.44 102.39 218.36 Q 103.27 217.52 104.07 215.56 Q 104.07 215.56 104.31 213.58 Q 104.31 213.58 104.31 212.73 Z M 104.36 202.64 L 118.09 202.64 L 118.09 203.93 L 112.04 203.93 L 112.04 204.81 L 119.27 204.81 L 119.27 208.04 L 117.54 208.04 L 117.54 205.89 L 112.04 205.89 L 112.04 209.74 L 110.32 209.74 L 110.32 205.89 L 104.86 205.89 L 104.86 208.04 L 103.21 208.04 L 103.21 204.81 L 110.32 204.81 L 110.32 203.93 L 104.36 203.93 Z M 106.80 212.07 L 117.92 212.07 L 117.92 213.17 L 106.80 213.17 Z M 112.84 208.41 L 117.34 208.41 L 117.34 209.36 L 112.84 209.36 Z M 105.15 208.41 L 109.56 208.41 L 109.56 209.36 L 105.15 209.36 Z M 112.84 206.69 L 116.90 206.69 L 116.90 207.65 L 112.84 207.65 Z M 105.54 206.69 L 109.54 206.69 L 109.54 207.65 L 105.54 207.65 Z M 117.21 215.11 L 113.07 215.11 Q 113.57 215.68 114.28 216.11 Q 114.60 216.31 114.95 216.48 Q 115.23 216.33 115.53 216.16 Q 116.01 215.88 116.48 215.58 Q 116.90 215.32 117.21 215.11 Z M 127.46 213.21 L 137.15 213.21 L 137.15 219.28 L 135.58 219.28 L 135.58 218.66 L 128.97 218.66 L 128.97 219.33 L 127.46 219.33 Z M 125.18 202.11 L 126.75 202.57 Q 126.20 204.14 125.46 205.69 Q 125.36 205.91 125.25 206.12 L 125.25 219.41 L 123.63 219.41 L 123.63 208.93 Q 122.87 210.11 122.05 211.07 Q 121.95 210.86 121.64 210.21 Q 121.64 210.21 121.26 209.55 Q 121.26 209.55 121.09 209.36 Q 121.91 208.47 123.44 206.14 Q 123.44 206.14 124.73 203.46 Q 124.73 203.46 125.18 202.11 Z M 126.38 205.03 L 131.92 205.03 Q 131.73 204.55 131.40 203.91 Q 131.02 203.18 130.65 202.59 L 132.16 202.01 Q 132.55 202.57 133.34 203.95 Q 133.34 203.95 133.52 204.46 L 132.22 205.03 L 138.36 205.03 L 138.36 206.49 L 126.38 206.49 Z M 135.58 217.25 L 135.58 214.65 L 128.97 214.65 L 128.97 217.25 Z M 127.72 207.78 L 136.94 207.78 L 136.94 209.18 L 127.72 209.18 Z M 127.72 210.45 L 136.94 210.45 L 136.94 211.87 L 127.72 211.87 Z M 142.74 203.73 L 147.09 203.73 Q 147.25 203.36 147.39 202.91 Q 147.60 202.31 147.69 201.82 L 149.80 202.14 Q 149.50 202.75 149.19 203.34 Q 149.05 203.54 148.96 203.73 L 154.36 203.73 L 154.36 212.74 L 148.57 212.74 Q 148.94 213.08 149.32 213.47 Q 149.80 213.97 150.60 215.00 Q 150.60 215.00 150.85 215.41 L 149.41 216.29 Q 149.19 215.86 148.41 214.81 Q 148.41 214.81 147.47 213.76 Q 147.47 213.76 147.02 213.33 L 148.03 212.74 L 142.74 212.74 Z M 144.05 213.97 L 145.83 213.97 L 145.83 216.79 Q 145.83 217.18 146.31 217.41 Q 146.31 217.41 147.17 217.41 L 150.90 217.41 Q 151.39 217.41 151.85 217.13 Q 151.85 217.13 152.04 216.22 Q 152.04 216.22 152.10 215.30 Q 152.31 215.45 152.86 215.71 Q 152.86 215.71 153.48 215.90 Q 153.48 215.90 153.72 215.95 Q 153.63 217.18 153.09 218.53 Q 153.09 218.53 151.99 219.03 Q 151.99 219.03 151.01 219.03 L 147.04 219.03 Q 145.86 219.03 144.56 218.64 Q 144.56 218.64 144.05 217.67 Q 144.05 217.67 144.05 216.82 Z M 144.44 210.13 L 144.44 211.39 L 152.58 211.39 L 152.58 210.13 Z M 144.44 207.61 L 144.44 208.84 L 152.58 208.84 L 152.58 207.61 Z M 144.44 205.11 L 144.44 206.33 L 152.58 206.33 L 152.58 205.11 Z M 153.31 214.17 L 154.88 213.51 Q 155.30 214.08 156.17 215.47 Q 156.17 215.47 156.82 216.79 Q 156.82 216.79 156.99 217.36 L 155.32 218.08 Q 155.18 217.54 154.54 216.18 Q 154.54 216.18 153.74 214.76 Q 153.74 214.76 153.31 214.17 Z M 141.82 213.83 L 143.36 214.48 Q 143.12 215.08 142.54 216.54 Q 142.54 216.54 141.91 217.89 Q 141.91 217.89 141.59 218.46 L 139.97 217.69 Q 140.32 217.15 141.01 215.82 Q 141.01 215.82 141.61 214.42 Q 141.61 214.42 141.82 213.83 Z" xml:space="preserve" style="font-weight:613;font-size:18.6667px;line-height:1.2;font-family:'Dream Han Sans SC';-inkscape-font-specification:'Dream Han Sans SC weight=613';text-align:start;writing-mode:lr-tb;direction:ltr;text-anchor:start;fill:#ffffff" id="text10" data-original-text="该地震信息" data-original-element="text"/>
  <path d="M 75.92 227.36 L 77.73 227.36 L 77.73 230.19 L 86.99 230.19 L 86.99 225.68 L 75.04 225.68 L 75.04 223.94 L 88.82 223.94 L 88.82 232.83 L 86.99 232.83 L 86.99 231.93 L 77.73 231.93 L 77.73 236.47 Q 77.73 237.05 78.08 237.67 Q 78.08 237.67 79.15 237.87 Q 79.15 237.87 80.18 237.87 L 86.88 237.87 Q 87.63 237.87 88.54 237.61 Q 88.54 237.61 89.06 236.86 Q 89.06 236.86 89.32 235.50 Q 89.32 235.50 89.43 234.41 Q 89.68 234.57 90.31 234.84 Q 90.31 234.84 90.96 235.07 Q 90.96 235.07 91.23 235.12 Q 91.08 236.41 90.59 238.17 Q 90.59 238.17 89.66 239.18 Q 89.66 239.18 88.11 239.63 Q 88.11 239.63 86.90 239.63 L 80.23 239.63 Q 78.59 239.63 76.71 239.08 Q 76.71 239.08 75.92 237.72 Q 75.92 237.72 75.92 236.45 Z M 103.79 222.82 L 105.45 222.82 L 105.45 225.47 L 108.42 225.47 L 108.66 225.42 L 109.91 225.70 Q 109.65 226.73 109.02 228.85 Q 109.02 228.85 108.72 229.60 L 107.22 229.24 Q 107.47 228.57 107.72 227.59 Q 107.79 227.34 107.84 227.12 L 105.45 227.12 L 105.45 230.10 L 107.84 230.10 L 108.14 230.03 L 109.18 230.44 Q 108.61 233.04 107.43 234.92 Q 106.88 235.78 106.26 236.53 Q 106.53 236.75 106.81 236.95 Q 108.27 238.02 110.16 238.58 Q 109.96 238.74 109.55 239.27 Q 109.55 239.27 109.18 239.84 Q 109.18 239.84 109.05 240.07 Q 106.74 239.27 105.08 237.72 Q 104.85 237.90 104.62 238.09 Q 103.02 239.36 101.08 240.13 Q 100.93 239.81 100.39 238.95 Q 100.39 238.95 100.15 238.69 Q 101.88 238.11 103.39 236.97 Q 103.68 236.75 103.94 236.53 Q 102.35 234.53 101.42 231.79 Q 101.38 232.27 101.34 232.77 Q 101.25 234.02 100.72 236.62 Q 100.72 236.62 99.72 239.04 Q 99.72 239.04 98.90 240.04 Q 98.76 239.86 98.28 239.42 Q 98.28 239.42 97.80 239.01 Q 97.80 239.01 97.61 238.91 Q 98.37 238.00 99.26 235.85 Q 99.26 235.85 99.70 233.59 Q 99.70 233.59 99.83 231.39 Q 99.83 231.39 99.83 230.42 L 99.83 225.47 L 103.79 225.47 Z M 98.54 229.65 L 99.59 230.63 Q 99.08 231.13 98.58 231.65 Q 98.21 232.02 97.87 232.31 Q 98.32 232.81 98.67 233.25 Q 99.03 233.68 99.17 233.89 L 98.26 235.25 Q 98.08 234.90 97.40 233.87 Q 97.40 233.87 97.03 233.34 Q 96.89 233.13 96.73 232.92 L 96.73 240.13 L 95.09 240.13 L 95.09 233.16 Q 94.14 234.32 93.20 235.14 Q 93.13 234.90 92.87 234.25 Q 92.87 234.25 92.57 233.61 Q 92.57 233.61 92.44 233.46 Q 93.41 232.68 95.32 230.38 Q 95.32 230.38 96.10 229.03 Q 96.51 228.35 96.82 227.66 L 92.74 227.66 L 92.74 226.07 L 95.86 226.07 Q 95.65 225.57 95.27 224.90 Q 94.84 224.15 94.47 223.53 L 95.82 222.86 Q 96.23 223.44 97.07 224.84 Q 97.07 224.84 97.31 225.34 L 96.10 226.07 L 97.65 226.07 L 97.91 226.00 L 98.78 226.68 Q 98.21 228.33 97.30 229.92 Q 97.01 230.40 96.73 230.85 L 96.73 230.98 Q 96.89 231.13 97.07 231.35 Q 97.12 231.41 97.16 231.47 Q 97.44 231.15 97.76 230.74 Q 98.24 230.12 98.54 229.65 Z M 105.08 235.37 Q 105.56 234.80 105.97 234.17 Q 106.72 233.04 107.17 231.65 L 102.93 231.65 Q 103.49 233.13 104.33 234.38 Q 104.69 234.90 105.08 235.37 Z M 101.45 230.10 L 103.79 230.10 L 103.79 227.12 L 101.45 227.12 Z M 111.53 223.65 L 120.05 223.65 L 120.05 225.23 L 118.80 225.23 L 118.80 234.90 Q 119.56 234.79 120.33 234.68 L 120.42 236.15 Q 119.60 236.30 118.80 236.45 L 118.80 240.11 L 117.06 240.11 L 117.06 236.76 Q 115.64 237.03 114.33 237.24 Q 112.90 237.47 111.71 237.68 L 111.33 236.00 Q 111.96 235.91 112.69 235.82 L 112.69 225.23 L 111.53 225.23 Z M 120.14 224.86 L 126.74 224.86 L 127.05 224.81 L 128.13 225.08 Q 127.72 228.87 126.69 231.79 Q 126.10 233.54 125.30 235.00 Q 125.50 235.33 125.72 235.67 Q 126.97 237.55 128.80 238.63 Q 128.61 238.79 128.17 239.27 Q 128.17 239.27 127.74 239.79 Q 127.74 239.79 127.61 240.02 Q 125.67 238.72 124.36 236.71 Q 124.32 236.65 124.28 236.60 Q 124.23 236.67 124.17 236.75 Q 122.66 238.82 120.72 240.16 Q 120.51 239.84 119.86 239.06 Q 119.86 239.06 119.58 238.84 Q 121.36 237.74 122.75 235.80 Q 123.07 235.39 123.35 234.92 Q 122.70 233.59 122.23 232.08 Q 121.43 229.53 120.92 226.52 L 120.14 226.52 Z M 124.32 233.13 Q 124.77 232.22 125.12 231.19 Q 125.89 229.03 126.28 226.52 L 122.51 226.52 Q 122.93 229.08 123.65 231.33 Q 123.96 232.27 124.32 233.13 Z M 117.06 231.47 L 117.06 229.06 L 114.38 229.06 L 114.38 231.47 Z M 117.06 235.16 L 117.06 232.98 L 114.38 232.98 L 114.38 235.57 Q 115.64 235.39 117.04 235.18 Q 117.06 235.18 117.06 235.16 Z M 117.06 227.53 L 117.06 225.23 L 114.38 225.23 L 114.38 227.53 Z M 136.36 228.10 L 140.47 228.10 L 140.47 222.80 L 142.22 222.80 L 142.22 228.10 L 146.18 228.10 L 146.18 238.11 Q 146.18 238.76 145.87 239.57 Q 145.87 239.57 145.38 239.77 Q 144.91 239.98 143.43 240.07 Q 143.43 240.07 142.38 240.07 Q 142.33 239.72 142.02 238.74 Q 142.02 238.74 141.83 238.39 Q 142.56 238.43 143.86 238.45 Q 143.86 238.45 144.09 238.43 Q 144.46 238.41 144.46 238.08 L 144.46 236.24 L 138.10 236.24 L 138.10 240.13 L 136.36 240.13 Z M 130.52 238.86 Q 130.98 238.15 132.09 236.15 Q 132.09 236.15 133.23 233.91 Q 133.23 233.91 133.71 232.84 L 135.02 233.91 Q 134.59 234.90 133.60 237.03 Q 133.60 237.03 132.55 239.08 Q 132.55 239.08 132.05 240.00 Z M 144.46 232.98 L 138.10 232.98 L 138.10 234.73 L 144.46 234.73 Z M 144.46 229.75 L 138.10 229.75 L 138.10 231.47 L 144.46 231.47 Z M 145.25 223.29 L 146.96 223.94 Q 146.50 224.90 145.41 226.78 Q 145.41 226.78 144.93 227.47 L 143.42 226.86 Q 143.73 226.37 144.41 225.15 Q 144.41 225.15 145.06 223.85 Q 145.06 223.85 145.25 223.29 Z M 129.96 229.21 L 130.96 227.96 Q 131.55 228.21 132.83 228.96 Q 132.83 228.96 133.99 229.75 Q 133.99 229.75 134.35 230.08 L 133.28 231.47 Q 132.94 231.13 131.82 230.29 Q 131.82 230.29 130.55 229.51 Q 130.55 229.51 129.96 229.21 Z M 135.82 224.08 L 137.32 223.42 Q 137.69 223.92 138.45 225.15 Q 138.45 225.15 139.07 226.34 Q 139.07 226.34 139.20 226.82 L 137.61 227.59 Q 137.50 227.09 136.93 225.88 Q 136.93 225.88 136.21 224.61 Q 136.21 224.61 135.82 224.08 Z M 130.84 224.22 L 131.87 223.01 Q 132.44 223.27 133.71 224.02 Q 133.71 224.02 134.81 224.81 Q 134.81 224.81 135.17 225.15 L 134.06 226.52 Q 133.74 226.16 132.67 225.34 Q 132.67 225.34 131.41 224.52 Q 131.41 224.52 130.84 224.22 Z" xml:space="preserve" style="font-weight:613;font-size:18.6667px;line-height:1.2;font-family:'Dream Han Sans SC';-inkscape-font-specification:'Dream Han Sans SC weight=613';text-align:start;writing-mode:lr-tb;direction:ltr;text-anchor:start;fill:#ffffff" id="text11" data-original-text="已被取消" data-original-element="text"/>
</svg>