<?xml version="1.0" ?>
<svg xmlns="http://www.w3.org/2000/svg" xmlns:ns1="http://sodipodi.sourceforge.net/DTD/sodipodi-0.dtd" xmlns:ns2="http://www.inkscape.org/namespaces/inkscape" version="1.1" width="208" height="32" viewBox="0,0,208,32" id="svg6" ns1:docname="0c4e22f9669f79bc066c9d6d9de73fb1.svg" ns2:version="1.4.2 (f4327f4, 2025-05-13)">
  <defs id="defs6"/>
  <ns1:namedview id="namedview6" pagecolor="#505050" bordercolor="#eeeeee" borderopacity="1" ns2:showpageshadow="0" ns2:pageopacity="0" ns2:pagecheckerboard="0" ns2:deskcolor="#505050" ns2:zoom="8.5240385" ns2:cx="59.654822" ns2:cy="16.013536" ns2:window-width="1920" ns2:window-height="945" ns2:window-x="-9" ns2:window-y="40" ns2:window-maximized="1" ns2:current-layer="svg6"/>
  <g transform="translate(-240,-164)" id="g6">
    <g data-paper-data="{&quot;isPaintingLayer&quot;:true}" fill-rule="nonzero" stroke="none" stroke-linecap="butt" stroke-linejoin="miter" stroke-miterlimit="10" stroke-dasharray="" stroke-dashoffset="0" style="mix-blend-mode: normal" id="g5">
      <path d="M240,196v-32h208v32z" fill="none" stroke-width="0" id="path1"/>
    </g>
  </g>
  <path d="M 3.18 16.53 L 17.22 16.53 L 17.22 25.68 L 15.06 25.68 L 15.06 24.57 L 5.25 24.57 L 5.25 25.70 L 3.18 25.70 Z M 12.16 9.19 L 13.74 8.14 Q 14.74 9.04 16.96 11.31 Q 16.96 11.31 18.85 13.51 Q 18.85 13.51 19.42 14.40 L 17.69 15.65 Q 17.24 14.87 16.47 13.88 Q 13.82 14.04 11.82 14.14 Q 9.54 14.24 6.40 14.42 Q 6.40 14.42 4.37 14.57 Q 4.37 14.57 3.16 14.67 Q 3.16 14.67 2.50 14.80 Q 2.50 14.80 2.24 14.89 Q 2.20 14.69 1.96 13.97 Q 1.96 13.97 1.71 13.20 Q 1.71 13.20 1.58 12.94 Q 1.99 12.86 2.79 12.20 Q 2.79 12.20 3.33 11.70 Q 3.62 11.43 4.74 10.23 Q 4.74 10.23 6.10 8.62 Q 6.10 8.62 7.51 6.69 Q 7.51 6.69 8.10 5.73 L 10.13 6.61 Q 9.16 7.99 6.92 10.62 Q 6.92 10.62 5.76 11.78 Q 5.37 12.18 4.99 12.54 L 15.00 12.13 Q 14.63 11.73 14.27 11.33 Q 13.19 10.17 12.16 9.19 Z M 15.06 22.63 L 15.06 18.47 L 5.25 18.47 L 5.25 22.63 Z M 28.99 17.79 L 37.88 17.79 L 37.88 16.48 L 27.93 16.48 L 27.93 14.97 L 39.79 14.97 L 39.79 19.33 L 30.61 19.33 Q 30.51 19.70 30.43 20.09 Q 30.35 20.33 30.29 20.56 L 40.69 20.56 L 40.67 20.86 Q 40.61 21.14 40.55 21.35 Q 40.26 23.04 39.55 24.83 Q 39.55 24.83 39.08 25.21 Q 38.76 25.46 38.06 25.68 Q 38.06 25.68 37.57 25.72 Q 37.15 25.74 35.67 25.74 Q 35.67 25.74 34.81 25.70 Q 34.79 25.32 34.52 24.38 Q 34.52 24.38 34.30 24.02 Q 35.07 24.10 36.48 24.14 Q 36.48 24.14 36.78 24.14 Q 37.05 24.14 37.42 24.08 Q 37.42 24.08 37.55 23.97 Q 37.84 23.72 38.15 22.97 Q 38.27 22.61 38.40 22.12 L 27.86 22.12 Q 28.16 21.22 28.78 18.86 Q 28.78 18.86 28.99 17.79 Z M 27.62 7.79 L 33.51 7.79 Q 33.47 7.67 33.43 7.55 Q 33.16 6.76 32.81 6.08 L 34.69 5.63 Q 35.07 6.27 35.37 7.06 Q 35.54 7.44 35.62 7.79 L 41.28 7.79 L 41.28 9.42 L 36.91 9.42 L 36.91 14.40 L 35.05 14.40 L 35.05 9.42 L 33.09 9.42 L 33.09 14.42 L 31.25 14.42 L 31.25 9.42 L 27.62 9.42 Z M 22.06 23.99 Q 22.45 23.16 23.32 20.92 Q 23.32 20.92 24.22 18.43 Q 24.22 18.43 24.59 17.23 L 26.22 18.39 Q 25.90 19.49 25.11 21.84 Q 25.11 21.84 24.30 24.12 Q 24.30 24.12 23.90 25.13 Z M 22.33 7.12 L 23.94 6.18 Q 24.38 6.69 25.38 7.93 Q 25.38 7.93 26.24 9.17 Q 26.24 9.17 26.50 9.64 L 24.81 10.72 Q 24.57 10.23 23.74 8.97 Q 23.74 8.97 22.78 7.65 Q 22.78 7.65 22.33 7.12 Z M 21.52 12.98 L 23.17 12.11 Q 23.59 12.61 24.53 13.84 Q 24.53 13.84 25.32 15.04 Q 25.32 15.04 25.56 15.51 L 23.83 16.48 Q 23.61 15.99 22.84 14.78 Q 22.84 14.78 21.97 13.53 Q 21.97 13.53 21.52 12.98 Z M 29.12 9.96 L 30.78 10.45 Q 30.27 11.45 28.70 13.43 Q 28.70 13.43 27.91 14.10 Q 27.76 13.95 27.24 13.57 Q 27.24 13.57 26.69 13.18 Q 26.69 13.18 26.50 13.08 Q 27.28 12.45 28.68 10.81 Q 28.68 10.81 29.12 9.96 Z M 37.40 10.72 L 38.84 9.94 Q 39.36 10.41 40.41 11.52 Q 40.41 11.52 41.26 12.65 Q 41.26 12.65 41.51 13.12 L 39.96 14.02 Q 39.72 13.55 38.92 12.39 Q 38.92 12.39 37.91 11.21 Q 37.91 11.21 37.40 10.72 Z M 43.88 6.85 L 48.47 6.85 L 48.77 6.76 L 50.07 7.51 Q 49.67 8.89 48.67 12.03 Q 48.67 12.03 48.19 13.33 Q 49.20 14.67 49.81 17.04 Q 49.81 17.04 49.81 18.03 Q 49.81 19.01 49.41 20.37 Q 49.41 20.37 48.96 20.71 Q 48.51 21.06 47.85 21.14 Q 47.25 21.24 46.53 21.18 Q 46.51 20.82 46.31 19.80 Q 46.31 19.80 46.10 19.43 Q 46.40 19.45 46.87 19.47 Q 46.87 19.47 47.08 19.45 Q 47.43 19.43 47.66 19.26 Q 47.87 19.09 48.02 18.30 Q 48.02 18.30 48.02 17.81 Q 48.02 16.97 47.45 14.78 Q 47.45 14.78 46.49 13.53 Q 46.72 12.80 47.21 11.11 Q 47.21 11.11 47.63 9.42 Q 47.63 9.42 47.83 8.68 Q 47.83 8.66 47.83 8.64 L 45.66 8.64 L 45.66 25.72 L 43.88 25.72 Z M 54.23 10.74 L 59.18 10.74 L 59.18 6.27 L 61.10 6.27 L 61.10 10.74 L 62.84 10.74 L 62.84 12.61 L 61.10 12.61 L 61.10 23.28 Q 61.10 24.08 60.72 25.02 Q 60.72 25.02 60.23 25.28 Q 59.73 25.54 58.20 25.68 Q 58.20 25.68 57.02 25.68 Q 56.96 25.28 56.57 24.10 Q 56.57 24.10 56.38 23.69 Q 57.18 23.72 58.50 23.72 Q 58.50 23.72 58.73 23.72 Q 58.97 23.69 59.18 23.51 Q 59.18 23.51 59.18 23.28 L 59.18 12.61 L 54.23 12.61 Z M 53.21 5.95 L 55.02 6.44 Q 54.49 8.17 53.74 9.85 Q 53.55 10.30 53.33 10.74 L 53.33 25.64 L 51.54 25.64 L 51.54 13.92 Q 50.93 14.85 50.26 15.61 Q 50.16 15.40 49.73 14.73 Q 49.73 14.73 49.24 14.10 Q 49.24 14.10 49.04 13.90 Q 50.36 12.45 52.54 8.23 Q 52.54 8.23 53.21 5.95 Z M 54.47 15.14 L 56.02 14.46 Q 56.43 15.20 57.24 16.91 Q 57.24 16.91 57.94 18.56 Q 57.94 18.56 58.16 19.19 L 56.49 19.98 Q 56.30 19.33 55.63 17.66 Q 55.63 17.66 54.84 15.89 Q 54.84 15.89 54.47 15.14 Z M 72.26 7.18 Q 73.54 7.12 76.23 6.91 Q 76.23 6.91 78.80 6.61 Q 78.80 6.61 81.02 6.20 Q 81.02 6.20 81.85 5.95 L 83.52 7.44 Q 82.09 7.89 78.47 8.48 Q 78.47 8.48 76.54 8.66 Q 75.40 8.74 74.30 8.81 L 74.30 11.92 Q 74.30 12.01 74.30 12.07 L 83.91 12.07 L 83.91 13.95 L 80.10 13.95 L 80.10 22.16 L 78.12 22.16 L 78.12 13.95 L 74.24 13.95 Q 74.22 14.18 74.22 14.40 Q 74.13 15.77 73.65 18.56 Q 73.65 18.56 72.73 21.18 Q 72.73 21.18 71.98 22.27 Q 71.81 22.08 71.17 21.61 Q 71.17 21.61 70.49 21.18 Q 70.49 21.18 70.27 21.08 Q 71.19 19.73 72.02 16.51 Q 72.02 16.51 72.26 13.27 Q 72.26 13.27 72.26 11.90 Z M 69.25 13.61 L 69.25 21.37 Q 69.44 21.51 69.68 21.65 Q 70.08 21.95 70.68 22.31 Q 71.74 22.95 74.58 23.30 Q 74.58 23.30 76.37 23.30 Q 77.27 23.30 79.36 23.24 Q 79.36 23.24 81.47 23.12 Q 81.47 23.12 83.42 22.95 Q 83.42 22.95 84.23 22.85 Q 84.09 23.12 83.84 23.89 Q 83.84 23.89 83.65 24.68 Q 83.65 24.68 83.62 24.95 Q 83.05 24.99 81.26 25.09 Q 81.26 25.09 79.12 25.15 Q 79.12 25.15 77.10 25.19 Q 77.10 25.19 76.31 25.19 Q 74.30 25.19 71.45 24.70 Q 71.45 24.70 70.31 24.04 Q 69.61 23.63 68.56 22.80 Q 68.56 22.80 68.21 22.80 Q 67.84 22.80 66.99 23.57 Q 66.99 23.57 66.05 24.81 Q 66.05 24.81 65.58 25.49 L 64.22 23.61 Q 65.30 22.44 66.36 21.71 Q 66.85 21.37 67.28 21.20 L 67.28 15.59 L 64.59 15.59 L 64.59 13.61 Z M 65.06 7.32 L 66.62 6.33 Q 67.20 6.87 68.44 8.19 Q 68.44 8.19 69.55 9.49 Q 69.55 9.49 69.88 10.01 L 68.25 11.15 Q 67.95 10.62 66.88 9.30 Q 66.88 9.30 65.65 7.91 Q 65.65 7.91 65.06 7.32 Z" xml:space="preserve" style="font-weight:613;font-size:21.3333px;line-height:1.2;font-family:'Dream Han Sans SC';-inkscape-font-specification:'Dream Han Sans SC weight=613';text-align:start;writing-mode:lr-tb;direction:ltr;text-anchor:start;fill:#ffffff" id="text6" data-original-text="台湾附近" data-original-element="text"/>
</svg>