<?xml version="1.0" ?>
<svg xmlns="http://www.w3.org/2000/svg" xmlns:ns1="http://sodipodi.sourceforge.net/DTD/sodipodi-0.dtd" xmlns:ns2="http://www.inkscape.org/namespaces/inkscape" viewBox="0 0 180 40" version="1.1" height="40" width="180" id="svg7" ns1:docname="0c9c2b2dc1db13168ea685efa84201f7.svg" ns2:version="1.4.2 (f4327f4, 2025-05-13)">
  <defs id="defs7"/>
  <ns1:namedview id="namedview7" pagecolor="#505050" bordercolor="#eeeeee" borderopacity="1" ns2:showpageshadow="0" ns2:pageopacity="0" ns2:pagecheckerboard="0" ns2:deskcolor="#505050" ns2:zoom="9.85" ns2:cx="56.091371" ns2:cy="20.050761" ns2:window-width="1920" ns2:window-height="945" ns2:window-x="-9" ns2:window-y="40" ns2:window-maximized="1" ns2:current-layer="svg7"/>
  <path style="paint-order:stroke markers fill" stroke-width=".2" stroke-linejoin="round" stroke-linecap="round" stop-color="#000000" fill-opacity="0" fill="none" d="m0 0h180v40h-180z" id="path1"/>
  <path d="M 25.40 25.13 Q 26.35 25.08 27.58 25.01 Q 28.23 24.98 28.91 24.94 L 28.91 23.05 L 26.06 23.05 L 26.06 18.95 L 28.91 18.95 L 28.91 17.80 L 26.39 17.80 L 26.39 13.98 L 32.76 13.98 L 32.76 17.80 L 30.22 17.80 L 30.22 18.95 L 33.17 18.95 L 33.17 23.05 L 30.22 23.05 L 30.22 24.87 Q 31.05 24.80 31.87 24.76 Q 31.87 24.75 31.85 24.73 Q 31.51 24.13 31.18 23.61 L 32.31 23.16 Q 32.66 23.66 33.35 24.85 Q 33.35 24.85 33.91 25.98 Q 33.91 25.98 34.04 26.44 L 32.84 26.94 Q 32.72 26.52 32.47 25.96 Q 31.40 26.03 30.31 26.13 Q 28.99 26.23 26.57 26.41 Q 26.57 26.41 25.58 26.48 Z M 20.96 17.23 L 23.98 17.23 L 23.98 15.23 L 20.62 15.23 L 20.62 13.97 L 25.27 13.97 L 25.27 18.49 L 22.08 18.49 Q 22.07 18.66 22.04 18.84 Q 21.95 19.69 21.87 20.48 Q 21.85 20.53 21.85 20.61 L 25.25 20.61 L 25.24 20.71 Q 25.24 20.81 25.23 21.08 Q 25.23 21.08 25.21 21.17 Q 25.12 22.81 24.90 24.87 Q 24.90 24.87 24.61 25.99 Q 24.61 25.99 24.39 26.23 Q 24.18 26.46 23.69 26.69 Q 23.69 26.69 23.35 26.72 Q 23.07 26.76 22.15 26.74 Q 22.15 26.74 21.62 26.73 Q 21.60 26.44 21.39 25.71 Q 21.39 25.71 21.22 25.45 Q 21.70 25.50 22.55 25.51 Q 22.55 25.51 22.75 25.51 Q 22.92 25.51 23.16 25.45 Q 23.16 25.45 23.24 25.35 Q 23.39 25.20 23.63 24.24 Q 23.63 24.24 23.71 23.28 Q 23.79 22.70 23.83 21.86 L 21.16 21.86 L 21.16 21.86 L 20.40 21.86 Q 20.50 21.24 20.74 19.66 Q 20.74 19.66 20.91 17.97 Q 20.91 17.97 20.96 17.23 Z M 27.63 15.13 L 27.63 16.65 L 31.44 16.65 L 31.44 15.13 Z M 30.22 20.08 L 30.22 21.92 L 31.91 21.92 L 31.91 20.08 Z M 27.27 20.08 L 27.27 21.92 L 28.91 21.92 L 28.91 20.08 Z M 36.35 19.58 L 47.88 19.58 L 47.88 20.56 L 37.66 20.56 L 37.66 21.64 Q 37.66 22.06 37.61 22.55 L 48.44 22.55 L 48.44 23.49 L 46.64 23.49 L 47.58 23.97 Q 47.03 24.34 46.42 24.66 Q 46.08 24.82 45.77 24.97 Q 45.95 25.03 46.15 25.08 Q 47.30 25.38 48.69 25.48 Q 48.50 25.67 48.11 26.29 Q 48.11 26.29 47.98 26.55 Q 46.49 26.38 44.10 25.56 Q 44.10 25.56 43.24 24.88 Q 42.47 24.29 41.94 23.49 L 39.96 23.49 L 39.96 25.36 L 43.09 24.92 Q 43.03 25.15 42.97 25.76 Q 42.97 25.76 42.97 25.95 Q 41.57 26.19 39.88 26.48 Q 39.88 26.48 38.97 26.66 Q 38.97 26.66 38.55 26.76 Q 38.55 26.76 38.44 26.82 Q 38.40 26.66 38.19 26.24 Q 38.19 26.24 37.94 25.85 Q 37.94 25.85 37.82 25.71 Q 38.06 25.58 38.62 25.01 Q 38.62 25.01 38.62 24.53 L 38.62 23.49 L 37.51 23.49 Q 37.44 23.89 37.32 24.34 Q 37.13 25.04 36.43 26.36 Q 36.43 26.36 35.87 26.90 Q 35.77 26.77 35.40 26.44 Q 35.40 26.44 34.99 26.10 Q 34.99 26.10 34.84 26.03 Q 35.54 25.38 36.17 23.84 Q 36.17 23.84 36.35 22.28 Q 36.35 22.28 36.35 21.61 Z M 36.40 13.69 L 47.18 13.69 L 47.18 14.70 L 42.43 14.70 L 42.43 15.39 L 48.11 15.39 L 48.11 17.93 L 46.75 17.93 L 46.75 16.24 L 42.43 16.24 L 42.43 19.26 L 41.08 19.26 L 41.08 16.24 L 36.78 16.24 L 36.78 17.93 L 35.49 17.93 L 35.49 15.39 L 41.08 15.39 L 41.08 14.70 L 36.40 14.70 Z M 38.31 21.09 L 47.05 21.09 L 47.05 21.96 L 38.31 21.96 Z M 43.06 18.22 L 46.60 18.22 L 46.60 18.97 L 43.06 18.97 Z M 37.01 18.22 L 40.48 18.22 L 40.48 18.97 L 37.01 18.97 Z M 43.06 16.87 L 46.24 16.87 L 46.24 17.62 L 43.06 17.62 Z M 37.32 16.87 L 40.46 16.87 L 40.46 17.62 L 37.32 17.62 Z M 46.49 23.49 L 43.24 23.49 Q 43.63 23.93 44.19 24.27 Q 44.44 24.42 44.72 24.56 Q 44.93 24.44 45.17 24.31 Q 45.55 24.09 45.91 23.85 Q 46.24 23.65 46.49 23.49 Z M 49.79 25.20 L 51.39 25.20 L 51.39 21.06 L 61.68 21.06 L 61.68 25.20 L 63.18 25.20 L 63.18 26.45 L 49.79 26.45 Z M 58.03 13.24 L 59.37 13.50 Q 59.15 14.38 58.86 15.23 L 63.02 15.23 L 63.02 16.47 L 58.35 16.47 Q 58.05 17.18 57.70 17.81 Q 57.17 18.77 56.54 19.48 Q 56.44 19.37 56.01 19.06 Q 56.01 19.06 55.57 18.75 Q 55.57 18.75 55.41 18.64 Q 56.32 17.69 57.65 14.82 Q 57.65 14.82 58.03 13.24 Z M 53.71 13.24 L 55.08 13.24 L 55.08 20.29 L 53.71 20.29 Z M 50.82 13.73 L 52.17 13.73 L 52.17 19.85 L 50.82 19.85 Z M 58.60 25.20 L 60.34 25.20 L 60.34 22.24 L 58.60 22.24 Z M 55.64 25.20 L 57.34 25.20 L 57.34 22.24 L 55.64 22.24 Z M 52.68 25.20 L 54.37 25.20 L 54.37 22.24 L 52.68 22.24 Z M 58.43 17.94 L 59.49 17.23 Q 59.99 17.56 61.05 18.43 Q 61.05 18.43 61.99 19.26 Q 61.99 19.26 62.29 19.61 L 61.17 20.43 Q 60.89 20.08 59.99 19.20 Q 59.99 19.20 58.93 18.31 Q 58.93 18.31 58.43 17.94 Z M 70.91 24.32 L 71.76 23.81 Q 72.11 24.16 72.88 25.00 Q 72.88 25.00 73.54 25.81 Q 73.54 25.81 73.72 26.13 L 72.83 26.72 Q 72.66 26.39 72.01 25.56 Q 72.01 25.56 71.26 24.67 Q 71.26 24.67 70.91 24.32 Z M 68.33 14.03 L 73.40 14.03 L 73.40 23.36 L 72.30 23.36 L 72.30 15.03 L 69.38 15.03 L 69.38 23.41 L 68.33 23.41 Z M 76.38 13.41 L 77.50 13.41 L 77.50 25.32 Q 77.50 25.83 77.23 26.39 Q 77.23 26.39 76.94 26.54 Q 76.63 26.69 75.59 26.77 Q 75.59 26.77 74.80 26.77 Q 74.77 26.54 74.55 25.86 Q 74.55 25.86 74.43 25.61 Q 75.00 25.63 75.93 25.63 Q 75.93 25.63 76.09 25.63 Q 76.38 25.63 76.38 25.33 Z M 74.37 14.54 L 75.44 14.54 L 75.44 23.43 L 74.37 23.43 Z M 70.28 15.99 L 71.31 15.99 L 71.31 21.37 Q 71.31 22.11 71.09 23.62 Q 71.09 23.62 70.46 25.07 Q 70.46 25.07 69.24 26.31 Q 69.24 26.31 68.26 26.80 Q 68.19 26.69 67.97 26.36 Q 67.97 26.36 67.71 26.03 Q 67.71 26.03 67.63 25.95 Q 68.52 25.53 69.58 24.47 Q 69.58 24.47 70.11 23.26 Q 70.11 23.26 70.28 22.00 Q 70.28 22.00 70.28 21.36 Z M 64.90 14.35 L 65.72 13.35 Q 66.12 13.55 67.03 14.07 Q 67.03 14.07 67.87 14.60 Q 67.87 14.60 68.14 14.83 L 67.28 15.94 Q 67.04 15.72 66.22 15.14 Q 66.22 15.14 65.31 14.57 Q 65.31 14.57 64.90 14.35 Z M 64.28 18.28 L 65.07 17.28 Q 65.49 17.49 66.39 17.99 Q 66.39 17.99 67.24 18.50 Q 67.24 18.50 67.52 18.72 L 66.70 19.82 Q 66.44 19.60 65.60 19.06 Q 65.60 19.06 64.69 18.50 Q 64.69 18.50 64.28 18.28 Z M 64.56 25.92 Q 64.85 25.35 65.53 23.79 Q 65.53 23.79 66.23 22.05 Q 66.23 22.05 66.53 21.22 L 67.64 21.95 Q 67.38 22.71 66.76 24.35 Q 66.76 24.35 66.13 25.93 Q 66.13 25.93 65.82 26.64 Z M 84.31 15.98 L 86.02 15.98 Q 85.87 15.54 85.58 14.92 Q 85.24 14.25 84.87 13.70 L 86.11 13.25 Q 86.48 13.79 87.19 15.09 Q 87.19 15.09 87.35 15.55 L 86.27 15.98 L 89.10 15.98 Q 89.27 15.69 89.44 15.33 Q 89.71 14.79 90.18 13.63 Q 90.18 13.63 90.34 13.14 L 91.75 13.60 Q 91.37 14.44 90.93 15.27 Q 90.72 15.66 90.55 15.98 L 92.18 15.98 L 92.18 17.25 L 88.93 17.25 L 88.93 19.01 L 91.72 19.01 L 91.72 20.28 L 88.93 20.28 L 88.93 22.08 L 92.44 22.08 L 92.44 23.37 L 88.93 23.37 L 88.93 26.80 L 87.54 26.80 L 87.54 23.37 L 83.83 23.37 L 83.83 22.08 L 87.54 22.08 L 87.54 20.28 L 84.77 20.28 L 84.77 19.01 L 87.54 19.01 L 87.54 17.25 L 84.31 17.25 Z M 79.19 15.99 L 80.98 15.99 L 80.98 13.20 L 82.31 13.20 L 82.31 15.99 L 83.78 15.99 L 83.78 17.28 L 82.31 17.28 L 82.31 17.86 Q 82.42 18.00 82.63 18.29 Q 82.88 18.67 83.48 19.57 Q 83.48 19.57 83.98 20.33 Q 83.98 20.33 84.08 20.49 L 83.25 21.51 Q 83.13 21.20 82.69 20.31 Q 82.69 20.31 82.44 19.83 Q 82.38 19.70 82.31 19.58 L 82.31 26.80 L 80.98 26.80 L 80.98 20.79 Q 80.96 20.84 80.94 20.91 Q 80.63 21.83 79.95 23.41 Q 79.95 23.41 79.57 23.97 Q 79.49 23.78 79.26 23.26 Q 79.26 23.26 78.99 22.78 Q 78.99 22.78 78.86 22.60 Q 79.22 22.12 79.90 20.79 Q 79.90 20.79 80.49 19.23 Q 80.49 19.23 80.72 18.43 Q 80.87 17.91 80.98 17.44 L 80.98 17.28 L 79.19 17.28 Z M 93.91 15.84 L 101.34 15.84 Q 101.29 14.57 101.27 13.27 L 102.77 13.27 Q 102.73 14.58 102.80 15.84 L 107.05 15.84 L 107.05 17.20 L 102.87 17.20 Q 102.98 18.88 103.22 20.32 Q 103.47 21.85 104.17 24.13 Q 104.17 24.13 105.05 25.39 Q 105.05 25.39 105.54 25.39 Q 105.82 25.39 106.09 24.10 Q 106.09 24.10 106.16 22.66 Q 106.39 22.90 107.10 23.36 Q 107.10 23.36 107.39 23.46 Q 107.27 24.77 106.83 26.24 Q 106.83 26.24 106.05 26.83 Q 106.05 26.83 105.42 26.83 Q 104.66 26.83 103.46 25.81 Q 103.46 25.81 102.55 23.93 Q 102.55 23.93 101.90 21.39 Q 101.90 21.39 101.70 19.88 Q 101.52 18.60 101.42 17.20 L 93.91 17.20 Z M 94.43 19.16 L 100.86 19.16 L 100.86 20.49 L 98.28 20.49 L 98.28 24.19 Q 98.42 24.16 98.57 24.13 Q 99.92 23.87 101.26 23.61 L 101.36 24.84 Q 100.14 25.11 97.62 25.67 Q 97.62 25.67 95.30 26.19 Q 95.30 26.19 94.35 26.39 L 93.95 25.01 Q 94.83 24.85 96.02 24.63 Q 96.46 24.55 96.90 24.45 L 96.90 20.49 L 94.43 20.49 Z M 103.56 14.03 L 104.48 13.27 Q 104.85 13.50 105.63 14.11 Q 105.63 14.11 106.33 14.71 Q 106.33 14.71 106.54 14.96 L 105.57 15.83 Q 105.36 15.56 104.70 14.92 Q 104.70 14.92 103.92 14.28 Q 103.92 14.28 103.56 14.03 Z" xml:space="preserve" style="font-weight:613;font-size:14.6667px;line-height:1.2;font-family:'Dream Han Sans SC';-inkscape-font-specification:'Dream Han Sans SC weight=613';text-align:start;writing-mode:lr-tb;direction:ltr;text-anchor:start;fill:#ffffff" id="text7" data-original-text="强震监测样式" data-original-element="text"/>
</svg>