<?xml version="1.0" ?>
<svg xmlns="http://www.w3.org/2000/svg" xmlns:ns1="http://sodipodi.sourceforge.net/DTD/sodipodi-0.dtd" xmlns:ns2="http://www.inkscape.org/namespaces/inkscape" version="1.1" width="60" height="30" viewBox="0,0,60,30" id="svg6" ns1:docname="0d23aa05a6c78b0a6f92ce826bbe861d.svg" ns2:version="1.4.2 (f4327f4, 2025-05-13)">
  <defs id="defs6"/>
  <ns1:namedview id="namedview6" pagecolor="#505050" bordercolor="#eeeeee" borderopacity="1" ns2:showpageshadow="0" ns2:pageopacity="0" ns2:pagecheckerboard="0" ns2:deskcolor="#505050" ns2:zoom="12.183333" ns2:cx="6.1149111" ns2:cy="21.627907" ns2:window-width="1920" ns2:window-height="945" ns2:window-x="-9" ns2:window-y="40" ns2:window-maximized="1" ns2:current-layer="g5"/>
  <g transform="translate(-210,-165)" id="g6">
    <g data-paper-data="{&quot;isPaintingLayer&quot;:true}" stroke="none" stroke-width="1" stroke-linecap="butt" stroke-linejoin="miter" stroke-miterlimit="10" stroke-dasharray="" stroke-dashoffset="0" style="mix-blend-mode: normal" id="g5">
      <path d="M220,165h40c5.54,0 10,4.46 10,10v10c0,5.54 -4.46,10 -10,10h-40c-5.54,0 -10,-4.46 -10,-10v-10c0,-5.54 4.46,-10 10,-10z" fill="none" fill-rule="evenodd" id="path1"/>
      <path d="M220,170h40c2.77,0 5,2.23 5,5v10c0,2.77 -2.23,5 -5,5h-40c-2.77,0 -5,-2.23 -5,-5v-10c0,-2.77 2.23,-5 5,-5z" fill="#31476d" fill-rule="evenodd" id="path2"/>
    </g>
  </g>
  <path d="M 14.45 10.74 L 23.97 10.74 L 23.97 11.76 L 19.52 11.76 L 19.52 13.57 L 19.70 13.36 Q 20.17 13.59 21.21 14.15 Q 21.21 14.15 22.25 14.75 Q 22.25 14.75 23.14 15.32 Q 23.14 15.32 23.45 15.57 L 22.73 16.49 Q 22.42 16.24 21.56 15.63 Q 21.56 15.63 20.55 15.00 Q 20.55 15.00 20.03 14.71 Q 19.77 14.55 19.52 14.42 L 19.52 19.84 L 18.46 19.84 L 18.46 11.76 L 14.45 11.76 Z M 24.99 14.25 L 34.80 14.25 L 34.80 15.36 L 24.99 15.36 Z M 39.14 9.93 L 40.25 10.14 Q 40.02 10.52 39.73 10.89 L 42.86 10.89 L 43.04 10.84 L 43.73 11.25 Q 43.19 12.19 42.37 12.90 Q 42.00 13.23 41.56 13.52 Q 42.09 13.73 42.67 13.90 Q 44.00 14.31 45.53 14.49 Q 45.42 14.60 45.19 14.92 Q 45.19 14.92 44.99 15.26 Q 44.99 15.26 44.92 15.40 Q 43.38 15.17 42.03 14.71 Q 41.26 14.44 40.58 14.09 Q 40.55 14.11 40.53 14.12 Q 39.49 14.63 37.19 15.30 Q 37.19 15.30 36.01 15.49 Q 35.94 15.29 35.68 14.76 Q 35.68 14.76 35.55 14.59 Q 36.66 14.44 37.74 14.16 Q 38.74 13.89 39.62 13.51 Q 38.89 13.01 38.31 12.37 Q 37.59 12.96 36.66 13.46 Q 36.57 13.34 36.32 13.05 Q 36.32 13.05 36.06 12.78 Q 36.06 12.78 35.94 12.71 Q 36.73 12.34 37.97 11.42 Q 37.97 11.42 38.88 10.42 Q 38.88 10.42 39.14 9.93 Z M 36.75 15.85 L 40.02 15.85 L 40.02 14.83 L 41.04 14.83 L 41.04 15.85 L 44.38 15.85 L 44.38 16.72 L 41.04 16.72 L 41.04 18.81 Q 41.04 19.16 40.86 19.57 Q 40.86 19.57 40.61 19.67 Q 40.37 19.78 39.66 19.82 Q 39.66 19.82 39.18 19.82 Q 39.15 19.62 38.98 19.13 Q 38.98 19.13 38.89 18.94 Q 39.17 18.95 39.75 18.96 Q 39.75 18.96 39.85 18.95 Q 39.94 18.95 40.02 18.89 Q 40.02 18.89 40.02 18.80 L 40.02 16.72 L 36.75 16.72 Z M 38.26 17.03 L 39.06 17.39 Q 38.79 17.77 37.99 18.55 Q 37.99 18.55 37.15 19.24 Q 37.15 19.24 36.77 19.47 Q 36.70 19.37 36.47 19.10 Q 36.47 19.10 36.22 18.84 Q 36.22 18.84 36.10 18.77 Q 36.47 18.56 37.26 18.00 Q 37.26 18.00 38.01 17.34 Q 38.01 17.34 38.26 17.03 Z M 41.90 17.54 L 42.62 17.03 Q 42.98 17.31 43.75 18.00 Q 43.75 18.00 44.42 18.69 Q 44.42 18.69 44.62 18.97 L 43.86 19.55 Q 43.67 19.26 43.02 18.55 Q 43.02 18.55 42.27 17.83 Q 42.27 17.83 41.90 17.54 Z M 40.57 13.03 Q 41.07 12.74 41.50 12.40 Q 41.87 12.09 42.17 11.75 L 38.98 11.75 Q 38.97 11.75 38.96 11.76 Q 39.51 12.39 40.31 12.88 Q 40.44 12.96 40.57 13.03 Z" xml:space="preserve" style="font-weight:613;font-size:10.6667px;line-height:1.2;font-family:'Dream Han Sans SC';-inkscape-font-specification:'Dream Han Sans SC weight=613';text-align:start;writing-mode:lr-tb;direction:ltr;text-anchor:start;fill:#ffffff" id="text6" data-original-text="下一条" data-original-element="text"/>
</svg>