<?xml version="1.0" ?>
<svg xmlns="http://www.w3.org/2000/svg" xmlns:ns1="http://sodipodi.sourceforge.net/DTD/sodipodi-0.dtd" xmlns:ns2="http://www.inkscape.org/namespaces/inkscape" version="1.1" width="168.1" height="54.31" viewBox="0,0,168.1,54.31" id="svg76" ns1:docname="0d535470697e5bc5b90d18edb586d1c6.svg" ns2:version="1.4.2 (f4327f4, 2025-05-13)">
  <defs id="defs76"/>
  <ns1:namedview id="namedview76" pagecolor="#505050" bordercolor="#eeeeee" borderopacity="1" ns2:showpageshadow="0" ns2:pageopacity="0" ns2:pagecheckerboard="0" ns2:deskcolor="#505050" ns2:zoom="7.4580623" ns2:cx="64.829172" ns2:cy="31.576566" ns2:window-width="1920" ns2:window-height="945" ns2:window-x="-9" ns2:window-y="40" ns2:window-maximized="1" ns2:current-layer="svg76"/>
  <g transform="translate(-240,-180)" id="g76">
    <g data-paper-data="{&quot;isPaintingLayer&quot;:true}" stroke="none" stroke-linecap="butt" stroke-linejoin="miter" stroke-miterlimit="10" stroke-dasharray="" stroke-dashoffset="0" style="mix-blend-mode: normal" id="g75">
      <path d="M248,180h152.1c4.432,0 8,3.568 8,8v38.31c0,4.432 -3.568,8 -8,8h-152.1c-4.432,0 -8,-3.568 -8,-8v-38.31c0,-4.432 3.568,-8 8,-8z" fill-opacity="0.7" fill="#000000" fill-rule="evenodd" stroke-width="0" id="path1"/>
      <g fill="#ffffff" fill-rule="nonzero" stroke-width="1" id="g74">
        <path d="M248.02,220.07l2.9844,2.9844l2.9844,-2.9844l0.34375,0.34375l-2.9844,2.9844l2.9844,2.9844l-0.34375,0.34375l-2.9844,-2.9844l-2.9844,2.9844l-0.34375,-0.34375l2.9844,-2.9844l-2.9844,-2.9844zM248.30125,222.7419c0.10938,0 0.21355,0.02733 0.3125,0.082c0.22917,0.125 0.34375,0.3151 0.34375,0.57031c0,0.11459 -0.02863,0.22266 -0.0859,0.32422c-0.125,0.22396 -0.31641,0.33594 -0.57422,0.33594c-0.14844,0 -0.28125,-0.04687 -0.39844,-0.14062c-0.16927,-0.13021 -0.25391,-0.30209 -0.25391,-0.51563c0,-0.19011 0.06901,-0.35026 0.20704,-0.48047c0.1276,-0.11719 0.27734,-0.17578 0.44921,-0.17578zM251.00825,220.0349c0.10677,0 0.20963,0.02733 0.30859,0.082c0.22917,0.125 0.34375,0.3151 0.34375,0.57031c0,0.11459 -0.02863,0.22266 -0.0859,0.32422c-0.125,0.22396 -0.31641,0.33594 -0.57422,0.33594c-0.14583,0 -0.27864,-0.04688 -0.39843,-0.14063c-0.16927,-0.13021 -0.25391,-0.30208 -0.25391,-0.51562c0,-0.19011 0.07031,-0.35026 0.21094,-0.48047c0.125,-0.11719 0.27474,-0.17578 0.44922,-0.17578zM253.71135,222.7419c0.10677,0 0.20964,0.02733 0.30859,0.082c0.22917,0.125 0.34375,0.3151 0.34375,0.57031c0,0.11459 -0.02863,0.22266 -0.0859,0.32422c-0.125,0.22396 -0.31641,0.33594 -0.57422,0.33594c-0.14844,0 -0.28125,-0.04687 -0.39844,-0.14062c-0.16927,-0.13021 -0.25391,-0.30209 -0.25391,-0.51563c0,-0.19011 0.07031,-0.35026 0.21094,-0.48047c0.125,-0.11719 0.27474,-0.17578 0.44922,-0.17578zM251.00825,225.445c0.10677,0 0.20963,0.02733 0.30859,0.082c0.22917,0.125 0.34375,0.3151 0.34375,0.57031c0,0.11458 -0.02863,0.22265 -0.0859,0.32422c-0.125,0.22396 -0.31641,0.33594 -0.57422,0.33594c-0.14583,0 -0.27864,-0.04688 -0.39843,-0.14063c-0.16927,-0.13021 -0.25391,-0.30208 -0.25391,-0.51562c0,-0.19011 0.07031,-0.35026 0.21094,-0.48047c0.125,-0.11719 0.27474,-0.17578 0.44922,-0.17578z" id="path60"/>
      </g>
    </g>
  </g>
  <text xml:space="preserve" style="font-weight:613;font-size:8px;line-height:1.2;font-family:'Dream Han Sans SC';-inkscape-font-specification:'Dream Han Sans SC weight=613';text-align:start;writing-mode:lr-tb;direction:ltr;text-anchor:start;fill:#ffffff" x="7.3745694" y="47.197247" id="text80">
    <tspan ns1:role="line" id="tspan80"/>
  </text>
  <path d="m 41.198315,46.959966 -0.18359,-0.72656 c -0.16407,0.23177 -0.3737,0.41797 -0.62891,0.55859 -0.34635,0.1875 -0.72785,0.28125 -1.1445,0.28125 -0.8594,0 -1.58597,-0.29297 -2.1797,-0.8789 -0.62239,-0.61719 -0.93359,-1.44402 -0.93359,-2.4805 0,-0.90887 0.25,-1.6719 0.75,-2.2891 0.60937,-0.7526 1.41537,-1.1289 2.418,-1.1289 0.52083,0 0.98957,0.0859 1.4062,0.25781 0.31771,0.13021 0.64843,0.33463 0.99218,0.61328 l -0.58203,0.72266 c -0.30989,-0.25781 -0.58463,-0.4375 -0.82422,-0.53906 -0.27865,-0.11719 -0.59766,-0.17578 -0.95703,-0.17578 -0.60937,0 -1.10937,0.23307 -1.5,0.69921 -0.38281,0.45573 -0.57422,1.07423 -0.57422,1.8555 0,0.7344 0.17708,1.32423 0.53125,1.7695 0.36459,0.45833 0.86329,0.6875 1.4961,0.6875 0.44271,0 0.82811,-0.10547 1.1562,-0.3164 0.26041,-0.16667 0.4388,-0.36589 0.53515,-0.59766 v -0.80859 h -1.7344 v -0.82422 h 2.7031 v 3.3203 z" id="path61" style="mix-blend-mode:normal;fill:#ffffff"/>
  <path d="m 43.448315,40.449966 h 2.2539 c 0.71093,0 1.26563,0.10547 1.6641,0.31641 0.22135,0.11719 0.41015,0.27995 0.5664,0.48828 0.2474,0.33594 0.3711,0.72527 0.3711,1.168 0,0.55989 -0.15365,1.02213 -0.46094,1.3867 -0.23958,0.28646 -0.57031,0.48307 -0.99219,0.58984 -0.32552,0.0833 -0.71875,0.125 -1.1797,0.125 h -1.1758 v 2.4062 h -1.0469 z m 1.0469,0.83203 v 2.4102 h 0.99219 c 0.58594,0 0.99481,-0.0781 1.2266,-0.23437 0.29688,-0.19792 0.44532,-0.53385 0.44532,-1.0078 0,-0.77867 -0.51433,-1.168 -1.543,-1.168 z" id="path62" style="mix-blend-mode:normal;fill:#ffffff"/>
  <path d="m 49.448315,40.449966 h 1.0469 v 4.0547 c 0,0.45313 0.0977,0.81509 0.29297,1.0859 0.29948,0.40885 0.74608,0.61328 1.3398,0.61328 0.65885,0 1.12892,-0.24089 1.4102,-0.72266 0.14844,-0.25521 0.22266,-0.58073 0.22266,-0.97656 v -4.0547 h 1.0469 v 4.2305 c 0,0.60937 -0.15755,1.10807 -0.47265,1.4961 -0.49219,0.60937 -1.22915,0.91406 -2.2109,0.91406 -0.97393,0 -1.7083,-0.30469 -2.2031,-0.91406 -0.31511,-0.38542 -0.47266,-0.88412 -0.47266,-1.4961 z" id="path63" style="mix-blend-mode:normal;fill:#ffffff"/>
  <path d="M 7.41 7.43 L 9.93 7.43 L 10.06 7.38 L 10.52 7.70 Q 10.32 8.01 9.84 8.66 Q 9.84 8.66 9.57 8.96 Q 9.39 9.15 9.21 9.32 Q 9.28 9.36 9.34 9.40 Q 9.67 9.62 9.88 9.79 L 9.70 10.02 L 10.17 10.02 L 10.28 9.99 L 10.74 10.12 Q 10.60 10.60 10.26 11.60 Q 10.26 11.60 10.12 11.93 L 9.55 11.79 Q 9.64 11.59 9.82 11.02 Q 9.82 11.02 9.91 10.71 Q 9.91 10.70 9.92 10.70 L 9.23 10.70 L 9.23 13.63 Q 9.23 13.92 9.09 14.25 Q 9.09 14.25 8.89 14.34 Q 8.70 14.42 8.13 14.47 Q 8.13 14.47 7.73 14.47 Q 7.70 14.31 7.57 13.90 Q 7.57 13.90 7.48 13.75 Q 7.77 13.76 8.27 13.76 Q 8.27 13.76 8.35 13.76 Q 8.44 13.75 8.50 13.70 Q 8.50 13.70 8.50 13.63 L 8.50 10.70 L 7.24 10.70 L 7.24 10.02 L 9.04 10.02 Q 8.99 9.99 8.93 9.95 Q 8.61 9.71 7.91 9.24 Q 7.91 9.24 7.61 9.04 L 8.01 8.55 Q 8.31 8.74 8.66 8.96 Q 8.68 8.97 8.69 8.98 Q 8.87 8.80 9.06 8.59 Q 9.27 8.34 9.44 8.08 L 7.41 8.08 Z M 10.65 7.40 L 14.68 7.40 L 14.68 8.06 L 13.11 8.06 Q 13.03 8.31 12.95 8.54 Q 12.91 8.67 12.87 8.77 L 14.37 8.77 L 14.37 12.58 L 13.64 12.58 L 13.64 9.45 L 11.63 9.45 L 11.63 12.60 L 10.93 12.60 L 10.93 8.77 L 12.14 8.77 Q 12.19 8.59 12.23 8.38 Q 12.27 8.22 12.30 8.06 L 10.65 8.06 Z M 12.27 9.92 L 12.98 9.92 L 12.98 11.46 Q 12.98 11.84 12.82 12.66 Q 12.82 12.66 12.35 13.45 Q 12.35 13.45 11.44 14.15 Q 11.44 14.15 10.68 14.44 Q 10.62 14.32 10.35 14.01 Q 10.35 14.01 10.22 13.91 Q 10.92 13.67 11.73 13.08 Q 11.73 13.08 12.13 12.41 Q 12.13 12.41 12.27 11.75 Q 12.27 11.75 12.27 11.45 Z M 12.77 13.18 L 13.26 12.72 Q 13.50 12.91 14.05 13.36 Q 14.05 13.36 14.56 13.80 Q 14.56 13.80 14.71 13.97 L 14.19 14.49 Q 14.04 14.31 13.56 13.86 Q 13.56 13.86 13.01 13.38 Q 13.01 13.38 12.77 13.18 Z M 15.44 10.44 L 18.60 10.44 L 18.60 8.96 L 17.06 8.96 Q 16.98 9.14 16.90 9.31 Q 16.67 9.78 16.39 10.13 Q 16.30 10.08 16.06 9.94 Q 16.06 9.94 15.82 9.82 Q 15.82 9.82 15.73 9.79 Q 16.00 9.45 16.43 8.56 Q 16.43 8.56 16.76 7.63 Q 16.76 7.63 16.84 7.21 L 17.61 7.36 Q 17.50 7.79 17.34 8.24 L 18.60 8.24 L 18.60 7.06 L 19.36 7.06 L 19.36 8.24 L 21.93 8.24 L 21.93 8.96 L 19.36 8.96 L 19.36 10.44 L 22.52 10.44 L 22.52 11.17 L 20.36 11.17 L 20.36 13.35 Q 20.36 13.54 20.48 13.64 Q 20.48 13.64 20.70 13.64 L 21.58 13.64 Q 21.71 13.64 21.85 13.48 Q 21.85 13.48 21.91 12.99 Q 21.91 12.99 21.93 12.48 Q 22.00 12.54 22.25 12.67 Q 22.25 12.67 22.52 12.76 Q 22.52 12.76 22.61 12.79 Q 22.58 13.41 22.39 14.09 Q 22.39 14.09 21.99 14.36 Q 21.99 14.36 21.64 14.36 L 20.60 14.36 Q 20.19 14.36 19.77 14.18 Q 19.77 14.18 19.61 13.73 Q 19.61 13.73 19.61 13.35 L 19.61 11.17 L 18.24 11.17 Q 18.18 11.67 18.07 12.12 Q 17.94 12.65 17.42 13.55 Q 17.42 13.55 16.52 14.27 Q 16.52 14.27 15.80 14.52 Q 15.76 14.42 15.60 14.19 Q 15.60 14.19 15.41 13.95 Q 15.41 13.95 15.32 13.87 Q 15.97 13.67 16.77 13.08 Q 16.77 13.08 17.22 12.35 Q 17.22 12.35 17.32 11.92 Q 17.41 11.56 17.44 11.17 L 15.44 11.17 Z M 24.30 7.44 L 29.67 7.44 L 29.67 10.60 L 24.30 10.60 Z M 23.26 13.40 L 25.70 13.40 L 25.70 10.88 L 26.41 10.88 L 26.41 13.40 L 27.48 13.40 L 27.48 10.88 L 28.20 10.88 L 28.20 13.40 L 30.68 13.40 L 30.68 14.12 L 23.26 14.12 Z M 25.03 9.29 L 25.03 9.99 L 28.89 9.99 L 28.89 9.29 Z M 25.03 8.03 L 25.03 8.73 L 28.89 8.73 L 28.89 8.03 Z M 29.48 11.11 L 30.12 11.40 Q 29.87 11.81 29.28 12.67 Q 29.28 12.67 29.03 12.99 L 28.44 12.71 Q 28.62 12.50 29.00 11.94 Q 29.00 11.94 29.36 11.36 Q 29.36 11.36 29.48 11.11 Z M 23.89 11.41 L 24.48 11.16 Q 24.64 11.41 24.96 11.99 Q 24.96 11.99 25.26 12.52 Q 25.26 12.52 25.34 12.73 L 24.73 13.02 Q 24.64 12.81 24.36 12.26 Q 24.36 12.26 24.05 11.67 Q 24.05 11.67 23.89 11.41 Z M 31.43 9.55 L 38.52 9.55 L 38.52 10.31 L 35.41 10.31 L 35.41 13.55 Q 35.41 13.89 35.22 14.26 Q 35.22 14.26 34.97 14.35 Q 34.73 14.44 33.98 14.48 Q 33.98 14.48 33.45 14.48 Q 33.43 14.31 33.27 13.85 Q 33.27 13.85 33.18 13.68 Q 33.44 13.69 33.93 13.70 Q 33.93 13.70 34.31 13.70 Q 34.31 13.70 34.38 13.70 Q 34.49 13.70 34.58 13.63 Q 34.58 13.63 34.58 13.54 L 34.58 10.31 L 31.43 10.31 Z M 32.15 7.62 L 37.80 7.62 L 37.80 8.36 L 32.15 8.36 Z M 32.71 11.00 L 33.51 11.21 Q 33.32 11.69 32.80 12.63 Q 32.80 12.63 32.20 13.44 Q 32.20 13.44 31.90 13.76 Q 31.83 13.68 31.57 13.51 Q 31.57 13.51 31.31 13.35 Q 31.31 13.35 31.20 13.30 Q 31.68 12.88 32.48 11.65 Q 32.48 11.65 32.71 11.00 Z M 36.40 11.29 L 37.10 10.99 Q 37.39 11.37 37.94 12.24 Q 37.94 12.24 38.39 13.08 Q 38.39 13.08 38.50 13.43 L 37.73 13.76 Q 37.63 13.44 37.21 12.57 Q 37.21 12.57 36.68 11.67 Q 36.68 11.67 36.40 11.29 Z M 41.98 7.75 L 43.75 7.75 Q 43.80 7.38 43.83 7.08 L 44.64 7.11 Q 44.57 7.42 44.50 7.75 L 46.48 7.75 L 46.48 8.36 L 44.35 8.36 Q 44.32 8.50 44.28 8.63 Q 44.26 8.73 44.23 8.83 L 46.01 8.83 L 46.01 12.35 L 46.69 12.35 L 46.69 12.99 L 45.11 12.99 Q 45.33 13.12 45.57 13.26 Q 45.88 13.44 46.44 13.81 Q 46.44 13.81 46.63 13.97 L 46.13 14.49 Q 45.96 14.33 45.41 13.95 Q 45.41 13.95 44.80 13.55 Q 44.80 13.55 44.52 13.40 L 44.93 12.99 L 43.37 12.99 L 43.91 13.38 Q 43.64 13.57 42.98 13.98 Q 42.98 13.98 42.28 14.35 Q 42.28 14.35 41.97 14.47 Q 41.89 14.36 41.62 14.07 Q 41.62 14.07 41.51 13.96 Q 41.81 13.83 42.48 13.48 Q 42.48 13.48 42.78 13.30 Q 43.03 13.14 43.21 12.99 L 41.70 12.99 L 41.70 12.51 Q 41.14 12.75 40.58 12.98 Q 39.98 13.22 39.48 13.42 L 39.20 12.66 Q 39.51 12.57 39.91 12.44 Q 40.02 12.40 40.14 12.35 L 40.14 9.67 L 39.28 9.67 L 39.28 8.96 L 40.14 8.96 L 40.14 7.15 L 40.85 7.15 L 40.85 8.96 L 41.73 8.96 L 41.73 9.67 L 40.85 9.67 L 40.85 12.10 Q 41.25 11.96 41.65 11.81 L 41.75 12.35 L 42.38 12.35 L 42.38 8.83 L 43.56 8.83 Q 43.59 8.69 43.62 8.52 Q 43.64 8.44 43.64 8.36 L 41.98 8.36 Z M 43.03 12.35 L 45.32 12.35 L 45.32 11.90 L 43.03 11.90 Z M 45.32 9.78 L 45.32 9.34 L 43.03 9.34 L 43.03 9.78 Z M 45.32 11.46 L 45.32 11.04 L 43.03 11.04 L 43.03 11.46 Z M 45.32 10.60 L 45.32 10.19 L 43.03 10.19 L 43.03 10.60 Z M 49.73 7.02 L 50.42 7.28 Q 50.30 7.51 50.16 7.72 L 52.16 7.72 L 52.31 7.68 L 52.80 8.04 Q 52.59 8.35 52.32 8.68 Q 52.06 8.99 51.80 9.28 L 53.89 9.28 L 53.89 12.22 L 53.14 12.22 L 53.14 11.90 L 48.99 11.90 L 48.99 13.07 Q 48.99 13.31 49.14 13.56 Q 49.14 13.56 49.58 13.65 Q 49.58 13.65 50.02 13.65 L 52.97 13.65 Q 53.36 13.65 53.76 13.47 Q 53.76 13.47 53.93 12.93 Q 53.93 12.93 53.97 12.42 Q 54.12 12.51 54.54 12.66 Q 54.54 12.66 54.69 12.69 Q 54.64 13.17 54.44 13.81 Q 54.44 13.81 54.09 14.19 Q 54.09 14.19 53.47 14.35 Q 53.47 14.35 53.00 14.35 L 50.05 14.35 Q 49.37 14.35 48.58 14.14 Q 48.58 14.14 48.26 13.58 Q 48.26 13.58 48.26 13.07 L 48.26 9.86 Q 47.96 10.11 47.65 10.31 Q 47.62 10.24 47.48 9.96 Q 47.48 9.96 47.31 9.68 Q 47.31 9.68 47.25 9.60 Q 47.73 9.31 48.66 8.50 Q 48.66 8.50 49.46 7.54 Q 49.46 7.54 49.73 7.02 Z M 53.14 11.19 L 53.14 9.98 L 51.43 9.98 L 51.43 11.19 Z M 48.99 9.98 L 48.99 11.19 L 50.68 11.19 L 50.68 9.98 Z M 48.90 9.28 L 50.87 9.28 Q 51.05 9.12 51.22 8.93 Q 51.45 8.67 51.64 8.40 L 49.68 8.40 Q 49.67 8.42 49.65 8.44 Q 49.29 8.88 48.90 9.28 Z M 60.00 7.06 L 60.71 7.06 L 60.71 8.99 L 61.59 8.61 L 61.73 8.50 L 61.86 8.40 L 62.40 8.60 L 62.36 8.72 Q 62.36 9.29 62.36 10.26 Q 62.36 10.26 62.34 11.02 Q 62.34 11.02 62.32 11.54 Q 62.32 11.54 62.29 11.66 Q 62.27 11.92 62.05 12.19 Q 62.05 12.19 61.87 12.24 Q 61.70 12.31 61.26 12.33 Q 61.26 12.33 61.09 12.33 Q 61.07 12.18 60.97 11.80 Q 60.97 11.80 60.92 11.68 Q 61.03 11.69 61.32 11.70 Q 61.32 11.70 61.38 11.70 Q 61.47 11.70 61.57 11.62 Q 61.57 11.62 61.60 11.50 Q 61.61 11.43 61.63 10.98 Q 61.63 10.98 61.64 10.25 Q 61.64 10.25 61.64 9.75 Q 61.64 9.55 61.64 9.35 L 60.71 9.76 L 60.71 12.66 L 60.00 12.66 L 60.00 10.06 L 59.10 10.44 L 59.10 13.10 Q 59.10 13.32 59.18 13.55 Q 59.18 13.55 59.44 13.63 Q 59.44 13.63 59.70 13.63 L 61.47 13.63 Q 61.70 13.63 61.93 13.46 Q 61.93 13.46 62.03 12.99 Q 62.03 12.99 62.06 12.55 Q 62.19 12.64 62.58 12.80 Q 62.58 12.80 62.73 12.83 Q 62.68 13.40 62.44 14.03 Q 62.44 14.03 61.96 14.31 Q 61.96 14.31 61.52 14.31 L 59.65 14.31 Q 59.16 14.31 58.60 14.11 Q 58.60 14.11 58.37 13.57 Q 58.37 13.57 58.37 13.09 L 58.37 10.76 L 57.83 10.99 L 57.54 10.32 L 58.37 9.97 L 58.37 7.82 L 59.10 7.82 L 59.10 9.67 L 60.00 9.28 Z M 55.28 8.96 L 56.27 8.96 L 56.27 7.15 L 56.98 7.15 L 56.98 8.96 L 57.87 8.96 L 57.87 9.67 L 56.98 9.67 L 56.98 11.80 Q 57.40 11.63 57.82 11.45 L 57.99 12.12 Q 57.35 12.43 56.03 13.03 Q 56.03 13.03 55.49 13.28 L 55.19 12.51 Q 55.52 12.40 55.95 12.22 Q 56.11 12.16 56.27 12.09 L 56.27 9.67 L 55.28 9.67 Z M 63.61 7.38 L 70.35 7.38 L 70.35 14.49 L 69.60 14.49 L 69.60 14.17 L 64.33 14.17 L 64.33 14.49 L 63.61 14.49 Z M 69.60 13.50 L 69.60 8.08 L 64.33 8.08 L 64.33 13.50 Z M 66.26 8.15 L 66.88 8.36 Q 66.74 8.58 66.58 8.79 L 68.52 8.79 L 68.63 8.76 L 69.05 9.01 Q 68.74 9.51 68.26 9.92 Q 67.97 10.15 67.65 10.37 Q 67.90 10.47 68.16 10.56 Q 68.84 10.80 69.56 10.93 Q 69.45 11.03 69.20 11.36 Q 69.20 11.36 69.13 11.49 Q 68.41 11.34 67.71 11.06 Q 67.36 10.91 67.03 10.74 Q 66.52 11.00 65.97 11.20 Q 65.34 11.44 64.71 11.60 Q 64.68 11.50 64.57 11.27 Q 64.57 11.27 64.44 11.04 Q 64.44 11.04 64.37 10.98 Q 64.96 10.86 65.57 10.67 Q 65.99 10.53 66.39 10.35 Q 65.96 10.08 65.64 9.75 Q 65.33 10.02 65.02 10.22 Q 64.96 10.16 64.78 9.99 Q 64.78 9.99 64.58 9.83 Q 64.58 9.83 64.51 9.78 Q 65.01 9.48 65.96 8.62 Q 65.96 8.62 66.26 8.15 Z M 65.14 12.64 L 65.49 12.14 Q 65.89 12.18 66.79 12.33 Q 66.79 12.33 67.66 12.52 Q 67.66 12.52 68.44 12.72 Q 68.44 12.72 68.74 12.83 L 68.41 13.37 Q 68.02 13.22 66.92 12.95 Q 66.92 12.95 65.70 12.71 Q 65.70 12.71 65.14 12.64 Z M 65.91 11.62 L 66.22 11.18 Q 66.55 11.24 67.28 11.44 Q 67.28 11.44 67.93 11.67 Q 67.93 11.67 68.16 11.78 L 67.85 12.27 Q 67.63 12.15 66.96 11.91 Q 66.96 11.91 66.25 11.69 Q 66.25 11.69 65.91 11.62 Z M 67.00 10.05 Q 67.39 9.84 67.71 9.60 Q 67.86 9.48 67.99 9.36 L 66.07 9.36 Q 66.41 9.71 66.91 9.99 Q 66.96 10.03 67.00 10.05 Z M 72.36 14.77 L 72.15 14.25 Q 72.64 14.07 72.91 13.77 Q 73.13 13.51 73.16 13.17 Q 73.11 13.18 73.04 13.18 Q 72.78 13.18 72.38 12.85 Q 72.38 12.85 72.38 12.54 Q 72.38 12.24 72.79 11.91 Q 72.79 11.91 73.06 11.91 Q 73.44 11.91 73.83 12.45 Q 73.83 12.45 73.83 12.91 Q 73.83 13.56 73.03 14.55 Q 73.03 14.55 72.36 14.77 Z M 85.00 7.38 L 85.80 7.42 Q 85.73 8.83 85.34 11.07 Q 85.34 11.07 84.96 11.93 Q 84.96 11.94 84.96 11.96 Q 85.20 12.19 85.47 12.46 Q 85.86 12.86 86.55 13.65 Q 86.55 13.65 86.76 13.96 L 86.09 14.46 Q 85.89 14.15 85.24 13.34 Q 85.24 13.34 84.86 12.92 Q 84.73 12.77 84.59 12.63 Q 84.31 13.07 83.95 13.44 Q 83.31 14.07 82.34 14.52 Q 82.29 14.44 82.09 14.19 Q 82.09 14.19 81.86 13.95 Q 81.86 13.95 81.77 13.87 Q 82.71 13.49 83.92 12.35 Q 83.92 12.35 84.61 10.76 Q 84.61 10.76 84.94 8.68 Q 84.94 8.68 85.00 7.38 Z M 80.09 13.75 Q 80.04 13.65 79.90 13.42 Q 79.90 13.42 79.73 13.19 Q 79.73 13.19 79.66 13.13 Q 79.76 13.07 80.00 12.83 Q 80.00 12.83 80.19 12.51 Q 80.19 12.51 80.19 12.31 L 80.19 7.64 L 81.01 7.64 L 81.01 12.30 L 82.73 11.47 Q 82.76 11.63 82.88 12.06 Q 82.88 12.06 82.93 12.19 Q 82.24 12.53 81.29 13.01 Q 81.29 13.01 80.68 13.34 Q 80.68 13.34 80.33 13.54 Q 80.33 13.54 80.14 13.68 Q 80.14 13.68 80.09 13.75 Z M 81.91 8.19 L 82.56 7.84 Q 82.80 8.12 83.26 8.79 Q 83.26 8.79 83.65 9.44 Q 83.65 9.44 83.77 9.69 L 83.09 10.10 Q 82.98 9.84 82.61 9.17 Q 82.61 9.17 82.14 8.47 Q 82.14 8.47 81.91 8.19 Z M 89.63 7.50 L 94.57 7.50 L 94.57 8.16 L 92.46 8.16 L 92.46 8.76 L 94.32 8.76 L 94.32 11.88 L 92.39 11.88 Q 92.32 12.27 92.16 12.63 Q 92.03 12.92 91.83 13.18 Q 92.28 13.35 92.81 13.47 Q 93.71 13.67 94.79 13.73 Q 94.71 13.81 94.53 14.07 Q 94.53 14.07 94.38 14.32 Q 94.38 14.32 94.33 14.44 Q 93.23 14.34 92.32 14.08 Q 91.77 13.93 91.29 13.71 Q 91.09 13.86 90.84 14.00 Q 90.33 14.29 89.59 14.50 Q 89.55 14.41 89.39 14.18 Q 89.39 14.18 89.20 13.96 Q 89.20 13.96 89.13 13.88 Q 89.85 13.72 90.33 13.49 Q 90.49 13.41 90.63 13.33 Q 89.98 12.90 89.55 12.28 L 90.20 12.04 Q 90.57 12.54 91.17 12.87 Q 91.39 12.63 91.50 12.35 Q 91.60 12.12 91.64 11.88 L 89.80 11.88 L 89.80 8.76 L 91.71 8.76 L 91.71 8.16 L 89.63 8.16 Z M 88.96 7.09 L 89.66 7.30 Q 89.43 7.98 89.11 8.64 Q 89.01 8.85 88.91 9.05 L 88.91 14.47 L 88.19 14.47 L 88.19 10.27 Q 87.93 10.65 87.64 10.97 Q 87.61 10.87 87.45 10.59 Q 87.45 10.59 87.28 10.29 Q 87.28 10.29 87.21 10.20 Q 87.57 9.82 88.21 8.82 Q 88.21 8.82 88.76 7.67 Q 88.76 7.67 88.96 7.09 Z M 90.50 10.58 L 90.50 11.31 L 91.71 11.31 Q 91.71 11.12 91.71 10.93 L 91.71 10.58 Z M 90.50 9.32 L 90.50 10.04 L 91.71 10.04 L 91.71 9.32 Z M 92.46 10.58 L 92.46 10.93 Q 92.46 11.12 92.45 11.31 L 93.59 11.31 L 93.59 10.58 Z M 92.46 10.04 L 93.59 10.04 L 93.59 9.32 L 92.46 9.32 Z M 95.44 8.24 L 97.64 8.24 Q 97.87 7.64 98.03 7.05 L 98.82 7.24 Q 98.66 7.75 98.47 8.24 L 102.51 8.24 L 102.51 8.97 L 98.16 8.97 Q 98.12 9.03 98.09 9.09 Q 97.71 9.89 97.19 10.59 L 97.19 14.46 L 96.44 14.46 L 96.44 11.47 Q 96.05 11.85 95.61 12.16 Q 95.57 12.06 95.43 11.80 Q 95.43 11.80 95.28 11.54 Q 95.28 11.54 95.23 11.45 Q 95.77 11.08 96.66 10.08 Q 96.66 10.08 97.00 9.50 Q 97.16 9.24 97.30 8.97 L 95.44 8.97 Z M 97.98 10.80 L 99.71 10.80 L 99.71 9.35 L 100.47 9.35 L 100.47 10.80 L 102.19 10.80 L 102.19 11.50 L 100.47 11.50 L 100.47 13.59 L 102.50 13.59 L 102.50 14.29 L 97.67 14.29 L 97.67 13.59 L 99.71 13.59 L 99.71 11.50 L 97.98 11.50 Z M 106.56 7.02 L 107.40 7.15 Q 107.28 8.03 107.09 8.83 L 110.47 8.83 L 110.47 9.54 L 106.91 9.54 Q 106.79 9.95 106.65 10.31 L 109.19 10.31 L 109.34 10.28 L 109.86 10.52 Q 109.59 11.37 109.13 12.02 Q 108.77 12.54 108.32 12.95 Q 109.33 13.57 110.74 13.82 Q 110.66 13.90 110.48 14.14 Q 110.48 14.14 110.32 14.40 Q 110.32 14.40 110.26 14.50 Q 109.12 14.25 108.23 13.76 Q 107.96 13.60 107.71 13.43 Q 107.27 13.73 106.77 13.96 Q 106.07 14.29 105.28 14.50 Q 105.22 14.35 104.99 13.96 Q 104.99 13.96 104.88 13.84 Q 105.60 13.67 106.25 13.38 Q 106.70 13.19 107.10 12.93 Q 106.89 12.73 106.71 12.51 Q 106.34 12.08 106.04 11.58 Q 105.69 12.17 105.23 12.67 Q 104.61 13.35 103.73 13.86 Q 103.68 13.77 103.49 13.54 Q 103.49 13.54 103.27 13.32 Q 103.27 13.32 103.17 13.26 Q 104.25 12.64 105.61 10.82 Q 105.61 10.82 106.00 9.63 Q 106.01 9.59 106.02 9.54 L 104.94 9.54 Q 104.58 9.54 104.15 9.63 Q 104.15 9.63 104.09 9.70 Q 104.07 9.62 103.98 9.36 Q 103.98 9.36 103.88 9.10 Q 103.88 9.10 103.84 9.01 Q 103.93 8.98 104.09 8.82 Q 104.09 8.82 104.16 8.68 Q 104.20 8.60 104.41 8.16 Q 104.41 8.16 104.64 7.57 Q 104.64 7.57 104.70 7.26 L 105.51 7.40 Q 105.41 7.74 105.12 8.44 Q 105.12 8.44 104.97 8.74 Q 104.95 8.78 104.93 8.83 L 106.23 8.83 Q 106.44 7.97 106.56 7.02 Z M 107.69 12.49 Q 108.10 12.14 108.42 11.70 Q 108.64 11.40 108.81 11.04 L 106.52 11.04 Q 106.96 11.87 107.69 12.49 Z M 108.34 7.48 L 108.93 7.13 Q 109.09 7.31 109.48 7.72 Q 109.48 7.72 109.82 8.12 Q 109.82 8.12 109.93 8.26 L 109.32 8.66 Q 109.22 8.51 108.87 8.10 Q 108.87 8.10 108.50 7.67 Q 108.50 7.67 108.34 7.48 Z M 111.43 8.24 L 113.68 8.24 Q 113.93 7.64 114.08 7.04 L 114.86 7.22 Q 114.70 7.74 114.50 8.24 L 118.53 8.24 L 118.53 8.97 L 114.19 8.97 Q 114.16 9.04 114.13 9.11 Q 113.83 9.75 113.44 10.33 L 114.99 10.33 L 114.99 9.32 L 115.75 9.32 L 115.75 10.33 L 118.12 10.33 L 118.12 12.87 Q 118.12 13.15 117.96 13.47 Q 117.96 13.47 117.76 13.57 Q 117.55 13.65 116.89 13.68 Q 116.89 13.68 116.41 13.68 Q 116.38 13.53 116.24 13.15 Q 116.24 13.15 116.16 12.99 Q 116.38 13.00 116.80 13.01 Q 116.80 13.01 117.12 13.01 Q 117.12 13.01 117.18 13.01 Q 117.28 13.00 117.35 12.95 Q 117.35 12.95 117.35 12.87 L 117.35 11.04 L 115.75 11.04 L 115.75 14.48 L 114.99 14.48 L 114.99 11.04 L 113.47 11.04 L 113.47 13.76 L 112.71 13.76 L 112.71 11.26 Q 112.22 11.80 111.61 12.22 Q 111.57 12.13 111.41 11.90 Q 111.41 11.90 111.25 11.65 Q 111.25 11.65 111.17 11.57 Q 111.74 11.19 112.67 10.16 Q 112.67 10.16 113.03 9.56 Q 113.19 9.28 113.35 8.97 L 111.43 8.97 Z M 120.01 12.88 Q 120.00 12.80 119.93 12.55 Q 119.93 12.55 119.84 12.28 Q 119.84 12.28 119.80 12.18 Q 120.01 12.15 120.51 12.02 Q 120.51 12.02 120.84 11.89 Q 121.02 11.83 121.38 11.68 Q 121.58 11.60 121.82 11.49 Q 121.36 11.51 121.12 11.53 Q 120.85 11.54 120.61 11.58 Q 120.61 11.58 120.54 11.61 Q 120.52 11.54 120.44 11.29 Q 120.44 11.29 120.36 11.03 Q 120.36 11.03 120.32 10.95 Q 120.43 10.92 120.68 10.82 Q 120.68 10.82 120.81 10.75 Q 120.91 10.69 121.36 10.42 Q 121.36 10.42 121.61 10.22 Q 121.62 10.22 121.62 10.22 L 121.16 10.22 L 121.16 7.20 L 121.85 7.20 L 121.85 10.04 Q 121.98 9.93 122.10 9.81 L 122.41 10.03 Q 122.37 9.97 122.32 9.90 Q 122.26 9.79 122.19 9.72 Q 122.77 9.62 123.28 9.43 Q 123.52 9.34 123.74 9.24 Q 123.22 8.71 122.90 8.00 L 122.44 8.00 L 122.44 7.35 L 125.61 7.35 L 125.74 7.32 L 126.18 7.50 Q 125.90 8.31 125.36 8.87 Q 125.16 9.09 124.93 9.27 Q 125.63 9.63 126.56 9.79 Q 126.48 9.87 126.29 10.10 Q 126.29 10.10 126.14 10.34 Q 126.14 10.34 126.09 10.45 Q 125.04 10.21 124.29 9.70 Q 124.19 9.75 124.10 9.79 Q 123.39 10.15 122.57 10.34 Q 122.22 10.59 121.84 10.81 Q 121.77 10.86 121.68 10.91 L 123.09 10.87 Q 123.10 10.87 123.12 10.86 Q 123.61 10.60 124.05 10.31 L 124.57 10.85 Q 123.61 11.41 122.58 11.84 Q 122.31 11.96 122.03 12.06 L 124.81 11.92 Q 124.53 11.71 124.27 11.53 L 124.78 11.17 Q 125.07 11.35 125.70 11.83 Q 125.70 11.83 126.25 12.32 Q 126.25 12.32 126.41 12.54 L 125.87 12.94 Q 125.71 12.73 125.45 12.48 Q 125.45 12.48 125.44 12.47 Q 124.41 12.53 123.64 12.58 Q 123.57 12.58 123.49 12.59 L 123.49 13.72 Q 123.49 13.99 123.33 14.28 Q 123.33 14.28 123.12 14.36 Q 122.91 14.44 122.29 14.47 Q 122.29 14.47 121.86 14.47 Q 121.83 14.31 121.67 13.96 Q 121.67 13.96 121.59 13.82 Q 121.80 13.83 122.21 13.83 Q 122.21 13.83 122.51 13.83 Q 122.51 13.83 122.57 13.83 Q 122.66 13.82 122.73 13.77 Q 122.73 13.77 122.73 13.70 L 122.73 12.63 Q 122.41 12.65 122.16 12.67 Q 121.55 12.70 120.78 12.76 Q 120.78 12.76 120.34 12.80 Q 120.34 12.80 120.10 12.85 Q 120.10 12.85 120.01 12.88 Z M 119.80 7.55 L 120.48 7.55 L 120.48 9.96 L 119.80 9.96 Z M 121.24 12.85 L 121.93 13.13 Q 121.67 13.37 121.01 13.84 Q 121.01 13.84 120.32 14.25 Q 120.32 14.25 120.00 14.41 Q 119.93 14.33 119.71 14.14 Q 119.71 14.14 119.50 13.95 Q 119.50 13.95 119.41 13.89 Q 119.92 13.70 120.91 13.15 Q 120.91 13.15 121.24 12.85 Z M 124.02 13.25 L 124.57 12.87 Q 124.87 13.02 125.57 13.40 Q 125.57 13.40 126.21 13.80 Q 126.21 13.80 126.42 13.97 L 125.84 14.40 Q 125.64 14.24 125.03 13.83 Q 125.03 13.83 124.34 13.40 Q 124.34 13.40 124.02 13.25 Z M 124.34 8.88 Q 124.71 8.63 124.98 8.30 Q 125.10 8.16 125.20 8.00 L 123.59 8.00 Q 123.87 8.51 124.34 8.88 Z M 128.48 10.10 L 132.82 10.10 L 132.82 9.54 L 128.36 9.54 L 128.36 9.35 Q 128.13 9.51 127.88 9.67 Q 127.83 9.58 127.64 9.36 Q 127.64 9.36 127.44 9.17 Q 127.44 9.17 127.36 9.12 Q 127.89 8.83 128.73 8.12 Q 128.73 8.12 129.33 7.37 Q 129.33 7.37 129.52 7.03 L 130.33 7.18 Q 130.19 7.42 130.03 7.64 L 132.09 7.64 L 132.21 7.61 L 132.73 7.95 Q 132.60 8.19 132.41 8.46 Q 132.24 8.71 132.06 8.93 L 133.57 8.93 L 133.57 11.86 L 130.85 11.86 Q 131.04 12.02 131.25 12.22 Q 131.47 12.44 131.84 12.87 Q 131.84 12.87 131.95 13.05 L 131.34 13.47 Q 131.25 13.29 130.88 12.83 Q 130.88 12.83 130.45 12.38 Q 130.45 12.38 130.25 12.19 L 130.77 11.86 L 128.20 11.86 L 128.20 11.24 L 132.82 11.24 L 132.82 10.67 L 128.48 10.67 Z M 129.03 12.35 L 129.80 12.35 L 129.80 13.44 Q 129.80 13.60 130.01 13.69 Q 130.01 13.69 130.37 13.69 L 131.98 13.69 Q 132.18 13.69 132.38 13.58 Q 132.38 13.58 132.46 13.22 Q 132.46 13.22 132.48 12.87 Q 132.57 12.92 132.81 13.03 Q 132.81 13.03 133.07 13.11 Q 133.07 13.11 133.17 13.14 Q 133.12 13.63 132.90 14.16 Q 132.90 14.16 132.44 14.36 Q 132.44 14.36 132.03 14.36 L 130.32 14.36 Q 129.81 14.36 129.25 14.20 Q 129.25 14.20 129.03 13.80 Q 129.03 13.80 129.03 13.44 Z M 128.88 8.93 L 131.18 8.93 Q 131.28 8.81 131.39 8.67 Q 131.54 8.46 131.67 8.26 L 129.56 8.26 Q 129.26 8.60 128.91 8.92 Q 128.89 8.92 128.88 8.93 Z M 133.06 12.38 L 133.73 12.13 Q 133.91 12.40 134.27 13.01 Q 134.27 13.01 134.57 13.60 Q 134.57 13.60 134.63 13.83 L 133.92 14.13 Q 133.85 13.90 133.59 13.30 Q 133.59 13.30 133.25 12.66 Q 133.25 12.66 133.06 12.38 Z M 128.07 12.34 L 128.73 12.63 Q 128.63 12.87 128.37 13.44 Q 128.37 13.44 128.11 13.99 Q 128.11 13.99 127.96 14.21 L 127.27 13.87 Q 127.42 13.66 127.71 13.13 Q 127.71 13.13 127.97 12.58 Q 127.97 12.58 128.07 12.34 Z M 140.00 7.06 L 140.71 7.06 L 140.71 8.99 L 141.59 8.61 L 141.73 8.50 L 141.86 8.40 L 142.40 8.60 L 142.36 8.72 Q 142.36 9.29 142.36 10.26 Q 142.36 10.26 142.34 11.02 Q 142.34 11.02 142.32 11.54 Q 142.32 11.54 142.29 11.66 Q 142.27 11.92 142.05 12.19 Q 142.05 12.19 141.87 12.24 Q 141.70 12.31 141.26 12.33 Q 141.26 12.33 141.09 12.33 Q 141.07 12.18 140.97 11.80 Q 140.97 11.80 140.92 11.68 Q 141.03 11.69 141.32 11.70 Q 141.32 11.70 141.38 11.70 Q 141.47 11.70 141.57 11.62 Q 141.57 11.62 141.60 11.50 Q 141.61 11.43 141.63 10.98 Q 141.63 10.98 141.64 10.25 Q 141.64 10.25 141.64 9.75 Q 141.64 9.55 141.64 9.35 L 140.71 9.76 L 140.71 12.66 L 140.00 12.66 L 140.00 10.06 L 139.10 10.44 L 139.10 13.10 Q 139.10 13.32 139.18 13.55 Q 139.18 13.55 139.44 13.63 Q 139.44 13.63 139.70 13.63 L 141.47 13.63 Q 141.70 13.63 141.93 13.46 Q 141.93 13.46 142.03 12.99 Q 142.03 12.99 142.06 12.55 Q 142.19 12.64 142.58 12.80 Q 142.58 12.80 142.73 12.83 Q 142.68 13.40 142.44 14.03 Q 142.44 14.03 141.96 14.31 Q 141.96 14.31 141.52 14.31 L 139.65 14.31 Q 139.16 14.31 138.60 14.11 Q 138.60 14.11 138.37 13.57 Q 138.37 13.57 138.37 13.09 L 138.37 10.76 L 137.83 10.99 L 137.54 10.32 L 138.37 9.97 L 138.37 7.82 L 139.10 7.82 L 139.10 9.67 L 140.00 9.28 Z M 135.28 8.96 L 136.27 8.96 L 136.27 7.15 L 136.98 7.15 L 136.98 8.96 L 137.87 8.96 L 137.87 9.67 L 136.98 9.67 L 136.98 11.80 Q 137.40 11.63 137.82 11.45 L 137.99 12.12 Q 137.35 12.43 136.03 13.03 Q 136.03 13.03 135.49 13.28 L 135.19 12.51 Q 135.52 12.40 135.95 12.22 Q 136.11 12.16 136.27 12.09 L 136.27 9.67 L 135.28 9.67 Z M 144.00 10.54 L 150.29 10.54 L 150.29 11.07 L 144.71 11.07 L 144.71 11.66 Q 144.71 11.89 144.69 12.15 L 150.60 12.15 L 150.60 12.67 L 149.61 12.67 L 150.12 12.93 Q 149.83 13.13 149.49 13.31 Q 149.31 13.40 149.14 13.47 Q 149.24 13.51 149.35 13.54 Q 149.97 13.70 150.73 13.76 Q 150.63 13.86 150.41 14.19 Q 150.41 14.19 150.35 14.34 Q 149.53 14.24 148.23 13.79 Q 148.23 13.79 147.76 13.43 Q 147.34 13.11 147.05 12.67 L 145.97 12.67 L 145.97 13.69 L 147.68 13.45 Q 147.64 13.57 147.61 13.91 Q 147.61 13.91 147.61 14.01 Q 146.85 14.14 145.93 14.30 Q 145.93 14.30 145.43 14.40 Q 145.43 14.40 145.20 14.45 Q 145.20 14.45 145.14 14.48 Q 145.12 14.40 145.00 14.17 Q 145.00 14.17 144.87 13.96 Q 144.87 13.96 144.80 13.88 Q 144.93 13.81 145.24 13.50 Q 145.24 13.50 145.24 13.24 L 145.24 12.67 L 144.64 12.67 Q 144.60 12.89 144.53 13.13 Q 144.43 13.51 144.04 14.24 Q 144.04 14.24 143.74 14.53 Q 143.68 14.46 143.48 14.28 Q 143.48 14.28 143.26 14.09 Q 143.26 14.09 143.18 14.06 Q 143.56 13.70 143.90 12.86 Q 143.90 12.86 144.00 12.01 Q 144.00 12.01 144.00 11.64 Z M 144.03 7.32 L 149.91 7.32 L 149.91 7.87 L 147.32 7.87 L 147.32 8.25 L 150.41 8.25 L 150.41 9.63 L 149.68 9.63 L 149.68 8.71 L 147.32 8.71 L 147.32 10.36 L 146.58 10.36 L 146.58 8.71 L 144.24 8.71 L 144.24 9.63 L 143.53 9.63 L 143.53 8.25 L 146.58 8.25 L 146.58 7.87 L 144.03 7.87 Z M 145.07 11.36 L 149.84 11.36 L 149.84 11.83 L 145.07 11.83 Z M 147.66 9.79 L 149.59 9.79 L 149.59 10.20 L 147.66 10.20 Z M 144.36 9.79 L 146.25 9.79 L 146.25 10.20 L 144.36 10.20 Z M 147.66 9.06 L 149.40 9.06 L 149.40 9.47 L 147.66 9.47 Z M 144.53 9.06 L 146.25 9.06 L 146.25 9.47 L 144.53 9.47 Z M 149.53 12.67 L 147.76 12.67 Q 147.97 12.91 148.28 13.09 Q 148.41 13.18 148.57 13.25 Q 148.68 13.19 148.81 13.12 Q 149.02 12.99 149.22 12.87 Q 149.40 12.76 149.53 12.67 Z M 153.80 9.03 L 155.61 9.03 L 155.61 8.47 L 153.52 8.47 L 153.52 7.83 L 155.61 7.83 L 155.61 7.07 L 156.34 7.07 L 156.34 7.83 L 158.54 7.83 L 158.54 8.47 L 156.34 8.47 L 156.34 9.03 L 158.22 9.03 L 158.22 11.10 L 156.58 11.10 Q 156.80 11.24 157.03 11.40 Q 157.46 11.68 158.22 12.27 Q 158.22 12.27 158.46 12.51 L 157.98 13.03 Q 157.77 12.78 157.03 12.17 Q 157.03 12.17 156.61 11.87 Q 156.47 11.77 156.34 11.68 L 156.34 13.34 L 155.61 13.34 L 155.61 11.66 Q 155.51 11.78 155.41 11.91 Q 155.07 12.30 154.28 12.95 Q 154.28 12.95 153.87 13.15 Q 153.82 13.06 153.65 12.85 Q 153.65 12.85 153.47 12.65 Q 153.47 12.65 153.39 12.58 Q 153.78 12.41 154.56 11.88 Q 154.56 11.88 154.88 11.55 Q 155.11 11.33 155.28 11.10 L 153.80 11.10 Z M 153.14 9.92 L 153.14 12.96 Q 153.19 12.98 153.23 13.01 Q 153.42 13.15 153.77 13.32 Q 154.16 13.53 155.21 13.66 Q 155.21 13.66 155.85 13.66 Q 156.29 13.66 157.32 13.62 Q 157.32 13.62 158.32 13.54 Q 158.32 13.54 158.71 13.51 Q 158.67 13.60 158.58 13.87 Q 158.58 13.87 158.51 14.15 Q 158.51 14.15 158.50 14.25 Q 158.29 14.27 157.63 14.29 Q 157.63 14.29 156.86 14.31 Q 156.86 14.31 156.12 14.33 Q 156.12 14.33 155.84 14.33 Q 155.12 14.33 154.05 14.17 Q 154.05 14.17 153.62 13.94 Q 153.36 13.79 152.96 13.52 Q 152.96 13.52 152.81 13.52 Q 152.68 13.52 152.32 13.78 Q 152.32 13.78 151.92 14.20 Q 151.92 14.20 151.71 14.44 L 151.25 13.79 Q 151.67 13.40 152.09 13.14 Q 152.26 13.03 152.42 12.96 L 152.42 10.62 L 151.32 10.62 L 151.32 9.92 Z M 151.44 7.76 L 152.01 7.35 Q 152.24 7.54 152.73 8.03 Q 152.73 8.03 153.15 8.49 Q 153.15 8.49 153.28 8.67 L 152.68 9.14 Q 152.56 8.95 152.14 8.47 Q 152.14 8.47 151.66 7.96 Q 151.66 7.96 151.44 7.76 Z M 156.34 9.63 L 156.34 10.51 L 157.48 10.51 L 157.48 9.63 Z M 154.50 9.63 L 154.50 10.51 L 155.61 10.51 L 155.61 9.63 Z" xml:space="preserve" style="font-weight:613;font-size:8px;line-height:1.2;font-family:'Dream Han Sans SC';-inkscape-font-specification:'Dream Han Sans SC weight=613';text-align:start;writing-mode:lr-tb;direction:ltr;text-anchor:start;fill:#ffffff" id="text76" data-original-text="预先显示填色地图，以便在发布紧急地震速" data-original-element="text"/>
  <path d="M 10.84 19.65 L 11.03 19.65 Q 10.98 19.62 10.93 19.58 Q 10.81 19.50 10.72 19.45 Q 10.94 19.27 11.13 19.04 L 9.81 19.04 Q 9.84 19.11 9.87 19.19 Q 10.02 19.47 10.07 19.67 L 9.42 19.93 Q 9.37 19.72 9.24 19.43 Q 9.15 19.22 9.06 19.04 L 8.84 19.04 Q 8.83 19.06 8.81 19.07 Q 8.46 19.63 8.08 20.00 Q 8.02 19.94 7.78 19.78 Q 7.78 19.78 7.54 19.63 Q 7.54 19.63 7.45 19.58 Q 7.83 19.24 8.50 18.26 Q 8.50 18.26 8.70 17.74 L 9.42 17.93 Q 9.32 18.18 9.20 18.42 L 11.15 18.42 L 11.15 19.03 Q 11.28 18.87 11.40 18.69 Q 11.71 18.23 11.88 17.74 L 12.61 17.91 Q 12.51 18.17 12.39 18.42 L 14.83 18.42 L 14.83 19.04 L 13.29 19.04 Q 13.33 19.10 13.38 19.18 Q 13.58 19.46 13.67 19.68 L 13.02 19.95 Q 12.94 19.74 12.75 19.44 Q 12.62 19.23 12.48 19.04 L 12.03 19.04 Q 11.81 19.38 11.58 19.65 L 11.62 19.65 L 11.62 20.13 L 14.14 20.13 L 14.14 20.76 L 11.62 20.76 L 11.62 21.36 L 14.90 21.36 L 14.90 22.02 L 13.23 22.02 L 13.23 22.62 L 14.67 22.62 L 14.67 23.27 L 13.23 23.27 L 13.23 24.38 Q 13.23 24.67 13.06 25.00 Q 13.06 25.00 12.83 25.09 Q 12.61 25.17 11.93 25.21 Q 11.93 25.21 11.46 25.21 Q 11.42 25.04 11.26 24.64 Q 11.26 24.64 11.18 24.50 Q 11.42 24.51 11.87 24.51 Q 11.87 24.51 12.21 24.51 Q 12.21 24.51 12.28 24.51 Q 12.38 24.51 12.45 24.44 Q 12.45 24.44 12.45 24.36 L 12.45 23.27 L 9.68 23.27 Q 9.87 23.39 10.05 23.55 Q 10.30 23.74 10.74 24.17 Q 10.74 24.17 10.87 24.35 L 10.29 24.83 Q 10.17 24.65 9.74 24.21 Q 9.74 24.21 9.24 23.78 Q 9.24 23.78 8.99 23.61 L 9.42 23.27 L 7.88 23.27 L 7.88 22.62 L 12.45 22.62 L 12.45 22.02 L 7.61 22.02 L 7.61 21.36 L 10.84 21.36 L 10.84 20.76 L 8.41 20.76 L 8.41 20.13 L 10.84 20.13 Z M 18.25 21.31 L 22.35 21.31 L 22.35 24.43 Q 22.35 24.69 22.21 25.00 Q 22.21 25.00 22.03 25.08 Q 21.83 25.16 21.26 25.19 Q 21.26 25.19 20.83 25.19 Q 20.81 25.05 20.69 24.68 Q 20.69 24.68 20.62 24.55 Q 20.90 24.55 21.40 24.56 Q 21.40 24.56 21.48 24.55 Q 21.62 24.55 21.62 24.42 L 21.62 23.98 L 18.94 23.98 L 18.94 25.21 L 18.25 25.21 Z M 17.93 18.38 L 19.91 18.38 L 19.91 17.78 L 20.65 17.78 L 20.65 18.38 L 22.70 18.38 L 22.70 18.93 L 20.65 18.93 L 20.65 19.36 L 22.49 19.36 L 22.49 19.89 L 20.65 19.89 L 20.65 20.35 L 22.94 20.35 L 22.94 20.91 L 17.69 20.91 L 17.69 20.35 L 19.91 20.35 L 19.91 19.89 L 18.14 19.89 L 18.14 19.36 L 19.91 19.36 L 19.91 18.93 L 17.93 18.93 Z M 16.42 17.78 L 17.11 17.78 L 17.11 19.11 L 17.58 18.92 Q 17.71 19.19 17.97 19.84 Q 17.97 19.84 18.04 20.06 L 17.53 20.31 Q 17.47 20.08 17.35 19.74 Q 17.23 19.42 17.11 19.16 L 17.11 25.20 L 16.42 25.20 Z M 21.62 22.93 L 18.94 22.93 L 18.94 23.43 L 21.62 23.43 Z M 21.62 21.88 L 18.94 21.88 L 18.94 22.38 L 21.62 22.38 Z M 15.77 19.35 L 16.32 19.42 Q 16.31 19.74 16.22 20.53 Q 16.22 20.53 16.08 21.31 Q 16.08 21.31 15.99 21.62 L 15.42 21.42 Q 15.51 21.15 15.65 20.42 Q 15.65 20.42 15.75 19.67 Q 15.75 19.67 15.77 19.35 Z M 26.14 18.17 L 30.46 18.17 L 30.46 21.57 L 29.30 21.57 L 29.30 24.14 Q 29.30 24.31 29.39 24.42 Q 29.39 24.42 29.54 24.42 L 30.10 24.42 Q 30.21 24.42 30.30 24.25 Q 30.30 24.25 30.35 23.73 Q 30.35 23.73 30.36 23.20 Q 30.44 23.26 30.67 23.38 Q 30.67 23.38 30.93 23.47 Q 30.93 23.47 31.03 23.50 Q 30.99 24.13 30.83 24.83 Q 30.83 24.83 30.48 25.10 Q 30.48 25.10 30.18 25.10 L 29.42 25.10 Q 29.09 25.10 28.71 24.93 Q 28.71 24.93 28.58 24.51 Q 28.58 24.51 28.58 24.14 L 28.58 21.57 L 27.75 21.57 Q 27.71 22.16 27.63 22.67 Q 27.54 23.26 27.10 24.21 Q 27.10 24.21 26.28 24.95 Q 26.28 24.95 25.62 25.22 Q 25.55 25.07 25.28 24.72 Q 25.28 24.72 25.16 24.62 Q 25.75 24.40 26.46 23.78 Q 26.46 23.78 26.83 22.98 Q 26.83 22.98 26.90 22.48 Q 26.96 22.06 26.99 21.57 L 26.14 21.57 Z M 26.87 18.89 L 26.87 20.85 L 29.69 20.85 L 29.69 18.89 Z M 23.53 23.74 Q 23.75 23.43 24.30 22.59 Q 24.30 22.59 24.89 21.65 Q 24.89 21.65 25.14 21.20 L 25.63 21.73 Q 25.41 22.15 24.90 23.04 Q 24.90 23.04 24.37 23.90 Q 24.37 23.90 24.11 24.28 Z M 23.75 18.74 L 24.27 18.24 Q 24.53 18.42 25.06 18.90 Q 25.06 18.90 25.52 19.37 Q 25.52 19.37 25.65 19.57 L 25.10 20.14 Q 24.97 19.94 24.54 19.44 Q 24.54 19.44 24.01 18.94 Q 24.01 18.94 23.75 18.74 Z M 31.84 18.43 L 34.45 18.43 L 34.45 23.73 L 32.55 23.73 L 32.55 24.37 L 31.84 24.37 Z M 34.78 19.33 L 37.30 19.33 L 37.30 17.83 L 38.06 17.83 L 38.06 19.33 L 38.97 19.33 L 38.97 20.08 L 38.06 20.08 L 38.06 24.15 Q 38.06 24.51 37.87 24.88 Q 37.87 24.88 37.62 24.98 Q 37.39 25.06 36.57 25.11 Q 36.57 25.11 35.97 25.11 Q 35.94 24.95 35.78 24.51 Q 35.78 24.51 35.70 24.35 Q 36.00 24.35 36.56 24.37 Q 36.56 24.37 36.97 24.36 Q 36.97 24.36 37.06 24.36 Q 37.19 24.35 37.30 24.26 Q 37.30 24.26 37.30 24.14 L 37.30 20.08 L 34.78 20.08 Z M 32.55 21.38 L 32.55 23.05 L 33.74 23.05 L 33.74 21.38 Z M 32.55 19.11 L 32.55 20.71 L 33.74 20.71 L 33.74 19.11 Z M 34.97 21.00 L 35.60 20.67 Q 35.81 20.96 36.28 21.64 Q 36.28 21.64 36.71 22.28 Q 36.71 22.28 36.83 22.52 L 36.17 22.91 Q 36.04 22.67 35.64 22.00 Q 35.64 22.00 35.19 21.31 Q 35.19 21.31 34.97 21.00 Z M 40.62 25.50 L 40.42 24.98 Q 40.91 24.80 41.18 24.50 Q 41.40 24.24 41.43 23.90 Q 41.38 23.90 41.31 23.90 Q 41.05 23.90 40.65 23.58 Q 40.65 23.58 40.65 23.27 Q 40.65 22.96 41.06 22.63 Q 41.06 22.63 41.33 22.63 Q 41.71 22.63 42.10 23.18 Q 42.10 23.18 42.10 23.63 Q 42.10 24.29 41.30 25.28 Q 41.30 25.28 40.62 25.50 Z M 50.37 19.96 L 50.94 19.96 Q 50.89 19.78 50.80 19.52 Q 50.70 19.24 50.59 19.01 L 51.18 18.85 Q 51.28 19.07 51.50 19.62 Q 51.50 19.62 51.55 19.80 L 51.09 19.96 L 53.21 19.96 Q 53.31 19.80 53.42 19.61 Q 53.56 19.36 53.81 18.85 Q 53.81 18.85 53.90 18.63 L 54.61 18.85 Q 54.39 19.22 54.14 19.59 Q 54.02 19.80 53.90 19.96 L 54.78 19.96 L 54.78 20.56 L 52.03 20.56 Q 52.00 20.82 51.97 21.09 L 54.87 21.09 L 54.87 21.71 L 51.89 21.71 Q 51.85 21.93 51.80 22.15 L 53.88 22.15 L 54.01 22.14 L 54.42 22.31 Q 54.18 23.16 53.71 23.74 Q 53.56 23.91 53.40 24.06 Q 53.53 24.13 53.67 24.19 Q 54.31 24.47 55.09 24.60 Q 54.97 24.71 54.71 25.08 Q 54.71 25.08 54.63 25.22 Q 53.61 25.01 52.83 24.53 Q 52.71 24.61 52.59 24.67 Q 51.94 25.03 51.18 25.22 Q 51.14 25.15 50.99 24.93 Q 50.99 24.93 50.83 24.72 Q 50.83 24.72 50.77 24.67 Q 51.50 24.51 52.10 24.21 Q 52.18 24.17 52.26 24.12 Q 51.81 23.75 51.47 23.27 Q 51.44 23.37 51.40 23.47 Q 51.19 23.97 50.51 24.84 Q 50.51 24.84 50.02 25.19 Q 49.94 25.06 49.67 24.75 Q 49.67 24.75 49.53 24.66 Q 49.98 24.36 50.58 23.57 Q 50.58 23.57 50.97 22.66 Q 50.97 22.66 51.07 22.18 Q 51.12 21.94 51.16 21.71 L 50.06 21.71 L 50.06 21.09 L 51.25 21.09 Q 51.27 20.82 51.30 20.56 L 50.37 20.56 Z M 47.75 23.11 Q 47.74 23.04 47.65 22.80 Q 47.65 22.80 47.57 22.54 Q 47.57 22.54 47.52 22.44 Q 47.67 22.42 47.95 22.15 Q 47.95 22.15 48.14 21.92 Q 48.24 21.82 48.62 21.33 Q 48.62 21.33 48.85 20.99 Q 48.86 20.99 48.87 20.98 Q 48.73 20.99 48.62 21.00 Q 48.30 21.04 47.94 21.10 Q 47.94 21.10 47.74 21.15 Q 47.74 21.15 47.70 21.18 Q 47.68 21.10 47.59 20.84 Q 47.59 20.84 47.49 20.56 Q 47.49 20.56 47.45 20.47 Q 47.56 20.44 47.78 20.19 Q 47.78 20.19 47.90 19.99 Q 47.97 19.89 48.22 19.44 Q 48.22 19.44 48.52 18.83 Q 48.52 18.83 48.81 18.13 Q 48.81 18.13 48.94 17.78 L 49.67 18.06 Q 49.47 18.55 48.97 19.53 Q 48.97 19.53 48.71 19.98 Q 48.58 20.19 48.44 20.38 L 49.29 20.31 Q 49.30 20.29 49.32 20.26 Q 49.56 19.87 49.75 19.47 L 50.38 19.85 Q 49.92 20.64 49.36 21.40 Q 49.06 21.80 48.77 22.14 L 50.18 21.89 Q 50.17 22.03 50.18 22.41 Q 50.18 22.41 50.19 22.53 Q 49.46 22.68 48.55 22.87 Q 48.55 22.87 48.06 22.99 Q 48.06 22.99 47.83 23.07 Q 47.83 23.07 47.75 23.11 Z M 54.27 17.83 L 54.71 18.39 Q 54.28 18.48 53.23 18.63 Q 53.23 18.63 52.09 18.72 Q 52.09 18.72 50.94 18.78 Q 50.94 18.78 50.41 18.80 Q 50.39 18.67 50.29 18.34 Q 50.29 18.34 50.23 18.22 Q 50.76 18.20 51.87 18.14 Q 51.87 18.14 52.96 18.03 Q 52.96 18.03 53.91 17.91 Q 53.91 17.91 54.27 17.83 Z M 47.49 24.06 Q 47.81 23.97 48.65 23.71 Q 48.65 23.71 49.62 23.39 Q 49.62 23.39 50.11 23.23 L 50.23 23.83 Q 49.56 24.09 48.20 24.60 Q 48.20 24.60 47.65 24.81 Z M 52.83 23.73 Q 52.98 23.59 53.12 23.43 Q 53.39 23.13 53.58 22.72 L 51.87 22.72 Q 52.13 23.15 52.54 23.50 Q 52.67 23.62 52.83 23.73 Z M 52.01 18.85 L 52.60 18.74 Q 52.68 18.99 52.81 19.57 Q 52.81 19.57 52.84 19.77 L 52.21 19.91 Q 52.19 19.71 52.07 19.10 Q 52.07 19.10 52.01 18.85 Z M 56.68 17.78 L 57.35 17.92 Q 57.27 18.22 57.18 18.51 L 58.19 18.51 L 58.29 18.48 L 58.74 18.76 Q 58.65 19.01 58.41 19.56 Q 58.41 19.56 58.27 19.82 Q 58.27 19.82 58.26 19.83 L 59.06 19.83 L 59.06 24.40 Q 59.06 24.62 58.96 24.91 Q 58.96 24.91 58.83 25.00 Q 58.69 25.09 58.30 25.13 Q 58.30 25.13 58.01 25.13 Q 57.99 24.99 57.94 24.80 Q 57.89 24.63 57.83 24.50 L 57.83 24.75 L 57.30 24.75 L 57.30 23.32 L 56.63 23.32 Q 56.61 23.48 56.58 23.63 Q 56.51 24.07 56.25 24.90 Q 56.25 24.90 56.03 25.23 Q 55.97 25.18 55.77 25.04 Q 55.77 25.04 55.56 24.91 Q 55.56 24.91 55.48 24.89 Q 55.75 24.47 56.00 23.44 Q 56.00 23.44 56.07 22.40 Q 56.07 22.40 56.07 21.95 L 56.07 20.65 Q 56.04 20.70 56.00 20.74 Q 55.94 20.68 55.74 20.51 Q 55.74 20.51 55.53 20.35 Q 55.53 20.35 55.45 20.30 Q 55.87 19.85 56.51 18.51 Q 56.51 18.51 56.68 17.78 Z M 59.34 23.09 L 60.92 23.09 L 60.92 22.22 L 60.09 22.22 Q 59.92 22.63 59.71 22.93 Q 59.65 22.88 59.44 22.77 Q 59.44 22.77 59.23 22.67 Q 59.23 22.67 59.15 22.63 Q 59.40 22.30 59.74 21.36 Q 59.74 21.36 59.84 20.87 L 60.46 20.99 Q 60.40 21.29 60.32 21.58 L 60.92 21.58 L 60.92 20.87 L 61.63 20.87 L 61.63 21.58 L 62.75 21.58 L 62.75 22.22 L 61.63 22.22 L 61.63 23.09 L 62.94 23.09 L 62.94 23.74 L 61.63 23.74 L 61.63 25.20 L 60.92 25.20 L 60.92 23.74 L 59.34 23.74 Z M 59.30 18.19 L 62.74 18.19 L 62.74 18.29 Q 62.74 18.38 62.73 18.45 Q 62.71 19.10 62.64 19.94 Q 62.64 19.94 62.53 20.39 Q 62.53 20.39 62.44 20.50 Q 62.35 20.60 62.14 20.71 Q 62.14 20.71 61.97 20.72 Q 61.85 20.74 61.40 20.74 Q 61.40 20.74 61.15 20.73 Q 61.14 20.58 61.06 20.23 Q 61.06 20.23 60.98 20.10 Q 61.20 20.13 61.56 20.14 Q 61.56 20.14 61.64 20.14 Q 61.72 20.15 61.83 20.11 Q 61.83 20.11 61.87 20.06 Q 61.91 20.00 61.99 19.63 Q 61.99 19.63 62.02 19.26 Q 62.03 19.07 62.05 18.82 L 60.99 18.82 Q 60.94 19.15 60.85 19.44 Q 60.70 19.93 60.07 20.70 Q 60.07 20.70 59.51 20.95 Q 59.46 20.83 59.22 20.52 Q 59.22 20.52 59.10 20.43 Q 59.58 20.22 60.09 19.61 Q 60.09 19.61 60.21 19.22 Q 60.26 19.03 60.30 18.82 L 59.30 18.82 Z M 58.43 23.32 L 57.83 23.32 L 57.83 24.49 Q 58.00 24.50 58.14 24.50 Q 58.28 24.50 58.33 24.50 Q 58.43 24.50 58.43 24.38 Z M 56.61 19.83 L 57.59 19.83 Q 57.65 19.70 57.72 19.55 Q 57.81 19.32 57.90 19.10 L 56.95 19.10 Q 56.79 19.48 56.61 19.83 Z M 57.83 22.75 L 58.43 22.75 L 58.43 21.80 L 57.83 21.80 Z M 56.71 21.80 L 56.71 21.96 Q 56.71 22.32 56.68 22.75 L 57.30 22.75 L 57.30 21.80 Z M 58.43 21.25 L 58.43 20.39 L 57.83 20.39 L 57.83 21.25 Z M 56.71 20.39 L 56.71 21.25 L 57.30 21.25 L 57.30 20.39 Z M 63.87 18.09 L 70.64 18.09 L 70.64 25.20 L 69.90 25.20 L 69.90 24.83 L 64.57 24.83 L 64.57 25.20 L 63.87 25.20 Z M 69.90 24.19 L 69.90 18.77 L 64.57 18.77 L 64.57 24.19 Z M 65.00 20.29 L 66.87 20.29 Q 66.92 19.72 66.94 19.09 L 67.67 19.09 Q 67.65 19.71 67.61 20.29 L 69.48 20.29 L 69.48 20.97 L 67.53 20.97 Q 67.51 21.16 67.46 21.35 Q 67.83 21.64 68.19 21.99 Q 68.60 22.38 69.30 23.14 Q 69.30 23.14 69.51 23.43 L 68.97 23.89 Q 68.81 23.67 68.35 23.10 Q 68.35 23.10 67.77 22.50 Q 67.77 22.50 67.46 22.20 Q 67.38 22.11 67.28 22.03 Q 67.27 22.04 67.26 22.06 Q 67.05 22.67 66.18 23.65 Q 66.18 23.65 65.43 23.99 Q 65.39 23.89 65.23 23.67 Q 65.23 23.67 65.06 23.45 Q 65.06 23.45 64.97 23.38 Q 65.64 23.10 66.42 22.25 Q 66.42 22.25 66.61 21.71 Q 66.73 21.36 66.79 20.97 L 65.00 20.97 Z M 71.87 18.11 L 78.62 18.11 L 78.62 25.22 L 77.87 25.22 L 77.87 24.90 L 72.60 24.90 L 72.60 25.22 L 71.87 25.22 Z M 77.87 24.22 L 77.87 18.80 L 72.60 18.80 L 72.60 24.22 Z M 74.53 18.88 L 75.15 19.09 Q 75.01 19.31 74.85 19.51 L 76.78 19.51 L 76.90 19.48 L 77.32 19.74 Q 77.01 20.23 76.53 20.64 Q 76.24 20.88 75.92 21.10 Q 76.17 21.20 76.42 21.29 Q 77.11 21.53 77.83 21.66 Q 77.72 21.75 77.47 22.09 Q 77.47 22.09 77.40 22.22 Q 76.68 22.06 75.98 21.78 Q 75.62 21.63 75.30 21.47 Q 74.78 21.73 74.24 21.93 Q 73.61 22.17 72.98 22.32 Q 72.95 22.22 72.84 21.99 Q 72.84 21.99 72.71 21.77 Q 72.71 21.77 72.64 21.71 Q 73.23 21.58 73.84 21.39 Q 74.26 21.26 74.65 21.08 Q 74.23 20.80 73.91 20.47 Q 73.60 20.74 73.29 20.95 Q 73.23 20.89 73.05 20.72 Q 73.05 20.72 72.85 20.55 Q 72.85 20.55 72.78 20.51 Q 73.28 20.21 74.23 19.35 Q 74.23 19.35 74.53 18.88 Z M 73.41 23.37 L 73.76 22.87 Q 74.16 22.90 75.06 23.06 Q 75.06 23.06 75.93 23.25 Q 75.93 23.25 76.71 23.45 Q 76.71 23.45 77.01 23.55 L 76.67 24.10 Q 76.29 23.95 75.19 23.67 Q 75.19 23.67 73.97 23.43 Q 73.97 23.43 73.41 23.37 Z M 74.18 22.35 L 74.49 21.90 Q 74.81 21.97 75.55 22.17 Q 75.55 22.17 76.20 22.39 Q 76.20 22.39 76.43 22.51 L 76.12 22.99 Q 75.90 22.87 75.23 22.63 Q 75.23 22.63 74.51 22.42 Q 74.51 22.42 74.18 22.35 Z M 75.27 20.78 Q 75.65 20.57 75.97 20.33 Q 76.13 20.21 76.26 20.09 L 74.34 20.09 Q 74.67 20.43 75.18 20.72 Q 75.22 20.75 75.27 20.78 Z M 86.10 21.54 L 86.60 22.01 Q 86.31 22.19 85.99 22.36 Q 85.88 22.42 85.77 22.47 Q 85.87 22.77 86.02 23.04 Q 86.21 23.42 86.73 24.01 Q 86.73 24.01 87.04 24.19 Q 86.92 24.28 86.64 24.62 Q 86.64 24.62 86.56 24.75 Q 86.04 24.41 85.68 23.78 Q 85.40 23.29 85.22 22.74 Q 85.04 22.82 84.88 22.89 Q 84.88 22.89 84.88 22.89 Q 85.00 23.31 85.02 24.10 Q 85.02 24.10 84.85 24.73 Q 84.85 24.73 84.68 24.90 Q 84.52 25.08 84.17 25.20 Q 84.17 25.20 83.94 25.21 Q 83.72 25.22 83.45 25.19 Q 83.44 25.06 83.36 24.69 Q 83.36 24.69 83.27 24.55 Q 83.43 24.56 83.70 24.58 Q 83.70 24.58 83.79 24.58 Q 83.91 24.58 84.08 24.52 Q 84.08 24.52 84.15 24.42 Q 84.26 24.31 84.35 23.85 Q 84.35 23.85 84.33 23.55 Q 84.33 23.54 84.33 23.53 Q 84.17 23.67 83.98 23.80 Q 83.50 24.15 82.42 24.72 Q 82.42 24.72 81.91 24.90 Q 81.83 24.78 81.58 24.47 Q 81.58 24.47 81.47 24.37 Q 81.98 24.22 83.05 23.74 Q 83.05 23.74 83.51 23.44 Q 83.92 23.18 84.21 22.90 Q 84.14 22.71 84.06 22.53 Q 83.87 22.69 83.63 22.84 Q 83.23 23.11 82.36 23.57 Q 82.36 23.57 81.97 23.71 Q 81.90 23.60 81.65 23.32 Q 81.65 23.32 81.56 23.23 Q 81.95 23.12 82.81 22.75 Q 82.81 22.75 83.19 22.53 Q 83.55 22.32 83.79 22.10 Q 83.68 21.95 83.53 21.82 Q 83.36 21.93 83.17 22.04 Q 82.68 22.34 81.94 22.57 Q 81.87 22.47 81.63 22.20 Q 81.63 22.20 81.52 22.10 Q 82.21 21.90 82.67 21.64 Q 83.01 21.46 83.24 21.26 L 82.10 21.26 L 82.10 20.07 Q 81.94 20.21 81.76 20.35 Q 81.71 20.27 81.55 20.08 Q 81.55 20.08 81.36 19.91 Q 81.36 19.91 81.28 19.87 Q 81.71 19.56 82.40 18.85 Q 82.40 18.85 82.92 18.12 Q 82.92 18.12 83.08 17.80 L 83.80 17.92 Q 83.68 18.14 83.55 18.35 L 84.90 18.35 L 85.05 18.31 L 85.48 18.64 Q 85.26 18.99 84.97 19.35 Q 84.92 19.42 84.87 19.47 L 86.46 19.47 L 86.46 21.26 L 84.12 21.26 Q 84.05 21.35 83.97 21.44 Q 83.96 21.44 83.96 21.45 Q 84.30 21.72 84.51 22.07 Q 84.61 22.22 84.69 22.38 Q 84.81 22.32 84.94 22.26 Q 85.26 22.08 85.88 21.70 Q 85.88 21.70 86.10 21.54 Z M 81.24 17.82 L 81.95 18.03 Q 81.71 18.71 81.38 19.38 Q 81.27 19.59 81.16 19.80 L 81.16 25.19 L 80.44 25.19 L 80.44 20.96 Q 80.15 21.36 79.85 21.70 Q 79.81 21.60 79.67 21.31 Q 79.67 21.31 79.50 21.02 Q 79.50 21.02 79.42 20.93 Q 79.79 20.55 80.46 19.55 Q 80.46 19.55 81.03 18.40 Q 81.03 18.40 81.24 17.82 Z M 84.64 20.03 Q 84.62 20.12 84.61 20.22 Q 84.57 20.45 84.46 20.71 L 85.77 20.71 L 85.77 20.03 Z M 82.78 20.03 L 82.78 20.71 L 83.75 20.71 Q 83.79 20.64 83.83 20.58 Q 83.97 20.32 84.01 20.10 Q 84.02 20.06 84.03 20.03 Z M 84.09 19.47 Q 84.19 19.36 84.29 19.22 Q 84.40 19.08 84.50 18.93 L 83.15 18.93 Q 83.06 19.06 82.96 19.18 Q 82.84 19.33 82.71 19.47 Z M 87.90 18.19 L 94.60 18.19 L 94.60 24.31 Q 94.60 24.62 94.43 24.99 Q 94.43 24.99 94.23 25.07 Q 94.03 25.17 93.37 25.22 Q 93.37 25.22 92.86 25.22 Q 92.84 25.11 92.76 24.84 Q 92.76 24.84 92.65 24.58 Q 92.65 24.58 92.59 24.47 Q 92.94 24.49 93.56 24.49 Q 93.56 24.49 93.67 24.49 Q 93.77 24.48 93.86 24.39 Q 93.86 24.39 93.86 24.30 L 93.86 18.90 L 88.63 18.90 L 88.63 25.22 L 87.90 25.22 Z M 89.62 21.01 L 92.87 21.01 L 92.87 23.62 L 90.32 23.62 L 90.32 24.18 L 89.62 24.18 Z M 89.22 19.62 L 93.27 19.62 L 93.27 20.26 L 89.22 20.26 Z M 90.32 21.63 L 90.32 22.98 L 92.17 22.98 L 92.17 21.63 Z M 95.84 18.43 L 98.45 18.43 L 98.45 23.73 L 96.55 23.73 L 96.55 24.37 L 95.84 24.37 Z M 98.78 19.33 L 101.30 19.33 L 101.30 17.83 L 102.06 17.83 L 102.06 19.33 L 102.97 19.33 L 102.97 20.08 L 102.06 20.08 L 102.06 24.15 Q 102.06 24.51 101.87 24.88 Q 101.87 24.88 101.62 24.98 Q 101.39 25.06 100.57 25.11 Q 100.57 25.11 99.97 25.11 Q 99.94 24.95 99.78 24.51 Q 99.78 24.51 99.70 24.35 Q 100.00 24.35 100.56 24.37 Q 100.56 24.37 100.97 24.36 Q 100.97 24.36 101.06 24.36 Q 101.19 24.35 101.30 24.26 Q 101.30 24.26 101.30 24.14 L 101.30 20.08 L 98.78 20.08 Z M 96.55 21.38 L 96.55 23.05 L 97.74 23.05 L 97.74 21.38 Z M 96.55 19.11 L 96.55 20.71 L 97.74 20.71 L 97.74 19.11 Z M 98.97 21.00 L 99.60 20.67 Q 99.81 20.96 100.28 21.64 Q 100.28 21.64 100.71 22.28 Q 100.71 22.28 100.83 22.52 L 100.17 22.91 Q 100.04 22.67 99.64 22.00 Q 99.64 22.00 99.19 21.31 Q 99.19 21.31 98.97 21.00 Z M 106.57 18.44 L 110.79 18.44 L 110.79 18.52 Q 110.79 18.60 110.79 18.78 Q 110.79 18.78 110.78 18.84 Q 110.74 20.36 110.67 22.46 Q 110.67 22.46 110.55 23.80 Q 110.55 23.80 110.39 24.53 Q 110.39 24.53 110.27 24.69 Q 110.13 24.90 109.83 25.06 Q 109.83 25.06 109.61 25.10 Q 109.40 25.13 108.78 25.12 Q 108.78 25.12 108.46 25.10 Q 108.46 24.94 108.33 24.50 Q 108.33 24.50 108.22 24.34 Q 108.56 24.36 109.12 24.38 Q 109.12 24.38 109.26 24.38 Q 109.37 24.38 109.51 24.32 Q 109.51 24.32 109.57 24.23 Q 109.67 24.11 109.81 23.42 Q 109.81 23.42 109.91 22.10 Q 109.91 22.10 109.95 21.09 Q 109.98 20.26 110.01 19.16 L 108.55 19.16 Q 108.53 19.76 108.51 20.34 Q 108.46 21.10 108.22 22.53 Q 108.22 22.53 107.74 23.78 Q 107.74 23.78 106.90 24.83 Q 106.90 24.83 106.26 25.22 Q 106.18 25.07 105.87 24.72 Q 105.87 24.72 105.72 24.62 Q 106.32 24.27 107.09 23.34 Q 107.09 23.34 107.53 22.20 Q 107.53 22.20 107.73 20.91 Q 107.73 20.91 107.76 20.21 Q 107.78 19.70 107.79 19.16 L 106.57 19.16 Z M 103.43 20.27 L 104.45 20.06 L 104.45 18.10 L 105.18 18.10 L 105.18 19.92 L 106.60 19.63 L 106.73 20.31 L 105.18 20.63 L 105.18 22.87 L 106.64 22.25 Q 106.65 22.40 106.73 22.80 Q 106.73 22.80 106.76 22.91 Q 106.05 23.23 105.19 23.64 Q 105.19 23.64 104.71 23.89 Q 104.71 23.89 104.47 24.03 Q 104.47 24.03 104.41 24.10 Q 104.39 24.00 104.26 23.74 Q 104.26 23.74 104.12 23.51 Q 104.12 23.51 104.06 23.42 Q 104.19 23.35 104.45 23.05 Q 104.45 23.05 104.45 22.80 L 104.45 20.78 L 103.56 20.97 Z M 115.50 17.78 L 116.26 17.92 Q 116.13 18.20 115.97 18.48 L 117.58 18.48 L 117.70 18.44 L 118.20 18.78 Q 118.04 19.05 117.83 19.34 Q 117.64 19.58 117.44 19.82 L 118.38 19.82 L 118.38 22.19 L 118.89 22.19 L 118.89 22.83 L 116.84 22.83 Q 117.03 23.15 117.28 23.44 Q 117.63 23.83 118.54 24.41 Q 118.54 24.41 119.05 24.58 Q 118.93 24.69 118.65 25.04 Q 118.65 25.04 118.58 25.18 Q 118.03 24.96 117.10 24.26 Q 117.10 24.26 116.73 23.80 Q 116.52 23.53 116.35 23.24 Q 116.23 23.45 116.08 23.66 Q 115.77 24.07 114.75 24.87 Q 114.75 24.87 113.99 25.22 Q 113.91 25.10 113.62 24.80 Q 113.62 24.80 113.48 24.69 Q 114.22 24.38 115.18 23.68 Q 115.18 23.68 115.46 23.31 Q 115.64 23.07 115.76 22.83 L 113.92 22.83 L 113.92 22.19 L 114.47 22.19 L 114.47 20.37 Q 114.44 20.39 114.41 20.42 Q 114.36 20.33 114.19 20.12 Q 114.19 20.12 114.00 19.93 Q 114.00 19.93 113.92 19.87 Q 114.30 19.57 114.91 18.85 Q 114.91 18.85 115.36 18.11 Q 115.36 18.11 115.50 17.78 Z M 111.49 21.95 Q 111.90 21.85 112.47 21.69 L 112.47 20.06 L 111.58 20.06 L 111.58 19.35 L 112.47 19.35 L 112.47 17.80 L 113.21 17.80 L 113.21 19.35 L 113.92 19.35 L 113.92 20.06 L 113.21 20.06 L 113.21 21.48 Q 113.57 21.37 113.93 21.26 L 114.03 21.95 Q 113.62 22.08 113.21 22.21 L 113.21 24.31 Q 113.21 24.59 113.08 24.93 Q 113.08 24.93 112.92 25.02 Q 112.76 25.11 112.26 25.18 Q 112.26 25.18 111.90 25.17 Q 111.88 25.02 111.76 24.59 Q 111.76 24.59 111.69 24.43 Q 111.90 24.44 112.27 24.44 Q 112.27 24.44 112.35 24.44 Q 112.47 24.44 112.47 24.31 L 112.47 22.44 Q 112.04 22.57 111.67 22.68 Z M 115.99 22.19 Q 116.03 22.04 116.04 21.89 Q 116.07 21.55 116.07 21.27 L 116.07 20.40 L 115.19 20.40 L 115.19 22.19 Z M 117.62 22.19 L 117.62 20.40 L 116.81 20.40 L 116.81 21.28 Q 116.81 21.63 116.76 22.02 Q 116.75 22.10 116.74 22.19 Z M 116.58 19.82 Q 116.68 19.71 116.78 19.58 Q 116.96 19.35 117.12 19.11 L 115.58 19.11 Q 115.55 19.16 115.51 19.21 Q 115.30 19.52 115.03 19.82 Z M 120.04 19.94 L 122.43 19.94 Q 122.46 19.83 122.49 19.72 Q 122.57 19.41 122.64 19.08 Q 122.65 19.00 122.67 18.91 L 119.64 18.91 L 119.64 18.15 L 126.87 18.15 L 126.87 18.91 L 123.58 18.91 Q 123.48 19.22 123.38 19.55 Q 123.30 19.75 123.24 19.94 L 126.48 19.94 L 126.48 24.35 Q 126.48 24.63 126.35 24.96 Q 126.35 24.96 126.14 25.05 Q 125.94 25.14 125.34 25.18 Q 125.34 25.18 124.92 25.18 Q 124.90 25.03 124.75 24.62 Q 124.75 24.62 124.67 24.48 Q 124.97 24.49 125.48 24.49 Q 125.48 24.49 125.56 24.49 Q 125.65 24.48 125.72 24.42 Q 125.72 24.42 125.72 24.35 L 125.72 20.64 L 124.54 20.64 L 124.54 24.96 L 123.78 24.96 L 123.78 20.64 L 122.65 20.64 L 122.65 24.96 L 121.90 24.96 L 121.90 20.64 L 120.81 20.64 L 120.81 25.21 L 120.04 25.21 Z M 128.19 20.80 L 129.92 20.80 Q 129.84 20.58 129.67 20.29 Q 129.48 19.96 129.28 19.71 L 129.94 19.42 Q 130.14 19.67 130.55 20.31 Q 130.55 20.31 130.64 20.54 L 130.06 20.80 L 132.07 20.80 Q 132.18 20.63 132.28 20.41 Q 132.41 20.18 132.62 19.68 Q 132.62 19.68 132.69 19.47 L 133.53 19.74 Q 133.30 20.10 133.07 20.46 Q 132.95 20.64 132.85 20.80 L 134.70 20.80 L 134.70 21.54 L 128.97 21.54 L 128.97 21.91 Q 128.97 22.28 128.90 23.15 Q 128.90 23.15 128.72 24.07 Q 128.72 24.07 128.39 24.93 Q 128.39 24.93 128.11 25.29 Q 128.05 25.21 127.81 24.99 Q 127.81 24.99 127.57 24.80 Q 127.57 24.80 127.48 24.75 Q 127.80 24.33 128.10 23.32 Q 128.10 23.32 128.19 22.31 Q 128.19 22.31 128.19 21.90 Z M 128.10 18.69 L 131.00 18.69 Q 130.95 18.58 130.89 18.47 Q 130.73 18.19 130.57 17.96 L 131.34 17.76 Q 131.51 17.97 131.67 18.24 Q 131.81 18.50 131.90 18.69 L 134.51 18.69 L 134.51 19.41 L 128.10 19.41 Z M 136.56 21.64 L 138.87 21.64 L 138.87 20.03 L 137.06 20.03 Q 136.97 20.22 136.87 20.39 Q 136.58 20.90 136.26 21.28 Q 136.19 21.22 135.94 21.05 Q 135.94 21.05 135.69 20.88 Q 135.69 20.88 135.58 20.83 Q 135.91 20.48 136.46 19.55 Q 136.46 19.55 136.90 18.47 Q 136.90 18.47 137.04 17.90 L 137.83 18.07 Q 137.65 18.69 137.41 19.28 Q 137.40 19.29 137.40 19.30 L 138.87 19.30 L 138.87 17.78 L 139.65 17.78 L 139.65 19.30 L 142.46 19.30 L 142.46 20.03 L 139.65 20.03 L 139.65 21.64 L 142.16 21.64 L 142.16 22.37 L 139.65 22.37 L 139.65 24.22 L 142.85 24.22 L 142.85 24.96 L 135.67 24.96 L 135.67 24.22 L 138.87 24.22 L 138.87 22.37 L 136.56 22.37 Z M 143.89 19.07 L 144.79 19.07 Q 144.84 18.93 144.88 18.75 Q 144.94 18.50 145.05 17.99 Q 145.05 17.99 145.07 17.77 L 145.90 17.90 Q 145.77 18.29 145.62 18.68 Q 145.55 18.90 145.48 19.07 L 146.78 19.07 L 146.78 20.60 Q 147.03 20.26 147.25 19.83 Q 147.48 19.37 147.86 18.31 Q 147.86 18.31 147.98 17.77 L 148.71 17.94 Q 148.57 18.49 148.38 19.03 L 150.72 19.03 L 150.72 19.26 Q 150.72 19.35 150.72 19.39 Q 150.67 20.76 150.58 22.66 Q 150.58 22.66 150.46 23.87 Q 150.46 23.87 150.30 24.55 Q 150.30 24.55 150.18 24.70 Q 150.03 24.90 149.71 25.05 Q 149.71 25.05 149.47 25.08 Q 149.26 25.10 148.60 25.10 Q 148.60 25.10 148.26 25.08 Q 148.25 24.92 148.11 24.50 Q 148.11 24.50 148.00 24.35 Q 148.39 24.38 149.05 24.40 Q 149.05 24.40 149.20 24.40 Q 149.32 24.40 149.47 24.35 Q 149.47 24.35 149.55 24.26 Q 149.64 24.15 149.79 23.51 Q 149.79 23.51 149.90 22.31 Q 149.90 22.31 149.94 21.39 Q 149.97 20.67 150.00 19.73 L 148.10 19.73 Q 148.00 19.97 147.89 20.19 Q 147.64 20.70 147.36 21.08 Q 147.30 21.02 147.06 20.85 Q 147.06 20.85 146.94 20.77 Q 146.85 20.71 146.78 20.67 L 146.78 24.38 L 144.58 24.38 L 144.58 24.99 L 143.89 24.99 Z M 144.58 23.71 L 146.08 23.71 L 146.08 21.92 L 144.58 21.92 Z M 146.08 21.26 L 146.08 19.74 L 144.58 19.74 L 144.58 21.26 Z M 147.60 21.21 L 148.19 20.88 Q 148.41 21.15 148.88 21.82 Q 148.88 21.82 149.29 22.44 Q 149.29 22.44 149.42 22.68 L 148.78 23.08 Q 148.67 22.83 148.26 22.19 Q 148.26 22.19 147.81 21.51 Q 147.81 21.51 147.60 21.21 Z M 151.96 21.67 L 158.53 21.67 L 158.53 24.47 Q 158.53 24.73 158.39 24.99 Q 158.39 24.99 158.19 25.06 Q 158.00 25.12 157.43 25.15 Q 157.43 25.15 157.03 25.15 Q 157.00 25.02 156.87 24.71 Q 156.87 24.71 156.79 24.58 Q 156.96 24.59 157.31 24.60 Q 157.31 24.60 157.58 24.60 Q 157.58 24.60 157.62 24.60 Q 157.77 24.59 157.77 24.47 L 157.77 22.29 L 152.70 22.29 L 152.70 25.21 L 151.96 25.21 Z M 152.85 19.62 L 157.71 19.62 L 157.71 21.27 L 152.85 21.27 Z M 153.47 22.69 L 156.90 22.69 L 156.90 24.39 L 154.18 24.39 L 154.18 24.76 L 153.47 24.76 Z M 151.70 18.58 L 154.90 18.58 Q 154.89 18.55 154.88 18.51 Q 154.78 18.19 154.69 17.92 L 155.44 17.74 Q 155.55 17.99 155.67 18.31 Q 155.72 18.46 155.76 18.58 L 158.75 18.58 L 158.75 19.22 L 151.70 19.22 Z M 153.60 20.15 L 153.60 20.74 L 156.91 20.74 L 156.91 20.15 Z M 154.18 23.22 L 154.18 23.86 L 156.24 23.86 L 156.24 23.22 Z" xml:space="preserve" style="font-weight:613;font-size:8px;line-height:1.2;font-family:'Dream Han Sans SC';-inkscape-font-specification:'Dream Han Sans SC weight=613';text-align:start;writing-mode:lr-tb;direction:ltr;text-anchor:start;fill:#ffffff" id="text77" data-original-text="等情况时，缓解因图像同时切换而产生的高" data-original-element="text"/>
  <path d="M 9.38 29.18 L 10.21 29.33 Q 10.05 29.63 9.86 29.93 L 11.82 29.93 L 11.94 29.90 L 12.46 30.22 Q 12.31 30.53 12.09 30.86 Q 11.88 31.18 11.66 31.49 L 13.38 31.49 L 13.38 34.97 L 12.58 34.97 L 12.58 32.14 L 8.99 32.14 L 8.99 34.97 L 8.22 34.97 L 8.22 31.90 Q 7.93 32.16 7.63 32.39 Q 7.56 32.30 7.37 32.11 Q 7.37 32.11 7.15 31.92 Q 7.15 31.92 7.06 31.87 Q 7.63 31.48 8.52 30.57 Q 8.52 30.57 9.18 29.62 Q 9.18 29.62 9.38 29.18 Z M 10.39 32.70 L 11.18 32.70 Q 11.14 33.36 10.93 34.44 Q 10.93 34.44 10.48 35.30 Q 10.48 35.30 9.69 35.97 Q 9.69 35.97 8.42 36.45 Q 8.42 36.45 7.49 36.60 Q 7.45 36.46 7.23 36.08 Q 7.23 36.08 7.13 35.96 Q 7.99 35.84 9.14 35.45 Q 9.14 35.45 9.83 34.90 Q 9.83 34.90 10.20 34.18 Q 10.20 34.18 10.36 33.26 Q 10.36 33.26 10.39 32.70 Z M 10.86 35.26 L 11.32 34.77 Q 11.83 34.98 12.88 35.45 Q 12.88 35.45 13.81 35.90 Q 13.81 35.90 14.15 36.09 L 13.57 36.61 Q 13.25 36.41 12.38 35.96 Q 12.38 35.96 11.38 35.48 Q 11.38 35.48 10.86 35.26 Z M 8.66 31.49 L 10.79 31.49 Q 10.90 31.35 11.01 31.19 Q 11.22 30.90 11.38 30.61 Q 11.40 30.57 11.42 30.54 L 9.45 30.54 Q 9.11 31.00 8.70 31.44 Q 8.68 31.46 8.66 31.49 Z M 15.10 30.96 L 16.96 30.96 L 16.96 30.37 L 15.51 30.37 L 15.51 29.78 L 16.96 29.78 L 16.96 29.18 L 17.69 29.18 L 17.69 29.78 L 19.06 29.78 L 19.06 30.37 L 17.69 30.37 L 17.69 30.96 L 19.55 30.96 Q 19.52 30.09 19.52 29.19 L 20.26 29.19 Q 20.25 30.11 20.28 30.96 L 22.33 30.96 L 22.33 31.56 L 20.31 31.56 Q 20.36 32.39 20.45 33.09 Q 20.50 33.54 20.58 33.92 Q 20.67 33.76 20.74 33.60 Q 21.11 32.81 21.35 31.95 L 22.02 32.13 Q 21.75 33.06 21.36 33.90 Q 21.12 34.42 20.83 34.89 Q 20.94 35.25 21.09 35.48 Q 21.31 35.81 21.55 35.81 Q 21.69 35.81 21.83 35.24 Q 21.83 35.24 21.86 34.57 Q 21.97 34.70 22.31 34.91 Q 22.31 34.91 22.44 34.97 Q 22.38 35.57 22.17 36.26 Q 22.17 36.26 21.79 36.54 Q 21.79 36.54 21.49 36.54 Q 21.10 36.54 20.80 36.26 Q 20.53 36.01 20.33 35.58 Q 19.84 36.18 19.25 36.64 Q 19.16 36.52 18.86 36.22 Q 18.86 36.22 18.73 36.12 Q 19.36 35.68 19.86 35.03 Q 19.95 34.92 20.04 34.79 Q 19.98 34.57 19.93 34.32 Q 19.77 33.65 19.69 32.83 Q 19.61 32.22 19.58 31.56 L 16.70 31.56 L 17.34 31.73 Q 17.23 32.00 17.10 32.28 L 19.32 32.28 L 19.32 32.88 L 16.79 32.88 Q 16.66 33.13 16.50 33.38 Q 16.42 33.53 16.32 33.67 L 17.28 33.67 L 17.28 33.09 L 17.99 33.09 L 17.99 33.67 L 19.18 33.67 L 19.18 34.30 L 17.99 34.30 L 17.99 34.93 Q 18.67 34.87 19.34 34.81 L 19.34 35.42 Q 18.67 35.49 17.99 35.56 L 17.99 36.57 L 17.28 36.57 L 17.28 35.63 Q 16.86 35.67 16.47 35.70 Q 15.79 35.77 15.25 35.82 L 15.18 35.13 Q 15.70 35.10 16.38 35.05 Q 16.81 35.01 17.28 34.98 L 17.28 34.30 L 16.27 34.30 Q 16.02 34.30 15.67 34.37 Q 15.67 34.37 15.61 34.42 Q 15.60 34.34 15.52 34.09 Q 15.52 34.09 15.43 33.84 Q 15.43 33.84 15.38 33.74 Q 15.49 33.72 15.68 33.51 Q 15.68 33.51 15.77 33.35 Q 15.85 33.24 16.00 32.96 Q 16.02 32.92 16.04 32.88 L 15.22 32.88 L 15.22 32.28 L 16.33 32.28 Q 16.48 31.93 16.60 31.56 L 15.10 31.56 Z M 20.59 29.65 L 21.14 29.31 Q 21.31 29.46 21.69 29.83 Q 21.69 29.83 22.02 30.21 Q 22.02 30.21 22.11 30.36 L 21.54 30.75 Q 21.40 30.52 20.86 29.90 Q 20.86 29.90 20.59 29.65 Z M 24.25 33.97 Q 24.61 33.97 25.17 34.31 Q 25.17 34.31 25.50 34.87 Q 25.50 34.87 25.50 35.22 Q 25.50 35.57 25.17 36.13 Q 25.17 36.13 24.61 36.47 Q 24.61 36.47 24.25 36.47 Q 23.91 36.47 23.34 36.13 Q 23.34 36.13 23.00 35.57 Q 23.00 35.57 23.00 35.22 Q 23.00 34.87 23.34 34.31 Q 23.34 34.31 23.91 33.97 Q 23.91 33.97 24.25 33.97 Z M 24.25 35.99 Q 24.58 35.99 25.02 35.54 Q 25.02 35.54 25.02 35.22 Q 25.02 35.00 24.83 34.66 Q 24.83 34.66 24.47 34.45 Q 24.47 34.45 24.25 34.45 Q 24.05 34.45 23.70 34.66 Q 23.70 34.66 23.49 35.00 Q 23.49 35.00 23.49 35.22 Q 23.49 35.43 23.70 35.79 Q 23.70 35.79 24.05 35.99 Q 24.05 35.99 24.25 35.99 Z" xml:space="preserve" style="font-weight:613;font-size:8px;line-height:1.2;font-family:'Dream Han Sans SC';-inkscape-font-specification:'Dream Han Sans SC weight=613';text-align:start;writing-mode:lr-tb;direction:ltr;text-anchor:start;fill:#ffffff" id="text79" data-original-text="负载。" data-original-element="text"/>
  <path d="M 17.65 43.51 L 19.38 43.51 L 19.38 41.87 L 17.33 41.87 L 17.33 41.15 L 19.62 41.15 Q 19.54 40.89 19.36 40.53 Q 19.18 40.15 18.99 39.85 L 19.68 39.60 Q 19.88 39.90 20.26 40.62 Q 20.26 40.62 20.35 40.88 L 19.65 41.15 L 22.13 41.15 L 22.13 41.87 L 20.16 41.87 L 20.16 43.51 L 21.85 43.51 L 21.85 44.22 L 20.16 44.22 L 20.16 46.10 L 22.34 46.10 L 22.34 46.83 L 17.09 46.83 L 17.09 46.10 L 19.38 46.10 L 19.38 44.22 L 17.65 44.22 Z M 15.15 46.47 Q 15.37 46.18 15.90 45.33 Q 15.90 45.33 16.44 44.38 Q 16.44 44.38 16.67 43.92 L 17.22 44.42 Q 17.01 44.84 16.53 45.74 Q 16.53 45.74 16.03 46.61 Q 16.03 46.61 15.79 46.99 Z M 15.36 40.28 L 15.78 39.74 Q 16.03 39.84 16.60 40.13 Q 16.60 40.13 17.13 40.43 Q 17.13 40.43 17.30 40.56 L 16.86 41.18 Q 16.70 41.05 16.18 40.73 Q 16.18 40.73 15.62 40.40 Q 15.62 40.40 15.36 40.28 Z M 14.93 42.51 L 15.33 41.94 Q 15.58 42.05 16.14 42.34 Q 16.14 42.34 16.66 42.62 Q 16.66 42.62 16.84 42.74 L 16.42 43.38 Q 16.26 43.25 15.74 42.94 Q 15.74 42.94 15.17 42.63 Q 15.17 42.63 14.93 42.51 Z M 25.83 45.10 L 26.13 44.80 L 24.10 44.80 L 24.10 42.42 L 29.19 42.42 L 29.19 44.80 L 26.53 44.80 Q 26.63 44.86 26.74 44.91 Q 26.97 45.06 27.41 45.35 Q 27.41 45.35 27.55 45.47 L 27.09 45.94 Q 26.96 45.82 26.54 45.51 Q 26.54 45.51 26.06 45.21 Q 26.06 45.21 25.83 45.10 Z M 23.55 40.17 L 26.30 40.17 Q 26.30 40.17 26.30 40.16 Q 26.21 39.91 26.10 39.71 L 26.82 39.56 Q 26.94 39.75 27.06 40.00 Q 27.10 40.09 27.13 40.17 L 29.67 40.17 L 29.67 40.77 L 28.04 40.77 L 28.59 40.87 Q 28.45 41.13 28.33 41.35 Q 28.30 41.41 28.27 41.46 L 30.09 41.46 L 30.09 42.06 L 23.17 42.06 L 23.17 41.46 L 24.96 41.46 Q 24.94 41.38 24.90 41.30 Q 24.82 41.06 24.73 40.88 L 25.27 40.77 L 23.55 40.77 Z M 24.96 45.19 L 25.69 45.19 L 25.69 46.13 Q 25.69 46.29 25.86 46.37 Q 25.86 46.37 26.16 46.37 L 27.43 46.37 Q 27.60 46.37 27.76 46.27 Q 27.76 46.27 27.83 45.95 Q 27.83 45.95 27.85 45.63 Q 27.96 45.71 28.34 45.84 Q 28.34 45.84 28.49 45.87 Q 28.45 46.32 28.25 46.81 Q 28.25 46.81 27.85 46.99 Q 27.85 46.99 27.50 46.99 L 26.09 46.99 Q 25.63 46.99 25.14 46.84 Q 25.14 46.84 24.96 46.47 Q 24.96 46.47 24.96 46.15 Z M 24.81 43.84 L 24.81 44.30 L 28.44 44.30 L 28.44 43.84 Z M 24.81 42.91 L 24.81 43.37 L 28.44 43.37 L 28.44 42.91 Z M 25.73 41.46 L 27.49 41.46 Q 27.57 41.32 27.64 41.15 Q 27.74 40.94 27.79 40.77 L 25.43 40.77 Q 25.53 40.94 25.61 41.13 Q 25.69 41.32 25.73 41.46 Z M 24.00 45.11 L 24.63 45.38 Q 24.45 45.76 23.97 46.58 Q 23.97 46.58 23.65 46.87 L 23.03 46.49 Q 23.33 46.23 23.85 45.46 Q 23.85 45.46 24.00 45.11 Z M 28.49 45.30 L 29.10 45.03 Q 29.30 45.24 29.70 45.74 Q 29.70 45.74 30.03 46.23 Q 30.03 46.23 30.13 46.43 L 29.48 46.74 Q 29.40 46.54 29.09 46.04 Q 29.09 46.04 28.69 45.52 Q 28.69 45.52 28.49 45.30 Z M 32.62 42.56 Q 32.34 42.56 31.94 42.19 Q 31.94 42.19 31.94 41.90 Q 31.94 41.60 32.34 41.23 Q 32.34 41.23 32.62 41.23 Q 32.89 41.23 33.29 41.60 Q 33.29 41.60 33.29 41.90 Q 33.29 42.19 32.89 42.56 Q 32.89 42.56 32.62 42.56 Z M 32.62 46.44 Q 32.34 46.44 31.94 46.06 Q 31.94 46.06 31.94 45.78 Q 31.94 45.47 32.34 45.10 Q 32.34 45.10 32.62 45.10 Q 32.89 45.10 33.29 45.47 Q 33.29 45.47 33.29 45.78 Q 33.29 46.06 32.89 46.44 Q 32.89 46.44 32.62 46.44 Z M 60.25 39.64 L 61.01 39.64 L 61.01 40.99 L 63.89 40.99 L 63.89 46.15 Q 63.89 46.48 63.72 46.84 Q 63.72 46.84 63.49 46.94 Q 63.26 47.03 62.51 47.06 Q 62.51 47.06 61.97 47.06 Q 61.96 46.96 61.87 46.68 Q 61.87 46.68 61.77 46.41 Q 61.77 46.41 61.72 46.30 Q 61.98 46.31 62.48 46.33 Q 62.48 46.33 62.87 46.32 Q 62.87 46.32 62.94 46.32 Q 63.06 46.31 63.14 46.24 Q 63.14 46.24 63.14 46.13 L 63.14 41.73 L 61.01 41.73 Q 61.00 41.94 60.97 42.18 Q 60.94 42.45 60.88 42.72 Q 61.11 42.93 61.36 43.16 Q 61.68 43.46 62.30 44.06 Q 62.30 44.06 62.84 44.63 Q 62.84 44.63 63.02 44.86 L 62.40 45.35 Q 62.23 45.12 61.72 44.54 Q 61.72 44.54 61.11 43.90 Q 61.11 43.90 60.79 43.59 Q 60.72 43.52 60.65 43.46 Q 60.55 43.68 60.42 43.90 Q 60.17 44.34 59.37 45.13 Q 59.37 45.13 58.78 45.48 Q 58.73 45.40 58.54 45.19 Q 58.54 45.19 58.33 44.98 Q 58.33 44.98 58.24 44.91 Q 58.81 44.61 59.54 43.91 Q 59.54 43.91 59.97 43.16 Q 59.97 43.16 60.18 42.41 Q 60.18 42.41 60.22 42.04 Q 60.22 41.88 60.23 41.73 L 58.13 41.73 L 58.13 47.08 L 57.38 47.08 L 57.38 40.99 L 60.25 40.99 Z M 65.10 40.68 L 67.30 40.68 Q 67.51 40.16 67.65 39.63 L 68.43 39.83 Q 68.29 40.26 68.13 40.68 L 72.16 40.68 L 72.16 41.41 L 67.83 41.41 Q 67.77 41.55 67.70 41.68 Q 67.33 42.46 66.82 43.16 L 66.82 47.06 L 66.06 47.06 L 66.06 44.05 Q 65.66 44.44 65.20 44.76 Q 65.16 44.67 65.03 44.40 Q 65.03 44.40 64.89 44.15 Q 64.89 44.15 64.82 44.06 Q 65.38 43.68 66.26 42.68 Q 66.26 42.68 66.62 42.09 Q 66.81 41.75 66.99 41.41 L 65.10 41.41 Z M 67.35 44.23 L 69.49 44.23 L 69.49 43.62 Q 69.78 43.46 70.06 43.23 Q 70.29 43.06 70.49 42.87 L 68.01 42.87 L 68.01 42.19 L 71.19 42.19 L 71.35 42.15 L 71.83 42.53 Q 71.58 42.80 70.93 43.37 Q 70.93 43.37 70.58 43.62 Q 70.42 43.74 70.26 43.84 L 70.26 44.23 L 72.29 44.23 L 72.29 44.94 L 70.26 44.94 L 70.26 46.22 Q 70.26 46.53 70.10 46.87 Q 70.10 46.87 69.88 46.95 Q 69.65 47.03 68.96 47.06 Q 68.96 47.06 68.45 47.06 Q 68.43 46.90 68.31 46.51 Q 68.31 46.51 68.23 46.35 Q 68.47 46.35 68.92 46.36 Q 68.92 46.36 69.26 46.36 Q 69.26 46.36 69.32 46.35 Q 69.42 46.35 69.49 46.29 Q 69.49 46.29 69.49 46.21 L 69.49 44.94 L 67.35 44.94 Z M 75.23 40.48 L 77.36 40.48 L 77.36 39.68 L 78.11 39.68 L 78.11 40.48 L 80.34 40.48 L 80.34 41.18 L 78.11 41.18 L 78.11 41.86 L 80.10 41.86 L 80.10 44.13 L 78.06 44.13 Q 78.06 44.17 78.06 44.20 Q 78.00 44.66 77.84 45.09 Q 77.74 45.36 77.57 45.62 Q 78.01 45.85 78.54 46.02 Q 79.41 46.28 80.44 46.39 Q 80.37 46.47 80.19 46.71 Q 80.19 46.71 80.04 46.96 Q 80.04 46.96 79.99 47.06 Q 78.93 46.92 78.05 46.59 Q 77.55 46.40 77.13 46.15 Q 76.90 46.37 76.59 46.56 Q 76.10 46.87 75.38 47.08 Q 75.33 46.99 75.17 46.76 Q 75.17 46.76 75.00 46.53 Q 75.00 46.53 74.92 46.45 Q 75.61 46.29 76.06 46.04 Q 76.31 45.90 76.51 45.73 Q 75.85 45.20 75.42 44.46 L 76.05 44.26 Q 76.38 44.82 76.94 45.23 Q 77.08 45.03 77.16 44.80 Q 77.27 44.48 77.31 44.13 L 75.43 44.13 L 75.43 41.86 L 77.36 41.86 L 77.36 41.18 L 75.23 41.18 Z M 74.77 39.62 L 75.47 39.85 Q 75.20 40.52 74.83 41.19 Q 74.76 41.33 74.68 41.46 L 74.68 47.10 L 73.95 47.10 L 73.95 42.56 Q 73.58 43.08 73.17 43.48 Q 73.13 43.38 72.99 43.10 Q 72.99 43.10 72.83 42.81 Q 72.83 42.81 72.76 42.71 Q 73.16 42.34 73.90 41.35 Q 73.90 41.35 74.54 40.21 Q 74.54 40.21 74.77 39.62 Z M 78.11 42.49 L 78.11 43.26 Q 78.11 43.38 78.10 43.51 L 79.38 43.51 L 79.38 42.49 Z M 76.13 42.49 L 76.13 43.51 L 77.36 43.51 Q 77.36 43.38 77.36 43.26 L 77.36 42.49 Z M 81.81 40.19 L 87.77 40.19 L 87.77 46.11 Q 87.77 46.44 87.59 46.80 Q 87.59 46.80 87.38 46.90 Q 87.16 46.99 86.42 47.03 Q 86.42 47.03 85.85 47.02 Q 85.84 46.87 85.69 46.44 Q 85.69 46.44 85.61 46.30 Q 85.87 46.30 86.36 46.31 Q 86.36 46.31 86.74 46.30 Q 86.74 46.30 86.81 46.30 Q 86.93 46.30 87.01 46.22 Q 87.01 46.22 87.01 46.10 L 87.01 44.66 L 85.06 44.66 L 85.06 46.98 L 84.30 46.98 L 84.30 44.66 L 82.45 44.66 Q 82.42 44.91 82.36 45.16 Q 82.25 45.71 81.81 46.71 Q 81.81 46.71 81.44 47.11 Q 81.38 47.03 81.17 46.84 Q 81.17 46.84 80.94 46.67 Q 80.94 46.67 80.85 46.62 Q 81.18 46.24 81.57 45.37 Q 81.57 45.37 81.75 44.43 Q 81.75 44.43 81.81 43.51 Q 81.81 43.51 81.81 43.08 Z M 85.06 43.94 L 87.01 43.94 L 87.01 42.75 L 85.06 42.75 Z M 87.01 42.05 L 87.01 40.91 L 85.06 40.91 L 85.06 42.05 Z M 82.55 42.75 L 82.55 43.08 Q 82.55 43.49 82.53 43.94 L 84.30 43.94 L 84.30 42.75 Z M 82.55 40.91 L 82.55 42.05 L 84.30 42.05 L 84.30 40.91 Z M 89.88 43.02 L 95.43 43.02 L 95.43 45.04 L 92.98 45.04 L 92.98 45.41 L 95.59 45.41 L 95.59 45.91 L 92.98 45.91 L 92.98 46.30 L 96.28 46.30 L 96.28 46.87 L 88.99 46.87 L 88.99 46.30 L 92.25 46.30 L 92.25 45.91 L 89.68 45.91 L 89.68 45.41 L 92.25 45.41 L 92.25 45.04 L 89.88 45.04 Z M 90.02 39.89 L 95.21 39.89 L 95.21 41.86 L 90.02 41.86 Z M 89.02 42.15 L 96.25 42.15 L 96.25 42.71 L 89.02 42.71 Z M 90.75 41.06 L 90.75 41.44 L 94.45 41.44 L 94.45 41.06 Z M 90.75 40.30 L 90.75 40.67 L 94.45 40.67 L 94.45 40.30 Z M 92.98 44.23 L 92.98 44.62 L 94.69 44.62 L 94.69 44.23 Z M 92.98 43.45 L 92.98 43.83 L 94.69 43.83 L 94.69 43.45 Z M 90.59 44.23 L 90.59 44.62 L 92.25 44.62 L 92.25 44.23 Z M 90.59 43.45 L 90.59 43.83 L 92.25 43.83 L 92.25 43.45 Z M 98.38 39.64 L 99.10 39.64 L 99.10 47.06 L 98.38 47.06 L 98.38 44.35 Q 98.21 44.51 98.05 44.66 Q 97.65 45.02 97.29 45.32 L 96.90 44.67 Q 97.21 44.44 97.65 44.08 Q 98.01 43.78 98.38 43.46 L 98.38 42.12 L 97.95 42.46 Q 97.86 42.28 97.52 41.82 Q 97.52 41.82 97.11 41.34 Q 97.11 41.34 96.92 41.13 L 97.44 40.73 Q 97.64 40.92 98.05 41.38 Q 98.05 41.38 98.23 41.60 Q 98.31 41.70 98.38 41.78 Z M 101.56 39.63 L 102.33 39.85 Q 102.17 40.06 101.97 40.27 L 103.54 40.27 L 103.67 40.25 L 104.17 40.51 Q 103.88 41.12 102.97 42.09 Q 102.97 42.09 101.82 42.80 Q 101.82 42.80 100.52 43.30 Q 100.52 43.30 99.83 43.45 Q 99.78 43.31 99.57 42.96 Q 99.57 42.96 99.46 42.86 Q 100.09 42.74 100.69 42.52 Q 101.00 42.42 101.28 42.28 Q 101.19 42.16 101.06 42.01 Q 100.84 41.76 100.62 41.58 L 101.17 41.25 Q 101.40 41.43 101.63 41.67 Q 101.78 41.83 101.89 41.96 Q 102.38 41.67 102.76 41.29 Q 102.96 41.10 103.11 40.88 L 101.31 40.88 Q 101.07 41.07 100.81 41.25 Q 100.36 41.55 99.90 41.78 Q 99.84 41.71 99.66 41.51 Q 99.66 41.51 99.47 41.34 Q 99.47 41.34 99.40 41.28 Q 99.85 41.10 100.67 40.56 Q 100.67 40.56 101.34 39.95 Q 101.34 39.95 101.56 39.63 Z M 99.43 43.54 L 102.58 43.54 L 102.58 42.64 L 103.33 42.64 L 103.33 43.54 L 104.26 43.54 L 104.26 44.24 L 103.33 44.24 L 103.33 46.22 Q 103.33 46.51 103.18 46.85 Q 103.18 46.85 102.96 46.93 Q 102.75 47.02 102.09 47.05 Q 102.09 47.05 101.61 47.05 Q 101.59 46.90 101.45 46.49 Q 101.45 46.49 101.38 46.35 Q 101.72 46.35 102.32 46.36 Q 102.32 46.36 102.42 46.35 Q 102.52 46.35 102.58 46.29 Q 102.58 46.29 102.58 46.21 L 102.58 44.24 L 99.43 44.24 Z M 99.94 44.69 L 100.56 44.36 Q 100.76 44.57 101.16 45.06 Q 101.16 45.06 101.50 45.55 Q 101.50 45.55 101.60 45.75 L 100.94 46.12 Q 100.85 45.92 100.53 45.42 Q 100.53 45.42 100.13 44.90 Q 100.13 44.90 99.94 44.69 Z M 105.33 43.64 L 111.97 43.64 L 111.97 44.38 L 108.51 44.38 Q 108.07 44.94 107.55 45.47 Q 107.29 45.74 107.04 45.98 L 110.32 45.76 Q 110.26 45.68 110.18 45.61 Q 109.84 45.22 109.49 44.90 L 110.13 44.56 Q 110.49 44.87 111.19 45.62 Q 111.19 45.62 111.78 46.35 Q 111.78 46.35 111.95 46.65 L 111.27 47.06 Q 111.12 46.77 110.85 46.42 Q 109.95 46.48 109.26 46.55 Q 108.46 46.61 107.36 46.70 Q 107.36 46.70 106.65 46.77 Q 106.65 46.77 106.22 46.82 Q 106.22 46.82 105.97 46.87 Q 105.97 46.87 105.89 46.90 Q 105.86 46.83 105.78 46.54 Q 105.78 46.54 105.67 46.23 Q 105.67 46.23 105.63 46.13 Q 105.78 46.10 106.06 45.89 Q 106.06 45.89 106.25 45.72 Q 106.35 45.64 106.73 45.26 Q 106.73 45.26 107.18 44.74 Q 107.18 44.74 107.42 44.43 Q 107.45 44.40 107.47 44.38 L 105.33 44.38 Z M 108.63 39.62 L 109.33 39.94 Q 109.21 40.11 109.08 40.27 Q 109.23 40.42 109.42 40.58 Q 109.81 40.90 110.78 41.51 Q 110.78 41.51 111.84 42.03 Q 111.84 42.03 112.38 42.22 Q 112.29 42.29 112.09 42.53 Q 112.09 42.53 111.90 42.78 Q 111.90 42.78 111.84 42.88 Q 111.31 42.67 110.79 42.37 Q 110.66 42.29 110.53 42.22 L 110.53 42.79 L 106.74 42.79 L 106.74 42.28 Q 106.13 42.66 105.45 42.96 Q 105.40 42.87 105.21 42.62 Q 105.21 42.62 105.00 42.37 Q 105.00 42.37 104.91 42.30 Q 105.69 41.99 107.11 41.15 Q 107.11 41.15 108.26 40.15 Q 108.26 40.15 108.63 39.62 Z M 110.33 42.09 Q 110.06 41.91 109.80 41.73 Q 109.33 41.38 108.94 41.03 Q 108.78 40.90 108.65 40.77 Q 108.20 41.23 107.66 41.65 Q 107.36 41.88 107.04 42.09 Z M 116.11 39.90 L 116.74 39.64 Q 116.92 39.85 117.25 40.35 Q 117.25 40.35 117.33 40.55 L 116.79 40.80 L 118.15 40.80 Q 118.26 40.64 118.37 40.45 Q 118.49 40.23 118.72 39.80 Q 118.72 39.80 118.78 39.62 L 119.58 39.87 Q 119.36 40.19 119.13 40.51 Q 119.02 40.67 118.92 40.80 L 119.94 40.80 L 119.94 43.51 L 115.59 43.51 L 115.59 40.80 L 116.64 40.80 Q 116.57 40.62 116.43 40.39 Q 116.27 40.13 116.11 39.90 Z M 115.99 43.94 L 119.58 43.94 L 119.58 47.05 L 118.87 47.05 L 118.87 46.67 L 116.69 46.67 L 116.69 47.05 L 115.99 47.05 Z M 113.02 41.58 L 113.82 41.58 L 113.82 39.74 L 114.53 39.74 L 114.53 41.58 L 115.29 41.58 L 115.29 42.27 L 114.53 42.27 L 114.53 44.72 Q 114.90 44.58 115.27 44.45 L 115.42 45.12 Q 114.83 45.36 113.65 45.83 Q 113.65 45.83 113.15 46.03 L 112.91 45.28 Q 113.29 45.16 113.82 44.98 L 113.82 42.27 L 113.02 42.27 Z M 116.21 41.31 L 116.21 42.99 L 117.47 42.99 L 117.47 41.31 Z M 118.04 41.31 L 118.04 42.99 L 119.30 42.99 L 119.30 41.31 Z M 118.87 45.06 L 118.87 44.51 L 116.69 44.51 L 116.69 45.06 Z M 118.87 46.10 L 118.87 45.61 L 116.69 45.61 L 116.69 46.10 Z M 118.72 41.51 L 119.20 41.68 Q 119.03 41.97 118.68 42.58 Q 118.68 42.58 118.53 42.80 L 118.15 42.65 Q 118.25 42.49 118.46 42.09 Q 118.46 42.09 118.65 41.67 Q 118.65 41.67 118.72 41.51 Z M 116.38 41.65 L 116.78 41.51 Q 116.96 41.76 117.26 42.38 Q 117.26 42.38 117.31 42.62 L 116.88 42.79 Q 116.82 42.56 116.54 41.91 Q 116.54 41.91 116.38 41.65 Z M 125.15 40.60 L 127.97 40.60 L 127.97 46.87 L 127.21 46.87 L 127.21 46.35 L 125.88 46.35 L 125.88 46.93 L 125.15 46.93 Z M 121.04 41.12 L 122.09 41.12 Q 122.10 40.45 122.10 39.75 L 122.84 39.75 Q 122.83 40.45 122.82 41.12 L 124.59 41.12 L 124.59 41.35 Q 124.59 41.43 124.58 41.49 Q 124.56 42.80 124.51 44.61 Q 124.51 44.61 124.43 45.77 Q 124.43 45.77 124.31 46.40 Q 124.31 46.40 124.22 46.54 Q 124.10 46.71 123.83 46.87 Q 123.83 46.87 123.64 46.90 Q 123.47 46.92 122.96 46.93 Q 122.96 46.93 122.69 46.91 Q 122.68 46.74 122.56 46.31 Q 122.56 46.31 122.46 46.15 Q 122.73 46.17 123.17 46.19 Q 123.17 46.19 123.29 46.19 Q 123.38 46.19 123.50 46.13 Q 123.50 46.13 123.55 46.05 Q 123.62 45.96 123.72 45.38 Q 123.72 45.38 123.78 44.28 Q 123.78 44.28 123.81 43.42 Q 123.83 42.75 123.85 41.86 L 122.80 41.86 Q 122.80 41.90 122.80 41.95 Q 122.77 43.02 122.50 44.91 Q 122.50 44.91 121.91 46.48 Q 121.91 46.48 121.39 47.07 Q 121.33 46.98 121.13 46.78 Q 121.13 46.78 120.92 46.58 Q 120.92 46.58 120.82 46.53 Q 121.21 46.11 121.69 45.02 Q 121.69 45.02 121.96 43.71 Q 121.96 43.71 122.01 42.97 Q 122.06 42.43 122.07 41.86 L 121.04 41.86 Z M 127.21 45.62 L 127.21 41.33 L 125.88 41.33 L 125.88 45.62 Z M 130.17 44.42 Q 130.53 44.42 131.09 44.77 Q 131.09 44.77 131.42 45.33 Q 131.42 45.33 131.42 45.68 Q 131.42 46.03 131.09 46.59 Q 131.09 46.59 130.53 46.93 Q 130.53 46.93 130.17 46.93 Q 129.83 46.93 129.26 46.59 Q 129.26 46.59 128.92 46.03 Q 128.92 46.03 128.92 45.68 Q 128.92 45.33 129.26 44.77 Q 129.26 44.77 129.83 44.42 Q 129.83 44.42 130.17 44.42 Z M 130.17 46.45 Q 130.49 46.45 130.94 46.00 Q 130.94 46.00 130.94 45.68 Q 130.94 45.46 130.74 45.12 Q 130.74 45.12 130.39 44.91 Q 130.39 44.91 130.17 44.91 Q 129.97 44.91 129.62 45.12 Q 129.62 45.12 129.41 45.46 Q 129.41 45.46 129.41 45.68 Q 129.41 45.89 129.62 46.25 Q 129.62 46.25 129.97 46.45 Q 129.97 46.45 130.17 46.45 Z" xml:space="preserve" style="font-weight:613;font-size:8px;line-height:1.2;font-family:'Dream Han Sans SC';-inkscape-font-specification:'Dream Han Sans SC weight=613';text-align:start;writing-mode:lr-tb;direction:ltr;text-anchor:start;fill:#ffffff" id="text81" data-original-text="注意：          内存使用量将会增加。" data-original-element="text"/>
</svg>