<?xml version="1.0" ?>
<svg xmlns="http://www.w3.org/2000/svg" xmlns:ns1="http://sodipodi.sourceforge.net/DTD/sodipodi-0.dtd" xmlns:ns2="http://www.inkscape.org/namespaces/inkscape" version="1.1" width="208" height="32" viewBox="0,0,208,32" id="svg9" ns1:docname="0dd4015fd9459da9912377e507dfef05.svg" ns2:version="1.4.2 (f4327f4, 2025-05-13)">
  <defs id="defs9"/>
  <ns1:namedview id="namedview9" pagecolor="#505050" bordercolor="#eeeeee" borderopacity="1" ns2:showpageshadow="0" ns2:pageopacity="0" ns2:pagecheckerboard="0" ns2:deskcolor="#505050" ns2:zoom="8.5240385" ns2:cx="64.582064" ns2:cy="16.013536" ns2:window-width="1920" ns2:window-height="945" ns2:window-x="-9" ns2:window-y="40" ns2:window-maximized="1" ns2:current-layer="g8"/>
  <g transform="translate(-240,-164)" id="g9">
    <g data-paper-data="{&quot;isPaintingLayer&quot;:true}" fill-rule="nonzero" stroke="none" stroke-linecap="butt" stroke-linejoin="miter" stroke-miterlimit="10" stroke-dasharray="" stroke-dashoffset="0" style="mix-blend-mode: normal" id="g8">
      <path d="M240,196v-32h208v32z" fill="none" stroke-width="0" id="path1"/>
    </g>
  </g>
  <path d="M 0.80 7.88 L 4.33 7.88 L 4.33 6.04 L 6.20 6.04 L 6.20 7.88 L 9.76 7.88 L 9.76 9.33 L 6.20 9.33 L 6.20 10.39 L 9.31 10.39 L 9.31 11.31 Q 10.34 10.37 11.17 9.01 Q 12.06 7.58 12.60 6.02 L 14.39 6.45 Q 14.09 7.26 13.73 8.03 L 16.46 8.03 L 16.73 7.95 L 17.97 8.76 Q 17.61 9.46 17.10 10.25 Q 16.63 11.02 16.10 11.72 L 19.09 11.72 L 19.09 15.39 L 20.35 15.39 L 20.35 17.05 L 19.09 17.05 L 19.09 21.62 L 17.27 21.62 L 17.27 20.79 L 15.12 20.79 L 15.12 23.64 Q 15.12 24.37 14.79 25.23 Q 14.79 25.23 14.28 25.46 Q 13.81 25.70 12.37 25.82 Q 12.37 25.82 11.29 25.82 Q 11.25 25.41 10.87 24.35 Q 10.87 24.35 10.66 23.97 Q 11.42 23.99 12.66 23.99 Q 12.66 23.99 12.88 23.99 Q 13.09 23.99 13.24 23.84 Q 13.24 23.84 13.24 23.62 L 13.24 20.79 L 10.52 20.79 L 10.52 19.12 L 13.24 19.12 L 13.24 17.05 L 9.70 17.05 L 9.70 15.39 L 13.24 15.39 L 13.24 13.38 L 10.64 13.38 L 10.64 12.55 Q 10.48 12.40 10.25 12.21 Q 9.99 12.00 9.72 11.76 Q 9.48 11.59 9.31 11.49 L 9.31 11.80 L 6.20 11.80 L 6.20 12.94 L 9.99 12.94 L 9.99 14.42 L 0.42 14.42 L 0.42 12.94 L 4.33 12.94 L 4.33 11.80 L 1.25 11.80 L 1.25 10.39 L 4.33 10.39 L 4.33 9.33 L 0.80 9.33 Z M 1.63 15.46 L 8.97 15.46 L 8.97 23.95 Q 8.97 24.56 8.67 25.33 Q 8.67 25.33 8.24 25.52 Q 7.81 25.74 6.59 25.84 Q 6.59 25.84 5.67 25.84 Q 5.60 25.48 5.26 24.54 Q 5.26 24.54 5.09 24.20 Q 5.69 24.22 6.18 24.22 L 6.86 24.22 Q 7.18 24.22 7.18 23.90 L 7.18 22.24 L 3.40 22.24 L 3.40 25.84 L 1.63 25.84 Z M 14.09 11.72 Q 14.35 11.40 14.61 11.02 Q 15.05 10.33 15.44 9.63 Q 15.46 9.61 15.46 9.58 L 12.92 9.58 Q 12.84 9.72 12.77 9.86 Q 12.13 10.88 11.45 11.72 Z M 7.18 19.59 L 3.40 19.59 L 3.40 20.87 L 7.18 20.87 Z M 7.18 16.95 L 3.40 16.95 L 3.40 18.21 L 7.18 18.21 Z M 17.27 17.05 L 15.12 17.05 L 15.12 19.12 L 17.27 19.12 Z M 17.27 15.39 L 17.27 13.38 L 15.12 13.38 L 15.12 15.39 Z M 22.88 7.11 L 40.44 7.11 L 40.44 23.24 Q 40.44 24.17 39.91 25.13 Q 39.91 25.13 39.28 25.39 Q 38.65 25.65 36.58 25.78 Q 36.58 25.78 35.00 25.76 Q 34.95 25.48 34.68 24.74 Q 34.68 24.74 34.36 24.01 Q 34.36 24.01 34.19 23.75 Q 34.91 23.77 36.39 23.81 Q 36.39 23.81 37.49 23.79 Q 37.49 23.79 37.71 23.79 Q 38.04 23.77 38.33 23.54 Q 38.33 23.54 38.33 23.22 L 38.33 9.09 L 24.93 9.09 L 24.93 25.84 L 22.88 25.84 Z M 26.13 12.40 L 27.55 11.25 Q 28.90 12.36 30.26 13.64 Q 31.12 14.42 31.93 15.24 Q 32.14 14.95 32.34 14.64 Q 33.74 12.45 34.76 10.10 L 36.70 10.70 Q 35.55 13.17 34.05 15.48 Q 33.70 16.07 33.31 16.62 Q 34.36 17.74 35.27 18.76 Q 36.35 20.00 37.06 21.02 L 35.53 22.47 Q 34.83 21.42 33.78 20.14 Q 33.01 19.23 32.12 18.25 Q 31.52 19.02 30.90 19.76 Q 29.22 21.73 27.42 23.20 Q 27.23 23.01 26.60 22.54 Q 26.60 22.54 25.93 22.09 Q 25.93 22.09 25.68 21.94 Q 27.53 20.57 29.22 18.72 Q 30.04 17.80 30.79 16.82 Q 29.84 15.81 28.81 14.83 Q 27.45 13.51 26.13 12.40 Z M 43.47 17.88 L 46.77 17.88 L 46.77 7.05 L 59.64 7.05 L 59.64 17.88 L 62.54 17.88 L 62.54 19.70 L 51.80 19.70 Q 50.68 20.98 49.42 22.11 Q 48.83 22.66 48.24 23.13 L 57.61 22.75 Q 57.38 22.52 57.12 22.28 Q 56.16 21.34 55.24 20.59 L 56.95 19.82 Q 57.87 20.57 59.83 22.40 Q 59.83 22.40 61.53 24.17 Q 61.53 24.17 62.06 24.86 L 60.33 25.80 Q 59.83 25.13 59.09 24.31 Q 56.34 24.44 54.30 24.54 Q 52.13 24.66 49.16 24.82 Q 49.16 24.82 47.28 24.95 Q 47.28 24.95 46.16 25.07 Q 46.16 25.07 45.53 25.19 Q 45.53 25.19 45.33 25.27 Q 45.26 25.05 45.04 24.37 Q 45.04 24.37 44.79 23.62 Q 44.79 23.62 44.68 23.36 Q 45.00 23.28 45.75 22.85 Q 45.75 22.85 46.16 22.52 Q 46.47 22.30 47.77 21.14 Q 47.77 21.14 48.56 20.32 Q 48.85 20.02 49.12 19.70 L 43.47 19.70 Z M 48.71 17.88 L 57.61 17.88 L 57.61 15.90 L 48.71 15.90 Z M 57.61 10.70 L 57.61 8.76 L 48.71 8.76 L 48.71 10.70 Z M 57.61 14.24 L 57.61 12.36 L 48.71 12.36 L 48.71 14.24 Z M 70.04 12.40 L 75.04 12.40 L 75.04 9.33 L 71.46 9.33 L 71.46 7.46 L 82.72 7.46 L 82.72 12.40 L 84.19 12.40 L 84.19 14.28 L 82.72 14.28 L 82.72 20.32 L 80.78 20.32 L 80.78 19.25 L 76.64 19.25 Q 76.55 19.55 76.47 19.87 Q 76.15 21.02 74.89 23.22 Q 74.89 23.22 72.83 25.13 Q 72.83 25.13 71.28 25.90 Q 71.14 25.72 70.67 25.13 Q 70.67 25.13 70.16 24.56 Q 70.16 24.56 69.92 24.37 Q 71.35 23.75 73.25 22.09 Q 73.25 22.09 73.80 21.12 Q 74.34 20.21 74.60 19.25 L 71.20 19.25 L 71.20 17.37 L 74.95 17.37 Q 74.95 17.27 74.97 17.13 Q 75.04 16.13 75.04 15.20 L 75.04 14.28 L 70.04 14.28 Z M 69.35 6.09 L 71.22 6.71 Q 70.49 8.50 69.51 10.27 Q 69.33 10.63 69.13 11.00 L 69.13 25.82 L 67.19 25.82 L 67.19 13.91 Q 66.17 15.30 65.08 16.39 Q 64.99 16.13 64.61 15.36 Q 64.61 15.36 64.18 14.60 Q 64.18 14.60 63.99 14.34 Q 65.05 13.34 67.04 10.72 Q 67.04 10.72 68.74 7.66 Q 68.74 7.66 69.35 6.09 Z M 80.78 14.28 L 77.04 14.28 L 77.04 15.20 Q 77.04 16.26 76.94 17.37 L 80.78 17.37 Z M 77.04 9.33 L 77.04 12.40 L 80.78 12.40 L 80.78 9.33 Z M 88.48 10.90 L 102.59 10.90 L 102.59 18.10 L 88.48 18.10 Z M 86.12 23.24 L 97.05 23.24 Q 97.34 22.75 97.61 22.15 Q 98.07 21.22 98.89 19.23 Q 98.89 19.23 99.15 18.39 L 101.41 18.92 Q 100.96 19.87 99.92 21.85 Q 99.92 21.85 99.40 22.77 Q 99.27 23.01 99.13 23.24 L 105.18 23.24 L 105.18 25.11 L 86.12 25.11 Z M 90.57 12.81 L 90.57 16.24 L 100.39 16.24 L 100.39 12.81 Z M 86.59 7.07 L 104.61 7.07 L 104.61 8.92 L 86.59 8.92 Z M 89.97 18.88 L 91.82 18.37 Q 92.17 19.04 92.84 20.53 Q 92.84 20.53 93.32 21.96 Q 93.32 21.96 93.43 22.52 L 91.45 23.11 Q 91.34 22.56 90.89 21.10 Q 90.89 21.10 90.27 19.55 Q 90.27 19.55 89.97 18.88 Z M 119.71 6.04 L 121.61 6.04 L 121.61 11.19 L 123.96 10.19 L 124.32 9.88 L 124.68 9.61 L 126.12 10.14 L 126.02 10.48 Q 126.02 12.00 126.00 14.58 Q 126.00 14.58 125.96 16.60 Q 125.96 16.60 125.90 17.99 Q 125.90 17.99 125.84 18.31 Q 125.77 19.00 125.19 19.72 Q 125.19 19.72 124.70 19.87 Q 124.25 20.04 123.09 20.10 Q 123.09 20.10 122.62 20.10 Q 122.57 19.70 122.31 18.70 Q 122.31 18.70 122.17 18.37 Q 122.48 18.39 123.25 18.41 Q 123.25 18.41 123.40 18.41 Q 123.64 18.41 123.92 18.21 Q 123.92 18.21 123.98 17.88 Q 124.02 17.70 124.06 16.50 Q 124.06 16.50 124.09 14.56 Q 124.09 14.56 124.09 13.22 Q 124.09 12.70 124.09 12.16 L 121.61 13.24 L 121.61 20.98 L 119.71 20.98 L 119.71 14.04 L 117.32 15.07 L 117.32 22.15 Q 117.32 22.75 117.53 23.36 Q 117.53 23.36 118.24 23.58 Q 118.24 23.58 118.92 23.58 L 123.64 23.58 Q 124.25 23.58 124.86 23.11 Q 124.86 23.11 125.15 21.87 Q 125.15 21.87 125.22 20.70 Q 125.55 20.94 126.61 21.36 Q 126.61 21.36 127.01 21.45 Q 126.88 22.95 126.24 24.64 Q 126.24 24.64 124.94 25.39 Q 124.94 25.39 123.76 25.39 L 118.79 25.39 Q 117.49 25.39 115.98 24.84 Q 115.98 24.84 115.38 23.41 Q 115.38 23.41 115.38 22.13 L 115.38 15.90 L 113.93 16.52 L 113.16 14.75 L 115.38 13.81 L 115.38 8.07 L 117.32 8.07 L 117.32 13.00 L 119.71 11.98 Z M 107.13 11.10 L 109.77 11.10 L 109.77 6.30 L 111.67 6.30 L 111.67 11.10 L 114.03 11.10 L 114.03 13.00 L 111.67 13.00 L 111.67 18.70 Q 112.78 18.23 113.91 17.76 L 114.36 19.55 Q 112.65 20.36 109.15 21.98 Q 109.15 21.98 107.70 22.62 L 106.91 20.59 Q 107.76 20.28 108.92 19.82 Q 109.35 19.65 109.77 19.47 L 109.77 13.00 L 107.13 13.00 Z M 147.47 7.11 L 147.47 9.03 L 131.55 9.03 L 131.55 23.28 L 148.02 23.28 L 148.02 25.23 L 129.59 25.23 L 129.59 7.11 Z M 143.14 9.90 L 145.01 10.67 Q 143.65 12.98 141.86 15.09 Q 141.45 15.56 141.04 16.01 Q 142.35 17.15 143.50 18.25 Q 144.80 19.51 145.70 20.53 L 144.10 22.02 Q 143.26 20.98 142.00 19.72 Q 140.92 18.61 139.66 17.46 Q 138.89 18.23 138.07 18.96 Q 136.05 20.70 134.00 22.04 Q 133.84 21.83 133.26 21.24 Q 133.26 21.24 132.66 20.67 Q 132.66 20.67 132.43 20.49 Q 134.54 19.29 136.52 17.65 Q 137.40 16.92 138.21 16.13 Q 137.21 15.22 136.18 14.32 Q 134.65 13.00 133.22 11.85 L 134.63 10.65 Q 136.01 11.74 137.56 13.04 Q 138.57 13.87 139.57 14.73 Q 139.90 14.38 140.19 14.02 Q 141.90 12.04 143.14 9.90 Z" xml:space="preserve" style="font-weight:613;font-size:21.3333px;line-height:1.2;font-family:'Dream Han Sans SC';-inkscape-font-specification:'Dream Han Sans SC weight=613';text-align:start;writing-mode:lr-tb;direction:ltr;text-anchor:start;fill:#ffffff" id="text9" data-original-text="静冈县伊豆地区" data-original-element="text"/>
</svg>