<?xml version="1.0" ?>
<svg xmlns="http://www.w3.org/2000/svg" xmlns:ns1="http://sodipodi.sourceforge.net/DTD/sodipodi-0.dtd" xmlns:ns2="http://www.inkscape.org/namespaces/inkscape" version="1.1" width="208" height="32" viewBox="0,0,208,32" id="svg5" ns1:docname="0dd4628ff4f5a58315ed307bf39699a1.svg" ns2:version="1.4.2 (f4327f4, 2025-05-13)">
  <defs id="defs5"/>
  <ns1:namedview id="namedview5" pagecolor="#505050" bordercolor="#eeeeee" borderopacity="1" ns2:showpageshadow="0" ns2:pageopacity="0" ns2:pagecheckerboard="0" ns2:deskcolor="#505050" ns2:zoom="8.5240385" ns2:cx="52.146644" ns2:cy="6.6283136" ns2:window-width="1920" ns2:window-height="945" ns2:window-x="-9" ns2:window-y="40" ns2:window-maximized="1" ns2:current-layer="g5"/>
  <g transform="translate(-240,-164)" id="g5">
    <g data-paper-data="{&quot;isPaintingLayer&quot;:true}" fill-rule="nonzero" stroke="none" stroke-linecap="butt" stroke-linejoin="miter" stroke-miterlimit="10" stroke-dasharray="" stroke-dashoffset="0" style="mix-blend-mode: normal" id="g4">
      <path d="M240,196v-32h208v32z" fill="none" stroke-width="0" id="path1"/>
    </g>
  </g>
  <path d="M 2.24 9.46 L 10.05 9.46 Q 9.92 8.97 9.72 8.35 Q 9.45 7.41 9.15 6.62 L 11.24 6.21 Q 11.59 6.98 12.20 8.82 Q 12.20 8.82 12.35 9.46 L 12.35 9.46 L 19.41 9.46 L 19.41 11.42 L 4.37 11.42 L 4.37 15.82 Q 4.37 17.01 4.18 19.76 Q 4.18 19.76 3.63 22.62 Q 3.63 22.62 2.54 25.26 Q 2.54 25.26 1.66 26.34 Q 1.51 26.12 0.90 25.54 Q 0.90 25.54 0.25 24.99 Q 0.25 24.99 0.03 24.86 Q 1.03 23.56 1.96 20.42 Q 1.96 20.42 2.24 17.20 Q 2.24 17.20 2.24 15.77 Z M 27.97 18.06 L 29.83 18.06 L 29.83 22.49 L 33.35 22.49 L 33.35 18.89 L 35.18 18.89 L 35.18 24.20 Q 35.39 24.20 35.59 24.20 Q 36.29 24.22 36.61 24.22 Q 36.89 24.22 37.24 24.12 Q 37.24 24.12 37.40 23.96 Q 37.65 23.71 38.04 21.96 Q 38.04 21.96 38.19 20.27 Q 38.30 19.06 38.40 17.33 L 24.34 17.33 L 24.34 8.18 L 29.20 8.18 Q 29.32 7.88 29.44 7.53 Q 29.71 6.79 29.85 6.19 L 32.21 6.43 Q 31.87 7.22 31.44 7.96 Q 31.38 8.08 31.32 8.18 L 37.99 8.18 L 37.99 8.45 Q 37.97 8.73 37.95 8.90 Q 37.85 10.52 37.57 12.64 Q 37.57 12.64 37.22 13.86 Q 37.22 13.86 36.97 14.13 Q 36.71 14.43 36.14 14.68 Q 36.14 14.68 35.73 14.72 Q 35.41 14.77 34.35 14.79 Q 34.35 14.79 33.72 14.77 Q 33.68 14.35 33.43 13.34 Q 33.43 13.34 33.21 13.00 Q 33.72 13.04 34.58 13.07 Q 34.58 13.07 34.80 13.07 Q 34.98 13.07 35.29 13.00 Q 35.29 13.00 35.39 12.87 Q 35.63 12.62 35.80 11.64 Q 35.90 11.03 35.99 9.99 L 26.31 9.99 L 26.31 15.53 L 40.45 15.53 L 40.45 15.69 Q 40.43 15.86 40.43 16.24 Q 40.43 16.24 40.40 16.39 Q 40.25 19.29 39.91 22.86 Q 39.91 22.86 39.44 24.77 Q 39.44 24.77 39.11 25.16 Q 38.76 25.57 37.99 25.87 Q 37.99 25.87 37.46 25.93 Q 36.99 25.97 35.49 25.97 Q 35.49 25.97 34.67 25.95 Q 34.62 25.52 34.47 25.01 Q 34.43 24.88 34.39 24.77 L 33.35 24.77 L 33.35 24.18 L 22.81 24.18 L 22.81 18.93 L 24.64 18.93 L 24.64 22.49 L 27.97 22.49 Z M 27.41 11.95 L 28.42 10.67 Q 29.16 10.95 30.87 11.68 Q 30.87 11.68 32.43 12.46 Q 32.43 12.46 32.94 12.81 L 31.87 14.23 Q 31.40 13.90 29.87 13.07 Q 29.87 13.07 28.16 12.25 Q 28.16 12.25 27.41 11.95 Z M 43.12 18.12 L 46.42 18.12 L 46.42 7.28 L 59.29 7.28 L 59.29 18.12 L 62.19 18.12 L 62.19 19.93 L 51.45 19.93 Q 50.33 21.21 49.07 22.35 Q 48.47 22.90 47.89 23.37 L 57.25 22.98 Q 57.03 22.75 56.76 22.51 Q 55.81 21.58 54.89 20.83 L 56.60 20.06 Q 57.51 20.81 59.47 22.64 Q 59.47 22.64 61.18 24.41 Q 61.18 24.41 61.71 25.10 L 59.97 26.03 Q 59.47 25.37 58.73 24.54 Q 55.98 24.67 53.95 24.77 Q 51.78 24.90 48.81 25.06 Q 48.81 25.06 46.93 25.18 Q 46.93 25.18 45.81 25.31 Q 45.81 25.31 45.18 25.42 Q 45.18 25.42 44.97 25.50 Q 44.91 25.28 44.69 24.61 Q 44.69 24.61 44.44 23.86 Q 44.44 23.86 44.33 23.60 Q 44.65 23.51 45.40 23.09 Q 45.40 23.09 45.81 22.75 Q 46.12 22.53 47.42 21.38 Q 47.42 21.38 48.21 20.56 Q 48.49 20.25 48.76 19.93 L 43.12 19.93 Z M 48.36 18.12 L 57.25 18.12 L 57.25 16.14 L 48.36 16.14 Z M 57.25 10.93 L 57.25 8.99 L 48.36 8.99 L 48.36 10.93 Z M 57.25 14.47 L 57.25 12.60 L 48.36 12.60 L 48.36 14.47 Z" xml:space="preserve" style="font-weight:613;font-size:21.3333px;line-height:1.2;font-family:'Dream Han Sans SC';-inkscape-font-specification:'Dream Han Sans SC weight=613';text-align:start;writing-mode:lr-tb;direction:ltr;text-anchor:start;fill:#ffffff" id="text5" data-original-text="广岛县" data-original-element="text"/>
</svg>