<?xml version="1.0" ?>
<svg xmlns="http://www.w3.org/2000/svg" xmlns:ns1="http://sodipodi.sourceforge.net/DTD/sodipodi-0.dtd" xmlns:ns2="http://www.inkscape.org/namespaces/inkscape" viewBox="0 0 192 36" version="1.1" height="36" width="192" id="svg3" ns1:docname="0e04b1426d7a1f44df60555f21c72ce5.svg" ns2:version="1.4.2 (f4327f4, 2025-05-13)">
  <defs id="defs3"/>
  <ns1:namedview id="namedview3" pagecolor="#505050" bordercolor="#eeeeee" borderopacity="1" ns2:showpageshadow="0" ns2:pageopacity="0" ns2:pagecheckerboard="0" ns2:deskcolor="#505050" ns2:zoom="3.2648446" ns2:cx="88.671908" ns2:cy="13.630052" ns2:window-width="1920" ns2:window-height="945" ns2:window-x="-9" ns2:window-y="40" ns2:window-maximized="1" ns2:current-layer="svg3"/>
  <path style="-inkscape-stroke:none;paint-order:stroke markers fill" stroke-linejoin="round" stroke-linecap="round" fill-rule="evenodd" fill="#7d97b4" color="#000000" d="m19 2c-9.31184 0-17 7.09393-17 16 0 8.90606 7.68816 16 17 16h154c9.31184 0 17-7.09394 17-16 0-8.90607-7.68816-16-17-16z" id="path1"/>
  <path style="-inkscape-stroke:none;paint-order:stroke markers fill" stroke-linejoin="round" stroke-linecap="round" fill-rule="evenodd" fill="#31476d" color="#000000" d="m19 4h154c8.31 0 15 6.244 15 14 0 7.75599-6.69 13.99999-15 13.99999h-154c-8.31 0-15-6.244-15-13.99999 0-7.756 6.69-14 15-14z" id="path2"/>
  <path d="M 0.0 0.0 L 192.0 0.0 L 192.0 36.0 L 0.0 36.0 Z" style="paint-order:stroke markers fill" fill="none" id="rect1" data-original-element="rect"/>
  <path d="M 69.63 22.90 L 74.96 22.90 L 74.96 21.94 L 70.62 21.94 L 70.62 20.97 L 74.96 20.97 L 74.96 20.18 L 71.04 20.18 L 71.04 15.99 L 74.96 15.99 L 74.96 15.32 L 69.70 15.32 L 69.70 14.30 L 74.96 14.30 L 74.96 13.51 Q 74.17 13.55 73.38 13.58 Q 72.12 13.64 70.96 13.66 Q 70.95 13.43 70.78 12.86 Q 70.78 12.86 70.70 12.67 Q 71.87 12.63 74.35 12.53 Q 74.35 12.53 76.75 12.35 Q 76.75 12.35 78.89 12.13 Q 78.89 12.13 79.70 11.98 L 80.33 12.95 Q 79.40 13.11 78.26 13.24 Q 77.27 13.36 76.21 13.42 L 76.21 14.30 L 81.58 14.30 L 81.58 15.32 L 76.21 15.32 L 76.21 15.99 L 80.31 15.99 L 80.31 20.18 L 76.21 20.18 L 76.21 20.97 L 80.81 20.97 L 80.81 21.94 L 76.21 21.94 L 76.21 22.90 L 81.67 22.90 L 81.67 23.92 L 69.63 23.92 Z M 76.21 18.47 L 76.21 19.31 L 79.03 19.31 L 79.03 18.47 Z M 76.21 16.86 L 76.21 17.69 L 79.03 17.69 L 79.03 16.86 Z M 72.27 18.47 L 72.27 19.31 L 74.96 19.31 L 74.96 18.47 Z M 72.27 16.86 L 72.27 17.69 L 74.96 17.69 L 74.96 16.86 Z M 83.79 12.43 L 94.26 12.43 L 94.26 15.19 L 89.51 15.19 Q 89.47 15.52 89.41 15.88 L 94.60 15.88 L 94.60 16.82 L 89.23 16.82 Q 89.15 17.18 89.08 17.50 L 93.19 17.50 L 93.19 23.02 L 94.96 23.02 L 94.96 23.94 L 83.03 23.94 L 83.03 23.02 L 84.71 23.02 L 84.71 17.50 L 87.90 17.50 Q 87.95 17.25 87.99 16.96 Q 88.01 16.88 88.02 16.82 L 83.19 16.82 L 83.19 15.88 L 88.15 15.88 Q 88.19 15.51 88.23 15.19 L 83.79 15.19 Z M 85.90 23.02 L 91.95 23.02 L 91.95 22.34 L 85.90 22.34 Z M 91.95 21.64 L 91.95 20.97 L 85.90 20.97 L 85.90 21.64 Z M 91.95 20.29 L 91.95 19.62 L 85.90 19.62 L 85.90 20.29 Z M 91.95 18.94 L 91.95 18.30 L 85.90 18.30 L 85.90 18.94 Z M 91.06 13.30 L 91.06 14.31 L 93.01 14.31 L 93.01 13.30 Z M 87.99 13.30 L 87.99 14.31 L 89.90 14.31 L 89.90 13.30 Z M 84.99 13.30 L 84.99 14.31 L 86.84 14.31 L 86.84 13.30 Z M 100.74 17.78 L 106.74 17.78 L 106.95 17.74 L 107.73 18.08 Q 107.31 19.43 106.62 20.46 Q 106.02 21.32 105.27 22.01 Q 105.53 22.15 105.81 22.30 Q 107.03 22.93 108.54 23.22 Q 108.41 23.36 108.11 23.75 Q 108.11 23.75 107.85 24.17 Q 107.85 24.17 107.77 24.34 Q 105.74 23.84 104.23 22.78 Q 103.62 23.18 102.95 23.49 Q 101.83 24.01 100.61 24.31 Q 100.53 24.06 100.18 23.41 Q 100.18 23.41 100.02 23.21 Q 101.14 22.98 102.18 22.54 Q 102.75 22.30 103.28 21.99 Q 101.99 20.78 101.19 19.08 L 101.54 18.97 L 100.74 18.97 Z M 102.06 12.39 L 106.54 12.39 L 106.54 15.42 Q 106.54 15.71 106.62 15.94 Q 106.62 15.94 106.78 15.94 L 107.59 15.94 Q 107.74 15.94 108.14 15.90 Q 108.14 15.90 108.26 15.86 Q 108.29 16.10 108.34 16.72 Q 108.34 16.72 108.37 16.92 Q 108.23 16.98 107.82 17.01 Q 107.82 17.01 107.62 17.01 L 106.67 17.01 Q 106.13 17.01 105.55 16.69 Q 105.55 16.69 105.35 15.97 Q 105.35 15.97 105.35 15.39 L 105.35 13.56 L 103.23 13.56 L 103.23 13.90 Q 103.23 14.54 102.86 15.89 Q 102.86 15.89 101.86 17.10 Q 101.86 17.10 100.90 17.55 Q 100.82 17.42 100.52 17.07 Q 100.52 17.07 100.19 16.72 Q 100.19 16.72 100.07 16.63 Q 100.94 16.25 101.78 15.33 Q 101.78 15.33 102.06 14.34 Q 102.06 14.34 102.06 13.86 Z M 97.90 24.08 Q 97.86 23.93 97.63 23.52 Q 97.63 23.52 97.36 23.13 Q 97.36 23.13 97.26 23.02 Q 97.39 22.93 97.70 22.57 Q 97.70 22.57 97.92 22.07 Q 97.92 22.07 97.92 21.77 L 97.92 17.30 L 96.17 17.30 L 96.17 16.08 L 99.14 16.08 L 99.14 21.57 L 100.47 20.52 Q 100.55 20.78 100.83 21.40 Q 100.83 21.40 100.94 21.57 Q 100.03 22.29 98.91 23.18 Q 98.91 23.18 98.29 23.69 Q 98.29 23.69 97.99 23.98 Q 97.99 23.98 97.90 24.08 Z M 102.36 18.97 Q 102.87 19.95 103.67 20.76 Q 103.95 21.04 104.27 21.30 Q 104.99 20.71 105.55 19.95 Q 105.89 19.49 106.13 18.97 Z M 97.12 12.91 L 97.94 12.15 Q 98.30 12.44 99.12 13.17 Q 99.12 13.17 99.83 13.87 Q 99.83 13.87 100.05 14.15 L 99.18 15.05 Q 98.98 14.74 98.29 14.01 Q 98.29 14.01 97.50 13.23 Q 97.50 13.23 97.12 12.91 Z M 110.46 12.43 L 120.93 12.43 L 120.93 15.19 L 116.18 15.19 Q 116.14 15.52 116.08 15.88 L 121.27 15.88 L 121.27 16.82 L 115.90 16.82 Q 115.82 17.18 115.75 17.50 L 119.86 17.50 L 119.86 23.02 L 121.62 23.02 L 121.62 23.94 L 109.70 23.94 L 109.70 23.02 L 111.38 23.02 L 111.38 17.50 L 114.56 17.50 Q 114.62 17.25 114.66 16.96 Q 114.68 16.88 114.69 16.82 L 109.86 16.82 L 109.86 15.88 L 114.82 15.88 Q 114.86 15.51 114.90 15.19 L 110.46 15.19 Z M 112.57 23.02 L 118.62 23.02 L 118.62 22.34 L 112.57 22.34 Z M 118.62 21.64 L 118.62 20.97 L 112.57 20.97 L 112.57 21.64 Z M 118.62 20.29 L 118.62 19.62 L 112.57 19.62 L 112.57 20.29 Z M 118.62 18.94 L 118.62 18.30 L 112.57 18.30 L 112.57 18.94 Z M 117.73 13.30 L 117.73 14.31 L 119.68 14.31 L 119.68 13.30 Z M 114.66 13.30 L 114.66 14.31 L 116.56 14.31 L 116.56 13.30 Z M 111.66 13.30 L 111.66 14.31 L 113.51 14.31 L 113.51 13.30 Z" xml:space="preserve" style="font-weight:613;font-size:13.3333px;line-height:1.2;font-family:'Dream Han Sans SC';-inkscape-font-specification:'Dream Han Sans SC weight=613';text-align:start;writing-mode:lr-tb;direction:ltr;text-anchor:start;fill:#ffffff" id="text3" data-original-text="重置设置" data-original-element="text"/>
</svg>