<?xml version="1.0" ?>
<svg xmlns="http://www.w3.org/2000/svg" xmlns:ns1="http://sodipodi.sourceforge.net/DTD/sodipodi-0.dtd" xmlns:ns2="http://www.inkscape.org/namespaces/inkscape" version="1.1" width="208" height="32" viewBox="0,0,208,32" id="svg8" ns1:docname="0e0b9b65bed0a3a938d86a06dcb74bef.svg" ns2:version="1.4.2 (f4327f4, 2025-05-13)">
  <defs id="defs8"/>
  <ns1:namedview id="namedview8" pagecolor="#505050" bordercolor="#eeeeee" borderopacity="1" ns2:showpageshadow="0" ns2:pageopacity="0" ns2:pagecheckerboard="0" ns2:deskcolor="#505050" ns2:zoom="8.5240385" ns2:cx="54.258319" ns2:cy="16.013536" ns2:window-width="1920" ns2:window-height="945" ns2:window-x="-9" ns2:window-y="40" ns2:window-maximized="1" ns2:current-layer="g8"/>
  <g transform="translate(-240,-164)" id="g8">
    <g data-paper-data="{&quot;isPaintingLayer&quot;:true}" fill-rule="nonzero" stroke="none" stroke-linecap="butt" stroke-linejoin="miter" stroke-miterlimit="10" stroke-dasharray="" stroke-dashoffset="0" style="mix-blend-mode: normal" id="g7">
      <path d="M240,196v-32h208v32z" fill="none" stroke-width="0" id="path1"/>
    </g>
  </g>
  <path d="M 3.97 25.79 Q 3.93 25.55 3.64 24.90 Q 3.64 24.90 3.33 24.25 Q 3.33 24.25 3.18 24.06 Q 3.50 23.91 4.11 23.25 Q 4.11 23.25 4.11 22.58 L 4.11 16.38 L 0.22 16.38 L 0.22 14.38 L 4.11 14.38 L 4.11 6.25 L 6.23 6.25 L 6.23 14.38 L 19.26 14.38 L 19.26 16.38 L 11.37 16.38 Q 11.99 17.75 12.88 18.92 Q 14.10 20.52 17.56 22.78 Q 17.56 22.78 19.76 23.40 Q 19.52 23.61 18.97 24.29 Q 18.97 24.29 18.50 25.00 Q 18.50 25.00 18.34 25.30 Q 16.02 24.53 12.48 21.89 Q 12.48 21.89 11.20 20.03 Q 10.07 18.39 9.30 16.38 L 6.23 16.38 L 6.23 22.86 L 11.13 21.74 Q 11.13 22.19 11.24 23.29 Q 11.24 23.29 11.33 23.64 Q 9.13 24.21 6.41 24.94 Q 6.41 24.94 4.93 25.39 Q 4.93 25.39 4.19 25.66 Q 4.19 25.66 3.97 25.79 Z M 15.32 6.58 L 17.34 7.46 Q 16.30 8.66 13.55 10.85 Q 13.55 10.85 10.58 12.69 Q 10.58 12.69 9.16 13.38 Q 8.98 13.16 8.36 12.54 Q 8.36 12.54 7.75 11.92 Q 7.75 11.92 7.49 11.73 Q 8.96 11.16 11.88 9.55 Q 11.88 9.55 14.41 7.61 Q 14.41 7.61 15.32 6.58 Z M 29.78 7.93 L 34.18 7.93 Q 34.26 7.13 34.30 6.16 L 36.13 6.16 Q 36.09 7.10 36.01 7.93 L 40.36 7.93 L 40.36 9.55 L 35.76 9.55 Q 35.69 9.79 35.62 10.02 Q 36.23 10.32 36.93 10.67 Q 37.91 11.18 39.75 12.16 Q 39.75 12.16 40.36 12.54 L 39.10 13.95 Q 38.53 13.54 36.76 12.52 Q 36.76 12.52 35.78 11.99 Q 35.33 11.73 34.93 11.52 Q 34.32 12.36 33.32 12.97 Q 32.32 13.56 30.76 13.95 L 41.00 13.95 L 41.00 15.64 L 39.70 15.64 L 39.70 23.80 Q 39.70 24.57 39.30 25.43 Q 39.30 25.43 38.76 25.64 Q 38.21 25.88 36.52 25.96 Q 36.52 25.96 35.26 25.96 Q 35.22 25.57 34.79 24.51 Q 34.79 24.51 34.60 24.15 Q 35.54 24.17 37.12 24.19 Q 37.12 24.19 37.37 24.17 Q 37.63 24.17 37.82 24.00 Q 37.82 24.00 37.82 23.78 L 37.82 15.64 L 29.19 15.64 L 29.19 13.95 L 30.41 13.95 Q 30.27 13.65 30.02 13.26 Q 29.74 12.84 29.48 12.58 Q 31.06 12.24 32.94 11.24 Q 32.94 11.24 33.41 10.47 Q 33.69 10.06 33.85 9.55 L 29.78 9.55 Z M 27.26 9.66 L 28.74 9.66 L 28.74 23.72 L 27.26 23.72 L 27.26 22.76 L 21.66 23.31 L 21.66 9.68 L 23.08 9.68 L 23.08 21.40 L 24.34 21.26 L 24.34 6.38 L 25.99 6.38 L 25.99 21.11 L 27.26 20.99 Z M 30.49 17.04 L 36.07 17.04 L 36.07 22.19 L 32.10 22.19 L 32.10 23.35 L 30.49 23.35 Z M 32.10 18.49 L 32.10 20.71 L 34.44 20.71 L 34.44 18.49 Z M 42.88 18.00 L 46.19 18.00 L 46.19 7.17 L 59.05 7.17 L 59.05 18.00 L 61.96 18.00 L 61.96 19.81 L 51.22 19.81 Q 50.09 21.09 48.83 22.23 Q 48.24 22.78 47.66 23.25 L 57.02 22.86 Q 56.79 22.64 56.53 22.40 Q 55.57 21.46 54.66 20.71 L 56.36 19.94 Q 57.28 20.69 59.24 22.52 Q 59.24 22.52 60.95 24.29 Q 60.95 24.29 61.48 24.98 L 59.74 25.92 Q 59.24 25.25 58.50 24.43 Q 55.75 24.55 53.72 24.66 Q 51.54 24.78 48.57 24.94 Q 48.57 24.94 46.70 25.06 Q 46.70 25.06 45.57 25.19 Q 45.57 25.19 44.95 25.30 Q 44.95 25.30 44.74 25.39 Q 44.68 25.17 44.46 24.49 Q 44.46 24.49 44.21 23.74 Q 44.21 23.74 44.09 23.48 Q 44.42 23.40 45.17 22.97 Q 45.17 22.97 45.57 22.64 Q 45.88 22.42 47.19 21.26 Q 47.19 21.26 47.98 20.44 Q 48.26 20.14 48.53 19.81 L 42.88 19.81 Z M 48.12 18.00 L 57.02 18.00 L 57.02 16.02 L 48.12 16.02 Z M 57.02 10.81 L 57.02 8.88 L 48.12 8.88 L 48.12 10.81 Z M 57.02 14.35 L 57.02 12.48 L 48.12 12.48 L 48.12 14.35 Z M 65.34 12.16 L 70.49 12.16 L 70.49 9.41 L 64.24 9.41 L 64.24 7.46 L 83.18 7.46 L 83.18 9.41 L 76.93 9.41 L 76.93 12.16 L 82.30 12.16 L 82.30 25.83 L 80.28 25.83 L 80.28 24.59 L 67.31 24.59 L 67.31 25.88 L 65.34 25.88 Z M 72.26 14.01 Q 72.22 14.91 71.98 15.84 Q 71.68 17.10 69.93 19.39 Q 69.93 19.39 68.21 20.22 Q 68.09 20.01 67.67 19.45 Q 67.67 19.45 67.42 19.18 Q 67.37 19.11 67.31 19.07 L 67.31 22.74 L 80.28 22.74 L 80.28 19.52 Q 80.17 19.52 80.06 19.52 L 77.42 19.52 Q 76.44 19.52 75.42 19.04 Q 75.42 19.04 75.01 17.92 Q 75.01 17.92 75.01 16.92 L 75.01 14.01 Z M 76.93 14.01 L 76.93 16.90 Q 76.93 17.39 77.17 17.61 Q 77.17 17.61 77.70 17.61 L 79.87 17.61 Q 80.14 17.61 80.26 17.59 Q 80.26 17.57 80.28 17.57 L 80.28 14.01 Z M 70.45 14.01 L 67.31 14.01 L 67.31 18.63 Q 68.63 17.96 69.29 17.17 Q 70.04 16.25 70.25 15.27 Q 70.41 14.66 70.45 14.01 Z M 72.28 12.16 L 75.01 12.16 L 75.01 9.41 L 72.28 9.41 Z M 85.63 8.13 L 93.98 8.13 L 93.98 6.23 L 96.17 6.23 L 96.17 8.13 L 104.49 8.13 L 104.49 10.02 L 96.17 10.02 L 96.17 12.01 L 103.51 12.01 L 103.51 23.76 Q 103.51 24.57 103.08 25.43 Q 103.08 25.43 101.91 25.85 Q 101.91 25.85 100.05 25.94 Q 100.05 25.94 98.75 25.94 Q 98.69 25.55 98.28 24.55 Q 98.28 24.55 98.07 24.19 Q 98.69 24.21 99.86 24.23 Q 99.86 24.23 100.80 24.21 Q 100.80 24.21 100.97 24.21 Q 101.27 24.21 101.46 24.02 Q 101.46 24.02 101.46 23.76 L 101.46 13.86 L 88.67 13.86 L 88.67 25.92 L 86.63 25.92 L 86.63 12.01 L 93.98 12.01 L 93.98 10.02 L 85.63 10.02 Z M 90.16 16.96 L 92.31 16.96 Q 92.19 16.47 91.84 15.78 Q 91.50 15.08 91.13 14.50 L 92.72 14.01 Q 93.14 14.56 93.84 15.93 Q 93.84 15.93 94.02 16.45 L 92.54 16.96 L 96.02 16.96 Q 96.26 16.55 96.51 16.06 Q 96.77 15.53 97.26 14.46 Q 97.26 14.46 97.43 14.01 L 99.13 14.52 Q 98.73 15.31 98.28 16.10 Q 98.01 16.57 97.75 16.96 L 100.03 16.96 L 100.03 18.55 L 95.96 18.55 L 95.96 20.40 L 100.44 20.40 L 100.44 22.05 L 95.96 22.05 L 95.96 25.47 L 94.04 25.47 L 94.04 22.05 L 89.71 22.05 L 89.71 20.40 L 94.04 20.40 L 94.04 18.55 L 90.16 18.55 Z M 118.94 7.25 L 124.46 7.25 L 124.76 7.17 L 126.14 8.04 Q 125.59 9.55 124.25 12.99 Q 124.25 12.99 123.60 14.42 Q 124.97 15.91 125.82 18.45 Q 125.82 18.45 125.82 19.54 Q 125.82 20.56 125.35 22.07 Q 125.35 22.07 124.80 22.46 Q 124.52 22.64 123.82 22.86 Q 123.82 22.86 123.42 22.93 Q 123.05 22.97 122.13 22.97 Q 122.13 22.97 121.67 22.95 Q 121.64 22.56 121.41 21.48 Q 121.41 21.48 121.16 21.07 Q 121.58 21.11 122.32 21.14 Q 122.32 21.14 122.62 21.11 Q 122.86 21.11 123.29 21.01 Q 123.29 21.01 123.46 20.91 Q 123.74 20.71 123.99 19.85 Q 123.99 19.85 123.97 19.32 Q 123.97 18.36 123.03 16.04 Q 123.03 16.04 121.69 14.66 Q 122.01 13.84 122.71 11.99 Q 122.71 11.99 123.35 10.13 Q 123.35 10.13 123.62 9.30 Q 123.67 9.19 123.71 9.06 L 120.73 9.06 L 120.73 25.90 L 118.94 25.90 Z M 107.86 17.96 L 117.05 17.96 L 117.05 25.73 L 115.07 25.73 L 115.07 24.88 L 109.76 24.88 L 109.76 25.88 L 107.86 25.88 Z M 107.33 8.59 L 111.59 8.59 Q 111.51 8.35 111.43 8.08 Q 111.12 7.25 110.78 6.54 L 112.59 6.03 Q 112.96 6.72 113.28 7.53 Q 113.54 8.13 113.69 8.59 L 117.50 8.59 L 117.50 10.43 L 114.69 10.43 L 116.66 10.85 Q 116.35 11.60 115.71 13.14 Q 115.71 13.14 115.39 13.86 Q 115.26 14.11 115.16 14.35 L 117.98 14.35 L 117.98 16.19 L 106.73 16.19 L 106.73 14.35 L 109.78 14.35 Q 109.66 13.65 109.31 12.73 Q 108.95 11.75 108.54 10.92 L 110.27 10.47 Q 110.72 11.28 111.47 13.20 Q 111.47 13.20 111.61 13.93 L 110.04 14.35 L 113.24 14.35 Q 113.45 13.91 113.67 13.35 Q 113.97 12.60 114.22 11.83 Q 114.48 11.07 114.64 10.43 L 107.33 10.43 Z M 115.07 23.10 L 115.07 19.77 L 109.76 19.77 L 109.76 23.10 Z" xml:space="preserve" style="font-weight:613;font-size:21.3333px;line-height:1.2;font-family:'Dream Han Sans SC';-inkscape-font-specification:'Dream Han Sans SC weight=613';text-align:start;writing-mode:lr-tb;direction:ltr;text-anchor:start;fill:#ffffff" id="text8" data-original-text="长崎县西南部" data-original-element="text"/>
</svg>