<?xml version="1.0" ?>
<svg xmlns="http://www.w3.org/2000/svg" xmlns:ns1="http://sodipodi.sourceforge.net/DTD/sodipodi-0.dtd" xmlns:ns2="http://www.inkscape.org/namespaces/inkscape" version="1.1" width="208" height="32" viewBox="0,0,208,32" id="svg7" ns1:docname="0e7fbf95b27c3955d8cb5843cb943976.svg" ns2:version="1.4.2 (f4327f4, 2025-05-13)">
  <defs id="defs7"/>
  <ns1:namedview id="namedview7" pagecolor="#505050" bordercolor="#eeeeee" borderopacity="1" ns2:showpageshadow="0" ns2:pageopacity="0" ns2:pagecheckerboard="0" ns2:deskcolor="#505050" ns2:zoom="8.5240385" ns2:cx="57.073886" ns2:cy="-2.7569092" ns2:window-width="1920" ns2:window-height="945" ns2:window-x="-9" ns2:window-y="40" ns2:window-maximized="1" ns2:current-layer="svg7"/>
  <g transform="translate(-240,-164)" id="g7">
    <g data-paper-data="{&quot;isPaintingLayer&quot;:true}" fill-rule="nonzero" stroke="none" stroke-linecap="butt" stroke-linejoin="miter" stroke-miterlimit="10" stroke-dasharray="" stroke-dashoffset="0" style="mix-blend-mode: normal" id="g6">
      <path d="M240,196v-32h208v32z" fill="none" stroke-width="0" id="path1"/>
    </g>
  </g>
  <path d="M 11.66 14.99 L 13.65 14.99 Q 13.60 16.62 13.43 18.01 Q 14.04 20.38 15.54 21.94 Q 17.10 23.56 19.98 24.05 Q 19.76 24.24 19.29 24.88 Q 19.29 24.88 18.89 25.52 Q 18.89 25.52 18.76 25.78 Q 16.65 25.31 13.84 23.24 Q 13.84 23.24 13.00 21.71 Q 12.86 21.45 12.72 21.20 Q 12.53 21.71 12.27 22.15 Q 11.53 23.46 8.61 25.27 Q 8.61 25.27 6.18 25.84 Q 6.10 25.58 5.69 24.95 Q 5.69 24.95 5.26 24.31 Q 5.26 24.31 5.04 24.11 Q 6.84 23.73 9.19 22.64 Q 9.19 22.64 10.60 21.17 Q 10.60 21.17 11.31 19.19 Q 11.31 19.19 11.62 16.60 Q 11.62 16.60 11.66 14.99 Z M 11.74 6.04 L 13.75 6.04 Q 13.69 8.24 13.43 9.90 Q 13.35 10.46 13.22 10.98 Q 14.00 11.35 14.88 11.85 Q 16.14 12.55 18.46 13.98 Q 18.46 13.98 19.21 14.58 L 17.97 16.15 Q 17.29 15.56 15.01 14.04 Q 15.01 14.04 13.73 13.30 Q 13.15 12.96 12.57 12.63 Q 12.53 12.73 12.49 12.79 Q 11.82 14.02 9.21 15.71 Q 9.21 15.71 7.05 16.26 Q 6.97 16.03 6.59 15.39 Q 6.59 15.39 6.14 14.81 Q 6.14 14.81 5.94 14.62 Q 7.91 14.17 10.19 12.83 Q 10.19 12.83 11.31 10.82 Q 11.31 10.82 11.70 7.99 Q 11.70 7.99 11.74 6.04 Z M 0.38 24.11 Q 0.89 23.30 2.13 21.08 Q 2.13 21.08 3.41 18.59 Q 3.41 18.59 3.96 17.37 L 5.55 18.70 Q 5.06 19.80 3.94 22.15 Q 3.94 22.15 2.76 24.44 Q 2.76 24.44 2.19 25.44 Z M 17.01 16.56 L 19.09 17.27 Q 18.68 17.97 17.72 19.45 Q 17.72 19.45 16.80 20.77 Q 16.80 20.77 16.38 21.26 L 14.73 20.63 Q 15.14 20.08 15.99 18.67 Q 15.99 18.67 16.76 17.19 Q 16.76 17.19 17.01 16.56 Z M 7.81 16.71 L 9.66 17.09 Q 9.36 18.27 8.31 20.73 Q 8.31 20.73 7.65 21.57 L 5.90 20.73 Q 6.52 20.02 7.54 17.82 Q 7.54 17.82 7.81 16.71 Z M 0.97 7.79 L 2.21 6.42 Q 2.85 6.73 4.30 7.56 Q 4.30 7.56 5.62 8.41 Q 5.62 8.41 6.04 8.80 L 4.75 10.35 Q 4.37 9.95 3.06 9.03 Q 3.06 9.03 1.64 8.13 Q 1.64 8.13 0.97 7.79 Z M -0.16 13.57 L 1.10 12.21 Q 1.76 12.51 3.21 13.30 Q 3.21 13.30 4.53 14.11 Q 4.53 14.11 4.96 14.47 L 3.64 16.01 Q 3.25 15.64 1.95 14.77 Q 1.95 14.77 0.50 13.89 Q 0.50 13.89 -0.16 13.57 Z M 16.82 7.30 L 18.85 7.99 Q 18.21 8.99 16.82 10.98 Q 16.82 10.98 16.22 11.67 L 14.67 11.06 Q 15.03 10.57 15.84 9.25 Q 15.84 9.25 16.56 7.88 Q 16.56 7.88 16.82 7.30 Z M 8.10 7.34 L 9.85 7.73 Q 9.56 8.78 8.56 11.04 Q 8.56 11.04 7.93 11.80 L 6.22 11.10 Q 6.79 10.46 7.81 8.37 Q 7.81 8.37 8.10 7.34 Z M 33.19 6.02 L 35.11 6.49 Q 34.82 7.34 34.48 8.15 L 38.14 8.15 L 38.49 8.07 L 39.75 8.62 Q 39.18 10.61 38.20 12.25 Q 37.51 13.40 36.68 14.38 Q 37.49 15.09 38.41 15.71 Q 39.75 16.62 41.40 17.19 Q 41.21 17.37 40.71 17.99 Q 40.71 17.99 40.28 18.61 Q 40.28 18.61 40.14 18.88 Q 39.93 18.80 39.73 18.70 L 39.73 25.74 L 37.79 25.74 L 37.79 25.03 L 33.01 25.03 L 33.01 25.80 L 31.16 25.80 L 31.16 18.72 Q 30.69 18.96 30.22 19.14 Q 30.02 18.80 29.69 18.35 Q 29.67 18.31 29.65 18.29 L 29.65 18.29 L 27.13 18.29 L 27.13 21.69 Q 28.47 21.38 29.81 21.06 L 30.00 22.85 Q 27.76 23.41 23.30 24.48 Q 23.30 24.48 21.55 24.90 L 21.22 22.97 Q 21.71 22.87 22.24 22.75 L 22.24 15.48 L 23.91 15.48 L 23.91 22.40 Q 24.59 22.26 25.31 22.11 L 25.31 13.69 L 22.30 13.69 L 22.30 6.89 L 29.45 6.89 L 29.45 12.40 Q 30.63 11.31 31.56 9.70 Q 32.61 7.95 33.19 6.02 Z M 29.65 17.39 Q 30.75 16.92 31.83 16.22 Q 33.07 15.39 34.17 14.34 Q 33.46 13.47 32.91 12.57 Q 32.69 12.21 32.48 11.87 Q 31.69 13.02 30.81 13.89 Q 30.67 13.71 30.10 13.22 Q 30.10 13.22 29.79 12.96 Q 29.60 12.81 29.45 12.70 L 29.45 13.69 L 27.13 13.69 L 27.13 16.52 L 29.65 16.52 Z M 37.79 23.28 L 37.79 19.72 L 33.01 19.72 L 33.01 23.28 Z M 24.07 8.62 L 24.07 11.96 L 27.57 11.96 L 27.57 8.62 Z M 35.36 13.02 Q 35.94 12.32 36.41 11.55 Q 36.90 10.74 37.26 9.88 L 33.68 9.88 Q 33.56 10.08 33.48 10.25 Q 33.80 10.84 34.19 11.47 Q 34.72 12.25 35.36 13.02 Z M 32.44 18.01 L 38.37 18.01 Q 37.73 17.63 37.13 17.21 Q 36.21 16.50 35.43 15.73 Q 34.40 16.71 33.23 17.50 Q 32.85 17.76 32.44 18.01 Z M 49.19 17.82 L 51.04 17.82 L 51.04 22.26 L 54.56 22.26 L 54.56 18.65 L 56.40 18.65 L 56.40 23.97 Q 56.61 23.97 56.80 23.97 Q 57.50 23.99 57.82 23.99 Q 58.11 23.99 58.46 23.88 Q 58.46 23.88 58.62 23.73 Q 58.87 23.48 59.25 21.73 Q 59.25 21.73 59.41 20.04 Q 59.51 18.82 59.62 17.09 L 45.55 17.09 L 45.55 7.95 L 50.42 7.95 Q 50.53 7.64 50.66 7.30 Q 50.93 6.56 51.06 5.96 L 53.43 6.20 Q 53.08 6.99 52.66 7.73 Q 52.60 7.84 52.53 7.95 L 59.21 7.95 L 59.21 8.22 Q 59.19 8.50 59.17 8.66 Q 59.06 10.29 58.78 12.40 Q 58.78 12.40 58.44 13.62 Q 58.44 13.62 58.19 13.89 Q 57.93 14.20 57.36 14.45 Q 57.36 14.45 56.95 14.49 Q 56.63 14.54 55.56 14.56 Q 55.56 14.56 54.94 14.54 Q 54.90 14.11 54.65 13.10 Q 54.65 13.10 54.43 12.77 Q 54.94 12.81 55.79 12.83 Q 55.79 12.83 56.01 12.83 Q 56.20 12.83 56.50 12.77 Q 56.50 12.77 56.61 12.63 Q 56.85 12.38 57.01 11.40 Q 57.12 10.80 57.21 9.76 L 47.52 9.76 L 47.52 15.30 L 61.67 15.30 L 61.67 15.46 Q 61.65 15.62 61.65 16.01 Q 61.65 16.01 61.62 16.15 Q 61.47 19.06 61.13 22.62 Q 61.13 22.62 60.66 24.54 Q 60.66 24.54 60.32 24.92 Q 59.98 25.33 59.21 25.63 Q 59.21 25.63 58.68 25.70 Q 58.21 25.74 56.71 25.74 Q 56.71 25.74 55.89 25.72 Q 55.83 25.29 55.69 24.78 Q 55.65 24.64 55.61 24.54 L 54.56 24.54 L 54.56 23.95 L 44.02 23.95 L 44.02 18.70 L 45.86 18.70 L 45.86 22.26 L 49.19 22.26 Z M 48.63 11.72 L 49.64 10.44 Q 50.38 10.72 52.08 11.45 Q 52.08 11.45 53.65 12.23 Q 53.65 12.23 54.16 12.57 L 53.08 14.00 Q 52.62 13.66 51.08 12.83 Q 51.08 12.83 49.38 12.02 Q 49.38 12.02 48.63 11.72 Z M 71.91 7.30 Q 73.19 7.24 75.88 7.03 Q 75.88 7.03 78.45 6.73 Q 78.45 6.73 80.67 6.32 Q 80.67 6.32 81.50 6.07 L 83.17 7.56 Q 81.74 8.01 78.12 8.60 Q 78.12 8.60 76.19 8.78 Q 75.04 8.86 73.95 8.92 L 73.95 12.04 Q 73.95 12.12 73.95 12.19 L 83.55 12.19 L 83.55 14.07 L 79.75 14.07 L 79.75 22.28 L 77.77 22.28 L 77.77 14.07 L 73.89 14.07 Q 73.87 14.30 73.87 14.52 Q 73.78 15.88 73.29 18.67 Q 73.29 18.67 72.38 21.30 Q 72.38 21.30 71.63 22.38 Q 71.46 22.20 70.81 21.73 Q 70.81 21.73 70.14 21.30 Q 70.14 21.30 69.92 21.20 Q 70.83 19.85 71.67 16.62 Q 71.67 16.62 71.91 13.38 Q 71.91 13.38 71.91 12.02 Z M 68.90 13.73 L 68.90 21.49 Q 69.08 21.62 69.32 21.77 Q 69.73 22.07 70.32 22.42 Q 71.39 23.07 74.23 23.41 Q 74.23 23.41 76.02 23.41 Q 76.92 23.41 79.01 23.36 Q 79.01 23.36 81.12 23.24 Q 81.12 23.24 83.06 23.07 Q 83.06 23.07 83.88 22.97 Q 83.74 23.24 83.49 24.01 Q 83.49 24.01 83.29 24.80 Q 83.29 24.80 83.27 25.07 Q 82.70 25.11 80.91 25.21 Q 80.91 25.21 78.77 25.27 Q 78.77 25.27 76.75 25.31 Q 76.75 25.31 75.96 25.31 Q 73.95 25.31 71.10 24.82 Q 71.10 24.82 69.96 24.15 Q 69.26 23.75 68.21 22.91 Q 68.21 22.91 67.86 22.91 Q 67.49 22.91 66.64 23.69 Q 66.64 23.69 65.70 24.92 Q 65.70 24.92 65.23 25.61 L 63.87 23.73 Q 64.95 22.56 66.01 21.83 Q 66.50 21.49 66.93 21.32 L 66.93 15.71 L 64.24 15.71 L 64.24 13.73 Z M 64.71 7.44 L 66.27 6.45 Q 66.85 6.99 68.08 8.31 Q 68.08 8.31 69.20 9.61 Q 69.20 9.61 69.53 10.12 L 67.90 11.27 Q 67.60 10.74 66.53 9.41 Q 66.53 9.41 65.29 8.03 Q 65.29 8.03 64.71 7.44 Z M 93.30 11.94 L 103.71 11.94 L 103.71 12.10 Q 103.69 12.28 103.69 12.70 Q 103.69 12.70 103.69 12.83 Q 103.61 14.73 103.52 16.26 L 105.16 16.26 L 105.16 18.10 L 103.42 18.10 Q 103.32 19.76 103.20 20.94 L 104.58 20.94 L 104.58 22.69 L 102.97 22.69 Q 102.86 23.24 102.77 23.64 Q 102.56 24.41 102.28 24.76 Q 101.94 25.21 101.17 25.54 Q 101.17 25.54 100.68 25.63 Q 100.21 25.67 98.76 25.67 Q 98.76 25.67 97.97 25.63 Q 97.95 25.25 97.70 24.29 Q 97.70 24.29 97.46 23.95 Q 98.23 24.01 99.53 24.05 Q 99.53 24.05 99.82 24.05 Q 100.11 24.05 100.47 23.90 Q 100.47 23.90 100.62 23.71 Q 100.86 23.48 101.02 22.75 Q 101.02 22.73 101.04 22.69 L 91.80 22.69 Q 92.02 21.64 92.23 20.32 Q 92.41 19.25 92.57 18.10 L 90.62 18.10 L 90.62 16.26 L 92.81 16.26 Q 92.92 15.46 93.02 14.64 Q 93.20 13.22 93.30 11.94 Z M 93.83 6.02 L 95.77 6.52 Q 95.48 7.44 95.10 8.35 L 104.61 8.35 L 104.61 10.16 L 94.26 10.16 Q 93.88 10.90 93.45 11.61 Q 92.77 12.77 92.04 13.64 Q 91.86 13.47 91.21 13.04 Q 91.21 13.04 90.55 12.63 Q 90.55 12.63 90.31 12.51 Q 91.06 11.72 92.39 9.63 Q 92.39 9.63 93.45 7.24 Q 93.45 7.24 93.83 6.02 Z M 85.96 24.39 Q 86.39 23.56 87.42 21.26 Q 87.42 21.26 88.48 18.70 Q 88.48 18.70 88.91 17.46 L 90.46 18.57 Q 90.08 19.70 89.14 22.13 Q 89.14 22.13 88.16 24.48 Q 88.16 24.48 87.71 25.48 Z M 101.32 20.94 Q 101.32 20.83 101.35 20.73 Q 101.47 19.63 101.57 18.10 L 97.21 18.10 Q 97.78 18.55 98.42 19.14 Q 99.13 19.82 99.51 20.36 L 98.68 20.94 Z M 86.52 7.71 L 87.65 6.34 Q 88.26 6.62 89.70 7.39 Q 89.70 7.39 90.98 8.17 Q 90.98 8.17 91.38 8.52 L 90.21 10.06 Q 89.82 9.72 88.56 8.86 Q 88.56 8.86 87.14 8.03 Q 87.14 8.03 86.52 7.71 Z M 95.91 18.67 L 96.85 18.10 L 94.43 18.10 Q 94.28 19.29 94.12 20.38 Q 94.07 20.65 94.02 20.94 L 98.17 20.94 Q 97.82 20.49 97.27 19.94 Q 96.58 19.23 95.91 18.67 Z M 85.35 13.87 L 86.45 12.49 Q 87.05 12.77 88.42 13.51 Q 88.42 13.51 89.61 14.28 Q 89.61 14.28 89.99 14.62 L 88.82 16.15 Q 88.48 15.81 87.28 14.99 Q 87.28 14.99 85.94 14.17 Q 85.94 14.17 85.35 13.87 Z M 101.69 16.26 Q 101.73 15.07 101.79 13.66 L 97.76 13.66 Q 98.27 14.09 98.82 14.60 Q 99.47 15.24 99.80 15.71 L 99.04 16.26 Z M 96.48 14.22 L 97.29 13.66 L 94.99 13.66 Q 94.94 14.17 94.88 14.71 Q 94.77 15.50 94.69 16.26 L 98.50 16.26 Q 98.21 15.86 97.72 15.36 Q 97.10 14.71 96.48 14.22 Z" xml:space="preserve" style="font-weight:613;font-size:21.3333px;line-height:1.2;font-family:'Dream Han Sans SC';-inkscape-font-specification:'Dream Han Sans SC weight=613';text-align:start;writing-mode:lr-tb;direction:ltr;text-anchor:start;fill:#ffffff" id="text7" data-original-text="淡路岛近海" data-original-element="text"/>
</svg>