<?xml version="1.0" ?>
<svg xmlns="http://www.w3.org/2000/svg" xmlns:ns1="http://sodipodi.sourceforge.net/DTD/sodipodi-0.dtd" xmlns:ns2="http://www.inkscape.org/namespaces/inkscape" version="1.1" width="208" height="32" viewBox="0,0,208,32" id="svg8" ns1:docname="0eb1a16c5aa4afa1cdf3e309cf83b270.svg" ns2:version="1.4.2 (f4327f4, 2025-05-13)">
  <defs id="defs8"/>
  <ns1:namedview id="namedview8" pagecolor="#505050" bordercolor="#eeeeee" borderopacity="1" ns2:showpageshadow="0" ns2:pageopacity="0" ns2:pagecheckerboard="0" ns2:deskcolor="#505050" ns2:zoom="6.0274054" ns2:cx="59.478329" ns2:cy="8.3783978" ns2:window-width="1920" ns2:window-height="945" ns2:window-x="-9" ns2:window-y="40" ns2:window-maximized="1" ns2:current-layer="svg8"/>
  <g transform="translate(-240,-164)" id="g8">
    <g data-paper-data="{&quot;isPaintingLayer&quot;:true}" fill-rule="nonzero" stroke="none" stroke-linecap="butt" stroke-linejoin="miter" stroke-miterlimit="10" stroke-dasharray="" stroke-dashoffset="0" style="mix-blend-mode: normal" id="g7">
      <path d="M240,196v-32h208v32z" fill="none" stroke-width="0" id="path1"/>
    </g>
  </g>
  <path d="M 0.36 14.19 L 8.83 14.19 L 8.83 9.44 Q 7.46 9.61 6.10 9.75 Q 4.04 9.99 2.05 10.16 Q 2.03 9.89 1.84 9.24 Q 1.84 9.24 1.62 8.61 Q 1.62 8.61 1.51 8.37 Q 3.45 8.20 7.48 7.73 Q 7.48 7.73 11.35 7.13 Q 11.35 7.13 14.74 6.43 Q 14.74 6.43 16.05 6.02 L 17.58 7.73 Q 16.00 8.18 14.14 8.57 Q 12.61 8.86 10.98 9.12 L 10.98 14.19 L 19.63 14.19 L 19.63 16.16 L 10.98 16.16 L 10.98 25.61 L 8.83 25.61 L 8.83 16.16 L 0.36 16.16 Z M 33.75 6.19 L 35.84 6.19 L 35.84 12.98 L 41.23 12.98 L 41.23 14.96 L 35.84 14.96 L 35.84 25.61 L 33.75 25.61 L 33.75 14.96 L 28.75 14.96 L 28.75 20.19 L 24.03 20.19 L 24.03 21.88 L 22.16 21.88 L 22.16 8.02 L 28.75 8.02 L 28.75 12.98 L 33.75 12.98 Z M 24.03 18.32 L 26.86 18.32 L 26.86 9.89 L 24.03 9.89 Z M 43.12 17.65 L 46.42 17.65 L 46.42 6.82 L 59.29 6.82 L 59.29 17.65 L 62.19 17.65 L 62.19 19.46 L 51.45 19.46 Q 50.33 20.74 49.07 21.88 Q 48.47 22.43 47.89 22.90 L 57.25 22.51 Q 57.03 22.28 56.76 22.04 Q 55.81 21.11 54.89 20.36 L 56.60 19.59 Q 57.51 20.34 59.47 22.17 Q 59.47 22.17 61.18 23.94 Q 61.18 23.94 61.71 24.63 L 59.97 25.56 Q 59.47 24.90 58.73 24.08 Q 55.98 24.20 53.95 24.30 Q 51.78 24.43 48.81 24.59 Q 48.81 24.59 46.93 24.71 Q 46.93 24.71 45.81 24.84 Q 45.81 24.84 45.18 24.95 Q 45.18 24.95 44.97 25.03 Q 44.91 24.82 44.69 24.14 Q 44.69 24.14 44.44 23.39 Q 44.44 23.39 44.33 23.13 Q 44.65 23.04 45.40 22.62 Q 45.40 22.62 45.81 22.28 Q 46.12 22.07 47.42 20.91 Q 47.42 20.91 48.21 20.09 Q 48.49 19.78 48.76 19.46 L 43.12 19.46 Z M 48.36 17.65 L 57.25 17.65 L 57.25 15.67 L 48.36 15.67 Z M 57.25 10.46 L 57.25 8.52 L 48.36 8.52 L 48.36 10.46 Z M 57.25 14.00 L 57.25 12.13 L 48.36 12.13 L 48.36 14.00 Z M 66.96 17.05 Q 66.92 16.84 66.67 16.10 Q 66.67 16.10 66.37 15.28 Q 66.37 15.28 66.24 15.00 Q 66.65 14.88 67.41 14.04 Q 67.41 14.04 67.92 13.36 Q 68.18 13.02 68.69 12.25 Q 69.16 11.52 69.73 10.52 L 64.90 10.52 L 64.90 8.59 L 70.79 8.59 Q 70.89 8.37 71.01 8.14 Q 71.64 6.92 72.13 5.66 L 74.31 6.49 Q 73.82 7.53 73.28 8.59 L 82.98 8.59 L 82.98 10.52 L 72.19 10.52 Q 71.40 11.89 70.57 13.13 Q 69.99 14.00 69.42 14.77 L 73.94 14.77 L 73.94 11.83 L 75.99 11.83 L 75.99 14.77 L 82.05 14.77 L 82.05 16.73 L 75.99 16.73 L 75.99 23.02 Q 75.99 23.86 75.59 24.79 Q 75.59 24.79 75.00 25.05 Q 74.45 25.30 72.74 25.44 Q 72.74 25.44 71.58 25.44 Q 71.54 25.14 71.28 24.39 Q 71.28 24.39 70.99 23.65 Q 70.99 23.65 70.83 23.37 Q 71.70 23.39 73.23 23.41 Q 73.23 23.41 73.51 23.39 Q 73.78 23.39 73.94 23.22 Q 73.94 23.22 73.94 23.00 L 73.94 16.73 L 69.38 16.73 Q 68.75 16.73 67.75 16.79 Q 67.75 16.79 67.10 16.95 Q 67.10 16.95 66.96 17.05 Z M 68.55 18.24 L 70.57 18.80 Q 70.06 19.93 68.69 22.15 Q 68.69 22.15 67.18 24.10 Q 67.18 24.10 66.39 24.82 Q 66.20 24.65 65.58 24.14 Q 65.58 24.14 64.94 23.67 Q 64.94 23.67 64.68 23.51 Q 65.88 22.55 67.92 19.74 Q 67.92 19.74 68.55 18.24 Z M 77.48 19.05 L 79.17 18.22 Q 79.95 19.03 81.66 20.94 Q 81.66 20.94 83.12 22.82 Q 83.12 22.82 83.55 23.55 L 81.72 24.52 Q 81.33 23.79 79.91 21.88 Q 79.91 21.88 78.30 19.89 Q 78.30 19.89 77.48 19.05 Z M 85.87 7.77 L 94.21 7.77 L 94.21 5.88 L 96.40 5.88 L 96.40 7.77 L 104.72 7.77 L 104.72 9.67 L 96.40 9.67 L 96.40 11.66 L 103.74 11.66 L 103.74 23.41 Q 103.74 24.22 103.32 25.08 Q 103.32 25.08 102.14 25.50 Q 102.14 25.50 100.29 25.59 Q 100.29 25.59 98.98 25.59 Q 98.92 25.20 98.51 24.20 Q 98.51 24.20 98.31 23.84 Q 98.92 23.86 100.10 23.88 Q 100.10 23.88 101.04 23.86 Q 101.04 23.86 101.20 23.86 Q 101.50 23.86 101.69 23.67 Q 101.69 23.67 101.69 23.41 L 101.69 13.51 L 88.90 13.51 L 88.90 25.56 L 86.87 25.56 L 86.87 11.66 L 94.21 11.66 L 94.21 9.67 L 85.87 9.67 Z M 90.39 16.61 L 92.55 16.61 Q 92.42 16.12 92.08 15.43 Q 91.73 14.73 91.37 14.15 L 92.95 13.66 Q 93.38 14.21 94.08 15.58 Q 94.08 15.58 94.25 16.10 L 92.78 16.61 L 96.25 16.61 Q 96.49 16.20 96.74 15.71 Q 97.00 15.18 97.49 14.11 Q 97.49 14.11 97.66 13.66 L 99.37 14.17 Q 98.96 14.96 98.51 15.75 Q 98.24 16.22 97.98 16.61 L 100.26 16.61 L 100.26 18.20 L 96.19 18.20 L 96.19 20.04 L 100.67 20.04 L 100.67 21.70 L 96.19 21.70 L 96.19 25.12 L 94.28 25.12 L 94.28 21.70 L 89.94 21.70 L 89.94 20.04 L 94.28 20.04 L 94.28 18.20 L 90.39 18.20 Z M 114.69 7.07 Q 115.97 7.00 118.66 6.79 Q 118.66 6.79 121.23 6.49 Q 121.23 6.49 123.45 6.09 Q 123.45 6.09 124.29 5.84 L 125.95 7.33 Q 124.53 7.77 120.90 8.37 Q 120.90 8.37 118.97 8.54 Q 117.83 8.63 116.73 8.69 L 116.73 11.80 Q 116.73 11.89 116.73 11.95 L 126.34 11.95 L 126.34 13.84 L 122.54 13.84 L 122.54 22.04 L 120.56 22.04 L 120.56 13.84 L 116.67 13.84 Q 116.65 14.07 116.65 14.28 Q 116.57 15.65 116.08 18.44 Q 116.08 18.44 115.16 21.07 Q 115.16 21.07 114.41 22.15 Q 114.24 21.96 113.60 21.49 Q 113.60 21.49 112.92 21.07 Q 112.92 21.07 112.70 20.96 Q 113.62 19.62 114.45 16.39 Q 114.45 16.39 114.69 13.15 Q 114.69 13.15 114.69 11.78 Z M 111.68 13.49 L 111.68 21.25 Q 111.87 21.39 112.11 21.53 Q 112.51 21.84 113.11 22.19 Q 114.17 22.84 117.01 23.18 Q 117.01 23.18 118.81 23.18 Q 119.70 23.18 121.80 23.13 Q 121.80 23.13 123.90 23.00 Q 123.90 23.00 125.85 22.84 Q 125.85 22.84 126.66 22.73 Q 126.53 23.00 126.28 23.77 Q 126.28 23.77 126.08 24.57 Q 126.08 24.57 126.06 24.84 Q 125.48 24.88 123.69 24.97 Q 123.69 24.97 121.56 25.03 Q 121.56 25.03 119.54 25.08 Q 119.54 25.08 118.74 25.08 Q 116.73 25.08 113.88 24.59 Q 113.88 24.59 112.74 23.92 Q 112.05 23.51 110.99 22.68 Q 110.99 22.68 110.64 22.68 Q 110.28 22.68 109.42 23.45 Q 109.42 23.45 108.48 24.69 Q 108.48 24.69 108.01 25.38 L 106.65 23.49 Q 107.73 22.33 108.80 21.60 Q 109.29 21.25 109.71 21.09 L 109.71 15.47 L 107.03 15.47 L 107.03 13.49 Z M 107.49 7.20 L 109.06 6.21 Q 109.63 6.75 110.87 8.08 Q 110.87 8.08 111.98 9.38 Q 111.98 9.38 112.32 9.89 L 110.68 11.03 Q 110.38 10.50 109.32 9.18 Q 109.32 9.18 108.08 7.79 Q 108.08 7.79 107.49 7.20 Z M 136.09 11.70 L 146.49 11.70 L 146.49 11.87 Q 146.47 12.04 146.47 12.46 Q 146.47 12.46 146.47 12.60 Q 146.39 14.49 146.31 16.02 L 147.94 16.02 L 147.94 17.87 L 146.20 17.87 Q 146.11 19.52 145.98 20.70 L 147.37 20.70 L 147.37 22.45 L 145.75 22.45 Q 145.64 23.00 145.56 23.41 Q 145.35 24.18 145.07 24.52 Q 144.72 24.97 143.95 25.30 Q 143.95 25.30 143.46 25.40 Q 142.99 25.44 141.55 25.44 Q 141.55 25.44 140.75 25.40 Q 140.73 25.01 140.48 24.05 Q 140.48 24.05 140.24 23.71 Q 141.01 23.77 142.32 23.82 Q 142.32 23.82 142.61 23.82 Q 142.89 23.82 143.25 23.67 Q 143.25 23.67 143.40 23.47 Q 143.64 23.24 143.81 22.51 Q 143.81 22.49 143.83 22.45 L 134.59 22.45 Q 134.81 21.41 135.01 20.09 Q 135.19 19.01 135.36 17.87 L 133.40 17.87 L 133.40 16.02 L 135.60 16.02 Q 135.70 15.22 135.81 14.41 Q 135.98 12.98 136.09 11.70 Z M 136.62 5.78 L 138.56 6.28 Q 138.26 7.20 137.88 8.12 L 147.39 8.12 L 147.39 9.93 L 137.05 9.93 Q 136.66 10.67 136.23 11.38 Q 135.56 12.53 134.83 13.41 Q 134.64 13.23 133.99 12.80 Q 133.99 12.80 133.34 12.40 Q 133.34 12.40 133.10 12.27 Q 133.85 11.48 135.17 9.40 Q 135.17 9.40 136.23 7.00 Q 136.23 7.00 136.62 5.78 Z M 128.74 24.16 Q 129.17 23.33 130.20 21.02 Q 130.20 21.02 131.26 18.46 Q 131.26 18.46 131.69 17.22 L 133.24 18.34 Q 132.87 19.46 131.92 21.90 Q 131.92 21.90 130.94 24.24 Q 130.94 24.24 130.49 25.24 Z M 144.11 20.70 Q 144.11 20.60 144.13 20.49 Q 144.25 19.40 144.36 17.87 L 139.99 17.87 Q 140.57 18.32 141.20 18.91 Q 141.91 19.59 142.30 20.13 L 141.46 20.70 Z M 129.31 7.47 L 130.43 6.11 Q 131.05 6.39 132.48 7.16 Q 132.48 7.16 133.76 7.94 Q 133.76 7.94 134.16 8.28 L 132.99 9.83 Q 132.61 9.48 131.35 8.63 Q 131.35 8.63 129.92 7.79 Q 129.92 7.79 129.31 7.47 Z M 138.69 18.44 L 139.63 17.87 L 137.21 17.87 Q 137.07 19.05 136.90 20.15 Q 136.86 20.42 136.81 20.70 L 140.95 20.70 Q 140.61 20.25 140.06 19.70 Q 139.37 18.99 138.69 18.44 Z M 128.13 13.64 L 129.23 12.25 Q 129.84 12.53 131.20 13.27 Q 131.20 13.27 132.39 14.04 Q 132.39 14.04 132.78 14.39 L 131.61 15.92 Q 131.26 15.58 130.07 14.75 Q 130.07 14.75 128.72 13.94 Q 128.72 13.94 128.13 13.64 Z M 144.47 16.02 Q 144.51 14.84 144.58 13.43 L 140.55 13.43 Q 141.06 13.86 141.61 14.37 Q 142.25 15.00 142.59 15.47 L 141.83 16.02 Z M 139.26 13.98 L 140.08 13.43 L 137.78 13.43 Q 137.72 13.94 137.66 14.47 Q 137.56 15.26 137.47 16.02 L 141.29 16.02 Q 140.99 15.63 140.50 15.13 Q 139.88 14.47 139.26 13.98 Z" xml:space="preserve" style="font-weight:613;font-size:21.3333px;line-height:1.2;font-family:'Dream Han Sans SC';-inkscape-font-specification:'Dream Han Sans SC weight=613';text-align:start;writing-mode:lr-tb;direction:ltr;text-anchor:start;fill:#ffffff" id="text8" data-original-text="千叶县东南近海" data-original-element="text"/>
</svg>