<?xml version="1.0" ?>
<svg xmlns="http://www.w3.org/2000/svg" xmlns:ns1="http://sodipodi.sourceforge.net/DTD/sodipodi-0.dtd" xmlns:ns2="http://www.inkscape.org/namespaces/inkscape" version="1.1" width="208" height="32" viewBox="0,0,208,32" id="svg7" ns1:docname="0ed53935b4343106dd4b11d5a18a0cf3.svg" ns2:version="1.4.2 (f4327f4, 2025-05-13)">
  <defs id="defs7"/>
  <ns1:namedview id="namedview7" pagecolor="#505050" bordercolor="#eeeeee" borderopacity="1" ns2:showpageshadow="0" ns2:pageopacity="0" ns2:pagecheckerboard="0" ns2:deskcolor="#505050" ns2:zoom="8.5240385" ns2:cx="45.576988" ns2:cy="16.013536" ns2:window-width="1920" ns2:window-height="945" ns2:window-x="-9" ns2:window-y="40" ns2:window-maximized="1" ns2:current-layer="svg7"/>
  <g transform="translate(-240,-164)" id="g7">
    <g data-paper-data="{&quot;isPaintingLayer&quot;:true}" fill-rule="nonzero" stroke="none" stroke-linecap="butt" stroke-linejoin="miter" stroke-miterlimit="10" stroke-dasharray="" stroke-dashoffset="0" style="mix-blend-mode: normal" id="g6">
      <path d="M240,196v-32h208v32z" fill="none" stroke-width="0" id="path1"/>
    </g>
  </g>
  <path d="M 1.11 7.46 L 19.80 7.46 L 19.80 9.44 L 9.33 9.44 Q 8.60 11.43 7.58 13.41 Q 7.25 14.06 6.89 14.65 L 18.54 14.65 L 18.54 25.68 L 16.40 25.68 L 16.40 24.32 L 6.91 24.32 L 6.91 25.72 L 4.86 25.72 L 4.86 17.64 Q 3.41 19.45 1.60 20.82 Q 1.43 20.58 0.94 20.01 Q 0.94 20.01 0.40 19.43 Q 0.40 19.43 0.19 19.26 Q 1.94 18.01 4.73 14.44 Q 4.73 14.44 5.73 12.45 Q 6.48 10.92 7.02 9.44 L 1.11 9.44 Z M 16.40 22.37 L 16.40 16.59 L 6.91 16.59 L 6.91 22.37 Z M 30.34 10.81 L 39.87 10.81 L 39.87 21.06 L 30.34 21.06 Z M 22.14 11.11 L 24.56 11.11 L 24.56 6.24 L 26.47 6.24 L 26.47 11.11 L 28.69 11.11 L 28.69 13.01 L 26.47 13.01 L 26.47 18.68 Q 27.69 18.23 28.89 17.81 L 29.27 19.66 Q 27.49 20.37 23.87 21.78 Q 23.87 21.78 22.40 22.35 L 21.71 20.31 Q 22.61 20.03 23.79 19.62 Q 24.17 19.49 24.56 19.37 L 24.56 13.01 L 22.14 13.01 Z M 27.18 23.06 L 41.66 23.06 L 41.66 24.93 L 27.18 24.93 Z M 28.86 7.02 L 41.35 7.02 L 41.35 8.85 L 28.86 8.85 Z M 32.25 16.59 L 32.25 19.31 L 37.89 19.31 L 37.89 16.59 Z M 32.25 12.54 L 32.25 14.97 L 37.89 14.97 L 37.89 12.54 Z M 49.78 17.70 L 51.63 17.70 L 51.63 22.14 L 55.15 22.14 L 55.15 18.54 L 56.98 18.54 L 56.98 23.85 Q 57.19 23.85 57.39 23.85 Q 58.09 23.87 58.41 23.87 Q 58.69 23.87 59.05 23.77 Q 59.05 23.77 59.20 23.61 Q 59.45 23.36 59.84 21.61 Q 59.84 21.61 59.99 19.92 Q 60.10 18.70 60.20 16.97 L 46.14 16.97 L 46.14 7.83 L 51.00 7.83 Q 51.12 7.53 51.24 7.18 Q 51.52 6.44 51.65 5.84 L 54.02 6.08 Q 53.67 6.87 53.24 7.61 Q 53.18 7.72 53.12 7.83 L 59.80 7.83 L 59.80 8.10 Q 59.78 8.38 59.75 8.55 Q 59.65 10.17 59.37 12.29 Q 59.37 12.29 59.03 13.51 Q 59.03 13.51 58.78 13.78 Q 58.52 14.08 57.94 14.33 Q 57.94 14.33 57.54 14.37 Q 57.21 14.42 56.15 14.44 Q 56.15 14.44 55.53 14.42 Q 55.48 13.99 55.23 12.98 Q 55.23 12.98 55.02 12.65 Q 55.53 12.69 56.38 12.71 Q 56.38 12.71 56.60 12.71 Q 56.79 12.71 57.09 12.65 Q 57.09 12.65 57.19 12.52 Q 57.43 12.27 57.60 11.29 Q 57.70 10.68 57.80 9.64 L 48.11 9.64 L 48.11 15.18 L 62.25 15.18 L 62.25 15.34 Q 62.23 15.51 62.23 15.89 Q 62.23 15.89 62.20 16.04 Q 62.06 18.94 61.71 22.51 Q 61.71 22.51 61.24 24.42 Q 61.24 24.42 60.91 24.81 Q 60.57 25.21 59.80 25.52 Q 59.80 25.52 59.27 25.58 Q 58.80 25.62 57.30 25.62 Q 57.30 25.62 56.47 25.60 Q 56.42 25.17 56.28 24.66 Q 56.23 24.53 56.19 24.42 L 55.15 24.42 L 55.15 23.83 L 44.61 23.83 L 44.61 18.58 L 46.44 18.58 L 46.44 22.14 L 49.78 22.14 Z M 49.21 11.60 L 50.22 10.32 Q 50.96 10.60 52.67 11.33 Q 52.67 11.33 54.23 12.11 Q 54.23 12.11 54.74 12.45 L 53.67 13.88 Q 53.20 13.55 51.67 12.71 Q 51.67 12.71 49.96 11.90 Q 49.96 11.90 49.21 11.60 Z M 72.49 7.18 Q 73.78 7.12 76.46 6.91 Q 76.46 6.91 79.04 6.61 Q 79.04 6.61 81.25 6.20 Q 81.25 6.20 82.09 5.95 L 83.75 7.44 Q 82.33 7.89 78.70 8.48 Q 78.70 8.48 76.78 8.66 Q 75.63 8.74 74.54 8.81 L 74.54 11.92 Q 74.54 12.01 74.54 12.07 L 84.14 12.07 L 84.14 13.95 L 80.34 13.95 L 80.34 22.16 L 78.36 22.16 L 78.36 13.95 L 74.47 13.95 Q 74.45 14.18 74.45 14.40 Q 74.37 15.77 73.88 18.56 Q 73.88 18.56 72.96 21.18 Q 72.96 21.18 72.21 22.27 Q 72.05 22.08 71.40 21.61 Q 71.40 21.61 70.72 21.18 Q 70.72 21.18 70.50 21.08 Q 71.42 19.73 72.25 16.51 Q 72.25 16.51 72.49 13.27 Q 72.49 13.27 72.49 11.90 Z M 69.48 13.61 L 69.48 21.37 Q 69.67 21.51 69.91 21.65 Q 70.32 21.95 70.91 22.31 Q 71.97 22.95 74.82 23.30 Q 74.82 23.30 76.61 23.30 Q 77.50 23.30 79.60 23.24 Q 79.60 23.24 81.70 23.12 Q 81.70 23.12 83.65 22.95 Q 83.65 22.95 84.46 22.85 Q 84.33 23.12 84.08 23.89 Q 84.08 23.89 83.88 24.68 Q 83.88 24.68 83.86 24.95 Q 83.29 24.99 81.49 25.09 Q 81.49 25.09 79.36 25.15 Q 79.36 25.15 77.34 25.19 Q 77.34 25.19 76.55 25.19 Q 74.54 25.19 71.68 24.70 Q 71.68 24.70 70.55 24.04 Q 69.85 23.63 68.80 22.80 Q 68.80 22.80 68.44 22.80 Q 68.08 22.80 67.22 23.57 Q 67.22 23.57 66.29 24.81 Q 66.29 24.81 65.82 25.49 L 64.45 23.61 Q 65.54 22.44 66.60 21.71 Q 67.09 21.37 67.52 21.20 L 67.52 15.59 L 64.83 15.59 L 64.83 13.61 Z M 65.30 7.32 L 66.86 6.33 Q 67.43 6.87 68.67 8.19 Q 68.67 8.19 69.79 9.49 Q 69.79 9.49 70.12 10.01 L 68.48 11.15 Q 68.18 10.62 67.12 9.30 Q 67.12 9.30 65.88 7.91 Q 65.88 7.91 65.30 7.32 Z M 93.89 11.82 L 104.30 11.82 L 104.30 11.98 Q 104.28 12.16 104.28 12.58 Q 104.28 12.58 104.28 12.71 Q 104.19 14.61 104.11 16.14 L 105.74 16.14 L 105.74 17.98 L 104.00 17.98 Q 103.91 19.64 103.79 20.82 L 105.17 20.82 L 105.17 22.57 L 103.56 22.57 Q 103.44 23.12 103.36 23.53 Q 103.15 24.30 102.87 24.64 Q 102.53 25.09 101.75 25.42 Q 101.75 25.42 101.27 25.52 Q 100.80 25.56 99.35 25.56 Q 99.35 25.56 98.56 25.52 Q 98.54 25.13 98.29 24.17 Q 98.29 24.17 98.05 23.83 Q 98.82 23.89 100.12 23.93 Q 100.12 23.93 100.41 23.93 Q 100.69 23.93 101.06 23.79 Q 101.06 23.79 101.20 23.59 Q 101.44 23.36 101.61 22.63 Q 101.61 22.61 101.63 22.57 L 92.39 22.57 Q 92.61 21.53 92.82 20.20 Q 92.99 19.13 93.16 17.98 L 91.20 17.98 L 91.20 16.14 L 93.40 16.14 Q 93.50 15.34 93.61 14.53 Q 93.79 13.10 93.89 11.82 Z M 94.42 5.90 L 96.36 6.40 Q 96.07 7.32 95.68 8.23 L 105.19 8.23 L 105.19 10.05 L 94.85 10.05 Q 94.46 10.79 94.04 11.49 Q 93.36 12.65 92.63 13.53 Q 92.44 13.35 91.80 12.92 Q 91.80 12.92 91.14 12.52 Q 91.14 12.52 90.90 12.39 Q 91.65 11.60 92.97 9.52 Q 92.97 9.52 94.04 7.12 Q 94.04 7.12 94.42 5.90 Z M 86.55 24.28 Q 86.97 23.44 88.00 21.14 Q 88.00 21.14 89.07 18.58 Q 89.07 18.58 89.49 17.34 L 91.05 18.45 Q 90.67 19.58 89.72 22.02 Q 89.72 22.02 88.74 24.36 Q 88.74 24.36 88.30 25.36 Z M 101.91 20.82 Q 101.91 20.71 101.93 20.61 Q 102.06 19.52 102.16 17.98 L 97.80 17.98 Q 98.37 18.43 99.00 19.03 Q 99.71 19.70 100.10 20.24 L 99.27 20.82 Z M 87.11 7.59 L 88.23 6.22 Q 88.85 6.51 90.29 7.28 Q 90.29 7.28 91.57 8.06 Q 91.57 8.06 91.96 8.40 L 90.80 9.94 Q 90.41 9.60 89.15 8.74 Q 89.15 8.74 87.72 7.91 Q 87.72 7.91 87.11 7.59 Z M 96.49 18.56 L 97.43 17.98 L 95.02 17.98 Q 94.87 19.17 94.70 20.27 Q 94.66 20.54 94.61 20.82 L 98.75 20.82 Q 98.41 20.37 97.86 19.82 Q 97.17 19.11 96.49 18.56 Z M 85.93 13.76 L 87.04 12.37 Q 87.64 12.65 89.00 13.39 Q 89.00 13.39 90.19 14.16 Q 90.19 14.16 90.58 14.51 L 89.41 16.04 Q 89.07 15.69 87.87 14.87 Q 87.87 14.87 86.53 14.06 Q 86.53 14.06 85.93 13.76 Z M 102.28 16.14 Q 102.32 14.95 102.38 13.55 L 98.35 13.55 Q 98.86 13.97 99.41 14.48 Q 100.06 15.12 100.39 15.59 L 99.63 16.14 Z M 97.07 14.10 L 97.88 13.55 L 95.58 13.55 Q 95.53 14.06 95.46 14.59 Q 95.36 15.38 95.28 16.14 L 99.09 16.14 Q 98.80 15.74 98.31 15.24 Q 97.68 14.59 97.07 14.10 Z" xml:space="preserve" style="font-weight:613;font-size:21.3333px;line-height:1.2;font-family:'Dream Han Sans SC';-inkscape-font-specification:'Dream Han Sans SC weight=613';text-align:start;writing-mode:lr-tb;direction:ltr;text-anchor:start;fill:#ffffff" id="text7" data-original-text="石垣岛近海" data-original-element="text"/>
</svg>