<?xml version="1.0" ?>
<svg xmlns="http://www.w3.org/2000/svg" xmlns:ns1="http://sodipodi.sourceforge.net/DTD/sodipodi-0.dtd" xmlns:ns2="http://www.inkscape.org/namespaces/inkscape" version="1.1" width="208" height="32" viewBox="0,0,208,32" id="svg7" ns1:docname="0f1b00fd807540e8bf1ec268db22ba6c.svg" ns2:version="1.4.2 (f4327f4, 2025-05-13)">
  <defs id="defs7"/>
  <ns1:namedview id="namedview7" pagecolor="#505050" bordercolor="#eeeeee" borderopacity="1" ns2:showpageshadow="0" ns2:pageopacity="0" ns2:pagecheckerboard="0" ns2:deskcolor="#505050" ns2:zoom="8.5240385" ns2:cx="56.72194" ns2:cy="16.013536" ns2:window-width="1920" ns2:window-height="945" ns2:window-x="-9" ns2:window-y="40" ns2:window-maximized="1" ns2:current-layer="svg7"/>
  <g transform="translate(-240,-164)" id="g7">
    <g data-paper-data="{&quot;isPaintingLayer&quot;:true}" fill-rule="nonzero" stroke="none" stroke-linecap="butt" stroke-linejoin="miter" stroke-miterlimit="10" stroke-dasharray="" stroke-dashoffset="0" style="mix-blend-mode: normal" id="g6">
      <path d="M240,196v-32h208v32z" fill="none" stroke-width="0" id="path1"/>
    </g>
  </g>
  <path d="M 0.80 11.66 L 4.49 11.66 Q 4.43 11.52 4.39 11.35 Q 4.09 10.52 3.78 9.83 L 5.11 9.28 Q 3.41 9.34 1.80 9.36 Q 1.78 9.00 1.52 8.10 Q 1.52 8.10 1.40 7.79 Q 3.41 7.75 7.69 7.55 Q 7.69 7.55 11.90 7.27 Q 11.90 7.27 15.65 6.91 Q 15.65 6.91 17.12 6.67 L 17.72 8.30 Q 16.14 8.55 12.30 8.91 Q 12.30 8.91 8.05 9.17 Q 8.05 9.17 5.92 9.26 Q 5.60 9.28 5.28 9.28 Q 5.60 9.91 5.90 10.68 Q 6.12 11.23 6.24 11.66 L 9.34 11.66 Q 9.27 11.43 9.19 11.15 Q 8.93 10.32 8.65 9.62 L 10.19 9.09 Q 10.46 9.77 10.74 10.58 Q 10.95 11.19 11.11 11.66 L 13.15 11.66 Q 13.35 11.37 13.55 11.01 Q 13.88 10.43 14.45 9.26 Q 14.45 9.26 14.65 8.79 L 16.42 9.34 Q 15.93 10.19 15.37 11.05 Q 15.16 11.37 14.97 11.66 L 18.95 11.66 L 18.95 15.42 L 17.29 15.42 L 17.29 17.09 L 7.77 17.09 Q 7.56 17.83 7.30 18.52 L 15.26 18.52 L 15.56 18.45 L 16.67 19.21 Q 15.63 21.18 13.90 22.53 Q 13.57 22.78 13.24 23.02 Q 13.71 23.16 14.20 23.32 Q 16.52 23.95 19.11 24.21 Q 18.93 24.42 18.53 25.04 Q 18.53 25.04 18.17 25.70 Q 18.17 25.70 18.05 25.98 Q 15.42 25.62 13.09 24.85 Q 12.15 24.53 11.27 24.14 Q 10.66 24.44 9.99 24.68 Q 7.84 25.51 5.51 25.96 Q 5.45 25.72 5.13 25.09 Q 5.13 25.09 4.75 24.48 Q 4.75 24.48 4.60 24.30 Q 6.84 23.95 8.89 23.27 Q 9.12 23.18 9.36 23.10 Q 9.12 22.97 8.91 22.82 Q 7.48 21.84 6.39 20.58 Q 6.22 20.92 6.02 21.27 Q 4.30 24.23 1.25 26.03 Q 1.14 25.83 0.69 25.23 Q 0.69 25.23 0.18 24.66 Q 0.18 24.66 -0.01 24.48 Q 2.87 22.97 4.43 20.29 Q 5.26 18.86 5.81 17.09 L 2.46 17.09 L 2.46 15.42 L 0.80 15.42 Z M 6.61 13.76 L 8.50 14.00 Q 8.38 14.71 8.22 15.40 L 17.21 15.40 L 17.21 13.37 L 2.48 13.37 L 2.48 15.40 L 6.28 15.40 Q 6.45 14.61 6.61 13.76 Z M 8.24 20.25 Q 9.05 21.01 10.13 21.63 Q 10.68 21.94 11.29 22.22 Q 11.92 21.88 12.49 21.50 Q 13.30 20.92 13.90 20.25 Z M 32.07 8.23 L 39.99 8.23 L 39.99 25.32 L 37.94 25.32 L 37.94 23.95 L 34.03 23.95 L 34.03 25.58 L 32.07 25.58 Z M 21.39 14.93 L 25.61 14.93 Q 25.61 14.61 25.61 14.29 L 25.61 11.07 L 24.31 11.07 Q 24.10 11.60 23.89 12.09 Q 23.32 13.29 22.71 14.20 Q 22.54 14.04 21.94 13.59 Q 21.94 13.59 21.30 13.16 Q 21.30 13.16 21.06 13.03 Q 21.98 11.84 23.26 8.28 Q 23.26 8.28 23.61 6.39 L 25.56 6.78 Q 25.31 8.02 24.95 9.19 L 30.86 9.19 L 30.86 11.07 L 27.66 11.07 L 27.66 14.31 Q 27.66 14.61 27.64 14.93 L 31.46 14.93 L 31.46 16.85 L 27.51 16.85 Q 27.49 17.04 27.47 17.23 Q 27.41 17.66 27.33 18.07 Q 27.53 18.26 27.80 18.54 Q 28.25 19.03 29.37 20.22 Q 29.37 20.22 30.43 21.43 Q 30.43 21.43 31.28 22.39 Q 31.28 22.39 31.48 22.63 L 30.14 24.36 Q 29.83 23.91 29.00 22.80 Q 29.00 22.80 28.02 21.55 Q 28.02 21.55 27.53 20.94 Q 27.17 20.50 26.82 20.11 Q 26.78 20.27 26.74 20.41 Q 26.21 22.00 24.18 24.97 Q 24.18 24.97 22.56 26.13 Q 22.43 25.93 21.90 25.34 Q 21.90 25.34 21.35 24.77 Q 21.35 24.77 21.13 24.61 Q 22.65 23.55 24.44 20.96 Q 24.44 20.96 24.89 19.58 Q 25.34 18.21 25.48 16.85 L 21.39 16.85 Z M 37.94 22.06 L 37.94 10.13 L 34.03 10.13 L 34.03 22.06 Z M 43.00 18.23 L 46.30 18.23 L 46.30 7.40 L 59.17 7.40 L 59.17 18.23 L 62.07 18.23 L 62.07 20.05 L 51.33 20.05 Q 50.21 21.33 48.95 22.46 Q 48.36 23.02 47.77 23.48 L 57.14 23.10 Q 56.91 22.87 56.65 22.63 Q 55.69 21.69 54.77 20.94 L 56.48 20.17 Q 57.40 20.92 59.36 22.76 Q 59.36 22.76 61.06 24.53 Q 61.06 24.53 61.60 25.21 L 59.86 26.15 Q 59.36 25.48 58.62 24.66 Q 55.87 24.79 53.83 24.89 Q 51.66 25.02 48.69 25.17 Q 48.69 25.17 46.81 25.30 Q 46.81 25.30 45.69 25.42 Q 45.69 25.42 45.06 25.54 Q 45.06 25.54 44.86 25.62 Q 44.79 25.40 44.57 24.72 Q 44.57 24.72 44.32 23.97 Q 44.32 23.97 44.21 23.71 Q 44.53 23.63 45.28 23.20 Q 45.28 23.20 45.69 22.87 Q 46.00 22.65 47.30 21.50 Q 47.30 21.50 48.10 20.67 Q 48.38 20.37 48.65 20.05 L 43.00 20.05 Z M 48.24 18.23 L 57.14 18.23 L 57.14 16.26 L 48.24 16.26 Z M 57.14 11.05 L 57.14 9.11 L 48.24 9.11 L 48.24 11.05 Z M 57.14 14.59 L 57.14 12.71 L 48.24 12.71 L 48.24 14.59 Z M 66.64 16.21 L 67.86 14.84 Q 68.49 15.27 69.96 16.34 Q 69.96 16.34 70.63 16.87 Q 70.67 16.89 70.71 16.93 Q 70.77 16.79 70.81 16.64 Q 71.73 14.39 72.20 11.50 L 68.49 11.50 Q 67.96 12.94 67.33 14.22 Q 66.53 15.87 65.54 17.11 Q 65.38 16.91 64.76 16.42 Q 64.76 16.42 64.10 15.95 Q 64.10 15.95 63.87 15.83 Q 64.82 14.71 66.33 11.72 Q 66.33 11.72 67.47 8.23 Q 67.47 8.23 67.82 6.37 L 69.83 6.73 Q 69.53 8.21 69.11 9.60 L 72.78 9.60 L 73.16 9.51 L 74.60 9.93 Q 74.05 14.20 71.58 20.50 Q 71.58 20.50 67.92 24.77 Q 67.92 24.77 65.54 26.01 Q 65.40 25.75 64.78 25.09 Q 64.78 25.09 64.14 24.48 Q 64.14 24.48 63.87 24.32 Q 66.19 23.20 67.94 21.31 Q 68.98 20.17 69.81 18.75 Q 69.60 18.56 69.39 18.36 Q 68.72 17.79 67.29 16.66 Q 67.29 16.66 66.64 16.21 Z M 76.00 6.39 L 78.12 6.39 L 78.12 13.39 L 78.86 12.84 Q 79.69 13.57 81.61 15.32 Q 81.61 15.32 83.36 17.02 Q 83.36 17.02 83.92 17.70 L 82.21 19.09 Q 81.72 18.41 80.03 16.61 Q 80.03 16.61 79.10 15.69 Q 78.58 15.22 78.12 14.78 L 78.12 26.19 L 76.00 26.19 Z M 93.30 12.29 L 103.71 12.29 L 103.71 12.45 Q 103.69 12.63 103.69 13.05 Q 103.69 13.05 103.69 13.18 Q 103.61 15.08 103.52 16.61 L 105.16 16.61 L 105.16 18.45 L 103.42 18.45 Q 103.32 20.11 103.20 21.29 L 104.58 21.29 L 104.58 23.04 L 102.97 23.04 Q 102.86 23.59 102.77 24.00 Q 102.56 24.77 102.28 25.11 Q 101.94 25.56 101.17 25.89 Q 101.17 25.89 100.68 25.98 Q 100.21 26.03 98.76 26.03 Q 98.76 26.03 97.97 25.98 Q 97.95 25.60 97.70 24.64 Q 97.70 24.64 97.46 24.30 Q 98.23 24.36 99.53 24.40 Q 99.53 24.40 99.82 24.40 Q 100.11 24.40 100.47 24.26 Q 100.47 24.26 100.62 24.06 Q 100.86 23.83 101.02 23.10 Q 101.02 23.08 101.04 23.04 L 91.80 23.04 Q 92.02 22.00 92.23 20.67 Q 92.41 19.60 92.57 18.45 L 90.62 18.45 L 90.62 16.61 L 92.81 16.61 Q 92.92 15.81 93.02 15.00 Q 93.20 13.57 93.30 12.29 Z M 93.83 6.37 L 95.77 6.87 Q 95.48 7.79 95.10 8.70 L 104.61 8.70 L 104.61 10.52 L 94.26 10.52 Q 93.88 11.26 93.45 11.96 Q 92.77 13.12 92.04 14.00 Q 91.86 13.82 91.21 13.39 Q 91.21 13.39 90.55 12.98 Q 90.55 12.98 90.31 12.86 Q 91.06 12.07 92.39 9.98 Q 92.39 9.98 93.45 7.59 Q 93.45 7.59 93.83 6.37 Z M 85.96 24.75 Q 86.39 23.91 87.42 21.61 Q 87.42 21.61 88.48 19.05 Q 88.48 19.05 88.91 17.81 L 90.46 18.92 Q 90.08 20.05 89.14 22.48 Q 89.14 22.48 88.16 24.83 Q 88.16 24.83 87.71 25.83 Z M 101.32 21.29 Q 101.32 21.18 101.35 21.08 Q 101.47 19.98 101.57 18.45 L 97.21 18.45 Q 97.78 18.90 98.42 19.50 Q 99.13 20.17 99.51 20.71 L 98.68 21.29 Z M 86.52 8.06 L 87.65 6.69 Q 88.26 6.97 89.70 7.75 Q 89.70 7.75 90.98 8.53 Q 90.98 8.53 91.38 8.87 L 90.21 10.41 Q 89.82 10.07 88.56 9.21 Q 88.56 9.21 87.14 8.38 Q 87.14 8.38 86.52 8.06 Z M 95.91 19.03 L 96.85 18.45 L 94.43 18.45 Q 94.28 19.64 94.12 20.73 Q 94.07 21.01 94.02 21.29 L 98.17 21.29 Q 97.82 20.84 97.27 20.29 Q 96.58 19.58 95.91 19.03 Z M 85.35 14.22 L 86.45 12.84 Q 87.05 13.12 88.42 13.86 Q 88.42 13.86 89.61 14.63 Q 89.61 14.63 89.99 14.97 L 88.82 16.51 Q 88.48 16.16 87.28 15.34 Q 87.28 15.34 85.94 14.53 Q 85.94 14.53 85.35 14.22 Z M 101.69 16.61 Q 101.73 15.42 101.79 14.02 L 97.76 14.02 Q 98.27 14.44 98.82 14.95 Q 99.47 15.59 99.80 16.06 L 99.04 16.61 Z M 96.48 14.57 L 97.29 14.02 L 94.99 14.02 Q 94.94 14.53 94.88 15.06 Q 94.77 15.85 94.69 16.61 L 98.50 16.61 Q 98.21 16.21 97.72 15.71 Q 97.10 15.06 96.48 14.57 Z" xml:space="preserve" style="font-weight:613;font-size:21.3333px;line-height:1.2;font-family:'Dream Han Sans SC';-inkscape-font-specification:'Dream Han Sans SC weight=613';text-align:start;writing-mode:lr-tb;direction:ltr;text-anchor:start;fill:#ffffff" id="text7" data-original-text="爱知县外海" data-original-element="text"/>
</svg>