<?xml version="1.0" ?>
<svg xmlns="http://www.w3.org/2000/svg" xmlns:ns1="http://sodipodi.sourceforge.net/DTD/sodipodi-0.dtd" xmlns:ns2="http://www.inkscape.org/namespaces/inkscape" version="1.1" width="208" height="32" viewBox="0,0,208,32" id="svg7" ns1:docname="0f5c5ee7fb7db3ce73cef2deed5d167e.svg" ns2:version="1.4.2 (f4327f4, 2025-05-13)">
  <defs id="defs7"/>
  <ns1:namedview id="namedview7" pagecolor="#505050" bordercolor="#eeeeee" borderopacity="1" ns2:showpageshadow="0" ns2:pageopacity="0" ns2:pagecheckerboard="0" ns2:deskcolor="#505050" ns2:zoom="8.5240385" ns2:cx="50.50423" ns2:cy="16.013536" ns2:window-width="1920" ns2:window-height="945" ns2:window-x="-9" ns2:window-y="40" ns2:window-maximized="1" ns2:current-layer="svg7"/>
  <g transform="translate(-240,-164)" id="g7">
    <g data-paper-data="{&quot;isPaintingLayer&quot;:true}" fill-rule="nonzero" stroke="none" stroke-linecap="butt" stroke-linejoin="miter" stroke-miterlimit="10" stroke-dasharray="" stroke-dashoffset="0" style="mix-blend-mode: normal" id="g6">
      <path d="M240,196v-32h208v32z" fill="none" stroke-width="0" id="path1"/>
    </g>
  </g>
  <path d="M 10.16 6.70 L 18.57 6.70 L 18.57 19.36 Q 18.57 20.16 18.18 21.18 Q 18.18 21.18 17.63 21.46 Q 17.08 21.72 15.41 21.86 Q 15.41 21.86 14.26 21.86 Q 14.21 21.56 13.96 20.77 Q 13.96 20.77 13.64 19.99 Q 13.64 19.99 13.50 19.73 Q 14.37 19.75 15.86 19.75 Q 15.86 19.75 16.12 19.75 Q 16.37 19.75 16.55 19.56 Q 16.55 19.56 16.55 19.32 L 16.55 8.70 L 12.19 8.70 L 12.19 24.98 L 10.16 24.98 Z M 7.29 5.67 L 8.84 7.29 Q 7.82 7.72 5.38 8.47 Q 5.38 8.47 4.13 8.79 Q 3.62 8.92 3.10 9.02 L 3.10 12.62 L 8.71 12.62 L 8.71 14.57 L 3.10 14.57 L 3.10 19.75 L 8.65 18.49 Q 8.63 18.94 8.71 20.05 Q 8.71 20.05 8.76 20.40 Q 6.86 20.84 4.26 21.50 Q 4.26 21.50 2.59 21.95 Q 2.59 21.95 1.61 22.25 Q 1.61 22.25 1.08 22.48 Q 1.08 22.48 0.88 22.59 Q 0.82 22.33 0.55 21.52 Q 0.55 21.52 0.23 20.73 Q 0.23 20.73 0.05 20.48 Q 0.37 20.30 1.06 19.62 Q 1.06 19.62 1.06 19.00 L 1.06 7.72 Q 2.16 7.47 4.46 6.80 Q 4.46 6.80 6.54 6.05 Q 6.54 6.05 7.29 5.67 Z M 25.55 17.51 L 37.43 17.51 L 37.79 17.43 L 39.05 18.08 Q 38.15 19.75 36.75 20.93 Q 35.87 21.62 34.89 22.21 Q 35.40 22.35 35.93 22.50 Q 38.24 23.06 40.88 23.27 Q 40.67 23.49 40.23 24.10 Q 40.23 24.10 39.84 24.74 Q 39.84 24.74 39.71 25.02 Q 36.99 24.72 34.63 24.02 Q 33.55 23.70 32.57 23.29 Q 31.18 23.80 29.64 24.17 Q 27.57 24.63 25.35 24.90 Q 25.25 24.53 24.76 23.53 Q 24.76 23.53 24.53 23.19 Q 26.57 23.04 28.52 22.66 Q 29.50 22.44 30.41 22.19 Q 28.58 21.05 27.32 19.46 L 28.13 19.13 L 25.55 19.13 Z M 22.84 7.23 L 30.99 7.23 Q 30.94 7.15 30.92 7.06 Q 30.62 6.23 30.29 5.56 L 32.31 5.09 Q 32.67 5.76 33.00 6.54 Q 33.14 6.91 33.27 7.23 L 40.57 7.23 L 40.57 9.10 L 24.82 9.10 L 24.82 12.97 Q 24.82 14.27 24.67 17.38 Q 24.67 17.38 24.25 20.65 Q 24.25 20.65 23.43 23.72 Q 23.43 23.72 22.78 25.00 Q 22.58 24.85 21.90 24.51 Q 21.90 24.51 21.21 24.19 Q 21.21 24.19 20.93 24.10 Q 21.60 22.88 22.35 20.03 Q 22.35 20.03 22.74 17.04 Q 22.74 17.04 22.84 14.21 Q 22.84 14.21 22.84 12.99 Z M 25.31 11.30 L 28.52 11.30 L 28.52 9.63 L 30.43 9.63 L 30.43 11.30 L 35.06 11.30 L 35.06 9.63 L 37.05 9.63 L 37.05 11.30 L 40.33 11.30 L 40.33 12.93 L 37.05 12.93 L 37.05 16.38 L 28.52 16.38 L 28.52 12.93 L 25.31 12.93 Z M 30.43 12.93 L 30.43 14.82 L 35.06 14.82 L 35.06 12.93 Z M 29.36 19.13 Q 30.37 20.20 31.88 21.01 Q 32.27 21.20 32.67 21.40 Q 34.00 20.82 35.04 20.03 Q 35.59 19.60 36.04 19.13 Z M 55.01 5.22 L 56.90 5.22 L 56.90 10.36 L 59.26 9.36 L 59.62 9.06 L 59.98 8.79 L 61.41 9.32 L 61.32 9.66 Q 61.32 11.18 61.30 13.76 Q 61.30 13.76 61.26 15.78 Q 61.26 15.78 61.19 17.17 Q 61.19 17.17 61.13 17.49 Q 61.07 18.18 60.49 18.90 Q 60.49 18.90 60.00 19.05 Q 59.55 19.22 58.38 19.28 Q 58.38 19.28 57.91 19.28 Q 57.87 18.87 57.61 17.87 Q 57.61 17.87 57.46 17.55 Q 57.78 17.57 58.55 17.59 Q 58.55 17.59 58.69 17.59 Q 58.93 17.59 59.21 17.38 Q 59.21 17.38 59.28 17.06 Q 59.32 16.87 59.36 15.68 Q 59.36 15.68 59.38 13.74 Q 59.38 13.74 59.38 12.40 Q 59.38 11.87 59.38 11.34 L 56.90 12.42 L 56.90 20.16 L 55.01 20.16 L 55.01 13.22 L 52.62 14.25 L 52.62 21.33 Q 52.62 21.93 52.83 22.54 Q 52.83 22.54 53.54 22.76 Q 53.54 22.76 54.21 22.76 L 58.93 22.76 Q 59.55 22.76 60.15 22.29 Q 60.15 22.29 60.44 21.05 Q 60.44 21.05 60.52 19.87 Q 60.85 20.11 61.90 20.54 Q 61.90 20.54 62.31 20.62 Q 62.17 22.12 61.54 23.82 Q 61.54 23.82 60.24 24.57 Q 60.24 24.57 59.06 24.57 L 54.09 24.57 Q 52.79 24.57 51.28 24.02 Q 51.28 24.02 50.67 22.59 Q 50.67 22.59 50.67 21.31 L 50.67 15.08 L 49.23 15.70 L 48.45 13.93 L 50.67 12.99 L 50.67 7.25 L 52.62 7.25 L 52.62 12.18 L 55.01 11.16 Z M 42.42 10.28 L 45.07 10.28 L 45.07 5.48 L 46.96 5.48 L 46.96 10.28 L 49.33 10.28 L 49.33 12.18 L 46.96 12.18 L 46.96 17.87 Q 48.08 17.41 49.20 16.94 L 49.65 18.73 Q 47.94 19.54 44.44 21.16 Q 44.44 21.16 43.00 21.80 L 42.20 19.77 Q 43.06 19.46 44.21 19.00 Q 44.64 18.83 45.07 18.65 L 45.07 12.18 L 42.42 12.18 Z M 82.77 6.29 L 82.77 8.21 L 66.85 8.21 L 66.85 22.46 L 83.32 22.46 L 83.32 24.41 L 64.88 24.41 L 64.88 6.29 Z M 78.43 9.08 L 80.31 9.85 Q 78.94 12.16 77.15 14.27 Q 76.75 14.74 76.34 15.19 Q 77.64 16.33 78.80 17.43 Q 80.10 18.69 81.00 19.71 L 79.39 21.20 Q 78.56 20.16 77.30 18.90 Q 76.21 17.79 74.95 16.63 Q 74.18 17.41 73.37 18.13 Q 71.35 19.87 69.30 21.22 Q 69.13 21.01 68.56 20.42 Q 68.56 20.42 67.95 19.85 Q 67.95 19.85 67.73 19.67 Q 69.84 18.47 71.82 16.83 Q 72.69 16.10 73.51 15.31 Q 72.51 14.40 71.48 13.50 Q 69.94 12.18 68.52 11.03 L 69.92 9.83 Q 71.31 10.92 72.86 12.22 Q 73.87 13.05 74.87 13.91 Q 75.19 13.56 75.49 13.20 Q 77.19 11.22 78.43 9.08 Z" xml:space="preserve" style="font-weight:613;font-size:21.3333px;line-height:1.2;font-family:'Dream Han Sans SC';-inkscape-font-specification:'Dream Han Sans SC weight=613';text-align:start;writing-mode:lr-tb;direction:ltr;text-anchor:start;fill:#ffffff" id="text7" data-original-text="印度地区" data-original-element="text"/>
</svg>