<?xml version="1.0" ?>
<svg xmlns="http://www.w3.org/2000/svg" xmlns:ns1="http://sodipodi.sourceforge.net/DTD/sodipodi-0.dtd" xmlns:ns2="http://www.inkscape.org/namespaces/inkscape" version="1.1" width="208" height="32" viewBox="0,0,208,32" id="svg8" ns1:docname="0f6812c883d6a223bce542d2264d30ca.svg" ns2:version="1.4.2 (f4327f4, 2025-05-13)">
  <defs id="defs8"/>
  <ns1:namedview id="namedview8" pagecolor="#505050" bordercolor="#eeeeee" borderopacity="1" ns2:showpageshadow="0" ns2:pageopacity="0" ns2:pagecheckerboard="0" ns2:deskcolor="#505050" ns2:zoom="8.5240385" ns2:cx="76.900169" ns2:cy="16.013536" ns2:window-width="1920" ns2:window-height="945" ns2:window-x="-9" ns2:window-y="40" ns2:window-maximized="1" ns2:current-layer="svg8"/>
  <g transform="translate(-240,-164)" id="g8">
    <g data-paper-data="{&quot;isPaintingLayer&quot;:true}" fill-rule="nonzero" stroke="none" stroke-linecap="butt" stroke-linejoin="miter" stroke-miterlimit="10" stroke-dasharray="" stroke-dashoffset="0" style="mix-blend-mode: normal" id="g7">
      <path d="M240,196v-32h208v32z" fill="none" stroke-width="0" id="path1"/>
    </g>
  </g>
  <path d="M 0.51 17.91 L 4.16 17.91 L 4.16 7.13 Q 5.78 7.07 9.20 6.82 Q 9.20 6.82 12.50 6.49 Q 12.50 6.49 15.49 6.09 Q 15.49 6.09 16.67 5.86 L 17.71 7.69 Q 16.36 7.94 13.19 8.37 Q 13.19 8.37 9.75 8.67 Q 9.75 8.67 8.02 8.77 Q 7.10 8.84 6.23 8.86 L 6.23 11.54 L 18.73 11.54 L 18.73 13.45 L 15.08 13.45 L 15.08 17.91 L 19.91 17.91 L 19.91 19.83 L 0.51 19.83 Z M 6.23 17.91 L 13.01 17.91 L 13.01 13.45 L 6.23 13.45 Z M 6.74 20.23 L 8.55 21.49 Q 7.70 22.21 5.46 23.73 Q 5.46 23.73 3.09 25.10 Q 3.09 25.10 2.01 25.61 Q 1.77 25.28 0.94 24.41 Q 0.94 24.41 0.59 24.12 Q 1.69 23.65 3.99 22.33 Q 3.99 22.33 6.06 20.87 Q 6.06 20.87 6.74 20.23 Z M 11.91 21.62 L 13.37 20.27 Q 14.15 20.66 15.87 21.60 Q 15.87 21.60 17.62 22.62 Q 17.62 22.62 19.13 23.58 Q 19.13 23.58 19.69 23.98 L 18.09 25.52 Q 17.43 24.97 15.29 23.58 Q 15.29 23.58 12.95 22.15 Q 12.95 22.15 11.91 21.62 Z M 26.48 12.04 L 30.21 12.04 Q 30.25 11.93 30.29 11.83 Q 30.68 10.91 30.96 9.99 L 33.04 10.67 Q 32.77 11.36 32.45 12.04 L 40.45 12.04 L 40.45 13.86 L 31.55 13.86 Q 31.04 14.82 30.49 15.71 Q 30.15 16.26 29.80 16.77 L 33.34 16.77 L 33.34 14.73 L 35.35 14.73 L 35.35 16.77 L 39.83 16.77 L 39.83 18.59 L 35.35 18.59 L 35.35 20.72 L 41.26 20.72 L 41.26 22.55 L 35.35 22.55 L 35.35 25.59 L 33.34 25.59 L 33.34 22.55 L 25.92 22.55 L 25.92 20.72 L 33.34 20.72 L 33.34 18.59 L 29.86 18.59 Q 29.05 18.59 27.93 18.74 Q 27.93 18.74 27.78 18.89 Q 27.73 18.67 27.50 17.97 Q 27.50 17.97 27.24 17.22 Q 27.24 17.22 27.11 16.95 Q 27.42 16.86 27.99 16.22 Q 27.99 16.22 28.31 15.71 Q 28.48 15.45 28.80 14.90 Q 29.05 14.43 29.35 13.86 L 26.48 13.86 Z M 23.34 7.90 L 31.61 7.90 Q 31.57 7.75 31.51 7.61 Q 31.19 6.86 30.80 6.23 L 32.79 5.76 Q 33.20 6.35 33.54 7.07 Q 33.75 7.51 33.90 7.90 L 41.26 7.90 L 41.26 9.77 L 25.34 9.77 L 25.34 14.00 Q 25.34 15.26 25.20 18.29 Q 25.20 18.29 24.75 21.49 Q 24.75 21.49 23.87 24.47 Q 23.87 24.47 23.15 25.69 Q 22.98 25.52 22.33 25.05 Q 22.33 25.05 21.68 24.65 Q 21.68 24.65 21.44 24.54 Q 22.10 23.41 22.87 20.72 Q 22.87 20.72 23.23 17.89 Q 23.23 17.89 23.34 15.16 Q 23.34 15.16 23.34 14.00 Z M 43.35 17.65 L 46.66 17.65 L 46.66 6.82 L 59.52 6.82 L 59.52 17.65 L 62.43 17.65 L 62.43 19.46 L 51.69 19.46 Q 50.56 20.74 49.30 21.88 Q 48.71 22.43 48.12 22.90 L 57.49 22.51 Q 57.26 22.28 57.00 22.04 Q 56.04 21.11 55.12 20.36 L 56.83 19.59 Q 57.75 20.34 59.71 22.17 Q 59.71 22.17 61.42 23.94 Q 61.42 23.94 61.95 24.63 L 60.21 25.56 Q 59.71 24.90 58.97 24.08 Q 56.22 24.20 54.19 24.30 Q 52.01 24.43 49.04 24.59 Q 49.04 24.59 47.17 24.71 Q 47.17 24.71 46.04 24.84 Q 46.04 24.84 45.42 24.95 Q 45.42 24.95 45.21 25.03 Q 45.15 24.82 44.93 24.14 Q 44.93 24.14 44.68 23.39 Q 44.68 23.39 44.56 23.13 Q 44.88 23.04 45.63 22.62 Q 45.63 22.62 46.04 22.28 Q 46.35 22.07 47.66 20.91 Q 47.66 20.91 48.45 20.09 Q 48.73 19.78 49.00 19.46 L 43.35 19.46 Z M 48.59 17.65 L 57.49 17.65 L 57.49 15.67 L 48.59 15.67 Z M 57.49 10.46 L 57.49 8.52 L 48.59 8.52 L 48.59 10.46 Z M 57.49 14.00 L 57.49 12.13 L 48.59 12.13 L 48.59 14.00 Z M 75.40 6.19 L 77.50 6.19 L 77.50 13.02 Q 77.84 12.78 78.21 12.55 Q 79.41 11.78 81.58 10.16 Q 81.58 10.16 82.38 9.42 L 83.86 11.21 Q 82.83 11.95 80.41 13.47 Q 80.41 13.47 79.15 14.19 Q 78.31 14.66 77.50 15.11 L 77.50 21.84 Q 77.50 22.68 77.86 23.18 Q 77.86 23.18 78.51 23.18 L 81.24 23.18 Q 81.71 23.18 82.18 22.45 Q 82.18 22.45 82.38 20.51 Q 82.38 20.51 82.46 18.78 Q 82.71 18.97 83.40 19.36 Q 83.40 19.36 84.11 19.64 Q 84.11 19.64 84.40 19.70 Q 84.29 21.68 83.76 24.10 Q 83.76 24.10 82.56 25.16 Q 82.56 25.16 81.43 25.16 L 78.23 25.16 Q 77.15 25.16 75.91 24.57 Q 75.91 24.57 75.40 23.09 Q 75.40 23.09 75.40 21.80 Z M 64.83 11.08 L 70.12 11.08 L 70.12 6.17 L 72.22 6.17 L 72.22 25.42 L 70.12 25.42 L 70.12 20.76 Q 69.15 21.19 68.11 21.62 Q 66.44 22.35 65.04 22.92 L 64.12 20.87 Q 65.00 20.60 67.26 19.78 Q 67.26 19.78 68.54 19.32 Q 69.33 19.01 70.12 18.72 L 70.12 13.09 L 64.83 13.09 Z M 98.07 6.90 L 103.59 6.90 L 103.90 6.82 L 105.28 7.69 Q 104.73 9.20 103.38 12.64 Q 103.38 12.64 102.74 14.07 Q 104.10 15.55 104.96 18.10 Q 104.96 18.10 104.96 19.19 Q 104.96 20.21 104.49 21.72 Q 104.49 21.72 103.94 22.11 Q 103.66 22.28 102.96 22.51 Q 102.96 22.51 102.55 22.58 Q 102.19 22.62 101.27 22.62 Q 101.27 22.62 100.80 22.60 Q 100.78 22.21 100.54 21.13 Q 100.54 21.13 100.29 20.72 Q 100.72 20.76 101.46 20.78 Q 101.46 20.78 101.76 20.76 Q 102.00 20.76 102.43 20.66 Q 102.43 20.66 102.59 20.55 Q 102.87 20.36 103.12 19.50 Q 103.12 19.50 103.10 18.97 Q 103.10 18.01 102.17 15.69 Q 102.17 15.69 100.82 14.30 Q 101.15 13.49 101.84 11.64 Q 101.84 11.64 102.49 9.77 Q 102.49 9.77 102.76 8.95 Q 102.80 8.84 102.84 8.71 L 99.86 8.71 L 99.86 25.54 L 98.07 25.54 Z M 87.00 17.61 L 96.19 17.61 L 96.19 25.38 L 94.21 25.38 L 94.21 24.52 L 88.90 24.52 L 88.90 25.52 L 87.00 25.52 Z M 86.47 8.24 L 90.73 8.24 Q 90.65 8.00 90.56 7.73 Q 90.26 6.90 89.92 6.19 L 91.73 5.68 Q 92.09 6.37 92.42 7.18 Q 92.68 7.77 92.82 8.24 L 96.63 8.24 L 96.63 10.08 L 93.82 10.08 L 95.79 10.50 Q 95.49 11.25 94.84 12.78 Q 94.84 12.78 94.53 13.51 Q 94.40 13.76 94.29 14.00 L 97.11 14.00 L 97.11 15.84 L 85.86 15.84 L 85.86 14.00 L 88.92 14.00 Q 88.79 13.29 88.45 12.38 Q 88.08 11.40 87.68 10.57 L 89.41 10.12 Q 89.85 10.93 90.60 12.85 Q 90.60 12.85 90.75 13.58 L 89.18 14.00 L 92.37 14.00 Q 92.58 13.55 92.80 13.00 Q 93.10 12.25 93.35 11.48 Q 93.61 10.72 93.78 10.08 L 86.47 10.08 Z M 94.21 22.75 L 94.21 19.42 L 88.90 19.42 L 88.90 22.75 Z M 114.93 7.07 Q 116.21 7.00 118.90 6.79 Q 118.90 6.79 121.47 6.49 Q 121.47 6.49 123.69 6.09 Q 123.69 6.09 124.52 5.84 L 126.19 7.33 Q 124.76 7.77 121.13 8.37 Q 121.13 8.37 119.21 8.54 Q 118.06 8.63 116.97 8.69 L 116.97 11.80 Q 116.97 11.89 116.97 11.95 L 126.57 11.95 L 126.57 13.84 L 122.77 13.84 L 122.77 22.04 L 120.79 22.04 L 120.79 13.84 L 116.91 13.84 Q 116.88 14.07 116.88 14.28 Q 116.80 15.65 116.31 18.44 Q 116.31 18.44 115.40 21.07 Q 115.40 21.07 114.65 22.15 Q 114.48 21.96 113.83 21.49 Q 113.83 21.49 113.16 21.07 Q 113.16 21.07 112.94 20.96 Q 113.85 19.62 114.69 16.39 Q 114.69 16.39 114.93 13.15 Q 114.93 13.15 114.93 11.78 Z M 111.92 13.49 L 111.92 21.25 Q 112.10 21.39 112.34 21.53 Q 112.75 21.84 113.34 22.19 Q 114.41 22.84 117.25 23.18 Q 117.25 23.18 119.04 23.18 Q 119.94 23.18 122.03 23.13 Q 122.03 23.13 124.13 23.00 Q 124.13 23.00 126.08 22.84 Q 126.08 22.84 126.90 22.73 Q 126.76 23.00 126.51 23.77 Q 126.51 23.77 126.31 24.57 Q 126.31 24.57 126.29 24.84 Q 125.72 24.88 123.93 24.97 Q 123.93 24.97 121.79 25.03 Q 121.79 25.03 119.77 25.08 Q 119.77 25.08 118.98 25.08 Q 116.97 25.08 114.11 24.59 Q 114.11 24.59 112.98 23.92 Q 112.28 23.51 111.23 22.68 Q 111.23 22.68 110.87 22.68 Q 110.51 22.68 109.66 23.45 Q 109.66 23.45 108.72 24.69 Q 108.72 24.69 108.25 25.38 L 106.88 23.49 Q 107.97 22.33 109.03 21.60 Q 109.52 21.25 109.95 21.09 L 109.95 15.47 L 107.26 15.47 L 107.26 13.49 Z M 107.73 7.20 L 109.29 6.21 Q 109.86 6.75 111.10 8.08 Q 111.10 8.08 112.22 9.38 Q 112.22 9.38 112.55 9.89 L 110.92 11.03 Q 110.61 10.50 109.55 9.18 Q 109.55 9.18 108.31 7.79 Q 108.31 7.79 107.73 7.20 Z M 136.32 11.70 L 146.73 11.70 L 146.73 11.87 Q 146.71 12.04 146.71 12.46 Q 146.71 12.46 146.71 12.60 Q 146.62 14.49 146.54 16.02 L 148.18 16.02 L 148.18 17.87 L 146.44 17.87 Q 146.34 19.52 146.22 20.70 L 147.60 20.70 L 147.60 22.45 L 145.99 22.45 Q 145.87 23.00 145.79 23.41 Q 145.58 24.18 145.30 24.52 Q 144.96 24.97 144.19 25.30 Q 144.19 25.30 143.70 25.40 Q 143.23 25.44 141.78 25.44 Q 141.78 25.44 140.99 25.40 Q 140.97 25.01 140.72 24.05 Q 140.72 24.05 140.48 23.71 Q 141.25 23.77 142.55 23.82 Q 142.55 23.82 142.84 23.82 Q 143.12 23.82 143.49 23.67 Q 143.49 23.67 143.63 23.47 Q 143.87 23.24 144.04 22.51 Q 144.04 22.49 144.06 22.45 L 134.82 22.45 Q 135.04 21.41 135.25 20.09 Q 135.43 19.01 135.59 17.87 L 133.63 17.87 L 133.63 16.02 L 135.83 16.02 Q 135.94 15.22 136.04 14.41 Q 136.22 12.98 136.32 11.70 Z M 136.85 5.78 L 138.79 6.28 Q 138.50 7.20 138.11 8.12 L 147.62 8.12 L 147.62 9.93 L 137.28 9.93 Q 136.90 10.67 136.47 11.38 Q 135.79 12.53 135.06 13.41 Q 134.87 13.23 134.23 12.80 Q 134.23 12.80 133.57 12.40 Q 133.57 12.40 133.33 12.27 Q 134.08 11.48 135.41 9.40 Q 135.41 9.40 136.47 7.00 Q 136.47 7.00 136.85 5.78 Z M 128.98 24.16 Q 129.41 23.33 130.44 21.02 Q 130.44 21.02 131.50 18.46 Q 131.50 18.46 131.93 17.22 L 133.48 18.34 Q 133.10 19.46 132.16 21.90 Q 132.16 21.90 131.18 24.24 Q 131.18 24.24 130.73 25.24 Z M 144.34 20.70 Q 144.34 20.60 144.36 20.49 Q 144.49 19.40 144.59 17.87 L 140.23 17.87 Q 140.80 18.32 141.44 18.91 Q 142.15 19.59 142.53 20.13 L 141.70 20.70 Z M 129.54 7.47 L 130.67 6.11 Q 131.28 6.39 132.72 7.16 Q 132.72 7.16 134.00 7.94 Q 134.00 7.94 134.40 8.28 L 133.23 9.83 Q 132.84 9.48 131.58 8.63 Q 131.58 8.63 130.16 7.79 Q 130.16 7.79 129.54 7.47 Z M 138.93 18.44 L 139.86 17.87 L 137.45 17.87 Q 137.30 19.05 137.13 20.15 Q 137.09 20.42 137.04 20.70 L 141.19 20.70 Q 140.84 20.25 140.29 19.70 Q 139.60 18.99 138.93 18.44 Z M 128.36 13.64 L 129.47 12.25 Q 130.07 12.53 131.44 13.27 Q 131.44 13.27 132.62 14.04 Q 132.62 14.04 133.01 14.39 L 131.84 15.92 Q 131.50 15.58 130.30 14.75 Q 130.30 14.75 128.96 13.94 Q 128.96 13.94 128.36 13.64 Z M 144.71 16.02 Q 144.75 14.84 144.81 13.43 L 140.78 13.43 Q 141.29 13.86 141.84 14.37 Q 142.49 15.00 142.82 15.47 L 142.06 16.02 Z M 139.50 13.98 L 140.31 13.43 L 138.01 13.43 Q 137.96 13.94 137.90 14.47 Q 137.79 15.26 137.71 16.02 L 141.52 16.02 Q 141.23 15.63 140.74 15.13 Q 140.11 14.47 139.50 13.98 Z" xml:space="preserve" style="font-weight:613;font-size:21.3333px;line-height:1.2;font-family:'Dream Han Sans SC';-inkscape-font-specification:'Dream Han Sans SC weight=613';text-align:start;writing-mode:lr-tb;direction:ltr;text-anchor:start;fill:#ffffff" id="text8" data-original-text="兵库县北部近海" data-original-element="text"/>
</svg>