<?xml version="1.0" ?>
<svg xmlns="http://www.w3.org/2000/svg" xmlns:ns1="http://sodipodi.sourceforge.net/DTD/sodipodi-0.dtd" xmlns:ns2="http://www.inkscape.org/namespaces/inkscape" version="1.1" width="208" height="32" viewBox="0,0,208,32" id="svg8" ns1:docname="0f9465fd39897fa3e5bc30fdefd067e2.svg" ns2:version="1.4.2 (f4327f4, 2025-05-13)">
  <defs id="defs8"/>
  <ns1:namedview id="namedview8" pagecolor="#505050" bordercolor="#eeeeee" borderopacity="1" ns2:showpageshadow="0" ns2:pageopacity="0" ns2:pagecheckerboard="0" ns2:deskcolor="#505050" ns2:zoom="8.5240385" ns2:cx="54.610265" ns2:cy="16.013536" ns2:window-width="1920" ns2:window-height="945" ns2:window-x="-9" ns2:window-y="40" ns2:window-maximized="1" ns2:current-layer="svg8"/>
  <g transform="translate(-240,-164)" id="g8">
    <g data-paper-data="{&quot;isPaintingLayer&quot;:true}" fill-rule="nonzero" stroke="none" stroke-linecap="butt" stroke-linejoin="miter" stroke-miterlimit="10" stroke-dasharray="" stroke-dashoffset="0" style="mix-blend-mode: normal" id="g7">
      <path d="M240,196v-32h208v32z" fill="none" stroke-width="0" id="path1"/>
    </g>
  </g>
  <path d="M 0.99 7.23 L 19.68 7.23 L 19.68 9.21 L 9.21 9.21 Q 8.48 11.20 7.46 13.18 Q 7.14 13.82 6.77 14.42 L 18.42 14.42 L 18.42 25.45 L 16.28 25.45 L 16.28 24.08 L 6.79 24.08 L 6.79 25.49 L 4.74 25.49 L 4.74 17.41 Q 3.29 19.22 1.48 20.58 Q 1.31 20.34 0.83 19.77 Q 0.83 19.77 0.28 19.20 Q 0.28 19.20 0.08 19.02 Q 1.83 17.77 4.62 14.21 Q 4.62 14.21 5.62 12.22 Q 6.37 10.69 6.90 9.21 L 0.99 9.21 Z M 16.28 22.14 L 16.28 16.35 L 6.79 16.35 L 6.79 22.14 Z M 21.94 7.12 L 23.35 6.03 Q 24.73 7.19 25.61 8.43 Q 25.63 8.39 25.66 8.35 Q 26.52 7.21 27.13 6.09 L 28.90 6.99 Q 27.96 8.61 26.66 10.18 Q 26.95 10.79 27.15 11.43 Q 27.62 12.86 27.92 15.80 Q 27.92 15.80 27.92 17.34 Q 27.92 18.85 27.72 21.69 Q 27.72 21.69 27.23 23.89 Q 27.23 23.89 26.76 24.51 Q 26.52 24.80 25.91 25.19 Q 25.91 25.19 25.48 25.28 Q 24.91 25.39 23.61 25.43 Q 23.61 25.43 22.88 25.41 Q 22.86 24.94 22.59 23.91 Q 22.59 23.91 22.33 23.49 Q 23.10 23.53 24.26 23.53 Q 24.26 23.53 24.63 23.49 Q 25.08 23.42 25.31 23.12 Q 25.56 22.78 25.87 21.05 Q 25.87 21.05 25.99 18.65 Q 25.99 18.65 25.99 17.30 Q 25.99 17.28 25.99 17.26 Q 25.38 18.08 24.69 18.85 Q 23.79 19.81 22.94 20.50 Q 22.71 20.16 21.94 19.26 Q 21.94 19.26 21.58 19.00 Q 22.43 18.45 24.20 16.72 Q 24.20 16.72 24.95 15.72 Q 25.46 15.04 25.83 14.35 Q 25.68 13.07 25.29 11.87 Q 25.25 11.81 25.23 11.73 Q 24.16 12.82 23.03 13.67 Q 22.88 13.48 22.39 12.99 Q 22.39 12.99 21.88 12.52 Q 21.88 12.52 21.64 12.37 Q 22.73 11.58 23.77 10.53 Q 24.08 10.24 24.38 9.92 Q 24.22 9.66 24.08 9.43 Q 23.26 8.23 21.94 7.12 Z M 29.04 13.99 L 35.88 13.99 L 35.88 11.16 L 37.81 11.16 L 37.81 13.99 L 41.38 13.99 L 41.38 15.84 L 37.81 15.84 L 37.81 23.15 Q 37.81 23.98 37.39 24.85 Q 37.39 24.85 36.84 25.08 Q 36.29 25.30 34.52 25.43 Q 34.52 25.43 33.21 25.43 Q 33.16 25.02 32.80 23.91 Q 32.80 23.91 32.59 23.53 Q 33.52 23.55 35.13 23.57 Q 35.13 23.57 35.38 23.55 Q 35.66 23.55 35.88 23.35 Q 35.88 23.35 35.88 23.12 L 35.88 15.84 L 29.04 15.84 Z M 29.04 8.21 L 34.21 8.21 Q 34.13 7.91 34.01 7.61 Q 33.70 6.76 33.34 6.07 L 35.21 5.62 Q 35.60 6.31 35.96 7.12 Q 36.19 7.72 36.33 8.21 L 41.18 8.21 L 41.18 12.60 L 39.24 12.60 L 39.24 9.92 L 30.90 9.92 L 30.90 12.60 L 29.04 12.60 Z M 30.12 17.49 L 31.54 16.57 Q 32.18 17.17 33.42 18.57 Q 33.42 18.57 34.46 19.95 Q 34.46 19.95 34.74 20.54 L 33.21 21.56 Q 32.93 20.99 31.95 19.56 Q 31.95 19.56 30.73 18.08 Q 30.73 18.08 30.12 17.49 Z M 55.71 5.69 L 57.61 5.69 L 57.61 10.83 L 59.96 9.83 L 60.33 9.53 L 60.68 9.26 L 62.12 9.79 L 62.02 10.12 Q 62.02 11.65 62.00 14.23 Q 62.00 14.23 61.96 16.25 Q 61.96 16.25 61.90 17.64 Q 61.90 17.64 61.84 17.96 Q 61.77 18.65 61.19 19.36 Q 61.19 19.36 60.70 19.52 Q 60.25 19.69 59.09 19.75 Q 59.09 19.75 58.62 19.75 Q 58.58 19.34 58.31 18.34 Q 58.31 18.34 58.17 18.02 Q 58.48 18.04 59.25 18.06 Q 59.25 18.06 59.40 18.06 Q 59.64 18.06 59.92 17.85 Q 59.92 17.85 59.98 17.53 Q 60.02 17.34 60.06 16.15 Q 60.06 16.15 60.09 14.21 Q 60.09 14.21 60.09 12.86 Q 60.09 12.34 60.09 11.81 L 57.61 12.89 L 57.61 20.62 L 55.71 20.62 L 55.71 13.69 L 53.33 14.72 L 53.33 21.80 Q 53.33 22.40 53.53 23.01 Q 53.53 23.01 54.24 23.23 Q 54.24 23.23 54.92 23.23 L 59.64 23.23 Q 60.25 23.23 60.86 22.76 Q 60.86 22.76 61.15 21.52 Q 61.15 21.52 61.22 20.34 Q 61.55 20.58 62.61 21.01 Q 62.61 21.01 63.01 21.09 Q 62.88 22.59 62.24 24.29 Q 62.24 24.29 60.94 25.04 Q 60.94 25.04 59.76 25.04 L 54.79 25.04 Q 53.49 25.04 51.98 24.49 Q 51.98 24.49 51.38 23.06 Q 51.38 23.06 51.38 21.78 L 51.38 15.55 L 49.93 16.17 L 49.16 14.40 L 51.38 13.46 L 51.38 7.72 L 53.33 7.72 L 53.33 12.65 L 55.71 11.62 Z M 43.13 10.75 L 45.77 10.75 L 45.77 5.95 L 47.67 5.95 L 47.67 10.75 L 50.03 10.75 L 50.03 12.65 L 47.67 12.65 L 47.67 18.34 Q 48.78 17.87 49.91 17.41 L 50.36 19.20 Q 48.65 20.01 45.15 21.62 Q 45.15 21.62 43.70 22.27 L 42.91 20.24 Q 43.76 19.93 44.92 19.47 Q 45.35 19.30 45.77 19.11 L 45.77 12.65 L 43.13 12.65 Z M 64.95 9.28 L 74.21 9.28 Q 73.99 8.70 73.66 7.94 Q 73.23 7.01 72.83 6.25 L 74.78 5.50 Q 75.21 6.23 76.11 8.00 Q 76.11 8.00 76.35 8.61 L 74.83 9.28 L 83.74 9.28 L 83.74 11.22 L 72.83 11.22 Q 72.73 12.54 72.61 13.89 Q 72.59 14.07 72.56 14.29 L 81.74 14.29 L 81.72 14.46 Q 81.72 14.64 81.70 15.06 Q 81.70 15.06 81.68 15.21 Q 81.46 18.20 80.99 21.91 Q 80.99 21.91 80.40 23.96 Q 80.40 23.96 79.97 24.39 Q 79.54 24.85 78.59 25.19 Q 78.59 25.19 77.92 25.26 Q 77.33 25.30 75.36 25.28 Q 75.36 25.28 74.27 25.21 Q 74.25 24.76 73.87 23.66 Q 73.87 23.66 73.54 23.25 Q 74.68 23.33 76.70 23.40 Q 76.70 23.40 77.17 23.40 Q 77.51 23.40 77.98 23.29 Q 77.98 23.29 78.20 23.12 Q 78.51 22.84 79.05 20.93 Q 79.05 20.93 79.26 19.16 Q 79.39 17.94 79.52 16.23 L 72.26 16.23 Q 72.16 16.74 72.05 17.26 Q 71.67 18.92 70.20 21.97 Q 70.20 21.97 67.80 24.57 Q 67.80 24.57 66.01 25.55 Q 65.78 25.17 64.93 24.23 Q 64.93 24.23 64.52 23.94 Q 66.21 23.06 68.41 20.73 Q 68.41 20.73 69.69 18.00 Q 69.69 18.00 70.33 15.01 Q 70.33 15.01 70.43 13.50 Q 70.51 12.34 70.59 11.22 L 64.95 11.22 Z M 86.22 7.66 L 94.56 7.66 L 94.56 5.76 L 96.75 5.76 L 96.75 7.66 L 105.07 7.66 L 105.07 9.55 L 96.75 9.55 L 96.75 11.54 L 104.10 11.54 L 104.10 23.29 Q 104.10 24.10 103.67 24.96 Q 103.67 24.96 102.49 25.39 Q 102.49 25.39 100.64 25.47 Q 100.64 25.47 99.34 25.47 Q 99.27 25.08 98.87 24.08 Q 98.87 24.08 98.66 23.72 Q 99.27 23.74 100.45 23.76 Q 100.45 23.76 101.39 23.74 Q 101.39 23.74 101.55 23.74 Q 101.86 23.74 102.04 23.55 Q 102.04 23.55 102.04 23.29 L 102.04 13.40 L 89.25 13.40 L 89.25 25.45 L 87.22 25.45 L 87.22 11.54 L 94.56 11.54 L 94.56 9.55 L 86.22 9.55 Z M 90.74 16.49 L 92.90 16.49 Q 92.77 16.00 92.43 15.31 Q 92.09 14.61 91.72 14.03 L 93.30 13.54 Q 93.73 14.09 94.43 15.46 Q 94.43 15.46 94.61 15.98 L 93.13 16.49 L 96.61 16.49 Q 96.85 16.08 97.10 15.59 Q 97.36 15.06 97.85 13.99 Q 97.85 13.99 98.01 13.54 L 99.72 14.05 Q 99.31 14.84 98.87 15.64 Q 98.60 16.10 98.34 16.49 L 100.62 16.49 L 100.62 18.08 L 96.54 18.08 L 96.54 19.93 L 101.02 19.93 L 101.02 21.58 L 96.54 21.58 L 96.54 25.00 L 94.63 25.00 L 94.63 21.58 L 90.29 21.58 L 90.29 19.93 L 94.63 19.93 L 94.63 18.08 L 90.74 18.08 Z M 119.52 6.78 L 125.04 6.78 L 125.35 6.70 L 126.73 7.57 Q 126.18 9.08 124.84 12.52 Q 124.84 12.52 124.19 13.95 Q 125.55 15.44 126.41 17.98 Q 126.41 17.98 126.41 19.07 Q 126.41 20.09 125.94 21.60 Q 125.94 21.60 125.39 21.99 Q 125.11 22.17 124.41 22.40 Q 124.41 22.40 124.00 22.46 Q 123.64 22.50 122.72 22.50 Q 122.72 22.50 122.25 22.48 Q 122.23 22.09 121.99 21.01 Q 121.99 21.01 121.74 20.60 Q 122.17 20.65 122.91 20.67 Q 122.91 20.67 123.21 20.65 Q 123.45 20.65 123.88 20.54 Q 123.88 20.54 124.04 20.44 Q 124.32 20.24 124.57 19.39 Q 124.57 19.39 124.55 18.85 Q 124.55 17.90 123.62 15.57 Q 123.62 15.57 122.27 14.19 Q 122.60 13.37 123.29 11.52 Q 123.29 11.52 123.94 9.66 Q 123.94 9.66 124.21 8.83 Q 124.25 8.72 124.29 8.59 L 121.31 8.59 L 121.31 25.43 L 119.52 25.43 Z M 108.45 17.49 L 117.64 17.49 L 117.64 25.26 L 115.66 25.26 L 115.66 24.41 L 110.35 24.41 L 110.35 25.41 L 108.45 25.41 Z M 107.92 8.12 L 112.18 8.12 Q 112.10 7.89 112.01 7.61 Q 111.71 6.78 111.37 6.07 L 113.18 5.56 Q 113.54 6.25 113.87 7.06 Q 114.13 7.66 114.27 8.12 L 118.09 8.12 L 118.09 9.96 L 115.27 9.96 L 117.24 10.39 Q 116.94 11.14 116.29 12.67 Q 116.29 12.67 115.98 13.40 Q 115.85 13.65 115.74 13.89 L 118.56 13.89 L 118.56 15.72 L 107.31 15.72 L 107.31 13.89 L 110.37 13.89 Q 110.24 13.18 109.90 12.26 Q 109.53 11.28 109.13 10.45 L 110.86 10.00 Q 111.30 10.81 112.05 12.73 Q 112.05 12.73 112.20 13.46 L 110.63 13.89 L 113.82 13.89 Q 114.03 13.44 114.25 12.89 Q 114.55 12.14 114.80 11.36 Q 115.06 10.60 115.23 9.96 L 107.92 9.96 Z M 115.66 22.64 L 115.66 19.30 L 110.35 19.30 L 110.35 22.64 Z" xml:space="preserve" style="font-weight:613;font-size:21.3333px;line-height:1.2;font-family:'Dream Han Sans SC';-inkscape-font-specification:'Dream Han Sans SC weight=613';text-align:start;writing-mode:lr-tb;direction:ltr;text-anchor:start;fill:#ffffff" id="text8" data-original-text="石狩地方南部" data-original-element="text"/>
</svg>