<?xml version="1.0" ?>
<svg xmlns="http://www.w3.org/2000/svg" xmlns:ns1="http://sodipodi.sourceforge.net/DTD/sodipodi-0.dtd" xmlns:ns2="http://www.inkscape.org/namespaces/inkscape" version="1.1" width="208" height="32" viewBox="0,0,208,32" id="svg11" ns1:docname="0f9a1cf390716de48c88dff389762d31.svg" ns2:version="1.4.2 (f4327f4, 2025-05-13)">
  <defs id="defs11"/>
  <ns1:namedview id="namedview11" pagecolor="#505050" bordercolor="#eeeeee" borderopacity="1" ns2:showpageshadow="0" ns2:pageopacity="0" ns2:pagecheckerboard="0" ns2:deskcolor="#505050" ns2:zoom="6.0274054" ns2:cx="106.76236" ns2:cy="5.8897648" ns2:window-width="1920" ns2:window-height="945" ns2:window-x="-9" ns2:window-y="40" ns2:window-maximized="1" ns2:current-layer="svg11"/>
  <g transform="translate(-240,-164)" id="g11">
    <g data-paper-data="{&quot;isPaintingLayer&quot;:true}" fill-rule="nonzero" stroke="none" stroke-linecap="butt" stroke-linejoin="miter" stroke-miterlimit="10" stroke-dasharray="" stroke-dashoffset="0" style="mix-blend-mode: normal" id="g10">
      <path d="M240,196v-32h208v32z" fill="none" stroke-width="0" id="path1"/>
    </g>
  </g>
  <path d="M 0.81 18.15 L 4.46 18.15 L 4.46 7.37 Q 6.08 7.31 9.50 7.06 Q 9.50 7.06 12.80 6.73 Q 12.80 6.73 15.79 6.33 Q 15.79 6.33 16.97 6.10 L 18.01 7.93 Q 16.67 8.18 13.49 8.61 Q 13.49 8.61 10.05 8.91 Q 10.05 8.91 8.32 9.02 Q 7.41 9.08 6.53 9.10 L 6.53 11.79 L 19.03 11.79 L 19.03 13.69 L 15.39 13.69 L 15.39 18.15 L 20.21 18.15 L 20.21 20.07 L 0.81 20.07 Z M 6.53 18.15 L 13.31 18.15 L 13.31 13.69 L 6.53 13.69 Z M 7.04 20.47 L 8.85 21.73 Q 8.00 22.45 5.76 23.97 Q 5.76 23.97 3.40 25.34 Q 3.40 25.34 2.31 25.85 Q 2.07 25.53 1.24 24.65 Q 1.24 24.65 0.90 24.36 Q 1.99 23.89 4.29 22.57 Q 4.29 22.57 6.37 21.11 Q 6.37 21.11 7.04 20.47 Z M 12.21 21.86 L 13.68 20.52 Q 14.45 20.90 16.18 21.84 Q 16.18 21.84 17.93 22.86 Q 17.93 22.86 19.44 23.82 Q 19.44 23.82 19.99 24.22 L 18.40 25.77 Q 17.73 25.21 15.59 23.82 Q 15.59 23.82 13.25 22.39 Q 13.25 22.39 12.21 21.86 Z M 26.78 12.29 L 30.51 12.29 Q 30.55 12.17 30.59 12.07 Q 30.98 11.15 31.26 10.23 L 33.34 10.91 Q 33.07 11.60 32.75 12.29 L 40.75 12.29 L 40.75 14.10 L 31.85 14.10 Q 31.34 15.06 30.79 15.95 Q 30.45 16.50 30.10 17.02 L 33.65 17.02 L 33.65 14.97 L 35.66 14.97 L 35.66 17.02 L 40.14 17.02 L 40.14 18.83 L 35.66 18.83 L 35.66 20.96 L 41.56 20.96 L 41.56 22.80 L 35.66 22.80 L 35.66 25.83 L 33.65 25.83 L 33.65 22.80 L 26.22 22.80 L 26.22 20.96 L 33.65 20.96 L 33.65 18.83 L 30.17 18.83 Q 29.35 18.83 28.23 18.98 Q 28.23 18.98 28.08 19.13 Q 28.03 18.91 27.80 18.21 Q 27.80 18.21 27.54 17.46 Q 27.54 17.46 27.42 17.19 Q 27.72 17.10 28.29 16.46 Q 28.29 16.46 28.62 15.95 Q 28.78 15.69 29.10 15.14 Q 29.35 14.67 29.66 14.10 L 26.78 14.10 Z M 23.65 8.14 L 31.92 8.14 Q 31.88 7.99 31.81 7.85 Q 31.49 7.10 31.10 6.47 L 33.09 6.00 Q 33.50 6.59 33.84 7.31 Q 34.05 7.75 34.20 8.14 L 41.56 8.14 L 41.56 10.02 L 25.65 10.02 L 25.65 14.24 Q 25.65 15.50 25.50 18.54 Q 25.50 18.54 25.05 21.73 Q 25.05 21.73 24.18 24.71 Q 24.18 24.71 23.45 25.93 Q 23.28 25.77 22.64 25.30 Q 22.64 25.30 21.98 24.89 Q 21.98 24.89 21.74 24.79 Q 22.41 23.65 23.18 20.96 Q 23.18 20.96 23.53 18.13 Q 23.53 18.13 23.65 15.40 Q 23.65 15.40 23.65 14.24 Z M 43.66 17.89 L 46.96 17.89 L 46.96 7.06 L 59.82 7.06 L 59.82 17.89 L 62.73 17.89 L 62.73 19.70 L 51.99 19.70 Q 50.87 20.98 49.60 22.12 Q 49.01 22.67 48.43 23.14 L 57.79 22.75 Q 57.56 22.53 57.30 22.29 Q 56.34 21.35 55.43 20.60 L 57.14 19.83 Q 58.05 20.58 60.01 22.41 Q 60.01 22.41 61.72 24.18 Q 61.72 24.18 62.25 24.87 L 60.51 25.81 Q 60.01 25.14 59.27 24.32 Q 56.52 24.44 54.49 24.55 Q 52.31 24.67 49.34 24.83 Q 49.34 24.83 47.47 24.95 Q 47.47 24.95 46.34 25.08 Q 46.34 25.08 45.72 25.19 Q 45.72 25.19 45.51 25.28 Q 45.45 25.06 45.23 24.38 Q 45.23 24.38 44.98 23.63 Q 44.98 23.63 44.87 23.37 Q 45.19 23.29 45.94 22.86 Q 45.94 22.86 46.34 22.53 Q 46.66 22.31 47.96 21.15 Q 47.96 21.15 48.75 20.33 Q 49.03 20.03 49.30 19.70 L 43.66 19.70 Z M 48.90 17.89 L 57.79 17.89 L 57.79 15.91 L 48.90 15.91 Z M 57.79 10.70 L 57.79 8.77 L 48.90 8.77 L 48.90 10.70 Z M 57.79 14.24 L 57.79 12.37 L 48.90 12.37 L 48.90 14.24 Z M 72.41 6.18 L 74.18 6.18 L 74.18 8.32 L 76.59 8.32 L 76.59 9.95 L 74.18 9.95 L 74.18 11.92 L 76.46 11.92 L 76.46 18.04 L 74.26 18.04 Q 74.71 18.52 75.19 19.07 Q 75.72 19.68 76.64 20.88 Q 76.64 20.88 76.91 21.35 L 75.78 22.37 Q 75.52 21.88 75.05 21.24 Q 74.63 20.66 74.14 20.05 L 74.14 25.77 L 72.45 25.77 L 72.45 20.09 Q 71.92 21.33 71.28 22.43 Q 70.62 23.59 69.88 24.36 Q 69.76 23.95 69.23 22.92 Q 69.23 22.92 69.02 22.57 Q 69.68 21.94 70.92 20.07 Q 70.92 20.07 71.45 19.00 Q 71.69 18.52 71.88 18.04 L 70.06 18.04 L 70.06 11.92 L 72.41 11.92 L 72.41 9.95 L 69.80 9.95 L 69.80 8.32 L 72.41 8.32 Z M 78.88 6.00 L 80.49 6.24 Q 80.30 6.92 80.07 7.65 L 82.18 7.65 L 82.44 7.57 L 83.54 8.24 Q 83.31 8.95 82.69 10.56 Q 82.69 10.56 82.38 11.30 Q 82.29 11.52 82.20 11.70 L 83.89 11.70 L 83.89 21.27 L 82.33 21.27 L 82.33 13.20 L 78.83 13.20 L 78.83 21.31 L 77.35 21.31 L 77.35 11.77 Q 76.96 11.54 76.64 11.43 Q 77.19 10.60 78.04 8.69 Q 78.04 8.69 78.68 6.82 Q 78.68 6.82 78.88 6.00 Z M 79.94 14.16 L 81.34 14.16 Q 81.34 16.74 81.07 20.56 Q 81.07 20.56 80.65 21.92 Q 80.54 22.27 80.41 22.59 L 81.54 21.69 Q 82.05 22.14 83.16 23.20 Q 83.16 23.20 84.17 24.24 Q 84.17 24.24 84.46 24.65 L 83.25 25.70 Q 82.95 25.28 81.99 24.20 Q 81.99 24.20 81.44 23.63 Q 80.90 23.08 80.39 22.61 Q 79.98 23.55 79.34 24.27 Q 78.47 25.23 76.98 25.91 Q 76.87 25.64 76.29 24.89 Q 76.29 24.89 76.03 24.67 Q 77.41 24.08 78.98 22.43 Q 78.98 22.43 79.73 20.03 Q 79.73 20.03 79.92 16.57 Q 79.92 16.57 79.94 14.16 Z M 65.03 24.12 Q 65.48 23.29 66.50 21.07 Q 66.50 21.07 67.54 18.58 Q 67.54 18.58 67.97 17.38 L 69.49 18.46 Q 69.10 19.56 68.19 21.92 Q 68.19 21.92 67.21 24.18 Q 67.21 24.18 66.76 25.19 Z M 65.56 7.89 L 66.84 6.82 Q 67.33 7.20 68.38 8.16 Q 68.38 8.16 69.27 9.10 Q 69.27 9.10 69.55 9.50 L 68.23 10.72 Q 67.97 10.32 67.07 9.30 Q 67.07 9.30 66.05 8.30 Q 66.05 8.30 65.56 7.89 Z M 64.56 13.58 L 65.73 12.43 Q 66.24 12.80 67.38 13.65 Q 67.38 13.65 68.38 14.53 Q 68.38 14.53 68.70 14.88 L 67.46 16.18 Q 67.16 15.80 66.18 14.88 Q 66.18 14.88 65.07 13.96 Q 65.07 13.96 64.56 13.58 Z M 78.39 11.70 L 80.63 11.70 Q 80.81 11.23 81.01 10.66 Q 81.26 9.93 81.48 9.23 Q 81.50 9.19 81.50 9.14 L 79.55 9.14 Q 79.53 9.21 79.51 9.28 Q 79.04 10.54 78.39 11.70 Z M 71.43 13.47 L 71.43 16.46 L 72.67 16.46 L 72.67 13.47 Z M 73.95 13.47 L 73.95 16.46 L 75.03 16.46 L 75.03 13.47 Z M 88.54 9.32 L 95.49 9.32 Q 95.32 8.77 95.04 8.06 Q 94.70 7.18 94.37 6.43 L 96.34 5.92 Q 96.73 6.65 97.44 8.36 Q 97.44 8.36 97.63 8.97 L 96.49 9.32 L 103.41 9.32 L 103.41 18.23 L 101.33 18.23 L 101.33 16.95 L 90.54 16.95 Q 90.42 18.52 90.09 20.09 Q 89.77 21.71 88.56 24.74 Q 88.56 24.74 87.57 25.99 Q 87.39 25.81 86.75 25.32 Q 86.75 25.32 86.06 24.87 Q 86.06 24.87 85.80 24.79 Q 86.75 23.61 87.85 20.88 Q 87.85 20.88 88.39 17.99 Q 88.39 17.99 88.54 15.24 Q 88.54 15.24 88.54 14.05 Z M 90.65 11.19 L 90.65 14.05 Q 90.65 14.55 90.63 15.08 L 101.33 15.08 L 101.33 11.19 Z M 116.17 6.05 L 118.21 6.05 L 118.21 9.66 L 125.88 9.66 L 125.88 23.40 Q 125.88 24.30 125.43 25.25 Q 125.43 25.25 124.80 25.50 Q 124.21 25.74 122.20 25.85 Q 122.20 25.85 120.75 25.85 Q 120.73 25.57 120.49 24.83 Q 120.49 24.83 120.22 24.10 Q 120.22 24.10 120.09 23.82 Q 120.79 23.85 122.12 23.89 Q 122.12 23.89 123.16 23.87 Q 123.16 23.87 123.35 23.87 Q 123.66 23.85 123.89 23.65 Q 123.89 23.65 123.89 23.37 L 123.89 11.62 L 118.19 11.62 Q 118.17 12.19 118.10 12.82 Q 118.02 13.54 117.85 14.27 Q 118.47 14.82 119.13 15.44 Q 119.98 16.22 121.65 17.85 Q 121.65 17.85 123.07 19.36 Q 123.07 19.36 123.56 19.96 L 121.91 21.29 Q 121.46 20.66 120.09 19.11 Q 120.09 19.11 118.47 17.42 Q 118.47 17.42 117.62 16.59 Q 117.43 16.40 117.23 16.22 Q 116.98 16.83 116.62 17.42 Q 115.95 18.58 113.81 20.70 Q 113.81 20.70 112.26 21.63 Q 112.12 21.41 111.63 20.84 Q 111.63 20.84 111.06 20.29 Q 111.06 20.29 110.81 20.11 Q 112.32 19.30 114.29 17.44 Q 114.29 17.44 115.44 15.44 Q 115.44 15.44 115.99 13.43 Q 115.99 13.43 116.08 12.45 Q 116.10 12.03 116.13 11.62 L 110.53 11.62 L 110.53 25.89 L 108.51 25.89 L 108.51 9.66 L 116.17 9.66 Z M 136.63 11.94 L 147.03 11.94 L 147.03 12.11 Q 147.01 12.29 147.01 12.70 Q 147.01 12.70 147.01 12.84 Q 146.93 14.73 146.84 16.27 L 148.48 16.27 L 148.48 18.11 L 146.74 18.11 Q 146.65 19.77 146.52 20.94 L 147.91 20.94 L 147.91 22.69 L 146.29 22.69 Q 146.18 23.24 146.09 23.65 Q 145.89 24.42 145.60 24.77 Q 145.26 25.21 144.49 25.55 Q 144.49 25.55 144.00 25.64 Q 143.53 25.68 142.08 25.68 Q 142.08 25.68 141.29 25.64 Q 141.27 25.25 141.02 24.30 Q 141.02 24.30 140.78 23.95 Q 141.55 24.02 142.85 24.06 Q 142.85 24.06 143.15 24.06 Q 143.43 24.06 143.79 23.91 Q 143.79 23.91 143.94 23.71 Q 144.18 23.48 144.34 22.75 Q 144.34 22.73 144.37 22.69 L 135.13 22.69 Q 135.34 21.65 135.55 20.33 Q 135.73 19.25 135.90 18.11 L 133.94 18.11 L 133.94 16.27 L 136.14 16.27 Q 136.24 15.46 136.34 14.65 Q 136.52 13.22 136.63 11.94 Z M 137.16 6.03 L 139.09 6.53 Q 138.80 7.44 138.42 8.36 L 147.93 8.36 L 147.93 10.17 L 137.58 10.17 Q 137.20 10.91 136.77 11.62 Q 136.09 12.78 135.37 13.65 Q 135.18 13.47 134.53 13.05 Q 134.53 13.05 133.88 12.64 Q 133.88 12.64 133.64 12.52 Q 134.39 11.72 135.71 9.64 Q 135.71 9.64 136.77 7.24 Q 136.77 7.24 137.16 6.03 Z M 129.28 24.40 Q 129.71 23.57 130.74 21.27 Q 130.74 21.27 131.80 18.70 Q 131.80 18.70 132.23 17.46 L 133.78 18.58 Q 133.41 19.70 132.46 22.14 Q 132.46 22.14 131.48 24.48 Q 131.48 24.48 131.03 25.48 Z M 144.65 20.94 Q 144.65 20.84 144.67 20.73 Q 144.79 19.64 144.90 18.11 L 140.53 18.11 Q 141.10 18.56 141.74 19.15 Q 142.45 19.83 142.83 20.37 L 142.00 20.94 Z M 129.84 7.71 L 130.97 6.35 Q 131.58 6.63 133.02 7.40 Q 133.02 7.40 134.30 8.18 Q 134.30 8.18 134.70 8.53 L 133.53 10.07 Q 133.15 9.72 131.89 8.87 Q 131.89 8.87 130.46 8.04 Q 130.46 8.04 129.84 7.71 Z M 139.23 18.68 L 140.17 18.11 L 137.75 18.11 Q 137.60 19.30 137.44 20.39 Q 137.40 20.66 137.34 20.94 L 141.49 20.94 Q 141.15 20.49 140.59 19.94 Q 139.91 19.23 139.23 18.68 Z M 128.67 13.88 L 129.77 12.49 Q 130.38 12.78 131.74 13.52 Q 131.74 13.52 132.93 14.29 Q 132.93 14.29 133.31 14.63 L 132.15 16.16 Q 131.80 15.82 130.60 14.99 Q 130.60 14.99 129.26 14.18 Q 129.26 14.18 128.67 13.88 Z M 145.01 16.27 Q 145.05 15.08 145.12 13.67 L 141.08 13.67 Q 141.59 14.10 142.15 14.61 Q 142.79 15.24 143.13 15.71 L 142.37 16.27 Z M 139.80 14.22 L 140.62 13.67 L 138.31 13.67 Q 138.26 14.18 138.20 14.71 Q 138.09 15.50 138.01 16.27 L 141.82 16.27 Q 141.53 15.87 141.04 15.37 Q 140.42 14.71 139.80 14.22 Z M 157.53 16.53 L 168.14 16.53 L 168.14 25.79 L 166.10 25.79 L 166.10 24.65 L 159.47 24.65 L 159.47 25.89 L 157.53 25.89 Z M 158.66 7.04 L 166.79 7.04 L 166.79 12.88 Q 166.79 13.37 166.92 13.75 Q 166.92 13.75 167.15 13.75 L 168.34 13.75 Q 168.56 13.75 169.20 13.71 Q 169.20 13.71 169.40 13.65 Q 169.44 14.03 169.50 14.90 Q 169.50 14.90 169.54 15.24 Q 169.32 15.31 168.71 15.37 Q 168.71 15.37 168.39 15.37 L 166.88 15.37 Q 166.02 15.37 165.13 14.84 Q 165.13 14.84 164.82 13.71 Q 164.82 13.71 164.82 12.84 L 164.82 8.91 L 160.60 8.91 L 160.60 9.46 Q 160.60 10.60 159.98 13.13 Q 159.98 13.13 158.34 15.50 Q 158.34 15.50 156.76 16.42 Q 156.66 16.18 156.15 15.59 Q 156.15 15.59 155.64 15.02 Q 155.64 15.02 155.44 14.86 Q 156.82 14.10 158.21 12.23 Q 158.21 12.23 158.66 10.30 Q 158.66 10.30 158.66 9.40 Z M 166.10 22.78 L 166.10 18.38 L 159.47 18.38 L 159.47 22.78 Z M 150.37 24.14 Q 150.96 23.35 152.45 21.13 Q 152.45 21.13 154.01 18.64 Q 154.01 18.64 154.69 17.44 L 156.13 18.87 Q 155.52 19.96 154.14 22.31 Q 154.14 22.31 152.73 24.59 Q 152.73 24.59 152.04 25.62 Z M 150.96 7.80 L 152.22 6.53 Q 152.88 6.86 154.38 7.78 Q 154.38 7.78 155.72 8.69 Q 155.72 8.69 156.17 9.10 L 154.82 10.54 Q 154.42 10.13 153.09 9.14 Q 153.09 9.14 151.63 8.18 Q 151.63 8.18 150.96 7.80 Z M 149.82 13.58 L 151.08 12.29 Q 151.75 12.60 153.24 13.43 Q 153.24 13.43 154.63 14.31 Q 154.63 14.31 155.07 14.67 L 153.75 16.12 Q 153.34 15.73 152.00 14.84 Q 152.00 14.84 150.51 13.92 Q 150.51 13.92 149.82 13.58 Z M 176.60 16.06 L 189.76 16.06 L 189.76 17.79 L 184.12 17.79 L 184.12 19.79 L 190.83 19.79 L 190.83 21.56 L 184.12 21.56 L 184.12 25.85 L 182.00 25.85 L 182.00 21.56 L 175.57 21.56 L 175.57 19.79 L 182.00 19.79 L 182.00 17.79 L 176.60 17.79 Z M 173.02 12.73 L 190.51 12.73 L 190.51 14.53 L 175.04 14.53 L 175.04 16.83 Q 175.04 17.81 174.85 20.09 Q 174.85 20.09 174.37 22.43 Q 174.37 22.43 173.47 24.63 Q 173.47 24.63 172.74 25.53 Q 172.59 25.34 171.99 24.83 Q 171.99 24.83 171.33 24.34 Q 171.33 24.34 171.12 24.22 Q 171.99 23.14 172.78 20.54 Q 172.78 20.54 173.02 17.91 Q 173.02 17.91 173.02 16.81 Z M 173.10 6.84 L 175.15 6.84 L 175.15 9.44 L 180.13 9.44 L 180.13 6.03 L 182.25 6.03 L 182.25 9.44 L 187.33 9.44 L 187.33 6.84 L 189.45 6.84 L 189.45 11.25 L 173.10 11.25 Z" xml:space="preserve" style="font-weight:613;font-size:21.3333px;line-height:1.2;font-family:'Dream Han Sans SC';-inkscape-font-specification:'Dream Han Sans SC weight=613';text-align:start;writing-mode:lr-tb;direction:ltr;text-anchor:start;fill:#ffffff" id="text11" data-original-text="兵库县濑户内海沿岸" data-original-element="text"/>
</svg>