<?xml version="1.0" ?>
<svg xmlns="http://www.w3.org/2000/svg" xmlns:ns1="http://sodipodi.sourceforge.net/DTD/sodipodi-0.dtd" xmlns:ns2="http://www.inkscape.org/namespaces/inkscape" viewBox="0 0 196 34" version="1.1" height="34" width="196" id="svg31" ns1:docname="106d6eff477cd62e0008bef153b72899.svg" ns2:version="1.4.2 (f4327f4, 2025-05-13)">
  <defs id="defs31"/>
  <ns1:namedview id="namedview31" pagecolor="#505050" bordercolor="#eeeeee" borderopacity="1" ns2:showpageshadow="0" ns2:pageopacity="0" ns2:pagecheckerboard="0" ns2:deskcolor="#505050" ns2:zoom="5.6568543" ns2:cx="107.39184" ns2:cy="22.185475" ns2:window-width="1920" ns2:window-height="945" ns2:window-x="-9" ns2:window-y="40" ns2:window-maximized="1" ns2:current-layer="svg31"/>
  <text xml:space="preserve" style="font-weight:613;font-size:16px;line-height:1.2;font-family:'Dream Han Sans SC';-inkscape-font-specification:'Dream Han Sans SC weight=613';text-align:start;writing-mode:lr-tb;direction:ltr;text-anchor:start;fill:#dbe9ff;fill-opacity:0.984314" x="0.88388348" y="15.202796" id="text31">
    <tspan ns1:role="line" id="tspan31"/>
  </text>
  <path d="M 0.0 0.0 L 196.0 0.0 L 196.0 34.0 L 0.0 34.0 Z" fill-opacity="0" id="rect1" data-original-element="rect"/>
  <path d="M 1.03 5.56 L 5.12 5.56 L 5.12 3.25 L 6.28 3.25 L 6.28 5.56 L 10.47 5.56 L 10.47 14.35 L 9.29 14.35 L 9.29 13.69 L 2.17 13.69 L 2.17 14.39 L 1.03 14.39 Z M 6.28 10.16 L 6.28 12.56 L 9.29 12.56 L 9.29 10.16 Z M 6.28 6.69 L 6.28 9.06 L 9.29 9.06 L 9.29 6.69 Z M 5.12 12.56 L 5.12 10.16 L 2.17 10.16 L 2.17 12.56 Z M 5.12 6.69 L 2.17 6.69 L 2.17 9.06 L 5.12 9.06 Z M 12.38 7.97 L 17.26 7.97 L 17.26 5.19 L 13.20 5.19 L 13.20 4.07 L 22.28 4.07 L 22.28 5.19 L 18.46 5.19 L 18.46 7.97 L 23.12 7.97 L 23.12 9.11 L 18.46 9.11 L 18.46 12.84 Q 18.46 13.40 18.15 13.97 Q 18.15 13.97 17.76 14.12 Q 17.38 14.26 16.13 14.34 Q 16.13 14.34 15.22 14.34 Q 15.18 14.16 15.02 13.72 Q 15.02 13.72 14.83 13.30 Q 14.83 13.30 14.75 13.14 Q 15.22 13.15 16.09 13.17 Q 16.09 13.17 16.76 13.16 Q 16.76 13.16 16.90 13.16 Q 17.10 13.15 17.26 13.02 Q 17.26 13.02 17.26 12.84 L 17.26 9.11 L 12.38 9.11 Z M 25.28 8.47 L 34.72 8.47 L 34.72 9.26 L 26.35 9.26 L 26.35 10.15 Q 26.35 10.49 26.32 10.89 L 35.17 10.89 L 35.17 11.66 L 33.70 11.66 L 34.47 12.06 Q 34.02 12.36 33.52 12.62 Q 33.24 12.76 32.99 12.87 Q 33.14 12.92 33.30 12.97 Q 34.24 13.21 35.38 13.30 Q 35.22 13.45 34.90 13.95 Q 34.90 13.95 34.80 14.17 Q 33.57 14.03 31.62 13.35 Q 31.62 13.35 30.91 12.80 Q 30.29 12.32 29.85 11.66 L 28.24 11.66 L 28.24 13.20 L 30.79 12.84 Q 30.74 13.02 30.70 13.52 Q 30.70 13.52 30.70 13.68 Q 29.56 13.87 28.17 14.11 Q 28.17 14.11 27.42 14.26 Q 27.42 14.26 27.08 14.34 Q 27.08 14.34 26.99 14.39 Q 26.95 14.26 26.78 13.92 Q 26.78 13.92 26.58 13.59 Q 26.58 13.59 26.49 13.48 Q 26.68 13.38 27.14 12.91 Q 27.14 12.91 27.14 12.52 L 27.14 11.66 L 26.23 11.66 Q 26.17 11.99 26.07 12.36 Q 25.92 12.93 25.34 14.02 Q 25.34 14.02 24.89 14.46 Q 24.80 14.35 24.50 14.07 Q 24.50 14.07 24.17 13.80 Q 24.17 13.80 24.05 13.75 Q 24.62 13.21 25.13 11.95 Q 25.13 11.95 25.28 10.68 Q 25.28 10.68 25.28 10.13 Z M 25.32 3.64 L 34.14 3.64 L 34.14 4.47 L 30.25 4.47 L 30.25 5.04 L 34.90 5.04 L 34.90 7.11 L 33.79 7.11 L 33.79 5.73 L 30.25 5.73 L 30.25 8.20 L 29.15 8.20 L 29.15 5.73 L 25.64 5.73 L 25.64 7.11 L 24.57 7.11 L 24.57 5.04 L 29.15 5.04 L 29.15 4.47 L 25.32 4.47 Z M 26.88 9.70 L 34.03 9.70 L 34.03 10.41 L 26.88 10.41 Z M 30.77 7.35 L 33.66 7.35 L 33.66 7.96 L 30.77 7.96 Z M 25.82 7.35 L 28.66 7.35 L 28.66 7.96 L 25.82 7.96 Z M 30.77 6.25 L 33.38 6.25 L 33.38 6.86 L 30.77 6.86 Z M 26.07 6.25 L 28.65 6.25 L 28.65 6.86 L 26.07 6.86 Z M 33.57 11.66 L 30.91 11.66 Q 31.24 12.02 31.69 12.30 Q 31.90 12.43 32.13 12.54 Q 32.30 12.44 32.50 12.33 Q 32.81 12.15 33.11 11.96 Q 33.38 11.80 33.57 11.66 Z M 41.44 6.11 L 43.17 6.11 Q 43.24 5.90 43.31 5.67 Q 43.43 5.27 43.50 4.95 L 44.76 5.19 Q 44.56 5.59 44.35 5.98 Q 44.32 6.05 44.28 6.11 L 46.78 6.11 L 46.78 10.34 L 44.57 10.34 L 44.57 13.27 Q 44.57 13.65 44.39 14.10 Q 44.39 14.10 44.12 14.22 Q 43.83 14.34 43.01 14.39 Q 43.01 14.39 42.43 14.37 Q 42.40 14.17 42.23 13.62 Q 42.23 13.62 42.14 13.40 Q 42.50 13.41 42.84 13.41 L 43.28 13.41 Q 43.49 13.41 43.49 13.23 L 43.49 10.34 L 41.44 10.34 Z M 39.76 3.85 L 47.19 3.85 L 47.19 4.87 L 40.86 4.87 L 40.86 7.16 Q 40.86 7.95 40.74 9.83 Q 40.74 9.83 40.41 11.78 Q 40.41 11.78 39.76 13.62 Q 39.76 13.62 39.22 14.36 Q 39.12 14.27 38.77 14.04 Q 38.77 14.04 38.41 13.81 Q 38.41 13.81 38.27 13.76 Q 38.78 13.06 39.39 11.37 Q 39.39 11.37 39.66 9.60 Q 39.66 9.60 39.76 7.89 Q 39.76 7.89 39.76 7.16 Z M 36.35 13.61 Q 36.62 13.13 37.23 11.84 Q 37.23 11.84 37.85 10.41 Q 37.85 10.41 38.12 9.72 L 39.04 10.34 Q 38.80 10.97 38.23 12.35 Q 38.23 12.35 37.66 13.65 Q 37.66 13.65 37.37 14.23 Z M 42.45 8.61 L 42.45 9.50 L 45.73 9.50 L 45.73 8.61 Z M 45.17 11.20 L 46.16 10.82 Q 46.38 11.18 46.86 12.04 Q 46.86 12.04 47.29 12.83 Q 47.29 12.83 47.43 13.13 L 46.38 13.58 Q 46.27 13.28 45.85 12.45 Q 45.85 12.45 45.39 11.58 Q 45.39 11.58 45.17 11.20 Z M 42.45 6.94 L 42.45 7.82 L 45.73 7.82 L 45.73 6.94 Z M 41.76 10.93 L 42.77 11.22 Q 42.59 11.65 42.08 12.56 Q 42.08 12.56 41.56 13.39 Q 41.56 13.39 41.30 13.70 Q 41.21 13.61 40.89 13.40 Q 40.89 13.40 40.54 13.20 Q 40.54 13.20 40.42 13.14 Q 40.79 12.70 41.52 11.52 Q 41.52 11.52 41.76 10.93 Z M 36.72 4.16 L 37.38 3.37 Q 37.69 3.54 38.46 3.99 Q 38.46 3.99 39.16 4.42 Q 39.16 4.42 39.39 4.59 L 38.70 5.51 Q 38.49 5.33 37.79 4.85 Q 37.79 4.85 37.04 4.35 Q 37.04 4.35 36.72 4.16 Z M 36.14 7.40 L 36.79 6.60 Q 37.10 6.76 37.88 7.18 Q 37.88 7.18 38.58 7.58 Q 38.58 7.58 38.81 7.75 L 38.14 8.66 Q 37.92 8.49 37.23 8.05 Q 37.23 8.05 36.47 7.58 Q 36.47 7.58 36.14 7.40 Z M 48.25 4.62 L 49.74 4.62 Q 49.74 4.61 49.75 4.61 Q 49.90 3.92 49.99 3.25 L 51.08 3.45 Q 50.98 4.03 50.83 4.62 L 52.57 4.62 L 52.57 5.70 L 50.54 5.70 Q 50.30 6.53 50.03 7.28 Q 49.83 7.83 49.64 8.31 L 50.64 8.31 L 50.64 6.52 L 51.64 6.52 L 51.64 8.31 L 52.61 8.31 L 52.61 9.33 L 51.64 9.33 L 51.64 10.82 Q 52.21 10.73 52.79 10.65 L 52.82 11.65 Q 52.24 11.74 51.64 11.84 L 51.64 14.33 L 50.64 14.33 L 50.64 12.01 Q 50.56 12.02 50.47 12.05 Q 49.30 12.23 48.38 12.38 L 48.16 11.28 Q 48.74 11.20 49.50 11.11 Q 50.04 11.04 50.64 10.96 L 50.64 9.33 L 49.56 9.33 Q 49.27 9.33 48.74 9.43 Q 48.74 9.43 48.66 9.52 Q 48.64 9.40 48.52 9.05 Q 48.52 9.05 48.39 8.66 Q 48.39 8.66 48.32 8.53 Q 48.49 8.48 48.77 7.96 Q 48.77 7.96 48.91 7.57 Q 48.99 7.38 49.27 6.49 Q 49.27 6.49 49.43 5.89 Q 49.47 5.80 49.49 5.70 L 48.25 5.70 Z M 55.01 8.43 Q 55.37 9.55 55.98 10.52 Q 56.03 10.61 56.07 10.68 Q 56.73 9.66 57.04 8.41 L 58.07 8.67 Q 57.63 10.31 56.76 11.57 Q 57.07 11.92 57.45 12.23 Q 58.28 12.97 59.34 13.38 Q 59.22 13.49 58.93 13.82 Q 58.93 13.82 58.68 14.17 Q 58.68 14.17 58.58 14.33 Q 57.48 13.82 56.60 12.99 Q 56.33 12.73 56.07 12.43 Q 54.99 13.64 53.38 14.41 Q 53.32 14.29 53.06 13.97 Q 53.06 13.97 52.79 13.69 Q 52.79 13.69 52.67 13.59 Q 54.33 12.84 55.42 11.58 Q 55.25 11.34 55.09 11.07 Q 54.49 10.04 54.07 8.84 Q 53.83 9.16 53.60 9.42 Q 53.53 9.32 53.27 8.99 Q 53.27 8.99 52.99 8.66 Q 52.99 8.66 52.89 8.57 Q 53.34 8.09 54.24 6.78 Q 54.24 6.78 54.53 6.13 L 55.52 6.46 Q 55.27 6.98 54.64 8.06 Q 54.64 8.06 54.29 8.56 Q 54.25 8.59 54.23 8.64 Z M 53.06 4.92 L 55.78 4.92 Q 55.67 4.66 55.50 4.35 Q 55.27 3.92 55.04 3.59 L 56.02 3.16 Q 56.26 3.49 56.73 4.30 Q 56.73 4.30 56.84 4.58 L 56.17 4.92 L 59.10 4.92 L 59.10 5.95 L 53.06 5.95 Z M 56.87 6.59 L 57.70 6.12 Q 58.01 6.53 58.67 7.48 Q 58.67 7.48 59.24 8.40 Q 59.24 8.40 59.41 8.74 L 58.52 9.31 Q 58.37 8.95 57.82 8.00 Q 57.82 8.00 57.18 7.01 Q 57.18 7.01 56.87 6.59 Z M 63.60 9.06 L 66.64 9.06 L 66.64 7.80 L 67.78 7.80 L 67.78 9.06 L 70.88 9.06 L 70.88 10.08 L 68.43 10.08 Q 68.67 10.46 68.95 10.85 Q 69.45 11.48 70.64 12.53 Q 70.64 12.53 71.24 12.85 Q 71.12 12.94 70.82 13.26 Q 70.82 13.26 70.55 13.59 Q 70.55 13.59 70.45 13.73 Q 69.82 13.33 68.62 12.11 Q 68.62 12.11 68.12 11.36 Q 67.93 11.10 67.78 10.82 L 67.78 14.30 L 66.64 14.30 L 66.64 10.83 Q 66.47 11.10 66.29 11.36 Q 65.75 12.14 64.41 13.38 Q 64.41 13.38 63.65 13.78 Q 63.53 13.57 63.08 13.07 Q 63.08 13.07 62.91 12.92 Q 63.64 12.59 64.95 11.52 Q 64.95 11.52 65.47 10.83 Q 65.77 10.46 66.00 10.08 L 63.60 10.08 Z M 63.65 3.86 L 70.85 3.86 L 70.85 6.11 L 69.79 6.11 L 69.79 4.83 L 64.65 4.83 L 64.65 6.15 L 63.65 6.15 Z M 60.39 13.41 Q 60.66 12.96 61.33 11.70 Q 61.33 11.70 62.03 10.28 Q 62.03 10.28 62.33 9.61 L 63.07 10.38 Q 62.80 11.00 62.17 12.35 Q 62.17 12.35 61.54 13.63 Q 61.54 13.63 61.24 14.20 Z M 65.73 5.51 L 66.74 5.84 Q 66.46 6.35 65.64 7.35 Q 65.64 7.35 64.74 8.22 Q 64.74 8.22 64.30 8.53 Q 64.21 8.43 63.91 8.13 Q 63.91 8.13 63.62 7.85 Q 63.62 7.85 63.49 7.75 Q 64.14 7.34 65.35 6.15 Q 65.35 6.15 65.73 5.51 Z M 67.62 5.96 L 68.43 5.42 Q 68.84 5.78 69.73 6.67 Q 69.73 6.67 70.50 7.54 Q 70.50 7.54 70.73 7.88 L 69.87 8.51 Q 69.65 8.16 68.91 7.26 Q 68.91 7.26 68.04 6.33 Q 68.04 6.33 67.62 5.96 Z M 60.14 7.48 L 60.69 6.64 Q 61.03 6.79 61.85 7.22 Q 61.85 7.22 62.59 7.66 Q 62.59 7.66 62.83 7.86 L 62.27 8.80 Q 62.04 8.60 61.31 8.13 Q 61.31 8.13 60.49 7.66 Q 60.49 7.66 60.14 7.48 Z M 60.66 4.23 L 61.24 3.37 Q 61.56 3.53 62.32 3.92 Q 62.32 3.92 63.01 4.34 Q 63.01 4.34 63.24 4.51 L 62.64 5.48 Q 62.44 5.30 61.75 4.85 Q 61.75 4.85 61.00 4.40 Q 61.00 4.40 60.66 4.23 Z M 73.81 14.82 L 73.50 14.04 Q 74.24 13.76 74.64 13.32 Q 74.98 12.93 75.02 12.42 Q 74.94 12.43 74.84 12.43 Q 74.45 12.43 73.85 11.94 Q 73.85 11.94 73.85 11.48 Q 73.85 11.02 74.46 10.52 Q 74.46 10.52 74.87 10.52 Q 75.43 10.52 76.02 11.34 Q 76.02 11.34 76.02 12.02 Q 76.02 13.01 74.83 14.49 Q 74.83 14.49 73.81 14.82 Z M 84.97 9.77 L 88.76 9.77 Q 88.89 9.55 89.00 9.32 Q 89.07 9.16 89.15 9.01 L 85.75 9.01 L 85.75 5.64 L 86.83 5.64 L 86.83 8.13 L 92.68 8.13 L 92.68 5.64 L 93.80 5.64 L 93.80 9.01 L 90.42 9.01 Q 90.23 9.38 90.01 9.77 L 94.56 9.77 L 94.56 13.30 Q 94.56 13.70 94.31 14.11 Q 94.31 14.11 94.00 14.23 Q 93.67 14.33 92.70 14.36 Q 92.70 14.36 92.02 14.36 Q 91.97 14.16 91.75 13.68 Q 91.75 13.68 91.64 13.49 Q 91.96 13.51 92.60 13.52 Q 92.60 13.52 93.11 13.51 Q 93.11 13.51 93.19 13.51 Q 93.35 13.51 93.46 13.41 Q 93.46 13.41 93.46 13.30 L 93.46 10.72 L 91.28 10.72 Q 91.52 11.02 91.80 11.35 Q 92.07 11.71 92.58 12.39 Q 92.58 12.39 92.74 12.64 L 91.98 13.18 Q 91.83 12.93 91.61 12.61 Q 90.64 12.72 89.97 12.79 Q 89.20 12.87 88.23 13.01 Q 88.23 13.01 87.67 13.09 Q 87.67 13.09 87.39 13.16 Q 87.39 13.16 87.29 13.21 Q 87.26 13.10 87.15 12.70 Q 87.15 12.70 86.99 12.29 Q 86.99 12.29 86.93 12.14 Q 87.11 12.09 87.47 11.73 Q 87.47 11.73 87.67 11.47 Q 87.79 11.33 88.01 11.02 Q 88.09 10.88 88.19 10.72 L 86.07 10.72 L 86.07 14.37 L 84.97 14.37 Z M 84.48 4.30 L 89.15 4.30 Q 89.14 4.26 89.13 4.21 Q 88.95 3.79 88.79 3.45 L 89.80 3.15 Q 89.97 3.49 90.16 3.89 Q 90.25 4.10 90.33 4.30 L 95.04 4.30 L 95.04 5.27 L 84.48 5.27 Z M 87.56 5.95 L 88.02 5.42 Q 88.69 5.71 89.47 6.07 Q 89.68 6.16 89.88 6.26 Q 89.99 6.20 90.09 6.14 Q 90.77 5.76 91.27 5.37 L 91.98 5.72 Q 91.42 6.15 90.71 6.59 Q 90.67 6.61 90.65 6.62 Q 90.80 6.70 90.96 6.78 Q 91.68 7.13 92.15 7.40 L 91.67 8.02 Q 91.32 7.81 90.84 7.55 Q 90.39 7.32 89.88 7.07 Q 89.57 7.23 89.24 7.39 Q 88.50 7.78 87.83 8.06 Q 87.74 7.94 87.40 7.55 Q 87.40 7.55 87.25 7.44 Q 87.96 7.18 88.69 6.86 Q 88.90 6.77 89.09 6.67 Q 88.88 6.56 88.65 6.45 Q 88.07 6.18 87.56 5.95 Z M 90.53 11.16 L 91.21 10.72 L 89.41 10.72 Q 89.15 11.13 88.86 11.51 Q 88.66 11.81 88.44 12.07 L 91.03 11.81 Q 90.78 11.46 90.53 11.16 Z M 97.28 8.47 L 106.72 8.47 L 106.72 9.26 L 98.35 9.26 L 98.35 10.15 Q 98.35 10.49 98.32 10.89 L 107.17 10.89 L 107.17 11.66 L 105.70 11.66 L 106.47 12.06 Q 106.02 12.36 105.52 12.62 Q 105.24 12.76 104.99 12.87 Q 105.14 12.92 105.30 12.97 Q 106.24 13.21 107.38 13.30 Q 107.22 13.45 106.90 13.95 Q 106.90 13.95 106.80 14.17 Q 105.57 14.03 103.62 13.35 Q 103.62 13.35 102.91 12.80 Q 102.29 12.32 101.85 11.66 L 100.24 11.66 L 100.24 13.20 L 102.79 12.84 Q 102.74 13.02 102.70 13.52 Q 102.70 13.52 102.70 13.68 Q 101.56 13.87 100.17 14.11 Q 100.17 14.11 99.42 14.26 Q 99.42 14.26 99.08 14.34 Q 99.08 14.34 98.99 14.39 Q 98.95 14.26 98.78 13.92 Q 98.78 13.92 98.58 13.59 Q 98.58 13.59 98.49 13.48 Q 98.68 13.38 99.14 12.91 Q 99.14 12.91 99.14 12.52 L 99.14 11.66 L 98.23 11.66 Q 98.17 11.99 98.07 12.36 Q 97.92 12.93 97.34 14.02 Q 97.34 14.02 96.89 14.46 Q 96.80 14.35 96.50 14.07 Q 96.50 14.07 96.17 13.80 Q 96.17 13.80 96.05 13.75 Q 96.62 13.21 97.13 11.95 Q 97.13 11.95 97.28 10.68 Q 97.28 10.68 97.28 10.13 Z M 97.32 3.64 L 106.14 3.64 L 106.14 4.47 L 102.25 4.47 L 102.25 5.04 L 106.90 5.04 L 106.90 7.11 L 105.79 7.11 L 105.79 5.73 L 102.25 5.73 L 102.25 8.20 L 101.15 8.20 L 101.15 5.73 L 97.64 5.73 L 97.64 7.11 L 96.57 7.11 L 96.57 5.04 L 101.15 5.04 L 101.15 4.47 L 97.32 4.47 Z M 98.88 9.70 L 106.03 9.70 L 106.03 10.41 L 98.88 10.41 Z M 102.77 7.35 L 105.66 7.35 L 105.66 7.96 L 102.77 7.96 Z M 97.82 7.35 L 100.66 7.35 L 100.66 7.96 L 97.82 7.96 Z M 102.77 6.25 L 105.38 6.25 L 105.38 6.86 L 102.77 6.86 Z M 98.07 6.25 L 100.65 6.25 L 100.65 6.86 L 98.07 6.86 Z M 105.57 11.66 L 102.91 11.66 Q 103.24 12.02 103.69 12.30 Q 103.90 12.43 104.13 12.54 Q 104.30 12.44 104.50 12.33 Q 104.81 12.15 105.11 11.96 Q 105.38 11.80 105.57 11.66 Z M 108.85 5.36 L 113.12 5.36 L 113.12 3.25 L 114.30 3.25 L 114.30 5.36 L 118.62 5.36 L 118.62 11.18 L 117.45 11.18 L 117.45 10.52 L 114.30 10.52 L 114.30 14.37 L 113.12 14.37 L 113.12 10.52 L 109.98 10.52 L 109.98 11.24 L 108.85 11.24 Z M 114.30 6.47 L 114.30 9.40 L 117.45 9.40 L 117.45 6.47 Z M 113.12 6.47 L 109.98 6.47 L 109.98 9.40 L 113.12 9.40 Z M 120.25 4.62 L 121.74 4.62 Q 121.74 4.61 121.75 4.61 Q 121.90 3.92 121.99 3.25 L 123.08 3.45 Q 122.98 4.03 122.83 4.62 L 124.57 4.62 L 124.57 5.70 L 122.54 5.70 Q 122.30 6.53 122.03 7.28 Q 121.83 7.83 121.64 8.31 L 122.64 8.31 L 122.64 6.52 L 123.64 6.52 L 123.64 8.31 L 124.61 8.31 L 124.61 9.33 L 123.64 9.33 L 123.64 10.82 Q 124.21 10.73 124.79 10.65 L 124.82 11.65 Q 124.24 11.74 123.64 11.84 L 123.64 14.33 L 122.64 14.33 L 122.64 12.01 Q 122.56 12.02 122.47 12.05 Q 121.30 12.23 120.38 12.38 L 120.16 11.28 Q 120.74 11.20 121.50 11.11 Q 122.04 11.04 122.64 10.96 L 122.64 9.33 L 121.56 9.33 Q 121.27 9.33 120.74 9.43 Q 120.74 9.43 120.66 9.52 Q 120.64 9.40 120.52 9.05 Q 120.52 9.05 120.39 8.66 Q 120.39 8.66 120.32 8.53 Q 120.49 8.48 120.77 7.96 Q 120.77 7.96 120.91 7.57 Q 120.99 7.38 121.27 6.49 Q 121.27 6.49 121.43 5.89 Q 121.47 5.80 121.49 5.70 L 120.25 5.70 Z M 127.01 8.43 Q 127.37 9.55 127.98 10.52 Q 128.03 10.61 128.07 10.68 Q 128.73 9.66 129.04 8.41 L 130.07 8.67 Q 129.63 10.31 128.76 11.57 Q 129.07 11.92 129.45 12.23 Q 130.28 12.97 131.34 13.38 Q 131.22 13.49 130.93 13.82 Q 130.93 13.82 130.68 14.17 Q 130.68 14.17 130.58 14.33 Q 129.48 13.82 128.60 12.99 Q 128.33 12.73 128.07 12.43 Q 126.99 13.64 125.38 14.41 Q 125.32 14.29 125.06 13.97 Q 125.06 13.97 124.79 13.69 Q 124.79 13.69 124.67 13.59 Q 126.33 12.84 127.42 11.58 Q 127.25 11.34 127.09 11.07 Q 126.49 10.04 126.07 8.84 Q 125.83 9.16 125.60 9.42 Q 125.53 9.32 125.27 8.99 Q 125.27 8.99 124.99 8.66 Q 124.99 8.66 124.89 8.57 Q 125.34 8.09 126.24 6.78 Q 126.24 6.78 126.53 6.13 L 127.52 6.46 Q 127.27 6.98 126.64 8.06 Q 126.64 8.06 126.29 8.56 Q 126.25 8.59 126.23 8.64 Z M 125.06 4.92 L 127.78 4.92 Q 127.67 4.66 127.50 4.35 Q 127.27 3.92 127.04 3.59 L 128.02 3.16 Q 128.26 3.49 128.73 4.30 Q 128.73 4.30 128.84 4.58 L 128.17 4.92 L 131.10 4.92 L 131.10 5.95 L 125.06 5.95 Z M 128.87 6.59 L 129.70 6.12 Q 130.01 6.53 130.67 7.48 Q 130.67 7.48 131.24 8.40 Q 131.24 8.40 131.41 8.74 L 130.52 9.31 Q 130.37 8.95 129.82 8.00 Q 129.82 8.00 129.18 7.01 Q 129.18 7.01 128.87 6.59 Z M 135.50 6.63 L 143.06 6.63 L 143.06 7.65 L 140.81 7.65 L 140.81 10.82 Q 140.81 11.06 140.92 11.19 Q 140.92 11.19 141.09 11.19 L 141.87 11.19 Q 142.00 11.19 142.13 11.00 Q 142.13 11.00 142.20 10.39 Q 142.20 10.39 142.21 9.77 Q 142.32 9.85 142.65 10.02 Q 142.65 10.02 143.00 10.15 Q 143.00 10.15 143.15 10.20 Q 143.12 10.97 142.86 11.85 Q 142.86 11.85 142.40 12.20 Q 142.40 12.20 141.99 12.20 L 140.93 12.20 Q 140.45 12.20 139.93 11.95 Q 139.93 11.95 139.74 11.34 Q 139.74 11.34 139.74 10.82 L 139.74 7.65 L 138.53 7.65 Q 138.49 8.37 138.40 8.98 Q 138.28 9.79 137.71 11.07 Q 137.71 11.07 136.68 12.06 Q 136.68 12.06 135.84 12.42 Q 135.78 12.29 135.55 11.94 Q 135.55 11.94 135.29 11.61 Q 135.29 11.61 135.17 11.52 Q 135.90 11.23 136.78 10.42 Q 136.78 10.42 137.23 9.37 Q 137.23 9.37 137.32 8.71 Q 137.39 8.22 137.43 7.65 L 135.50 7.65 Z M 134.88 7.40 L 134.88 12.02 Q 134.94 12.07 135.01 12.12 Q 135.29 12.32 135.78 12.62 Q 136.37 12.98 137.94 13.18 Q 137.94 13.18 138.94 13.18 Q 139.43 13.18 140.58 13.15 Q 140.58 13.15 141.79 13.08 Q 141.79 13.08 142.92 12.99 Q 142.92 12.99 143.38 12.93 Q 143.32 13.08 143.17 13.51 Q 143.17 13.51 143.06 13.94 Q 143.06 13.94 143.05 14.10 Q 142.73 14.12 141.72 14.17 Q 141.72 14.17 140.54 14.19 Q 140.54 14.19 139.38 14.22 Q 139.38 14.22 138.89 14.22 Q 137.78 14.22 136.21 13.95 Q 136.21 13.95 135.59 13.58 Q 135.23 13.35 134.64 12.91 Q 134.64 12.91 134.44 12.91 Q 134.23 12.91 133.74 13.33 Q 133.74 13.33 133.18 14.00 Q 133.18 14.00 132.89 14.39 L 132.15 13.39 Q 132.76 12.76 133.37 12.33 Q 133.57 12.19 133.78 12.09 L 133.78 8.46 L 132.23 8.46 L 132.23 7.40 Z M 136.30 3.98 L 142.33 3.98 L 142.33 4.99 L 136.30 4.99 Z M 132.47 4.57 L 133.18 3.83 Q 133.52 4.06 134.33 4.62 Q 134.33 4.62 135.08 5.17 Q 135.08 5.17 135.32 5.37 L 134.57 6.22 Q 134.34 5.99 133.61 5.42 Q 133.61 5.42 132.80 4.82 Q 132.80 4.82 132.47 4.57 Z M 144.71 5.18 L 146.06 5.18 Q 146.14 4.96 146.20 4.70 Q 146.29 4.32 146.45 3.55 Q 146.45 3.55 146.49 3.22 L 147.72 3.43 Q 147.53 4.01 147.31 4.59 Q 147.19 4.92 147.09 5.18 L 149.04 5.18 L 149.04 7.47 Q 149.41 6.97 149.75 6.32 Q 150.09 5.63 150.66 4.03 Q 150.66 4.03 150.85 3.22 L 151.95 3.47 Q 151.73 4.31 151.44 5.12 L 154.96 5.12 L 154.96 5.46 Q 154.96 5.59 154.96 5.66 Q 154.89 7.71 154.75 10.56 Q 154.75 10.56 154.57 12.38 Q 154.57 12.38 154.32 13.39 Q 154.32 13.39 154.14 13.62 Q 153.91 13.92 153.43 14.14 Q 153.43 14.14 153.08 14.19 Q 152.77 14.23 151.78 14.22 Q 151.78 14.22 151.26 14.19 Q 151.25 13.95 151.04 13.32 Q 151.04 13.32 150.88 13.10 Q 151.47 13.15 152.45 13.17 Q 152.45 13.17 152.68 13.17 Q 152.85 13.17 153.08 13.09 Q 153.08 13.09 153.19 12.97 Q 153.33 12.80 153.56 11.83 Q 153.56 11.83 153.72 10.04 Q 153.72 10.04 153.78 8.66 Q 153.84 7.58 153.88 6.16 L 151.03 6.16 Q 150.88 6.53 150.71 6.86 Q 150.33 7.62 149.92 8.19 Q 149.82 8.10 149.47 7.85 Q 149.47 7.85 149.29 7.72 Q 149.15 7.63 149.04 7.57 L 149.04 13.14 L 145.74 13.14 L 145.74 14.06 L 144.71 14.06 Z M 145.74 12.13 L 148.00 12.13 L 148.00 9.45 L 145.74 9.45 Z M 148.00 8.47 L 148.00 6.18 L 145.74 6.18 L 145.74 8.47 Z M 150.28 8.39 L 151.17 7.89 Q 151.49 8.30 152.20 9.30 Q 152.20 9.30 152.81 10.23 Q 152.81 10.23 153.00 10.59 L 152.04 11.19 Q 151.88 10.82 151.27 9.85 Q 151.27 9.85 150.60 8.83 Q 150.60 8.83 150.28 8.39 Z M 163.27 3.25 L 164.34 3.25 L 164.34 6.14 L 165.66 5.58 L 165.87 5.41 L 166.07 5.26 L 166.88 5.56 L 166.82 5.74 Q 166.82 6.60 166.81 8.05 Q 166.81 8.05 166.79 9.19 Q 166.79 9.19 166.75 9.97 Q 166.75 9.97 166.72 10.15 Q 166.68 10.54 166.35 10.94 Q 166.35 10.94 166.08 11.03 Q 165.83 11.12 165.17 11.16 Q 165.17 11.16 164.91 11.16 Q 164.88 10.93 164.74 10.37 Q 164.74 10.37 164.66 10.18 Q 164.83 10.20 165.26 10.21 Q 165.26 10.21 165.35 10.21 Q 165.48 10.21 165.64 10.09 Q 165.64 10.09 165.67 9.91 Q 165.70 9.80 165.72 9.13 Q 165.72 9.13 165.73 8.04 Q 165.73 8.04 165.73 7.28 Q 165.73 6.99 165.73 6.69 L 164.34 7.30 L 164.34 11.65 L 163.27 11.65 L 163.27 7.75 L 161.93 8.33 L 161.93 12.31 Q 161.93 12.64 162.05 12.99 Q 162.05 12.99 162.45 13.11 Q 162.45 13.11 162.83 13.11 L 165.48 13.11 Q 165.83 13.11 166.17 12.85 Q 166.17 12.85 166.33 12.15 Q 166.33 12.15 166.37 11.49 Q 166.56 11.63 167.15 11.87 Q 167.15 11.87 167.38 11.91 Q 167.30 12.76 166.95 13.71 Q 166.95 13.71 166.21 14.13 Q 166.21 14.13 165.55 14.13 L 162.76 14.13 Q 162.02 14.13 161.17 13.82 Q 161.17 13.82 160.83 13.02 Q 160.83 13.02 160.83 12.30 L 160.83 8.80 L 160.02 9.14 L 159.59 8.14 L 160.83 7.62 L 160.83 4.39 L 161.93 4.39 L 161.93 7.16 L 163.27 6.59 Z M 156.19 6.09 L 157.68 6.09 L 157.68 3.39 L 158.75 3.39 L 158.75 6.09 L 160.08 6.09 L 160.08 7.16 L 158.75 7.16 L 158.75 10.37 Q 159.38 10.10 160.01 9.84 L 160.26 10.85 Q 159.30 11.30 157.33 12.21 Q 157.33 12.21 156.52 12.57 L 156.07 11.43 Q 156.55 11.26 157.20 11.00 Q 157.44 10.90 157.68 10.80 L 157.68 7.16 L 156.19 7.16 Z M 168.47 5.27 L 173.68 5.27 Q 173.56 4.94 173.37 4.51 Q 173.13 3.99 172.90 3.56 L 174.00 3.14 Q 174.24 3.55 174.74 4.55 Q 174.74 4.55 174.88 4.89 L 174.02 5.27 L 179.04 5.27 L 179.04 6.36 L 172.90 6.36 Q 172.85 7.10 172.78 7.86 Q 172.76 7.96 172.75 8.09 L 177.91 8.09 L 177.90 8.18 Q 177.90 8.28 177.89 8.52 Q 177.89 8.52 177.88 8.60 Q 177.76 10.28 177.49 12.37 Q 177.49 12.37 177.16 13.52 Q 177.16 13.52 176.92 13.76 Q 176.68 14.03 176.14 14.22 Q 176.14 14.22 175.76 14.26 Q 175.43 14.28 174.32 14.27 Q 174.32 14.27 173.71 14.23 Q 173.70 13.97 173.49 13.35 Q 173.49 13.35 173.30 13.13 Q 173.94 13.17 175.08 13.21 Q 175.08 13.21 175.34 13.21 Q 175.54 13.21 175.80 13.15 Q 175.80 13.15 175.92 13.06 Q 176.10 12.90 176.40 11.82 Q 176.40 11.82 176.52 10.82 Q 176.59 10.14 176.67 9.18 L 172.58 9.18 Q 172.52 9.46 172.47 9.76 Q 172.25 10.69 171.42 12.40 Q 171.42 12.40 170.07 13.87 Q 170.07 13.87 169.07 14.42 Q 168.94 14.20 168.46 13.68 Q 168.46 13.68 168.23 13.51 Q 169.18 13.02 170.41 11.71 Q 170.41 11.71 171.14 10.17 Q 171.14 10.17 171.49 8.49 Q 171.49 8.49 171.55 7.64 Q 171.60 6.99 171.64 6.36 L 168.47 6.36 Z M 180.46 4.76 L 183.79 4.76 Q 184.09 3.99 184.30 3.23 L 185.45 3.52 Q 185.26 4.14 185.02 4.76 L 191.05 4.76 L 191.05 5.82 L 184.56 5.82 Q 184.49 5.98 184.42 6.14 Q 184.20 6.60 183.95 7.02 L 189.66 7.02 L 189.66 13.08 Q 189.66 13.54 189.43 14.05 Q 189.43 14.05 189.11 14.19 Q 188.78 14.31 187.74 14.37 Q 187.74 14.37 186.99 14.37 Q 186.96 14.13 186.74 13.49 Q 186.74 13.49 186.64 13.27 Q 187.00 13.28 187.67 13.31 Q 187.67 13.31 188.19 13.31 Q 188.19 13.31 188.28 13.31 Q 188.44 13.30 188.56 13.18 Q 188.56 13.18 188.56 13.06 L 188.56 12.04 L 183.82 12.04 L 183.82 14.37 L 182.70 14.37 L 182.70 8.83 Q 181.90 9.79 180.88 10.49 Q 180.79 10.38 180.53 10.06 Q 180.53 10.06 180.25 9.73 Q 180.25 9.73 180.14 9.63 Q 180.94 9.08 182.26 7.63 Q 182.26 7.63 182.78 6.79 Q 183.07 6.31 183.31 5.82 L 180.46 5.82 Z M 183.82 10.02 L 183.82 11.07 L 188.56 11.07 L 188.56 10.02 Z M 188.56 8.03 L 183.82 8.03 L 183.82 9.06 L 188.56 9.06 Z" xml:space="preserve" style="font-weight:613;font-size:12px;line-height:1.2;font-family:'Dream Han Sans SC';-inkscape-font-specification:'Dream Han Sans SC weight=613';text-align:start;writing-mode:lr-tb;direction:ltr;text-anchor:start;fill:#dbe9ff;fill-opacity:0.984314;stroke-width:1" id="text32" data-original-text="由于震源较深，离震中较远的地方有" data-original-element="text"/>
  <path d="M 0.96 19.88 L 4.87 19.88 L 4.87 27.82 L 2.03 27.82 L 2.03 28.78 L 0.96 28.78 Z M 5.37 21.23 L 9.14 21.23 L 9.14 18.98 L 10.29 18.98 L 10.29 21.23 L 11.65 21.23 L 11.65 22.35 L 10.29 22.35 L 10.29 28.45 Q 10.29 29.00 10.00 29.55 Q 10.00 29.55 9.63 29.70 Q 9.28 29.83 8.05 29.90 Q 8.05 29.90 7.15 29.90 Q 7.11 29.66 6.87 28.99 Q 6.87 28.99 6.74 28.75 Q 7.20 28.76 8.04 28.78 Q 8.04 28.78 8.66 28.77 Q 8.66 28.77 8.79 28.77 Q 8.99 28.76 9.14 28.63 Q 9.14 28.63 9.14 28.44 L 9.14 22.35 L 5.37 22.35 Z M 2.03 24.30 L 2.03 26.80 L 3.81 26.80 L 3.81 24.30 Z M 2.03 20.90 L 2.03 23.30 L 3.81 23.30 L 3.81 20.90 Z M 5.66 23.73 L 6.60 23.24 Q 6.91 23.68 7.62 24.70 Q 7.62 24.70 8.26 25.65 Q 8.26 25.65 8.45 26.01 L 7.45 26.60 Q 7.26 26.23 6.66 25.23 Q 6.66 25.23 5.98 24.19 Q 5.98 24.19 5.66 23.73 Z M 12.38 23.76 L 14.53 23.10 L 14.53 19.74 L 15.63 19.74 L 15.63 22.75 L 17.87 22.06 L 17.87 18.94 L 18.98 18.94 L 18.98 21.72 L 21.50 20.94 L 21.62 20.85 L 21.85 20.69 L 22.65 21.03 L 22.61 21.25 Q 22.58 22.94 22.41 25.12 Q 22.41 25.12 22.22 25.65 Q 22.07 26.12 21.56 26.55 Q 21.56 26.55 21.25 26.62 Q 20.95 26.69 20.12 26.72 Q 20.12 26.72 19.79 26.71 Q 19.79 26.56 19.69 26.18 Q 19.69 26.18 19.58 25.80 Q 19.58 25.80 19.51 25.67 Q 19.81 25.69 20.48 25.70 Q 20.48 25.70 20.64 25.70 Q 20.83 25.70 21.13 25.50 Q 21.13 25.50 21.24 25.16 Q 21.37 24.73 21.43 23.71 Q 21.46 23.01 21.48 22.04 L 18.98 22.82 L 18.98 27.42 L 17.87 27.42 L 17.87 23.17 L 15.63 23.86 L 15.63 27.73 Q 15.63 28.16 15.84 28.62 Q 15.84 28.62 16.44 28.77 Q 16.44 28.77 17.03 28.77 L 21.02 28.77 Q 21.57 28.77 22.14 28.45 Q 22.14 28.45 22.40 27.57 Q 22.40 27.57 22.48 26.75 Q 22.69 26.87 23.30 27.14 Q 23.30 27.14 23.54 27.19 Q 23.44 28.18 22.99 29.31 Q 22.99 29.31 22.00 29.80 Q 22.00 29.80 21.07 29.80 L 17.04 29.80 Q 16.08 29.80 14.99 29.46 Q 14.99 29.46 14.53 28.54 Q 14.53 28.54 14.53 27.71 L 14.53 24.21 L 12.70 24.79 Z M 25.11 24.91 L 35.07 24.91 L 35.07 26.01 L 29.89 26.01 Q 29.23 26.85 28.45 27.65 Q 28.07 28.06 27.68 28.42 L 32.60 28.09 Q 32.51 27.97 32.40 27.86 Q 31.88 27.27 31.35 26.79 L 32.33 26.29 Q 32.87 26.76 33.91 27.87 Q 33.91 27.87 34.79 28.97 Q 34.79 28.97 35.05 29.42 L 34.03 30.03 Q 33.80 29.60 33.39 29.07 Q 32.05 29.17 31.02 29.27 Q 29.82 29.36 28.16 29.49 Q 28.16 29.49 27.09 29.60 Q 27.09 29.60 26.46 29.68 Q 26.46 29.68 26.09 29.75 Q 26.09 29.75 25.96 29.80 Q 25.92 29.69 25.79 29.25 Q 25.79 29.25 25.63 28.80 Q 25.63 28.80 25.57 28.64 Q 25.79 28.60 26.22 28.28 Q 26.22 28.28 26.50 28.03 Q 26.65 27.91 27.22 27.34 Q 27.22 27.34 27.90 26.55 Q 27.90 26.55 28.26 26.10 Q 28.29 26.05 28.33 26.01 L 25.11 26.01 Z M 30.07 18.88 L 31.11 19.35 Q 30.94 19.62 30.74 19.86 Q 30.97 20.08 31.25 20.31 Q 31.83 20.79 33.29 21.72 Q 33.29 21.72 34.88 22.50 Q 34.88 22.50 35.69 22.77 Q 35.57 22.88 35.26 23.24 Q 35.26 23.24 34.98 23.61 Q 34.98 23.61 34.88 23.77 Q 34.09 23.45 33.31 23.00 Q 33.12 22.88 32.92 22.77 L 32.92 23.63 L 27.24 23.63 L 27.24 22.87 Q 26.31 23.44 25.31 23.89 Q 25.22 23.75 24.94 23.37 Q 24.94 23.37 24.62 23.00 Q 24.62 23.00 24.49 22.89 Q 25.65 22.43 27.79 21.17 Q 27.79 21.17 29.51 19.67 Q 29.51 19.67 30.07 18.88 Z M 32.63 22.58 Q 32.21 22.32 31.82 22.04 Q 31.11 21.53 30.53 21.00 Q 30.29 20.79 30.09 20.60 Q 29.42 21.30 28.62 21.92 Q 28.16 22.27 27.68 22.58 Z M 41.40 18.92 L 42.66 18.92 L 42.66 23.11 L 45.15 23.11 L 45.15 19.97 L 46.40 19.97 L 46.40 24.21 L 42.66 24.21 L 42.66 28.23 L 45.62 28.23 L 45.62 24.92 L 46.88 24.92 L 46.88 30.03 L 45.62 30.03 L 45.62 29.36 L 37.21 29.36 L 37.21 24.92 L 38.47 24.92 L 38.47 28.23 L 41.40 28.23 L 41.40 24.21 L 37.79 24.21 L 37.79 19.97 L 38.98 19.97 L 38.98 23.11 L 41.40 23.11 Z M 48.64 19.67 L 52.74 19.67 L 52.74 20.72 L 51.29 20.72 L 51.29 23.13 L 52.49 23.13 L 52.49 24.18 L 51.29 24.18 L 51.29 26.97 Q 52.03 26.77 52.76 26.55 L 52.90 27.60 Q 51.81 27.91 49.59 28.54 Q 49.59 28.54 48.71 28.80 L 48.48 27.71 Q 49.03 27.58 49.73 27.39 Q 49.96 27.33 50.20 27.27 L 50.20 24.18 L 48.83 24.18 L 48.83 23.13 L 50.20 23.13 L 50.20 20.72 L 48.64 20.72 Z M 55.44 21.37 L 56.48 21.37 L 56.48 23.53 Q 56.48 24.31 56.34 25.20 Q 56.30 25.46 56.23 25.74 L 56.99 25.74 L 56.99 28.50 Q 56.99 28.75 57.15 28.93 Q 57.15 28.93 57.38 28.93 L 58.21 28.93 Q 58.39 28.93 58.58 28.62 Q 58.58 28.62 58.68 27.77 Q 58.68 27.77 58.71 26.94 Q 58.90 27.09 59.40 27.31 Q 59.40 27.31 59.60 27.37 Q 59.54 28.30 59.33 29.35 Q 59.33 29.35 58.76 29.77 Q 58.76 29.77 58.20 29.77 L 57.19 29.77 Q 56.52 29.77 55.95 29.29 Q 55.95 29.29 55.95 28.62 L 55.95 26.63 Q 55.88 26.80 55.81 26.96 Q 55.41 27.85 53.92 29.45 Q 53.92 29.45 52.73 30.08 Q 52.68 29.96 52.41 29.65 Q 52.41 29.65 52.14 29.35 Q 52.14 29.35 52.02 29.27 Q 53.17 28.68 54.54 27.25 Q 54.54 27.25 55.21 25.73 Q 55.21 25.73 55.44 24.20 Q 55.44 24.20 55.44 23.49 Z M 53.22 19.47 L 58.80 19.47 L 58.80 25.86 L 57.68 25.86 L 57.68 20.46 L 54.29 20.46 L 54.29 25.86 L 53.22 25.86 Z M 60.57 20.28 L 62.06 20.28 Q 62.06 20.27 62.07 20.27 Q 62.22 19.58 62.31 18.91 L 63.40 19.11 Q 63.30 19.69 63.15 20.28 L 64.89 20.28 L 64.89 21.36 L 62.87 21.36 Q 62.63 22.19 62.35 22.94 Q 62.16 23.49 61.96 23.97 L 62.96 23.97 L 62.96 22.18 L 63.96 22.18 L 63.96 23.97 L 64.93 23.97 L 64.93 24.99 L 63.96 24.99 L 63.96 26.48 Q 64.54 26.39 65.11 26.31 L 65.14 27.31 Q 64.56 27.40 63.96 27.50 L 63.96 29.99 L 62.96 29.99 L 62.96 27.67 Q 62.88 27.68 62.79 27.71 Q 61.62 27.89 60.70 28.04 L 60.48 26.94 Q 61.07 26.86 61.82 26.77 Q 62.36 26.70 62.96 26.62 L 62.96 24.99 L 61.88 24.99 Q 61.59 24.99 61.07 25.09 Q 61.07 25.09 60.98 25.18 Q 60.96 25.06 60.84 24.71 Q 60.84 24.71 60.71 24.32 Q 60.71 24.32 60.64 24.19 Q 60.81 24.14 61.09 23.62 Q 61.09 23.62 61.24 23.23 Q 61.31 23.04 61.59 22.15 Q 61.59 22.15 61.75 21.55 Q 61.79 21.45 61.81 21.36 L 60.57 21.36 Z M 67.33 24.09 Q 67.69 25.21 68.30 26.18 Q 68.35 26.27 68.40 26.34 Q 69.05 25.32 69.36 24.07 L 70.39 24.33 Q 69.95 25.97 69.08 27.23 Q 69.39 27.58 69.77 27.89 Q 70.61 28.63 71.66 29.04 Q 71.54 29.15 71.26 29.48 Q 71.26 29.48 71.00 29.83 Q 71.00 29.83 70.90 29.99 Q 69.80 29.48 68.92 28.65 Q 68.65 28.39 68.40 28.09 Q 67.31 29.30 65.70 30.07 Q 65.64 29.95 65.38 29.63 Q 65.38 29.63 65.11 29.35 Q 65.11 29.35 64.99 29.25 Q 66.66 28.50 67.74 27.24 Q 67.57 27.00 67.41 26.73 Q 66.81 25.70 66.39 24.50 Q 66.15 24.82 65.92 25.08 Q 65.85 24.98 65.59 24.65 Q 65.59 24.65 65.31 24.32 Q 65.31 24.32 65.21 24.23 Q 65.66 23.75 66.56 22.44 Q 66.56 22.44 66.85 21.79 L 67.85 22.12 Q 67.59 22.64 66.96 23.72 Q 66.96 23.72 66.61 24.21 Q 66.57 24.25 66.55 24.30 Z M 65.38 20.58 L 68.10 20.58 Q 67.99 20.32 67.82 20.01 Q 67.59 19.58 67.37 19.25 L 68.34 18.82 Q 68.58 19.15 69.05 19.95 Q 69.05 19.95 69.16 20.24 L 68.50 20.58 L 71.42 20.58 L 71.42 21.61 L 65.38 21.61 Z M 69.19 22.25 L 70.02 21.78 Q 70.33 22.19 70.99 23.14 Q 70.99 23.14 71.57 24.06 Q 71.57 24.06 71.74 24.40 L 70.85 24.97 Q 70.69 24.61 70.14 23.66 Q 70.14 23.66 69.50 22.67 Q 69.50 22.67 69.19 22.25 Z M 72.78 22.26 L 77.29 22.26 Q 77.38 21.38 77.41 20.56 Q 77.44 19.68 77.45 18.91 L 78.67 18.91 Q 78.67 19.76 78.62 20.73 Q 78.59 21.48 78.50 22.26 L 83.38 22.26 L 83.38 23.42 L 78.97 23.42 Q 79.31 24.45 79.80 25.36 Q 80.45 26.60 82.35 28.43 Q 82.35 28.43 83.61 28.95 Q 83.47 29.07 83.14 29.46 Q 83.14 29.46 82.86 29.85 Q 82.86 29.85 82.76 30.01 Q 81.43 29.38 79.45 27.33 Q 79.45 27.33 78.77 25.98 Q 78.39 25.25 78.08 24.43 Q 78.04 24.62 77.98 24.81 Q 77.65 25.84 76.49 27.77 Q 76.49 27.77 74.70 29.41 Q 74.70 29.41 73.40 30.02 Q 73.26 29.79 72.78 29.25 Q 72.78 29.25 72.54 29.07 Q 73.79 28.51 75.50 27.02 Q 75.50 27.02 76.57 25.25 Q 76.57 25.25 76.86 24.30 Q 77.00 23.86 77.10 23.42 L 72.78 23.42 Z M 88.72 21.14 L 89.57 20.82 Q 89.78 21.14 90.19 21.92 Q 90.19 21.92 90.28 22.20 L 89.66 22.45 L 90.55 22.68 Q 90.48 22.87 90.38 23.06 L 95.12 23.06 L 95.12 24.00 L 92.34 24.00 L 92.34 25.29 L 95.53 25.29 L 95.53 26.24 L 92.34 26.24 L 92.34 28.56 L 93.98 28.56 L 93.98 26.71 L 95.02 26.71 L 95.02 30.07 L 93.98 30.07 L 93.98 29.49 L 88.52 29.49 L 88.52 26.78 L 89.55 26.78 L 89.55 28.56 L 91.26 28.56 L 91.26 26.24 L 88.09 26.24 L 88.09 25.29 L 91.26 25.29 L 91.26 24.00 L 89.82 24.00 Q 89.38 24.61 88.90 25.02 Q 88.82 24.94 88.54 24.70 Q 88.54 24.70 88.22 24.47 Q 88.22 24.47 88.10 24.40 Q 88.58 24.03 88.97 23.52 Q 89.33 23.04 89.54 22.50 L 89.38 22.57 Q 89.30 22.27 88.92 21.47 Q 88.92 21.47 88.72 21.14 Z M 84.43 25.16 Q 85.08 25.01 85.99 24.74 L 85.99 22.32 L 84.61 22.32 L 84.61 21.26 L 85.99 21.26 L 85.99 18.92 L 87.04 18.92 L 87.04 21.26 L 88.11 21.26 L 88.11 22.32 L 87.04 22.32 L 87.04 24.44 Q 87.50 24.30 87.97 24.15 L 88.11 25.19 Q 87.57 25.36 87.04 25.53 L 87.04 28.69 Q 87.04 29.11 86.84 29.58 Q 86.84 29.58 86.59 29.72 Q 86.36 29.85 85.59 29.94 Q 85.59 29.94 85.02 29.93 Q 85.00 29.72 84.83 29.11 Q 84.83 29.11 84.72 28.88 Q 85.08 28.89 85.68 28.89 Q 85.68 28.89 85.79 28.89 Q 85.89 28.89 85.99 28.80 Q 85.99 28.80 85.99 28.68 L 85.99 25.86 Q 85.29 26.07 84.70 26.25 Z M 94.49 19.02 L 95.13 19.89 Q 94.48 20.05 92.87 20.31 Q 92.87 20.31 91.11 20.51 Q 91.11 20.51 89.35 20.65 Q 89.35 20.65 88.52 20.69 Q 88.50 20.51 88.33 19.99 Q 88.33 19.99 88.25 19.81 Q 89.06 19.76 90.79 19.60 Q 90.79 19.60 92.45 19.42 Q 92.45 19.42 93.92 19.16 Q 93.92 19.16 94.49 19.02 Z M 94.02 20.42 L 95.04 20.80 Q 94.75 21.38 94.14 22.54 Q 94.14 22.54 93.87 22.95 L 93.08 22.60 Q 93.25 22.30 93.60 21.54 Q 93.60 21.54 93.92 20.75 Q 93.92 20.75 94.02 20.42 Z M 90.96 20.89 L 91.80 20.60 Q 92.00 20.99 92.35 21.88 Q 92.35 21.88 92.42 22.21 L 91.52 22.53 Q 91.48 22.21 91.15 21.28 Q 91.15 21.28 90.96 20.89 Z M 97.95 24.01 L 98.89 23.62 Q 99.25 24.00 99.91 24.95 Q 99.91 24.95 100.07 25.30 L 99.42 25.58 L 101.45 25.58 L 101.45 23.58 L 97.71 23.58 L 97.71 19.29 L 106.40 19.29 L 106.40 23.58 L 105.32 23.58 L 106.26 24.01 Q 105.92 24.48 105.55 24.95 Q 105.26 25.30 105.01 25.58 L 107.35 25.58 L 107.35 26.60 L 103.93 26.60 L 103.93 28.57 Q 103.93 28.80 104.13 28.93 Q 104.13 28.93 104.51 28.93 L 106.05 28.93 Q 106.27 28.93 106.49 28.76 Q 106.49 28.76 106.57 28.22 Q 106.57 28.22 106.59 27.70 Q 106.72 27.78 107.07 27.95 Q 107.07 27.95 107.47 28.06 Q 107.47 28.06 107.63 28.11 Q 107.55 28.84 107.26 29.63 Q 107.26 29.63 106.66 29.95 Q 106.66 29.95 106.16 29.95 L 104.36 29.95 Q 103.73 29.95 103.03 29.70 Q 103.03 29.70 102.78 29.10 Q 102.78 29.10 102.78 28.58 L 102.78 26.60 L 101.06 26.60 Q 100.96 27.23 100.75 27.74 Q 100.51 28.32 99.63 29.20 Q 99.63 29.20 98.18 29.84 Q 98.18 29.84 97.07 30.06 Q 97.02 29.92 96.81 29.55 Q 96.81 29.55 96.57 29.21 Q 96.57 29.21 96.47 29.08 Q 97.45 28.93 98.72 28.46 Q 98.72 28.46 99.46 27.82 Q 99.46 27.82 99.64 27.42 Q 99.81 27.04 99.90 26.60 L 96.79 26.60 L 96.79 25.58 L 98.98 25.58 Q 98.84 25.27 98.59 24.88 Q 98.28 24.40 97.95 24.01 Z M 98.81 21.84 L 98.81 22.71 L 105.26 22.71 L 105.26 21.84 Z M 98.81 20.15 L 98.81 21.02 L 105.26 21.02 L 105.26 20.15 Z M 104.48 25.58 L 103.96 25.33 Q 104.16 25.09 104.64 24.47 Q 104.64 24.47 104.85 24.13 Q 105.06 23.83 105.21 23.58 L 102.59 23.58 L 102.59 25.58 Z" xml:space="preserve" style="font-weight:613;font-size:12px;line-height:1.2;font-family:'Dream Han Sans SC';-inkscape-font-specification:'Dream Han Sans SC weight=613';text-align:start;writing-mode:lr-tb;direction:ltr;text-anchor:start;fill:#dbe9ff;fill-opacity:0.984314" id="text33" data-original-text="时也会出现较大摇晃" data-original-element="text"/>
</svg>