<?xml version="1.0" ?>
<svg xmlns="http://www.w3.org/2000/svg" xmlns:ns1="http://sodipodi.sourceforge.net/DTD/sodipodi-0.dtd" xmlns:ns2="http://www.inkscape.org/namespaces/inkscape" viewBox="0 0 180 40" version="1.1" height="40" width="180" id="svg7" ns1:docname="12e5db151a9abce8db72e8e5040a4f5d.svg" ns2:version="1.4.2 (f4327f4, 2025-05-13)">
  <defs id="defs7"/>
  <ns1:namedview id="namedview7" pagecolor="#505050" bordercolor="#eeeeee" borderopacity="1" ns2:showpageshadow="0" ns2:pageopacity="0" ns2:pagecheckerboard="0" ns2:deskcolor="#505050" ns2:zoom="9.85" ns2:cx="44.111675" ns2:cy="20.050761" ns2:window-width="1920" ns2:window-height="945" ns2:window-x="-9" ns2:window-y="40" ns2:window-maximized="1" ns2:current-layer="svg7"/>
  <path style="paint-order:stroke markers fill" stroke-width=".2" stroke-linejoin="round" stroke-linecap="round" stop-color="#000000" fill-opacity="0" fill="#fff" d="m0 0h180v40h-180z" id="path1"/>
  <path d="M 21.64 19.23 L 32.12 19.23 L 32.12 20.11 L 22.83 20.11 L 22.83 21.10 Q 22.83 21.48 22.79 21.92 L 32.63 21.92 L 32.63 22.78 L 30.99 22.78 L 31.84 23.22 Q 31.35 23.55 30.79 23.84 Q 30.48 23.99 30.20 24.12 Q 30.36 24.17 30.55 24.23 Q 31.59 24.49 32.86 24.59 Q 32.68 24.76 32.32 25.32 Q 32.32 25.32 32.21 25.56 Q 30.85 25.41 28.68 24.66 Q 28.68 24.66 27.90 24.04 Q 27.20 23.51 26.72 22.78 L 24.92 22.78 L 24.92 24.48 L 27.76 24.08 Q 27.71 24.29 27.66 24.85 Q 27.66 24.85 27.66 25.01 Q 26.39 25.23 24.84 25.50 Q 24.84 25.50 24.02 25.66 Q 24.02 25.66 23.64 25.75 Q 23.64 25.75 23.54 25.80 Q 23.50 25.66 23.31 25.28 Q 23.31 25.28 23.08 24.92 Q 23.08 24.92 22.98 24.80 Q 23.19 24.68 23.70 24.16 Q 23.70 24.16 23.70 23.73 L 23.70 22.78 L 22.70 22.78 Q 22.63 23.15 22.52 23.55 Q 22.35 24.19 21.71 25.39 Q 21.71 25.39 21.20 25.88 Q 21.11 25.76 20.77 25.46 Q 20.77 25.46 20.40 25.15 Q 20.40 25.15 20.27 25.09 Q 20.90 24.49 21.47 23.09 Q 21.47 23.09 21.64 21.68 Q 21.64 21.68 21.64 21.07 Z M 21.68 13.87 L 31.48 13.87 L 31.48 14.79 L 27.16 14.79 L 27.16 15.42 L 32.32 15.42 L 32.32 17.72 L 31.09 17.72 L 31.09 16.19 L 27.16 16.19 L 27.16 18.93 L 25.94 18.93 L 25.94 16.19 L 22.03 16.19 L 22.03 17.72 L 20.85 17.72 L 20.85 15.42 L 25.94 15.42 L 25.94 14.79 L 21.68 14.79 Z M 23.42 20.60 L 31.36 20.60 L 31.36 21.39 L 23.42 21.39 Z M 27.73 17.99 L 30.95 17.99 L 30.95 18.67 L 27.73 18.67 Z M 22.24 17.99 L 25.39 17.99 L 25.39 18.67 L 22.24 18.67 Z M 27.73 16.76 L 30.63 16.76 L 30.63 17.44 L 27.73 17.44 Z M 22.52 16.76 L 25.38 16.76 L 25.38 17.44 L 22.52 17.44 Z M 30.85 22.78 L 27.90 22.78 Q 28.26 23.18 28.76 23.48 Q 28.99 23.63 29.24 23.75 Q 29.44 23.64 29.66 23.52 Q 30.00 23.32 30.33 23.11 Q 30.63 22.92 30.85 22.78 Z M 36.55 21.11 L 43.98 21.11 L 44.20 21.06 L 44.99 21.47 Q 44.43 22.51 43.55 23.24 Q 43.00 23.68 42.39 24.04 Q 42.71 24.14 43.04 24.23 Q 44.48 24.58 46.13 24.71 Q 46.00 24.85 45.72 25.23 Q 45.72 25.23 45.48 25.63 Q 45.48 25.63 45.40 25.80 Q 43.70 25.61 42.23 25.18 Q 41.55 24.98 40.94 24.72 Q 40.07 25.04 39.11 25.27 Q 37.81 25.56 36.43 25.72 Q 36.36 25.50 36.05 24.87 Q 36.05 24.87 35.91 24.66 Q 37.19 24.57 38.41 24.32 Q 39.02 24.19 39.59 24.03 Q 38.44 23.32 37.66 22.33 L 38.16 22.12 L 36.55 22.12 Z M 34.86 14.68 L 39.95 14.68 Q 39.92 14.63 39.91 14.58 Q 39.72 14.06 39.51 13.64 L 40.77 13.35 Q 41.00 13.76 41.20 14.25 Q 41.30 14.48 41.37 14.68 L 45.94 14.68 L 45.94 15.85 L 36.09 15.85 L 36.09 18.27 Q 36.09 19.08 36.00 21.03 Q 36.00 21.03 35.74 23.07 Q 35.74 23.07 35.23 24.99 Q 35.23 24.99 34.82 25.79 Q 34.69 25.70 34.27 25.48 Q 34.27 25.48 33.84 25.28 Q 33.84 25.28 33.67 25.23 Q 34.08 24.47 34.55 22.68 Q 34.55 22.68 34.79 20.82 Q 34.79 20.82 34.86 19.04 Q 34.86 19.04 34.86 18.28 Z M 36.40 17.23 L 38.41 17.23 L 38.41 16.19 L 39.60 16.19 L 39.60 17.23 L 42.49 17.23 L 42.49 16.19 L 43.74 16.19 L 43.74 17.23 L 45.79 17.23 L 45.79 18.24 L 43.74 18.24 L 43.74 20.41 L 38.41 20.41 L 38.41 18.24 L 36.40 18.24 Z M 39.60 18.24 L 39.60 19.43 L 42.49 19.43 L 42.49 18.24 Z M 38.93 22.12 Q 39.56 22.79 40.51 23.30 Q 40.75 23.41 41.00 23.54 Q 41.83 23.18 42.48 22.68 Q 42.83 22.42 43.11 22.12 Z M 50.16 24.87 Q 49.40 24.87 48.20 24.49 Q 48.20 24.49 47.30 23.88 Q 47.30 23.88 46.95 23.55 L 47.68 22.55 Q 47.96 22.83 48.63 23.31 Q 48.63 23.31 49.47 23.60 Q 49.47 23.60 49.99 23.60 Q 50.53 23.60 51.41 23.09 Q 51.41 23.09 51.92 22.15 Q 51.92 22.15 51.92 21.51 Q 51.92 20.54 50.90 19.47 Q 50.90 19.47 50.05 19.47 Q 49.59 19.47 48.92 19.73 Q 48.92 19.73 48.50 20.01 L 47.73 19.52 L 48.03 14.86 L 53.00 14.86 L 53.00 16.16 L 49.36 16.16 L 49.13 18.67 Q 49.45 18.51 50.10 18.33 Q 50.10 18.33 50.48 18.33 Q 51.31 18.33 52.67 19.01 Q 52.67 19.01 53.47 20.37 Q 53.47 20.37 53.47 21.45 Q 53.47 22.53 52.52 24.07 Q 52.52 24.07 51.03 24.87 Q 51.03 24.87 50.16 24.87 Z M 60.96 23.33 Q 61.78 23.09 62.96 22.71 Q 63.45 22.55 63.95 22.39 Q 63.67 22.23 63.27 22.04 Q 62.80 21.83 61.78 21.43 Q 61.78 21.43 61.33 21.30 L 61.80 20.43 Q 62.25 20.55 63.28 20.91 Q 63.28 20.91 64.21 21.30 Q 64.21 21.30 64.52 21.47 L 64.08 22.34 Q 64.63 22.16 65.18 21.99 Q 65.23 21.20 65.27 20.11 L 61.32 20.11 Q 61.37 19.62 61.45 18.36 Q 61.45 18.36 61.52 17.03 Q 61.52 17.03 61.53 16.44 L 65.09 16.44 L 65.09 15.00 L 61.24 15.00 L 61.24 13.88 L 66.37 13.88 L 66.37 17.56 L 62.72 17.56 Q 62.72 17.64 62.72 17.72 Q 62.68 18.39 62.64 19.02 Q 62.64 19.03 62.64 19.04 L 66.54 19.04 L 66.54 19.14 Q 66.54 19.23 66.54 19.48 Q 66.54 19.48 66.53 19.58 Q 66.45 21.47 66.26 23.80 Q 66.26 23.80 66.02 25.01 Q 66.02 25.01 65.80 25.27 Q 65.60 25.52 65.10 25.72 Q 65.10 25.72 64.76 25.76 Q 64.45 25.80 63.44 25.79 Q 63.44 25.79 62.86 25.76 Q 62.85 25.51 62.65 24.88 Q 62.65 24.88 62.52 24.66 Q 63.07 24.71 63.98 24.73 Q 63.98 24.73 64.20 24.73 Q 64.39 24.73 64.63 24.67 Q 64.63 24.67 64.72 24.57 Q 64.86 24.39 64.97 23.83 Q 65.04 23.52 65.08 23.04 Q 64.23 23.36 63.37 23.68 Q 62.28 24.10 61.40 24.42 Z M 55.60 16.44 L 59.00 16.44 L 59.00 14.99 L 55.24 14.99 L 55.24 13.87 L 60.27 13.87 L 60.27 17.56 L 56.77 17.56 Q 56.76 17.64 56.76 17.72 Q 56.73 18.39 56.69 19.02 Q 56.69 19.03 56.69 19.04 L 60.41 19.04 L 60.41 19.14 Q 60.40 19.23 60.40 19.48 Q 60.40 19.48 60.38 19.57 Q 60.29 21.41 60.07 23.73 Q 60.07 23.73 59.79 24.94 Q 59.79 24.94 59.57 25.18 Q 59.40 25.42 58.96 25.60 Q 58.96 25.60 58.67 25.64 Q 58.41 25.67 57.58 25.69 Q 57.58 25.69 57.11 25.66 Q 57.09 25.42 56.92 24.77 Q 56.92 24.77 56.78 24.53 Q 57.19 24.58 57.89 24.60 Q 57.89 24.60 58.05 24.60 Q 58.21 24.60 58.41 24.53 Q 58.41 24.53 58.51 24.43 Q 58.65 24.25 58.78 23.73 Q 58.82 23.50 58.87 23.17 Q 58.03 23.47 57.19 23.76 Q 56.11 24.15 55.24 24.44 L 54.80 23.36 Q 55.35 23.20 56.74 22.79 Q 56.74 22.79 57.53 22.52 Q 57.76 22.46 57.98 22.39 Q 57.70 22.22 57.28 22.03 Q 56.83 21.82 55.79 21.43 Q 55.79 21.43 55.33 21.28 L 55.81 20.42 Q 56.25 20.54 57.28 20.88 Q 57.28 20.88 58.21 21.28 Q 58.21 21.28 58.54 21.45 L 58.09 22.35 Q 58.54 22.20 58.98 22.06 Q 59.07 21.27 59.12 20.11 L 55.38 20.11 Q 55.44 19.62 55.53 18.36 Q 55.53 18.36 55.59 17.03 Q 55.59 17.03 55.60 16.44 Z M 68.69 14.12 L 77.05 14.12 Q 76.91 14.86 76.56 16.47 Q 76.56 16.47 76.39 17.22 Q 76.37 17.27 76.36 17.34 L 78.60 17.34 L 78.83 17.28 L 79.69 17.62 Q 79.29 19.36 77.83 22.04 Q 77.83 22.04 76.83 23.03 Q 76.81 23.03 76.81 23.04 Q 78.33 24.03 80.44 24.52 Q 80.31 24.64 79.97 25.07 Q 79.97 25.07 79.69 25.51 Q 79.69 25.51 79.58 25.70 Q 77.72 25.20 76.32 24.34 Q 76.03 24.15 75.75 23.95 Q 75.20 24.35 74.60 24.68 Q 73.37 25.36 71.97 25.79 Q 71.89 25.61 71.65 25.22 Q 71.65 25.22 71.37 24.81 Q 71.37 24.81 71.24 24.68 Q 72.52 24.35 73.67 23.75 Q 74.23 23.46 74.73 23.09 Q 74.29 22.68 73.92 22.22 Q 72.92 20.98 72.23 19.38 Q 72.16 19.24 72.11 19.10 Q 72.04 19.53 71.96 19.98 Q 71.76 20.95 71.03 22.91 Q 71.03 22.91 69.79 24.80 Q 69.79 24.80 68.85 25.66 Q 68.76 25.48 68.44 25.07 Q 68.44 25.07 68.08 24.68 Q 68.08 24.68 67.93 24.57 Q 68.97 23.63 70.19 21.51 Q 70.19 21.51 70.77 19.31 Q 70.77 19.31 70.94 17.25 Q 70.94 17.25 70.94 16.39 L 70.94 15.39 L 68.69 15.39 Z M 75.76 22.24 Q 76.68 21.38 77.34 20.22 Q 77.79 19.43 78.09 18.52 L 74.69 18.52 Q 74.88 17.94 75.27 16.41 Q 75.27 16.41 75.44 15.63 Q 75.47 15.51 75.49 15.39 L 72.25 15.39 L 72.25 16.06 Q 72.80 18.09 73.72 19.72 Q 74.53 21.17 75.76 22.24 Z M 90.89 13.96 L 92.23 14.03 Q 92.11 16.39 91.46 20.11 Q 91.46 20.11 90.84 21.55 Q 90.83 21.56 90.83 21.59 Q 91.24 21.99 91.68 22.43 Q 92.33 23.09 93.48 24.42 Q 93.48 24.42 93.83 24.94 L 92.71 25.76 Q 92.39 25.24 91.30 23.89 Q 91.30 23.89 90.66 23.20 Q 90.44 22.95 90.21 22.72 Q 89.75 23.45 89.15 24.06 Q 88.08 25.11 86.46 25.87 Q 86.39 25.74 86.05 25.32 Q 86.05 25.32 85.66 24.91 Q 85.66 24.91 85.52 24.77 Q 87.08 24.15 89.09 22.24 Q 89.09 22.24 90.25 19.60 Q 90.25 19.60 90.80 16.13 Q 90.80 16.13 90.89 13.96 Z M 82.71 24.58 Q 82.64 24.42 82.40 24.03 Q 82.40 24.03 82.12 23.65 Q 82.12 23.65 82.00 23.55 Q 82.16 23.45 82.57 23.06 Q 82.57 23.06 82.89 22.52 Q 82.89 22.52 82.89 22.19 L 82.89 14.40 L 84.25 14.40 L 84.25 22.16 L 87.11 20.78 Q 87.16 21.06 87.37 21.76 Q 87.37 21.76 87.44 21.97 Q 86.30 22.55 84.72 23.35 Q 84.72 23.35 83.70 23.89 Q 83.70 23.89 83.12 24.24 Q 83.12 24.24 82.80 24.47 Q 82.80 24.47 82.71 24.58 Z M 85.75 15.31 L 86.83 14.73 Q 87.23 15.20 88.00 16.32 Q 88.00 16.32 88.65 17.39 Q 88.65 17.39 88.85 17.81 L 87.72 18.50 Q 87.53 18.07 86.91 16.95 Q 86.91 16.95 86.13 15.79 Q 86.13 15.79 85.75 15.31 Z M 94.82 23.89 L 99.75 23.89 L 99.75 13.61 L 101.08 13.61 L 101.08 17.62 L 105.97 17.62 L 105.97 18.87 L 101.08 18.87 L 101.08 23.89 L 106.89 23.89 L 106.89 25.16 L 94.82 25.16 Z" xml:space="preserve" style="font-weight:613;font-size:13.3333px;line-height:1.2;font-family:'Dream Han Sans SC';-inkscape-font-specification:'Dream Han Sans SC weight=613';text-align:start;writing-mode:lr-tb;direction:ltr;text-anchor:start;fill:#dbe9ff;fill-opacity:0.984314;stroke-width:0.999998" id="text7" data-original-text="震度5弱及以上" data-original-element="text"/>
</svg>