<?xml version="1.0" ?>
<svg xmlns="http://www.w3.org/2000/svg" xmlns:ns1="http://sodipodi.sourceforge.net/DTD/sodipodi-0.dtd" xmlns:ns2="http://www.inkscape.org/namespaces/inkscape" viewBox="0 0 196 34" version="1.1" height="34" width="196" id="svg23" ns1:docname="135f29ef05d3c18d19dcd4b59ecdee27.svg" ns2:version="1.4.2 (f4327f4, 2025-05-13)">
  <defs id="defs23"/>
  <ns1:namedview id="namedview23" pagecolor="#505050" bordercolor="#eeeeee" borderopacity="1" ns2:showpageshadow="0" ns2:pageopacity="0" ns2:pagecheckerboard="0" ns2:deskcolor="#505050" ns2:zoom="5.6568543" ns2:cx="60.722795" ns2:cy="23.422912" ns2:window-width="1920" ns2:window-height="945" ns2:window-x="-9" ns2:window-y="40" ns2:window-maximized="1" ns2:current-layer="svg23"/>
  <path d="M 0.0 0.0 L 196.0 0.0 L 196.0 34.0 L 0.0 34.0 Z" fill-opacity="0" id="rect1" data-original-element="rect"/>
  <path d="M 2.35 11.73 Q 2.32 11.60 2.20 11.19 Q 2.20 11.19 2.07 10.74 Q 2.07 10.74 2.00 10.56 Q 2.35 10.52 3.17 10.30 Q 3.17 10.30 3.72 10.08 Q 4.03 9.98 4.62 9.74 Q 4.96 9.59 5.36 9.42 Q 4.60 9.44 4.19 9.48 Q 3.75 9.51 3.34 9.57 Q 3.34 9.57 3.22 9.62 Q 3.20 9.49 3.07 9.08 Q 3.07 9.08 2.92 8.65 Q 2.92 8.65 2.85 8.51 Q 3.04 8.47 3.45 8.30 Q 3.45 8.30 3.68 8.18 Q 3.84 8.08 4.59 7.63 Q 4.59 7.63 5.02 7.31 Q 5.03 7.31 5.03 7.29 L 4.27 7.29 L 4.27 2.27 L 5.41 2.27 L 5.41 7.00 Q 5.63 6.82 5.83 6.62 L 6.35 6.99 Q 6.28 6.88 6.20 6.77 Q 6.10 6.58 5.97 6.47 Q 6.94 6.30 7.79 5.98 Q 8.19 5.83 8.56 5.66 Q 7.69 4.79 7.16 3.60 L 6.39 3.60 L 6.39 2.51 L 11.68 2.51 L 11.90 2.47 L 12.63 2.76 Q 12.16 4.12 11.27 5.05 Q 10.93 5.42 10.55 5.71 Q 11.71 6.32 13.26 6.58 Q 13.12 6.71 12.81 7.10 Q 12.81 7.10 12.56 7.50 Q 12.56 7.50 12.48 7.68 Q 10.73 7.28 9.48 6.43 Q 9.32 6.51 9.16 6.59 Q 7.97 7.18 6.60 7.50 Q 6.02 7.91 5.40 8.28 Q 5.27 8.36 5.12 8.45 L 7.48 8.39 Q 7.50 8.37 7.52 8.36 Q 8.34 7.94 9.08 7.46 L 9.94 8.35 Q 8.35 9.29 6.63 10.00 Q 6.17 10.19 5.72 10.36 L 10.35 10.14 Q 9.88 9.77 9.44 9.48 L 10.30 8.88 Q 10.78 9.19 11.83 9.99 Q 11.83 9.99 12.74 10.80 Q 12.74 10.80 13.02 11.16 L 12.11 11.83 Q 11.85 11.49 11.42 11.07 Q 11.42 11.07 11.40 11.06 Q 9.68 11.15 8.39 11.23 Q 8.27 11.23 8.15 11.25 L 8.15 13.13 Q 8.15 13.59 7.88 14.07 Q 7.88 14.07 7.52 14.20 Q 7.18 14.33 6.15 14.38 Q 6.15 14.38 5.43 14.38 Q 5.37 14.11 5.11 13.52 Q 5.11 13.52 4.98 13.30 Q 5.33 13.31 6.01 13.32 Q 6.01 13.32 6.51 13.31 Q 6.51 13.31 6.60 13.31 Q 6.76 13.30 6.87 13.22 Q 6.87 13.22 6.87 13.09 L 6.87 11.31 Q 6.35 11.35 5.92 11.38 Q 4.90 11.43 3.63 11.53 Q 3.63 11.53 2.89 11.60 Q 2.89 11.60 2.50 11.68 Q 2.50 11.68 2.35 11.73 Z M 1.99 2.85 L 3.13 2.85 L 3.13 6.86 L 1.99 6.86 Z M 4.39 11.68 L 5.55 12.15 Q 5.11 12.55 4.01 13.34 Q 4.01 13.34 2.85 14.02 Q 2.85 14.02 2.32 14.29 Q 2.22 14.15 1.85 13.83 Q 1.85 13.83 1.49 13.51 Q 1.49 13.51 1.35 13.41 Q 2.19 13.09 3.84 12.18 Q 3.84 12.18 4.39 11.68 Z M 9.03 12.35 L 9.95 11.71 Q 10.45 11.96 11.62 12.61 Q 11.62 12.61 12.68 13.27 Q 12.68 13.27 13.03 13.55 L 12.05 14.27 Q 11.73 13.99 10.71 13.31 Q 10.71 13.31 9.56 12.61 Q 9.56 12.61 9.03 12.35 Z M 9.56 5.07 Q 10.17 4.64 10.63 4.10 Q 10.83 3.87 11.00 3.60 L 8.31 3.60 Q 8.78 4.44 9.56 5.07 Z M 16.45 7.10 L 23.69 7.10 L 23.69 6.17 L 16.25 6.17 L 16.25 5.86 Q 15.88 6.12 15.46 6.38 Q 15.37 6.23 15.07 5.87 Q 15.07 5.87 14.74 5.55 Q 14.74 5.55 14.59 5.46 Q 15.48 4.98 16.87 3.80 Q 16.87 3.80 17.88 2.55 Q 17.88 2.55 18.20 1.98 L 19.55 2.23 Q 19.32 2.63 19.05 3.00 L 22.48 3.00 L 22.68 2.95 L 23.54 3.51 Q 23.32 3.91 23.00 4.36 Q 22.72 4.77 22.43 5.15 L 24.94 5.15 L 24.94 10.03 L 20.41 10.03 Q 20.73 10.30 21.07 10.63 Q 21.44 10.99 22.07 11.71 Q 22.07 11.71 22.24 12.01 L 21.23 12.71 Q 21.07 12.42 20.46 11.66 Q 20.46 11.66 19.75 10.91 Q 19.75 10.91 19.40 10.59 L 20.27 10.03 L 16.00 10.03 L 16.00 9.01 L 23.69 9.01 L 23.69 8.06 L 16.45 8.06 Z M 17.39 10.86 L 18.65 10.86 L 18.65 12.66 Q 18.65 12.94 19.01 13.08 Q 19.01 13.08 19.61 13.08 L 22.29 13.08 Q 22.63 13.08 22.96 12.90 Q 22.96 12.90 23.09 12.31 Q 23.09 12.31 23.13 11.71 Q 23.27 11.81 23.68 11.99 Q 23.68 11.99 24.11 12.11 Q 24.11 12.11 24.28 12.16 Q 24.20 12.99 23.83 13.87 Q 23.83 13.87 23.06 14.20 Q 23.06 14.20 22.39 14.20 L 19.52 14.20 Q 18.68 14.20 17.75 13.93 Q 17.75 13.93 17.39 13.27 Q 17.39 13.27 17.39 12.67 Z M 17.13 5.15 L 20.96 5.15 Q 21.14 4.95 21.30 4.71 Q 21.56 4.36 21.77 4.03 L 18.26 4.03 Q 17.76 4.59 17.18 5.13 Q 17.15 5.14 17.13 5.15 Z M 24.10 10.91 L 25.20 10.48 Q 25.51 10.93 26.11 11.95 Q 26.11 11.95 26.60 12.94 Q 26.60 12.94 26.71 13.32 L 25.52 13.82 Q 25.41 13.43 24.98 12.43 Q 24.98 12.43 24.40 11.36 Q 24.40 11.36 24.10 10.91 Z M 15.78 10.83 L 16.87 11.31 Q 16.71 11.72 16.28 12.67 Q 16.28 12.67 15.84 13.58 Q 15.84 13.58 15.60 13.95 L 14.44 13.37 Q 14.70 13.03 15.18 12.15 Q 15.18 12.15 15.61 11.23 Q 15.61 11.23 15.78 10.83 Z M 35.65 2.03 L 36.84 2.03 L 36.84 5.24 L 38.31 4.62 L 38.54 4.43 L 38.76 4.26 L 39.66 4.59 L 39.60 4.80 Q 39.60 5.75 39.59 7.37 Q 39.59 7.37 39.56 8.63 Q 39.56 8.63 39.52 9.49 Q 39.52 9.49 39.48 9.70 Q 39.44 10.13 39.08 10.58 Q 39.08 10.58 38.77 10.67 Q 38.49 10.78 37.76 10.82 Q 37.76 10.82 37.47 10.82 Q 37.44 10.56 37.28 9.94 Q 37.28 9.94 37.19 9.74 Q 37.39 9.75 37.87 9.76 Q 37.87 9.76 37.96 9.76 Q 38.11 9.76 38.28 9.63 Q 38.28 9.63 38.32 9.43 Q 38.35 9.31 38.37 8.56 Q 38.37 8.56 38.39 7.35 Q 38.39 7.35 38.39 6.51 Q 38.39 6.19 38.39 5.86 L 36.84 6.53 L 36.84 11.36 L 35.65 11.36 L 35.65 7.03 L 34.16 7.67 L 34.16 12.10 Q 34.16 12.47 34.29 12.85 Q 34.29 12.85 34.74 12.99 Q 34.74 12.99 35.16 12.99 L 38.11 12.99 Q 38.49 12.99 38.87 12.70 Q 38.87 12.70 39.05 11.92 Q 39.05 11.92 39.10 11.19 Q 39.31 11.34 39.96 11.60 Q 39.96 11.60 40.22 11.66 Q 40.13 12.59 39.74 13.65 Q 39.74 13.65 38.92 14.12 Q 38.92 14.12 38.19 14.12 L 35.08 14.12 Q 34.27 14.12 33.32 13.78 Q 33.32 13.78 32.94 12.89 Q 32.94 12.89 32.94 12.09 L 32.94 8.19 L 32.04 8.58 L 31.56 7.47 L 32.94 6.88 L 32.94 3.30 L 34.16 3.30 L 34.16 6.38 L 35.65 5.74 Z M 27.79 5.19 L 29.44 5.19 L 29.44 2.19 L 30.63 2.19 L 30.63 5.19 L 32.11 5.19 L 32.11 6.38 L 30.63 6.38 L 30.63 9.94 Q 31.32 9.64 32.03 9.35 L 32.31 10.47 Q 31.24 10.98 29.05 11.99 Q 29.05 11.99 28.15 12.39 L 27.65 11.12 Q 28.19 10.93 28.91 10.64 Q 29.18 10.54 29.44 10.42 L 29.44 6.38 L 27.79 6.38 Z M 42.33 7.83 L 52.81 7.83 L 52.81 8.71 L 43.52 8.71 L 43.52 9.70 Q 43.52 10.08 43.48 10.52 L 53.32 10.52 L 53.32 11.38 L 51.68 11.38 L 52.53 11.82 Q 52.04 12.15 51.48 12.44 Q 51.17 12.59 50.89 12.72 Q 51.06 12.78 51.24 12.83 Q 52.28 13.09 53.55 13.19 Q 53.37 13.36 53.02 13.92 Q 53.02 13.92 52.91 14.16 Q 51.55 14.01 49.38 13.26 Q 49.38 13.26 48.59 12.65 Q 47.89 12.11 47.41 11.38 L 45.61 11.38 L 45.61 13.08 L 48.45 12.68 Q 48.40 12.89 48.35 13.45 Q 48.35 13.45 48.35 13.62 Q 47.08 13.83 45.54 14.10 Q 45.54 14.10 44.71 14.26 Q 44.71 14.26 44.33 14.35 Q 44.33 14.35 44.23 14.40 Q 44.19 14.26 44.00 13.88 Q 44.00 13.88 43.77 13.52 Q 43.77 13.52 43.67 13.40 Q 43.88 13.28 44.39 12.76 Q 44.39 12.76 44.39 12.33 L 44.39 11.38 L 43.39 11.38 Q 43.32 11.75 43.21 12.15 Q 43.04 12.79 42.40 13.99 Q 42.40 13.99 41.90 14.48 Q 41.80 14.36 41.47 14.06 Q 41.47 14.06 41.10 13.75 Q 41.10 13.75 40.96 13.69 Q 41.59 13.09 42.16 11.70 Q 42.16 11.70 42.33 10.28 Q 42.33 10.28 42.33 9.67 Z M 42.37 2.47 L 52.18 2.47 L 52.18 3.39 L 47.85 3.39 L 47.85 4.02 L 53.02 4.02 L 53.02 6.32 L 51.79 6.32 L 51.79 4.79 L 47.85 4.79 L 47.85 7.54 L 46.63 7.54 L 46.63 4.79 L 42.72 4.79 L 42.72 6.32 L 41.55 6.32 L 41.55 4.02 L 46.63 4.02 L 46.63 3.39 L 42.37 3.39 Z M 44.11 9.20 L 52.05 9.20 L 52.05 9.99 L 44.11 9.99 Z M 48.43 6.59 L 51.64 6.59 L 51.64 7.27 L 48.43 7.27 Z M 42.93 6.59 L 46.08 6.59 L 46.08 7.27 L 42.93 7.27 Z M 48.43 5.36 L 51.32 5.36 L 51.32 6.04 L 48.43 6.04 Z M 43.21 5.36 L 46.07 5.36 L 46.07 6.04 L 43.21 6.04 Z M 51.55 11.38 L 48.59 11.38 Q 48.95 11.78 49.46 12.09 Q 49.68 12.23 49.94 12.35 Q 50.13 12.24 50.35 12.12 Q 50.69 11.92 51.02 11.71 Q 51.32 11.53 51.55 11.38 Z M 58.67 5.32 L 61.67 5.32 L 61.67 4.39 L 58.20 4.39 L 58.20 3.31 L 61.67 3.31 L 61.67 2.05 L 62.89 2.05 L 62.89 3.31 L 66.56 3.31 L 66.56 4.39 L 62.89 4.39 L 62.89 5.32 L 66.02 5.32 L 66.02 8.77 L 63.30 8.77 Q 63.67 8.99 64.05 9.26 Q 64.76 9.74 66.02 10.71 Q 66.02 10.71 66.43 11.12 L 65.63 11.98 Q 65.27 11.57 64.04 10.55 Q 64.04 10.55 63.34 10.04 Q 63.11 9.89 62.89 9.74 L 62.89 12.50 L 61.67 12.50 L 61.67 9.70 Q 61.51 9.90 61.34 10.11 Q 60.78 10.76 59.46 11.84 Q 59.46 11.84 58.77 12.19 Q 58.69 12.03 58.41 11.68 Q 58.41 11.68 58.11 11.35 Q 58.11 11.35 57.97 11.23 Q 58.63 10.95 59.92 10.07 Q 59.92 10.07 60.46 9.52 Q 60.84 9.15 61.12 8.77 L 58.67 8.77 Z M 57.56 6.81 L 57.56 11.87 Q 57.64 11.90 57.71 11.95 Q 58.03 12.18 58.60 12.47 Q 59.25 12.82 61.01 13.03 Q 61.01 13.03 62.08 13.03 Q 62.81 13.03 64.52 12.96 Q 64.52 12.96 66.20 12.84 Q 66.20 12.84 66.84 12.78 Q 66.77 12.93 66.63 13.37 Q 66.63 13.37 66.51 13.84 Q 66.51 13.84 66.49 14.02 Q 66.15 14.05 65.04 14.08 Q 65.04 14.08 63.76 14.12 Q 63.76 14.12 62.53 14.15 Q 62.53 14.15 62.05 14.15 Q 60.86 14.15 59.08 13.88 Q 59.08 13.88 58.36 13.50 Q 57.92 13.26 57.27 12.80 Q 57.27 12.80 57.01 12.80 Q 56.79 12.80 56.19 13.23 Q 56.19 13.23 55.52 13.93 Q 55.52 13.93 55.18 14.34 L 54.40 13.26 Q 55.11 12.59 55.80 12.16 Q 56.10 11.98 56.36 11.87 L 56.36 7.96 L 54.53 7.96 L 54.53 6.81 Z M 54.72 3.21 L 55.68 2.52 Q 56.06 2.84 56.87 3.64 Q 56.87 3.64 57.57 4.42 Q 57.57 4.42 57.80 4.72 L 56.79 5.50 Q 56.59 5.18 55.89 4.38 Q 55.89 4.38 55.09 3.54 Q 55.09 3.54 54.72 3.21 Z M 62.89 6.31 L 62.89 7.78 L 64.80 7.78 L 64.80 6.31 Z M 59.83 6.31 L 59.83 7.78 L 61.67 7.78 L 61.67 6.31 Z M 72.84 2.48 L 79.36 2.48 L 79.36 2.67 Q 79.34 2.85 79.33 2.99 Q 79.29 4.40 79.06 5.74 Q 79.06 5.74 78.84 5.99 Q 78.64 6.21 78.11 6.36 Q 78.11 6.36 77.76 6.39 Q 77.43 6.40 76.28 6.40 Q 76.28 6.40 75.63 6.36 Q 75.61 6.14 75.43 5.55 Q 75.43 5.55 75.30 5.33 Q 75.72 5.36 76.48 5.39 Q 76.48 5.39 77.08 5.41 Q 77.08 5.41 77.22 5.41 Q 77.43 5.41 77.66 5.36 Q 77.66 5.36 77.76 5.30 Q 77.85 5.19 77.97 4.62 Q 77.97 4.62 78.02 4.07 Q 78.03 3.88 78.04 3.65 L 74.10 3.65 L 74.10 7.10 L 78.69 7.10 L 78.92 7.06 L 79.74 7.31 Q 79.44 8.88 78.80 10.24 Q 78.41 11.07 77.91 11.79 Q 78.02 11.90 78.12 11.99 Q 79.05 12.83 80.18 13.31 Q 80.04 13.43 79.72 13.82 Q 79.72 13.82 79.42 14.21 Q 79.42 14.21 79.32 14.38 Q 78.13 13.80 77.18 12.85 Q 77.13 12.82 77.09 12.78 Q 76.15 13.78 74.87 14.44 Q 74.72 14.21 74.48 13.95 Q 74.28 13.73 74.10 13.56 L 74.10 14.36 L 72.84 14.36 Z M 67.66 8.96 Q 68.27 8.82 69.03 8.63 Q 69.33 8.55 69.66 8.47 L 69.66 5.88 L 67.85 5.88 L 67.85 4.66 L 69.66 4.66 L 69.66 2.03 L 70.93 2.03 L 70.93 4.66 L 72.35 4.66 L 72.35 5.88 L 70.93 5.88 L 70.93 8.13 Q 71.63 7.95 72.31 7.76 L 72.46 8.97 Q 71.71 9.20 70.93 9.42 L 70.93 12.93 Q 70.93 13.46 70.67 14.02 Q 70.67 14.02 70.02 14.31 Q 70.02 14.31 68.97 14.40 Q 68.97 14.40 68.17 14.39 Q 68.13 14.15 67.91 13.46 Q 67.91 13.46 67.78 13.19 Q 68.31 13.21 69.21 13.22 Q 69.21 13.22 69.34 13.22 Q 69.52 13.21 69.66 13.08 Q 69.66 13.08 69.66 12.93 L 69.66 9.77 Q 68.75 10.04 67.96 10.24 Z M 76.28 11.84 Q 75.86 11.30 75.50 10.67 Q 74.81 9.52 74.36 8.23 L 74.10 8.23 L 74.10 13.46 Q 74.98 13.02 75.69 12.40 Q 76.00 12.14 76.28 11.84 Z M 75.56 8.23 Q 75.93 9.19 76.49 10.05 Q 76.76 10.48 77.07 10.87 Q 77.57 10.10 77.92 9.24 Q 78.12 8.75 78.27 8.23 Z M 89.70 8.22 Q 89.70 6.86 90.37 4.55 Q 90.37 4.55 91.57 2.62 Q 91.57 2.62 92.33 1.84 L 93.35 2.33 Q 92.61 3.08 91.52 4.89 Q 91.52 4.89 90.89 6.99 Q 90.89 6.99 90.89 8.22 Q 90.89 9.43 91.52 11.55 Q 91.52 11.55 92.61 13.34 Q 92.61 13.34 93.35 14.11 L 92.33 14.59 Q 91.57 13.82 90.37 11.88 Q 90.37 11.88 89.70 9.57 Q 89.70 9.57 89.70 8.22 Z M 94.68 2.65 L 98.87 2.65 L 99.10 2.57 L 99.85 3.09 Q 99.53 3.62 98.72 4.70 Q 98.72 4.70 98.28 5.19 Q 97.97 5.52 97.68 5.80 Q 97.79 5.87 97.89 5.94 Q 98.44 6.30 98.80 6.58 L 98.49 6.96 L 99.28 6.96 L 99.46 6.92 L 100.23 7.12 Q 99.99 7.93 99.43 9.59 Q 99.43 9.59 99.19 10.15 L 98.24 9.92 Q 98.39 9.58 98.69 8.63 Q 98.69 8.63 98.84 8.11 Q 98.84 8.09 98.86 8.09 L 97.71 8.09 L 97.71 12.99 Q 97.71 13.47 97.48 14.02 Q 97.48 14.02 97.15 14.16 Q 96.83 14.30 95.88 14.38 Q 95.88 14.38 95.20 14.38 Q 95.16 14.11 94.94 13.43 Q 94.94 13.43 94.80 13.18 Q 95.28 13.19 96.11 13.19 Q 96.11 13.19 96.24 13.19 Q 96.39 13.18 96.49 13.09 Q 96.49 13.09 96.49 12.98 L 96.49 8.09 L 94.39 8.09 L 94.39 6.96 L 97.40 6.96 Q 97.31 6.91 97.22 6.84 Q 96.68 6.45 95.51 5.66 Q 95.51 5.66 95.00 5.33 L 95.68 4.52 Q 96.17 4.83 96.76 5.20 Q 96.79 5.22 96.81 5.23 Q 97.10 4.94 97.43 4.58 Q 97.78 4.16 98.07 3.74 L 94.68 3.74 Z M 100.08 2.59 L 106.80 2.59 L 106.80 3.69 L 104.18 3.69 Q 104.04 4.11 103.91 4.51 Q 103.84 4.71 103.77 4.89 L 106.28 4.89 L 106.28 11.23 L 105.05 11.23 L 105.05 6.02 L 101.71 6.02 L 101.71 11.27 L 100.55 11.27 L 100.55 4.89 L 102.56 4.89 Q 102.64 4.58 102.71 4.24 Q 102.78 3.96 102.83 3.69 L 100.08 3.69 Z M 102.78 6.79 L 103.96 6.79 L 103.96 9.36 Q 103.96 10.00 103.69 11.36 Q 103.69 11.36 102.91 12.68 Q 102.91 12.68 101.40 13.86 Q 101.40 13.86 100.13 14.34 Q 100.03 14.14 99.57 13.62 Q 99.57 13.62 99.36 13.45 Q 100.52 13.06 101.88 12.06 Q 101.88 12.06 102.55 10.95 Q 102.55 10.95 102.78 9.85 Q 102.78 9.85 102.78 9.35 Z M 103.60 12.23 L 104.43 11.47 Q 104.83 11.78 105.74 12.54 Q 105.74 12.54 106.59 13.27 Q 106.59 13.27 106.84 13.55 L 105.97 14.42 Q 105.73 14.12 104.92 13.36 Q 104.92 13.36 104.01 12.56 Q 104.01 12.56 103.60 12.23 Z M 112.84 2.48 L 119.36 2.48 L 119.36 2.67 Q 119.34 2.85 119.33 2.99 Q 119.29 4.40 119.06 5.74 Q 119.06 5.74 118.84 5.99 Q 118.64 6.21 118.11 6.36 Q 118.11 6.36 117.76 6.39 Q 117.43 6.40 116.28 6.40 Q 116.28 6.40 115.63 6.36 Q 115.61 6.14 115.43 5.55 Q 115.43 5.55 115.30 5.33 Q 115.72 5.36 116.48 5.39 Q 116.48 5.39 117.08 5.41 Q 117.08 5.41 117.22 5.41 Q 117.43 5.41 117.66 5.36 Q 117.66 5.36 117.76 5.30 Q 117.85 5.19 117.97 4.62 Q 117.97 4.62 118.02 4.07 Q 118.03 3.88 118.04 3.65 L 114.10 3.65 L 114.10 7.10 L 118.69 7.10 L 118.92 7.06 L 119.74 7.31 Q 119.44 8.88 118.80 10.24 Q 118.41 11.07 117.91 11.79 Q 118.02 11.90 118.12 11.99 Q 119.05 12.83 120.18 13.31 Q 120.04 13.43 119.72 13.82 Q 119.72 13.82 119.42 14.21 Q 119.42 14.21 119.32 14.38 Q 118.13 13.80 117.18 12.85 Q 117.13 12.82 117.09 12.78 Q 116.15 13.78 114.87 14.44 Q 114.72 14.21 114.48 13.95 Q 114.28 13.73 114.10 13.56 L 114.10 14.36 L 112.84 14.36 Z M 107.66 8.96 Q 108.27 8.82 109.03 8.63 Q 109.33 8.55 109.66 8.47 L 109.66 5.88 L 107.85 5.88 L 107.85 4.66 L 109.66 4.66 L 109.66 2.03 L 110.93 2.03 L 110.93 4.66 L 112.35 4.66 L 112.35 5.88 L 110.93 5.88 L 110.93 8.13 Q 111.63 7.95 112.31 7.76 L 112.46 8.97 Q 111.71 9.20 110.93 9.42 L 110.93 12.93 Q 110.93 13.46 110.67 14.02 Q 110.67 14.02 110.02 14.31 Q 110.02 14.31 108.97 14.40 Q 108.97 14.40 108.17 14.39 Q 108.13 14.15 107.91 13.46 Q 107.91 13.46 107.78 13.19 Q 108.31 13.21 109.21 13.22 Q 109.21 13.22 109.34 13.22 Q 109.52 13.21 109.66 13.08 Q 109.66 13.08 109.66 12.93 L 109.66 9.77 Q 108.75 10.04 107.96 10.24 Z M 116.28 11.84 Q 115.85 11.30 115.50 10.67 Q 114.81 9.52 114.36 8.23 L 114.10 8.23 L 114.10 13.46 Q 114.98 13.02 115.69 12.40 Q 116.00 12.14 116.28 11.84 Z M 115.56 8.23 Q 115.93 9.19 116.49 10.05 Q 116.76 10.48 117.07 10.87 Q 117.57 10.10 117.92 9.24 Q 118.12 8.75 118.27 8.23 Z M 124.87 8.22 Q 124.87 9.57 124.19 11.88 Q 124.19 11.88 122.99 13.82 Q 122.99 13.82 122.23 14.59 L 121.21 14.11 Q 121.95 13.34 123.04 11.55 Q 123.04 11.55 123.67 9.43 Q 123.67 9.43 123.67 8.22 Q 123.67 6.99 123.04 4.89 Q 123.04 4.89 121.95 3.08 Q 121.95 3.08 121.21 2.33 L 122.23 1.84 Q 122.99 2.62 124.19 4.55 Q 124.19 4.55 124.87 6.86 Q 124.87 6.86 124.87 8.22 Z M 139.92 1.96 L 141.32 2.19 Q 141.12 3.65 140.82 4.98 L 146.44 4.98 L 146.44 6.17 L 140.51 6.17 Q 140.31 6.84 140.08 7.46 L 144.32 7.46 L 144.56 7.40 L 145.43 7.80 Q 144.98 9.21 144.21 10.30 Q 143.62 11.16 142.87 11.84 Q 144.55 12.89 146.90 13.30 Q 146.76 13.43 146.45 13.83 Q 146.45 13.83 146.19 14.26 Q 146.19 14.26 146.10 14.43 Q 144.19 14.02 142.71 13.19 Q 142.25 12.94 141.84 12.65 Q 141.11 13.15 140.28 13.54 Q 139.11 14.08 137.80 14.43 Q 137.69 14.18 137.31 13.54 Q 137.31 13.54 137.13 13.34 Q 138.32 13.06 139.42 12.57 Q 140.16 12.24 140.83 11.82 Q 140.48 11.49 140.17 11.12 Q 139.56 10.41 139.06 9.57 Q 138.48 10.55 137.71 11.39 Q 136.67 12.51 135.22 13.36 Q 135.13 13.22 134.81 12.84 Q 134.81 12.84 134.44 12.47 Q 134.44 12.47 134.28 12.37 Q 136.08 11.34 138.35 8.30 Q 138.35 8.30 138.99 6.31 Q 139.01 6.25 139.03 6.17 L 137.23 6.17 Q 136.63 6.17 135.91 6.31 Q 135.91 6.31 135.82 6.43 Q 135.78 6.30 135.63 5.87 Q 135.63 5.87 135.46 5.43 Q 135.46 5.43 135.40 5.28 Q 135.55 5.23 135.80 4.96 Q 135.80 4.96 135.92 4.74 Q 136.00 4.59 136.35 3.87 Q 136.35 3.87 136.72 2.89 Q 136.72 2.89 136.82 2.37 L 138.17 2.59 Q 138.00 3.17 137.53 4.33 Q 137.53 4.33 137.28 4.83 Q 137.24 4.90 137.20 4.98 L 139.38 4.98 Q 139.72 3.55 139.92 1.96 Z M 141.81 11.08 Q 142.50 10.50 143.03 9.76 Q 143.40 9.26 143.68 8.67 L 139.87 8.67 Q 140.60 10.05 141.81 11.08 Z M 142.89 2.74 L 143.87 2.15 Q 144.15 2.44 144.79 3.13 Q 144.79 3.13 145.36 3.79 Q 145.36 3.79 145.55 4.03 L 144.53 4.70 Q 144.36 4.44 143.78 3.77 Q 143.78 3.77 143.16 3.04 Q 143.16 3.04 142.89 2.74 Z M 148.04 4.01 L 151.79 4.01 Q 152.20 3.00 152.46 2.00 L 153.76 2.31 Q 153.49 3.17 153.16 4.01 L 159.88 4.01 L 159.88 5.22 L 152.64 5.22 Q 152.60 5.33 152.55 5.45 Q 152.04 6.51 151.39 7.48 L 153.97 7.48 L 153.97 5.80 L 155.24 5.80 L 155.24 7.48 L 159.19 7.48 L 159.19 11.72 Q 159.19 12.19 158.93 12.72 Q 158.93 12.72 158.59 12.89 Q 158.24 13.02 157.15 13.07 Q 157.15 13.07 156.34 13.07 Q 156.29 12.82 156.06 12.18 Q 156.06 12.18 155.92 11.92 Q 156.29 11.94 157.00 11.95 Q 157.00 11.95 157.53 11.95 Q 157.53 11.95 157.63 11.95 Q 157.79 11.94 157.91 11.84 Q 157.91 11.84 157.91 11.71 L 157.91 8.67 L 155.24 8.67 L 155.24 14.40 L 153.97 14.40 L 153.97 8.67 L 151.44 8.67 L 151.44 13.19 L 150.18 13.19 L 150.18 9.03 Q 149.36 9.94 148.35 10.64 Q 148.27 10.48 148.00 10.10 Q 148.00 10.10 147.74 9.68 Q 147.74 9.68 147.61 9.55 Q 148.56 8.92 150.11 7.20 Q 150.11 7.20 150.71 6.21 Q 150.99 5.73 151.24 5.22 L 148.04 5.22 Z" xml:space="preserve" style="font-weight:613;font-size:13.3333px;line-height:1.2;font-family:'Dream Han Sans SC';-inkscape-font-specification:'Dream Han Sans SC weight=613';text-align:start;writing-mode:lr-tb;direction:ltr;text-anchor:start;fill:#dbe9ff;fill-opacity:1;stroke-width:0.999999" id="text23" data-original-text="紧急地震速报（预报）发布" data-original-element="text"/>
  <path d="M 6.04 24.74 L 12.30 24.74 L 12.30 29.94 Q 12.30 30.37 12.07 30.89 Q 12.07 30.89 11.75 31.02 Q 11.44 31.16 10.48 31.21 Q 10.48 31.21 9.78 31.21 Q 9.73 30.97 9.54 30.36 Q 9.54 30.36 9.41 30.13 Q 9.88 30.14 10.72 30.15 Q 10.72 30.15 10.85 30.14 Q 11.09 30.14 11.09 29.91 L 11.09 29.22 L 7.22 29.22 L 7.22 31.24 L 6.04 31.24 Z M 5.52 19.85 L 8.53 19.85 L 8.53 18.86 L 9.78 18.86 L 9.78 19.85 L 12.89 19.85 L 12.89 20.77 L 9.78 20.77 L 9.78 21.49 L 12.48 21.49 L 12.48 22.37 L 9.78 22.37 L 9.78 23.14 L 13.29 23.14 L 13.29 24.07 L 5.12 24.07 L 5.12 23.14 L 8.53 23.14 L 8.53 22.37 L 5.86 22.37 L 5.86 21.49 L 8.53 21.49 L 8.53 20.77 L 5.52 20.77 Z M 2.78 31.05 Q 2.73 30.89 2.50 30.49 Q 2.50 30.49 2.27 30.09 Q 2.27 30.09 2.15 29.99 Q 2.35 29.85 2.81 29.22 Q 2.81 29.22 2.81 28.78 L 2.81 24.22 L 0.96 24.22 L 0.96 23.01 L 4.01 23.01 L 4.01 28.51 L 5.29 27.54 Q 5.36 27.80 5.62 28.44 Q 5.62 28.44 5.71 28.62 Q 4.84 29.30 3.76 30.15 Q 3.76 30.15 3.16 30.65 Q 3.16 30.65 2.87 30.93 Q 2.87 30.93 2.78 31.05 Z M 11.09 27.39 L 7.22 27.39 L 7.22 28.34 L 11.09 28.34 Z M 1.74 19.87 L 2.53 19.11 Q 2.89 19.41 3.68 20.13 Q 3.68 20.13 4.40 20.83 Q 4.40 20.83 4.61 21.11 L 3.76 21.98 Q 3.56 21.70 2.87 20.96 Q 2.87 20.96 2.08 20.19 Q 2.08 20.19 1.74 19.87 Z M 11.09 25.69 L 7.22 25.69 L 7.22 26.55 L 11.09 26.55 Z M 18.84 25.30 L 21.72 25.30 L 21.72 22.58 L 18.32 22.58 L 18.32 21.39 L 22.12 21.39 Q 21.99 20.94 21.69 20.34 Q 21.40 19.72 21.08 19.21 L 22.22 18.79 Q 22.56 19.30 23.20 20.50 Q 23.20 20.50 23.34 20.93 L 22.17 21.39 L 26.32 21.39 L 26.32 22.58 L 23.02 22.58 L 23.02 25.30 L 25.84 25.30 L 25.84 26.50 L 23.02 26.50 L 23.02 29.63 L 26.66 29.63 L 26.66 30.84 L 17.91 30.84 L 17.91 29.63 L 21.72 29.63 L 21.72 26.50 L 18.84 26.50 Z M 14.68 30.25 Q 15.04 29.76 15.92 28.34 Q 15.92 28.34 16.83 26.76 Q 16.83 26.76 17.21 25.99 L 18.14 26.82 Q 17.78 27.53 16.97 29.03 Q 16.97 29.03 16.14 30.47 Q 16.14 30.47 15.75 31.11 Z M 15.02 19.93 L 15.73 19.02 Q 16.14 19.20 17.09 19.69 Q 17.09 19.69 17.97 20.18 Q 17.97 20.18 18.27 20.40 L 17.53 21.42 Q 17.27 21.21 16.40 20.68 Q 16.40 20.68 15.45 20.13 Q 15.45 20.13 15.02 19.93 Z M 14.31 23.65 L 14.98 22.70 Q 15.40 22.88 16.33 23.36 Q 16.33 23.36 17.20 23.83 Q 17.20 23.83 17.49 24.03 L 16.79 25.09 Q 16.52 24.87 15.67 24.37 Q 15.67 24.37 14.72 23.85 Q 14.72 23.85 14.31 23.65 Z M 32.48 27.95 L 32.99 27.46 L 29.60 27.46 L 29.60 23.49 L 38.08 23.49 L 38.08 27.46 L 33.64 27.46 Q 33.81 27.56 33.99 27.65 Q 34.39 27.89 35.11 28.38 Q 35.11 28.38 35.35 28.58 L 34.57 29.37 Q 34.36 29.16 33.66 28.64 Q 33.66 28.64 32.86 28.14 Q 32.86 28.14 32.48 27.95 Z M 28.68 19.74 L 33.27 19.74 Q 33.27 19.74 33.27 19.73 Q 33.11 19.31 32.92 18.97 L 34.13 18.73 Q 34.33 19.05 34.52 19.46 Q 34.59 19.61 34.64 19.74 L 38.88 19.74 L 38.88 20.74 L 36.16 20.74 L 37.08 20.92 Q 36.85 21.34 36.65 21.72 Q 36.60 21.81 36.55 21.90 L 39.57 21.90 L 39.57 22.90 L 28.05 22.90 L 28.05 21.90 L 31.03 21.90 Q 30.99 21.77 30.93 21.62 Q 30.80 21.24 30.64 20.93 L 31.55 20.74 L 28.68 20.74 Z M 31.03 28.12 L 32.24 28.12 L 32.24 29.69 Q 32.24 29.94 32.53 30.08 Q 32.53 30.08 33.02 30.08 L 35.15 30.08 Q 35.43 30.08 35.69 29.91 Q 35.69 29.91 35.81 29.38 Q 35.81 29.38 35.84 28.85 Q 36.03 28.97 36.66 29.20 Q 36.66 29.20 36.92 29.25 Q 36.85 30.00 36.51 30.81 Q 36.51 30.81 35.85 31.12 Q 35.85 31.12 35.26 31.12 L 32.91 31.12 Q 32.15 31.12 31.33 30.86 Q 31.33 30.86 31.03 30.25 Q 31.03 30.25 31.03 29.71 Z M 30.79 25.86 L 30.79 26.63 L 36.83 26.63 L 36.83 25.86 Z M 30.79 24.31 L 30.79 25.08 L 36.83 25.08 L 36.83 24.31 Z M 32.31 21.90 L 35.25 21.90 Q 35.37 21.67 35.49 21.37 Q 35.65 21.02 35.75 20.74 L 31.81 20.74 Q 31.97 21.02 32.11 21.35 Q 32.24 21.67 32.31 21.90 Z M 29.42 27.98 L 30.48 28.44 Q 30.19 29.06 29.37 30.42 Q 29.37 30.42 28.85 30.90 L 27.81 30.28 Q 28.32 29.85 29.17 28.57 Q 29.17 28.57 29.42 27.98 Z M 36.92 28.30 L 37.93 27.85 Q 38.27 28.20 38.94 29.02 Q 38.94 29.02 39.48 29.85 Q 39.48 29.85 39.64 30.18 L 38.56 30.69 Q 38.43 30.36 37.91 29.53 Q 37.91 29.53 37.25 28.66 Q 37.25 28.66 36.92 28.30 Z M 48.42 19.11 L 49.56 18.83 Q 49.74 19.30 50.12 20.40 Q 50.12 20.40 50.21 20.77 L 49.18 21.05 L 53.19 21.05 L 53.19 22.24 L 48.70 22.24 Q 48.66 23.18 48.58 24.07 L 52.43 24.07 L 52.43 24.17 Q 52.43 24.28 52.41 24.54 Q 52.41 24.54 52.41 24.62 Q 52.36 26.14 52.25 28.27 Q 52.25 28.27 52.09 29.67 Q 52.09 29.67 51.88 30.49 Q 51.88 30.49 51.74 30.68 Q 51.53 30.93 51.07 31.14 Q 51.07 31.14 50.75 31.18 Q 50.45 31.22 49.50 31.22 Q 49.50 31.22 48.96 31.20 Q 48.95 30.93 48.75 30.22 Q 48.75 30.22 48.58 29.95 Q 49.09 30.00 49.95 30.02 Q 49.95 30.02 50.15 30.02 Q 50.47 30.04 50.63 29.85 Q 50.77 29.69 50.97 28.53 Q 50.97 28.53 51.04 27.37 Q 51.09 26.50 51.14 25.22 L 48.48 25.22 Q 48.34 26.33 48.06 27.30 Q 47.72 28.53 46.27 30.50 Q 46.27 30.50 45.01 31.20 Q 44.89 30.98 44.41 30.41 Q 44.41 30.41 44.20 30.25 Q 45.35 29.63 46.64 27.88 Q 46.64 27.88 47.25 25.68 Q 47.25 25.68 47.33 24.39 Q 47.41 23.36 47.44 22.24 L 45.51 22.24 L 45.51 21.05 L 48.99 21.05 Q 48.92 20.69 48.75 20.17 Q 48.57 19.59 48.42 19.11 Z M 41.49 19.44 L 44.73 19.44 L 44.92 19.38 L 45.77 19.87 Q 45.58 20.46 45.12 21.74 Q 45.12 21.74 44.67 23.01 Q 44.67 23.01 44.42 23.55 Q 45.15 24.38 45.60 25.83 Q 45.60 25.83 45.60 26.44 Q 45.60 27.04 45.32 27.88 Q 45.32 27.88 45.01 28.09 Q 44.85 28.21 44.46 28.34 Q 44.46 28.34 44.27 28.37 Q 44.05 28.40 43.56 28.40 Q 43.56 28.40 43.32 28.40 Q 43.30 28.14 43.16 27.49 Q 43.16 27.49 43.01 27.26 Q 43.24 27.28 43.61 27.28 Q 43.61 27.28 43.76 27.28 Q 44.00 27.28 44.18 27.15 Q 44.33 27.05 44.44 26.58 Q 44.44 26.58 44.44 26.27 Q 44.44 25.75 44.00 24.45 Q 44.00 24.45 43.30 23.69 Q 43.48 23.23 43.83 22.15 Q 43.83 22.15 44.14 21.09 Q 44.14 21.09 44.28 20.62 Q 44.29 20.58 44.29 20.56 L 42.68 20.56 L 42.68 31.24 L 41.49 31.24 Z M 59.23 22.85 L 65.49 22.85 L 65.49 26.20 Q 65.49 26.67 65.23 27.24 Q 65.23 27.24 64.84 27.37 Q 64.46 27.52 63.30 27.58 Q 63.30 27.58 62.49 27.58 Q 62.44 27.30 62.16 26.63 Q 62.16 26.63 62.02 26.40 Q 62.44 26.41 63.23 26.42 Q 63.23 26.42 63.81 26.41 Q 63.81 26.41 63.94 26.41 Q 64.11 26.40 64.23 26.30 Q 64.23 26.30 64.23 26.17 L 64.23 24.05 L 60.52 24.05 L 60.52 29.06 Q 60.52 29.38 60.67 29.71 Q 60.67 29.71 61.12 29.82 Q 61.12 29.82 61.55 29.82 L 64.48 29.82 Q 64.87 29.82 65.24 29.56 Q 65.24 29.56 65.43 28.81 Q 65.43 28.81 65.47 28.08 Q 65.71 28.23 66.40 28.51 Q 66.40 28.51 66.66 28.58 Q 66.59 29.52 66.18 30.58 Q 66.18 30.58 65.34 31.01 Q 65.34 31.01 64.56 31.01 L 61.46 31.01 Q 60.60 31.01 59.61 30.69 Q 59.61 30.69 59.23 29.84 Q 59.23 29.84 59.23 29.07 Z M 54.51 19.94 L 57.39 19.94 L 57.39 18.86 L 58.68 18.86 L 58.68 19.94 L 62.20 19.94 L 62.20 18.86 L 63.49 18.86 L 63.49 19.94 L 66.43 19.94 L 66.43 21.12 L 63.49 21.12 L 63.49 22.30 L 62.20 22.30 L 62.20 21.12 L 58.68 21.12 L 58.68 22.30 L 57.39 22.30 L 57.39 21.12 L 54.51 21.12 Z M 54.73 30.17 Q 55.17 29.78 56.28 28.69 Q 56.28 28.69 57.46 27.43 Q 57.46 27.43 58.00 26.82 L 58.70 27.78 Q 58.23 28.34 57.17 29.54 Q 57.17 29.54 56.12 30.69 Q 56.12 30.69 55.60 31.21 Z M 55.26 23.18 L 55.99 22.37 Q 56.36 22.57 57.28 23.08 Q 57.28 23.08 58.15 23.57 Q 58.15 23.57 58.43 23.76 L 57.68 24.71 Q 57.41 24.50 56.57 23.97 Q 56.57 23.97 55.67 23.41 Q 55.67 23.41 55.26 23.18 Z M 54.46 25.68 L 55.16 24.84 Q 55.54 25.01 56.48 25.46 Q 56.48 25.46 57.35 25.92 Q 57.35 25.92 57.64 26.11 L 56.93 27.05 Q 56.65 26.86 55.81 26.39 Q 55.81 26.39 54.87 25.88 Q 54.87 25.88 54.46 25.68 Z M 72.30 21.34 L 73.24 20.98 Q 73.48 21.34 73.94 22.21 Q 73.94 22.21 74.03 22.52 L 73.34 22.80 L 74.33 23.05 Q 74.26 23.26 74.14 23.48 L 79.41 23.48 L 79.41 24.52 L 76.32 24.52 L 76.32 25.96 L 79.87 25.96 L 79.87 27.01 L 76.32 27.01 L 76.32 29.58 L 78.15 29.58 L 78.15 27.53 L 79.29 27.53 L 79.29 31.26 L 78.15 31.26 L 78.15 30.62 L 72.08 30.62 L 72.08 27.61 L 73.23 27.61 L 73.23 29.58 L 75.12 29.58 L 75.12 27.01 L 71.60 27.01 L 71.60 25.96 L 75.12 25.96 L 75.12 24.52 L 73.52 24.52 Q 73.04 25.19 72.50 25.65 Q 72.41 25.56 72.09 25.29 Q 72.09 25.29 71.75 25.04 Q 71.75 25.04 71.61 24.97 Q 72.15 24.56 72.58 23.98 Q 72.97 23.45 73.21 22.85 L 73.04 22.93 Q 72.95 22.60 72.52 21.70 Q 72.52 21.70 72.30 21.34 Z M 67.53 25.81 Q 68.25 25.64 69.27 25.34 L 69.27 22.65 L 67.73 22.65 L 67.73 21.48 L 69.27 21.48 L 69.27 18.88 L 70.43 18.88 L 70.43 21.48 L 71.62 21.48 L 71.62 22.65 L 70.43 22.65 L 70.43 25.01 Q 70.95 24.85 71.47 24.69 L 71.62 25.84 Q 71.03 26.03 70.43 26.22 L 70.43 29.73 Q 70.43 30.19 70.21 30.71 Q 70.21 30.71 69.93 30.88 Q 69.68 31.02 68.83 31.12 Q 68.83 31.12 68.19 31.11 Q 68.16 30.88 67.97 30.19 Q 67.97 30.19 67.86 29.94 Q 68.25 29.95 68.92 29.95 Q 68.92 29.95 69.04 29.95 Q 69.16 29.95 69.27 29.85 Q 69.27 29.85 69.27 29.72 L 69.27 26.58 Q 68.49 26.82 67.83 27.02 Z M 78.71 18.98 L 79.42 19.95 Q 78.70 20.13 76.90 20.42 Q 76.90 20.42 74.96 20.64 Q 74.96 20.64 73.00 20.79 Q 73.00 20.79 72.08 20.84 Q 72.05 20.64 71.87 20.06 Q 71.87 20.06 71.77 19.86 Q 72.68 19.81 74.60 19.63 Q 74.60 19.63 76.44 19.43 Q 76.44 19.43 78.08 19.14 Q 78.08 19.14 78.71 18.98 Z M 78.19 20.55 L 79.32 20.97 Q 79.00 21.61 78.32 22.90 Q 78.32 22.90 78.02 23.36 L 77.15 22.97 Q 77.33 22.64 77.72 21.78 Q 77.72 21.78 78.08 20.90 Q 78.08 20.90 78.19 20.55 Z M 74.79 21.06 L 75.72 20.74 Q 75.95 21.17 76.33 22.17 Q 76.33 22.17 76.41 22.53 L 75.41 22.89 Q 75.36 22.53 75.00 21.50 Q 75.00 21.50 74.79 21.06 Z M 82.55 24.53 L 83.60 24.10 Q 84.00 24.52 84.73 25.57 Q 84.73 25.57 84.91 25.97 L 84.18 26.27 L 86.44 26.27 L 86.44 24.05 L 82.28 24.05 L 82.28 19.29 L 91.94 19.29 L 91.94 24.05 L 90.75 24.05 L 91.79 24.53 Q 91.41 25.05 91.00 25.57 Q 90.68 25.97 90.40 26.27 L 93.00 26.27 L 93.00 27.41 L 89.20 27.41 L 89.20 29.59 Q 89.20 29.85 89.42 30.00 Q 89.42 30.00 89.84 30.00 L 91.56 30.00 Q 91.80 30.00 92.04 29.81 Q 92.04 29.81 92.13 29.21 Q 92.13 29.21 92.16 28.62 Q 92.30 28.72 92.69 28.90 Q 92.69 28.90 93.14 29.03 Q 93.14 29.03 93.30 29.09 Q 93.23 29.90 92.89 30.78 Q 92.89 30.78 92.24 31.13 Q 92.24 31.13 91.68 31.13 L 89.68 31.13 Q 88.98 31.13 88.20 30.85 Q 88.20 30.85 87.92 30.18 Q 87.92 30.18 87.92 29.61 L 87.92 27.41 L 86.01 27.41 Q 85.90 28.10 85.67 28.68 Q 85.40 29.31 84.42 30.29 Q 84.42 30.29 82.81 31.01 Q 82.81 31.01 81.57 31.25 Q 81.52 31.09 81.29 30.69 Q 81.29 30.69 81.03 30.30 Q 81.03 30.30 80.91 30.17 Q 82.00 30.00 83.42 29.48 Q 83.42 29.48 84.23 28.77 Q 84.23 28.77 84.44 28.32 Q 84.63 27.90 84.72 27.41 L 81.27 27.41 L 81.27 26.27 L 83.70 26.27 Q 83.55 25.93 83.27 25.50 Q 82.92 24.97 82.55 24.53 Z M 83.51 22.11 L 83.51 23.09 L 90.68 23.09 L 90.68 22.11 Z M 83.51 20.25 L 83.51 21.21 L 90.68 21.21 L 90.68 20.25 Z M 89.81 26.27 L 89.23 25.99 Q 89.45 25.73 89.98 25.04 Q 89.98 25.04 90.23 24.66 Q 90.45 24.33 90.62 24.05 L 87.71 24.05 L 87.71 26.27 Z" xml:space="preserve" style="font-weight:613;font-size:13.3333px;line-height:1.2;font-family:'Dream Han Sans SC';-inkscape-font-specification:'Dream Han Sans SC weight=613';text-align:start;writing-mode:lr-tb;direction:ltr;text-anchor:start;fill:#dbe9ff;fill-opacity:1;stroke-width:1" id="text24" data-original-text="请注意防范摇晃" data-original-element="text"/>
</svg>