<?xml version="1.0" ?>
<svg xmlns="http://www.w3.org/2000/svg" xmlns:ns1="http://sodipodi.sourceforge.net/DTD/sodipodi-0.dtd" xmlns:ns2="http://www.inkscape.org/namespaces/inkscape" viewBox="0 0 224 64" version="1.1" height="64" width="224" id="svg10" ns1:docname="136bc5c7d8aa5635c3166ded3b4afb37.svg" ns2:version="1.4.2 (f4327f4, 2025-05-13)">
  <defs id="defs10"/>
  <ns1:namedview id="namedview10" pagecolor="#505050" bordercolor="#eeeeee" borderopacity="1" ns2:showpageshadow="0" ns2:pageopacity="0" ns2:pagecheckerboard="0" ns2:deskcolor="#505050" ns2:zoom="4" ns2:cx="97.875" ns2:cy="27.875" ns2:window-width="1920" ns2:window-height="945" ns2:window-x="-9" ns2:window-y="40" ns2:window-maximized="1" ns2:current-layer="svg10"/>
  <path stop-color="#000000" fill-rule="evenodd" fill="#c125ed" d="m46 31h158c5.54 0 10 4.46 10 10v7c0 5.54-4.46 10-10 10h-158c-5.54 0-10-4.46-10-10v-7c0-5.54 4.46-10 10-10z" id="path1"/>
  <g aria-label=":" fill="#fff" id="g6">
    <path fill="#fff" d="m124.99 49.297q-0.4 0-0.672-0.272t-0.272-0.672 0.272-0.672q0.272-0.288 0.672-0.288t0.672 0.288q0.288 0.272 0.288 0.672t-0.288 0.672q-0.272 0.272-0.672 0.272zm0.016-5.136q-0.4 0-0.672-0.272t-0.272-0.672 0.272-0.672q0.272-0.288 0.672-0.288t0.672 0.288q0.288 0.272 0.288 0.672t-0.288 0.672q-0.272 0.272-0.672 0.272z" id="path6"/>
  </g>
  <g stroke-width="1.3" stroke="#fff" fill="none" transform="translate(765 1716.6)" id="g10">
    <path d="m-567-1677 4-3 4 3" id="path7"/>
    <path d="m-567-1673 4-3 4 3" id="path8"/>
    <path d="m-567-1669 4-3 4 3" id="path9"/>
    <path d="m-567-1665 4-3 4 3" id="path10"/>
  </g>
  <text xml:space="preserve" style="font-weight:613;font-size:13.3333px;line-height:1.2;font-family:'Dream Han Sans SC';-inkscape-font-specification:'Dream Han Sans SC weight=613';text-align:start;writing-mode:lr-tb;direction:ltr;text-anchor:start;fill:#dbe9ff" x="42.576424" y="51.546532" id="text10">
    <tspan ns1:role="line" id="tspan10"/>
  </text>
  <path d="M 0.0 0.0 L 224.0 0.0 L 224.0 64.0 L 0.0 64.0 Z" stop-color="#000000" fill-rule="evenodd" fill="none" id="rect1" data-original-element="rect"/>
  <path d="M 43.43 43.33 L 53.07 43.33 L 53.07 44.14 L 48.01 44.14 L 48.01 47.25 Q 48.27 47.22 48.54 47.19 L 48.55 48.00 Q 48.27 48.03 48.01 48.06 L 48.01 49.15 L 47.03 49.15 L 47.03 48.18 Q 46.89 48.20 46.75 48.21 Q 45.84 48.32 44.17 48.51 Q 44.17 48.51 43.50 48.58 L 43.41 47.71 Q 43.87 47.67 44.41 47.61 L 44.41 44.14 L 43.43 44.14 Z M 44.76 39.59 L 51.78 39.59 L 51.78 42.82 L 44.76 42.82 Z M 48.39 44.69 L 52.09 44.69 L 52.26 44.66 L 52.84 44.90 Q 52.51 45.98 51.90 46.82 Q 51.63 47.17 51.33 47.47 Q 52.18 48.05 53.27 48.32 Q 53.10 48.46 52.76 48.93 Q 52.76 48.93 52.66 49.11 Q 51.52 48.77 50.64 48.09 Q 50.55 48.15 50.48 48.21 Q 49.67 48.78 48.75 49.12 Q 48.68 48.96 48.38 48.52 Q 48.38 48.52 48.24 48.39 Q 49.06 48.13 49.81 47.63 Q 49.90 47.56 49.99 47.50 Q 49.21 46.69 48.75 45.59 L 49.09 45.49 L 48.39 45.49 Z M 45.72 41.53 L 45.72 42.14 L 50.78 42.14 L 50.78 41.53 Z M 45.72 40.28 L 45.72 40.88 L 50.78 40.88 L 50.78 40.28 Z M 50.65 46.93 Q 50.90 46.70 51.11 46.42 Q 51.45 45.99 51.67 45.49 L 49.62 45.49 Q 49.99 46.30 50.65 46.93 Z M 47.03 47.35 L 47.03 46.79 L 45.33 46.79 L 45.33 47.53 Q 45.98 47.46 46.68 47.39 Q 46.87 47.37 47.03 47.35 Z M 47.03 46.08 L 47.03 45.46 L 45.33 45.46 L 45.33 46.08 Z M 47.03 44.73 L 47.03 44.14 L 45.33 44.14 L 45.33 44.73 Z M 54.55 44.43 L 63.31 44.43 L 63.31 48.16 Q 63.31 48.51 63.12 48.85 Q 63.12 48.85 62.85 48.95 Q 62.61 49.04 61.85 49.08 Q 61.85 49.08 61.31 49.07 Q 61.28 48.90 61.09 48.48 Q 61.09 48.48 61.00 48.32 Q 61.22 48.33 61.69 48.34 Q 61.69 48.34 62.04 48.34 Q 62.04 48.34 62.10 48.34 Q 62.30 48.33 62.30 48.16 L 62.30 45.26 L 55.54 45.26 L 55.54 49.15 L 54.55 49.15 Z M 55.74 41.69 L 62.21 41.69 L 62.21 43.90 L 55.74 43.90 Z M 56.57 45.79 L 61.15 45.79 L 61.15 48.06 L 57.51 48.06 L 57.51 48.55 L 56.57 48.55 Z M 54.20 40.31 L 58.48 40.31 Q 58.46 40.27 58.45 40.21 Q 58.31 39.80 58.19 39.43 L 59.19 39.20 Q 59.34 39.53 59.50 39.95 Q 59.57 40.15 59.62 40.31 L 63.61 40.31 L 63.61 41.17 L 54.20 41.17 Z M 56.74 42.40 L 56.74 43.20 L 61.16 43.20 L 61.16 42.40 Z M 57.51 46.51 L 57.51 47.35 L 60.26 47.35 L 60.26 46.51 Z M 70.55 39.24 L 71.55 39.24 L 71.55 40.73 L 73.63 40.73 L 73.80 40.69 L 74.53 40.88 Q 74.34 41.47 73.86 42.69 Q 73.86 42.69 73.64 43.10 L 72.77 42.85 Q 72.95 42.47 73.15 41.92 Q 73.19 41.79 73.23 41.67 L 71.55 41.67 L 71.55 43.38 L 73.00 43.38 L 73.19 43.35 L 73.81 43.63 Q 73.43 45.10 72.72 46.20 Q 72.42 46.65 72.08 47.03 Q 72.29 47.20 72.52 47.35 Q 73.44 47.97 74.61 48.29 Q 74.49 48.40 74.25 48.69 Q 74.25 48.69 74.02 49.01 Q 74.02 49.01 73.95 49.15 Q 72.46 48.67 71.39 47.73 Q 71.21 47.88 71.03 48.02 Q 70.07 48.76 68.93 49.17 Q 68.88 49.06 68.65 48.72 Q 68.65 48.72 68.40 48.43 Q 68.40 48.43 68.29 48.33 Q 69.39 47.97 70.30 47.34 Q 70.50 47.19 70.69 47.04 Q 69.67 45.86 69.08 44.28 L 68.96 44.28 Q 68.95 44.54 68.93 44.83 Q 68.89 45.57 68.60 47.10 Q 68.60 47.10 68.07 48.54 Q 68.07 48.54 67.63 49.14 Q 67.55 49.06 67.24 48.85 Q 67.24 48.85 66.91 48.68 Q 66.91 48.68 66.78 48.64 Q 67.20 48.07 67.69 46.76 Q 67.69 46.76 67.95 45.36 Q 67.95 45.36 68.02 44.03 Q 68.02 44.03 68.02 43.44 L 68.02 40.73 L 70.55 40.73 Z M 64.86 48.42 Q 65.12 48.00 65.72 46.87 Q 65.72 46.87 66.34 45.59 Q 66.34 45.59 66.61 44.98 L 67.40 45.59 Q 67.16 46.16 66.60 47.35 Q 66.60 47.35 66.02 48.51 Q 66.02 48.51 65.75 49.02 Z M 71.38 46.38 Q 71.63 46.09 71.84 45.77 Q 72.30 45.11 72.59 44.28 L 70.04 44.28 Q 70.40 45.13 70.94 45.85 Q 71.14 46.12 71.38 46.38 Z M 68.99 43.38 L 70.55 43.38 L 70.55 41.67 L 68.99 41.67 Z M 64.62 42.95 L 65.18 42.21 Q 65.49 42.34 66.22 42.72 Q 66.22 42.72 66.89 43.10 Q 66.89 43.10 67.10 43.27 L 66.51 44.09 Q 66.32 43.93 65.66 43.52 Q 65.66 43.52 64.93 43.11 Q 64.93 43.11 64.62 42.95 Z M 65.22 40.06 L 65.79 39.34 Q 66.09 39.49 66.81 39.88 Q 66.81 39.88 67.46 40.29 Q 67.46 40.29 67.66 40.45 L 67.08 41.27 Q 66.88 41.09 66.24 40.66 Q 66.24 40.66 65.53 40.22 Q 65.53 40.22 65.22 40.06 Z" xml:space="preserve" style="font-weight:613;font-size:10.6667px;line-height:1.2;font-family:'Dream Han Sans SC';-inkscape-font-specification:'Dream Han Sans SC weight=613';text-align:start;writing-mode:lr-tb;direction:ltr;text-anchor:start;fill:#ffffff;fill-opacity:1" id="text11" data-original-text="最高波" data-original-element="text"/>
  <path d="M 97.22 40.18 L 105.30 40.18 L 105.30 50.36 L 104.10 50.36 L 104.10 49.62 L 98.39 49.62 L 98.39 50.41 L 97.22 50.41 Z M 104.10 48.48 L 104.10 45.40 L 98.39 45.40 L 98.39 48.48 Z M 104.10 44.28 L 104.10 41.32 L 98.39 41.32 L 98.39 44.28 Z" xml:space="preserve" style="font-weight:613;font-size:12px;line-height:1.2;font-family:'Dream Han Sans SC';-inkscape-font-specification:'Dream Han Sans SC weight=613';text-align:start;writing-mode:lr-tb;direction:ltr;text-anchor:start;fill:#ffffff;fill-opacity:1" id="text12" data-original-text="日" data-original-element="text"/>
</svg>