<?xml version="1.0" ?>
<svg xmlns="http://www.w3.org/2000/svg" xmlns:ns1="http://sodipodi.sourceforge.net/DTD/sodipodi-0.dtd" xmlns:ns2="http://www.inkscape.org/namespaces/inkscape" viewBox="0 0 120 60" version="1.1" height="60" width="120" id="svg5" ns1:docname="13d8934d82ad02fdd07cab4c30dbdc9d.svg" ns2:version="1.4.2 (f4327f4, 2025-05-13)">
  <defs id="defs5"/>
  <ns1:namedview id="namedview5" pagecolor="#505050" bordercolor="#eeeeee" borderopacity="1" ns2:showpageshadow="0" ns2:pageopacity="0" ns2:pagecheckerboard="0" ns2:deskcolor="#505050" ns2:zoom="12.183333" ns2:cx="59.95896" ns2:cy="30" ns2:window-width="1920" ns2:window-height="945" ns2:window-x="-9" ns2:window-y="40" ns2:window-maximized="1" ns2:current-layer="svg5"/>
  <g aria-label="10回/秒" fill="#fff" id="g5">
    <path d="m64.074 24.427v-9.6592q-1.4492 0.48535-2.7344 0.71777l-0.33496-1.3877q2.167-0.52637 3.5547-1.2168h1.3125v11.546z" id="path1"/>
    <path d="m74.164 12.806q2.1533 0 3.3359 1.8662 0.99121 1.5586 0.99121 4.1084 0 2.3311-0.84082 3.8418-1.1689 2.1123-3.5068 2.1123-2.0986 0-3.2744-1.75-1.0596-1.5723-1.0596-4.2041 0-2.7344 1.1348-4.3271 1.1758-1.6475 3.2197-1.6475zm-0.02051 1.4697q-1.1074 0-1.75 1.2168-0.62207 1.1895-0.62207 3.2881 0 1.9619 0.56738 3.1309 0.64941 1.3262 1.8184 1.3262 1.0254 0 1.6611-1.0664 0.71094-1.1963 0.71094-3.3906 0-2.085-0.61524-3.2744-0.64258-1.2305-1.7705-1.2305z" id="path2"/>
    <path d="m99.129 12.149 0.84082 0.37598-5.1543 12.838-0.84082-0.37598z" id="path4"/>
  </g>
  <path d="M 0.0 0.0 L 120.0 0.0 L 120.0 60.0 L 0.0 60.0 Z" style="paint-order:stroke markers fill" stop-color="#000000" opacity=".80769" fill="none" id="rect1" data-original-element="rect"/>
  <path d="M 87.26 16.83 L 88.60 16.83 L 88.60 17.70 Q 88.60 18.12 88.57 18.60 Q 88.83 19.71 89.25 20.66 Q 89.77 21.84 91.46 23.58 Q 91.46 23.58 92.69 24.02 Q 92.56 24.14 92.22 24.55 Q 92.22 24.55 91.93 24.96 Q 91.93 24.96 91.83 25.14 Q 90.53 24.58 88.78 22.61 Q 88.78 22.61 88.23 21.24 Q 88.17 21.08 88.10 20.93 Q 87.86 21.63 87.43 22.33 Q 86.93 23.13 85.24 24.67 Q 85.24 24.67 83.97 25.31 Q 83.88 25.16 83.53 24.79 Q 83.53 24.79 83.15 24.43 Q 83.15 24.43 83.00 24.32 Q 84.18 23.75 85.73 22.39 Q 85.73 22.39 86.66 20.96 Q 86.66 20.96 87.11 19.54 Q 87.11 19.54 87.26 18.22 Q 87.26 18.22 87.26 17.67 Z M 85.73 12.85 L 87.09 13.09 Q 86.88 14.10 86.58 15.04 L 91.16 15.04 L 91.40 14.98 L 92.33 15.50 Q 92.16 16.16 91.68 17.53 Q 91.68 17.53 91.17 18.76 Q 91.17 18.76 90.93 19.24 Q 90.80 19.16 90.39 18.98 Q 90.39 18.98 90.01 18.78 Q 90.01 18.78 89.85 18.71 Q 90.06 18.30 90.50 17.12 Q 90.50 17.12 90.69 16.50 Q 90.71 16.39 90.74 16.30 L 86.16 16.30 Q 85.93 16.88 85.67 17.43 Q 85.24 18.39 84.72 19.10 Q 84.58 18.99 84.13 18.73 Q 84.13 18.73 83.66 18.47 Q 83.66 18.47 83.49 18.39 Q 84.02 17.74 84.87 15.98 Q 84.87 15.98 85.54 13.92 Q 85.54 13.92 85.73 12.85 Z M 80.26 23.08 Q 80.65 22.59 81.58 21.23 Q 81.58 21.23 82.56 19.71 Q 82.56 19.71 82.99 18.96 L 83.97 19.79 Q 83.58 20.48 82.73 21.92 Q 82.73 21.92 81.85 23.32 Q 81.85 23.32 81.42 23.95 Z M 80.45 14.67 L 81.21 13.76 Q 81.66 14.01 82.67 14.62 Q 82.67 14.62 83.58 15.26 Q 83.58 15.26 83.86 15.54 L 83.06 16.58 Q 82.80 16.30 81.92 15.60 Q 81.92 15.60 80.92 14.92 Q 80.92 14.92 80.45 14.67 Z" xml:space="preserve" style="font-weight:613;font-size:13.3333px;line-height:1.2;font-family:'Dream Han Sans SC';-inkscape-font-specification:'Dream Han Sans SC weight=613';text-align:start;writing-mode:lr-tb;direction:ltr;text-anchor:start;fill:#ffffff" id="text5" data-original-text="次" data-original-element="text"/>
  <path d="M 101.35 16.78 L 103.49 16.78 L 103.49 14.97 Q 103.44 14.99 103.42 14.99 Q 102.58 15.14 101.81 15.24 Q 101.77 15.04 101.57 14.47 Q 101.57 14.47 101.46 14.27 Q 102.22 14.15 103.79 13.81 Q 103.79 13.81 105.22 13.40 Q 105.22 13.40 105.74 13.18 L 106.47 14.21 Q 105.83 14.45 105.04 14.64 Q 104.87 14.68 104.71 14.73 L 104.71 16.78 L 106.49 16.78 L 106.49 17.96 L 104.71 17.96 L 104.71 18.19 Q 104.83 18.33 105.04 18.56 Q 105.30 18.85 105.88 19.55 Q 105.88 19.55 106.35 20.14 Q 106.35 20.14 106.44 20.27 L 105.71 21.26 Q 105.59 21.01 105.18 20.31 Q 105.18 20.31 104.94 19.92 Q 104.82 19.74 104.71 19.56 L 104.71 25.39 L 103.49 25.39 L 103.49 19.96 Q 103.36 20.27 103.23 20.57 Q 102.89 21.31 102.17 22.62 Q 102.17 22.62 101.79 23.09 Q 101.68 22.82 101.33 22.13 Q 101.33 22.13 101.18 21.91 Q 101.52 21.51 102.22 20.40 Q 102.22 20.40 102.86 19.13 Q 102.86 19.13 103.12 18.48 Q 103.23 18.22 103.32 17.96 L 101.35 17.96 Z M 111.95 19.58 L 113.12 19.92 Q 112.59 21.43 110.73 23.55 Q 110.73 23.55 108.06 24.93 Q 108.06 24.93 106.29 25.36 Q 106.18 25.10 105.80 24.43 Q 105.80 24.43 105.60 24.23 Q 107.26 23.91 109.74 22.73 Q 109.74 22.73 111.46 20.90 Q 111.46 20.90 111.95 19.58 Z M 109.20 13.03 L 110.40 13.03 L 110.40 21.28 L 109.20 21.28 Z M 107.31 15.30 L 108.47 15.51 Q 108.36 16.28 108.03 17.84 Q 108.03 17.84 107.63 19.24 Q 107.63 19.24 107.41 19.78 Q 107.28 19.69 106.89 19.50 Q 106.89 19.50 106.48 19.31 Q 106.48 19.31 106.34 19.26 Q 106.57 18.75 106.94 17.45 Q 106.94 17.45 107.22 16.00 Q 107.22 16.00 107.31 15.30 Z M 111.10 15.43 L 112.19 15.07 Q 112.51 15.64 113.08 16.95 Q 113.08 16.95 113.54 18.20 Q 113.54 18.20 113.66 18.71 L 112.50 19.12 Q 112.39 18.62 111.96 17.34 Q 111.96 17.34 111.40 16.00 Q 111.40 16.00 111.10 15.43 Z" xml:space="preserve" style="font-weight:613;font-size:13.3331px;line-height:1.2;font-family:'Dream Han Sans SC';-inkscape-font-specification:'Dream Han Sans SC weight=613';text-align:start;writing-mode:lr-tb;direction:ltr;text-anchor:start;fill:#ffffff;stroke-width:0.999982" id="text6" transform="scale(0.9999825,1.0000175)" data-original-text="秒" data-original-element="text"/>
</svg>