<?xml version="1.0" ?>
<svg xmlns="http://www.w3.org/2000/svg" xmlns:ns1="http://sodipodi.sourceforge.net/DTD/sodipodi-0.dtd" xmlns:ns2="http://www.inkscape.org/namespaces/inkscape" viewBox="0 0 224 76" version="1.1" height="76" width="224" id="svg7" ns1:docname="15542bc7362bae62cdd0c55161fd7f22.svg" ns2:version="1.4.2 (f4327f4, 2025-05-13)">
  <defs id="defs7"/>
  <ns1:namedview id="namedview7" pagecolor="#505050" bordercolor="#eeeeee" borderopacity="1" ns2:showpageshadow="0" ns2:pageopacity="0" ns2:pagecheckerboard="0" ns2:deskcolor="#505050" ns2:zoom="5.5968764" ns2:cx="171.61358" ns2:cy="30.642091" ns2:window-width="1920" ns2:window-height="945" ns2:window-x="-9" ns2:window-y="40" ns2:window-maximized="1" ns2:current-layer="g6"/>
  <g transform="translate(-440.94 12.43)" id="g7">
    <g shape-rendering="auto" fill-rule="evenodd" transform="translate(-3.2808 -.000744)" id="g2">
      <path style="font-feature-settings:normal;font-variant-alternates:normal;font-variant-caps:normal;font-variant-east-asian:normal;font-variant-ligatures:normal;font-variant-numeric:normal;font-variant-position:normal;font-variation-settings:normal;inline-size:0;isolation:auto;mix-blend-mode:normal;paint-order:stroke markers fill;shape-margin:0;shape-padding:0;text-decoration-color:#000000;text-decoration-line:none;text-decoration-style:solid;text-indent:0;text-orientation:mixed;text-transform:none;white-space:normal" stop-color="#000000" image-rendering="auto" fill="#7d97b4" color-rendering="auto" color="#000000" d="m558.22 10.57c-8.8294 1e-6 -16 7.1706-16 16 0 8.8294 7.1706 16 16 16h86c8.8294 0 16-7.1706 16-16 0-8.8294-7.1706-16-16-16z" id="path1"/>
      <path style="font-feature-settings:normal;font-variant-alternates:normal;font-variant-caps:normal;font-variant-east-asian:normal;font-variant-ligatures:normal;font-variant-numeric:normal;font-variant-position:normal;font-variation-settings:normal;inline-size:0;isolation:auto;mix-blend-mode:normal;paint-order:stroke markers fill;shape-margin:0;shape-padding:0;text-decoration-color:#000000;text-decoration-line:none;text-decoration-style:solid;text-indent:0;text-orientation:mixed;text-transform:none;white-space:normal" stop-color="#000000" image-rendering="auto" fill="#31476d" color-rendering="auto" color="#000000" d="m558.22 12.57h86c7.756 0 14 6.244 14 14s-6.244 14-14 14h-86c-7.756 0-14-6.244-14-14s6.244-14 14-14z" id="path2"/>
    </g>
    <path style="font-feature-settings:normal;font-variant-alternates:normal;font-variant-caps:normal;font-variant-east-asian:normal;font-variant-ligatures:normal;font-variant-numeric:normal;font-variant-position:normal;font-variation-settings:normal;inline-size:0;isolation:auto;mix-blend-mode:normal;paint-order:normal;shape-margin:0;shape-padding:0;text-decoration-color:#000000;text-decoration-line:none;text-decoration-style:solid;text-indent:0;text-orientation:mixed;text-transform:none;white-space:normal" stop-color="#000000" shape-rendering="auto" opacity=".988" image-rendering="auto" fill-rule="evenodd" fill="#fff" color-rendering="auto" color="#000000" d="m639.91 20.569a1.0001 1.0001 0 0 1 1.0234 1v10a1.0001 1.0001 0 0 1-1.6406 0.76758l-6-5a1.0001 1.0001 0 0 1 0-1.5371l6-5a1.0001 1.0001 0 0 1 0.61719-0.23047z" id="path3"/>
    <g aria-label="やめる" fill="#fff" transform="translate(-1.6684 -40)" id="g6">
      <path d="M 584.81 63.11 L 591.25 63.11 L 591.25 65.79 L 584.81 65.79 Z M 582.90 60.34 L 584.05 60.71 Q 583.64 61.83 583.09 62.95 Q 582.90 63.35 582.70 63.72 L 582.70 72.67 L 581.54 72.67 L 581.54 65.61 Q 581.09 66.27 580.60 66.80 Q 580.54 66.65 580.30 66.18 Q 580.30 66.18 580.04 65.68 Q 580.04 65.68 579.91 65.52 Q 580.51 64.90 581.62 63.22 Q 581.62 63.22 582.57 61.32 Q 582.57 61.32 582.90 60.34 Z M 584.91 68.38 L 591.02 68.38 L 591.02 69.39 L 588.66 69.39 L 588.66 71.37 Q 588.66 71.83 588.42 72.35 Q 588.42 72.35 588.05 72.48 Q 587.68 72.59 586.59 72.63 Q 586.59 72.63 585.82 72.63 Q 585.78 72.39 585.57 71.78 Q 585.57 71.78 585.43 71.54 Q 585.81 71.55 586.50 71.56 Q 586.50 71.56 587.03 71.55 Q 587.03 71.55 587.12 71.55 Q 587.29 71.55 587.39 71.46 Q 587.39 71.46 587.39 71.33 L 587.39 69.39 L 584.91 69.39 Z M 583.65 66.50 L 592.31 66.50 L 592.31 68.78 L 591.18 68.78 L 591.18 67.51 L 584.74 67.51 L 584.74 68.78 L 583.65 68.78 Z M 583.90 61.43 L 587.48 61.43 Q 587.44 61.37 587.42 61.32 Q 587.24 60.90 587.03 60.55 L 588.18 60.22 Q 588.41 60.56 588.61 60.98 Q 588.74 61.22 588.82 61.43 L 592.27 61.43 L 592.27 62.48 L 583.90 62.48 Z M 585.95 63.98 L 585.95 64.92 L 590.04 64.92 L 590.04 63.98 Z M 593.49 70.76 L 595.29 70.76 L 595.29 63.18 L 596.58 63.18 L 596.58 70.76 L 599.40 70.76 L 599.40 60.34 L 600.74 60.34 L 600.74 64.66 L 604.94 64.66 L 604.94 65.92 L 600.74 65.92 L 600.74 70.76 L 605.59 70.76 L 605.59 72.02 L 593.49 72.02 Z" xml:space="preserve" style="font-weight:613;font-size:13.3333px;line-height:1.2;font-family:'Dream Han Sans SC';-inkscape-font-specification:'Dream Han Sans SC weight=613';text-align:start;writing-mode:lr-tb;direction:ltr;text-anchor:start;fill:#ffffff" id="text7" data-original-text="停止" data-original-element="text"/>
    </g>
    <path d="M 440.94 -12.43 L 664.94 -12.43 L 664.94 63.57 L 440.94 63.57 Z" stroke-linejoin="round" stroke-linecap="round" stop-color="#000000" fill="none" id="rect1" data-original-element="rect"/>
  </g>
</svg>