<?xml version="1.0" ?>
<svg xmlns="http://www.w3.org/2000/svg" xmlns:ns1="http://sodipodi.sourceforge.net/DTD/sodipodi-0.dtd" xmlns:ns2="http://www.inkscape.org/namespaces/inkscape" xml:space="preserve" viewBox="0 0 208 80" version="1.1" height="80" width="208" id="svg1" ns1:docname="16fa27b6a843e1507e062539ac31e2bf.svg" ns2:version="1.4.2 (f4327f4, 2025-05-13)">
  <defs id="defs1"/>
  <ns1:namedview id="namedview1" pagecolor="#505050" bordercolor="#eeeeee" borderopacity="1" ns2:showpageshadow="0" ns2:pageopacity="0" ns2:pagecheckerboard="0" ns2:deskcolor="#505050" ns2:zoom="8.5240385" ns2:cx="104" ns2:cy="39.945854" ns2:window-width="1920" ns2:window-height="945" ns2:window-x="-9" ns2:window-y="40" ns2:window-maximized="1" ns2:current-layer="svg1"/>
  <text xml:space="preserve" style="font-weight:613;font-size:16px;line-height:1.2;font-family:'Dream Han Sans SC';-inkscape-font-specification:'Dream Han Sans SC weight=613';text-align:start;writing-mode:lr-tb;direction:ltr;text-anchor:start;fill:#ffffff" x="30.384659" y="53.026508" id="text1">
    <tspan ns1:role="line" id="tspan1"/>
  </text>
  <path d="M 0.0 0.0 L 208.0 0.0 L 208.0 80.0 L 0.0 80.0 Z" stop-color="#000000" fill-opacity="0" id="rect1" data-original-element="rect"/>
  <path d="M 31.09 38.68 L 40.48 38.68 L 40.48 35.02 L 32.84 35.02 L 32.84 32.75 L 40.48 32.75 L 40.48 28.96 L 42.87 28.96 L 42.87 32.75 L 50.70 32.75 L 50.70 35.02 L 42.87 35.02 L 42.87 38.68 L 52.39 38.68 L 52.39 40.93 L 44.05 40.93 Q 44.55 41.64 45.20 42.33 Q 46.28 43.53 48.84 45.71 Q 48.84 45.71 51.61 47.46 Q 51.61 47.46 53.00 48.09 Q 52.73 48.30 52.11 49.01 Q 52.11 49.01 51.54 49.72 Q 51.54 49.72 51.34 50.04 Q 49.96 49.31 47.17 47.30 Q 47.17 47.30 44.58 44.85 Q 44.58 44.85 43.45 43.51 Q 43.16 43.12 42.87 42.76 L 42.87 51.23 L 40.48 51.23 L 40.48 42.88 Q 40.23 43.19 39.94 43.53 Q 38.81 44.87 36.22 47.30 Q 36.22 47.30 33.43 49.29 Q 33.43 49.29 32.03 50.04 Q 31.83 49.72 31.25 49.01 Q 31.25 49.01 30.63 48.30 Q 30.63 48.30 30.36 48.09 Q 31.76 47.46 34.52 45.69 Q 34.52 45.69 37.09 43.56 Q 37.09 43.56 38.17 42.35 Q 38.77 41.64 39.29 40.93 L 31.09 40.93 Z M 54.89 30.78 L 61.80 30.78 L 62.21 30.69 L 63.66 31.15 Q 63.18 35.54 62.14 39.16 Q 61.76 40.53 61.30 41.75 Q 61.92 42.78 62.46 43.77 Q 63.20 45.19 63.66 46.36 L 61.76 47.73 Q 61.35 46.56 60.61 45.12 Q 60.41 44.75 60.20 44.34 Q 59.88 45.02 59.55 45.62 Q 58.02 48.42 56.03 50.34 Q 55.83 50.06 55.25 49.41 Q 55.25 49.41 54.63 48.81 Q 54.63 48.81 54.34 48.62 Q 55.69 47.41 56.84 45.64 Q 57.91 43.96 58.80 41.87 Q 57.94 40.43 56.99 39.02 Q 55.98 37.49 54.94 36.14 L 56.65 34.99 Q 57.66 36.30 58.71 37.82 Q 59.24 38.57 59.74 39.33 Q 60.15 38.06 60.49 36.71 Q 60.94 34.89 61.23 32.94 L 54.89 32.94 Z M 68.93 33.88 L 71.07 33.88 L 71.07 38.16 Q 71.07 39.71 70.78 41.46 Q 70.69 42.07 70.55 42.67 L 72.11 42.67 L 72.11 48.28 Q 72.11 48.78 72.41 49.12 Q 72.41 49.12 72.82 49.12 L 74.26 49.12 Q 74.62 49.12 74.99 48.53 Q 74.99 48.53 75.15 46.79 Q 75.15 46.79 75.18 45.16 Q 75.59 45.48 76.59 45.90 Q 76.59 45.90 77.00 46.01 Q 76.87 47.87 76.45 49.99 Q 76.45 49.99 75.36 50.80 Q 75.36 50.80 74.24 50.80 L 72.43 50.80 Q 71.14 50.80 70.02 49.86 Q 70.02 49.86 70.02 48.53 L 70.02 44.30 Q 69.87 44.66 69.70 45.02 Q 68.93 46.77 65.96 49.96 Q 65.96 49.96 63.59 51.21 Q 63.47 51.00 62.93 50.34 Q 62.93 50.34 62.38 49.75 Q 62.38 49.75 62.14 49.58 Q 64.42 48.42 67.14 45.57 Q 67.14 45.57 68.51 42.55 Q 68.51 42.55 68.93 39.50 Q 68.93 39.50 68.93 38.11 Z M 64.66 30.09 L 75.63 30.09 L 75.63 42.86 L 73.42 42.86 L 73.42 32.09 L 66.80 32.09 L 66.80 42.86 L 64.66 42.86 Z M 89.33 47.16 L 90.73 46.31 Q 91.30 46.89 92.55 48.26 Q 92.55 48.26 93.63 49.58 Q 93.63 49.58 93.94 50.11 L 92.48 51.07 Q 92.19 50.54 91.14 49.17 Q 91.14 49.17 89.91 47.73 Q 89.91 47.73 89.33 47.16 Z M 85.11 30.30 L 93.41 30.30 L 93.41 45.57 L 91.62 45.57 L 91.62 31.96 L 86.84 31.96 L 86.84 45.67 L 85.11 45.67 Z M 98.28 29.30 L 100.11 29.30 L 100.11 48.78 Q 100.11 49.63 99.68 50.54 Q 99.68 50.54 99.20 50.78 Q 98.70 51.02 97.00 51.16 Q 97.00 51.16 95.70 51.16 Q 95.65 50.78 95.28 49.68 Q 95.28 49.68 95.10 49.27 Q 96.03 49.29 97.55 49.29 Q 97.55 49.29 97.80 49.29 Q 98.28 49.29 98.28 48.81 Z M 95.00 31.15 L 96.75 31.15 L 96.75 45.69 L 95.00 45.69 Z M 88.30 33.53 L 89.99 33.53 L 89.99 42.33 Q 89.99 43.53 89.62 46.01 Q 89.62 46.01 88.59 48.37 Q 88.59 48.37 86.60 50.41 Q 86.60 50.41 85.00 51.21 Q 84.89 51.02 84.52 50.50 Q 84.52 50.50 84.11 49.96 Q 84.11 49.96 83.96 49.82 Q 85.42 49.12 87.15 47.39 Q 87.15 47.39 88.02 45.42 Q 88.02 45.42 88.30 43.36 Q 88.30 43.36 88.30 42.30 Z M 79.50 30.83 L 80.84 29.20 Q 81.49 29.52 82.98 30.37 Q 82.98 30.37 84.36 31.24 Q 84.36 31.24 84.80 31.63 L 83.40 33.44 Q 83.00 33.07 81.66 32.13 Q 81.66 32.13 80.17 31.19 Q 80.17 31.19 79.50 30.83 Z M 78.49 37.27 L 79.78 35.64 Q 80.46 35.98 81.94 36.78 Q 81.94 36.78 83.33 37.63 Q 83.33 37.63 83.79 37.99 L 82.45 39.78 Q 82.02 39.42 80.65 38.54 Q 80.65 38.54 79.16 37.63 Q 79.16 37.63 78.49 37.27 Z M 78.94 49.77 Q 79.42 48.83 80.53 46.29 Q 80.53 46.29 81.68 43.43 Q 81.68 43.43 82.16 42.07 L 83.99 43.27 Q 83.55 44.52 82.55 47.20 Q 82.55 47.20 81.52 49.79 Q 81.52 49.79 81.01 50.94 Z M 103.30 30.48 L 115.73 30.48 L 115.73 32.44 L 109.25 32.44 Q 108.89 33.19 108.43 33.95 Q 107.84 35.02 107.17 35.98 Q 106.98 36.21 106.80 36.48 L 112.14 36.07 Q 112.02 35.85 111.87 35.64 Q 111.20 34.68 110.55 33.83 L 112.16 32.87 Q 112.83 33.67 114.20 35.54 Q 114.20 35.54 115.37 37.34 Q 115.37 37.34 115.71 38.04 L 113.99 39.19 Q 113.72 38.59 113.26 37.82 Q 111.52 37.99 110.21 38.11 Q 108.59 38.25 106.52 38.46 Q 106.52 38.46 105.34 38.61 Q 105.34 38.61 104.74 38.75 Q 104.74 38.75 104.53 38.82 Q 104.48 38.61 104.21 37.84 Q 104.21 37.84 103.96 37.03 Q 103.96 37.03 103.80 36.76 Q 104.07 36.69 104.65 36.12 Q 104.65 36.12 104.96 35.71 Q 105.15 35.41 106.04 33.98 Q 106.04 33.98 106.52 33.00 Q 106.64 32.73 106.78 32.44 L 103.30 32.44 Z M 103.90 41.44 L 108.49 41.44 L 108.49 39.07 L 110.62 39.07 L 110.62 41.44 L 115.23 41.44 L 115.23 43.43 L 110.62 43.43 L 110.62 46.77 Q 110.79 46.75 110.96 46.72 Q 113.21 46.31 115.48 45.90 L 115.62 47.89 Q 113.48 48.28 109.16 49.12 Q 109.16 49.12 105.20 49.86 Q 105.20 49.86 103.57 50.16 L 103.07 48.05 Q 104.62 47.80 106.64 47.46 Q 107.55 47.32 108.49 47.16 L 108.49 43.43 L 103.90 43.43 Z M 121.57 29.30 L 123.77 29.30 L 123.77 48.09 Q 123.77 49.05 123.32 50.09 Q 123.32 50.09 122.72 50.37 Q 122.10 50.61 120.13 50.78 Q 120.13 50.78 118.76 50.78 Q 118.69 50.32 118.21 49.03 Q 118.21 49.03 117.97 48.57 Q 118.98 48.60 120.73 48.62 Q 120.73 48.62 121.04 48.62 Q 121.35 48.62 121.57 48.37 Q 121.57 48.37 121.57 48.07 Z M 116.88 31.10 L 119.00 31.10 L 119.00 45.67 L 116.88 45.67 Z M 128.79 39.40 L 147.66 39.40 L 147.66 40.99 L 130.92 40.99 L 130.92 42.76 Q 130.92 43.45 130.85 44.25 L 148.57 44.25 L 148.57 45.78 L 145.62 45.78 L 147.15 46.58 Q 146.26 47.18 145.25 47.71 Q 144.70 47.98 144.20 48.21 Q 144.49 48.30 144.82 48.40 Q 146.70 48.88 148.98 49.05 Q 148.66 49.36 148.02 50.37 Q 148.02 50.37 147.82 50.80 Q 145.37 50.52 141.47 49.17 Q 141.47 49.17 140.05 48.07 Q 138.80 47.11 137.93 45.78 L 134.70 45.78 L 134.70 48.86 L 139.80 48.14 Q 139.71 48.50 139.62 49.51 Q 139.62 49.51 139.62 49.82 Q 137.33 50.20 134.55 50.68 Q 134.55 50.68 133.07 50.98 Q 133.07 50.98 132.39 51.14 Q 132.39 51.14 132.20 51.23 Q 132.13 50.98 131.79 50.30 Q 131.79 50.30 131.38 49.65 Q 131.38 49.65 131.19 49.43 Q 131.58 49.22 132.49 48.28 Q 132.49 48.28 132.49 47.50 L 132.49 45.78 L 130.69 45.78 Q 130.57 46.45 130.37 47.18 Q 130.07 48.33 128.91 50.50 Q 128.91 50.50 128.00 51.37 Q 127.83 51.16 127.23 50.61 Q 127.23 50.61 126.56 50.06 Q 126.56 50.06 126.32 49.96 Q 127.45 48.88 128.48 46.36 Q 128.48 46.36 128.79 43.82 Q 128.79 43.82 128.79 42.71 Z M 128.86 29.75 L 146.51 29.75 L 146.51 31.41 L 138.73 31.41 L 138.73 32.54 L 148.02 32.54 L 148.02 36.69 L 145.80 36.69 L 145.80 33.93 L 138.73 33.93 L 138.73 38.87 L 136.52 38.87 L 136.52 33.93 L 129.49 33.93 L 129.49 36.69 L 127.37 36.69 L 127.37 32.54 L 136.52 32.54 L 136.52 31.41 L 128.86 31.41 Z M 131.99 41.87 L 146.28 41.87 L 146.28 43.29 L 131.99 43.29 Z M 139.76 37.17 L 145.55 37.17 L 145.55 38.39 L 139.76 38.39 Z M 129.87 37.17 L 135.54 37.17 L 135.54 38.39 L 129.87 38.39 Z M 139.76 34.96 L 144.97 34.96 L 144.97 36.19 L 139.76 36.19 Z M 130.37 34.96 L 135.52 34.96 L 135.52 36.19 L 130.37 36.19 Z M 145.37 45.78 L 140.05 45.78 Q 140.70 46.51 141.61 47.06 Q 142.02 47.32 142.48 47.54 Q 142.83 47.34 143.21 47.13 Q 143.84 46.77 144.43 46.38 Q 144.97 46.05 145.37 45.78 Z M 155.62 42.78 L 169.00 42.78 L 169.39 42.69 L 170.81 43.43 Q 169.80 45.30 168.22 46.63 Q 167.24 47.41 166.14 48.07 Q 166.71 48.23 167.31 48.40 Q 169.90 49.03 172.87 49.27 Q 172.64 49.51 172.14 50.20 Q 172.14 50.20 171.70 50.92 Q 171.70 50.92 171.56 51.23 Q 168.49 50.89 165.84 50.11 Q 164.62 49.75 163.52 49.29 Q 161.96 49.86 160.23 50.27 Q 157.90 50.80 155.40 51.09 Q 155.28 50.68 154.73 49.56 Q 154.73 49.56 154.48 49.17 Q 156.77 49.01 158.96 48.57 Q 160.07 48.33 161.10 48.05 Q 159.03 46.77 157.62 44.98 L 158.53 44.61 L 155.62 44.61 Z M 152.58 31.22 L 161.74 31.22 Q 161.70 31.12 161.67 31.03 Q 161.33 30.09 160.96 29.34 L 163.23 28.82 Q 163.64 29.57 164.00 30.44 Q 164.17 30.86 164.31 31.22 L 172.52 31.22 L 172.52 33.33 L 154.80 33.33 L 154.80 37.68 Q 154.80 39.14 154.64 42.64 Q 154.64 42.64 154.16 46.31 Q 154.16 46.31 153.25 49.77 Q 153.25 49.77 152.51 51.21 Q 152.28 51.05 151.52 50.66 Q 151.52 50.66 150.75 50.30 Q 150.75 50.30 150.43 50.20 Q 151.18 48.83 152.03 45.62 Q 152.03 45.62 152.46 42.26 Q 152.46 42.26 152.58 39.07 Q 152.58 39.07 152.58 37.70 Z M 155.36 35.80 L 158.96 35.80 L 158.96 33.93 L 161.12 33.93 L 161.12 35.80 L 166.32 35.80 L 166.32 33.93 L 168.56 33.93 L 168.56 35.80 L 172.25 35.80 L 172.25 37.63 L 168.56 37.63 L 168.56 41.52 L 158.96 41.52 L 158.96 37.63 L 155.36 37.63 Z M 161.12 37.63 L 161.12 39.76 L 166.32 39.76 L 166.32 37.63 Z M 159.91 44.61 Q 161.05 45.81 162.75 46.72 Q 163.18 46.93 163.64 47.16 Q 165.13 46.51 166.30 45.62 Q 166.92 45.14 167.43 44.61 Z" xml:space="preserve" style="font-weight:613;font-size:24px;line-height:1.2;font-family:'Dream Han Sans SC';-inkscape-font-specification:'Dream Han Sans SC weight=613';text-align:start;writing-mode:lr-tb;direction:ltr;text-anchor:start;fill:#ffffff" id="text2" data-original-text="未观测到震度" data-original-element="text"/>
</svg>