<?xml version="1.0" ?>
<svg xmlns="http://www.w3.org/2000/svg" xmlns:ns1="http://sodipodi.sourceforge.net/DTD/sodipodi-0.dtd" xmlns:ns2="http://www.inkscape.org/namespaces/inkscape" version="1.1" width="70" height="40" viewBox="0,0,70,40" id="svg8" ns1:docname="170eaeb367fb48044c2a2e8a10af948f.svg" ns2:version="1.4.2 (f4327f4, 2025-05-13)">
  <defs id="defs8"/>
  <ns1:namedview id="namedview8" pagecolor="#505050" bordercolor="#eeeeee" borderopacity="1" ns2:showpageshadow="0" ns2:pageopacity="0" ns2:pagecheckerboard="0" ns2:deskcolor="#505050" ns2:zoom="6.4611882" ns2:cx="-13.38763" ns2:cy="20.042753" ns2:window-width="1920" ns2:window-height="945" ns2:window-x="-9" ns2:window-y="40" ns2:window-maximized="1" ns2:current-layer="g7"/>
  <g transform="translate(-145,-340)" id="g8">
    <g data-paper-data="{&quot;isPaintingLayer&quot;:true}" stroke="none" stroke-miterlimit="10" stroke-dasharray="" stroke-dashoffset="0" style="mix-blend-mode: normal" id="g7">
      <path d="M145,380v-40h70v40z" fill-opacity="0.00392" fill="#272b32" fill-rule="evenodd" stroke-width="0.25" stroke-linecap="square" stroke-linejoin="round" id="path1"/>
      <path d="M164,376v-32h32v32z" fill-opacity="0" fill="#000000" fill-rule="nonzero" stroke-width="1" stroke-linecap="butt" stroke-linejoin="miter" id="path2"/>
      <path d="M179.985,346.6032c0.3163,-0.0016 0.6092,0.16647 0.76718,0.44062l7.1141,12.326c0.15714,0.27243 0.15706,0.60805 -0.00023,0.8804c-0.15729,0.27235 -0.44786,0.44005 -0.76226,0.43992h-14.226c-0.3144,0.00014 -0.60498,-0.16757 -0.76226,-0.43992c-0.15728,-0.27235 -0.15738,-0.60797 -0.00023,-0.8804l7.1141,-12.326c0.15602,-0.27077 0.44386,-0.43847 0.75625,-0.44062zM177.0197,354.3939c1.1848,-0.68481 2.2615,-0.98954 3.1718,-0.90472c0.9328,0.08688 1.6854,0.59312 2.1469,1.4594c0.03456,0.06528 0.02,0.14572 -0.03528,0.1947c-0.05528,0.04896 -0.13691,0.05376 -0.19753,0.01152c-0.77808,-0.54439 -1.3932,-0.41011 -1.7578,0.0064c-0.23112,0.26388 -0.28424,0.59501 -0.1875,0.92344c0.09675,0.32842 0.35088,0.64922 0.74844,0.85624c0.90792,0.47278 2.4285,0.56493 3.6422,0.25156c0.0082,-0.0016 0.01656,-0.0024 0.02496,-0.0032l-4.5844,-7.9438z" fill="#ffffff" fill-rule="evenodd" stroke-width="1" stroke-linecap="butt" stroke-linejoin="miter" id="path7"/>
    </g>
  </g>
  <path d="M 20.19 28.98 L 24.74 28.98 L 24.74 29.06 Q 24.73 29.14 24.73 29.32 Q 24.73 29.32 24.73 29.38 Q 24.69 30.21 24.66 30.88 L 25.37 30.88 L 25.37 31.68 L 24.61 31.68 Q 24.57 32.41 24.52 32.92 L 25.12 32.92 L 25.12 33.69 L 24.42 33.69 Q 24.37 33.93 24.33 34.11 Q 24.24 34.44 24.12 34.59 Q 23.97 34.79 23.63 34.94 Q 23.63 34.94 23.41 34.98 Q 23.21 35.00 22.58 35.00 Q 22.58 35.00 22.23 34.98 Q 22.22 34.81 22.11 34.39 Q 22.11 34.39 22.01 34.24 Q 22.34 34.27 22.91 34.28 Q 22.91 34.28 23.04 34.28 Q 23.16 34.28 23.32 34.22 Q 23.32 34.22 23.39 34.13 Q 23.49 34.03 23.56 33.72 Q 23.56 33.71 23.57 33.69 L 19.53 33.69 Q 19.63 33.23 19.72 32.65 Q 19.80 32.18 19.87 31.68 L 19.01 31.68 L 19.01 30.88 L 19.97 30.88 Q 20.02 30.53 20.06 30.17 Q 20.14 29.55 20.19 28.98 Z M 20.42 26.40 L 21.27 26.61 Q 21.14 27.02 20.97 27.42 L 25.13 27.42 L 25.13 28.21 L 20.61 28.21 Q 20.44 28.53 20.25 28.84 Q 19.96 29.35 19.64 29.73 Q 19.55 29.65 19.27 29.47 Q 19.27 29.47 18.98 29.29 Q 18.98 29.29 18.88 29.24 Q 19.21 28.89 19.79 27.98 Q 19.79 27.98 20.25 26.93 Q 20.25 26.93 20.42 26.40 Z M 16.97 34.44 Q 17.16 34.07 17.61 33.06 Q 17.61 33.06 18.08 31.94 Q 18.08 31.94 18.26 31.40 L 18.94 31.89 Q 18.78 32.38 18.36 33.45 Q 18.36 33.45 17.94 34.47 Q 17.94 34.47 17.74 34.91 Z M 23.70 32.92 Q 23.70 32.88 23.71 32.83 Q 23.76 32.35 23.81 31.68 L 21.90 31.68 Q 22.15 31.88 22.43 32.14 Q 22.74 32.43 22.90 32.67 L 22.54 32.92 Z M 17.22 27.13 L 17.71 26.54 Q 17.98 26.66 18.61 27.00 Q 18.61 27.00 19.17 27.34 Q 19.17 27.34 19.34 27.49 L 18.83 28.16 Q 18.67 28.01 18.11 27.64 Q 18.11 27.64 17.49 27.28 Q 17.49 27.28 17.22 27.13 Z M 21.33 31.93 L 21.74 31.68 L 20.68 31.68 Q 20.62 32.20 20.54 32.68 Q 20.53 32.80 20.50 32.92 L 22.32 32.92 Q 22.17 32.73 21.92 32.48 Q 21.62 32.17 21.33 31.93 Z M 16.71 29.83 L 17.19 29.23 Q 17.45 29.35 18.05 29.67 Q 18.05 29.67 18.57 30.01 Q 18.57 30.01 18.74 30.16 L 18.23 30.83 Q 18.08 30.68 17.55 30.32 Q 17.55 30.32 16.97 29.96 Q 16.97 29.96 16.71 29.83 Z M 23.86 30.88 Q 23.87 30.36 23.90 29.74 L 22.14 29.74 Q 22.36 29.93 22.60 30.15 Q 22.89 30.43 23.03 30.63 L 22.70 30.88 Z M 21.58 29.98 L 21.93 29.74 L 20.93 29.74 Q 20.90 29.96 20.88 30.20 Q 20.83 30.54 20.79 30.88 L 22.46 30.88 Q 22.33 30.70 22.12 30.48 Q 21.85 30.20 21.58 29.98 Z M 28.80 28.44 L 31.18 28.44 L 31.18 27.83 L 29.33 27.83 L 29.33 27.11 L 31.18 27.11 L 31.18 26.46 L 31.99 26.46 L 31.99 27.11 L 34.10 27.11 L 34.10 28.44 L 34.67 28.44 L 34.67 29.14 L 34.10 29.14 L 34.10 30.51 L 31.99 30.51 L 31.99 35.03 L 31.18 35.03 L 31.18 30.51 L 29.25 30.51 L 29.25 29.79 L 31.18 29.79 L 31.18 29.14 L 28.80 29.14 Z M 26.31 27.04 L 28.57 27.04 L 28.57 32.74 L 27.02 32.74 L 27.02 33.60 L 26.31 33.60 Z M 27.02 27.74 L 27.02 32.02 L 27.87 32.02 L 27.87 27.74 Z M 29.06 30.94 L 29.79 30.94 L 29.79 31.66 Q 29.79 32.18 29.69 33.37 Q 29.69 33.37 29.33 34.55 Q 29.33 34.55 28.96 35.09 Q 28.85 34.98 28.46 34.69 Q 28.46 34.69 28.32 34.62 Q 28.65 34.14 28.98 33.11 Q 28.98 33.11 29.06 32.08 Q 29.06 32.08 29.06 31.64 Z M 33.44 30.94 L 34.17 30.94 L 34.17 35.01 L 33.44 35.01 Z M 30.33 31.33 L 30.91 31.44 Q 30.86 31.95 30.67 32.98 Q 30.67 32.98 30.41 33.89 Q 30.41 33.89 30.26 34.25 Q 30.17 34.18 29.88 33.98 Q 29.88 33.98 29.76 33.93 Q 30.00 33.44 30.26 32.04 Q 30.26 32.04 30.33 31.33 Z M 32.21 31.41 L 32.76 31.35 Q 32.88 31.77 33.10 32.75 Q 33.10 32.75 33.27 33.66 Q 33.27 33.66 33.31 33.98 L 32.70 34.10 Q 32.67 33.76 32.52 32.84 Q 32.52 32.84 32.32 31.85 Q 32.32 31.85 32.21 31.41 Z M 31.99 29.14 L 31.99 29.79 L 33.34 29.79 L 33.34 29.14 Z M 31.99 27.83 L 31.99 28.44 L 33.34 28.44 L 33.34 27.83 Z M 38.45 32.00 L 43.30 32.00 L 43.30 35.03 L 42.51 35.03 L 42.51 34.72 L 39.21 34.72 L 39.21 35.06 L 38.45 35.06 Z M 37.31 26.45 L 38.10 26.68 Q 37.82 27.46 37.46 28.24 Q 37.41 28.35 37.35 28.45 L 37.35 35.10 L 36.54 35.10 L 36.54 29.86 Q 36.16 30.45 35.75 30.93 Q 35.70 30.82 35.54 30.50 Q 35.54 30.50 35.35 30.17 Q 35.35 30.17 35.27 30.07 Q 35.68 29.63 36.44 28.46 Q 36.44 28.46 37.09 27.13 Q 37.09 27.13 37.31 26.45 Z M 37.91 27.91 L 40.68 27.91 Q 40.59 27.67 40.42 27.35 Q 40.24 26.98 40.05 26.69 L 40.80 26.40 Q 41.00 26.68 41.39 27.37 Q 41.39 27.37 41.48 27.62 L 40.83 27.91 L 43.90 27.91 L 43.90 28.64 L 37.91 28.64 Z M 42.51 34.02 L 42.51 32.72 L 39.21 32.72 L 39.21 34.02 Z M 38.58 29.28 L 43.19 29.28 L 43.19 29.98 L 38.58 29.98 Z M 38.58 30.62 L 43.19 30.62 L 43.19 31.33 L 38.58 31.33 Z M 46.10 27.26 L 48.27 27.26 Q 48.35 27.07 48.42 26.85 Q 48.53 26.55 48.57 26.31 L 49.62 26.46 Q 49.47 26.77 49.32 27.06 Q 49.25 27.16 49.20 27.26 L 51.90 27.26 L 51.90 31.76 L 49.01 31.76 Q 49.19 31.93 49.38 32.13 Q 49.62 32.38 50.02 32.89 Q 50.02 32.89 50.15 33.10 L 49.43 33.54 Q 49.32 33.32 48.93 32.80 Q 48.93 32.80 48.46 32.27 Q 48.46 32.27 48.23 32.06 L 48.74 31.76 L 46.10 31.76 Z M 46.75 32.38 L 47.64 32.38 L 47.64 33.79 Q 47.64 33.98 47.88 34.10 Q 47.88 34.10 48.31 34.10 L 50.17 34.10 Q 50.42 34.10 50.65 33.96 Q 50.65 33.96 50.74 33.50 Q 50.74 33.50 50.77 33.05 Q 50.88 33.12 51.15 33.25 Q 51.15 33.25 51.46 33.34 Q 51.46 33.34 51.58 33.37 Q 51.54 33.98 51.27 34.66 Q 51.27 34.66 50.72 34.91 Q 50.72 34.91 50.23 34.91 L 48.24 34.91 Q 47.65 34.91 47.00 34.71 Q 47.00 34.71 46.75 34.23 Q 46.75 34.23 46.75 33.80 Z M 46.94 30.46 L 46.94 31.09 L 51.01 31.09 L 51.01 30.46 Z M 46.94 29.20 L 46.94 29.81 L 51.01 29.81 L 51.01 29.20 Z M 46.94 27.95 L 46.94 28.56 L 51.01 28.56 L 51.01 27.95 Z M 51.38 32.48 L 52.16 32.15 Q 52.38 32.43 52.81 33.13 Q 52.81 33.13 53.13 33.79 Q 53.13 33.79 53.22 34.07 L 52.39 34.44 Q 52.31 34.16 51.99 33.48 Q 51.99 33.48 51.59 32.77 Q 51.59 32.77 51.38 32.48 Z M 45.63 32.31 L 46.41 32.64 Q 46.28 32.93 45.99 33.66 Q 45.99 33.66 45.68 34.34 Q 45.68 34.34 45.52 34.62 L 44.71 34.24 Q 44.88 33.97 45.23 33.30 Q 45.23 33.30 45.53 32.60 Q 45.53 32.60 45.63 32.31 Z" xml:space="preserve" style="font-weight:613;font-size:9.33333px;line-height:1.2;font-family:'Dream Han Sans SC';-inkscape-font-specification:'Dream Han Sans SC weight=613';text-align:start;writing-mode:lr-tb;direction:ltr;text-anchor:start;fill:#ffffff" id="text8" data-original-text="海啸信息" data-original-element="text"/>
</svg>