<?xml version="1.0" ?>
<svg xmlns="http://www.w3.org/2000/svg" xmlns:ns1="http://sodipodi.sourceforge.net/DTD/sodipodi-0.dtd" xmlns:ns2="http://www.inkscape.org/namespaces/inkscape" viewBox="0 0 192 24" version="1.1" height="24" width="192" id="svg13" ns1:docname="19437b74f417c9c7040a828e3dd35440.svg" ns2:version="1.4.2 (f4327f4, 2025-05-13)">
  <defs id="defs13"/>
  <ns1:namedview id="namedview13" pagecolor="#505050" bordercolor="#eeeeee" borderopacity="1" ns2:showpageshadow="0" ns2:pageopacity="0" ns2:pagecheckerboard="0" ns2:deskcolor="#505050" ns2:zoom="3.2648446" ns2:cx="-35.376875" ns2:cy="-1.9909064" ns2:window-width="1920" ns2:window-height="945" ns2:window-x="-9" ns2:window-y="40" ns2:window-maximized="1" ns2:current-layer="g13"/>
  <g transform="translate(-1201.7 -198.95)" id="g13">
    <path d="M 1201.7 198.95 L 1393.7 198.95 L 1393.7 222.95 L 1201.7 222.95 Z" style="paint-order:stroke markers fill" stop-color="#000000" fill="none" id="rect1" data-original-element="rect"/>
  </g>
  <path d="M 8.48 10.68 L 14.38 10.68 Q 14.53 9.75 14.56 8.82 Q 14.61 8.15 14.63 7.49 L 9.45 7.49 L 9.45 6.02 L 22.06 6.02 L 22.06 7.49 L 16.17 7.49 Q 16.13 8.27 16.08 9.06 Q 16.03 9.87 15.92 10.68 L 22.96 10.68 L 22.96 12.16 L 17.39 12.16 L 17.39 17.26 Q 17.39 17.72 17.71 17.97 Q 17.71 17.97 18.29 17.97 L 20.72 17.97 Q 21.09 17.97 21.45 17.60 Q 21.45 17.60 21.62 16.54 Q 21.62 16.54 21.65 15.47 Q 21.82 15.60 22.34 15.86 Q 22.34 15.86 22.90 16.07 Q 22.90 16.07 23.10 16.11 Q 23.01 17.43 22.58 18.88 Q 22.58 18.88 21.65 19.44 Q 21.65 19.44 20.83 19.44 L 18.10 19.44 Q 17.20 19.44 16.20 19.04 Q 16.20 19.04 15.81 18.11 Q 15.81 18.11 15.81 17.28 L 15.81 12.16 L 15.68 12.16 Q 15.47 13.11 15.12 14.02 Q 14.69 15.22 13.19 17.36 Q 13.19 17.36 10.90 19.15 Q 10.90 19.15 9.27 19.83 Q 9.10 19.52 8.53 18.80 Q 8.53 18.80 8.24 18.56 Q 9.81 17.97 11.97 16.36 Q 11.97 16.36 13.36 14.40 Q 13.36 14.40 13.76 13.31 Q 13.97 12.75 14.11 12.16 L 8.48 12.16 Z M 26.34 5.73 L 37.07 5.73 L 37.07 12.05 L 26.34 12.05 Z M 24.26 17.65 L 29.13 17.65 L 29.13 12.62 L 30.56 12.62 L 30.56 17.65 L 32.70 17.65 L 32.70 12.62 L 34.14 12.62 L 34.14 17.65 L 39.10 17.65 L 39.10 19.09 L 24.26 19.09 Z M 27.81 9.44 L 27.81 10.85 L 35.53 10.85 L 35.53 9.44 Z M 27.81 6.91 L 27.81 8.33 L 35.53 8.33 L 35.53 6.91 Z M 36.69 13.08 L 37.97 13.65 Q 37.49 14.48 36.31 16.19 Q 36.31 16.19 35.79 16.83 L 34.63 16.27 Q 34.98 15.86 35.74 14.74 Q 35.74 14.74 36.45 13.58 Q 36.45 13.58 36.69 13.08 Z M 25.53 13.68 L 26.69 13.18 Q 27.01 13.68 27.67 14.83 Q 27.67 14.83 28.26 15.90 Q 28.26 15.90 28.42 16.33 L 27.19 16.90 Q 27.03 16.48 26.46 15.38 Q 26.46 15.38 25.84 14.19 Q 25.84 14.19 25.53 13.68 Z M 40.60 9.97 L 54.78 9.97 L 54.78 11.47 L 48.55 11.47 L 48.55 17.97 Q 48.55 18.64 48.17 19.38 Q 48.17 19.38 47.68 19.55 Q 47.20 19.73 45.70 19.83 Q 45.70 19.83 44.64 19.83 Q 44.60 19.47 44.28 18.56 Q 44.28 18.56 44.10 18.22 Q 44.61 18.24 45.60 18.25 Q 45.60 18.25 46.35 18.25 Q 46.35 18.25 46.49 18.25 Q 46.72 18.25 46.90 18.11 Q 46.90 18.11 46.90 17.93 L 46.90 11.47 L 40.60 11.47 Z M 42.03 6.10 L 53.33 6.10 L 53.33 7.58 L 42.03 7.58 Z M 43.17 12.86 L 44.75 13.28 Q 44.38 14.24 43.33 16.11 Q 43.33 16.11 42.14 17.75 Q 42.14 17.75 41.54 18.37 Q 41.39 18.22 40.88 17.89 Q 40.88 17.89 40.35 17.55 Q 40.35 17.55 40.14 17.46 Q 41.09 16.62 42.69 14.16 Q 42.69 14.16 43.17 12.86 Z M 50.53 13.44 L 51.94 12.85 Q 52.51 13.60 53.62 15.33 Q 53.62 15.33 54.51 17.03 Q 54.51 17.03 54.74 17.72 L 53.20 18.39 Q 52.99 17.73 52.16 16.00 Q 52.16 16.00 51.09 14.21 Q 51.09 14.21 50.53 13.44 Z M 62.93 4.97 L 64.46 4.97 L 64.46 7.68 L 70.21 7.68 L 70.21 17.99 Q 70.21 18.66 69.88 19.38 Q 69.88 19.38 69.41 19.57 Q 68.96 19.75 67.45 19.83 Q 67.45 19.83 66.37 19.83 Q 66.35 19.61 66.17 19.06 Q 66.17 19.06 65.97 18.51 Q 65.97 18.51 65.88 18.30 Q 66.40 18.33 67.39 18.36 Q 67.39 18.36 68.17 18.34 Q 68.17 18.34 68.32 18.34 Q 68.55 18.33 68.72 18.18 Q 68.72 18.18 68.72 17.97 L 68.72 9.15 L 64.45 9.15 Q 64.43 9.58 64.38 10.05 Q 64.32 10.59 64.20 11.14 Q 64.66 11.55 65.15 12.02 Q 65.79 12.61 67.04 13.83 Q 67.04 13.83 68.11 14.96 Q 68.11 14.96 68.48 15.41 L 67.24 16.40 Q 66.90 15.93 65.88 14.77 Q 65.88 14.77 64.66 13.50 Q 64.66 13.50 64.02 12.88 Q 63.88 12.74 63.73 12.61 Q 63.54 13.06 63.27 13.50 Q 62.77 14.37 61.17 15.97 Q 61.17 15.97 60.00 16.66 Q 59.89 16.50 59.53 16.07 Q 59.53 16.07 59.10 15.65 Q 59.10 15.65 58.92 15.52 Q 60.05 14.91 61.53 13.52 Q 61.53 13.52 62.38 12.02 Q 62.38 12.02 62.80 10.51 Q 62.80 10.51 62.87 9.78 Q 62.88 9.46 62.90 9.15 L 58.70 9.15 L 58.70 19.86 L 57.19 19.86 L 57.19 7.68 L 62.93 7.68 Z M 79.49 9.75 L 80.80 10.33 Q 80.67 10.53 80.53 10.74 Q 81.79 12.11 83.33 13.04 Q 85.07 14.10 87.12 14.88 Q 86.85 15.12 86.31 15.81 Q 86.31 15.81 86.14 16.15 Q 85.17 15.72 84.28 15.22 L 84.28 19.79 L 82.72 19.79 L 82.72 19.33 L 76.61 19.33 L 76.61 19.84 L 75.13 19.84 L 75.13 15.41 Q 74.17 15.93 73.17 16.34 Q 73.01 16.07 72.48 15.36 Q 72.48 15.36 72.21 15.12 Q 73.70 14.59 76.46 13.00 Q 76.46 13.00 78.74 10.94 Q 78.74 10.94 79.49 9.75 Z M 72.93 6.37 L 79.03 6.37 Q 78.99 6.29 78.96 6.21 Q 78.72 5.65 78.46 5.18 L 80.03 4.83 Q 80.32 5.28 80.58 5.83 Q 80.72 6.11 80.80 6.37 L 86.45 6.37 L 86.45 9.52 L 84.90 9.52 L 84.90 7.75 L 74.40 7.75 L 74.40 9.52 L 72.93 9.52 Z M 82.72 18.00 L 82.72 15.73 L 76.61 15.73 L 76.61 18.00 Z M 76.88 8.30 L 78.31 8.79 Q 77.79 9.49 76.42 10.82 Q 76.42 10.82 74.90 11.95 Q 74.90 11.95 74.16 12.37 Q 74.06 12.22 73.68 11.78 Q 73.68 11.78 73.27 11.35 Q 73.27 11.35 73.12 11.22 Q 74.21 10.71 76.24 9.15 Q 76.24 9.15 76.88 8.30 Z M 76.78 14.39 L 82.87 14.39 Q 81.95 13.81 81.12 13.11 Q 80.42 12.50 79.73 11.78 Q 79.28 12.30 78.77 12.79 Q 77.84 13.67 76.78 14.39 Z M 80.90 9.18 L 81.91 8.33 Q 82.63 8.74 84.20 9.81 Q 84.20 9.81 85.60 10.90 Q 85.60 10.90 86.05 11.35 L 84.95 12.34 Q 84.53 11.87 83.19 10.75 Q 83.19 10.75 81.62 9.63 Q 81.62 9.63 80.90 9.18 Z" xml:space="preserve" style="font-weight:613;font-size:16px;line-height:1.2;font-family:'Dream Han Sans SC';-inkscape-font-specification:'Dream Han Sans SC weight=613';text-align:start;writing-mode:lr-tb;direction:ltr;text-anchor:start;fill:#ffffff;fill-opacity:0.670588" id="text13" data-original-text="无显示内容" data-original-element="text"/>
</svg>