<?xml version="1.0" ?>
<svg xmlns="http://www.w3.org/2000/svg" xmlns:ns1="http://sodipodi.sourceforge.net/DTD/sodipodi-0.dtd" xmlns:ns2="http://www.inkscape.org/namespaces/inkscape" viewBox="0 0 120 60" version="1.1" height="60" width="120" id="svg2" ns1:docname="1a752f7b60edee4789196248068e5ef4.svg" ns2:version="1.4.2 (f4327f4, 2025-05-13)">
  <defs id="defs2"/>
  <ns1:namedview id="namedview2" pagecolor="#505050" bordercolor="#eeeeee" borderopacity="1" ns2:showpageshadow="0" ns2:pageopacity="0" ns2:pagecheckerboard="0" ns2:deskcolor="#505050" ns2:zoom="12.183333" ns2:cx="59.95896" ns2:cy="16.867305" ns2:window-width="1920" ns2:window-height="945" ns2:window-x="-9" ns2:window-y="40" ns2:window-maximized="1" ns2:current-layer="svg2"/>
  <path d="M 0.0 0.0 L 120.0 0.0 L 120.0 60.0 L 0.0 60.0 Z" style="paint-order:stroke markers fill" stop-color="#000000" opacity=".80769" fill="none" id="rect1" data-original-element="rect"/>
  <path d="M 60.65 15.12 L 62.61 15.12 L 62.61 12.38 L 63.86 12.38 L 63.86 15.12 L 65.52 15.12 L 65.52 16.30 L 63.86 16.30 L 63.86 16.63 Q 63.98 16.74 64.18 16.99 Q 64.44 17.30 65.04 18.07 Q 65.04 18.07 65.55 18.69 Q 65.55 18.69 65.64 18.83 L 64.93 19.82 Q 64.82 19.57 64.36 18.83 Q 64.36 18.83 64.09 18.41 Q 63.98 18.23 63.86 18.05 L 63.86 24.75 L 62.61 24.75 L 62.61 18.55 Q 62.48 18.92 62.35 19.29 Q 62.05 20.08 61.39 21.43 Q 61.39 21.43 61.03 21.92 Q 60.96 21.74 60.73 21.31 Q 60.73 21.31 60.47 20.87 Q 60.47 20.87 60.35 20.70 Q 60.80 20.16 61.63 18.55 Q 61.63 18.55 61.95 17.62 Q 62.19 16.93 62.35 16.30 L 60.65 16.30 Z M 65.71 16.50 L 72.87 16.50 L 72.87 17.68 L 69.74 17.68 L 69.74 23.21 Q 69.74 23.72 69.51 24.30 Q 69.51 24.30 69.18 24.47 Q 68.86 24.63 67.88 24.69 Q 67.88 24.69 67.19 24.69 Q 67.16 24.43 66.95 23.68 Q 66.95 23.68 66.81 23.40 Q 67.28 23.41 68.08 23.42 Q 68.08 23.42 68.21 23.41 Q 68.35 23.41 68.45 23.32 Q 68.45 23.32 68.45 23.20 L 68.45 17.68 L 65.71 17.68 Z M 66.29 13.32 L 72.15 13.32 L 72.15 14.49 L 66.29 14.49 Z M 70.44 19.36 L 71.49 19.01 Q 71.81 19.68 72.39 21.17 Q 72.39 21.17 72.84 22.58 Q 72.84 22.58 72.95 23.12 L 71.80 23.55 Q 71.71 23.00 71.29 21.58 Q 71.29 21.58 70.75 20.04 Q 70.75 20.04 70.44 19.36 Z M 66.48 19.07 L 67.61 19.32 Q 67.43 20.09 66.85 21.63 Q 66.85 21.63 66.20 22.97 Q 66.20 22.97 65.84 23.49 Q 65.73 23.40 65.38 23.16 Q 65.38 23.16 64.99 22.92 Q 64.99 22.92 64.84 22.84 Q 65.39 22.13 66.23 20.10 Q 66.23 20.10 66.48 19.07 Z M 79.28 12.49 L 80.44 12.77 Q 80.10 13.77 79.65 14.73 L 82.43 14.73 Q 82.28 14.39 82.05 13.96 Q 81.76 13.38 81.47 12.93 L 82.54 12.45 Q 82.86 12.89 83.47 13.94 Q 83.47 13.94 83.63 14.33 L 82.86 14.73 L 85.97 14.73 L 85.97 15.83 L 83.21 15.83 L 83.21 17.40 L 85.71 17.40 L 85.71 18.49 L 83.21 18.49 L 83.21 20.04 L 85.69 20.04 L 85.69 21.13 L 83.21 21.13 L 83.21 22.72 L 86.21 22.72 L 86.21 23.85 L 79.35 23.85 L 79.35 24.77 L 78.19 24.77 L 78.19 17.33 Q 77.63 18.13 77.03 18.76 Q 76.94 18.64 76.60 18.29 Q 76.60 18.29 76.25 17.95 Q 76.25 17.95 76.12 17.85 Q 76.80 17.21 77.99 15.51 Q 77.99 15.51 78.95 13.53 Q 78.95 13.53 79.28 12.49 Z M 73.98 23.57 Q 74.27 23.03 74.98 21.53 Q 74.98 21.53 75.69 19.85 Q 75.69 19.85 75.99 19.04 L 77.13 19.64 Q 76.85 20.40 76.23 21.99 Q 76.23 21.99 75.59 23.49 Q 75.59 23.49 75.28 24.15 Z M 73.98 13.46 L 75.10 12.95 Q 75.41 13.41 76.12 14.53 Q 76.12 14.53 76.72 15.59 Q 76.72 15.59 76.90 16.00 L 75.69 16.60 Q 75.54 16.18 74.96 15.09 Q 74.96 15.09 74.29 13.94 Q 74.29 13.94 73.98 13.46 Z M 81.99 21.13 L 79.35 21.13 L 79.35 22.72 L 81.99 22.72 Z M 81.99 15.83 L 79.35 15.83 L 79.35 17.40 L 81.99 17.40 Z M 81.99 18.49 L 79.35 18.49 L 79.35 20.04 L 81.99 20.04 Z" xml:space="preserve" style="font-weight:613;font-size:13.3333px;line-height:1.2;font-family:'Dream Han Sans SC';-inkscape-font-specification:'Dream Han Sans SC weight=613';text-align:start;writing-mode:lr-tb;direction:ltr;text-anchor:start;fill:#ffffff" id="text2" data-original-text="标准" data-original-element="text"/>
</svg>