<?xml version="1.0" ?>
<svg xmlns="http://www.w3.org/2000/svg" xmlns:ns1="http://sodipodi.sourceforge.net/DTD/sodipodi-0.dtd" xmlns:ns2="http://www.inkscape.org/namespaces/inkscape" version="1.1" width="208" height="32" viewBox="0,0,208,32" id="svg7" ns1:docname="1a82b59600b6ffe6dda1acbfc83c4e80.svg" ns2:version="1.4.2 (f4327f4, 2025-05-13)">
  <defs id="defs7"/>
  <ns1:namedview id="namedview7" pagecolor="#505050" bordercolor="#eeeeee" borderopacity="1" ns2:showpageshadow="0" ns2:pageopacity="0" ns2:pagecheckerboard="0" ns2:deskcolor="#505050" ns2:zoom="8.5240385" ns2:cx="55.900733" ns2:cy="16.013536" ns2:window-width="1920" ns2:window-height="945" ns2:window-x="-9" ns2:window-y="40" ns2:window-maximized="1" ns2:current-layer="svg7"/>
  <g transform="translate(-240,-164)" id="g7">
    <g data-paper-data="{&quot;isPaintingLayer&quot;:true}" fill-rule="nonzero" stroke="none" stroke-linecap="butt" stroke-linejoin="miter" stroke-miterlimit="10" stroke-dasharray="" stroke-dashoffset="0" style="mix-blend-mode: normal" id="g6">
      <path d="M240,196v-32h208v32z" fill="none" stroke-width="0" id="path1"/>
    </g>
  </g>
  <path d="M 3.40 11.55 L 17.20 11.55 L 17.20 17.99 L 11.35 17.99 L 11.35 23.17 Q 11.35 24.01 10.91 24.90 Q 10.91 24.90 10.28 25.11 Q 9.65 25.33 7.74 25.43 Q 7.74 25.43 6.37 25.41 Q 6.31 24.99 5.93 23.90 Q 5.93 23.90 5.72 23.50 Q 6.37 23.52 7.61 23.52 Q 7.61 23.52 8.55 23.52 Q 8.55 23.52 8.75 23.52 Q 9.02 23.50 9.22 23.34 Q 9.22 23.34 9.22 23.13 L 9.22 17.99 L 3.40 17.99 Z M 0.83 8.11 L 9.41 8.11 Q 9.30 7.88 9.16 7.62 Q 8.71 6.75 8.28 6.02 L 10.24 5.38 Q 10.69 6.09 11.16 6.92 Q 11.54 7.60 11.80 8.11 L 19.56 8.11 L 19.56 10.10 L 0.83 10.10 Z M 5.37 13.30 L 5.37 16.24 L 15.06 16.24 L 15.06 13.30 Z M 13.97 20.21 L 15.61 19.18 Q 16.28 19.87 17.77 21.49 Q 17.77 21.49 19.11 23.05 Q 19.11 23.05 19.52 23.66 L 17.75 24.84 Q 17.38 24.22 16.10 22.62 Q 16.10 22.62 14.66 20.91 Q 14.66 20.91 13.97 20.21 Z M 4.31 19.23 L 6.27 19.93 Q 5.42 21.22 3.11 23.84 Q 3.11 23.84 2.01 24.80 Q 1.73 24.50 0.85 23.75 Q 0.85 23.75 0.53 23.52 Q 1.24 22.97 2.67 21.49 Q 2.67 21.49 3.91 19.91 Q 3.91 19.91 4.31 19.23 Z M 22.68 7.97 L 25.77 7.97 L 25.77 5.75 L 27.65 5.75 L 27.65 7.97 L 30.10 7.97 L 30.10 9.11 Q 30.82 7.84 31.41 6.40 L 33.22 6.92 Q 32.08 9.65 30.49 11.93 L 32.71 11.93 L 32.71 13.71 L 29.12 13.71 Q 28.93 13.91 28.76 14.11 Q 28.07 14.87 27.35 15.56 L 31.85 15.56 L 31.85 24.99 L 29.93 24.99 L 29.93 24.09 L 25.71 24.09 L 25.71 25.29 L 23.87 25.29 L 23.87 18.31 Q 23.17 18.76 22.43 19.16 Q 22.33 18.93 21.88 18.31 Q 21.88 18.31 21.42 17.69 Q 21.42 17.69 21.23 17.50 Q 24.24 16.03 26.60 13.71 L 21.74 13.71 L 21.74 11.93 L 25.77 11.93 L 25.77 9.72 L 22.68 9.72 Z M 33.51 6.77 L 39.77 6.77 L 40.06 6.71 L 41.54 7.62 Q 40.92 9.14 39.38 12.57 Q 39.38 12.57 38.66 14.02 Q 39.70 15.01 40.79 16.78 Q 40.79 16.78 41.20 18.39 Q 41.20 18.39 41.20 19.14 Q 41.22 20.21 40.69 21.73 Q 40.69 21.73 40.06 22.13 Q 39.49 22.52 38.59 22.64 Q 38.21 22.68 37.17 22.68 Q 37.17 22.68 36.66 22.66 Q 36.62 22.26 36.35 21.10 Q 36.35 21.10 36.09 20.71 Q 36.58 20.75 37.40 20.77 Q 37.40 20.77 37.72 20.75 Q 38.00 20.75 38.49 20.61 Q 38.49 20.61 38.66 20.53 Q 39.00 20.32 39.27 19.51 Q 39.27 19.51 39.27 18.93 Q 39.27 17.97 38.17 15.62 Q 38.17 15.62 36.66 14.30 Q 37.01 13.49 37.80 11.61 Q 37.80 11.61 38.53 9.74 Q 38.53 9.74 38.84 8.90 Q 38.90 8.78 38.94 8.66 L 35.52 8.66 L 35.52 25.37 L 33.51 25.37 Z M 29.93 20.51 L 25.71 20.51 L 25.71 22.44 L 29.93 22.44 Z M 29.93 17.18 L 25.71 17.18 L 25.71 18.96 L 29.93 18.96 Z M 27.65 11.93 L 28.21 11.93 Q 29.05 10.88 29.76 9.72 L 27.65 9.72 Z M 44.54 7.77 L 52.88 7.77 Q 52.82 7.62 52.74 7.46 Q 52.40 6.58 52.03 5.87 L 54.06 5.34 Q 54.43 6.02 54.80 6.85 Q 55.04 7.37 55.21 7.77 L 62.55 7.77 L 62.55 9.65 L 46.57 9.65 L 46.57 15.03 Q 46.57 16.17 46.45 18.93 Q 46.45 18.93 46.04 21.79 Q 46.04 21.79 45.29 24.43 Q 45.29 24.43 44.66 25.50 Q 44.48 25.31 43.82 24.84 Q 43.82 24.84 43.13 24.43 Q 43.13 24.43 42.91 24.33 Q 43.48 23.37 44.11 21.02 Q 44.11 21.02 44.46 18.53 Q 44.46 18.53 44.54 16.09 Q 44.54 16.09 44.54 15.05 Z M 52.25 13.32 L 58.30 13.32 L 58.30 10.25 L 60.33 10.25 L 60.33 13.32 L 62.57 13.32 L 62.57 15.17 L 60.33 15.17 L 60.33 23.01 Q 60.33 23.86 59.91 24.78 Q 59.91 24.78 59.35 25.01 Q 58.79 25.25 57.06 25.37 Q 57.06 25.37 55.81 25.37 Q 55.74 24.94 55.36 23.79 Q 55.36 23.79 55.17 23.39 Q 56.04 23.41 57.60 23.43 Q 57.60 23.43 57.85 23.43 Q 58.11 23.41 58.30 23.22 Q 58.30 23.22 58.30 22.99 L 58.30 15.17 L 52.25 15.17 Z M 50.67 9.99 L 52.62 10.55 Q 52.11 11.98 51.40 13.42 Q 51.22 13.75 51.07 14.05 L 51.07 25.35 L 49.18 25.35 L 49.18 16.94 Q 48.49 17.80 47.72 18.53 Q 47.63 18.27 47.34 17.56 Q 47.34 17.56 47.00 16.86 Q 47.00 16.86 46.84 16.64 Q 47.72 15.82 49.22 13.57 Q 49.22 13.57 50.32 11.10 Q 50.32 11.10 50.67 9.99 Z M 52.82 17.09 L 54.45 16.43 Q 54.87 17.07 55.77 18.57 Q 55.77 18.57 56.55 19.96 Q 56.55 19.96 56.77 20.51 L 55.06 21.32 Q 54.84 20.77 54.10 19.29 Q 54.10 19.29 53.23 17.76 Q 53.23 17.76 52.82 17.09 Z M 64.77 7.54 L 73.11 7.54 L 73.11 5.64 L 75.30 5.64 L 75.30 7.54 L 83.62 7.54 L 83.62 9.43 L 75.30 9.43 L 75.30 11.42 L 82.65 11.42 L 82.65 23.17 Q 82.65 23.99 82.22 24.84 Q 82.22 24.84 81.04 25.27 Q 81.04 25.27 79.19 25.35 Q 79.19 25.35 77.88 25.35 Q 77.82 24.97 77.42 23.97 Q 77.42 23.97 77.21 23.60 Q 77.82 23.62 79.00 23.64 Q 79.00 23.64 79.94 23.62 Q 79.94 23.62 80.10 23.62 Q 80.41 23.62 80.59 23.43 Q 80.59 23.43 80.59 23.17 L 80.59 13.28 L 67.80 13.28 L 67.80 25.33 L 65.77 25.33 L 65.77 11.42 L 73.11 11.42 L 73.11 9.43 L 64.77 9.43 Z M 69.29 16.37 L 71.45 16.37 Q 71.32 15.88 70.98 15.19 Q 70.63 14.50 70.27 13.91 L 71.85 13.42 Q 72.28 13.98 72.98 15.34 Q 72.98 15.34 73.16 15.86 L 71.68 16.37 L 75.16 16.37 Q 75.40 15.97 75.65 15.48 Q 75.91 14.94 76.40 13.87 Q 76.40 13.87 76.56 13.42 L 78.27 13.93 Q 77.86 14.73 77.42 15.52 Q 77.15 15.99 76.88 16.37 L 79.17 16.37 L 79.17 17.97 L 75.09 17.97 L 75.09 19.81 L 79.57 19.81 L 79.57 21.47 L 75.09 21.47 L 75.09 24.88 L 73.18 24.88 L 73.18 21.47 L 68.84 21.47 L 68.84 19.81 L 73.18 19.81 L 73.18 17.97 L 69.29 17.97 Z M 98.07 6.66 L 103.59 6.66 L 103.90 6.58 L 105.28 7.46 Q 104.73 8.97 103.38 12.40 Q 103.38 12.40 102.74 13.83 Q 104.10 15.32 104.96 17.86 Q 104.96 17.86 104.96 18.96 Q 104.96 19.98 104.49 21.49 Q 104.49 21.49 103.94 21.87 Q 103.66 22.05 102.96 22.28 Q 102.96 22.28 102.55 22.34 Q 102.19 22.38 101.27 22.38 Q 101.27 22.38 100.80 22.36 Q 100.78 21.98 100.54 20.89 Q 100.54 20.89 100.29 20.49 Q 100.72 20.53 101.46 20.55 Q 101.46 20.55 101.76 20.53 Q 102.00 20.53 102.43 20.42 Q 102.43 20.42 102.59 20.32 Q 102.87 20.12 103.12 19.27 Q 103.12 19.27 103.10 18.74 Q 103.10 17.78 102.17 15.46 Q 102.17 15.46 100.82 14.07 Q 101.15 13.26 101.84 11.40 Q 101.84 11.40 102.49 9.54 Q 102.49 9.54 102.76 8.72 Q 102.80 8.60 102.84 8.48 L 99.86 8.48 L 99.86 25.31 L 98.07 25.31 Z M 87.00 17.37 L 96.19 17.37 L 96.19 25.14 L 94.21 25.14 L 94.21 24.29 L 88.90 24.29 L 88.90 25.29 L 87.00 25.29 Z M 86.47 8.01 L 90.73 8.01 Q 90.65 7.77 90.56 7.50 Q 90.26 6.66 89.92 5.96 L 91.73 5.44 Q 92.09 6.13 92.42 6.94 Q 92.68 7.54 92.82 8.01 L 96.63 8.01 L 96.63 9.84 L 93.82 9.84 L 95.79 10.27 Q 95.49 11.02 94.84 12.55 Q 94.84 12.55 94.53 13.28 Q 94.40 13.53 94.29 13.77 L 97.11 13.77 L 97.11 15.60 L 85.86 15.60 L 85.86 13.77 L 88.92 13.77 Q 88.79 13.06 88.45 12.14 Q 88.08 11.16 87.68 10.33 L 89.41 9.88 Q 89.85 10.69 90.60 12.61 Q 90.60 12.61 90.75 13.34 L 89.18 13.77 L 92.37 13.77 Q 92.58 13.32 92.80 12.77 Q 93.10 12.02 93.35 11.25 Q 93.61 10.49 93.78 9.84 L 86.47 9.84 Z M 94.21 22.52 L 94.21 19.18 L 88.90 19.18 L 88.90 22.52 Z" xml:space="preserve" style="font-weight:613;font-size:21.3333px;line-height:1.2;font-family:'Dream Han Sans SC';-inkscape-font-specification:'Dream Han Sans SC weight=613';text-align:start;writing-mode:lr-tb;direction:ltr;text-anchor:start;fill:#ffffff" id="text7" data-original-text="京都府南部" data-original-element="text"/>
</svg>