<?xml version="1.0" ?>
<svg xmlns="http://www.w3.org/2000/svg" xmlns:ns1="http://sodipodi.sourceforge.net/DTD/sodipodi-0.dtd" xmlns:ns2="http://www.inkscape.org/namespaces/inkscape" version="1.1" width="208" height="32" viewBox="0,0,208,32" id="svg7" ns1:docname="1a86991064b312fab6bda7d791667133.svg" ns2:version="1.4.2 (f4327f4, 2025-05-13)">
  <defs id="defs7"/>
  <ns1:namedview id="namedview7" pagecolor="#505050" bordercolor="#eeeeee" borderopacity="1" ns2:showpageshadow="0" ns2:pageopacity="0" ns2:pagecheckerboard="0" ns2:deskcolor="#505050" ns2:zoom="8.5240385" ns2:cx="60.827975" ns2:cy="16.013536" ns2:window-width="1920" ns2:window-height="945" ns2:window-x="-9" ns2:window-y="40" ns2:window-maximized="1" ns2:current-layer="svg7"/>
  <g transform="translate(-240,-164)" id="g7">
    <g data-paper-data="{&quot;isPaintingLayer&quot;:true}" fill-rule="nonzero" stroke="none" stroke-linecap="butt" stroke-linejoin="miter" stroke-miterlimit="10" stroke-dasharray="" stroke-dashoffset="0" style="mix-blend-mode: normal" id="g6">
      <path d="M240,196v-32h208v32z" fill="none" stroke-width="0" id="path1"/>
    </g>
  </g>
  <path d="M 1.21 16.04 L 18.73 16.04 L 18.73 23.51 Q 18.73 24.21 18.35 24.90 Q 18.35 24.90 17.82 25.08 Q 17.33 25.26 15.81 25.34 Q 15.81 25.34 14.72 25.32 Q 14.66 24.98 14.30 24.15 Q 14.30 24.15 14.10 23.82 Q 14.55 23.84 15.48 23.86 Q 15.48 23.86 16.19 23.86 Q 16.19 23.86 16.32 23.86 Q 16.70 23.84 16.70 23.51 L 16.70 17.71 L 3.18 17.71 L 3.18 25.49 L 1.21 25.49 Z M 3.59 10.57 L 16.54 10.57 L 16.54 14.99 L 3.59 14.99 Z M 5.24 18.77 L 14.40 18.77 L 14.40 23.31 L 7.13 23.31 L 7.13 24.29 L 5.24 24.29 Z M 0.51 7.80 L 9.07 7.80 Q 9.03 7.72 9.00 7.61 Q 8.72 6.78 8.49 6.05 L 10.49 5.58 Q 10.80 6.25 11.10 7.08 Q 11.24 7.49 11.35 7.80 L 19.33 7.80 L 19.33 9.53 L 0.51 9.53 Z M 5.59 11.99 L 5.59 13.58 L 14.42 13.58 L 14.42 11.99 Z M 7.13 20.20 L 7.13 21.89 L 12.63 21.89 L 12.63 20.20 Z M 32.19 7.53 L 40.11 7.53 L 40.11 24.61 L 38.06 24.61 L 38.06 23.25 L 34.15 23.25 L 34.15 24.87 L 32.19 24.87 Z M 21.50 14.23 L 25.72 14.23 Q 25.72 13.91 25.72 13.58 L 25.72 10.36 L 24.43 10.36 Q 24.21 10.90 24.00 11.39 Q 23.44 12.58 22.83 13.50 Q 22.66 13.33 22.06 12.89 Q 22.06 12.89 21.42 12.46 Q 21.42 12.46 21.18 12.32 Q 22.10 11.14 23.38 7.57 Q 23.38 7.57 23.72 5.69 L 25.68 6.07 Q 25.43 7.31 25.07 8.49 L 30.97 8.49 L 30.97 10.36 L 27.78 10.36 L 27.78 13.60 Q 27.78 13.91 27.75 14.23 L 31.58 14.23 L 31.58 16.15 L 27.63 16.15 Q 27.61 16.33 27.59 16.53 Q 27.53 16.96 27.45 17.36 Q 27.65 17.55 27.92 17.83 Q 28.37 18.32 29.48 19.52 Q 29.48 19.52 30.55 20.73 Q 30.55 20.73 31.40 21.69 Q 31.40 21.69 31.60 21.93 L 30.25 23.66 Q 29.95 23.21 29.12 22.09 Q 29.12 22.09 28.14 20.84 Q 28.14 20.84 27.65 20.24 Q 27.29 19.79 26.94 19.41 Q 26.90 19.56 26.86 19.71 Q 26.33 21.29 24.30 24.27 Q 24.30 24.27 22.68 25.43 Q 22.55 25.23 22.01 24.64 Q 22.01 24.64 21.46 24.06 Q 21.46 24.06 21.24 23.91 Q 22.76 22.84 24.56 20.26 Q 24.56 20.26 25.00 18.87 Q 25.45 17.51 25.60 16.15 L 21.50 16.15 Z M 38.06 21.35 L 38.06 9.43 L 34.15 9.43 L 34.15 21.35 Z M 43.12 17.53 L 46.42 17.53 L 46.42 6.70 L 59.29 6.70 L 59.29 17.53 L 62.19 17.53 L 62.19 19.34 L 51.45 19.34 Q 50.33 20.62 49.07 21.76 Q 48.47 22.31 47.89 22.78 L 57.25 22.40 Q 57.03 22.17 56.76 21.93 Q 55.81 20.99 54.89 20.24 L 56.60 19.47 Q 57.51 20.22 59.47 22.05 Q 59.47 22.05 61.18 23.82 Q 61.18 23.82 61.71 24.51 L 59.97 25.45 Q 59.47 24.78 58.73 23.96 Q 55.98 24.08 53.95 24.19 Q 51.78 24.31 48.81 24.47 Q 48.81 24.47 46.93 24.59 Q 46.93 24.59 45.81 24.72 Q 45.81 24.72 45.18 24.83 Q 45.18 24.83 44.97 24.92 Q 44.91 24.70 44.69 24.02 Q 44.69 24.02 44.44 23.27 Q 44.44 23.27 44.33 23.01 Q 44.65 22.93 45.40 22.50 Q 45.40 22.50 45.81 22.17 Q 46.12 21.95 47.42 20.79 Q 47.42 20.79 48.21 19.97 Q 48.49 19.67 48.76 19.34 L 43.12 19.34 Z M 48.36 17.53 L 57.25 17.53 L 57.25 15.55 L 48.36 15.55 Z M 57.25 10.34 L 57.25 8.41 L 48.36 8.41 L 48.36 10.34 Z M 57.25 13.89 L 57.25 12.01 L 48.36 12.01 L 48.36 13.89 Z M 66.96 16.94 Q 66.92 16.72 66.67 15.98 Q 66.67 15.98 66.37 15.17 Q 66.37 15.17 66.24 14.89 Q 66.65 14.76 67.41 13.93 Q 67.41 13.93 67.92 13.24 Q 68.18 12.91 68.69 12.14 Q 69.16 11.41 69.73 10.41 L 64.90 10.41 L 64.90 8.47 L 70.79 8.47 Q 70.89 8.25 71.01 8.02 Q 71.64 6.80 72.13 5.54 L 74.31 6.37 Q 73.82 7.42 73.28 8.47 L 82.98 8.47 L 82.98 10.41 L 72.19 10.41 Q 71.40 11.77 70.57 13.01 Q 69.99 13.89 69.42 14.66 L 73.94 14.66 L 73.94 11.71 L 75.99 11.71 L 75.99 14.66 L 82.05 14.66 L 82.05 16.61 L 75.99 16.61 L 75.99 22.91 Q 75.99 23.74 75.59 24.68 Q 75.59 24.68 75.00 24.94 Q 74.45 25.19 72.74 25.32 Q 72.74 25.32 71.58 25.32 Q 71.54 25.02 71.28 24.27 Q 71.28 24.27 70.99 23.53 Q 70.99 23.53 70.83 23.25 Q 71.70 23.27 73.23 23.29 Q 73.23 23.29 73.51 23.27 Q 73.78 23.27 73.94 23.10 Q 73.94 23.10 73.94 22.89 L 73.94 16.61 L 69.38 16.61 Q 68.75 16.61 67.75 16.68 Q 67.75 16.68 67.10 16.83 Q 67.10 16.83 66.96 16.94 Z M 68.55 18.12 L 70.57 18.69 Q 70.06 19.81 68.69 22.03 Q 68.69 22.03 67.18 23.98 Q 67.18 23.98 66.39 24.70 Q 66.20 24.53 65.58 24.02 Q 65.58 24.02 64.94 23.55 Q 64.94 23.55 64.68 23.40 Q 65.88 22.44 67.92 19.62 Q 67.92 19.62 68.55 18.12 Z M 77.48 18.94 L 79.17 18.10 Q 79.95 18.92 81.66 20.82 Q 81.66 20.82 83.12 22.70 Q 83.12 22.70 83.55 23.44 L 81.72 24.41 Q 81.33 23.68 79.91 21.76 Q 79.91 21.76 78.30 19.77 Q 78.30 19.77 77.48 18.94 Z M 97.84 6.78 L 103.36 6.78 L 103.66 6.70 L 105.05 7.57 Q 104.49 9.08 103.15 12.52 Q 103.15 12.52 102.50 13.95 Q 103.87 15.44 104.72 17.98 Q 104.72 17.98 104.72 19.07 Q 104.72 20.09 104.25 21.60 Q 104.25 21.60 103.70 21.99 Q 103.42 22.17 102.72 22.40 Q 102.72 22.40 102.32 22.46 Q 101.95 22.50 101.04 22.50 Q 101.04 22.50 100.57 22.48 Q 100.55 22.09 100.31 21.01 Q 100.31 21.01 100.06 20.60 Q 100.48 20.65 101.22 20.67 Q 101.22 20.67 101.53 20.65 Q 101.76 20.65 102.19 20.54 Q 102.19 20.54 102.36 20.44 Q 102.64 20.24 102.89 19.39 Q 102.89 19.39 102.87 18.85 Q 102.87 17.90 101.93 15.57 Q 101.93 15.57 100.59 14.19 Q 100.91 13.37 101.61 11.52 Q 101.61 11.52 102.25 9.66 Q 102.25 9.66 102.53 8.83 Q 102.57 8.72 102.61 8.59 L 99.63 8.59 L 99.63 25.43 L 97.84 25.43 Z M 86.76 17.49 L 95.95 17.49 L 95.95 25.26 L 93.97 25.26 L 93.97 24.41 L 88.66 24.41 L 88.66 25.41 L 86.76 25.41 Z M 86.23 8.12 L 90.49 8.12 Q 90.41 7.89 90.33 7.61 Q 90.03 6.78 89.68 6.07 L 91.49 5.56 Q 91.86 6.25 92.18 7.06 Q 92.44 7.66 92.59 8.12 L 96.40 8.12 L 96.40 9.96 L 93.59 9.96 L 95.56 10.39 Q 95.25 11.14 94.61 12.67 Q 94.61 12.67 94.30 13.40 Q 94.16 13.65 94.06 13.89 L 96.88 13.89 L 96.88 15.72 L 85.63 15.72 L 85.63 13.89 L 88.68 13.89 Q 88.56 13.18 88.21 12.26 Q 87.85 11.28 87.44 10.45 L 89.17 10.00 Q 89.62 10.81 90.37 12.73 Q 90.37 12.73 90.51 13.46 L 88.94 13.89 L 92.14 13.89 Q 92.35 13.44 92.57 12.89 Q 92.87 12.14 93.12 11.36 Q 93.38 10.60 93.55 9.96 L 86.23 9.96 Z M 93.97 22.64 L 93.97 19.30 L 88.66 19.30 L 88.66 22.64 Z" xml:space="preserve" style="font-weight:613;font-size:21.3333px;line-height:1.2;font-family:'Dream Han Sans SC';-inkscape-font-specification:'Dream Han Sans SC weight=613';text-align:start;writing-mode:lr-tb;direction:ltr;text-anchor:start;fill:#ffffff" id="text7" data-original-text="高知县东部" data-original-element="text"/>
</svg>