<?xml version="1.0" ?>
<svg xmlns="http://www.w3.org/2000/svg" xmlns:ns1="http://sodipodi.sourceforge.net/DTD/sodipodi-0.dtd" xmlns:ns2="http://www.inkscape.org/namespaces/inkscape" version="1.1" width="208" height="32" viewBox="0,0,208,32" id="svg10" ns1:docname="1ab6638662089c91caf74acddfe9f10f.svg" ns2:version="1.4.2 (f4327f4, 2025-05-13)">
  <defs id="defs10"/>
  <ns1:namedview id="namedview10" pagecolor="#505050" bordercolor="#eeeeee" borderopacity="1" ns2:showpageshadow="0" ns2:pageopacity="0" ns2:pagecheckerboard="0" ns2:deskcolor="#505050" ns2:zoom="8.5240385" ns2:cx="43.934574" ns2:cy="16.013536" ns2:window-width="1920" ns2:window-height="945" ns2:window-x="-9" ns2:window-y="40" ns2:window-maximized="1" ns2:current-layer="svg10"/>
  <g transform="translate(-240,-164)" id="g10">
    <g data-paper-data="{&quot;isPaintingLayer&quot;:true}" fill-rule="nonzero" stroke="none" stroke-linecap="butt" stroke-linejoin="miter" stroke-miterlimit="10" stroke-dasharray="" stroke-dashoffset="0" style="mix-blend-mode: normal" id="g9">
      <path d="M240,196v-32h208v32z" fill="none" stroke-width="0" id="path1"/>
    </g>
  </g>
  <path d="M 1.04 10.84 L 4.73 10.84 Q 4.66 10.69 4.62 10.53 Q 4.32 9.69 4.02 9.01 L 5.34 8.46 Q 3.64 8.52 2.04 8.54 Q 2.02 8.17 1.76 7.28 Q 1.76 7.28 1.63 6.97 Q 3.64 6.92 7.92 6.73 Q 7.92 6.73 12.13 6.44 Q 12.13 6.44 15.88 6.09 Q 15.88 6.09 17.35 5.85 L 17.96 7.48 Q 16.37 7.73 12.54 8.09 Q 12.54 8.09 8.29 8.35 Q 8.29 8.35 6.15 8.43 Q 5.83 8.46 5.52 8.46 Q 5.83 9.09 6.13 9.86 Q 6.35 10.41 6.48 10.84 L 9.57 10.84 Q 9.51 10.61 9.42 10.33 Q 9.16 9.50 8.88 8.80 L 10.42 8.27 Q 10.69 8.94 10.98 9.76 Q 11.18 10.37 11.34 10.84 L 13.38 10.84 Q 13.58 10.55 13.79 10.18 Q 14.11 9.61 14.68 8.43 Q 14.68 8.43 14.88 7.97 L 16.65 8.52 Q 16.16 9.37 15.60 10.23 Q 15.39 10.55 15.21 10.84 L 19.18 10.84 L 19.18 14.60 L 17.53 14.60 L 17.53 16.27 L 8.01 16.27 Q 7.80 17.01 7.54 17.69 L 15.50 17.69 L 15.80 17.63 L 16.90 18.39 Q 15.86 20.36 14.13 21.71 Q 13.81 21.96 13.48 22.19 Q 13.94 22.34 14.43 22.50 Q 16.76 23.13 19.34 23.39 Q 19.16 23.60 18.77 24.22 Q 18.77 24.22 18.40 24.88 Q 18.40 24.88 18.29 25.16 Q 15.65 24.80 13.32 24.03 Q 12.38 23.71 11.51 23.32 Q 10.89 23.62 10.23 23.86 Q 8.07 24.68 5.75 25.14 Q 5.68 24.90 5.36 24.27 Q 5.36 24.27 4.99 23.66 Q 4.99 23.66 4.83 23.48 Q 7.07 23.13 9.12 22.44 Q 9.35 22.36 9.59 22.28 Q 9.35 22.15 9.14 22.00 Q 7.72 21.02 6.62 19.76 Q 6.46 20.10 6.26 20.44 Q 4.54 23.41 1.49 25.21 Q 1.37 25.01 0.92 24.41 Q 0.92 24.41 0.41 23.84 Q 0.41 23.84 0.23 23.66 Q 3.10 22.15 4.66 19.47 Q 5.50 18.04 6.05 16.27 L 2.69 16.27 L 2.69 14.60 L 1.04 14.60 Z M 6.84 12.93 L 8.74 13.17 Q 8.61 13.89 8.46 14.58 L 17.44 14.58 L 17.44 12.55 L 2.72 12.55 L 2.72 14.58 L 6.52 14.58 Q 6.68 13.79 6.84 12.93 Z M 8.48 19.42 Q 9.29 20.18 10.36 20.81 Q 10.91 21.12 11.53 21.40 Q 12.15 21.06 12.73 20.67 Q 13.54 20.10 14.13 19.42 Z M 28.85 11.38 L 30.35 11.38 Q 30.22 10.88 29.99 10.21 Q 29.71 9.46 29.46 8.84 L 30.99 8.41 Q 31.29 9.01 31.86 10.46 Q 31.86 10.46 32.01 10.96 L 30.78 11.38 L 36.42 11.38 Q 36.71 10.96 37.01 10.43 Q 37.36 9.78 38.05 8.41 Q 38.05 8.41 38.26 7.84 L 40.14 8.41 Q 39.56 9.39 38.92 10.39 Q 38.58 10.93 38.28 11.38 L 40.61 11.38 L 40.61 12.98 L 33.33 12.98 Q 33.27 13.66 33.18 14.38 L 41.10 14.38 L 41.10 16.05 L 33.00 16.05 Q 32.90 16.62 32.78 17.23 L 38.33 17.23 L 38.66 17.18 L 39.78 17.63 Q 39.11 19.91 37.85 21.44 Q 37.48 21.91 37.05 22.32 Q 37.38 22.50 37.75 22.64 Q 39.48 23.39 41.55 23.75 Q 41.23 24.05 40.52 25.03 Q 40.52 25.03 40.33 25.41 Q 37.60 24.84 35.51 23.56 Q 35.22 23.77 34.87 23.94 Q 33.16 24.90 31.11 25.41 Q 31.01 25.21 30.62 24.62 Q 30.62 24.62 30.19 24.07 Q 30.19 24.07 30.01 23.92 Q 31.97 23.50 33.57 22.71 Q 33.78 22.60 34.00 22.48 Q 32.80 21.49 31.92 20.26 Q 31.82 20.51 31.72 20.79 Q 31.15 22.15 29.40 24.52 Q 29.40 24.52 28.13 25.43 Q 27.91 25.07 27.12 24.24 Q 27.12 24.24 26.77 24.01 Q 27.96 23.19 29.54 21.08 Q 29.54 21.08 30.54 18.63 Q 30.54 18.63 30.82 17.33 Q 30.97 16.66 31.07 16.05 L 28.26 16.05 L 28.26 14.38 L 31.27 14.38 Q 31.33 13.66 31.39 12.98 L 28.85 12.98 Z M 21.54 9.90 L 23.39 9.90 Q 23.48 9.35 23.54 8.80 Q 23.76 7.09 23.88 5.55 L 25.76 5.75 Q 25.57 7.34 25.31 9.11 Q 25.25 9.52 25.18 9.90 L 26.96 9.90 L 27.28 9.86 L 28.40 9.99 Q 28.22 14.13 27.51 17.11 Q 27.18 18.53 26.74 19.69 Q 26.89 19.83 27.02 19.96 Q 27.96 20.83 28.49 21.57 L 27.16 23.05 Q 26.69 22.36 25.91 21.53 Q 25.76 21.83 25.59 22.09 Q 24.35 24.09 22.52 25.33 Q 22.31 24.97 21.64 24.05 Q 21.64 24.05 21.34 23.77 Q 22.97 22.83 24.07 21.00 Q 24.31 20.61 24.52 20.18 Q 24.18 19.87 23.80 19.57 Q 22.76 18.65 21.75 17.92 Q 22.11 16.84 22.78 13.87 Q 22.78 13.87 23.05 12.18 Q 23.09 11.98 23.11 11.74 L 21.54 11.74 Z M 39.27 5.71 L 40.41 7.19 Q 39.29 7.43 36.47 7.82 Q 36.47 7.82 33.44 8.07 Q 33.44 8.07 30.37 8.22 Q 30.37 8.22 28.96 8.27 Q 28.91 7.92 28.64 7.05 Q 28.64 7.05 28.49 6.73 Q 29.88 6.68 32.86 6.52 Q 32.86 6.52 35.75 6.24 Q 35.75 6.24 38.31 5.91 Q 38.31 5.91 39.27 5.71 Z M 25.27 18.41 Q 25.57 17.50 25.82 16.48 Q 26.32 14.36 26.53 11.74 L 24.88 11.74 Q 24.82 12.18 24.74 12.63 Q 24.41 14.40 24.05 15.97 Q 23.90 16.62 23.74 17.23 Q 24.37 17.69 25.04 18.23 Q 25.14 18.31 25.27 18.41 Z M 32.94 18.74 Q 33.65 19.89 34.74 20.81 Q 35.10 21.12 35.51 21.42 Q 35.91 21.06 36.28 20.63 Q 37.03 19.83 37.52 18.74 Z M 33.21 8.41 L 34.81 8.13 Q 35.02 8.80 35.36 10.33 Q 35.36 10.33 35.42 10.86 L 33.74 11.25 Q 33.69 10.69 33.39 9.09 Q 33.39 9.09 33.21 8.41 Z M 43.24 17.41 L 46.54 17.41 L 46.54 6.58 L 59.40 6.58 L 59.40 17.41 L 62.31 17.41 L 62.31 19.23 L 51.57 19.23 Q 50.44 20.51 49.18 21.64 Q 48.59 22.19 48.01 22.66 L 57.37 22.28 Q 57.14 22.05 56.88 21.81 Q 55.92 20.87 55.01 20.12 L 56.72 19.35 Q 57.63 20.10 59.59 21.93 Q 59.59 21.93 61.30 23.71 Q 61.30 23.71 61.83 24.39 L 60.09 25.33 Q 59.59 24.66 58.85 23.84 Q 56.10 23.97 54.07 24.07 Q 51.89 24.19 48.92 24.35 Q 48.92 24.35 47.05 24.48 Q 47.05 24.48 45.92 24.60 Q 45.92 24.60 45.30 24.72 Q 45.30 24.72 45.09 24.80 Q 45.03 24.58 44.81 23.90 Q 44.81 23.90 44.56 23.15 Q 44.56 23.15 44.44 22.89 Q 44.77 22.81 45.52 22.38 Q 45.52 22.38 45.92 22.05 Q 46.24 21.83 47.54 20.67 Q 47.54 20.67 48.33 19.85 Q 48.61 19.55 48.88 19.23 L 43.24 19.23 Z M 48.48 17.41 L 57.37 17.41 L 57.37 15.43 L 48.48 15.43 Z M 57.37 10.23 L 57.37 8.29 L 48.48 8.29 L 48.48 10.23 Z M 57.37 13.77 L 57.37 11.89 L 48.48 11.89 L 48.48 13.77 Z M 67.91 11.81 L 80.12 11.81 L 80.12 13.68 L 75.28 13.68 L 75.28 16.64 L 83.32 16.64 L 83.32 18.57 L 75.28 18.57 L 75.28 22.85 Q 75.28 23.75 74.74 24.66 Q 74.74 24.66 74.06 24.92 Q 73.39 25.14 71.37 25.27 Q 71.37 25.27 69.92 25.27 Q 69.88 24.97 69.58 24.24 Q 69.58 24.24 69.24 23.52 Q 69.24 23.52 69.07 23.26 Q 69.81 23.28 71.25 23.30 Q 71.25 23.30 72.33 23.28 Q 72.33 23.28 72.55 23.28 Q 72.88 23.26 73.12 23.09 Q 73.12 23.09 73.12 22.81 L 73.12 18.57 L 64.88 18.57 L 64.88 16.64 L 73.12 16.64 L 73.12 13.68 L 67.91 13.68 Z M 64.84 7.77 L 73.06 7.77 Q 73.04 7.71 73.02 7.64 Q 72.69 6.83 72.33 6.17 L 74.34 5.62 Q 74.72 6.26 75.08 7.03 Q 75.28 7.43 75.40 7.77 L 83.28 7.77 L 83.28 12.57 L 81.20 12.57 L 81.20 9.63 L 66.83 9.63 L 66.83 12.57 L 64.84 12.57 Z M 95.92 7.56 L 104.16 7.56 L 104.16 24.24 L 102.09 24.24 L 102.09 22.64 L 97.89 22.64 L 97.89 24.39 L 95.92 24.39 Z M 85.77 11.89 L 89.80 11.89 L 89.80 8.68 Q 89.65 8.72 89.51 8.74 Q 87.92 8.99 86.48 9.16 Q 86.41 8.82 86.07 7.90 Q 86.07 7.90 85.90 7.58 Q 87.31 7.39 90.29 6.83 Q 90.29 6.83 92.93 6.13 Q 92.93 6.13 93.90 5.77 L 95.23 7.34 Q 94.05 7.77 92.56 8.11 Q 92.19 8.22 91.81 8.29 L 91.81 11.89 L 95.29 11.89 L 95.29 13.77 L 91.81 13.77 L 91.81 14.24 Q 91.98 14.40 92.22 14.66 Q 92.60 15.09 93.50 16.11 Q 93.50 16.11 94.41 17.16 Q 94.41 17.16 95.09 17.99 Q 95.09 17.99 95.27 18.18 L 94.07 19.87 Q 93.79 19.40 92.89 18.08 Q 92.89 18.08 92.38 17.37 Q 92.09 16.94 91.81 16.56 L 91.81 25.35 L 89.80 25.35 L 89.80 16.64 Q 89.44 17.48 89.06 18.29 Q 88.43 19.55 87.05 21.75 Q 87.05 21.75 86.33 22.54 Q 86.17 22.09 85.54 21.02 Q 85.54 21.02 85.26 20.65 Q 85.94 19.96 87.25 18.08 Q 87.25 18.08 88.43 15.92 Q 88.43 15.92 88.90 14.79 Q 89.12 14.28 89.29 13.77 L 85.77 13.77 Z M 102.09 20.73 L 102.09 9.50 L 97.89 9.50 L 97.89 20.73 Z M 114.87 11.47 L 125.28 11.47 L 125.28 11.63 Q 125.26 11.81 125.26 12.23 Q 125.26 12.23 125.26 12.36 Q 125.17 14.26 125.09 15.79 L 126.73 15.79 L 126.73 17.63 L 124.99 17.63 Q 124.89 19.29 124.77 20.47 L 126.15 20.47 L 126.15 22.22 L 124.54 22.22 Q 124.42 22.77 124.34 23.17 Q 124.13 23.94 123.85 24.29 Q 123.51 24.74 122.74 25.07 Q 122.74 25.07 122.25 25.16 Q 121.78 25.21 120.33 25.21 Q 120.33 25.21 119.54 25.16 Q 119.52 24.78 119.27 23.82 Q 119.27 23.82 119.03 23.48 Q 119.80 23.54 121.10 23.58 Q 121.10 23.58 121.39 23.58 Q 121.67 23.58 122.04 23.43 Q 122.04 23.43 122.18 23.24 Q 122.42 23.01 122.59 22.28 Q 122.59 22.26 122.61 22.22 L 113.37 22.22 Q 113.59 21.17 113.80 19.85 Q 113.98 18.78 114.14 17.63 L 112.18 17.63 L 112.18 15.79 L 114.38 15.79 Q 114.49 14.99 114.59 14.17 Q 114.77 12.75 114.87 11.47 Z M 115.40 5.55 L 117.34 6.05 Q 117.05 6.97 116.66 7.88 L 126.17 7.88 L 126.17 9.69 L 115.83 9.69 Q 115.44 10.43 115.02 11.14 Q 114.34 12.30 113.61 13.17 Q 113.42 13.00 112.78 12.57 Q 112.78 12.57 112.12 12.16 Q 112.12 12.16 111.88 12.04 Q 112.63 11.25 113.95 9.16 Q 113.95 9.16 115.02 6.77 Q 115.02 6.77 115.40 5.55 Z M 107.53 23.92 Q 107.95 23.09 108.99 20.79 Q 108.99 20.79 110.05 18.23 Q 110.05 18.23 110.48 16.99 L 112.03 18.10 Q 111.65 19.23 110.70 21.66 Q 110.70 21.66 109.73 24.01 Q 109.73 24.01 109.28 25.01 Z M 122.89 20.47 Q 122.89 20.36 122.91 20.26 Q 123.04 19.16 123.14 17.63 L 118.78 17.63 Q 119.35 18.08 119.99 18.67 Q 120.69 19.35 121.08 19.89 L 120.25 20.47 Z M 108.09 7.24 L 109.22 5.87 Q 109.83 6.15 111.27 6.92 Q 111.27 6.92 112.55 7.71 Q 112.55 7.71 112.94 8.05 L 111.78 9.59 Q 111.39 9.25 110.13 8.39 Q 110.13 8.39 108.70 7.56 Q 108.70 7.56 108.09 7.24 Z M 117.48 18.21 L 118.41 17.63 L 116.00 17.63 Q 115.85 18.82 115.68 19.91 Q 115.64 20.18 115.59 20.47 L 119.74 20.47 Q 119.39 20.02 118.84 19.47 Q 118.15 18.76 117.48 18.21 Z M 106.91 13.40 L 108.02 12.02 Q 108.62 12.30 109.99 13.04 Q 109.99 13.04 111.17 13.81 Q 111.17 13.81 111.56 14.15 L 110.39 15.68 Q 110.05 15.34 108.85 14.52 Q 108.85 14.52 107.51 13.71 Q 107.51 13.71 106.91 13.40 Z M 123.26 15.79 Q 123.30 14.60 123.36 13.19 L 119.33 13.19 Q 119.84 13.62 120.39 14.13 Q 121.04 14.77 121.37 15.24 L 120.61 15.79 Z M 118.05 13.75 L 118.86 13.19 L 116.56 13.19 Q 116.51 13.71 116.44 14.24 Q 116.34 15.03 116.26 15.79 L 120.07 15.79 Q 119.78 15.39 119.29 14.89 Q 118.66 14.24 118.05 13.75 Z M 135.78 16.05 L 146.38 16.05 L 146.38 25.31 L 144.35 25.31 L 144.35 24.17 L 137.72 24.17 L 137.72 25.41 L 135.78 25.41 Z M 136.90 6.56 L 145.04 6.56 L 145.04 12.40 Q 145.04 12.89 145.16 13.28 Q 145.16 13.28 145.39 13.28 L 146.59 13.28 Q 146.81 13.28 147.44 13.24 Q 147.44 13.24 147.64 13.17 Q 147.68 13.55 147.75 14.42 Q 147.75 14.42 147.79 14.77 Q 147.57 14.83 146.95 14.89 Q 146.95 14.89 146.63 14.89 L 145.12 14.89 Q 144.27 14.89 143.37 14.36 Q 143.37 14.36 143.07 13.24 Q 143.07 13.24 143.07 12.36 L 143.07 8.43 L 138.85 8.43 L 138.85 8.99 Q 138.85 10.12 138.23 12.65 Q 138.23 12.65 136.59 15.03 Q 136.59 15.03 135.01 15.94 Q 134.90 15.71 134.39 15.11 Q 134.39 15.11 133.88 14.54 Q 133.88 14.54 133.68 14.38 Q 135.07 13.62 136.45 11.76 Q 136.45 11.76 136.90 9.82 Q 136.90 9.82 136.90 8.92 Z M 144.35 22.30 L 144.35 17.90 L 137.72 17.90 L 137.72 22.30 Z M 128.61 23.66 Q 129.20 22.87 130.69 20.65 Q 130.69 20.65 132.26 18.16 Q 132.26 18.16 132.93 16.97 L 134.37 18.39 Q 133.77 19.49 132.38 21.83 Q 132.38 21.83 130.98 24.11 Q 130.98 24.11 130.29 25.14 Z M 129.20 7.32 L 130.47 6.05 Q 131.12 6.38 132.62 7.30 Q 132.62 7.30 133.97 8.22 Q 133.97 8.22 134.41 8.62 L 133.07 10.06 Q 132.66 9.65 131.34 8.66 Q 131.34 8.66 129.87 7.71 Q 129.87 7.71 129.20 7.32 Z M 128.07 13.10 L 129.33 11.81 Q 130.00 12.12 131.49 12.96 Q 131.49 12.96 132.87 13.83 Q 132.87 13.83 133.32 14.19 L 132.00 15.64 Q 131.59 15.26 130.25 14.36 Q 130.25 14.36 128.76 13.44 Q 128.76 13.44 128.07 13.10 Z M 154.85 15.58 L 168.01 15.58 L 168.01 17.31 L 162.36 17.31 L 162.36 19.31 L 169.08 19.31 L 169.08 21.08 L 162.36 21.08 L 162.36 25.37 L 160.25 25.37 L 160.25 21.08 L 153.82 21.08 L 153.82 19.31 L 160.25 19.31 L 160.25 17.31 L 154.85 17.31 Z M 151.27 12.26 L 168.76 12.26 L 168.76 14.05 L 153.29 14.05 L 153.29 16.35 Q 153.29 17.33 153.10 19.61 Q 153.10 19.61 152.61 21.96 Q 152.61 21.96 151.72 24.15 Q 151.72 24.15 150.99 25.05 Q 150.84 24.86 150.24 24.35 Q 150.24 24.35 149.58 23.86 Q 149.58 23.86 149.36 23.75 Q 150.24 22.66 151.03 20.06 Q 151.03 20.06 151.27 17.43 Q 151.27 17.43 151.27 16.33 Z M 151.35 6.36 L 153.39 6.36 L 153.39 8.97 L 158.37 8.97 L 158.37 5.55 L 160.50 5.55 L 160.50 8.97 L 165.58 8.97 L 165.58 6.36 L 167.69 6.36 L 167.69 10.78 L 151.35 10.78 Z" xml:space="preserve" style="font-weight:613;font-size:21.3333px;line-height:1.2;font-family:'Dream Han Sans SC';-inkscape-font-specification:'Dream Han Sans SC weight=613';text-align:start;writing-mode:lr-tb;direction:ltr;text-anchor:start;fill:#ffffff" id="text10" data-original-text="爱媛县宇和海沿岸" data-original-element="text"/>
</svg>