<?xml version="1.0" encoding="UTF-8" standalone="no"?>
<svg
   version="1.1"
   width="100"
   height="100"
   viewBox="0,0,100,100"
   id="svg5"
   sodipodi:docname="1ae7694a1fa5d08aeca47a1ff1f609fb.svg"
   inkscape:version="1.4.2 (f4327f4, 2025-05-13)"
   xml:space="preserve"
   xmlns:inkscape="http://www.inkscape.org/namespaces/inkscape"
   xmlns:sodipodi="http://sodipodi.sourceforge.net/DTD/sodipodi-0.dtd"
   xmlns="http://www.w3.org/2000/svg"
   xmlns:svg="http://www.w3.org/2000/svg"><defs
     id="defs5" /><sodipodi:namedview
     id="namedview5"
     pagecolor="#505050"
     bordercolor="#eeeeee"
     borderopacity="1"
     inkscape:showpageshadow="0"
     inkscape:pageopacity="0"
     inkscape:pagecheckerboard="0"
     inkscape:deskcolor="#505050"
     inkscape:zoom="3.655"
     inkscape:cx="61.422709"
     inkscape:cy="40.902873"
     inkscape:window-width="1084"
     inkscape:window-height="971"
     inkscape:window-x="1059"
     inkscape:window-y="133"
     inkscape:window-maximized="0"
     inkscape:current-layer="svg5" /><g
     transform="translate(-190,-130)"
     id="g5"><g
       data-paper-data="{&quot;isPaintingLayer&quot;:true}"
       fill-rule="nonzero"
       stroke-linecap="butt"
       stroke-linejoin="miter"
       stroke-miterlimit="10"
       stroke-dasharray=""
       stroke-dashoffset="0"
       style="mix-blend-mode: normal"
       id="g4"><path
         d="M190,230v-100h100v100z"
         fill="none"
         stroke="#959196"
         stroke-width="0"
         id="path1" /><path
         d="M190,230v-100h100v100z"
         fill="none"
         stroke="#959196"
         stroke-width="0"
         id="path2" /></g></g><path
     d="m 36.427756,33.718413 2.97,0.46 q -0.37,2.31 -0.98,4.48 h 12.37 v 2.91 h -6.75 v 7.3 h 7.94 v 2.92 h -7.94 v 11.61 h -3.06 v -11.61 h -8.49 v -2.92 h 8.49 v -7.3 h -3.53 q -1.08,2.81 -2.46,4.8 -0.32,-0.22 -1.34,-0.77 0,0 -1.06,-0.47 0,0 -0.38,-0.17 1.08,-1.31 2.69,-4.86 0,0 1.2,-4.19 z m -13.98,9.86 h 7.84 v 13.71 l 3.06,-2.02 q 0.14,0.61 0.58,2.11 0,0 0.19,0.45 -1.91,1.35 -4.34,3.07 0,0 -1.35,1 0,0 -0.64,0.57 0,0 -0.19,0.25 -0.09,-0.39 -0.67,-1.43 0,0 -0.64,-1 0,0 -0.26,-0.32 0.45,-0.29 1.34,-1.64 0,0 0,-1.01 v -10.81 h -4.92 z m 2.37,-7.29 1.94,-1.82 q 0.87,0.71 2.83,2.43 0,0 1.72,1.7 0,0 0.51,0.67 l -2.08,2.14 q -0.51,-0.7 -2.17,-2.5 0,0 -1.89,-1.86 z"
     xml:space="preserve"
     style="font-weight:613;font-size:32px;line-height:1.2;font-family:'Dream Han Sans SC';-inkscape-font-specification:'Dream Han Sans SC weight=613';text-align:start;writing-mode:lr-tb;direction:ltr;text-anchor:start;fill:#ff0000;fill-opacity:1"
     id="text5"
     data-original-text="许"
     data-original-element="text" /></svg>
