<?xml version="1.0" ?>
<svg xmlns="http://www.w3.org/2000/svg" xmlns:ns1="http://sodipodi.sourceforge.net/DTD/sodipodi-0.dtd" xmlns:ns2="http://www.inkscape.org/namespaces/inkscape" version="1.1" width="208" height="32" viewBox="0,0,208,32" id="svg9" ns1:docname="1aec7eb8bbbbcb1c2a17d9943058c805.svg" ns2:version="1.4.2 (f4327f4, 2025-05-13)">
  <defs id="defs9"/>
  <ns1:namedview id="namedview9" pagecolor="#505050" bordercolor="#eeeeee" borderopacity="1" ns2:showpageshadow="0" ns2:pageopacity="0" ns2:pagecheckerboard="0" ns2:deskcolor="#505050" ns2:zoom="8.5240385" ns2:cx="68.688099" ns2:cy="16.013536" ns2:window-width="1920" ns2:window-height="945" ns2:window-x="-9" ns2:window-y="40" ns2:window-maximized="1" ns2:current-layer="svg9"/>
  <g transform="translate(-240,-164)" id="g9">
    <g data-paper-data="{&quot;isPaintingLayer&quot;:true}" fill-rule="nonzero" stroke="none" stroke-linecap="butt" stroke-linejoin="miter" stroke-miterlimit="10" stroke-dasharray="" stroke-dashoffset="0" style="mix-blend-mode: normal" id="g8">
      <path d="M240,196v-32h208v32z" fill="none" stroke-width="0" id="path1"/>
    </g>
  </g>
  <path d="M 8.57 9.54 L 13.11 9.54 L 13.11 6.39 L 15.07 6.39 L 15.07 9.54 L 19.73 9.54 L 19.73 11.33 L 15.07 11.33 L 15.07 14.29 L 17.78 14.29 L 18.12 14.20 L 19.36 14.67 Q 18.77 17.13 17.69 19.01 Q 16.74 20.71 15.48 22.00 Q 17.42 23.59 20.11 24.38 Q 19.89 24.57 19.38 25.19 Q 19.38 25.19 18.96 25.83 Q 18.96 25.83 18.81 26.09 Q 16.01 25.13 13.99 23.32 Q 13.03 24.06 11.96 24.64 Q 10.18 25.58 8.18 26.17 Q 8.01 25.81 7.41 24.81 Q 7.41 24.81 7.13 24.48 Q 9.00 24.04 10.63 23.20 Q 11.73 22.65 12.66 21.94 Q 10.67 19.56 9.53 16.21 L 10.14 16.04 L 8.86 16.04 L 8.86 14.29 L 13.11 14.29 L 13.11 11.33 L 8.57 11.33 Z M 0.78 10.66 L 2.32 10.66 L 2.32 20.69 L 3.61 20.54 L 3.61 6.65 L 5.28 6.65 L 5.28 20.35 L 6.62 20.20 L 6.62 10.66 L 8.10 10.66 L 8.10 22.93 L 6.62 22.93 L 6.62 21.82 L 0.78 22.59 Z M 14.11 20.67 Q 15.15 19.62 15.94 18.28 Q 16.57 17.26 17.00 16.04 L 11.40 16.04 Q 12.34 18.68 14.11 20.67 Z M 21.83 20.96 L 30.35 20.96 L 30.35 19.45 L 24.37 19.45 L 24.37 8.42 L 29.15 8.42 Q 29.36 8.02 29.56 7.53 Q 29.85 6.84 30.03 6.33 L 32.46 6.55 Q 32.05 7.27 31.62 7.93 Q 31.46 8.19 31.31 8.42 L 37.88 8.42 L 37.88 13.16 L 26.44 13.16 L 26.44 14.57 L 38.58 14.57 L 38.58 19.45 L 32.46 19.45 L 32.46 20.96 L 41.04 20.96 L 41.04 22.78 L 32.46 22.78 L 32.46 26.19 L 30.35 26.19 L 30.35 22.78 L 21.83 22.78 Z M 26.44 17.89 L 36.54 17.89 L 36.54 16.12 L 26.44 16.12 Z M 26.44 9.98 L 26.44 11.60 L 35.85 11.60 L 35.85 9.98 Z M 43.24 18.23 L 46.54 18.23 L 46.54 7.40 L 59.40 7.40 L 59.40 18.23 L 62.31 18.23 L 62.31 20.05 L 51.57 20.05 Q 50.44 21.33 49.18 22.46 Q 48.59 23.02 48.01 23.48 L 57.37 23.10 Q 57.14 22.87 56.88 22.63 Q 55.92 21.69 55.01 20.94 L 56.72 20.17 Q 57.63 20.92 59.59 22.76 Q 59.59 22.76 61.30 24.53 Q 61.30 24.53 61.83 25.21 L 60.09 26.15 Q 59.59 25.48 58.85 24.66 Q 56.10 24.79 54.07 24.89 Q 51.89 25.02 48.92 25.17 Q 48.92 25.17 47.05 25.30 Q 47.05 25.30 45.92 25.42 Q 45.92 25.42 45.30 25.54 Q 45.30 25.54 45.09 25.62 Q 45.03 25.40 44.81 24.72 Q 44.81 24.72 44.56 23.97 Q 44.56 23.97 44.44 23.71 Q 44.77 23.63 45.52 23.20 Q 45.52 23.20 45.92 22.87 Q 46.24 22.65 47.54 21.50 Q 47.54 21.50 48.33 20.67 Q 48.61 20.37 48.88 20.05 L 43.24 20.05 Z M 48.48 18.23 L 57.37 18.23 L 57.37 16.26 L 48.48 16.26 Z M 57.37 11.05 L 57.37 9.11 L 48.48 9.11 L 48.48 11.05 Z M 57.37 14.59 L 57.37 12.71 L 48.48 12.71 L 48.48 14.59 Z M 64.74 7.57 L 77.64 7.57 Q 77.64 10.52 77.77 13.03 Q 77.99 12.84 78.19 12.67 Q 79.17 11.78 81.02 9.89 Q 81.02 9.89 81.65 9.06 L 83.49 10.05 Q 82.65 10.94 80.67 12.80 Q 80.67 12.80 79.69 13.65 Q 79.27 14.02 78.86 14.33 Q 79.29 14.57 79.76 14.80 Q 80.92 15.44 83.04 16.75 Q 83.04 16.75 83.70 17.30 L 82.65 18.90 Q 82.02 18.32 79.97 16.97 Q 79.97 16.97 78.78 16.30 Q 78.37 16.06 77.99 15.85 Q 78.15 17.70 78.48 19.17 Q 78.90 21.29 80.45 23.59 Q 80.45 23.59 81.63 23.57 Q 82.06 23.57 82.42 21.65 Q 82.42 21.65 82.49 19.88 Q 82.83 20.25 83.68 20.92 Q 83.68 20.92 84.02 21.12 Q 83.91 22.84 83.36 24.83 Q 83.36 24.83 82.38 25.66 Q 82.38 25.66 81.55 25.68 Q 79.69 25.68 77.38 23.12 Q 77.38 23.12 76.13 18.36 Q 76.13 18.36 75.89 15.04 Q 75.73 12.56 75.64 9.66 L 64.74 9.66 Z M 94.35 21.41 L 98.83 21.41 L 98.83 20.09 L 95.03 20.09 L 95.03 13.05 L 104.80 13.05 L 104.80 20.09 L 100.66 20.09 L 100.66 21.41 L 105.33 21.41 L 105.33 23.10 L 100.66 23.10 L 100.66 26.19 L 98.83 26.19 L 98.83 23.10 L 94.35 23.10 Z M 90.59 19.58 L 91.44 19.28 Q 91.81 19.92 92.13 20.69 Q 92.28 21.08 92.40 21.39 Q 92.40 21.31 92.40 21.22 Q 92.49 20.20 92.58 18.68 L 87.45 18.68 L 87.45 18.66 L 86.50 18.66 L 86.50 7.22 L 94.05 7.22 L 94.05 8.89 L 91.51 8.89 L 91.51 10.52 L 93.60 10.52 L 93.60 12.07 L 91.51 12.07 L 91.51 13.80 L 93.60 13.80 L 93.60 15.36 L 91.51 15.36 L 91.51 17.09 L 94.31 17.09 L 94.28 17.34 Q 94.28 17.62 94.26 17.81 Q 94.13 20.35 93.85 23.46 Q 93.85 23.46 93.50 25.11 Q 93.50 25.11 93.22 25.42 Q 92.95 25.75 92.36 26.03 Q 92.36 26.03 91.95 26.07 Q 91.64 26.11 90.55 26.11 Q 90.55 26.11 89.95 26.09 Q 89.95 25.72 89.72 24.85 Q 89.72 24.85 89.53 24.53 Q 90.08 24.57 90.98 24.61 Q 90.98 24.61 91.18 24.61 Q 91.40 24.61 91.68 24.53 Q 91.68 24.53 91.81 24.38 Q 92.00 24.14 92.15 23.42 Q 92.24 22.93 92.32 22.12 L 91.66 22.37 Q 91.55 21.80 90.93 20.22 Q 90.93 20.22 90.59 19.58 Z M 100.28 7.14 L 104.86 7.14 L 104.86 12.09 L 100.28 12.09 Z M 94.86 7.14 L 99.40 7.14 L 99.40 12.09 L 94.86 12.09 Z M 86.35 19.70 L 87.50 20.07 Q 87.41 20.78 87.15 22.57 Q 87.15 22.57 86.82 24.28 Q 86.82 24.28 86.62 24.91 L 85.43 24.46 Q 85.64 23.83 86.01 22.16 Q 86.01 22.16 86.26 20.41 Q 86.26 20.41 86.35 19.70 Z M 87.86 20.05 L 88.82 19.94 Q 88.98 20.88 89.12 23.08 Q 89.12 23.08 89.10 23.87 L 88.10 24.02 Q 88.14 23.20 87.99 21.01 Q 87.99 21.01 87.86 20.05 Z M 101.64 8.64 L 101.64 10.60 L 103.45 10.60 L 103.45 8.64 Z M 96.20 8.64 L 96.20 10.60 L 98.00 10.60 L 98.00 8.64 Z M 89.25 19.88 L 90.16 19.70 Q 90.47 20.54 90.89 22.46 Q 90.89 22.46 90.95 23.14 L 89.98 23.36 Q 89.93 22.67 89.51 20.71 Q 89.51 20.71 89.25 19.88 Z M 100.66 18.62 L 103.07 18.62 L 103.07 17.23 L 100.66 17.23 Z M 100.66 14.51 L 100.66 15.87 L 103.07 15.87 L 103.07 14.51 Z M 89.91 13.80 L 89.91 12.07 L 88.16 12.07 L 88.16 13.80 Z M 88.16 17.09 L 89.91 17.09 L 89.91 15.36 L 88.16 15.36 Z M 96.67 17.23 L 96.67 18.62 L 98.83 18.62 L 98.83 17.23 Z M 96.67 14.51 L 96.67 15.87 L 98.83 15.87 L 98.83 14.51 Z M 89.91 10.52 L 89.91 8.89 L 88.16 8.89 L 88.16 10.52 Z M 119.48 6.39 L 121.37 6.39 L 121.37 11.54 L 123.73 10.54 L 124.09 10.23 L 124.44 9.96 L 125.88 10.50 L 125.79 10.83 Q 125.79 12.35 125.77 14.93 Q 125.77 14.93 125.73 16.95 Q 125.73 16.95 125.66 18.34 Q 125.66 18.34 125.60 18.66 Q 125.54 19.35 124.95 20.07 Q 124.95 20.07 124.47 20.22 Q 124.02 20.39 122.85 20.45 Q 122.85 20.45 122.38 20.45 Q 122.34 20.05 122.08 19.05 Q 122.08 19.05 121.93 18.72 Q 122.25 18.75 123.02 18.77 Q 123.02 18.77 123.16 18.77 Q 123.40 18.77 123.68 18.56 Q 123.68 18.56 123.75 18.23 Q 123.79 18.05 123.83 16.85 Q 123.83 16.85 123.85 14.91 Q 123.85 14.91 123.85 13.57 Q 123.85 13.05 123.85 12.52 L 121.37 13.59 L 121.37 21.33 L 119.48 21.33 L 119.48 14.39 L 117.09 15.42 L 117.09 22.51 Q 117.09 23.10 117.30 23.71 Q 117.30 23.71 118.01 23.93 Q 118.01 23.93 118.68 23.93 L 123.40 23.93 Q 124.02 23.93 124.62 23.46 Q 124.62 23.46 124.91 22.22 Q 124.91 22.22 124.99 21.05 Q 125.32 21.29 126.37 21.71 Q 126.37 21.71 126.78 21.80 Q 126.64 23.30 126.01 25.00 Q 126.01 25.00 124.70 25.75 Q 124.70 25.75 123.53 25.75 L 118.56 25.75 Q 117.26 25.75 115.75 25.19 Q 115.75 25.19 115.14 23.77 Q 115.14 23.77 115.14 22.48 L 115.14 16.26 L 113.69 16.87 L 112.92 15.10 L 115.14 14.16 L 115.14 8.42 L 117.09 8.42 L 117.09 13.35 L 119.48 12.33 Z M 106.89 11.45 L 109.54 11.45 L 109.54 6.65 L 111.43 6.65 L 111.43 11.45 L 113.80 11.45 L 113.80 13.35 L 111.43 13.35 L 111.43 19.05 Q 112.55 18.58 113.67 18.11 L 114.12 19.90 Q 112.41 20.71 108.91 22.33 Q 108.91 22.33 107.47 22.97 L 106.67 20.94 Q 107.53 20.63 108.68 20.17 Q 109.11 20.01 109.54 19.82 L 109.54 13.35 L 106.89 13.35 Z M 128.72 9.98 L 137.98 9.98 Q 137.76 9.40 137.42 8.64 Q 137.00 7.71 136.59 6.95 L 138.55 6.20 Q 138.98 6.93 139.87 8.70 Q 139.87 8.70 140.11 9.32 L 138.59 9.98 L 147.51 9.98 L 147.51 11.92 L 136.59 11.92 Q 136.50 13.25 136.37 14.59 Q 136.35 14.78 136.33 15.00 L 145.51 15.00 L 145.49 15.16 Q 145.49 15.34 145.47 15.77 Q 145.47 15.77 145.44 15.91 Q 145.23 18.90 144.76 22.61 Q 144.76 22.61 144.16 24.66 Q 144.16 24.66 143.74 25.09 Q 143.31 25.56 142.35 25.89 Q 142.35 25.89 141.68 25.96 Q 141.09 26.01 139.12 25.98 Q 139.12 25.98 138.04 25.91 Q 138.02 25.46 137.63 24.36 Q 137.63 24.36 137.31 23.95 Q 138.44 24.04 140.47 24.10 Q 140.47 24.10 140.93 24.10 Q 141.28 24.10 141.75 24.00 Q 141.75 24.00 141.97 23.83 Q 142.28 23.55 142.82 21.63 Q 142.82 21.63 143.03 19.86 Q 143.15 18.64 143.29 16.93 L 136.03 16.93 Q 135.92 17.44 135.82 17.96 Q 135.43 19.62 133.97 22.67 Q 133.97 22.67 131.57 25.28 Q 131.57 25.28 129.78 26.26 Q 129.55 25.87 128.69 24.93 Q 128.69 24.93 128.29 24.64 Q 129.98 23.77 132.17 21.43 Q 132.17 21.43 133.45 18.70 Q 133.45 18.70 134.09 15.71 Q 134.09 15.71 134.19 14.20 Q 134.28 13.05 134.35 11.92 L 128.72 11.92 Z" xml:space="preserve" style="font-weight:613;font-size:21.3333px;line-height:1.2;font-family:'Dream Han Sans SC';-inkscape-font-specification:'Dream Han Sans SC weight=613';text-align:start;writing-mode:lr-tb;direction:ltr;text-anchor:start;fill:#ffffff" id="text9" data-original-text="岐阜县飞驒地方" data-original-element="text"/>
</svg>