<?xml version="1.0" ?>
<svg xmlns="http://www.w3.org/2000/svg" xmlns:ns1="http://sodipodi.sourceforge.net/DTD/sodipodi-0.dtd" xmlns:ns2="http://www.inkscape.org/namespaces/inkscape" version="1.1" width="208" height="32" viewBox="0,0,208,32" id="svg5" ns1:docname="1be67a54c898d533339bce901a6b2888.svg" ns2:version="1.4.2 (f4327f4, 2025-05-13)">
  <defs id="defs5"/>
  <ns1:namedview id="namedview5" pagecolor="#505050" bordercolor="#eeeeee" borderopacity="1" ns2:showpageshadow="0" ns2:pageopacity="0" ns2:pagecheckerboard="0" ns2:deskcolor="#505050" ns2:zoom="8.5240385" ns2:cx="63.760857" ns2:cy="16.013536" ns2:window-width="1920" ns2:window-height="945" ns2:window-x="-9" ns2:window-y="40" ns2:window-maximized="1" ns2:current-layer="svg5"/>
  <g transform="translate(-240,-164)" id="g5">
    <g data-paper-data="{&quot;isPaintingLayer&quot;:true}" fill-rule="nonzero" stroke="none" stroke-linecap="butt" stroke-linejoin="miter" stroke-miterlimit="10" stroke-dasharray="" stroke-dashoffset="0" style="mix-blend-mode: normal" id="g4">
      <path d="M240,196v-32h208v32z" fill="none" stroke-width="0" id="path1"/>
    </g>
  </g>
  <path d="M 6.02 7.84 L 8.23 8.00 Q 8.00 10.42 7.25 15.35 Q 7.25 15.35 5.87 20.01 Q 5.87 20.01 3.59 24.05 Q 3.59 24.05 1.84 25.54 Q 1.68 25.30 1.15 24.71 Q 1.15 24.71 0.60 24.16 Q 0.60 24.16 0.36 23.98 Q 2.00 22.64 4.06 18.93 Q 4.06 18.93 5.27 14.60 Q 5.27 14.60 5.87 10.03 Q 5.87 10.03 6.02 7.84 Z M 14.16 7.33 Q 14.18 7.69 14.34 9.71 Q 14.34 9.71 14.77 12.66 Q 14.77 12.66 15.60 16.10 Q 15.60 16.10 17.00 19.62 Q 17.00 19.62 19.12 22.84 Q 19.12 22.84 20.61 24.05 Q 20.08 24.35 19.16 25.10 Q 19.16 25.10 18.84 25.48 Q 17.33 24.16 15.15 20.72 Q 15.15 20.72 13.69 16.97 Q 13.69 16.97 12.84 13.27 Q 12.84 13.27 12.37 10.12 Q 12.37 10.12 12.22 7.88 Q 12.22 7.88 12.18 7.47 Z M 22.40 9.83 L 32.94 9.83 Q 32.96 8.10 32.98 6.13 L 35.18 6.13 Q 35.18 8.08 35.14 9.83 L 41.17 9.83 L 41.17 11.78 L 35.07 11.78 Q 34.96 13.55 34.71 15.11 Q 34.41 17.05 33.70 18.67 Q 33.19 19.83 32.38 20.83 Q 33.25 21.41 34.29 21.88 Q 37.16 23.20 41.45 23.69 Q 41.25 23.90 40.79 24.61 Q 40.79 24.61 40.36 25.30 Q 40.36 25.30 40.23 25.59 Q 36.89 25.16 34.41 24.20 Q 32.42 23.43 30.89 22.33 Q 29.85 23.16 28.46 23.82 Q 26.47 24.79 23.56 25.44 Q 23.44 25.16 23.08 24.52 Q 23.08 24.52 22.61 23.88 Q 22.61 23.88 22.40 23.67 Q 25.15 23.09 27.00 22.25 Q 28.31 21.66 29.27 20.94 Q 28.04 19.68 27.14 18.05 Q 25.92 15.92 25.11 13.13 L 27.00 12.66 Q 27.88 15.96 29.63 18.24 Q 30.14 18.91 30.74 19.48 Q 31.38 18.67 31.79 17.71 Q 32.38 16.28 32.64 14.51 Q 32.81 13.25 32.90 11.78 L 22.40 11.78 Z M 49.78 17.59 L 51.63 17.59 L 51.63 22.02 L 55.15 22.02 L 55.15 18.42 L 56.98 18.42 L 56.98 23.73 Q 57.19 23.73 57.39 23.73 Q 58.09 23.75 58.41 23.75 Q 58.69 23.75 59.05 23.65 Q 59.05 23.65 59.20 23.49 Q 59.45 23.24 59.84 21.49 Q 59.84 21.49 59.99 19.80 Q 60.10 18.59 60.20 16.86 L 46.14 16.86 L 46.14 7.71 L 51.00 7.71 Q 51.12 7.41 51.24 7.07 Q 51.52 6.33 51.65 5.72 L 54.02 5.96 Q 53.67 6.75 53.24 7.49 Q 53.18 7.61 53.12 7.71 L 59.80 7.71 L 59.80 7.98 Q 59.78 8.26 59.75 8.43 Q 59.65 10.05 59.37 12.17 Q 59.37 12.17 59.03 13.39 Q 59.03 13.39 58.78 13.66 Q 58.52 13.96 57.94 14.21 Q 57.94 14.21 57.54 14.25 Q 57.21 14.30 56.15 14.33 Q 56.15 14.33 55.53 14.30 Q 55.48 13.88 55.23 12.87 Q 55.23 12.87 55.02 12.53 Q 55.53 12.58 56.38 12.60 Q 56.38 12.60 56.60 12.60 Q 56.79 12.60 57.09 12.53 Q 57.09 12.53 57.19 12.40 Q 57.43 12.15 57.60 11.17 Q 57.70 10.57 57.80 9.52 L 48.11 9.52 L 48.11 15.07 L 62.25 15.07 L 62.25 15.22 Q 62.23 15.39 62.23 15.77 Q 62.23 15.77 62.20 15.92 Q 62.06 18.83 61.71 22.39 Q 61.71 22.39 61.24 24.30 Q 61.24 24.30 60.91 24.69 Q 60.57 25.10 59.80 25.40 Q 59.80 25.40 59.27 25.46 Q 58.80 25.50 57.30 25.50 Q 57.30 25.50 56.47 25.48 Q 56.42 25.05 56.28 24.54 Q 56.23 24.41 56.19 24.30 L 55.15 24.30 L 55.15 23.71 L 44.61 23.71 L 44.61 18.46 L 46.44 18.46 L 46.44 22.02 L 49.78 22.02 Z M 49.21 11.48 L 50.22 10.20 Q 50.96 10.48 52.67 11.21 Q 52.67 11.21 54.23 11.99 Q 54.23 11.99 54.74 12.34 L 53.67 13.76 Q 53.20 13.43 51.67 12.60 Q 51.67 12.60 49.96 11.78 Q 49.96 11.78 49.21 11.48 Z" xml:space="preserve" style="font-weight:613;font-size:21.3333px;line-height:1.2;font-family:'Dream Han Sans SC';-inkscape-font-specification:'Dream Han Sans SC weight=613';text-align:start;writing-mode:lr-tb;direction:ltr;text-anchor:start;fill:#ffffff" id="text5" data-original-text="八丈岛" data-original-element="text"/>
</svg>