<?xml version="1.0" ?>
<svg xmlns="http://www.w3.org/2000/svg" xmlns:ns1="http://sodipodi.sourceforge.net/DTD/sodipodi-0.dtd" xmlns:ns2="http://www.inkscape.org/namespaces/inkscape" viewBox="0 0 180 40" version="1.1" height="40" width="180" id="svg7" ns1:docname="1bfbfaf87c899021d46f056fde7ae833.svg" ns2:version="1.4.2 (f4327f4, 2025-05-13)">
  <defs id="defs7"/>
  <ns1:namedview id="namedview7" pagecolor="#505050" bordercolor="#eeeeee" borderopacity="1" ns2:showpageshadow="0" ns2:pageopacity="0" ns2:pagecheckerboard="0" ns2:deskcolor="#505050" ns2:zoom="9.85" ns2:cx="90" ns2:cy="20.050761" ns2:window-width="1920" ns2:window-height="945" ns2:window-x="-9" ns2:window-y="40" ns2:window-maximized="1" ns2:current-layer="svg7"/>
  <path style="paint-order:stroke markers fill" stroke-width=".2" stroke-linejoin="round" stroke-linecap="round" stop-color="#000000" fill-opacity="0" fill="none" d="m0 0h180v40h-180z" id="path1"/>
  <path d="M 30.11 15.04 L 33.95 15.04 L 34.17 14.99 L 34.98 15.24 Q 34.71 17.68 34.14 19.69 Q 33.92 20.45 33.67 21.13 Q 34.01 21.70 34.31 22.25 Q 34.72 23.04 34.98 23.69 L 33.92 24.45 Q 33.69 23.80 33.28 23.00 Q 33.17 22.80 33.05 22.57 Q 32.88 22.95 32.70 23.28 Q 31.84 24.84 30.74 25.90 Q 30.63 25.75 30.31 25.38 Q 30.31 25.38 29.96 25.05 Q 29.96 25.05 29.80 24.95 Q 30.55 24.28 31.19 23.29 Q 31.79 22.36 32.28 21.20 Q 31.80 20.40 31.27 19.62 Q 30.71 18.76 30.13 18.01 L 31.08 17.38 Q 31.64 18.10 32.23 18.94 Q 32.52 19.36 32.80 19.78 Q 33.03 19.08 33.22 18.33 Q 33.47 17.32 33.63 16.24 L 30.11 16.24 Z M 37.91 16.76 L 39.10 16.76 L 39.10 19.13 Q 39.10 20.00 38.93 20.97 Q 38.88 21.31 38.80 21.64 L 39.67 21.64 L 39.67 24.76 Q 39.67 25.04 39.84 25.23 Q 39.84 25.23 40.07 25.23 L 40.87 25.23 Q 41.07 25.23 41.27 24.90 Q 41.27 24.90 41.36 23.93 Q 41.36 23.93 41.38 23.03 Q 41.60 23.20 42.16 23.44 Q 42.16 23.44 42.39 23.50 Q 42.32 24.53 42.08 25.71 Q 42.08 25.71 41.48 26.16 Q 41.48 26.16 40.85 26.16 L 39.85 26.16 Q 39.14 26.16 38.51 25.64 Q 38.51 25.64 38.51 24.90 L 38.51 22.54 Q 38.43 22.75 38.33 22.95 Q 37.91 23.92 36.26 25.69 Q 36.26 25.69 34.94 26.39 Q 34.87 26.27 34.57 25.90 Q 34.57 25.90 34.27 25.57 Q 34.27 25.57 34.14 25.48 Q 35.40 24.84 36.91 23.25 Q 36.91 23.25 37.67 21.57 Q 37.67 21.57 37.91 19.88 Q 37.91 19.88 37.91 19.11 Z M 35.54 14.65 L 41.63 14.65 L 41.63 21.74 L 40.40 21.74 L 40.40 15.76 L 36.72 15.76 L 36.72 21.74 L 35.54 21.74 Z M 49.24 24.13 L 50.01 23.66 Q 50.33 23.98 51.03 24.75 Q 51.03 24.75 51.63 25.48 Q 51.63 25.48 51.80 25.77 L 50.99 26.31 Q 50.83 26.01 50.24 25.25 Q 50.24 25.25 49.56 24.45 Q 49.56 24.45 49.24 24.13 Z M 46.90 14.77 L 51.51 14.77 L 51.51 23.25 L 50.51 23.25 L 50.51 15.69 L 47.85 15.69 L 47.85 23.31 L 46.90 23.31 Z M 54.21 14.21 L 55.23 14.21 L 55.23 25.04 Q 55.23 25.51 54.99 26.01 Q 54.99 26.01 54.72 26.15 Q 54.44 26.28 53.50 26.36 Q 53.50 26.36 52.77 26.36 Q 52.75 26.15 52.55 25.53 Q 52.55 25.53 52.44 25.31 Q 52.96 25.32 53.80 25.32 Q 53.80 25.32 53.95 25.32 Q 54.21 25.32 54.21 25.05 Z M 52.39 15.24 L 53.36 15.24 L 53.36 23.32 L 52.39 23.32 Z M 48.67 16.56 L 49.60 16.56 L 49.60 21.45 Q 49.60 22.12 49.40 23.50 Q 49.40 23.50 48.83 24.81 Q 48.83 24.81 47.72 25.94 Q 47.72 25.94 46.83 26.39 Q 46.77 26.28 46.56 25.99 Q 46.56 25.99 46.34 25.69 Q 46.34 25.69 46.26 25.61 Q 47.07 25.23 48.03 24.26 Q 48.03 24.26 48.51 23.17 Q 48.51 23.17 48.67 22.02 Q 48.67 22.02 48.67 21.44 Z M 43.78 15.06 L 44.52 14.16 Q 44.88 14.34 45.71 14.81 Q 45.71 14.81 46.48 15.29 Q 46.48 15.29 46.72 15.51 L 45.95 16.52 Q 45.72 16.31 44.98 15.79 Q 44.98 15.79 44.15 15.27 Q 44.15 15.27 43.78 15.06 Z M 43.22 18.64 L 43.93 17.73 Q 44.31 17.92 45.13 18.37 Q 45.13 18.37 45.91 18.84 Q 45.91 18.84 46.16 19.04 L 45.42 20.04 Q 45.18 19.84 44.42 19.35 Q 44.42 19.35 43.59 18.84 Q 43.59 18.84 43.22 18.64 Z M 43.47 25.59 Q 43.73 25.06 44.35 23.65 Q 44.35 23.65 44.99 22.06 Q 44.99 22.06 45.26 21.31 L 46.27 21.97 Q 46.03 22.67 45.47 24.16 Q 45.47 24.16 44.90 25.60 Q 44.90 25.60 44.62 26.24 Z M 62.05 14.02 L 63.32 14.02 L 63.32 15.33 L 68.28 15.33 L 68.28 16.52 L 63.32 16.52 L 63.32 18.03 L 67.33 18.03 L 67.33 22.47 L 58.24 22.47 L 58.24 18.03 L 62.05 18.03 Z M 59.44 19.20 L 59.44 21.31 L 66.06 21.31 L 66.06 19.20 Z M 58.35 23.16 L 59.55 23.46 Q 59.24 24.25 58.28 25.84 Q 58.28 25.84 57.75 26.37 L 56.59 25.81 Q 57.11 25.36 58.04 23.89 Q 58.04 23.89 58.35 23.16 Z M 65.99 23.50 L 67.12 23.07 Q 67.46 23.50 68.13 24.48 Q 68.13 24.48 68.72 25.44 Q 68.72 25.44 68.88 25.81 L 67.68 26.31 Q 67.53 25.92 66.99 24.95 Q 66.99 24.95 66.32 23.92 Q 66.32 23.92 65.99 23.50 Z M 63.27 23.59 L 64.42 23.33 Q 64.63 23.74 65.03 24.69 Q 65.03 24.69 65.36 25.59 Q 65.36 25.59 65.43 25.93 L 64.20 26.26 Q 64.14 25.90 63.84 24.99 Q 63.84 24.99 63.46 24.00 Q 63.46 24.00 63.27 23.59 Z M 60.52 23.57 L 61.72 23.46 Q 61.82 23.89 61.97 24.90 Q 61.97 24.90 62.07 25.80 Q 62.07 25.80 62.08 26.13 L 60.80 26.29 Q 60.80 25.96 60.74 25.01 Q 60.74 25.01 60.60 24.01 Q 60.60 24.01 60.52 23.57 Z M 70.36 14.62 L 76.87 14.62 L 76.87 15.75 L 73.99 15.75 Q 73.76 16.29 73.48 16.82 L 75.78 16.82 L 76.00 16.77 L 76.75 16.97 Q 76.39 18.88 74.79 21.37 Q 74.79 21.37 72.42 22.88 Q 72.42 22.88 70.87 23.28 Q 70.82 23.12 70.61 22.71 Q 70.61 22.71 70.37 22.32 Q 70.37 22.32 70.26 22.17 Q 71.64 21.89 72.72 21.26 Q 73.17 21.00 73.56 20.66 Q 73.43 20.52 73.26 20.37 Q 72.98 20.12 72.33 19.62 Q 72.33 19.62 72.03 19.41 L 72.85 18.72 Q 73.15 18.91 73.80 19.39 Q 73.80 19.39 74.10 19.63 Q 74.23 19.73 74.34 19.84 Q 74.43 19.71 74.52 19.57 Q 75.04 18.81 75.33 17.80 L 72.85 17.80 Q 72.77 17.94 72.68 18.05 Q 71.77 19.32 70.70 20.18 Q 70.64 20.04 70.36 19.64 Q 70.36 19.64 70.07 19.24 Q 70.07 19.24 69.95 19.12 Q 70.93 18.41 71.75 17.33 Q 72.29 16.59 72.70 15.75 L 70.36 15.75 Z M 80.20 14.22 L 81.45 14.22 L 81.45 21.64 Q 81.45 22.16 81.19 22.72 Q 81.19 22.72 80.83 22.86 Q 80.47 23.01 79.34 23.08 Q 79.34 23.08 78.52 23.08 Q 78.48 22.82 78.22 22.13 Q 78.22 22.13 78.08 21.88 Q 78.48 21.89 79.21 21.91 Q 79.21 21.91 79.77 21.89 Q 79.77 21.89 79.90 21.89 Q 80.20 21.89 80.20 21.63 Z M 77.66 15.34 L 78.88 15.34 L 78.88 20.72 L 77.66 20.72 Z M 79.40 23.73 L 80.55 23.25 Q 80.87 23.65 81.55 24.62 Q 81.55 24.62 82.14 25.53 Q 82.14 25.53 82.31 25.90 L 81.08 26.45 Q 80.93 26.09 80.37 25.15 Q 80.37 25.15 79.72 24.16 Q 79.72 24.16 79.40 23.73 Z M 71.66 23.36 L 72.87 23.68 Q 72.64 24.15 72.07 25.16 Q 72.07 25.16 71.47 26.09 Q 71.47 26.09 71.17 26.45 L 69.96 25.96 Q 70.24 25.64 70.87 24.77 Q 70.87 24.77 71.44 23.81 Q 71.44 23.81 71.66 23.36 Z M 76.66 23.79 L 77.84 23.57 Q 78.02 23.96 78.35 24.87 Q 78.35 24.87 78.60 25.71 Q 78.60 25.71 78.67 26.04 L 77.42 26.29 Q 77.33 25.80 76.91 24.39 Q 76.91 24.39 76.66 23.79 Z M 73.92 23.81 L 75.08 23.68 Q 75.22 24.28 75.42 25.66 Q 75.42 25.66 75.43 26.15 L 74.19 26.32 Q 74.19 26.00 74.12 25.13 Q 74.12 25.13 74.01 24.21 Q 74.01 24.21 73.92 23.81 Z M 86.07 21.70 L 93.50 21.70 L 93.72 21.65 L 94.51 22.06 Q 93.95 23.10 93.07 23.84 Q 92.52 24.28 91.91 24.64 Q 92.23 24.73 92.56 24.82 Q 94.00 25.18 95.65 25.31 Q 95.52 25.44 95.24 25.83 Q 95.24 25.83 95.00 26.22 Q 95.00 26.22 94.92 26.40 Q 93.22 26.21 91.75 25.77 Q 91.07 25.57 90.46 25.32 Q 89.59 25.64 88.63 25.87 Q 87.33 26.16 85.95 26.32 Q 85.88 26.09 85.57 25.47 Q 85.57 25.47 85.43 25.25 Q 86.71 25.16 87.92 24.92 Q 88.54 24.78 89.11 24.63 Q 87.96 23.92 87.18 22.92 L 87.68 22.72 L 86.07 22.72 Z M 84.38 15.28 L 89.47 15.28 Q 89.44 15.23 89.43 15.18 Q 89.24 14.65 89.03 14.24 L 90.29 13.94 Q 90.52 14.36 90.72 14.85 Q 90.82 15.08 90.89 15.28 L 95.46 15.28 L 95.46 16.45 L 85.61 16.45 L 85.61 18.87 Q 85.61 19.68 85.52 21.63 Q 85.52 21.63 85.26 23.66 Q 85.26 23.66 84.75 25.59 Q 84.75 25.59 84.34 26.39 Q 84.21 26.29 83.79 26.08 Q 83.79 26.08 83.36 25.88 Q 83.36 25.88 83.18 25.83 Q 83.60 25.06 84.07 23.28 Q 84.07 23.28 84.31 21.41 Q 84.31 21.41 84.38 19.64 Q 84.38 19.64 84.38 18.88 Z M 85.92 17.82 L 87.92 17.82 L 87.92 16.78 L 89.12 16.78 L 89.12 17.82 L 92.01 17.82 L 92.01 16.78 L 93.26 16.78 L 93.26 17.82 L 95.31 17.82 L 95.31 18.84 L 93.26 18.84 L 93.26 21.00 L 87.92 21.00 L 87.92 18.84 L 85.92 18.84 Z M 89.12 18.84 L 89.12 20.03 L 92.01 20.03 L 92.01 18.84 Z M 88.45 22.72 Q 89.08 23.38 90.03 23.89 Q 90.27 24.01 90.52 24.13 Q 91.35 23.78 92.00 23.28 Q 92.35 23.01 92.63 22.72 Z" xml:space="preserve" style="font-weight:613;font-size:13.3333px;line-height:1.2;font-family:'Dream Han Sans SC';-inkscape-font-specification:'Dream Han Sans SC weight=613';text-align:start;writing-mode:lr-tb;direction:ltr;text-anchor:start;fill:#ffffff" id="text7" data-original-text="观测点烈度" data-original-element="text"/>
</svg>