<?xml version="1.0" ?>
<svg xmlns="http://www.w3.org/2000/svg" xmlns:ns1="http://sodipodi.sourceforge.net/DTD/sodipodi-0.dtd" xmlns:ns2="http://www.inkscape.org/namespaces/inkscape" version="1.1" width="208" height="32" viewBox="0,0,208,32" id="svg7" ns1:docname="1c674f59148d886790e96ec8c46666e0.svg" ns2:version="1.4.2 (f4327f4, 2025-05-13)">
  <defs id="defs7"/>
  <ns1:namedview id="namedview7" pagecolor="#505050" bordercolor="#eeeeee" borderopacity="1" ns2:showpageshadow="0" ns2:pageopacity="0" ns2:pagecheckerboard="0" ns2:deskcolor="#505050" ns2:zoom="8.5240385" ns2:cx="51.794698" ns2:cy="16.013536" ns2:window-width="1920" ns2:window-height="945" ns2:window-x="-9" ns2:window-y="40" ns2:window-maximized="1" ns2:current-layer="svg7"/>
  <g transform="translate(-240,-164)" id="g7">
    <g data-paper-data="{&quot;isPaintingLayer&quot;:true}" fill-rule="nonzero" stroke="none" stroke-linecap="butt" stroke-linejoin="miter" stroke-miterlimit="10" stroke-dasharray="" stroke-dashoffset="0" style="mix-blend-mode: normal" id="g6">
      <path d="M240,196v-32h208v32z" fill="none" stroke-width="0" id="path1"/>
    </g>
  </g>
  <path d="M 0.93 11.76 L 8.95 11.76 Q 9.12 10.20 9.16 8.75 Q 9.21 7.18 9.23 5.80 L 11.40 5.80 Q 11.40 7.33 11.31 9.05 Q 11.25 10.38 11.11 11.76 L 19.78 11.76 L 19.78 13.84 L 11.94 13.84 Q 12.53 15.67 13.41 17.28 Q 14.56 19.48 17.95 22.73 Q 17.95 22.73 20.19 23.67 Q 19.94 23.88 19.36 24.57 Q 19.36 24.57 18.85 25.26 Q 18.85 25.26 18.68 25.54 Q 16.30 24.43 12.79 20.78 Q 12.79 20.78 11.58 18.38 Q 10.91 17.08 10.36 15.63 Q 10.27 15.96 10.17 16.30 Q 9.59 18.14 7.52 21.55 Q 7.52 21.55 4.35 24.47 Q 4.35 24.47 2.03 25.56 Q 1.78 25.16 0.93 24.20 Q 0.93 24.20 0.50 23.88 Q 2.72 22.88 5.77 20.23 Q 5.77 20.23 7.67 17.08 Q 7.67 17.08 8.18 15.39 Q 8.44 14.62 8.61 13.84 L 0.93 13.84 Z M 24.65 17.05 Q 24.61 16.84 24.36 16.10 Q 24.36 16.10 24.05 15.28 Q 24.05 15.28 23.93 15.00 Q 24.34 14.88 25.10 14.04 Q 25.10 14.04 25.61 13.36 Q 25.87 13.02 26.38 12.25 Q 26.85 11.52 27.42 10.52 L 22.59 10.52 L 22.59 8.59 L 28.47 8.59 Q 28.58 8.37 28.70 8.14 Q 29.33 6.92 29.81 5.66 L 31.99 6.49 Q 31.50 7.53 30.96 8.59 L 40.67 8.59 L 40.67 10.52 L 29.88 10.52 Q 29.09 11.89 28.25 13.13 Q 27.68 14.00 27.11 14.77 L 31.63 14.77 L 31.63 11.83 L 33.68 11.83 L 33.68 14.77 L 39.73 14.77 L 39.73 16.73 L 33.68 16.73 L 33.68 23.02 Q 33.68 23.86 33.27 24.79 Q 33.27 24.79 32.69 25.05 Q 32.14 25.30 30.43 25.44 Q 30.43 25.44 29.26 25.44 Q 29.22 25.14 28.96 24.39 Q 28.96 24.39 28.68 23.65 Q 28.68 23.65 28.51 23.37 Q 29.39 23.39 30.92 23.41 Q 30.92 23.41 31.20 23.39 Q 31.46 23.39 31.63 23.22 Q 31.63 23.22 31.63 23.00 L 31.63 16.73 L 27.06 16.73 Q 26.44 16.73 25.44 16.79 Q 25.44 16.79 24.78 16.95 Q 24.78 16.95 24.65 17.05 Z M 26.23 18.24 L 28.25 18.80 Q 27.74 19.93 26.38 22.15 Q 26.38 22.15 24.87 24.10 Q 24.87 24.10 24.08 24.82 Q 23.89 24.65 23.26 24.14 Q 23.26 24.14 22.63 23.67 Q 22.63 23.67 22.37 23.51 Q 23.56 22.55 25.61 19.74 Q 25.61 19.74 26.23 18.24 Z M 35.17 19.05 L 36.86 18.22 Q 37.64 19.03 39.35 20.94 Q 39.35 20.94 40.80 22.82 Q 40.80 22.82 41.23 23.55 L 39.41 24.52 Q 39.01 23.79 37.60 21.88 Q 37.60 21.88 35.98 19.89 Q 35.98 19.89 35.17 19.05 Z M 49.66 17.59 L 51.51 17.59 L 51.51 22.02 L 55.03 22.02 L 55.03 18.42 L 56.87 18.42 L 56.87 23.73 Q 57.08 23.73 57.27 23.73 Q 57.97 23.75 58.29 23.75 Q 58.58 23.75 58.93 23.65 Q 58.93 23.65 59.09 23.49 Q 59.34 23.24 59.72 21.49 Q 59.72 21.49 59.88 19.80 Q 59.98 18.59 60.09 16.86 L 46.02 16.86 L 46.02 7.71 L 50.89 7.71 Q 51.00 7.41 51.13 7.07 Q 51.40 6.33 51.53 5.72 L 53.90 5.96 Q 53.55 6.75 53.13 7.49 Q 53.06 7.61 53.00 7.71 L 59.68 7.71 L 59.68 7.98 Q 59.66 8.26 59.64 8.43 Q 59.53 10.05 59.25 12.17 Q 59.25 12.17 58.91 13.39 Q 58.91 13.39 58.66 13.66 Q 58.40 13.96 57.83 14.21 Q 57.83 14.21 57.42 14.25 Q 57.10 14.30 56.03 14.33 Q 56.03 14.33 55.41 14.30 Q 55.37 13.88 55.12 12.87 Q 55.12 12.87 54.90 12.53 Q 55.41 12.58 56.26 12.60 Q 56.26 12.60 56.48 12.60 Q 56.67 12.60 56.97 12.53 Q 56.97 12.53 57.08 12.40 Q 57.31 12.15 57.48 11.17 Q 57.59 10.57 57.68 9.52 L 47.99 9.52 L 47.99 15.07 L 62.14 15.07 L 62.14 15.22 Q 62.12 15.39 62.12 15.77 Q 62.12 15.77 62.09 15.92 Q 61.94 18.83 61.60 22.39 Q 61.60 22.39 61.13 24.30 Q 61.13 24.30 60.79 24.69 Q 60.45 25.10 59.68 25.40 Q 59.68 25.40 59.15 25.46 Q 58.68 25.50 57.18 25.50 Q 57.18 25.50 56.36 25.48 Q 56.30 25.05 56.16 24.54 Q 56.12 24.41 56.08 24.30 L 55.03 24.30 L 55.03 23.71 L 44.49 23.71 L 44.49 18.46 L 46.33 18.46 L 46.33 22.02 L 49.66 22.02 Z M 49.10 11.48 L 50.11 10.20 Q 50.85 10.48 52.55 11.21 Q 52.55 11.21 54.12 11.99 Q 54.12 11.99 54.63 12.34 L 53.55 13.76 Q 53.09 13.43 51.55 12.60 Q 51.55 12.60 49.85 11.78 Q 49.85 11.78 49.10 11.48 Z M 77.04 5.80 L 78.94 5.80 L 78.94 10.95 L 81.29 9.95 L 81.66 9.65 L 82.01 9.38 L 83.45 9.91 L 83.36 10.24 Q 83.36 11.76 83.34 14.35 Q 83.34 14.35 83.29 16.37 Q 83.29 16.37 83.23 17.75 Q 83.23 17.75 83.17 18.08 Q 83.11 18.76 82.52 19.48 Q 82.52 19.48 82.03 19.64 Q 81.59 19.80 80.42 19.87 Q 80.42 19.87 79.95 19.87 Q 79.91 19.46 79.65 18.46 Q 79.65 18.46 79.50 18.14 Q 79.81 18.16 80.59 18.18 Q 80.59 18.18 80.73 18.18 Q 80.97 18.18 81.25 17.97 Q 81.25 17.97 81.31 17.65 Q 81.36 17.46 81.40 16.26 Q 81.40 16.26 81.42 14.33 Q 81.42 14.33 81.42 12.98 Q 81.42 12.46 81.42 11.93 L 78.94 13.00 L 78.94 20.74 L 77.04 20.74 L 77.04 13.80 L 74.66 14.84 L 74.66 21.92 Q 74.66 22.51 74.87 23.13 Q 74.87 23.13 75.58 23.35 Q 75.58 23.35 76.25 23.35 L 80.97 23.35 Q 81.59 23.35 82.19 22.88 Q 82.19 22.88 82.48 21.64 Q 82.48 21.64 82.55 20.46 Q 82.89 20.70 83.94 21.13 Q 83.94 21.13 84.35 21.21 Q 84.21 22.71 83.58 24.41 Q 83.58 24.41 82.27 25.16 Q 82.27 25.16 81.10 25.16 L 76.13 25.16 Q 74.83 25.16 73.31 24.61 Q 73.31 24.61 72.71 23.18 Q 72.71 23.18 72.71 21.90 L 72.71 15.67 L 71.26 16.28 L 70.49 14.51 L 72.71 13.58 L 72.71 7.84 L 74.66 7.84 L 74.66 12.76 L 77.04 11.74 Z M 64.46 10.87 L 67.11 10.87 L 67.11 6.07 L 69.00 6.07 L 69.00 10.87 L 71.37 10.87 L 71.37 12.76 L 69.00 12.76 L 69.00 18.46 Q 70.12 17.99 71.24 17.52 L 71.69 19.32 Q 69.98 20.13 66.48 21.74 Q 66.48 21.74 65.03 22.39 L 64.24 20.36 Q 65.10 20.04 66.25 19.59 Q 66.68 19.42 67.11 19.23 L 67.11 12.76 L 64.46 12.76 Z M 86.28 9.40 L 95.54 9.40 Q 95.32 8.82 94.99 8.05 Q 94.56 7.13 94.16 6.37 L 96.12 5.62 Q 96.54 6.35 97.44 8.12 Q 97.44 8.12 97.68 8.73 L 96.16 9.40 L 105.07 9.40 L 105.07 11.34 L 94.16 11.34 Q 94.06 12.66 93.94 14.00 Q 93.92 14.19 93.90 14.41 L 103.07 14.41 L 103.05 14.58 Q 103.05 14.75 103.03 15.18 Q 103.03 15.18 103.01 15.33 Q 102.79 18.32 102.32 22.02 Q 102.32 22.02 101.73 24.08 Q 101.73 24.08 101.30 24.50 Q 100.88 24.97 99.92 25.30 Q 99.92 25.30 99.25 25.38 Q 98.66 25.42 96.69 25.40 Q 96.69 25.40 95.61 25.33 Q 95.59 24.88 95.20 23.77 Q 95.20 23.77 94.88 23.37 Q 96.01 23.45 98.03 23.51 Q 98.03 23.51 98.50 23.51 Q 98.85 23.51 99.31 23.41 Q 99.31 23.41 99.53 23.24 Q 99.85 22.96 100.39 21.04 Q 100.39 21.04 100.60 19.27 Q 100.72 18.05 100.86 16.35 L 93.60 16.35 Q 93.49 16.86 93.39 17.38 Q 93.00 19.03 91.53 22.09 Q 91.53 22.09 89.14 24.69 Q 89.14 24.69 87.35 25.67 Q 87.12 25.28 86.26 24.35 Q 86.26 24.35 85.86 24.05 Q 87.54 23.18 89.74 20.85 Q 89.74 20.85 91.02 18.12 Q 91.02 18.12 91.66 15.13 Q 91.66 15.13 91.76 13.62 Q 91.85 12.46 91.92 11.34 L 86.28 11.34 Z" xml:space="preserve" style="font-weight:613;font-size:21.3333px;line-height:1.2;font-family:'Dream Han Sans SC';-inkscape-font-specification:'Dream Han Sans SC weight=613';text-align:start;writing-mode:lr-tb;direction:ltr;text-anchor:start;fill:#ffffff" id="text7" data-original-text="大东岛地方" data-original-element="text"/>
</svg>