<?xml version="1.0" ?>
<svg xmlns="http://www.w3.org/2000/svg" xmlns:ns1="http://sodipodi.sourceforge.net/DTD/sodipodi-0.dtd" xmlns:ns2="http://www.inkscape.org/namespaces/inkscape" version="1.1" width="208" height="32" viewBox="0,0,208,32" id="svg7" ns1:docname="1c858647c8eda4273e180ac85c107449.svg" ns2:version="1.4.2 (f4327f4, 2025-05-13)">
  <defs id="defs7"/>
  <ns1:namedview id="namedview7" pagecolor="#505050" bordercolor="#eeeeee" borderopacity="1" ns2:showpageshadow="0" ns2:pageopacity="0" ns2:pagecheckerboard="0" ns2:deskcolor="#505050" ns2:zoom="8.5240385" ns2:cx="24.929498" ns2:cy="16.013536" ns2:window-width="1920" ns2:window-height="945" ns2:window-x="-9" ns2:window-y="40" ns2:window-maximized="1" ns2:current-layer="svg7"/>
  <g transform="translate(-240,-164)" id="g7">
    <g data-paper-data="{&quot;isPaintingLayer&quot;:true}" fill-rule="nonzero" stroke="none" stroke-linecap="butt" stroke-linejoin="miter" stroke-miterlimit="10" stroke-dasharray="" stroke-dashoffset="0" style="mix-blend-mode: normal" id="g6">
      <path d="M240,196v-32h208v32z" fill="none" stroke-width="0" id="path1"/>
    </g>
  </g>
  <path d="M 1.29 11.04 L 9.74 11.04 L 9.74 9.15 Q 8.52 9.25 7.30 9.34 Q 5.39 9.47 3.55 9.53 Q 3.51 9.17 3.21 8.17 Q 3.21 8.17 3.07 7.82 Q 4.86 7.74 8.61 7.46 Q 8.61 7.46 12.21 7.08 Q 12.21 7.08 15.35 6.56 Q 15.35 6.56 16.52 6.27 L 17.99 7.86 Q 16.57 8.23 14.82 8.53 Q 13.37 8.74 11.83 8.94 L 11.83 11.04 L 20.29 11.04 L 20.29 12.86 L 13.84 12.86 Q 14.00 13.01 14.18 13.16 Q 15.12 13.95 17.34 15.35 Q 17.34 15.35 19.70 16.49 Q 19.70 16.49 20.86 16.88 Q 20.64 17.06 20.13 17.66 Q 20.13 17.66 19.68 18.26 Q 19.68 18.26 19.53 18.51 Q 18.52 18.10 17.50 17.55 L 17.50 25.94 L 15.39 25.94 L 15.39 25.23 L 6.41 25.23 L 6.41 25.96 L 4.41 25.96 L 4.41 17.59 Q 3.27 18.26 2.13 18.71 Q 1.97 18.45 1.50 17.85 Q 1.50 17.85 1.01 17.27 Q 1.01 17.27 0.77 17.08 Q 1.95 16.68 4.29 15.51 Q 4.29 15.51 6.47 14.03 Q 6.47 14.03 7.39 13.18 Q 7.57 13.03 7.73 12.86 L 1.29 12.86 Z M 4.66 17.45 L 17.32 17.45 Q 17.25 17.43 17.18 17.39 Q 15.99 16.70 13.73 15.06 Q 13.73 15.06 12.74 14.14 Q 12.25 13.67 11.83 13.20 L 11.83 16.92 L 9.74 16.92 L 9.74 13.18 Q 9.32 13.69 8.85 14.16 Q 7.91 15.15 6.79 16.00 Q 5.77 16.80 4.66 17.45 Z M 15.39 23.68 L 15.39 22.03 L 6.41 22.03 L 6.41 23.68 Z M 15.39 20.60 L 15.39 19.02 L 6.41 19.02 L 6.41 20.60 Z M 24.77 7.29 L 26.83 7.29 L 26.83 14.60 Q 26.83 16.15 26.64 19.24 Q 26.64 19.24 26.01 22.21 Q 26.01 22.21 24.75 24.94 Q 24.75 24.94 23.71 26.15 Q 23.52 25.92 22.90 25.36 Q 22.90 25.36 22.26 24.88 Q 22.26 24.88 22.00 24.72 Q 23.26 23.27 24.42 19.99 Q 24.42 19.99 24.77 16.41 Q 24.77 16.41 24.77 14.58 Z M 31.46 8.19 L 33.50 8.19 L 33.50 24.00 L 31.46 24.00 Z M 38.33 7.23 L 40.44 7.23 L 40.44 25.92 L 38.33 25.92 Z M 43.94 18.00 L 47.24 18.00 L 47.24 7.17 L 60.11 7.17 L 60.11 18.00 L 63.01 18.00 L 63.01 19.81 L 52.27 19.81 Q 51.15 21.09 49.89 22.23 Q 49.29 22.78 48.71 23.25 L 58.08 22.86 Q 57.85 22.64 57.59 22.40 Q 56.63 21.46 55.71 20.71 L 57.42 19.94 Q 58.34 20.69 60.29 22.52 Q 60.29 22.52 62.00 24.29 Q 62.00 24.29 62.53 24.98 L 60.79 25.92 Q 60.29 25.25 59.55 24.43 Q 56.80 24.55 54.77 24.66 Q 52.60 24.78 49.63 24.94 Q 49.63 24.94 47.75 25.06 Q 47.75 25.06 46.63 25.19 Q 46.63 25.19 46.00 25.30 Q 46.00 25.30 45.79 25.39 Q 45.73 25.17 45.51 24.49 Q 45.51 24.49 45.26 23.74 Q 45.26 23.74 45.15 23.48 Q 45.47 23.40 46.22 22.97 Q 46.22 22.97 46.63 22.64 Q 46.94 22.42 48.24 21.26 Q 48.24 21.26 49.03 20.44 Q 49.32 20.14 49.59 19.81 L 43.94 19.81 Z M 49.18 18.00 L 58.08 18.00 L 58.08 16.02 L 49.18 16.02 Z M 58.08 10.81 L 58.08 8.88 L 49.18 8.88 L 49.18 10.81 Z M 58.08 14.35 L 58.08 12.48 L 49.18 12.48 L 49.18 14.35 Z M 66.40 12.16 L 71.54 12.16 L 71.54 9.41 L 65.29 9.41 L 65.29 7.46 L 84.23 7.46 L 84.23 9.41 L 77.98 9.41 L 77.98 12.16 L 83.36 12.16 L 83.36 25.83 L 81.34 25.83 L 81.34 24.59 L 68.37 24.59 L 68.37 25.88 L 66.40 25.88 Z M 73.32 14.01 Q 73.27 14.91 73.03 15.84 Q 72.73 17.10 70.98 19.39 Q 70.98 19.39 69.26 20.22 Q 69.15 20.01 68.72 19.45 Q 68.72 19.45 68.47 19.18 Q 68.43 19.11 68.37 19.07 L 68.37 22.74 L 81.34 22.74 L 81.34 19.52 Q 81.22 19.52 81.12 19.52 L 78.47 19.52 Q 77.49 19.52 76.47 19.04 Q 76.47 19.04 76.07 17.92 Q 76.07 17.92 76.07 16.92 L 76.07 14.01 Z M 77.98 14.01 L 77.98 16.90 Q 77.98 17.39 78.22 17.61 Q 78.22 17.61 78.75 17.61 L 80.93 17.61 Q 81.20 17.61 81.32 17.59 Q 81.32 17.57 81.34 17.57 L 81.34 14.01 Z M 71.50 14.01 L 68.37 14.01 L 68.37 18.63 Q 69.69 17.96 70.35 17.17 Q 71.10 16.25 71.30 15.27 Q 71.46 14.66 71.50 14.01 Z M 73.34 12.16 L 76.07 12.16 L 76.07 9.41 L 73.34 9.41 Z M 98.66 7.25 L 104.18 7.25 L 104.48 7.17 L 105.87 8.04 Q 105.32 9.55 103.97 12.99 Q 103.97 12.99 103.33 14.42 Q 104.69 15.91 105.54 18.45 Q 105.54 18.45 105.54 19.54 Q 105.54 20.56 105.08 22.07 Q 105.08 22.07 104.52 22.46 Q 104.24 22.64 103.54 22.86 Q 103.54 22.86 103.14 22.93 Q 102.77 22.97 101.86 22.97 Q 101.86 22.97 101.39 22.95 Q 101.37 22.56 101.13 21.48 Q 101.13 21.48 100.88 21.07 Q 101.30 21.11 102.04 21.14 Q 102.04 21.14 102.35 21.11 Q 102.59 21.11 103.01 21.01 Q 103.01 21.01 103.18 20.91 Q 103.46 20.71 103.71 19.85 Q 103.71 19.85 103.69 19.32 Q 103.69 18.36 102.75 16.04 Q 102.75 16.04 101.41 14.66 Q 101.73 13.84 102.43 11.99 Q 102.43 11.99 103.08 10.13 Q 103.08 10.13 103.35 9.30 Q 103.39 9.19 103.43 9.06 L 100.45 9.06 L 100.45 25.90 L 98.66 25.90 Z M 87.59 17.96 L 96.77 17.96 L 96.77 25.73 L 94.79 25.73 L 94.79 24.88 L 89.48 24.88 L 89.48 25.88 L 87.59 25.88 Z M 87.05 8.59 L 91.32 8.59 Q 91.23 8.35 91.15 8.08 Q 90.85 7.25 90.50 6.54 L 92.32 6.03 Q 92.68 6.72 93.00 7.53 Q 93.26 8.13 93.41 8.59 L 97.22 8.59 L 97.22 10.43 L 94.41 10.43 L 96.38 10.85 Q 96.08 11.60 95.43 13.14 Q 95.43 13.14 95.12 13.86 Q 94.98 14.11 94.88 14.35 L 97.70 14.35 L 97.70 16.19 L 86.45 16.19 L 86.45 14.35 L 89.50 14.35 Q 89.38 13.65 89.03 12.73 Q 88.67 11.75 88.26 10.92 L 89.99 10.47 Q 90.44 11.28 91.19 13.20 Q 91.19 13.20 91.34 13.93 L 89.76 14.35 L 92.96 14.35 Q 93.17 13.91 93.39 13.35 Q 93.69 12.60 93.94 11.83 Q 94.20 11.07 94.37 10.43 L 87.05 10.43 Z M 94.79 23.10 L 94.79 19.77 L 89.48 19.77 L 89.48 23.10 Z" xml:space="preserve" style="font-weight:613;font-size:21.3333px;line-height:1.2;font-family:'Dream Han Sans SC';-inkscape-font-specification:'Dream Han Sans SC weight=613';text-align:start;writing-mode:lr-tb;direction:ltr;text-anchor:start;fill:#ffffff" id="text7" data-original-text="香川县西部" data-original-element="text"/>
</svg>