<?xml version="1.0" ?>
<svg xmlns="http://www.w3.org/2000/svg" xmlns:ns1="http://sodipodi.sourceforge.net/DTD/sodipodi-0.dtd" xmlns:ns2="http://www.inkscape.org/namespaces/inkscape" version="1.1" width="224" height="68" viewBox="0,0,224,68" id="svg11" ns1:docname="1cc91cd6a918bf0d876ecd2f76861646.svg" ns2:version="1.4.2 (f4327f4, 2025-05-13)">
  <defs id="defs11"/>
  <ns1:namedview id="namedview11" pagecolor="#505050" bordercolor="#eeeeee" borderopacity="1" ns2:showpageshadow="0" ns2:pageopacity="0" ns2:pagecheckerboard="0" ns2:deskcolor="#505050" ns2:zoom="7.9151786" ns2:cx="101.7665" ns2:cy="33.543147" ns2:window-width="1920" ns2:window-height="945" ns2:window-x="-9" ns2:window-y="40" ns2:window-maximized="1" ns2:current-layer="g10"/>
  <g transform="translate(-128,-146)" id="g11">
    <g data-paper-data="{&quot;isPaintingLayer&quot;:true}" stroke="none" stroke-width="1" stroke-linecap="butt" stroke-linejoin="miter" stroke-miterlimit="10" stroke-dasharray="" stroke-dashoffset="0" style="mix-blend-mode: normal" id="g10">
      <path d="M128,214v-68h224v68z" fill="none" fill-rule="nonzero" id="path1"/>
      <path d="M128,214v-66h224v66z" fill="#1d2a41" fill-rule="nonzero" id="path2"/>
      <g fill-rule="evenodd" id="g4">
        <path d="M148,166h16c5.54,0 10,4.46 10,10v16c0,5.54 -4.46,10 -10,10h-26v-26c0,-5.54 4.46,-10 10,-10z" fill="#c125ed" id="path3"/>
        <path d="M155.6783,172.415c0.48371,-0.00266 0.93163,0.25463 1.1732,0.6739l10.879,18.85c0.24033,0.41661 0.24021,0.92985 -0.00031,1.34634c-0.24052,0.4165 -0.68489,0.67296 -1.16569,0.67276h-21.756c-0.4808,0.0002 -0.92517,-0.25626 -1.16569,-0.67276c-0.24052,-0.4165 -0.24064,-0.92973 -0.00031,-1.34634l10.879,-18.85c0.23858,-0.4141 0.67875,-0.6706 1.1565,-0.6739zM151.14347,184.3217c1.8119,-1.0471 3.4584,-1.5132 4.8505,-1.3834c1.4265,0.1328 2.57736,0.907 3.2831,2.2317c0.05279,0.0998 0.03045,0.22276 -0.05407,0.29761c-0.08452,0.07485 -0.20928,0.08216 -0.30196,0.01769c-1.1899,-0.83 -2.13049,-0.6246 -2.6881,0.012c-0.35344,0.4034 -0.43467,0.91 -0.28674,1.4122c0.14792,0.5022 0.53654,0.9928 1.1445,1.3094c1.3885,0.723 3.7137,0.864 5.5697,0.3847c0.01271,-0.001 0.02549,-0.001 0.0382,0l-7.0106,-12.148z" fill="#ffffff" id="path4"/>
      </g>
    </g>
  </g>
  <path d="M 57.50 33.94 L 65.52 33.94 Q 65.69 32.37 65.73 30.93 Q 65.78 29.35 65.80 27.98 L 67.97 27.98 Q 67.97 29.50 67.89 31.23 Q 67.83 32.55 67.68 33.94 L 76.36 33.94 L 76.36 36.01 L 68.51 36.01 Q 69.11 37.84 69.98 39.46 Q 71.14 41.65 74.52 44.90 Q 74.52 44.90 76.76 45.84 Q 76.51 46.05 75.93 46.74 Q 75.93 46.74 75.42 47.44 Q 75.42 47.44 75.25 47.72 Q 72.88 46.60 69.37 42.96 Q 69.37 42.96 68.15 40.55 Q 67.48 39.25 66.93 37.80 Q 66.85 38.13 66.74 38.48 Q 66.16 40.31 64.10 43.73 Q 64.10 43.73 60.92 46.64 Q 60.92 46.64 58.61 47.74 Q 58.36 47.33 57.50 46.37 Q 57.50 46.37 57.08 46.05 Q 59.29 45.05 62.35 42.40 Q 62.35 42.40 64.24 39.25 Q 64.24 39.25 64.75 37.56 Q 65.01 36.79 65.18 36.01 L 57.50 36.01 Z M 86.35 33.87 L 96.75 33.87 L 96.75 34.04 Q 96.73 34.22 96.73 34.63 Q 96.73 34.63 96.73 34.77 Q 96.65 36.66 96.56 38.20 L 98.20 38.20 L 98.20 40.04 L 96.46 40.04 Q 96.37 41.70 96.24 42.87 L 97.63 42.87 L 97.63 44.62 L 96.01 44.62 Q 95.90 45.18 95.81 45.58 Q 95.61 46.35 95.33 46.70 Q 94.98 47.14 94.21 47.48 Q 94.21 47.48 93.72 47.57 Q 93.25 47.61 91.80 47.61 Q 91.80 47.61 91.01 47.57 Q 90.99 47.19 90.74 46.23 Q 90.74 46.23 90.50 45.88 Q 91.27 45.95 92.58 45.99 Q 92.58 45.99 92.87 45.99 Q 93.15 45.99 93.51 45.84 Q 93.51 45.84 93.66 45.64 Q 93.90 45.41 94.06 44.69 Q 94.06 44.66 94.09 44.62 L 84.85 44.62 Q 85.06 43.58 85.27 42.26 Q 85.45 41.19 85.62 40.04 L 83.66 40.04 L 83.66 38.20 L 85.86 38.20 Q 85.96 37.39 86.06 36.58 Q 86.24 35.15 86.35 33.87 Z M 86.88 27.96 L 88.81 28.46 Q 88.52 29.37 88.14 30.29 L 97.65 30.29 L 97.65 32.10 L 87.30 32.10 Q 86.92 32.84 86.49 33.55 Q 85.81 34.71 85.09 35.58 Q 84.90 35.40 84.25 34.98 Q 84.25 34.98 83.60 34.57 Q 83.60 34.57 83.36 34.45 Q 84.11 33.65 85.43 31.57 Q 85.43 31.57 86.49 29.18 Q 86.49 29.18 86.88 27.96 Z M 79.00 46.33 Q 79.43 45.50 80.46 43.20 Q 80.46 43.20 81.52 40.63 Q 81.52 40.63 81.95 39.39 L 83.50 40.51 Q 83.13 41.63 82.18 44.07 Q 82.18 44.07 81.20 46.41 Q 81.20 46.41 80.75 47.41 Z M 94.37 42.87 Q 94.37 42.77 94.39 42.66 Q 94.51 41.57 94.62 40.04 L 90.25 40.04 Q 90.83 40.49 91.46 41.08 Q 92.17 41.76 92.55 42.30 L 91.72 42.87 Z M 79.56 29.64 L 80.69 28.28 Q 81.30 28.56 82.74 29.33 Q 82.74 29.33 84.02 30.11 Q 84.02 30.11 84.42 30.46 L 83.25 32.00 Q 82.87 31.65 81.61 30.80 Q 81.61 30.80 80.18 29.97 Q 80.18 29.97 79.56 29.64 Z M 88.95 40.61 L 89.89 40.04 L 87.47 40.04 Q 87.33 41.23 87.16 42.32 Q 87.12 42.59 87.06 42.87 L 91.21 42.87 Q 90.87 42.43 90.31 41.87 Q 89.63 41.16 88.95 40.61 Z M 78.39 35.81 L 79.49 34.43 Q 80.10 34.71 81.46 35.45 Q 81.46 35.45 82.65 36.22 Q 82.65 36.22 83.03 36.56 L 81.87 38.09 Q 81.52 37.75 80.33 36.93 Q 80.33 36.93 78.98 36.11 Q 78.98 36.11 78.39 35.81 Z M 94.73 38.20 Q 94.77 37.01 94.84 35.60 L 90.80 35.60 Q 91.31 36.03 91.87 36.54 Q 92.51 37.18 92.85 37.64 L 92.09 38.20 Z M 89.52 36.15 L 90.34 35.60 L 88.03 35.60 Q 87.98 36.11 87.92 36.64 Q 87.81 37.44 87.73 38.20 L 91.54 38.20 Q 91.25 37.80 90.76 37.30 Q 90.14 36.64 89.52 36.15 Z M 106.03 32.63 L 111.47 32.63 L 111.47 31.23 L 107.23 31.23 L 107.23 29.58 L 111.47 29.58 L 111.47 28.09 L 113.33 28.09 L 113.33 29.58 L 118.15 29.58 L 118.15 32.63 L 119.45 32.63 L 119.45 34.22 L 118.15 34.22 L 118.15 37.35 L 113.33 37.35 L 113.33 47.70 L 111.47 47.70 L 111.47 37.35 L 107.05 37.35 L 107.05 35.71 L 111.47 35.71 L 111.47 34.22 L 106.03 34.22 Z M 100.34 29.44 L 105.50 29.44 L 105.50 42.47 L 101.96 42.47 L 101.96 44.43 L 100.34 44.43 Z M 101.96 31.03 L 101.96 40.82 L 103.90 40.82 L 103.90 31.03 Z M 106.63 38.33 L 108.29 38.33 L 108.29 40.00 Q 108.29 41.19 108.06 43.89 Q 108.06 43.89 107.25 46.60 Q 107.25 46.60 106.40 47.82 Q 106.14 47.57 105.26 46.93 Q 105.26 46.93 104.93 46.76 Q 105.69 45.66 106.44 43.30 Q 106.44 43.30 106.63 40.96 Q 106.63 40.96 106.63 39.95 Z M 116.64 38.33 L 118.30 38.33 L 118.30 47.65 L 116.64 47.65 Z M 109.53 39.23 L 110.86 39.48 Q 110.73 40.65 110.30 43.00 Q 110.30 43.00 109.72 45.09 Q 109.72 45.09 109.37 45.90 Q 109.17 45.75 108.49 45.30 Q 108.49 45.30 108.23 45.18 Q 108.76 44.05 109.37 40.86 Q 109.37 40.86 109.53 39.23 Z M 113.83 39.41 L 115.08 39.27 Q 115.36 40.25 115.87 42.49 Q 115.87 42.49 116.25 44.56 Q 116.25 44.56 116.34 45.30 L 114.95 45.56 Q 114.89 44.79 114.54 42.69 Q 114.54 42.69 114.08 40.41 Q 114.08 40.41 113.83 39.41 Z M 113.33 34.22 L 113.33 35.71 L 116.40 35.71 L 116.40 34.22 Z M 113.33 31.23 L 113.33 32.63 L 116.40 32.63 L 116.40 31.23 Z M 121.33 28.88 L 123.70 28.88 L 123.70 28.03 L 125.41 28.03 L 125.41 28.88 L 127.49 28.88 L 127.49 28.03 L 129.20 28.03 L 129.20 28.88 L 131.48 28.88 L 131.48 30.11 L 129.20 30.11 L 129.20 30.82 L 127.49 30.82 L 127.49 30.11 L 125.41 30.11 L 125.41 30.82 L 124.34 30.82 L 124.80 30.90 Q 124.70 31.16 124.58 31.39 L 130.63 31.39 L 130.63 31.63 Q 130.63 31.86 130.61 32.04 Q 130.61 32.29 130.59 32.55 Q 131.62 31.72 132.42 30.52 Q 133.23 29.33 133.68 27.94 L 135.28 28.32 Q 135.02 29.05 134.71 29.73 L 140.49 29.73 L 140.49 31.12 L 139.03 31.12 Q 138.56 32.49 137.78 33.53 Q 137.48 33.94 137.12 34.30 Q 138.76 35.32 140.85 35.77 Q 140.58 36.05 139.91 36.93 Q 139.91 36.93 139.74 37.28 Q 137.50 36.66 135.81 35.40 Q 135.63 35.53 135.43 35.64 Q 134.04 36.52 132.31 37.09 Q 132.23 36.90 131.87 36.38 Q 131.87 36.38 131.48 35.85 Q 131.48 35.85 131.31 35.69 Q 133.19 35.20 134.58 34.32 Q 133.70 33.43 133.09 32.31 Q 132.49 33.04 131.87 33.61 Q 131.72 33.47 131.25 33.08 Q 131.25 33.08 130.99 32.89 Q 130.78 32.72 130.59 32.61 Q 130.52 33.65 130.44 34.38 Q 130.34 35.30 130.10 36.30 Q 130.10 36.30 129.89 36.54 Q 129.67 36.79 129.16 37.01 Q 129.16 37.01 128.81 37.03 Q 128.56 37.05 127.71 37.07 Q 127.71 37.07 127.24 37.05 Q 127.22 36.77 127.14 36.36 Q 127.12 36.32 127.12 36.28 L 124.04 36.28 L 124.04 36.83 L 122.65 36.83 L 122.65 34.10 Q 122.31 34.43 121.95 34.73 Q 121.75 34.45 121.08 33.81 Q 121.08 33.81 120.81 33.65 Q 121.73 33.00 122.95 31.41 Q 122.95 31.41 123.27 30.64 L 123.70 30.72 L 123.70 30.11 L 121.33 30.11 Z M 123.99 43.69 L 137.93 43.69 L 137.93 47.76 L 135.94 47.76 L 135.94 47.14 L 125.92 47.14 L 125.92 47.78 L 123.99 47.78 Z M 121.61 37.86 L 129.95 37.86 Q 129.69 37.33 129.44 36.93 L 131.23 36.43 Q 131.50 36.83 131.78 37.37 Q 131.91 37.62 132.02 37.86 L 140.17 37.86 L 140.17 39.16 L 121.61 39.16 Z M 124.19 41.81 L 137.67 41.81 L 137.67 42.89 L 124.19 42.89 Z M 124.19 39.95 L 137.67 39.95 L 137.67 41.04 L 124.19 41.04 Z M 135.94 46.03 L 135.94 44.79 L 125.92 44.79 L 125.92 46.03 Z M 127.61 35.75 Q 127.86 35.77 128.01 35.77 Q 128.14 35.77 128.35 35.69 Q 128.35 35.69 128.43 35.58 Q 128.61 35.36 128.71 34.51 Q 128.81 33.85 128.91 32.51 L 123.95 32.51 Q 123.83 32.72 123.70 32.91 Q 123.62 33.04 123.52 33.14 L 127.61 33.14 Z M 134.11 31.12 Q 134.77 32.35 135.86 33.34 Q 136.77 32.41 137.24 31.12 Z M 124.04 34.14 L 124.04 35.28 L 126.19 35.28 L 126.19 34.14 Z M 150.45 28.71 L 160.88 28.71 L 160.88 29.01 Q 160.86 29.30 160.84 29.52 Q 160.77 31.78 160.41 33.91 Q 160.41 33.91 160.05 34.32 Q 159.73 34.66 158.88 34.91 Q 158.88 34.91 158.33 34.96 Q 157.79 34.98 155.95 34.98 Q 155.95 34.98 154.91 34.91 Q 154.89 34.55 154.59 33.61 Q 154.59 33.61 154.38 33.27 Q 155.05 33.31 156.27 33.36 Q 156.27 33.36 157.23 33.38 Q 157.23 33.38 157.45 33.38 Q 157.79 33.38 158.17 33.31 Q 158.17 33.31 158.33 33.21 Q 158.47 33.04 158.66 32.12 Q 158.66 32.12 158.73 31.25 Q 158.75 30.95 158.77 30.58 L 152.46 30.58 L 152.46 36.09 L 159.81 36.09 L 160.18 36.03 L 161.48 36.43 Q 161.01 38.95 159.98 41.12 Q 159.37 42.45 158.55 43.60 Q 158.73 43.77 158.90 43.91 Q 160.39 45.26 162.20 46.03 Q 161.97 46.23 161.46 46.84 Q 161.46 46.84 160.97 47.48 Q 160.97 47.48 160.81 47.74 Q 158.92 46.82 157.39 45.30 Q 157.31 45.24 157.25 45.18 Q 155.74 46.78 153.69 47.84 Q 153.46 47.48 153.08 47.05 Q 152.75 46.70 152.46 46.44 L 152.46 47.72 L 150.45 47.72 Z M 142.17 39.07 Q 143.14 38.84 144.35 38.54 Q 144.84 38.41 145.36 38.29 L 145.36 34.14 L 142.47 34.14 L 142.47 32.19 L 145.36 32.19 L 145.36 27.98 L 147.40 27.98 L 147.40 32.19 L 149.66 32.19 L 149.66 34.14 L 147.40 34.14 L 147.40 37.75 Q 148.51 37.46 149.60 37.15 L 149.84 39.09 Q 148.64 39.46 147.40 39.80 L 147.40 45.41 Q 147.40 46.27 146.97 47.16 Q 146.97 47.16 145.93 47.63 Q 145.93 47.63 144.26 47.78 Q 144.26 47.78 142.98 47.76 Q 142.92 47.37 142.55 46.27 Q 142.55 46.27 142.35 45.84 Q 143.20 45.86 144.65 45.88 Q 144.65 45.88 144.86 45.88 Q 145.14 45.86 145.36 45.66 Q 145.36 45.66 145.36 45.41 L 145.36 40.37 Q 143.90 40.80 142.64 41.12 Z M 155.95 43.69 Q 155.27 42.81 154.70 41.81 Q 153.61 39.97 152.88 37.90 L 152.46 37.90 L 152.46 46.27 Q 153.87 45.56 155.01 44.58 Q 155.50 44.15 155.95 43.69 Z M 154.80 37.90 Q 155.40 39.44 156.29 40.82 Q 156.72 41.51 157.21 42.12 Q 158.02 40.89 158.58 39.52 Q 158.90 38.74 159.14 37.90 Z" xml:space="preserve" style="font-weight:613;font-size:21.3333px;line-height:1.2;font-family:'Dream Han Sans SC';-inkscape-font-specification:'Dream Han Sans SC weight=613';text-align:start;writing-mode:lr-tb;direction:ltr;text-anchor:start;fill:#ffffff" id="text11" data-original-text="大海啸警报" data-original-element="text"/>
</svg>