<?xml version="1.0" ?>
<svg xmlns="http://www.w3.org/2000/svg" xmlns:ns1="http://sodipodi.sourceforge.net/DTD/sodipodi-0.dtd" xmlns:ns2="http://www.inkscape.org/namespaces/inkscape" version="1.1" width="208" height="32" viewBox="0,0,208,32" id="svg9" ns1:docname="1ce794e8ef8ef97acb8ea2048498439f.svg" ns2:version="1.4.2 (f4327f4, 2025-05-13)">
  <defs id="defs9"/>
  <ns1:namedview id="namedview9" pagecolor="#505050" bordercolor="#eeeeee" borderopacity="1" ns2:showpageshadow="0" ns2:pageopacity="0" ns2:pagecheckerboard="0" ns2:deskcolor="#505050" ns2:zoom="8.5240385" ns2:cx="94.732092" ns2:cy="16.013536" ns2:window-width="1920" ns2:window-height="945" ns2:window-x="-9" ns2:window-y="40" ns2:window-maximized="1" ns2:current-layer="svg9"/>
  <g transform="translate(-240,-164)" id="g9">
    <g data-paper-data="{&quot;isPaintingLayer&quot;:true}" fill-rule="nonzero" stroke="none" stroke-linecap="butt" stroke-linejoin="miter" stroke-miterlimit="10" stroke-dasharray="" stroke-dashoffset="0" style="mix-blend-mode: normal" id="g8">
      <path d="M240,196v-32h208v32z" fill="none" stroke-width="0" id="path1"/>
    </g>
  </g>
  <path d="M 0.25 12.26 L 3.82 12.26 L 3.82 9.15 Q 3.67 9.17 3.53 9.21 Q 2.15 9.45 0.86 9.61 Q 0.81 9.27 0.45 8.38 Q 0.45 8.38 0.28 8.06 Q 1.54 7.86 4.12 7.33 Q 4.12 7.33 6.44 6.68 Q 6.44 6.68 7.30 6.33 L 8.62 7.91 Q 7.54 8.29 6.23 8.64 Q 5.99 8.68 5.79 8.74 L 5.79 12.26 L 8.72 12.26 L 8.72 14.11 L 5.79 14.11 L 5.79 14.50 Q 5.95 14.70 6.34 15.10 Q 6.72 15.53 7.58 16.57 Q 7.58 16.57 8.30 17.45 Q 8.30 17.45 8.45 17.66 L 7.32 19.28 Q 7.15 18.92 6.48 17.83 Q 6.48 17.83 6.12 17.23 Q 5.95 16.96 5.79 16.68 L 5.79 25.96 L 3.82 25.96 L 3.82 17.15 Q 3.55 17.79 3.24 18.41 Q 2.69 19.63 1.43 21.71 Q 1.43 21.71 0.79 22.48 Q 0.70 22.19 0.34 21.44 Q 0.34 21.44 -0.07 20.73 Q -0.07 20.73 -0.24 20.48 Q 0.56 19.63 2.11 17.08 Q 2.11 17.08 2.78 15.68 Q 3.16 14.86 3.43 14.11 L 0.25 14.11 Z M 13.06 6.19 L 14.93 6.19 Q 14.91 8.88 14.85 11.34 Q 14.81 12.91 14.70 14.35 Q 15.01 16.47 15.60 18.30 Q 16.25 20.36 18.43 23.44 Q 18.43 23.44 20.08 24.33 Q 19.78 24.59 19.03 25.53 Q 19.03 25.53 18.82 25.90 Q 17.05 24.82 14.74 21.40 Q 14.74 21.40 14.04 19.11 Q 13.99 18.96 13.95 18.83 Q 13.79 19.43 13.59 20.01 Q 12.95 21.86 10.65 24.88 Q 10.65 24.88 8.81 25.98 Q 8.60 25.61 7.81 24.76 Q 7.81 24.76 7.46 24.53 Q 9.19 23.51 11.35 20.77 Q 11.35 20.77 12.50 17.36 Q 12.50 17.36 12.97 13.33 Q 12.97 13.33 13.06 8.74 Q 13.06 8.74 13.06 6.19 Z M 17.58 10.85 L 19.55 11.36 Q 19.20 12.32 18.37 14.40 Q 18.37 14.40 17.54 16.27 Q 17.54 16.27 17.15 17.02 L 15.46 16.51 Q 15.85 15.76 16.64 13.78 Q 16.64 13.78 17.37 11.73 Q 17.37 11.73 17.58 10.85 Z M 9.88 10.88 L 11.61 11.14 Q 11.57 12.18 11.22 14.38 Q 11.22 14.38 10.58 16.35 Q 10.58 16.35 10.11 17.13 L 8.38 16.41 Q 8.81 15.78 9.43 13.95 Q 9.43 13.95 9.80 11.85 Q 9.80 11.85 9.88 10.88 Z M 22.55 7.61 L 40.11 7.61 L 40.11 25.77 L 38.01 25.77 L 38.01 24.45 L 24.56 24.45 L 24.56 25.77 L 22.55 25.77 Z M 38.01 22.42 L 38.01 16.94 L 32.19 16.94 L 32.19 22.42 Z M 38.01 14.93 L 38.01 9.55 L 32.19 9.55 L 32.19 14.93 Z M 24.56 22.42 L 30.14 22.42 L 30.14 16.94 L 24.56 16.94 Z M 30.14 14.93 L 30.14 9.55 L 24.56 9.55 L 24.56 14.93 Z M 43.12 18.00 L 46.42 18.00 L 46.42 7.17 L 59.29 7.17 L 59.29 18.00 L 62.19 18.00 L 62.19 19.81 L 51.45 19.81 Q 50.33 21.09 49.07 22.23 Q 48.47 22.78 47.89 23.25 L 57.25 22.86 Q 57.03 22.64 56.76 22.40 Q 55.81 21.46 54.89 20.71 L 56.60 19.94 Q 57.51 20.69 59.47 22.52 Q 59.47 22.52 61.18 24.29 Q 61.18 24.29 61.71 24.98 L 59.97 25.92 Q 59.47 25.25 58.73 24.43 Q 55.98 24.55 53.95 24.66 Q 51.78 24.78 48.81 24.94 Q 48.81 24.94 46.93 25.06 Q 46.93 25.06 45.81 25.19 Q 45.81 25.19 45.18 25.30 Q 45.18 25.30 44.97 25.39 Q 44.91 25.17 44.69 24.49 Q 44.69 24.49 44.44 23.74 Q 44.44 23.74 44.33 23.48 Q 44.65 23.40 45.40 22.97 Q 45.40 22.97 45.81 22.64 Q 46.12 22.42 47.42 21.26 Q 47.42 21.26 48.21 20.44 Q 48.49 20.14 48.76 19.81 L 43.12 19.81 Z M 48.36 18.00 L 57.25 18.00 L 57.25 16.02 L 48.36 16.02 Z M 57.25 10.81 L 57.25 8.88 L 48.36 8.88 L 48.36 10.81 Z M 57.25 14.35 L 57.25 12.48 L 48.36 12.48 L 48.36 14.35 Z M 64.54 8.13 L 72.88 8.13 L 72.88 6.23 L 75.07 6.23 L 75.07 8.13 L 83.39 8.13 L 83.39 10.02 L 75.07 10.02 L 75.07 12.01 L 82.41 12.01 L 82.41 23.76 Q 82.41 24.57 81.98 25.43 Q 81.98 25.43 80.81 25.85 Q 80.81 25.85 78.95 25.94 Q 78.95 25.94 77.65 25.94 Q 77.59 25.55 77.18 24.55 Q 77.18 24.55 76.97 24.19 Q 77.59 24.21 78.76 24.23 Q 78.76 24.23 79.70 24.21 Q 79.70 24.21 79.87 24.21 Q 80.17 24.21 80.36 24.02 Q 80.36 24.02 80.36 23.76 L 80.36 13.86 L 67.57 13.86 L 67.57 25.92 L 65.54 25.92 L 65.54 12.01 L 72.88 12.01 L 72.88 10.02 L 64.54 10.02 Z M 69.06 16.96 L 71.21 16.96 Q 71.09 16.47 70.74 15.78 Q 70.40 15.08 70.04 14.50 L 71.62 14.01 Q 72.05 14.56 72.74 15.93 Q 72.74 15.93 72.92 16.45 L 71.44 16.96 L 74.92 16.96 Q 75.16 16.55 75.41 16.06 Q 75.67 15.53 76.16 14.46 Q 76.16 14.46 76.33 14.01 L 78.04 14.52 Q 77.63 15.31 77.18 16.10 Q 76.91 16.57 76.65 16.96 L 78.93 16.96 L 78.93 18.55 L 74.86 18.55 L 74.86 20.40 L 79.34 20.40 L 79.34 22.05 L 74.86 22.05 L 74.86 25.47 L 72.94 25.47 L 72.94 22.05 L 68.61 22.05 L 68.61 20.40 L 72.94 20.40 L 72.94 18.55 L 69.06 18.55 Z M 97.84 7.25 L 103.36 7.25 L 103.66 7.17 L 105.05 8.04 Q 104.49 9.55 103.15 12.99 Q 103.15 12.99 102.50 14.42 Q 103.87 15.91 104.72 18.45 Q 104.72 18.45 104.72 19.54 Q 104.72 20.56 104.25 22.07 Q 104.25 22.07 103.70 22.46 Q 103.42 22.64 102.72 22.86 Q 102.72 22.86 102.32 22.93 Q 101.95 22.97 101.04 22.97 Q 101.04 22.97 100.57 22.95 Q 100.55 22.56 100.31 21.48 Q 100.31 21.48 100.06 21.07 Q 100.48 21.11 101.22 21.14 Q 101.22 21.14 101.53 21.11 Q 101.76 21.11 102.19 21.01 Q 102.19 21.01 102.36 20.91 Q 102.64 20.71 102.89 19.85 Q 102.89 19.85 102.87 19.32 Q 102.87 18.36 101.93 16.04 Q 101.93 16.04 100.59 14.66 Q 100.91 13.84 101.61 11.99 Q 101.61 11.99 102.25 10.13 Q 102.25 10.13 102.53 9.30 Q 102.57 9.19 102.61 9.06 L 99.63 9.06 L 99.63 25.90 L 97.84 25.90 Z M 86.76 17.96 L 95.95 17.96 L 95.95 25.73 L 93.97 25.73 L 93.97 24.88 L 88.66 24.88 L 88.66 25.88 L 86.76 25.88 Z M 86.23 8.59 L 90.49 8.59 Q 90.41 8.35 90.33 8.08 Q 90.03 7.25 89.68 6.54 L 91.49 6.03 Q 91.86 6.72 92.18 7.53 Q 92.44 8.13 92.59 8.59 L 96.40 8.59 L 96.40 10.43 L 93.59 10.43 L 95.56 10.85 Q 95.25 11.60 94.61 13.14 Q 94.61 13.14 94.30 13.86 Q 94.16 14.11 94.06 14.35 L 96.88 14.35 L 96.88 16.19 L 85.63 16.19 L 85.63 14.35 L 88.68 14.35 Q 88.56 13.65 88.21 12.73 Q 87.85 11.75 87.44 10.92 L 89.17 10.47 Q 89.62 11.28 90.37 13.20 Q 90.37 13.20 90.51 13.93 L 88.94 14.35 L 92.14 14.35 Q 92.35 13.91 92.57 13.35 Q 92.87 12.60 93.12 11.83 Q 93.38 11.07 93.55 10.43 L 86.23 10.43 Z M 93.97 23.10 L 93.97 19.77 L 88.66 19.77 L 88.66 23.10 Z M 114.33 16.64 L 124.93 16.64 L 124.93 25.90 L 122.90 25.90 L 122.90 24.76 L 116.26 24.76 L 116.26 26.00 L 114.33 26.00 Z M 115.45 7.15 L 123.59 7.15 L 123.59 12.99 Q 123.59 13.48 123.71 13.86 Q 123.71 13.86 123.94 13.86 L 125.14 13.86 Q 125.36 13.86 125.99 13.82 Q 125.99 13.82 126.19 13.76 Q 126.23 14.14 126.30 15.01 Q 126.30 15.01 126.34 15.35 Q 126.12 15.42 125.50 15.48 Q 125.50 15.48 125.18 15.48 L 123.67 15.48 Q 122.82 15.48 121.92 14.95 Q 121.92 14.95 121.62 13.82 Q 121.62 13.82 121.62 12.95 L 121.62 9.02 L 117.40 9.02 L 117.40 9.57 Q 117.40 10.71 116.78 13.24 Q 116.78 13.24 115.14 15.61 Q 115.14 15.61 113.56 16.53 Q 113.45 16.29 112.94 15.70 Q 112.94 15.70 112.43 15.13 Q 112.43 15.13 112.23 14.97 Q 113.62 14.21 115.00 12.34 Q 115.00 12.34 115.45 10.41 Q 115.45 10.41 115.45 9.51 Z M 122.90 22.89 L 122.90 18.49 L 116.26 18.49 L 116.26 22.89 Z M 107.16 24.25 Q 107.75 23.46 109.24 21.24 Q 109.24 21.24 110.81 18.75 Q 110.81 18.75 111.48 17.55 L 112.92 18.98 Q 112.32 20.07 110.93 22.42 Q 110.93 22.42 109.53 24.70 Q 109.53 24.70 108.84 25.73 Z M 107.75 7.91 L 109.01 6.64 Q 109.67 6.97 111.17 7.89 Q 111.17 7.89 112.51 8.80 Q 112.51 8.80 112.96 9.21 L 111.62 10.65 Q 111.21 10.24 109.89 9.25 Q 109.89 9.25 108.42 8.29 Q 108.42 8.29 107.75 7.91 Z M 106.62 13.69 L 107.88 12.40 Q 108.55 12.71 110.04 13.54 Q 110.04 13.54 111.42 14.42 Q 111.42 14.42 111.87 14.78 L 110.55 16.23 Q 110.14 15.84 108.80 14.95 Q 108.80 14.95 107.31 14.03 Q 107.31 14.03 106.62 13.69 Z M 133.40 16.17 L 146.56 16.17 L 146.56 17.90 L 140.91 17.90 L 140.91 19.90 L 147.63 19.90 L 147.63 21.67 L 140.91 21.67 L 140.91 25.96 L 138.80 25.96 L 138.80 21.67 L 132.37 21.67 L 132.37 19.90 L 138.80 19.90 L 138.80 17.90 L 133.40 17.90 Z M 129.82 12.84 L 147.31 12.84 L 147.31 14.64 L 131.84 14.64 L 131.84 16.94 Q 131.84 17.92 131.65 20.20 Q 131.65 20.20 131.16 22.54 Q 131.16 22.54 130.26 24.74 Q 130.26 24.74 129.54 25.64 Q 129.39 25.45 128.79 24.94 Q 128.79 24.94 128.13 24.45 Q 128.13 24.45 127.91 24.33 Q 128.79 23.25 129.58 20.65 Q 129.58 20.65 129.82 18.02 Q 129.82 18.02 129.82 16.92 Z M 129.90 6.95 L 131.94 6.95 L 131.94 9.55 L 136.92 9.55 L 136.92 6.14 L 139.05 6.14 L 139.05 9.55 L 144.13 9.55 L 144.13 6.95 L 146.24 6.95 L 146.24 11.36 L 129.90 11.36 Z M 162.03 6.16 L 163.92 6.16 L 163.92 11.30 L 166.28 10.30 L 166.64 10.00 L 166.99 9.73 L 168.43 10.26 L 168.34 10.59 Q 168.34 12.11 168.32 14.70 Q 168.32 14.70 168.28 16.72 Q 168.28 16.72 168.21 18.10 Q 168.21 18.10 168.15 18.43 Q 168.09 19.11 167.50 19.83 Q 167.50 19.83 167.01 19.99 Q 166.57 20.16 165.40 20.22 Q 165.40 20.22 164.93 20.22 Q 164.89 19.81 164.63 18.81 Q 164.63 18.81 164.48 18.49 Q 164.80 18.51 165.57 18.53 Q 165.57 18.53 165.71 18.53 Q 165.95 18.53 166.23 18.32 Q 166.23 18.32 166.30 18.00 Q 166.34 17.81 166.38 16.61 Q 166.38 16.61 166.40 14.68 Q 166.40 14.68 166.40 13.33 Q 166.40 12.81 166.40 12.28 L 163.92 13.35 L 163.92 21.09 L 162.03 21.09 L 162.03 14.16 L 159.64 15.19 L 159.64 22.27 Q 159.64 22.86 159.85 23.48 Q 159.85 23.48 160.56 23.70 Q 160.56 23.70 161.23 23.70 L 165.95 23.70 Q 166.57 23.70 167.17 23.23 Q 167.17 23.23 167.46 21.99 Q 167.46 21.99 167.54 20.81 Q 167.87 21.05 168.92 21.48 Q 168.92 21.48 169.33 21.56 Q 169.19 23.06 168.56 24.76 Q 168.56 24.76 167.25 25.51 Q 167.25 25.51 166.08 25.51 L 161.11 25.51 Q 159.81 25.51 158.30 24.96 Q 158.30 24.96 157.69 23.53 Q 157.69 23.53 157.69 22.25 L 157.69 16.02 L 156.24 16.64 L 155.47 14.86 L 157.69 13.93 L 157.69 8.19 L 159.64 8.19 L 159.64 13.11 L 162.03 12.09 Z M 149.44 11.22 L 152.09 11.22 L 152.09 6.42 L 153.98 6.42 L 153.98 11.22 L 156.35 11.22 L 156.35 13.11 L 153.98 13.11 L 153.98 18.81 Q 155.10 18.34 156.22 17.88 L 156.67 19.67 Q 154.96 20.48 151.46 22.09 Q 151.46 22.09 150.01 22.74 L 149.22 20.71 Q 150.08 20.40 151.23 19.94 Q 151.66 19.77 152.09 19.58 L 152.09 13.11 L 149.44 13.11 Z M 189.79 7.23 L 189.79 9.15 L 173.87 9.15 L 173.87 23.40 L 190.34 23.40 L 190.34 25.34 L 171.90 25.34 L 171.90 7.23 Z M 185.45 10.02 L 187.33 10.79 Q 185.96 13.09 184.17 15.21 Q 183.76 15.68 183.36 16.13 Q 184.66 17.27 185.82 18.36 Q 187.12 19.63 188.01 20.65 L 186.41 22.14 Q 185.58 21.09 184.32 19.83 Q 183.23 18.73 181.97 17.57 Q 181.20 18.34 180.39 19.07 Q 178.37 20.81 176.32 22.16 Q 176.15 21.95 175.58 21.35 Q 175.58 21.35 174.97 20.79 Q 174.97 20.79 174.74 20.60 Q 176.86 19.41 178.84 17.77 Q 179.71 17.04 180.52 16.25 Q 179.52 15.33 178.49 14.44 Q 176.96 13.11 175.54 11.97 L 176.94 10.77 Q 178.33 11.85 179.88 13.16 Q 180.89 13.99 181.89 14.84 Q 182.21 14.50 182.50 14.14 Q 184.21 12.16 185.45 10.02 Z" xml:space="preserve" style="font-weight:613;font-size:21.3333px;line-height:1.2;font-family:'Dream Han Sans SC';-inkscape-font-specification:'Dream Han Sans SC weight=613';text-align:start;writing-mode:lr-tb;direction:ltr;text-anchor:start;fill:#2b0000" id="text9" data-original-text="秋田县南部沿岸地区" data-original-element="text"/>
</svg>