<?xml version="1.0" ?>
<svg xmlns="http://www.w3.org/2000/svg" xmlns:ns1="http://sodipodi.sourceforge.net/DTD/sodipodi-0.dtd" xmlns:ns2="http://www.inkscape.org/namespaces/inkscape" version="1.1" width="208" height="32" viewBox="0,0,208,32" id="svg10" ns1:docname="1e8eb9a25bcb0cb4cd1c59f7eda99caa.svg" ns2:version="1.4.2 (f4327f4, 2025-05-13)">
  <defs id="defs10"/>
  <ns1:namedview id="namedview10" pagecolor="#505050" bordercolor="#eeeeee" borderopacity="1" ns2:showpageshadow="0" ns2:pageopacity="0" ns2:pagecheckerboard="0" ns2:deskcolor="#505050" ns2:zoom="8.5240385" ns2:cx="135.55781" ns2:cy="16.013536" ns2:window-width="1920" ns2:window-height="945" ns2:window-x="-9" ns2:window-y="40" ns2:window-maximized="1" ns2:current-layer="svg10"/>
  <g transform="translate(-240,-164)" id="g10">
    <g data-paper-data="{&quot;isPaintingLayer&quot;:true}" fill-rule="nonzero" stroke="none" stroke-linecap="butt" stroke-linejoin="miter" stroke-miterlimit="10" stroke-dasharray="" stroke-dashoffset="0" style="mix-blend-mode: normal" id="g9">
      <path d="M240,196v-32h208v32z" fill="none" stroke-width="0" id="path1"/>
    </g>
  </g>
  <path d="M 2.34 18.81 L 17.32 18.81 L 17.32 25.68 L 15.32 25.68 L 15.32 24.97 L 4.25 24.97 L 4.25 25.72 L 2.34 25.72 Z M 3.60 11.86 L 15.89 11.86 L 15.89 17.17 L 3.60 17.17 Z M 0.73 8.23 L 8.75 8.23 Q 8.69 8.10 8.64 7.97 Q 8.28 7.08 7.85 6.35 L 9.89 5.76 Q 10.32 6.46 10.73 7.32 Q 10.97 7.81 11.13 8.23 L 18.77 8.23 L 18.77 12.90 L 16.69 12.90 L 16.69 10.19 L 2.75 10.19 L 2.75 12.90 L 0.73 12.90 Z M 15.32 23.22 L 15.32 20.56 L 4.25 20.56 L 4.25 23.22 Z M 5.48 13.51 L 5.48 15.55 L 13.91 15.55 L 13.91 13.51 Z M 29.78 7.69 L 34.18 7.69 Q 34.26 6.89 34.30 5.92 L 36.13 5.92 Q 36.09 6.87 36.01 7.69 L 40.36 7.69 L 40.36 9.32 L 35.76 9.32 Q 35.69 9.56 35.62 9.79 Q 36.23 10.09 36.93 10.43 Q 37.91 10.94 39.75 11.92 Q 39.75 11.92 40.36 12.31 L 39.10 13.71 Q 38.53 13.31 36.76 12.29 Q 36.76 12.29 35.78 11.76 Q 35.33 11.49 34.93 11.29 Q 34.32 12.13 33.32 12.73 Q 32.32 13.33 30.76 13.71 L 41.00 13.71 L 41.00 15.40 L 39.70 15.40 L 39.70 23.57 Q 39.70 24.34 39.30 25.19 Q 39.30 25.19 38.76 25.40 Q 38.21 25.64 36.52 25.72 Q 36.52 25.72 35.26 25.72 Q 35.22 25.34 34.79 24.28 Q 34.79 24.28 34.60 23.91 Q 35.54 23.93 37.12 23.95 Q 37.12 23.95 37.37 23.93 Q 37.63 23.93 37.82 23.77 Q 37.82 23.77 37.82 23.55 L 37.82 15.40 L 29.19 15.40 L 29.19 13.71 L 30.41 13.71 Q 30.27 13.41 30.02 13.03 Q 29.74 12.61 29.48 12.35 Q 31.06 12.01 32.94 11.01 Q 32.94 11.01 33.41 10.23 Q 33.69 9.83 33.85 9.32 L 29.78 9.32 Z M 27.26 9.42 L 28.74 9.42 L 28.74 23.48 L 27.26 23.48 L 27.26 22.53 L 21.66 23.08 L 21.66 9.44 L 23.08 9.44 L 23.08 21.16 L 24.34 21.03 L 24.34 6.14 L 25.99 6.14 L 25.99 20.88 L 27.26 20.76 Z M 30.49 16.81 L 36.07 16.81 L 36.07 21.95 L 32.10 21.95 L 32.10 23.12 L 30.49 23.12 Z M 32.10 18.26 L 32.10 20.47 L 34.44 20.47 L 34.44 18.26 Z M 42.88 17.77 L 46.19 17.77 L 46.19 6.93 L 59.05 6.93 L 59.05 17.77 L 61.96 17.77 L 61.96 19.58 L 51.22 19.58 Q 50.09 20.86 48.83 21.99 Q 48.24 22.55 47.66 23.02 L 57.02 22.63 Q 56.79 22.40 56.53 22.16 Q 55.57 21.22 54.66 20.47 L 56.36 19.70 Q 57.28 20.45 59.24 22.29 Q 59.24 22.29 60.95 24.06 Q 60.95 24.06 61.48 24.74 L 59.74 25.68 Q 59.24 25.02 58.50 24.19 Q 55.75 24.32 53.72 24.42 Q 51.54 24.55 48.57 24.70 Q 48.57 24.70 46.70 24.83 Q 46.70 24.83 45.57 24.95 Q 45.57 24.95 44.95 25.07 Q 44.95 25.07 44.74 25.15 Q 44.68 24.93 44.46 24.26 Q 44.46 24.26 44.21 23.51 Q 44.21 23.51 44.09 23.24 Q 44.42 23.16 45.17 22.73 Q 45.17 22.73 45.57 22.40 Q 45.88 22.18 47.19 21.03 Q 47.19 21.03 47.98 20.20 Q 48.26 19.90 48.53 19.58 L 42.88 19.58 Z M 48.12 17.77 L 57.02 17.77 L 57.02 15.79 L 48.12 15.79 Z M 57.02 10.58 L 57.02 8.64 L 48.12 8.64 L 48.12 10.58 Z M 57.02 14.12 L 57.02 12.24 L 48.12 12.24 L 48.12 14.12 Z M 64.30 7.89 L 72.64 7.89 L 72.64 5.99 L 74.83 5.99 L 74.83 7.89 L 83.16 7.89 L 83.16 9.79 L 74.83 9.79 L 74.83 11.78 L 82.18 11.78 L 82.18 23.53 Q 82.18 24.34 81.75 25.19 Q 81.75 25.19 80.57 25.62 Q 80.57 25.62 78.72 25.70 Q 78.72 25.70 77.42 25.70 Q 77.35 25.32 76.95 24.32 Q 76.95 24.32 76.74 23.95 Q 77.35 23.97 78.53 23.99 Q 78.53 23.99 79.47 23.97 Q 79.47 23.97 79.63 23.97 Q 79.94 23.97 80.12 23.79 Q 80.12 23.79 80.12 23.53 L 80.12 13.63 L 67.33 13.63 L 67.33 25.68 L 65.30 25.68 L 65.30 11.78 L 72.64 11.78 L 72.64 9.79 L 64.30 9.79 Z M 68.82 16.72 L 70.98 16.72 Q 70.85 16.23 70.51 15.55 Q 70.17 14.85 69.80 14.27 L 71.38 13.78 Q 71.81 14.33 72.51 15.69 Q 72.51 15.69 72.69 16.21 L 71.21 16.72 L 74.69 16.72 Q 74.93 16.32 75.18 15.83 Q 75.44 15.30 75.93 14.22 Q 75.93 14.22 76.09 13.78 L 77.80 14.29 Q 77.39 15.08 76.95 15.87 Q 76.68 16.34 76.42 16.72 L 78.70 16.72 L 78.70 18.32 L 74.62 18.32 L 74.62 20.16 L 79.10 20.16 L 79.10 21.82 L 74.62 21.82 L 74.62 25.23 L 72.71 25.23 L 72.71 21.82 L 68.37 21.82 L 68.37 20.16 L 72.71 20.16 L 72.71 18.32 L 68.82 18.32 Z M 97.60 7.02 L 103.12 7.02 L 103.43 6.93 L 104.81 7.81 Q 104.26 9.32 102.92 12.76 Q 102.92 12.76 102.27 14.18 Q 103.63 15.67 104.49 18.21 Q 104.49 18.21 104.49 19.31 Q 104.49 20.33 104.02 21.84 Q 104.02 21.84 103.47 22.22 Q 103.19 22.40 102.49 22.63 Q 102.49 22.63 102.08 22.69 Q 101.72 22.73 100.80 22.73 Q 100.80 22.73 100.33 22.71 Q 100.31 22.33 100.07 21.24 Q 100.07 21.24 99.82 20.84 Q 100.25 20.88 100.99 20.90 Q 100.99 20.90 101.29 20.88 Q 101.53 20.88 101.96 20.78 Q 101.96 20.78 102.12 20.67 Q 102.41 20.47 102.66 19.62 Q 102.66 19.62 102.63 19.09 Q 102.63 18.13 101.70 15.81 Q 101.70 15.81 100.35 14.42 Q 100.68 13.61 101.37 11.76 Q 101.37 11.76 102.02 9.89 Q 102.02 9.89 102.29 9.07 Q 102.33 8.95 102.37 8.83 L 99.39 8.83 L 99.39 25.66 L 97.60 25.66 Z M 86.53 17.72 L 95.72 17.72 L 95.72 25.49 L 93.74 25.49 L 93.74 24.64 L 88.43 24.64 L 88.43 25.64 L 86.53 25.64 Z M 86.00 8.36 L 90.26 8.36 Q 90.18 8.12 90.09 7.85 Q 89.79 7.02 89.45 6.31 L 91.26 5.80 Q 91.62 6.48 91.95 7.30 Q 92.21 7.89 92.35 8.36 L 96.17 8.36 L 96.17 10.19 L 93.35 10.19 L 95.32 10.62 Q 95.02 11.37 94.37 12.90 Q 94.37 12.90 94.06 13.63 Q 93.93 13.88 93.82 14.12 L 96.64 14.12 L 96.64 15.95 L 85.39 15.95 L 85.39 14.12 L 88.45 14.12 Q 88.32 13.41 87.98 12.49 Q 87.61 11.52 87.21 10.68 L 88.94 10.23 Q 89.38 11.05 90.13 12.96 Q 90.13 12.96 90.28 13.69 L 88.71 14.12 L 91.91 14.12 Q 92.11 13.67 92.33 13.12 Q 92.63 12.37 92.88 11.60 Q 93.14 10.84 93.31 10.19 L 86.00 10.19 Z M 93.74 22.87 L 93.74 19.54 L 88.43 19.54 L 88.43 22.87 Z M 115.31 6.14 L 117.44 6.14 L 117.44 22.06 L 122.86 22.06 L 122.86 10.39 L 124.95 10.39 L 124.95 25.66 L 122.86 25.66 L 122.86 24.10 L 107.91 24.10 L 107.91 10.45 L 109.98 10.45 L 109.98 22.06 L 115.31 22.06 Z M 137.79 7.28 L 141.29 7.28 L 141.29 5.92 L 143.12 5.92 L 143.12 7.28 L 147.33 7.28 L 147.33 8.70 L 143.98 8.70 Q 144.22 8.87 144.45 9.04 Q 145.24 9.60 146.99 10.54 Q 146.99 10.54 147.76 10.84 Q 147.48 11.05 146.83 11.80 Q 146.83 11.80 146.62 12.07 Q 145.87 11.68 144.08 10.54 Q 144.08 10.54 143.27 9.87 Q 143.19 9.81 143.12 9.74 L 143.12 12.05 L 141.29 12.05 L 141.29 9.74 Q 141.29 9.74 141.29 9.74 Q 140.54 10.36 139.71 10.92 Q 139.18 11.26 138.64 11.54 Q 138.83 11.86 139.01 12.24 Q 139.09 12.41 139.16 12.58 L 147.05 12.58 L 147.05 14.08 L 141.21 14.08 L 141.21 15.38 L 146.32 15.38 L 146.32 19.41 L 141.23 19.41 L 141.23 20.96 Q 141.74 20.88 142.29 20.76 Q 143.30 20.56 145.13 20.07 Q 145.13 20.07 145.77 19.82 L 146.86 21.01 Q 146.03 21.33 143.94 21.82 Q 143.94 21.82 142.85 22.02 Q 142.02 22.16 141.23 22.29 L 141.23 23.38 Q 141.23 23.79 141.61 24.04 Q 141.61 24.04 142.25 24.04 L 145.18 24.04 Q 145.54 24.04 145.89 23.77 Q 145.89 23.77 146.07 23.02 Q 146.07 23.02 146.09 22.27 Q 146.36 22.44 147.29 22.76 Q 147.29 22.76 147.64 22.85 Q 147.54 23.85 147.09 24.99 Q 147.09 24.99 146.18 25.44 Q 146.18 25.44 145.36 25.44 L 142.06 25.44 Q 141.01 25.44 139.86 25.09 Q 139.86 25.09 139.42 24.19 Q 139.42 24.19 139.42 23.40 L 139.42 19.41 L 134.25 19.41 L 134.25 20.69 L 138.60 20.69 L 138.60 22.06 L 134.25 22.06 L 134.25 23.72 L 138.75 23.24 Q 138.75 23.57 138.81 24.38 Q 138.81 24.38 138.86 24.62 Q 136.81 24.85 134.33 25.17 Q 134.33 25.17 133.01 25.36 Q 133.01 25.36 132.39 25.52 Q 132.39 25.52 132.23 25.60 Q 132.16 25.28 131.82 24.34 Q 131.82 24.34 131.62 24.04 Q 131.93 23.93 132.52 23.46 Q 132.52 23.46 132.52 22.87 L 132.52 19.41 L 131.16 19.41 Q 131.05 20.29 130.91 21.20 Q 130.67 22.44 129.81 24.77 Q 129.81 24.77 129.11 25.74 Q 128.98 25.56 128.43 25.09 Q 128.43 25.09 127.83 24.64 Q 127.83 24.64 127.61 24.53 Q 128.45 23.36 129.24 20.54 Q 129.24 20.54 129.45 17.72 Q 129.45 17.72 129.45 16.53 L 129.45 12.58 L 137.07 12.58 Q 136.87 12.09 136.62 11.70 L 137.77 11.45 Q 137.67 11.33 137.54 11.19 Q 137.22 10.86 136.89 10.64 Q 137.69 10.36 139.37 9.44 Q 139.37 9.44 140.11 8.89 Q 140.25 8.79 140.35 8.70 L 137.79 8.70 Z M 128.20 7.28 L 131.99 7.28 L 131.99 5.92 L 133.80 5.92 L 133.80 7.28 L 137.26 7.28 L 137.26 8.70 L 134.25 8.70 Q 134.76 8.95 135.32 9.28 Q 135.87 9.60 136.81 10.13 Q 136.81 10.13 137.02 10.28 L 135.98 11.43 Q 135.72 11.21 134.82 10.56 Q 134.82 10.56 134.31 10.19 Q 134.06 10.03 133.80 9.85 L 133.80 12.09 L 131.99 12.09 L 131.99 9.87 Q 131.95 9.91 131.91 9.96 Q 131.18 10.62 129.58 11.76 Q 129.58 11.76 128.83 12.16 Q 128.64 11.86 128.00 11.13 Q 128.00 11.13 127.70 10.90 Q 128.43 10.62 130.03 9.66 Q 130.03 9.66 130.71 9.09 Q 130.95 8.89 131.16 8.70 L 128.20 8.70 Z M 141.21 18.07 L 144.49 18.07 L 144.49 16.72 L 141.21 16.72 Z M 131.29 16.72 Q 131.29 17.36 131.24 18.07 L 134.47 18.07 L 134.47 16.72 Z M 136.26 18.07 L 139.42 18.07 L 139.42 16.72 L 136.26 16.72 Z M 131.31 14.08 L 131.31 15.38 L 134.47 15.38 L 134.47 14.08 Z M 139.42 15.38 L 139.42 14.08 L 136.26 14.08 L 136.26 15.38 Z M 161.79 5.92 L 163.69 5.92 L 163.69 11.07 L 166.04 10.07 L 166.40 9.77 L 166.76 9.49 L 168.20 10.03 L 168.10 10.36 Q 168.10 11.88 168.08 14.46 Q 168.08 14.46 168.04 16.48 Q 168.04 16.48 167.98 17.87 Q 167.98 17.87 167.92 18.19 Q 167.85 18.88 167.27 19.60 Q 167.27 19.60 166.78 19.76 Q 166.33 19.92 165.17 19.98 Q 165.17 19.98 164.70 19.98 Q 164.65 19.58 164.39 18.58 Q 164.39 18.58 164.25 18.26 Q 164.56 18.28 165.33 18.30 Q 165.33 18.30 165.48 18.30 Q 165.72 18.30 166.00 18.09 Q 166.00 18.09 166.06 17.77 Q 166.10 17.58 166.14 16.38 Q 166.14 16.38 166.17 14.44 Q 166.17 14.44 166.17 13.10 Q 166.17 12.58 166.17 12.05 L 163.69 13.12 L 163.69 20.86 L 161.79 20.86 L 161.79 13.92 L 159.40 14.95 L 159.40 22.04 Q 159.40 22.63 159.61 23.24 Q 159.61 23.24 160.32 23.46 Q 160.32 23.46 161.00 23.46 L 165.72 23.46 Q 166.33 23.46 166.94 22.99 Q 166.94 22.99 167.23 21.76 Q 167.23 21.76 167.30 20.58 Q 167.63 20.82 168.69 21.24 Q 168.69 21.24 169.09 21.33 Q 168.96 22.83 168.32 24.53 Q 168.32 24.53 167.02 25.28 Q 167.02 25.28 165.84 25.28 L 160.87 25.28 Q 159.57 25.28 158.06 24.72 Q 158.06 24.72 157.46 23.30 Q 157.46 23.30 157.46 22.02 L 157.46 15.79 L 156.01 16.40 L 155.24 14.63 L 157.46 13.69 L 157.46 7.95 L 159.40 7.95 L 159.40 12.88 L 161.79 11.86 Z M 149.21 10.98 L 151.85 10.98 L 151.85 6.18 L 153.75 6.18 L 153.75 10.98 L 156.11 10.98 L 156.11 12.88 L 153.75 12.88 L 153.75 18.58 Q 154.86 18.11 155.99 17.64 L 156.44 19.43 Q 154.73 20.24 151.23 21.86 Q 151.23 21.86 149.78 22.51 L 148.99 20.47 Q 149.84 20.16 151.00 19.70 Q 151.43 19.54 151.85 19.35 L 151.85 12.88 L 149.21 12.88 Z M 173.57 16.89 L 179.26 16.89 L 179.26 14.71 L 173.25 14.71 L 173.25 17.54 L 171.29 17.54 L 171.29 13.01 L 189.55 13.01 L 189.55 17.54 L 187.62 17.54 L 187.62 21.82 Q 187.62 22.53 187.29 23.32 Q 187.29 23.32 186.75 23.55 Q 186.26 23.77 184.75 23.85 Q 184.75 23.85 183.68 23.85 Q 183.61 23.44 183.25 22.46 Q 183.25 22.46 183.06 22.08 Q 183.79 22.10 185.02 22.12 Q 185.02 22.12 185.24 22.10 Q 185.45 22.10 185.60 21.97 Q 185.60 21.97 185.60 21.80 L 185.60 18.66 L 181.35 18.66 L 181.35 25.72 L 179.26 25.72 L 179.26 18.66 L 175.57 18.66 L 175.57 23.85 L 173.57 23.85 Z M 179.35 6.02 L 181.35 6.02 L 181.35 8.32 L 184.73 8.32 L 184.73 6.02 L 186.75 6.02 L 186.75 8.32 L 190.04 8.32 L 190.04 10.05 L 186.75 10.05 L 186.75 12.11 L 184.73 12.11 L 184.73 10.05 L 181.35 10.05 L 181.35 12.03 L 179.35 12.03 L 179.35 10.05 L 176.14 10.05 L 176.14 12.07 L 174.12 12.07 L 174.12 10.05 L 170.79 10.05 L 170.79 8.32 L 174.12 8.32 L 174.12 6.02 L 176.14 6.02 L 176.14 8.32 L 179.35 8.32 Z M 181.35 14.71 L 181.35 16.89 L 187.48 16.89 L 187.48 14.71 Z" xml:space="preserve" style="font-weight:613;font-size:21.3333px;line-height:1.2;font-family:'Dream Han Sans SC';-inkscape-font-specification:'Dream Han Sans SC weight=613';text-align:start;writing-mode:lr-tb;direction:ltr;text-anchor:start;fill:#ffffff" id="text10" data-original-text="宫崎县南部山麓地带" data-original-element="text"/>
</svg>