<?xml version="1.0" ?>
<svg xmlns="http://www.w3.org/2000/svg" xmlns:ns1="http://sodipodi.sourceforge.net/DTD/sodipodi-0.dtd" xmlns:ns2="http://www.inkscape.org/namespaces/inkscape" version="1.1" width="100" height="100" viewBox="0,0,100,100" id="svg4" ns1:docname="1eda62f36921d873343566e56caabdee.svg" ns2:version="1.4.2 (f4327f4, 2025-05-13)">
  <defs id="defs4"/>
  <ns1:namedview id="namedview4" pagecolor="#505050" bordercolor="#eeeeee" borderopacity="1" ns2:showpageshadow="0" ns2:pageopacity="0" ns2:pagecheckerboard="0" ns2:deskcolor="#505050" ns2:zoom="16" ns2:cx="50.21875" ns2:cy="48.34375" ns2:window-width="1920" ns2:window-height="945" ns2:window-x="-9" ns2:window-y="40" ns2:window-maximized="1" ns2:current-layer="svg4"/>
  <g transform="translate(-190,-130)" id="g4">
    <g data-paper-data="{&quot;isPaintingLayer&quot;:true}" fill-rule="nonzero" stroke-linecap="butt" stroke-linejoin="miter" stroke-miterlimit="10" stroke-dasharray="" stroke-dashoffset="0" style="mix-blend-mode: normal" id="g3">
      <path d="M190,230v-100h100v100z" fill="none" stroke="#959196" stroke-width="0" id="path1"/>
    </g>
  </g>
  <path d="M 33.22 40.73 L 56.32 40.73 L 56.32 43.28 L 47.90 43.28 Q 47.09 44.67 46.12 46.03 L 46.12 63.58 L 43.39 63.58 L 43.39 49.48 Q 41.76 51.29 39.89 52.89 Q 37.24 55.13 34.21 56.73 Q 34.03 56.40 33.39 55.58 Q 33.39 55.58 32.77 54.75 Q 32.77 54.75 32.48 54.49 Q 34.67 53.45 38.59 50.53 Q 38.59 50.53 41.95 47.15 Q 41.95 47.15 43.25 45.31 Q 44.00 44.29 44.59 43.28 L 33.22 43.28 Z M 46.22 48.99 L 48.13 47.37 Q 49.28 48.14 51.81 49.94 Q 51.81 49.94 54.31 51.90 Q 54.31 51.90 56.48 53.76 Q 56.48 53.76 57.19 54.54 L 55.12 56.46 Q 54.42 55.69 52.35 53.76 Q 52.35 53.76 49.91 51.74 Q 49.91 51.74 47.39 49.81 Q 47.39 49.81 46.22 48.99 Z M 71.33 40.01 L 83.01 40.01 L 83.01 60.57 Q 83.01 61.62 82.45 62.84 Q 82.45 62.84 81.76 63.12 Q 81.03 63.45 78.74 63.60 Q 78.74 63.60 77.04 63.60 Q 76.98 63.25 76.68 62.35 Q 76.68 62.35 76.35 61.47 Q 76.35 61.47 76.12 61.16 Q 76.96 61.18 78.48 61.18 Q 78.48 61.18 79.63 61.18 Q 79.63 61.18 79.86 61.18 Q 80.24 61.16 80.50 60.88 Q 80.50 60.88 80.50 60.53 L 80.50 55.15 L 73.30 55.15 Q 73.12 56.08 72.86 57.04 Q 72.26 58.97 70.08 62.46 Q 70.08 62.46 68.23 63.81 Q 68.05 63.55 67.39 62.91 Q 67.39 62.91 66.63 62.28 Q 66.63 62.28 66.37 62.11 Q 68.05 60.86 70.06 57.80 Q 70.06 57.80 71.03 54.42 Q 71.03 54.42 71.33 51.13 Q 71.33 51.13 71.33 49.58 Z M 60.11 40.43 L 69.12 40.43 L 69.12 56.56 L 62.45 56.56 L 62.45 58.97 L 60.11 58.97 Z M 73.78 48.69 L 73.78 49.58 Q 73.78 51.13 73.62 52.86 L 80.50 52.86 L 80.50 48.69 Z M 73.78 42.33 L 73.78 46.43 L 80.50 46.43 L 80.50 42.33 Z M 62.45 49.53 L 62.45 54.24 L 66.80 54.24 L 66.80 49.53 Z M 62.45 42.72 L 62.45 47.26 L 66.80 47.26 L 66.80 42.72 Z" xml:space="preserve" style="font-weight:613;font-size:26.6667px;line-height:1.2;font-family:'Dream Han Sans SC';-inkscape-font-specification:'Dream Han Sans SC weight=613';text-align:start;writing-mode:lr-tb;direction:ltr;text-anchor:start;fill:#ff0000;fill-opacity:1" id="text4" data-original-text="不明" data-original-element="text"/>
</svg>