<?xml version="1.0" ?>
<svg xmlns="http://www.w3.org/2000/svg" xmlns:ns1="http://sodipodi.sourceforge.net/DTD/sodipodi-0.dtd" xmlns:ns2="http://www.inkscape.org/namespaces/inkscape" viewBox="0 0 224 68" version="1.1" height="68" width="224" id="svg9" ns1:docname="1f5ed41d6b55306754f978995923c706.svg" ns2:version="1.4.2 (f4327f4, 2025-05-13)">
  <defs id="defs9"/>
  <ns1:namedview id="namedview9" pagecolor="#505050" bordercolor="#eeeeee" borderopacity="1" ns2:showpageshadow="0" ns2:pageopacity="0" ns2:pagecheckerboard="0" ns2:deskcolor="#505050" ns2:zoom="5.5968764" ns2:cx="81.38468" ns2:cy="26.175314" ns2:window-width="1920" ns2:window-height="945" ns2:window-x="-9" ns2:window-y="40" ns2:window-maximized="1" ns2:current-layer="svg9"/>
  <g transform="translate(0,2)" id="g5">
    <path stop-color="#000000" fill-rule="evenodd" fill="#f1de2f" d="m20 18h20c5.54 0 10 4.46 10 10v16c0 5.54-4.46 10-10 10h-30v-26c0-5.54 4.46-10 10-10z" id="path2"/>
    <g aria-label="1m" fill="#191705" id="g4">
      <path d="m19.71 31.603-1.65-1.71 4.14-4.5v3.48zm2.49 14.94v-21.15h2.73v21.15z" id="path3"/>
      <path d="m27.704 46.543v-10.1h1.82v10.1zm5.22 0v-6.88h1.82v6.88zm-4.22-6.84q0-1.02 0.38-1.82 0.4-0.82 1.08-1.28t1.52-0.46l-0.46 1.62q-0.72 0-1.22 0.54-0.48 0.54-0.48 1.4zm4.22-0.04q0-0.84-0.48-1.36-0.48-0.54-1.22-0.54l0.46-1.62q0.88 0 1.56 0.46 0.7 0.46 1.1 1.26 0.4 0.78 0.4 1.8zm5.2 6.88v-6.88h1.82v6.88zm-4.2-6.84q0-1.02 0.38-1.82 0.4-0.82 1.06-1.28 0.68-0.46 1.52-0.46l-0.46 1.62q-0.72 0-1.2 0.54t-0.48 1.4zm4.2-0.04q0-0.84-0.48-1.36-0.46-0.54-1.22-0.54l0.46-1.62q0.88 0 1.56 0.46 0.7 0.46 1.1 1.26 0.4 0.78 0.4 1.8z" id="path4"/>
    </g>
  </g>
  <path d="M 0.0 0.0 L 224.0 0.0 L 224.0 68.0 L 0.0 68.0 Z" stop-color="#000000" fill="none" id="rect1" data-original-element="rect"/>
  <path d="M 0.0 2.0 L 224.0 2.0 L 224.0 68.0 L 0.0 68.0 Z" stop-color="#000000" fill="#1d2a41" id="rect2" data-original-element="rect"/>
  <path d="M 68.85 33.90 L 79.91 33.90 L 79.91 34.08 Q 79.89 34.27 79.89 34.71 Q 79.89 34.71 79.89 34.86 Q 79.80 36.87 79.71 38.50 L 81.45 38.50 L 81.45 40.46 L 79.60 40.46 Q 79.50 42.22 79.37 43.47 L 80.84 43.47 L 80.84 45.33 L 79.12 45.33 Q 79.00 45.91 78.91 46.34 Q 78.69 47.16 78.39 47.53 Q 78.03 48.00 77.21 48.36 Q 77.21 48.36 76.69 48.46 Q 76.19 48.50 74.65 48.50 Q 74.65 48.50 73.81 48.46 Q 73.79 48.05 73.52 47.03 Q 73.52 47.03 73.27 46.67 Q 74.09 46.73 75.47 46.78 Q 75.47 46.78 75.78 46.78 Q 76.08 46.78 76.47 46.62 Q 76.47 46.62 76.62 46.41 Q 76.88 46.17 77.05 45.39 Q 77.05 45.37 77.08 45.33 L 67.26 45.33 Q 67.49 44.22 67.71 42.81 Q 67.90 41.67 68.08 40.46 L 66.00 40.46 L 66.00 38.50 L 68.33 38.50 Q 68.44 37.65 68.55 36.78 Q 68.74 35.27 68.85 33.90 Z M 69.42 27.62 L 71.48 28.15 Q 71.17 29.12 70.76 30.10 L 80.86 30.10 L 80.86 32.02 L 69.87 32.02 Q 69.46 32.81 69.01 33.56 Q 68.29 34.79 67.51 35.72 Q 67.32 35.53 66.63 35.08 Q 66.63 35.08 65.93 34.65 Q 65.93 34.65 65.68 34.51 Q 66.47 33.67 67.88 31.46 Q 67.88 31.46 69.01 28.91 Q 69.01 28.91 69.42 27.62 Z M 61.05 47.14 Q 61.50 46.26 62.60 43.81 Q 62.60 43.81 63.73 41.09 Q 63.73 41.09 64.18 39.77 L 65.83 40.95 Q 65.43 42.15 64.43 44.74 Q 64.43 44.74 63.39 47.23 Q 63.39 47.23 62.91 48.29 Z M 77.38 43.47 Q 77.38 43.36 77.40 43.25 Q 77.53 42.08 77.64 40.46 L 73.00 40.46 Q 73.61 40.93 74.29 41.56 Q 75.04 42.28 75.45 42.86 L 74.56 43.47 Z M 61.65 29.41 L 62.84 27.96 Q 63.50 28.26 65.02 29.08 Q 65.02 29.08 66.39 29.91 Q 66.39 29.91 66.81 30.27 L 65.57 31.91 Q 65.16 31.55 63.82 30.64 Q 63.82 30.64 62.30 29.75 Q 62.30 29.75 61.65 29.41 Z M 71.62 41.07 L 72.62 40.46 L 70.05 40.46 Q 69.89 41.72 69.72 42.88 Q 69.67 43.17 69.62 43.47 L 74.02 43.47 Q 73.66 42.99 73.07 42.40 Q 72.34 41.65 71.62 41.07 Z M 60.40 35.96 L 61.57 34.49 Q 62.21 34.79 63.66 35.58 Q 63.66 35.58 64.92 36.39 Q 64.92 36.39 65.33 36.76 L 64.09 38.39 Q 63.73 38.02 62.46 37.15 Q 62.46 37.15 61.03 36.28 Q 61.03 36.28 60.40 35.96 Z M 77.76 38.50 Q 77.81 37.24 77.87 35.74 L 73.59 35.74 Q 74.13 36.20 74.72 36.74 Q 75.41 37.41 75.76 37.91 L 74.95 38.50 Z M 72.23 36.33 L 73.09 35.74 L 70.65 35.74 Q 70.59 36.28 70.53 36.85 Q 70.41 37.69 70.33 38.50 L 74.38 38.50 Q 74.07 38.08 73.55 37.55 Q 72.88 36.85 72.23 36.33 Z M 89.77 32.59 L 95.55 32.59 L 95.55 31.09 L 91.04 31.09 L 91.04 29.34 L 95.55 29.34 L 95.55 27.76 L 97.52 27.76 L 97.52 29.34 L 102.64 29.34 L 102.64 32.59 L 104.03 32.59 L 104.03 34.27 L 102.64 34.27 L 102.64 37.60 L 97.52 37.60 L 97.52 48.59 L 95.55 48.59 L 95.55 37.60 L 90.86 37.60 L 90.86 35.85 L 95.55 35.85 L 95.55 34.27 L 89.77 34.27 Z M 83.72 29.19 L 89.21 29.19 L 89.21 43.04 L 85.44 43.04 L 85.44 45.12 L 83.72 45.12 Z M 85.44 30.88 L 85.44 41.29 L 87.50 41.29 L 87.50 30.88 Z M 90.40 38.64 L 92.17 38.64 L 92.17 40.41 Q 92.17 41.67 91.93 44.55 Q 91.93 44.55 91.07 47.43 Q 91.07 47.43 90.16 48.72 Q 89.88 48.46 88.95 47.77 Q 88.95 47.77 88.60 47.60 Q 89.41 46.43 90.20 43.92 Q 90.20 43.92 90.40 41.43 Q 90.40 41.43 90.40 40.36 Z M 101.04 38.64 L 102.81 38.64 L 102.81 48.55 L 101.04 48.55 Z M 93.49 39.59 L 94.90 39.86 Q 94.76 41.11 94.31 43.60 Q 94.31 43.60 93.69 45.82 Q 93.69 45.82 93.31 46.69 Q 93.10 46.52 92.38 46.05 Q 92.38 46.05 92.11 45.91 Q 92.67 44.72 93.31 41.33 Q 93.31 41.33 93.49 39.59 Z M 98.05 39.79 L 99.38 39.64 Q 99.68 40.68 100.22 43.06 Q 100.22 43.06 100.63 45.26 Q 100.63 45.26 100.72 46.05 L 99.25 46.32 Q 99.18 45.50 98.81 43.27 Q 98.81 43.27 98.32 40.86 Q 98.32 40.86 98.05 39.79 Z M 97.52 34.27 L 97.52 35.85 L 100.78 35.85 L 100.78 34.27 Z M 97.52 31.09 L 97.52 32.59 L 100.78 32.59 L 100.78 31.09 Z M 113.43 38.60 L 118.34 38.60 L 118.34 33.97 L 112.55 33.97 L 112.55 31.93 L 119.01 31.93 Q 118.79 31.18 118.28 30.16 Q 117.78 29.10 117.24 28.24 L 119.19 27.53 Q 119.77 28.39 120.85 30.43 Q 120.85 30.43 121.09 31.16 L 119.10 31.93 L 126.15 31.93 L 126.15 33.97 L 120.55 33.97 L 120.55 38.60 L 125.33 38.60 L 125.33 40.63 L 120.55 40.63 L 120.55 45.96 L 126.74 45.96 L 126.74 48.00 L 111.85 48.00 L 111.85 45.96 L 118.34 45.96 L 118.34 40.63 L 113.43 40.63 Z M 106.36 47.00 Q 106.98 46.17 108.48 43.77 Q 108.48 43.77 110.01 41.07 Q 110.01 41.07 110.67 39.77 L 112.24 41.18 Q 111.64 42.38 110.26 44.94 Q 110.26 44.94 108.85 47.39 Q 108.85 47.39 108.18 48.46 Z M 106.95 29.46 L 108.16 27.92 Q 108.85 28.22 110.47 29.05 Q 110.47 29.05 111.96 29.89 Q 111.96 29.89 112.46 30.25 L 111.21 32.00 Q 110.77 31.64 109.28 30.73 Q 109.28 30.73 107.68 29.80 Q 107.68 29.80 106.95 29.46 Z M 105.73 35.79 L 106.88 34.17 Q 107.59 34.47 109.17 35.29 Q 109.17 35.29 110.65 36.10 Q 110.65 36.10 111.14 36.44 L 109.95 38.23 Q 109.49 37.87 108.04 37.00 Q 108.04 37.00 106.43 36.12 Q 106.43 36.12 105.73 35.79 Z M 136.62 43.10 L 137.48 42.26 L 131.73 42.26 L 131.73 35.51 L 146.14 35.51 L 146.14 42.26 L 138.59 42.26 Q 138.89 42.43 139.19 42.58 Q 139.86 42.99 141.09 43.83 Q 141.09 43.83 141.50 44.16 L 140.18 45.50 Q 139.82 45.15 138.62 44.26 Q 138.62 44.26 137.26 43.42 Q 137.26 43.42 136.62 43.10 Z M 130.17 29.15 L 137.96 29.15 Q 137.96 29.15 137.96 29.12 Q 137.69 28.42 137.37 27.83 L 139.43 27.42 Q 139.78 27.96 140.10 28.67 Q 140.21 28.91 140.30 29.15 L 147.50 29.15 L 147.50 30.84 L 142.89 30.84 L 144.45 31.14 Q 144.06 31.86 143.72 32.50 Q 143.63 32.65 143.54 32.81 L 148.68 32.81 L 148.68 34.51 L 129.10 34.51 L 129.10 32.81 L 134.15 32.81 Q 134.09 32.59 134.00 32.33 Q 133.77 31.68 133.50 31.16 L 135.04 30.84 L 130.17 30.84 Z M 134.15 43.38 L 136.21 43.38 L 136.21 46.05 Q 136.21 46.48 136.71 46.71 Q 136.71 46.71 137.55 46.71 L 141.16 46.71 Q 141.63 46.71 142.09 46.43 Q 142.09 46.43 142.29 45.53 Q 142.29 45.53 142.33 44.62 Q 142.65 44.83 143.74 45.22 Q 143.74 45.22 144.17 45.30 Q 144.06 46.58 143.47 47.95 Q 143.47 47.95 142.35 48.48 Q 142.35 48.48 141.36 48.48 L 137.35 48.48 Q 136.06 48.48 134.67 48.05 Q 134.67 48.05 134.15 47.00 Q 134.15 47.00 134.15 46.08 Z M 133.74 39.55 L 133.74 40.86 L 144.01 40.86 L 144.01 39.55 Z M 133.74 36.92 L 133.74 38.21 L 144.01 38.21 L 144.01 36.92 Z M 136.33 32.81 L 141.34 32.81 Q 141.55 32.41 141.75 31.91 Q 142.02 31.31 142.18 30.84 L 135.49 30.84 Q 135.76 31.31 135.99 31.88 Q 136.21 32.41 136.33 32.81 Z M 131.43 43.15 L 133.22 43.92 Q 132.73 44.98 131.34 47.30 Q 131.34 47.30 130.46 48.12 L 128.69 47.05 Q 129.55 46.32 131.00 44.14 Q 131.00 44.14 131.43 43.15 Z M 144.17 43.69 L 145.90 42.92 Q 146.46 43.51 147.60 44.92 Q 147.60 44.92 148.52 46.32 Q 148.52 46.32 148.80 46.89 L 146.96 47.75 Q 146.74 47.19 145.85 45.78 Q 145.85 45.78 144.73 44.31 Q 144.73 44.31 144.17 43.69 Z M 159.63 28.42 L 170.71 28.42 L 170.71 28.74 Q 170.69 29.05 170.67 29.28 Q 170.60 31.68 170.21 33.95 Q 170.21 33.95 169.84 34.38 Q 169.49 34.75 168.58 35.01 Q 168.58 35.01 168.00 35.06 Q 167.43 35.08 165.47 35.08 Q 165.47 35.08 164.37 35.01 Q 164.35 34.62 164.02 33.63 Q 164.02 33.63 163.80 33.26 Q 164.52 33.31 165.82 33.36 Q 165.82 33.36 166.84 33.38 Q 166.84 33.38 167.07 33.38 Q 167.43 33.38 167.83 33.31 Q 167.83 33.31 168.00 33.20 Q 168.15 33.02 168.35 32.05 Q 168.35 32.05 168.43 31.12 Q 168.45 30.79 168.47 30.41 L 161.77 30.41 L 161.77 36.26 L 169.58 36.26 L 169.97 36.20 L 171.35 36.62 Q 170.85 39.29 169.76 41.61 Q 169.10 43.01 168.24 44.24 Q 168.43 44.42 168.61 44.57 Q 170.19 46.00 172.12 46.82 Q 171.87 47.03 171.33 47.68 Q 171.33 47.68 170.81 48.36 Q 170.81 48.36 170.64 48.64 Q 168.63 47.66 167.00 46.05 Q 166.92 45.98 166.86 45.91 Q 165.25 47.62 163.07 48.75 Q 162.83 48.36 162.42 47.91 Q 162.08 47.53 161.77 47.25 L 161.77 48.61 L 159.63 48.61 Z M 150.83 39.43 Q 151.86 39.18 153.15 38.86 Q 153.67 38.73 154.22 38.60 L 154.22 34.19 L 151.15 34.19 L 151.15 32.11 L 154.22 32.11 L 154.22 27.64 L 156.39 27.64 L 156.39 32.11 L 158.79 32.11 L 158.79 34.19 L 156.39 34.19 L 156.39 38.02 Q 157.57 37.71 158.72 37.39 L 158.98 39.45 Q 157.71 39.84 156.39 40.20 L 156.39 46.17 Q 156.39 47.08 155.93 48.03 Q 155.93 48.03 154.83 48.53 Q 154.83 48.53 153.06 48.68 Q 153.06 48.68 151.70 48.66 Q 151.63 48.25 151.24 47.08 Q 151.24 47.08 151.02 46.62 Q 151.93 46.64 153.47 46.67 Q 153.47 46.67 153.69 46.67 Q 153.99 46.64 154.22 46.43 Q 154.22 46.43 154.22 46.17 L 154.22 40.81 Q 152.67 41.26 151.33 41.61 Z M 165.47 44.33 Q 164.76 43.40 164.15 42.34 Q 162.98 40.38 162.21 38.19 L 161.77 38.19 L 161.77 47.08 Q 163.26 46.32 164.48 45.28 Q 165.00 44.83 165.47 44.33 Z M 164.26 38.19 Q 164.89 39.81 165.84 41.29 Q 166.29 42.02 166.81 42.67 Q 167.68 41.36 168.26 39.90 Q 168.61 39.07 168.86 38.19 Z" xml:space="preserve" style="font-weight:613;font-size:22.6666px;line-height:1.2;font-family:'Dream Han Sans SC';-inkscape-font-specification:'Dream Han Sans SC weight=613';text-align:start;writing-mode:lr-tb;direction:ltr;text-anchor:start;fill:#ffffff;stroke-width:0.999998" id="text9" data-original-text="海啸注意报" data-original-element="text"/>
</svg>