<?xml version="1.0" ?>
<svg xmlns="http://www.w3.org/2000/svg" xmlns:ns1="http://sodipodi.sourceforge.net/DTD/sodipodi-0.dtd" xmlns:ns2="http://www.inkscape.org/namespaces/inkscape" viewBox="0 0 192 36" version="1.1" height="36" width="192" id="svg3" ns1:docname="21e4e789353da18324441fc38a5e75b1.svg" ns2:version="1.4.2 (f4327f4, 2025-05-13)">
  <defs id="defs3"/>
  <ns1:namedview id="namedview3" pagecolor="#505050" bordercolor="#eeeeee" borderopacity="1" ns2:showpageshadow="0" ns2:pageopacity="0" ns2:pagecheckerboard="0" ns2:deskcolor="#505050" ns2:zoom="4.6171875" ns2:cx="62.483926" ns2:cy="22.849408" ns2:window-width="1920" ns2:window-height="945" ns2:window-x="-9" ns2:window-y="40" ns2:window-maximized="1" ns2:current-layer="svg3"/>
  <path style="-inkscape-stroke:none;paint-order:stroke markers fill" stroke-linejoin="round" stroke-linecap="round" fill-rule="evenodd" fill="#7d97b4" color="#000000" d="m19 2c-9.31184 0-17 7.09393-17 16 0 8.90606 7.68816 16 17 16h154c9.31184 0 17-7.09394 17-16 0-8.90607-7.68816-16-17-16z" id="path1"/>
  <path style="-inkscape-stroke:none;paint-order:stroke markers fill" stroke-linejoin="round" stroke-linecap="round" fill-rule="evenodd" fill="#31476d" color="#000000" d="m19 4h154c8.31 0 15 6.244 15 14 0 7.75599-6.69 13.99999-15 13.99999h-154c-8.31 0-15-6.244-15-13.99999 0-7.756 6.69-14 15-14z" id="path2"/>
  <path d="M 0.0 0.0 L 192.0 0.0 L 192.0 36.0 L 0.0 36.0 Z" style="paint-order:stroke markers fill" fill="none" id="rect1" data-original-element="rect"/>
  <path d="M 37.97 11.87 L 47.31 11.87 L 47.31 17.38 L 44.84 17.38 Q 45.11 17.62 45.41 17.86 Q 46.14 18.41 47.91 19.23 Q 47.91 19.23 48.84 19.47 Q 48.69 19.59 48.38 19.98 Q 48.38 19.98 48.10 20.38 Q 48.10 20.38 47.98 20.54 Q 47.04 20.23 46.12 19.71 Q 45.78 19.53 45.47 19.31 L 45.47 23.76 L 44.16 23.76 L 44.16 19.10 L 45.15 19.10 Q 44.79 18.83 44.47 18.54 Q 43.85 17.99 43.39 17.38 L 41.95 17.38 Q 41.48 17.99 40.83 18.55 Q 40.50 18.83 40.16 19.08 L 41.28 19.08 L 41.28 19.94 Q 41.28 20.42 41.08 21.49 Q 41.08 21.49 40.48 22.53 Q 40.48 22.53 39.31 23.51 Q 39.31 23.51 38.30 23.88 Q 38.23 23.73 37.92 23.35 Q 37.92 23.35 37.60 22.99 Q 37.60 22.99 37.45 22.87 Q 38.30 22.57 39.33 21.83 Q 39.33 21.83 39.84 21.04 Q 39.84 21.04 40.00 20.24 Q 40.00 20.24 40.00 19.90 L 40.00 19.19 Q 39.59 19.48 39.16 19.73 Q 38.25 20.26 37.32 20.59 Q 37.23 20.43 36.94 20.04 Q 36.94 20.04 36.61 19.67 Q 36.61 19.67 36.48 19.55 Q 37.37 19.30 39.12 18.42 Q 39.12 18.42 39.84 17.86 Q 40.16 17.62 40.43 17.38 L 37.97 17.38 Z M 43.24 15.10 L 43.24 16.34 L 46.00 16.34 L 46.00 15.10 Z M 39.22 15.10 L 39.22 16.34 L 41.96 16.34 L 41.96 15.10 Z M 43.24 12.91 L 43.24 14.12 L 46.00 14.12 L 46.00 12.91 Z M 39.22 12.91 L 39.22 14.12 L 41.96 14.12 L 41.96 12.91 Z M 50.59 14.92 L 54.75 14.92 Q 54.78 14.78 54.81 14.63 Q 54.92 14.16 55.00 13.69 Q 55.03 13.56 55.04 13.46 L 50.02 13.46 L 50.02 12.25 L 61.94 12.25 L 61.94 13.46 L 56.49 13.46 Q 56.33 14.01 56.16 14.55 Q 56.11 14.75 56.04 14.92 L 61.29 14.92 L 61.29 23.80 L 60.02 23.80 L 60.02 23.11 L 51.81 23.11 L 51.81 23.80 L 50.59 23.80 Z M 60.02 21.95 L 60.02 16.10 L 58.25 16.10 L 58.25 21.95 Z M 53.48 16.10 L 51.81 16.10 L 51.81 21.95 L 53.48 21.95 Z M 54.63 21.95 L 57.11 21.95 L 57.11 20.63 L 54.63 20.63 Z M 57.11 19.63 L 57.11 18.33 L 54.63 18.33 L 54.63 19.63 Z M 57.11 16.10 L 54.63 16.10 L 54.63 17.34 L 57.11 17.34 Z M 68.19 11.91 L 69.27 11.46 Q 69.65 11.97 70.37 13.24 Q 70.37 13.24 70.54 13.71 L 69.64 14.10 L 71.70 14.10 Q 71.85 13.79 72.03 13.42 Q 72.27 12.91 72.67 11.88 Q 72.67 11.88 72.80 11.45 L 74.12 11.84 Q 73.79 12.61 73.41 13.36 Q 73.21 13.76 73.04 14.10 L 74.37 14.10 L 74.37 18.48 L 72.84 18.48 L 72.84 22.03 Q 72.84 22.31 72.96 22.46 Q 72.96 22.46 73.16 22.46 L 73.99 22.46 Q 74.13 22.46 74.27 22.24 Q 74.27 22.24 74.35 21.55 Q 74.35 21.55 74.35 20.85 Q 74.48 20.95 74.87 21.15 Q 74.87 21.15 75.30 21.30 Q 75.30 21.30 75.47 21.35 Q 75.41 22.24 75.12 23.24 Q 75.12 23.24 74.59 23.63 Q 74.59 23.63 74.12 23.63 L 72.95 23.63 Q 72.40 23.63 71.83 23.33 Q 71.83 23.33 71.60 22.64 Q 71.60 22.64 71.60 22.05 L 71.60 18.48 L 70.54 18.48 Q 70.47 19.31 70.34 20.04 Q 70.16 20.89 69.48 22.30 Q 69.48 22.30 68.25 23.41 Q 68.25 23.41 67.29 23.80 Q 67.18 23.59 66.73 23.00 Q 66.73 23.00 66.53 22.85 Q 67.39 22.52 68.43 21.60 Q 68.43 21.60 68.99 20.44 Q 68.99 20.44 69.12 19.73 Q 69.22 19.15 69.27 18.48 L 67.68 18.48 L 67.68 14.10 L 69.33 14.10 Q 69.25 13.83 69.10 13.50 Q 68.92 13.09 68.44 12.25 Q 68.44 12.25 68.19 11.91 Z M 63.16 15.57 L 66.25 15.57 L 66.25 20.71 L 67.68 19.67 Q 67.72 19.86 67.88 20.28 Q 67.88 20.28 68.04 20.68 Q 68.04 20.68 68.11 20.82 Q 67.13 21.55 65.92 22.48 Q 65.92 22.48 65.26 23.02 Q 65.26 23.02 64.94 23.32 Q 64.94 23.32 64.87 23.43 Q 64.80 23.27 64.56 22.83 Q 64.56 22.83 64.28 22.39 Q 64.28 22.39 64.15 22.27 Q 64.31 22.16 64.69 21.79 Q 64.69 21.79 64.97 21.27 Q 64.97 21.27 64.97 20.96 L 64.97 16.82 L 63.16 16.82 Z M 68.91 15.22 L 68.91 17.35 L 73.11 17.35 L 73.11 15.22 Z M 63.94 12.43 L 64.79 11.67 Q 65.15 11.99 65.96 12.75 Q 65.96 12.75 66.68 13.48 Q 66.68 13.48 66.89 13.78 L 66.00 14.66 Q 65.78 14.36 65.09 13.58 Q 65.09 13.58 64.29 12.76 Q 64.29 12.76 63.94 12.43 Z M 82.56 11.99 L 88.40 11.99 L 88.40 22.27 Q 88.40 22.80 88.12 23.41 Q 88.12 23.41 87.78 23.55 Q 87.41 23.71 86.27 23.79 Q 86.27 23.79 85.41 23.79 Q 85.39 23.61 85.24 23.17 Q 85.24 23.17 85.07 22.72 Q 85.07 22.72 84.96 22.57 Q 85.37 22.58 86.14 22.58 Q 86.14 22.58 86.71 22.58 Q 86.71 22.58 86.83 22.58 Q 87.01 22.57 87.14 22.43 Q 87.14 22.43 87.14 22.25 L 87.14 19.57 L 83.54 19.57 Q 83.45 20.03 83.32 20.51 Q 83.02 21.47 81.94 23.22 Q 81.94 23.22 81.01 23.89 Q 80.92 23.76 80.59 23.45 Q 80.59 23.45 80.21 23.13 Q 80.21 23.13 80.08 23.04 Q 80.92 22.42 81.92 20.89 Q 81.92 20.89 82.41 19.20 Q 82.41 19.20 82.56 17.55 Q 82.56 17.55 82.56 16.78 Z M 76.95 12.20 L 81.45 12.20 L 81.45 20.27 L 78.12 20.27 L 78.12 21.47 L 76.95 21.47 Z M 83.79 16.34 L 83.79 16.78 Q 83.79 17.55 83.71 18.42 L 87.14 18.42 L 87.14 16.34 Z M 83.79 13.15 L 83.79 15.20 L 87.14 15.20 L 87.14 13.15 Z M 78.12 16.75 L 78.12 19.11 L 80.30 19.11 L 80.30 16.75 Z M 78.12 13.35 L 78.12 15.62 L 80.30 15.62 L 80.30 13.35 Z M 95.95 16.07 Q 96.38 16.07 97.07 16.50 Q 97.07 16.50 97.50 17.18 Q 97.50 17.18 97.50 17.62 Q 97.50 18.03 97.07 18.74 Q 97.07 18.74 96.39 19.16 Q 96.39 19.16 95.95 19.16 Q 95.54 19.16 94.83 18.74 Q 94.83 18.74 94.40 18.03 Q 94.40 18.03 94.40 17.62 Q 94.40 17.19 94.83 16.50 Q 94.83 16.50 95.54 16.07 Q 95.54 16.07 95.95 16.07 Z M 107.67 17.87 L 110.55 17.87 L 110.55 15.15 L 107.14 15.15 L 107.14 13.95 L 110.95 13.95 Q 110.82 13.51 110.52 12.91 Q 110.22 12.29 109.91 11.78 L 111.05 11.36 Q 111.39 11.87 112.03 13.07 Q 112.03 13.07 112.17 13.50 L 111.00 13.95 L 115.15 13.95 L 115.15 15.15 L 111.85 15.15 L 111.85 17.87 L 114.66 17.87 L 114.66 19.07 L 111.85 19.07 L 111.85 22.20 L 115.49 22.20 L 115.49 23.41 L 106.73 23.41 L 106.73 22.20 L 110.55 22.20 L 110.55 19.07 L 107.67 19.07 Z M 103.51 22.81 Q 103.87 22.33 104.75 20.91 Q 104.75 20.91 105.65 19.32 Q 105.65 19.32 106.04 18.56 L 106.96 19.39 Q 106.61 20.10 105.80 21.60 Q 105.80 21.60 104.97 23.04 Q 104.97 23.04 104.57 23.67 Z M 103.85 12.49 L 104.56 11.59 Q 104.97 11.77 105.92 12.25 Q 105.92 12.25 106.80 12.75 Q 106.80 12.75 107.09 12.96 L 106.36 13.99 Q 106.10 13.78 105.22 13.24 Q 105.22 13.24 104.28 12.70 Q 104.28 12.70 103.85 12.49 Z M 103.13 16.22 L 103.81 15.27 Q 104.23 15.44 105.16 15.93 Q 105.16 15.93 106.03 16.40 Q 106.03 16.40 106.32 16.60 L 105.61 17.66 Q 105.35 17.44 104.50 16.94 Q 104.50 16.94 103.54 16.41 Q 103.54 16.41 103.13 16.22 Z M 121.31 20.52 L 121.81 20.03 L 118.43 20.03 L 118.43 16.06 L 126.90 16.06 L 126.90 20.03 L 122.46 20.03 Q 122.64 20.13 122.82 20.22 Q 123.21 20.46 123.94 20.95 Q 123.94 20.95 124.18 21.15 L 123.40 21.93 Q 123.19 21.73 122.48 21.21 Q 122.48 21.21 121.68 20.71 Q 121.68 20.71 121.31 20.52 Z M 117.51 12.31 L 122.09 12.31 Q 122.09 12.31 122.09 12.30 Q 121.94 11.88 121.75 11.54 L 122.96 11.30 Q 123.16 11.62 123.35 12.03 Q 123.41 12.18 123.47 12.31 L 127.70 12.31 L 127.70 13.31 L 124.99 13.31 L 125.91 13.48 Q 125.68 13.91 125.48 14.29 Q 125.43 14.38 125.37 14.47 L 128.40 14.47 L 128.40 15.47 L 116.88 15.47 L 116.88 14.47 L 119.85 14.47 Q 119.81 14.34 119.76 14.19 Q 119.63 13.80 119.47 13.50 L 120.37 13.31 L 117.51 13.31 Z M 119.85 20.68 L 121.06 20.68 L 121.06 22.25 Q 121.06 22.51 121.36 22.64 Q 121.36 22.64 121.85 22.64 L 123.97 22.64 Q 124.25 22.64 124.52 22.48 Q 124.52 22.48 124.64 21.95 Q 124.64 21.95 124.66 21.41 Q 124.85 21.54 125.49 21.77 Q 125.49 21.77 125.75 21.82 Q 125.68 22.57 125.33 23.37 Q 125.33 23.37 124.68 23.69 Q 124.68 23.69 124.09 23.69 L 121.73 23.69 Q 120.97 23.69 120.16 23.43 Q 120.16 23.43 119.85 22.81 Q 119.85 22.81 119.85 22.27 Z M 119.61 18.43 L 119.61 19.20 L 125.65 19.20 L 125.65 18.43 Z M 119.61 16.88 L 119.61 17.64 L 125.65 17.64 L 125.65 16.88 Z M 121.14 14.47 L 124.08 14.47 Q 124.20 14.23 124.32 13.94 Q 124.48 13.59 124.57 13.31 L 120.64 13.31 Q 120.80 13.59 120.93 13.92 Q 121.06 14.23 121.14 14.47 Z M 118.25 20.55 L 119.31 21.00 Q 119.01 21.63 118.20 22.99 Q 118.20 22.99 117.68 23.47 L 116.64 22.85 Q 117.14 22.42 118.00 21.13 Q 118.00 21.13 118.25 20.55 Z M 125.75 20.87 L 126.76 20.42 Q 127.09 20.76 127.76 21.59 Q 127.76 21.59 128.30 22.42 Q 128.30 22.42 128.47 22.75 L 127.39 23.26 Q 127.26 22.92 126.73 22.10 Q 126.73 22.10 126.08 21.23 Q 126.08 21.23 125.75 20.87 Z M 135.27 11.43 L 136.53 11.43 L 136.53 12.40 L 141.79 12.40 L 141.79 13.42 L 136.53 13.42 L 136.53 14.11 L 140.45 14.11 L 140.45 16.59 L 136.53 16.59 L 136.53 17.39 L 140.67 17.39 L 140.67 19.04 L 142.07 19.04 L 142.07 20.03 L 140.67 20.03 L 140.67 22.39 L 139.40 22.39 L 139.40 21.80 L 136.53 21.80 L 136.53 22.51 Q 136.53 23.02 136.24 23.52 Q 136.24 23.52 135.89 23.66 Q 135.55 23.78 134.46 23.84 Q 134.46 23.84 133.60 23.84 Q 133.56 23.61 133.30 23.03 Q 133.30 23.03 133.17 22.81 Q 133.54 22.83 134.27 22.85 Q 134.27 22.85 134.81 22.83 Q 134.81 22.83 134.93 22.83 Q 135.12 22.81 135.27 22.70 Q 135.27 22.70 135.27 22.51 L 135.27 21.80 L 131.05 21.80 L 131.05 20.87 L 135.27 20.87 L 135.27 20.03 L 129.87 20.03 L 129.87 19.04 L 135.27 19.04 L 135.27 18.27 L 131.16 18.27 L 131.16 17.39 L 135.27 17.39 L 135.27 16.59 L 131.52 16.59 L 131.52 14.11 L 135.27 14.11 L 135.27 13.42 L 130.15 13.42 L 130.15 12.40 L 135.27 12.40 Z M 136.53 20.03 L 136.53 20.87 L 139.40 20.87 L 139.40 20.03 Z M 136.53 18.27 L 136.53 19.04 L 139.40 19.04 L 139.40 18.27 Z M 136.53 14.94 L 136.53 15.75 L 139.18 15.75 L 139.18 14.94 Z M 132.73 14.94 L 132.73 15.75 L 135.27 15.75 L 135.27 14.94 Z M 147.70 11.99 L 155.41 11.99 L 155.41 13.11 L 152.08 13.11 Q 151.90 13.51 151.72 13.88 Q 151.60 14.14 151.49 14.35 L 154.63 14.35 L 154.63 20.61 L 153.35 20.61 L 153.35 15.47 L 149.37 15.47 L 149.37 20.65 L 148.15 20.65 L 148.15 14.35 L 150.19 14.35 Q 150.33 14.01 150.47 13.58 Q 150.55 13.33 150.61 13.11 L 147.70 13.11 Z M 143.17 12.95 L 147.50 12.95 L 147.50 14.14 L 146.04 14.14 L 146.04 19.23 Q 146.80 19.02 147.56 18.80 L 147.72 19.87 Q 146.55 20.27 144.20 21.08 Q 144.20 21.08 143.25 21.40 L 142.95 20.09 Q 143.51 19.94 144.25 19.73 Q 144.51 19.67 144.79 19.59 L 144.79 14.14 L 143.17 14.14 Z M 150.75 16.11 L 152.01 16.11 L 152.01 18.89 Q 152.01 19.58 151.67 20.94 Q 151.67 20.94 150.72 22.23 Q 150.72 22.23 148.96 23.35 Q 148.96 23.35 147.55 23.80 Q 147.46 23.67 147.18 23.31 Q 147.18 23.31 146.88 22.95 Q 146.88 22.95 146.75 22.83 Q 148.10 22.47 149.71 21.54 Q 149.71 21.54 150.50 20.48 Q 150.50 20.48 150.75 19.39 Q 150.75 19.39 150.75 18.88 Z M 151.79 21.58 L 152.57 20.82 Q 153.07 21.11 154.19 21.86 Q 154.19 21.86 155.20 22.61 Q 155.20 22.61 155.52 22.90 L 154.68 23.78 Q 154.37 23.46 153.39 22.68 Q 153.39 22.68 152.29 21.90 Q 152.29 21.90 151.79 21.58 Z" xml:space="preserve" style="font-weight:613;font-size:13.3333px;line-height:1.2;font-family:'Dream Han Sans SC';-inkscape-font-specification:'Dream Han Sans SC weight=613';text-align:start;writing-mode:lr-tb;direction:ltr;text-anchor:start;fill:#ffffff" id="text3" data-original-text="界面说明·注意事项" data-original-element="text"/>
</svg>